<?xml version="1.0" encoding="UTF-8"?>
<svg id="a" data-name="Layer 1" xmlns="http://www.w3.org/2000/svg" width="500" height="400" viewBox="0 0 500 400">
  <path d="M220.46,138.42c-1.97,2.2-2.85,8.21-3.77,11.08-9.79,30.68-19.38,61.43-29,92.16l-37.06-100.34-6.56.09-36.26,99.86c-5.51-16.83-11.29-33.61-16.68-50.48-3.56-11.16-6.46-26-11.5-36.23-14.54-29.49-73.34-24.37-76.8,10.05-2.19,21.78,9.47,30.72,28.64,36.09,16.1,4.51,46.01,5.49,44.17,28.63-2.54,31.94-57.17,31.47-63.79,3.53-.83-3.5-.95-7.42-.93-11H0c-.02,6.45.57,12.97,3.09,18.96,14.79,35.14,82.31,30.38,83.5-11.86.6-21.53-13.65-29.04-31.97-34-15.1-4.09-41.49-5.01-41.28-25.87.27-27.4,46.48-31.08,56.84-8.7,3.42,7.39,5.33,16.63,7.93,24.43,1.46,4.38,3.28,8.71,4.71,13.09,7.05,21.47,13.52,43.14,20.7,64.56l8.48.19,35.65-99.05,35.92,98.19c1.11,1.86,6.21.53,8.3.93l36.66-114.62c2.7-2.01,5.86-.69,8.71-.66,7.51.08,14.97-.64,22.47-.42v115.7h10.92v-115.7h35.6v-10.11h-83.54c-.14,0-1.98,1.24-2.23,1.52Z"></path>
  <polygon points="500 136.89 415.05 136.89 415.05 147.01 478.96 148.01 406.55 251.78 406.55 136.89 395.63 136.89 395.63 192.72 324.84 192.72 324.84 136.89 313.92 136.89 313.92 264.73 324.84 264.73 324.84 203.24 395.63 203.24 395.63 264.73 500 264.73 500 253.8 419.09 253.8 500 136.89"></polygon>
</svg>