<svg width="89" height="64" viewBox="0 0 89 64" fill="none" xmlns="http://www.w3.org/2000/svg">
<mask id="mask0_356_15952" style="mask-type:luminance" maskUnits="userSpaceOnUse" x="0" y="0" width="89" height="64">
<path d="M88.0556 0H0V63.9112H88.0556V0Z" fill="white"></path>
</mask>
<g mask="url(#mask0_356_15952)">
<path d="M44.0629 1.8108e-05C19.7845 -0.0185809 0.0178648 14.2927 9.49765e-06 31.9123C-0.0158052 49.5309 19.7204 63.8832 43.9978 63.9113C68.2775 63.9324 88.0375 49.6145 88.0556 32.0002C88.0747 14.3801 68.34 0.0288083 44.0629 1.8108e-05Z" fill="#EE3227"></path>
<path d="M2.08937 31.9135C2.07304 48.3815 20.8765 61.8039 43.9985 61.8251C67.1234 61.8505 85.9534 48.4707 85.9684 32.0009C85.9843 15.5295 67.1826 2.11067 44.0633 2.08596C20.9341 2.06685 2.10263 15.4456 2.08937 31.9135Z" fill="white"></path>
<path d="M3.47853 31.9138C3.49638 16.2126 21.6999 3.45671 44.0579 3.47659C66.4153 3.5013 84.5928 16.2931 84.579 31.9981C84.5611 47.6995 66.3594 60.4574 43.9971 60.4327C21.6399 60.4113 3.46067 47.6193 3.47853 31.9138Z" fill="#134A7C"></path>
<path d="M32.6646 9.41804C32.5065 9.34927 32.3178 9.32303 32.1429 9.36659C32.0082 9.39817 31.8478 9.51075 31.8835 9.65136C31.9162 9.79654 32.1248 9.8024 32.2592 9.81259L32.4591 9.82329C32.8696 9.83271 33.2139 9.93816 33.3131 10.346C33.3674 10.593 33.3633 10.8663 33.1802 11.089C33.003 11.3044 32.7228 11.4466 32.4417 11.5118C32.0919 11.5897 31.7206 11.5696 31.3952 11.4588L31.5806 10.8567C31.795 10.9568 32.0388 11.0255 32.288 10.9664C32.4563 10.9219 32.6177 10.8034 32.5772 10.6267C32.5369 10.4478 32.2342 10.4512 32.0694 10.4476C31.5893 10.4379 31.2631 10.3979 31.1489 9.91677C31.0262 9.40454 31.3508 8.9807 31.9103 8.84315C32.1906 8.78431 32.5583 8.77795 32.8345 8.84519L32.6646 9.41804Z" fill="white"></path>
<path d="M35.2126 10.8724L34.4786 11.0041L34.0186 8.4689L34.7501 8.33594L35.2126 10.8724Z" fill="white"></path>
<path d="M35.9478 8.12307L36.6878 8.03138L38.2342 9.43306L38.2423 9.43052L38.0472 7.8653L38.7873 7.76953L39.106 10.3381L38.3645 10.4231L36.8155 9.01992L36.8071 9.02094L36.9997 10.592L36.2607 10.6817L35.9478 8.12307Z" fill="white"></path>
<path d="M42.1131 8.43129C41.9476 8.26089 41.7005 8.16919 41.4422 8.18932C40.9883 8.20995 40.6968 8.54286 40.7198 8.94352C40.7404 9.34852 41.0691 9.618 41.532 9.59559C41.7742 9.58591 42.0098 9.46721 42.159 9.28917L42.2059 10.0938C41.9576 10.1776 41.7847 10.2344 41.5516 10.2469C41.151 10.2721 40.7649 10.1549 40.4543 9.92442C40.1238 9.6883 39.9621 9.36227 39.9433 8.9802C39.9241 8.63048 40.0537 8.27847 40.3161 8.01662C40.5836 7.7372 40.9834 7.55788 41.381 7.53725C41.6238 7.5263 41.8423 7.55839 42.0687 7.63149L42.1131 8.43129Z" fill="white"></path>
<path d="M43.9997 8.11336L43.999 8.5479L44.8392 8.54484L44.8364 9.11413L44.001 9.11031L43.999 9.55478L44.8811 9.55886L44.879 10.1225L43.2495 10.1218L43.2505 7.54688L44.8841 7.54713L44.8879 8.11107L43.9997 8.11336Z" fill="white"></path>
<path d="M48.3799 8.28336L48.4336 7.71484L49.5834 7.82437L49.3374 10.3883L48.5974 10.3173L48.7882 8.32233L48.3799 8.28336Z" fill="white"></path>
<path d="M50.9722 10.5876L51.9114 9.85118L51.906 9.84583C51.7673 9.87742 51.6436 9.88327 51.4939 9.86035C50.938 9.7791 50.6488 9.2903 50.7195 8.82621C50.8123 8.19682 51.4348 7.94923 52.0853 8.04246C52.3579 8.08219 52.6693 8.19452 52.8587 8.38352C53.063 8.58907 53.1742 8.88047 53.1357 9.14562C53.0793 9.51419 52.8133 9.83692 52.5244 10.0901L51.8127 10.7098L50.9722 10.5876ZM51.4868 8.91791C51.4531 9.14919 51.6214 9.36875 51.8859 9.40849C52.1414 9.44975 52.3793 9.29361 52.4163 9.06029C52.4472 8.82468 52.2692 8.60971 52.0073 8.56666C51.7456 8.531 51.525 8.68052 51.4868 8.91791Z" fill="white"></path>
<path d="M55.0794 9.26985L54.9731 9.54774L55.199 9.58493C55.7845 9.6672 56.1107 10.1794 55.9931 10.7054C55.9362 10.965 55.7514 11.1866 55.4849 11.3022C55.2278 11.4191 54.9017 11.3985 54.6204 11.3302C54.3011 11.2645 53.9946 11.1247 53.7544 10.9092L53.9995 10.3144C54.1787 10.5291 54.4256 10.7113 54.7148 10.7775C54.9491 10.8251 55.198 10.7225 55.2439 10.5004C55.313 10.1962 55.0177 10.0009 54.7265 9.93516C54.5436 9.89772 54.3493 9.89313 54.168 9.92242L54.7122 8.60938L56.1732 8.92955L56.0495 9.48508L55.0794 9.26985Z" fill="white"></path>
<path d="M59.2787 9.78053L58.2517 10.3865L58.2591 10.3936C58.3951 10.3819 58.519 10.3888 58.6623 10.4278C59.2016 10.5882 59.4235 11.1096 59.2883 11.5612C59.1091 12.1695 58.4591 12.3343 57.8317 12.1509C57.5637 12.0735 57.2781 11.9217 57.1103 11.7077C56.9364 11.4813 56.8622 11.1761 56.94 10.913C57.0494 10.5582 57.3536 10.2726 57.667 10.0635L58.4667 9.53906L59.2787 9.78053ZM58.5396 11.3605C58.607 11.1341 58.4647 10.9048 58.2158 10.8284C57.9671 10.7561 57.7096 10.875 57.6423 11.0964C57.5762 11.3282 57.7315 11.5686 57.9781 11.644C58.2267 11.7189 58.4764 11.5898 58.5396 11.3605Z" fill="white"></path>
<path d="M41.7727 53.3052C41.7729 54.5716 41.702 54.7917 41.6122 54.8755C41.4352 55.0306 40.9292 55.1878 40.5438 54.9221C40.1804 54.6709 40.0375 54.1288 40.0375 53.1403C40.0378 52.5873 40.1008 51.8816 40.2133 51.0717C39.62 51.0129 38.8046 51.0113 38.4065 51.0745C38.3136 51.4602 38.1394 52.5694 38.1387 53.6649C38.1389 54.5092 38.2177 55.3697 38.6279 55.9106C38.9355 56.3197 39.3703 56.5093 39.983 56.4927C39.9891 56.4927 40.6836 56.551 41.2766 56.1585L41.7441 55.9299C41.7441 55.9299 41.7558 56.3829 41.7987 56.442C42.0907 56.495 43.4002 56.453 43.4002 56.453C43.4119 56.4542 43.5308 51.5119 43.5445 51.0801C43.1262 51.0185 42.2144 51.0302 41.7625 51.0773C41.7666 52.0367 41.7727 52.7768 41.7727 53.3052Z" fill="white"></path>
<path d="M37.1444 55.3494C37.3933 54.2526 36.5272 53.591 35.2914 53.0502C34.9066 52.8792 34.5418 52.7111 34.6326 52.2917C34.7849 51.5929 36.0357 51.8915 36.5422 52.0864C36.6491 51.8648 36.7351 51.3025 36.7491 50.991C36.7514 50.952 33.1811 50.1981 32.7975 51.9524C32.5435 53.109 33.5117 53.6122 34.4077 54.0129C35.0736 54.3115 35.4544 54.6202 35.3111 55.0959C35.1295 55.6635 33.6864 55.4451 33.1651 55.1619C33.0085 55.3787 32.8939 55.9381 32.8868 56.2448C34.1409 56.8868 36.7912 56.8914 37.1444 55.3494Z" fill="white"></path>
<path d="M54.9848 55.3708C55.2356 54.2741 54.3704 53.6097 53.1349 53.0688C52.7513 52.902 52.3818 52.7292 52.4746 52.3084C52.6287 51.6144 53.8784 51.913 54.3839 52.1071C54.489 51.8799 54.5785 51.3273 54.5903 51.0104C54.5951 50.9706 51.0233 50.2191 50.642 51.9706C50.3906 53.1333 51.3575 53.6329 52.254 54.0331C52.9158 54.3304 53.2992 54.6412 53.152 55.1128C52.9763 55.686 51.5296 55.4689 51.0052 55.178C50.8509 55.4045 50.7387 55.9619 50.729 56.2645C51.9859 56.9035 54.6308 56.9131 54.9848 55.3708Z" fill="white"></path>
<path d="M49.916 54.559C49.8486 53.5782 48.7361 53.4292 48.743 53.3744C48.7473 53.314 49.7063 52.8547 49.4268 51.8815C48.9697 50.2898 45.174 51.1677 44.9924 51.2008C44.9932 51.4961 44.9243 56.527 44.9243 56.527C44.9414 56.5433 46.8148 56.7782 48.1938 56.5016C48.9651 56.3538 49.9938 55.7602 49.916 54.559ZM46.6406 53.22C46.5898 53.1637 46.5936 52.15 46.6824 52.1218C46.9512 52.0173 47.9337 51.9832 47.8931 52.5691C47.8546 53.113 46.6865 53.2707 46.6406 53.22ZM46.6929 55.4341C46.637 55.3704 46.6495 54.4189 46.7278 54.3504C47.0555 54.0566 48.2382 53.9728 48.2127 54.7718C48.1819 55.5235 46.762 55.5172 46.6929 55.4341Z" fill="white"></path>
<path fill-rule="evenodd" clip-rule="evenodd" d="M36.4572 17.7164C36.4692 17.7118 36.4782 17.7116 36.4891 17.7096C36.4894 17.7096 36.4598 17.7124 36.4572 17.7164ZM73.9169 31.6426C75.3099 31.2115 75.5744 29.9523 75.5739 29.0823C75.5739 29.0193 75.5703 28.9567 75.5703 28.906C75.5614 28.6802 75.4673 28.11 74.8674 27.7727C75.1436 26.1095 75.514 23.2882 75.516 21.2775C75.516 20.862 75.5002 20.4788 75.4681 20.1501C75.4385 19.8872 75.2502 19.0135 74.0126 18.7401C73.3535 18.5891 70.8945 18.6474 69.5498 19.2377C69.172 18.3358 68.0566 18.2553 67.6732 18.2382C66.8437 18.1916 65.8519 18.2966 65.4617 18.3409C64.3138 18.478 63.5382 18.6263 63.2137 19.3565C63.114 19.5878 63.0382 19.8197 62.9602 20.0518C62.8308 19.8808 62.6852 19.7134 62.5168 19.5603C61.5583 18.7075 60.3048 18.279 58.9764 18.3391C57.3202 18.4212 55.6634 19.2836 54.3151 20.7608C53.981 21.1287 53.6986 21.5249 53.4703 21.9425C53.4351 21.9007 53.4086 21.8543 53.3693 21.8159C53.3693 21.8159 53.3721 21.8184 53.3741 21.8169C53.3596 21.795 53.3417 21.7774 53.3211 21.7527C53.3417 21.7753 53.3555 21.7924 53.3693 21.8159C52.6227 20.7458 52.3852 20.1389 52.5074 19.5827L52.5066 19.585C52.664 18.8752 52.7645 17.9766 52.1817 17.3039C51.7962 16.8588 51.2231 16.6346 50.4823 16.6359C50.4795 16.6362 47.9232 16.6418 47.9232 16.6418C45.8966 16.6517 44.9798 18.8084 44.698 20.4635C44.2914 20.1491 43.7846 19.9697 43.2073 19.9972L42.7806 20.0217C42.2778 20.0543 41.7179 20.0836 41.4611 19.9756C41.4611 19.9756 41.4565 19.971 41.4575 19.9605C41.4583 19.9129 41.4611 19.8645 41.4687 19.8202C41.4853 19.7312 41.5095 19.5819 41.51 19.3911C41.5095 19.174 41.4672 18.8928 41.333 18.6161C41.1662 18.2652 40.8167 17.8438 40.0857 17.7182C39.8281 17.6586 39.1072 17.5947 38.2872 17.573C37.3763 17.5603 36.6228 17.6887 36.4856 17.7065C36.1348 17.7613 35.4864 17.9241 35.0918 18.4232C34.8518 18.7177 34.7676 19.0403 34.7442 19.3307C33.8529 18.6849 32.764 18.3465 31.609 18.4056C30.1918 18.4729 28.7828 19.1037 27.5617 20.2125C27.5204 17.6889 27.4061 15.7457 27.3064 14.6935L27.2934 14.5059C27.2607 14.0667 27.2141 13.4797 26.7628 12.965C26.0685 12.1693 25.038 12.1742 24.7064 12.176L21.4957 12.499C21.5478 12.5003 21.5911 12.5064 21.635 12.5064C21.0728 12.4509 20.2191 12.6361 19.6737 13.3342C19.1013 14.0598 19.2365 14.9857 19.324 15.6L19.4495 16.2229C20.5068 21.2385 20.176 22.1631 19.9699 22.8505C19.8337 23.3005 19.3605 23.3718 19.1618 23.3828C18.6292 23.4192 17.488 22.8783 16.7352 22.3593C16.4113 22.1295 15.8866 21.8503 15.1153 21.9715C14.2222 22.0875 13.8664 22.8546 13.7511 23.1086L13.7353 23.1392C13.683 23.2363 13.268 24.1626 12.5025 25.8781C12.4028 26.06 12.2589 26.3992 12.2559 26.8081C12.2607 27.005 12.2916 27.2083 12.376 27.4221C12.6306 28.08 13.3948 28.6476 13.4282 28.6723C13.7294 28.8988 15.8813 30.4104 18.7259 30.7154C18.5728 31.0117 18.455 31.3544 18.3807 31.7605C18.3846 31.7394 15.703 44.9363 15.703 44.9363C15.5632 45.6229 15.3744 46.5508 16.034 47.3128C16.4626 47.7982 17.1227 48.0453 18.0014 48.0433L20.9478 48.0357C22.5199 48.0308 23.1088 47.1646 23.5103 45.8695C23.5361 45.7788 23.5624 45.6909 23.5863 45.5961C23.5922 45.6058 23.6384 45.7067 23.6384 45.7067C24.1557 46.9964 25.6331 46.9931 26.2685 46.9931L26.7439 46.9936C27.3804 46.9936 28.8514 46.9867 29.3855 45.68C29.3848 45.6812 29.4013 45.6338 29.4322 45.575C29.4383 45.5941 29.4771 45.7727 29.4771 45.7727C29.8513 47.3335 30.6507 48.0206 32.0697 48.0153L34.9699 48.0092C35.741 48.0087 36.3442 47.8163 36.77 47.4298C37.2064 47.8102 37.8196 48.0023 38.6119 48.003L40.2625 47.9962C41.3493 47.9934 42.0674 47.6064 42.4395 46.8066C42.7347 47.4224 43.3438 47.9536 44.5865 47.9414L44.6709 47.9378C44.6732 47.9386 45.4969 47.9659 45.4969 47.9659L46.0427 47.987C46.5491 47.9837 47.0544 47.7674 47.4599 47.3837C47.5898 47.2609 47.6893 47.1276 47.7854 46.9883C49.0197 47.9055 50.6073 48.8026 52.2467 48.7977C53.6458 48.7949 54.1526 48.1024 54.4335 47.5019C54.4335 47.5019 54.4878 47.3934 54.496 47.3816C55.4492 47.9088 56.5838 48.1931 57.8433 48.1923C59.773 48.1883 61.2101 47.5931 62.1702 47.0716C62.9048 47.6023 63.9996 48.0915 65.5637 48.0861C68.3387 48.0825 70.1173 46.6644 70.8925 45.0252C71.9699 45.0802 73.0584 44.7459 73.6152 44.3067C74.5554 43.5762 74.5291 42.8381 74.4049 42.0256L74.4057 42.0236C74.1205 40.1446 72.5791 40.2442 72.0745 40.2755L71.8105 40.2901C71.1144 40.2972 70.3984 40.2605 69.9737 39.7487C69.4302 38.9637 69.1297 38.2151 69.1297 37.6518C69.1289 37.5514 69.1373 37.4554 69.1621 37.371C69.221 37.0773 69.2735 36.7575 69.274 36.4324C69.2746 36.1685 69.2368 35.9022 69.146 35.6518C72.5796 35.3733 73.4841 33.174 73.9169 31.6426ZM27.0016 31.1366C26.9378 31.3501 26.748 31.9727 26.5136 32.7366C26.3305 32.1129 26.0394 31.1516 26.0394 31.1516C25.692 30.0621 25.1063 29.5508 24.5184 29.3325C25.1923 28.8693 25.7527 28.3128 26.1927 27.6425C26.67 28.3959 27.338 29.0298 28.142 29.5151C27.6913 29.7954 27.2755 30.2958 27.0016 31.1366ZM42.6541 31.2053C42.4939 31.8627 42.3571 32.6013 42.2493 33.3888C42.1551 33.2742 42.0569 33.1623 41.9467 33.0586C41.2027 32.3577 40.2135 31.9733 39.1651 31.9778C37.3125 31.9791 35.7571 33.2117 35.3367 34.8655C34.9824 33.051 34.7273 31.7192 34.7273 31.7192L34.7271 31.7274C34.6299 31.1837 34.4457 30.7416 34.2126 30.3862C34.9865 30.2176 35.74 29.9625 36.4419 29.6112C36.446 29.6084 36.5052 29.5816 36.5032 29.5816C37.2898 29.1821 38.0175 28.6084 38.6685 27.9085C38.7664 28.1457 38.8856 28.3666 39.0417 28.5801C39.8301 29.6657 41.0535 30.2866 42.4781 30.3276C42.6632 30.3345 42.8507 30.3292 43.0369 30.3139C42.8803 30.5539 42.7428 30.8492 42.6541 31.2053ZM56.9661 33.584C56.9937 34.5185 57.4143 35.5644 58.4348 36.2182C58.2341 36.1993 58.0285 36.1912 57.8265 36.2062C56.5986 36.2627 55.3719 36.7522 54.2723 37.6139C54.0598 36.5736 53.5259 35.7078 52.7005 35.2016C51.6093 34.5175 50.4382 34.2831 49.2695 34.4958C49.4886 33.6021 49.7426 32.7317 49.9166 32.2334C50.0439 31.8637 50.0939 31.5373 50.0939 31.2525C50.0959 30.7898 49.9612 30.4303 49.7957 30.1717C51.5544 29.9587 52.888 29.1077 53.7251 28.0178C54.8301 29.5913 56.7399 30.5113 58.9924 30.5057C59.0322 30.507 59.0723 30.5042 59.1136 30.4996C58.5336 30.7101 58.0895 31.0145 57.8145 31.2767C57.2498 31.8189 56.9646 32.8459 56.9646 33.5343C56.9625 33.5521 56.9669 33.5682 56.9661 33.584ZM63.3826 27.842C63.3848 27.8433 63.3869 27.8537 63.3869 27.8537C63.3869 27.8537 63.3861 27.8476 63.3815 27.8422L63.3826 27.842ZM63.6927 31.5167C63.6838 31.6352 63.6762 31.7409 63.681 31.8527C63.6787 32.0586 63.6955 32.2749 63.7284 32.4708C63.7029 32.4079 63.681 32.3475 63.646 32.2912C63.1237 31.309 62.0133 30.4522 60.8351 30.3034C62.071 30.0336 63.2568 29.4963 64.3077 28.7411C64.5261 28.9009 64.7523 29.0356 64.9837 29.147C64.2348 29.7893 63.7807 30.5844 63.6927 31.5167ZM41.3208 18.5883C41.3266 18.6013 41.3261 18.6051 41.3335 18.6166C41.3384 18.6316 41.3552 18.6487 41.3646 18.6678C41.3486 18.641 41.3345 18.6102 41.3208 18.5883Z" fill="white"></path>
<path d="M70.7902 35.9375C71.4058 35.9411 71.8985 36.4375 71.8972 37.0447C71.8977 37.6617 71.4025 38.155 70.7897 38.1543C70.1746 38.1535 69.6766 37.6581 69.6807 37.0432C69.6794 36.4291 70.1762 35.935 70.7902 35.9375ZM70.789 37.8125C71.2067 37.8079 71.5315 37.4666 71.5295 37.0473C71.5331 36.6303 71.2064 36.2829 70.7935 36.2826C70.3705 36.2834 70.0482 36.6237 70.0482 37.045C70.0456 37.464 70.3664 37.8079 70.789 37.8125ZM70.3486 36.4849L70.7864 36.4867C71.1024 36.4869 71.2852 36.5639 71.2852 36.8394C71.2829 37.058 71.149 37.1342 70.9848 37.1459L71.2355 37.6054L70.9476 37.6072L70.7209 37.1645L70.6163 37.1622L70.615 37.6082L70.3498 37.6072L70.3486 36.4849ZM70.6153 36.9541L70.8392 36.9559C70.943 36.9602 70.9986 36.9205 70.9986 36.8107C70.995 36.7029 70.8695 36.696 70.7803 36.6912L70.6189 36.6932L70.6153 36.9541Z" fill="white"></path>
<path fill-rule="evenodd" clip-rule="evenodd" d="M14.9811 23.6437C15.0461 23.5018 15.1418 23.2891 15.2938 23.2661C15.5152 23.2366 15.6603 23.2743 15.8744 23.4236C16.0713 23.5642 17.8833 24.7811 19.2064 24.6993C19.9982 24.6519 20.9539 24.2386 21.2664 23.2091C21.809 21.3994 21.1368 17.7109 20.7708 15.9674L20.6575 15.4209C20.5961 14.9679 20.5157 14.4161 20.7504 14.1157C21.0116 13.7832 21.4335 13.8189 21.4467 13.8217C21.4529 13.8204 24.6663 13.4963 24.6663 13.4963C25.0198 13.4928 25.404 13.5284 25.6473 13.8072C25.8147 13.9931 25.8369 14.2864 25.8608 14.6L25.8761 14.8112C26.0386 16.5091 26.4164 21.6394 25.9141 24.4109C25.4132 27.1573 24.0251 28.6075 21.2644 29.2569C18.3777 29.9364 15.49 28.554 14.2352 27.6279C14.0133 27.4714 13.7009 27.1425 13.6348 26.9629C13.5414 26.7234 13.7213 26.4233 13.7213 26.4233C13.7343 26.3937 14.8798 23.8338 14.9469 23.7069L14.9811 23.6437ZM74.1409 28.9517C74.1916 30.3606 73.4708 30.4312 73.0425 30.4692C72.8721 30.4903 72.7415 30.5 72.7147 30.604L72.6502 30.846C72.2329 32.4585 71.7161 34.4715 68.0657 34.3576C66.9916 34.3227 66.1455 34.0193 65.6198 33.4736C65.1798 33.0068 64.9834 32.3884 65.0349 31.6325C65.2198 29.6845 67.8395 29.0289 69.3865 28.8093L69.4107 28.8032L69.4253 28.7884C69.4293 28.7818 69.5694 27.9418 69.5043 27.877L69.4735 27.8475L69.435 27.8643C69.0893 28.0019 66.0113 29.1441 64.4582 27.0594L64.3819 26.9448L64.3118 26.9728C62.8384 28.3767 60.8889 29.1813 58.9495 29.1879C56.8857 29.1879 55.2673 28.2865 54.5 26.7127C53.694 25.0598 54.0238 23.061 55.3259 21.6241C56.422 20.4167 57.7305 19.7234 59.0092 19.6597C59.9507 19.61 60.8402 19.9153 61.5189 20.5232C62.303 21.2238 62.2709 22.0819 62.1092 22.673C61.7437 23.9979 60.39 25.256 58.9521 25.6013L58.9013 25.611V25.6592C58.9006 25.839 58.9893 25.9934 59.1722 26.0867C59.7186 26.3975 60.9282 26.2261 61.9378 25.7091C63.1486 25.0817 63.6233 24.1592 63.6585 23.5709L63.7215 23.0807C63.8549 22.0144 63.9972 20.915 64.4577 19.8648C64.6171 19.7221 67.1717 19.4006 68.016 19.6116C68.1425 19.6467 68.2152 19.6837 68.2325 19.729C68.2805 19.8992 68.1728 20.4016 68.0519 20.9833C67.7762 22.3171 67.3563 24.3258 68.0973 25.3049C68.2779 25.4979 68.5062 25.6046 68.7452 25.5998C68.9768 25.5993 69.2051 25.4839 69.3771 25.285C69.5962 25.0781 69.6842 23.7811 69.7865 22.1071C69.8255 21.3589 69.8716 20.5774 69.9275 20.4913C70.0839 20.3023 72.7678 19.7685 73.7325 20.0414C73.9256 20.0959 74.024 20.1749 74.036 20.2806C74.2748 22.511 73.4659 27.7716 73.2404 28.6827C73.2336 28.7084 73.2343 28.7479 73.2588 28.7706C73.3103 28.8281 73.4205 28.8343 73.6307 28.8289C73.8417 28.8284 74.1332 28.8251 74.1409 28.9517ZM57.9292 23.67C58.7917 23.6684 59.6898 23.0116 59.8255 22.4748C59.8857 22.2187 59.7829 22.018 59.5298 21.8926C59.2495 21.7545 58.9501 21.7856 58.6544 21.9823C58.1672 22.3156 57.7884 23.0906 57.8622 23.6172L57.8744 23.6707L57.9292 23.67ZM69.2518 30.6911L69.2533 30.631L69.1799 30.6333C68.3297 30.6799 67.4645 31.1079 67.2576 31.578C67.1663 31.7729 67.2041 31.966 67.3482 32.1306C67.5586 32.3658 67.8458 32.4264 68.1632 32.3227C68.6904 32.137 69.2561 31.4445 69.2518 30.6911ZM52.1712 22.5433C53.0652 23.6616 53.4481 24.7128 53.2659 25.5952C53.0397 27.2166 51.5485 28.9349 48.8246 28.9018C47.1469 28.8783 46.2858 28.2462 45.7259 27.7005L45.6716 27.6539L45.6297 27.7119C44.9632 28.5099 43.669 29.0475 42.4801 29.0083C41.7908 28.9937 40.8264 28.7713 40.1357 27.8243C39.3763 26.7978 39.8405 25.4143 40.1846 24.6878C40.3813 24.2774 40.5545 23.7704 40.1691 23.5841C40.0494 23.539 39.939 23.538 39.8331 23.5737C39.5704 23.6814 39.4163 24.0282 39.3128 24.2649L39.2791 24.3576C38.4784 26.2426 37.2441 27.6842 35.8062 28.4184C35.8162 28.4131 35.7468 28.447 35.7468 28.447C34.4725 29.0819 32.994 29.3718 31.586 29.249C29.3883 29.0564 27.7257 28.0093 27.0293 26.3736C26.374 24.829 26.7245 23.0292 27.9553 21.6812C29.0539 20.4816 30.3588 19.7818 31.638 19.7232C32.5785 19.6727 33.4715 19.9823 34.1485 20.5876C34.9296 21.2829 34.8982 22.141 34.7365 22.739C34.375 24.0651 33.016 25.3179 31.5784 25.6597L31.5304 25.6658V25.7206C31.5304 25.8984 31.6169 26.0459 31.7921 26.1453C32.3115 26.4503 33.531 26.2836 34.5643 25.7695C35.314 25.3995 35.7504 24.7021 35.7705 24.6738C36.8186 22.8761 36.1503 19.8572 36.1238 19.7237C36.0958 19.6276 36.0435 19.3527 36.1567 19.219C36.2549 19.0974 36.5567 19.0261 36.6697 19.0123C36.6758 19.009 37.3984 18.8834 38.2188 18.9C39.0679 18.914 39.6543 18.9838 39.7439 19.0042L39.7893 19.0113C39.8867 19.0312 39.9806 19.0449 40.0311 19.1772C40.0982 19.2918 40.0757 19.4612 40.0561 19.5907C40.0163 19.8019 39.866 20.8699 40.7667 21.1573C41.3409 21.4312 42.0921 21.3838 42.8236 21.342L43.2305 21.3122C43.6044 21.3054 43.871 21.4547 44.0205 21.7772C44.15 22.0656 44.0205 22.3693 43.8769 22.6287C43.7195 22.9056 42.3558 25.4085 42.9769 26.1878C43.1412 26.3975 43.4287 26.4607 43.8261 26.3789C45.1856 26.1053 45.9356 22.8091 45.9453 21.5222C45.9555 20.2493 46.6029 17.9713 47.881 17.9616L50.4417 17.9603C50.7634 17.9529 50.9468 18.0146 51.058 18.1382C51.219 18.3272 51.2345 18.698 51.0958 19.3158C50.867 20.4045 51.3383 21.3581 52.1712 22.5433ZM30.5632 23.7316C31.4197 23.7258 32.3204 23.0672 32.4528 22.5393C32.517 22.284 32.4135 22.0727 32.1559 21.9497C31.8804 21.8159 31.573 21.8501 31.2878 22.0396C30.7948 22.3742 30.4147 23.153 30.4945 23.6774L30.5017 23.7304L30.5632 23.7316ZM49.8229 24.4978C49.8222 24.0955 49.5804 23.7304 49.349 23.3762C49.1901 23.1306 49.0258 22.8807 48.9406 22.6195L48.8085 22.6445C48.8462 23.5472 48.4256 24.8664 47.9606 25.3125L47.8892 25.3792L47.9818 25.4156C48.4024 25.5838 48.8567 25.6029 49.1949 25.4592C49.4623 25.3446 49.6546 25.1347 49.7612 24.8369C49.8023 24.7217 49.8222 24.6055 49.8229 24.4978ZM60.1614 35.3811L60.1647 35.3831C60.5757 35.4601 60.7731 35.9714 60.6961 36.3997C60.6726 36.5177 60.7313 36.6242 60.8575 36.6777C61.07 36.7656 61.4322 36.6858 61.7158 36.3093C62.5137 35.2608 62.7201 33.7966 62.2018 32.8274C61.9653 32.3747 61.4664 31.8356 60.465 31.8343C59.6816 31.8356 59.2046 32.139 58.9396 32.3966C58.5539 32.7688 58.4274 33.2004 58.4325 33.4654C58.444 33.9401 58.6407 35.0835 60.1614 35.3811ZM52.6474 44.8161C53.1208 44.8516 53.5277 44.969 53.696 45.2791C53.821 45.4982 53.7317 45.7145 53.7026 45.8085C53.5845 46.1728 53.3481 46.7051 53.1871 47.0276L53.1356 47.1313C52.9996 47.4271 52.8938 47.6524 52.2071 47.6569C50.1311 47.6564 47.8757 45.5601 46.9115 44.6638L46.7176 44.4875L46.7087 46.059C46.7115 46.2401 46.6072 46.4641 46.436 46.6246C46.2985 46.7599 46.1356 46.8345 46.0032 46.8345L45.5522 46.8187L44.6321 46.7843L44.5337 46.7876C44.0955 46.793 43.6853 46.7981 43.572 46.0819C43.066 42.8811 42.9739 35.6522 43.9712 31.6052C44.2082 30.6503 44.8237 30.5482 46.1611 30.5461L47.629 30.5469C48.0662 30.5596 48.3774 30.6727 48.5363 30.8942C48.7095 31.1212 48.7169 31.4687 48.559 31.9217C48.2435 32.8313 47.5334 35.311 47.4479 36.7643L47.4367 36.9024L47.5522 36.8173C49.0503 35.6764 50.5175 35.5467 51.9084 36.4165C52.5426 36.8198 52.9282 37.599 52.9634 38.5623C53.0287 40.293 51.989 42.1096 50.1808 43.4365L50.1397 43.4645L50.1596 43.5112C50.3953 44.0029 51.6908 44.7606 52.6474 44.8161ZM49.5768 39.6176C49.5727 39.5381 49.5605 39.4548 49.5329 39.3842C49.4689 39.214 49.3074 39.0996 49.0868 39.0678C48.7878 39.0186 48.505 39.0922 48.2478 39.2902C47.5839 39.7992 47.2859 40.947 47.2535 41.5498L47.2482 41.6092L47.3171 41.6138C48.1341 41.613 48.769 41.0625 49.1567 40.6041C49.3865 40.3246 49.5763 39.9391 49.5768 39.6176ZM73.0555 42.3193C73.0859 42.5206 73.0996 42.6742 73.1009 42.7939C73.0989 43.0913 73.0055 43.2087 72.7566 43.4011C72.3173 43.7415 70.9226 44.0903 70.0492 43.5906L69.9625 43.5387L69.9507 43.635C69.7232 45.2014 68.2588 46.8888 65.582 46.8957C63.8695 46.8977 62.9055 46.1805 62.4046 45.5756L62.3645 45.5344L62.252 45.6032C61.4837 46.0918 60.0566 46.9981 57.8568 46.9999C56.1228 47.0039 54.699 46.3581 53.848 45.1726L53.7628 45.0465C52.6566 43.3741 52.8752 41.1149 54.297 39.5419C55.3719 38.3539 56.659 37.6672 57.9111 37.6066C58.8388 37.5623 59.715 37.8639 60.3795 38.4594C61.1465 39.1483 61.1195 39.9977 60.9575 40.5796C60.6004 41.8839 59.2684 43.1231 57.8583 43.4599L57.8091 43.4752L57.8096 43.5247C57.8055 43.7147 57.9081 43.8775 58.1139 43.9845C58.6233 44.2526 59.7867 44.1751 60.7943 43.5685C62.1365 42.7715 62.704 40.7692 62.7589 39.6201C62.8119 38.4425 63.3624 35.8596 64.6584 35.8486L67.1755 35.8405C67.4841 35.8456 67.6691 35.9034 67.7803 36.0242C67.9361 36.2056 67.9466 36.5778 67.818 37.1867C67.5548 38.4176 68.2476 39.7412 68.8743 40.6301C69.7655 41.7442 71.1753 41.7249 71.8574 41.7139L72.1926 41.6994C72.7012 41.664 72.9555 41.6472 73.0555 42.3193ZM56.8546 41.5595C57.7004 41.5608 58.583 40.9149 58.7156 40.3837C58.7774 40.1282 58.6766 39.9271 58.4256 39.8056C58.145 39.6691 57.8545 39.7014 57.5652 39.9004C57.0801 40.2217 56.7069 40.9939 56.7893 41.506L56.7982 41.5634L56.8546 41.5595ZM66.0975 41.4428C65.9442 41.2059 65.7848 40.958 65.6963 40.7007L65.5693 40.7208C65.6037 41.587 65.1851 42.918 64.7337 43.3534L64.6671 43.4184L64.7571 43.4541C65.1665 43.6243 65.6139 43.6429 65.9419 43.5007C66.2088 43.3909 66.399 43.1871 66.5069 42.8903C66.6995 42.3516 66.3937 41.891 66.0975 41.4428ZM40.6491 39.3093L37.9042 39.3187C37.5479 39.3198 37.2737 39.3615 37.0944 39.5363C36.8995 39.7368 36.8215 40.1063 36.8538 40.7007C36.9146 41.7977 37.0778 43.2179 37.2023 44.3563L37.3497 45.753C37.4426 46.7716 37.9178 46.8567 38.5651 46.8513L40.2221 46.8444C40.8256 46.8493 41.2014 46.7889 41.3034 45.7339C41.3983 44.7239 41.6016 42.3723 41.6937 40.6844C41.7266 40.0892 41.6539 39.721 41.4557 39.5277C41.2837 39.3465 41.0083 39.3182 40.6491 39.3093ZM39.1217 38.3478C40.5366 38.3457 41.6822 37.2316 41.6886 35.87C41.6896 35.2005 41.4154 34.5745 40.9251 34.1036C40.441 33.6483 39.8063 33.3989 39.1284 33.3974C37.7168 33.4012 36.5654 34.5192 36.5641 35.8794C36.5654 36.5472 36.8317 37.1719 37.3285 37.6428C37.8096 38.0958 38.4465 38.3541 39.1217 38.3478ZM33.3108 32.056C33.1435 31.1286 32.6461 30.5767 31.9832 30.5757L29.3337 30.5841C28.8256 30.5815 28.5159 30.898 28.2869 31.619C28.0767 32.2748 26.5398 37.4349 26.5276 37.4889L26.461 37.6993L24.6546 31.6269C24.424 30.901 24.1118 30.6037 23.6111 30.5955L21.0328 30.6037C20.3683 30.6024 19.8632 31.1612 19.6985 32.087L17.0117 45.3517C16.8903 45.9397 16.8283 46.3769 17.0497 46.6337C17.2041 46.8136 17.4941 46.898 17.9412 46.898L20.8925 46.8903C21.4544 46.8862 21.7615 46.8327 22.1237 45.6663C22.4176 44.701 22.6512 43.6324 22.8418 42.7794L23.1616 41.3883C23.1616 41.3883 24.8762 45.3703 24.8768 45.3815C25.0135 45.726 25.3509 45.8439 26.2154 45.8393L26.6972 45.834C27.5599 45.8332 27.8991 45.7145 28.0379 45.3672L29.7569 41.3751L30.7897 45.648C31.0606 46.7876 31.4319 46.8659 32.0171 46.8664L34.9239 46.8582C35.3731 46.8554 35.6637 46.7718 35.8165 46.5912C36.0435 46.3407 35.9782 45.9007 35.8578 45.3102L33.3108 32.056Z" fill="#EE3227"></path>
</g>
</svg>