<svg width="203" height="36" viewBox="0 0 203 36" fill="none" xmlns="http://www.w3.org/2000/svg">
<mask id="mask0_356_15861" style="mask-type:luminance" maskUnits="userSpaceOnUse" x="0" y="0" width="203" height="36">
<path d="M202.897 0H0V35.3442H202.897V0Z" fill="white"></path>
</mask>
<g mask="url(#mask0_356_15861)">
<path d="M30.4333 24.7626C26.3507 26.1882 22.0565 26.9157 17.7315 26.9145C12.6189 26.9145 8.38571 25.6605 5.02948 23.1499C1.67813 20.6392 0 17.4626 0 13.6198C0 9.77697 1.70987 6.54907 5.12963 3.93598C8.54941 1.3229 12.7997 0.0175781 17.8829 0.0175781C19.8346 0.0175781 21.6519 0.168849 23.3276 0.476271C25.0058 0.781253 27.1455 1.36438 29.7543 2.22809V6.0367C25.7776 4.31661 21.7839 3.45777 17.7754 3.45777C14.1578 3.45777 11.1093 4.42152 8.63244 6.34656C6.15556 8.26917 4.91712 10.6554 4.91712 13.5026C4.91712 16.4037 6.18243 18.7923 8.71059 20.6661C11.2388 22.5399 14.4778 23.4744 18.4301 23.4744C19.5708 23.4744 20.7457 23.3865 21.9524 23.206C23.1591 23.0255 24.3999 22.7692 25.6726 22.435V17.0283H19.2727V13.649H30.4309L30.4333 24.7626ZM38.4503 9.28904V13.2196C40.6316 10.3553 42.7787 8.9206 44.894 8.9206C46.5868 8.9206 48.3285 9.58428 50.1189 10.9116L47.8229 13.8955C47.1758 13.3971 46.4713 12.9776 45.7246 12.6463C45.113 12.3583 44.4487 12.1989 43.7729 12.1778C42.3073 12.1778 41.0542 12.6926 40.0111 13.7198C38.9682 14.747 38.4503 16.006 38.4503 17.4942V26.5486H34.0803V9.28904H38.4503ZM54.8285 16.167C55.444 13.3026 57.408 11.868 60.7178 11.868C62.2762 11.868 63.5171 12.2632 64.4429 13.0488C65.3662 13.8394 65.8303 14.8763 65.8303 16.167H54.8285ZM69.7337 21.5103C68.5057 22.1834 67.2096 22.7241 65.867 23.123C64.642 23.4778 63.3733 23.6585 62.0979 23.6598C57.8818 23.6598 55.4318 21.9201 54.7528 18.4409H70.127C70.127 15.3057 69.2818 12.9366 67.5915 11.3312C65.9036 9.72574 63.5781 8.92303 60.6201 8.92303C57.5643 8.92303 55.0947 9.73311 53.209 11.3507C51.3257 12.9683 50.3803 15.0861 50.3803 17.7066C50.3803 20.222 51.3061 22.3545 53.1601 24.1014C55.1436 25.9777 57.7573 26.9145 61.0085 26.9145C62.8282 26.9145 64.394 26.7511 65.7106 26.4217C67.0272 26.0923 68.3683 25.5604 69.7337 24.8261V21.5103ZM83.5642 23.0449C82.9896 23.4887 82.3557 23.85 81.6805 24.1185C81.068 24.3728 80.4122 24.5077 79.7487 24.5162C78.8351 24.5162 78.0852 24.2844 77.499 23.8208C77.2241 23.6209 77.0008 23.3583 76.8479 23.0549C76.6949 22.7515 76.6167 22.416 76.6197 22.0764C76.6197 21.1467 77.3207 20.3318 78.7228 19.634C79.6339 19.1704 81.2487 18.6288 83.5642 18.0067V23.0449ZM91.0437 23.4744C90.0082 24.1721 89.2461 24.5186 88.7599 24.5186C88.2105 24.5186 87.937 24.2209 87.937 23.6281V14.664C87.937 12.7512 87.1692 11.2873 85.6378 10.2797C84.2362 9.3744 82.3476 8.9206 79.9685 8.9206C76.8077 8.9206 74.3797 9.71844 72.6869 11.3141V15.0593C73.7592 14.0467 74.8658 13.3124 76.0016 12.8586C77.1424 12.4023 78.3442 12.1753 79.6143 12.1753C82.2478 12.1753 83.5666 13.1879 83.5666 15.2154V16.1377L79.7096 17.2185C77.2719 17.9115 75.5815 18.5264 74.6361 19.0655C73.0436 19.9878 72.2472 21.1955 72.2472 22.6814C72.2472 23.8623 72.7529 24.8626 73.7642 25.6824C74.7778 26.5022 76.0652 26.9121 77.6358 26.9121C79.6926 26.9121 81.6659 26.3192 83.5617 25.131C83.9505 26.3192 85.0518 26.9121 86.8641 26.9121C87.4801 26.9121 88.0953 26.8096 88.7112 26.6047C89.3264 26.3998 90.1031 26.0509 91.0437 25.5629V23.4744ZM97.8732 9.30615H104.774V12.3778H97.8732V21.2394C97.8732 22.1641 98.2303 22.8595 98.9429 23.3206C99.498 23.6793 100.177 23.8599 100.988 23.8599C102.512 23.8599 104.146 23.4305 105.895 22.5716V25.7654C104.107 26.5437 102.351 26.9341 100.626 26.9341C98.3448 26.9341 96.5885 26.4339 95.3525 25.4336C94.114 24.4332 93.4964 23.123 93.4964 21.5054V12.3754H89.673V11.9924L97.8732 5.72928V9.30615ZM142.679 6.1587C138.707 4.35808 134.88 3.45777 131.201 3.45777C127.391 3.45777 124.225 4.4142 121.701 6.32704C119.178 8.23747 117.918 10.6334 117.918 13.5051C117.918 16.4574 119.154 18.8557 121.631 20.7051C124.105 22.5521 127.361 23.4768 131.401 23.4768C135.276 23.4768 139.15 22.474 143.027 20.4684V24.5845C141.229 25.3305 139.366 25.9096 137.462 26.3143C135.574 26.7169 133.409 26.917 130.97 26.917C125.242 26.917 120.685 25.4311 117.3 22.4594C114.434 19.9219 113.006 17.0551 113.006 13.8515C113.006 9.83072 114.723 6.51979 118.155 3.92135C121.582 1.31558 125.952 0.0175781 131.255 0.0175781C134.509 0.0175781 138.319 0.712937 142.679 2.10365V6.1587ZM152.709 26.5461H148.337V0.325H152.709V26.5461ZM162.043 26.5461H157.673V9.28904H162.043V26.5461ZM159.895 6.09526C159.172 6.09526 158.557 5.90007 158.047 5.50481C157.539 5.10956 157.282 4.63135 157.282 4.07018C157.282 3.51146 157.536 3.0308 158.047 2.63554C158.557 2.24029 159.172 2.04266 159.895 2.04266C160.619 2.04266 161.234 2.24029 161.745 2.63554C162.253 3.0308 162.507 3.50902 162.507 4.07018C162.507 4.63135 162.253 5.10956 161.745 5.50481C161.213 5.90623 160.561 6.11453 159.895 6.09526ZM170.443 12.3608H174.395C179.146 12.3608 181.521 14.2492 181.521 18.0262C181.521 19.7194 180.861 21.115 179.542 22.2056C178.225 23.2986 176.56 23.8452 174.542 23.8452C173.14 23.8393 171.751 23.578 170.443 23.0743V12.3608ZM170.443 26.1241C172.038 26.6511 173.502 26.9145 174.838 26.9145C178.125 26.9145 180.8 26.0874 182.869 24.4332C184.935 22.7766 185.971 20.6539 185.971 18.0652C185.971 15.191 184.911 13.0123 182.794 11.5215C180.673 10.0332 177.61 9.28904 173.604 9.28904H166.076V35.3248H170.445L170.443 26.1241ZM201.871 13.7101C200.795 13.141 199.661 12.6903 198.487 12.3657C197.403 12.0753 196.421 11.9314 195.547 11.9314C194.672 11.9314 193.973 12.0729 193.455 12.356C192.935 12.6365 192.679 13.022 192.679 13.51C192.679 13.8955 193.058 14.3371 193.822 14.8373C194.584 15.3399 195.969 16.0524 197.982 16.9745C199.8 17.9236 201.072 18.7533 201.8 19.4584C202.531 20.1659 202.897 20.954 202.897 21.8275C202.897 23.3426 202.22 24.5698 200.872 25.5068C199.524 26.4436 197.794 26.9121 195.681 26.9121C194.412 26.9244 193.146 26.8067 191.902 26.5608C190.59 26.2654 189.308 25.848 188.075 25.314V21.6298C190.869 23.1449 193.252 23.9038 195.236 23.9038C196.147 23.9038 196.909 23.7306 197.528 23.3817C198.146 23.0352 198.453 22.5546 198.453 21.9372C198.453 21.3224 196.75 20.2171 193.343 18.6264C189.936 17.0356 188.233 15.3643 188.233 13.6173C188.233 12.1803 188.883 11.036 190.18 10.1893C191.479 9.34271 193.233 8.91817 195.441 8.91817C197.456 8.91817 199.599 9.38908 201.873 10.3309L201.871 13.7101Z" fill="black"></path>
</g>
</svg>