<svg width="131" height="39" viewBox="0 0 131 39" fill="none" xmlns="http://www.w3.org/2000/svg">
<mask id="mask0_356_15686" style="mask-type:luminance" maskUnits="userSpaceOnUse" x="0" y="0" width="131" height="39">
<path d="M130.808 0H0V38.1999H130.808V0Z" fill="white"></path>
</mask>
<g mask="url(#mask0_356_15686)">
<path d="M18.5486 0.0291709C18.2959 0.0381211 17.5701 0.088243 17.2941 0.116884C13.3532 0.525019 9.67033 2.12892 6.6918 4.73346C4.25091 6.86721 2.39604 9.58453 1.29567 12.6366C-0.00183573 16.2382 -0.172089 20.2588 0.817172 23.9767C1.52685 26.6457 2.82437 29.1518 4.58783 31.2623C5.11472 31.8923 5.78677 32.5958 6.37997 33.1382C9.49112 35.9808 13.4284 37.7065 17.6167 38.0627C18.4751 38.1361 19.8819 38.1469 20.6633 38.0842C22.3749 37.9482 23.7996 37.6599 25.3676 37.1336C30.7064 35.3454 35.0273 31.2139 37.065 25.9458C37.7872 24.0787 38.203 22.1276 38.3159 20.0654C38.3392 19.6376 38.3392 18.5277 38.3159 18.0785C38.1295 14.5376 36.9933 11.1992 34.9807 8.26705C33.8481 6.6184 32.3535 5.06283 30.7262 3.83842C27.8319 1.6635 24.4071 0.365703 20.8067 0.0792926C20.1131 0.0255907 19.2565 0.00589993 18.5486 0.0291709ZM19.8443 5.61059C20.9304 5.72516 21.9501 6.06168 22.8372 6.5987C23.0719 6.74013 23.4233 6.98179 23.6114 7.13035L23.7727 7.25745L24.1848 7.25208C24.7476 7.24313 25.1885 7.27893 25.6814 7.3756C27.0558 7.64411 28.3247 8.29568 29.3176 9.24621C29.4412 9.36257 29.5881 9.52367 29.6455 9.60064C30.0559 10.152 30.1276 10.8698 29.8354 11.5089C29.7118 11.7809 29.753 12.1157 29.9376 12.343C30.0129 12.4343 30.1545 12.5292 30.2924 12.5793C30.9144 12.8102 31.3552 13.3186 31.4879 13.9613C31.5236 14.1349 31.5273 14.1868 31.5183 14.6057C31.5075 15.0765 31.4879 15.286 31.4054 15.7156C31.081 17.4394 30.1025 19.0129 28.6921 20.0779C28.3104 20.3643 27.7548 20.7009 27.3964 20.862L27.2405 20.93V22.8668V24.8037L27.6042 24.8144C27.8999 24.8215 27.9932 24.8305 28.1186 24.8628C28.547 24.9755 28.9197 25.2208 29.1778 25.5591C29.3014 25.722 29.4537 26.0371 29.5021 26.2322C29.5362 26.3664 29.5434 26.4416 29.5434 26.6796C29.5416 26.9339 29.5362 26.9857 29.495 27.1361C29.2961 27.8503 28.7352 28.3677 28.0057 28.5055C27.8874 28.5289 27.6491 28.5323 26.5577 28.5323C25.7566 28.5323 25.2512 28.5396 25.2512 28.5485C25.2512 28.5592 25.2637 28.6165 25.2781 28.6792C25.3605 29.0444 25.3139 29.4865 25.1526 29.8338C25.0235 30.1112 24.8713 30.301 24.5541 30.5803C23.3031 31.6758 21.7835 32.3417 20.0809 32.5368C19.7422 32.5744 18.8604 32.5797 18.5307 32.5458C16.9912 32.3847 15.6471 31.8655 14.4356 30.9597C14.2188 30.7986 13.9034 30.5319 13.7582 30.3887C13.475 30.1094 13.2887 29.746 13.2259 29.3505C13.1973 29.1786 13.2116 28.7794 13.251 28.6397C13.2672 28.586 13.2797 28.5396 13.2797 28.536C13.2797 28.5342 12.6919 28.5323 11.9732 28.5323C10.5413 28.5323 10.5001 28.5306 10.2134 28.4249C9.14525 28.0365 8.66137 26.83 9.1757 25.8311C9.42123 25.3551 9.85493 25.0095 10.3854 24.8699C10.5431 24.8288 10.6094 24.8215 10.9284 24.8127L11.2904 24.8054L11.2868 22.8722L11.2815 20.9389L10.9768 20.7832C10.199 20.3894 9.60044 19.9561 9.03592 19.378C8.13806 18.4561 7.51082 17.3462 7.20615 16.1362C7.05382 15.5276 7.00006 15.0746 7.00006 14.3909C7.00006 13.6928 7.05382 13.247 7.21331 12.6276C7.73125 10.6246 9.09148 8.94906 10.9499 8.01823C11.9697 7.50806 13.0503 7.2485 14.1651 7.2485H14.484L14.6399 7.12678C15.7439 6.25501 17.0396 5.74484 18.5307 5.59628C18.7224 5.57658 19.6203 5.58732 19.8443 5.61059Z" fill="black"></path>
<path d="M18.8356 7.16149C17.9145 7.20267 16.9682 7.48908 16.1618 7.96702C15.8194 8.1693 15.5058 8.40379 15.1761 8.70452L15.0202 8.84595L14.8553 8.82447C14.642 8.7994 14.0291 8.7994 13.7729 8.82447C12.5416 8.94618 11.4162 9.42772 10.4825 10.235C8.814 11.676 8.09893 13.9279 8.62941 16.0706C8.88748 17.1124 9.40719 18.0253 10.1778 18.7969C10.8248 19.4413 11.5524 19.8978 12.4019 20.1931L12.6438 20.2773L12.6492 23.1951L12.6528 26.1147L11.7621 26.1201L10.8696 26.1255L10.7674 26.1755C10.6348 26.24 10.5094 26.3671 10.4502 26.4924C10.4108 26.5766 10.4036 26.6159 10.4036 26.7609C10.4036 26.9095 10.409 26.9435 10.452 27.0294C10.5147 27.1565 10.6438 27.2854 10.771 27.3481L10.8696 27.3965L13.8517 27.4018L16.8338 27.4053L16.979 27.5449C17.4324 27.9782 17.988 28.2682 18.6098 28.4007C18.8786 28.4579 19.4109 28.4793 19.6904 28.4436C20.4074 28.3558 21.1152 28.0087 21.6313 27.4949L21.712 27.4143L24.6959 27.4053L27.6798 27.3965L27.8 27.3374C28.0312 27.2246 28.1602 27.0169 28.1602 26.7609C28.1602 26.505 28.0312 26.2973 27.8 26.1845L27.6798 26.1255L26.7892 26.1201L25.8967 26.1147L25.9002 23.1951L25.9056 20.2756L26.1028 20.2093C27.0185 19.8997 27.8 19.402 28.4791 18.6931C28.9129 18.2384 29.2121 17.8105 29.4989 17.2288C29.8878 16.4394 30.0903 15.6034 30.0974 14.7585L30.0992 14.4524L30.0312 14.3164C29.9325 14.1177 29.8626 14.0621 29.5312 13.9261C29.0132 13.7149 28.5813 13.2119 28.4271 12.6391C28.386 12.4869 28.3806 12.4314 28.3806 12.154C28.3787 11.7942 28.4056 11.6581 28.5365 11.352C28.6064 11.1909 28.6118 11.1659 28.6099 11.0173C28.6099 10.79 28.5634 10.6951 28.3357 10.4731C27.5544 9.70875 26.506 9.15025 25.4325 8.9247C24.8178 8.79403 24.0669 8.7654 23.4773 8.84952L23.2892 8.87637L23.1547 8.7457C22.549 8.16214 21.7676 7.7003 20.9324 7.43179C20.2515 7.21341 19.5902 7.12749 18.8356 7.16149ZM19.7138 8.48435C20.4128 8.57564 21.0472 8.80836 21.6386 9.19501L21.816 9.31136L21.5489 9.4492C20.9647 9.75171 20.5238 10.0721 20.0722 10.525C19.3751 11.2214 18.8894 12.0305 18.6044 12.9774C18.4467 13.4984 18.427 13.7131 18.5166 13.91C18.5722 14.0335 18.6994 14.1607 18.8321 14.2251C18.9235 14.2698 18.9539 14.2752 19.1134 14.2752C19.2747 14.2752 19.3016 14.2698 19.3913 14.2232C19.5167 14.1588 19.6332 14.0479 19.687 13.9422C19.7102 13.8975 19.7586 13.7435 19.7926 13.6022C20.1171 12.265 20.9915 11.1694 22.2139 10.5698C22.6619 10.3496 23.0687 10.2207 23.558 10.1455C23.9146 10.09 24.5257 10.0918 24.8806 10.1455C25.721 10.278 26.463 10.6002 27.0991 11.1122L27.1996 11.1927L27.1744 11.2751C27.0436 11.71 27.0204 12.3133 27.1172 12.7877C27.1978 13.1922 27.411 13.6827 27.6475 14.0157C27.8895 14.354 28.2981 14.7299 28.6422 14.9304C28.714 14.9733 28.7748 15.0073 28.7748 15.0073C28.7766 15.0092 28.7658 15.1039 28.7533 15.2221C28.6656 15.9812 28.3591 16.7437 27.8914 17.372C27.506 17.8893 27.0974 18.2562 26.5436 18.5875C26.1637 18.813 25.7694 18.9741 25.3393 19.0815C25.0131 19.1621 24.9451 19.1854 24.8518 19.2534C24.7479 19.3285 24.6726 19.4306 24.6242 19.5577C24.5902 19.6526 24.5884 19.6937 24.5884 20.7409V21.8239L24.549 21.8132C24.4361 21.7827 23.6457 21.6181 23.3787 21.5715C20.6601 21.0846 17.5579 21.1043 14.8929 21.6252C14.6241 21.6772 14.074 21.7953 14.0112 21.8132C13.9807 21.8222 13.9789 21.7827 13.9789 21.1688V20.5154L14.2441 20.51C14.4861 20.5046 14.5166 20.5011 14.6097 20.4563C14.7407 20.3955 14.8643 20.2719 14.9252 20.1413C14.9665 20.0535 14.9736 20.0159 14.9736 19.8692C14.9736 19.6615 14.9396 19.5774 14.8015 19.4306C14.651 19.2731 14.5632 19.2391 14.2299 19.223C13.866 19.2033 13.6581 19.1782 13.4019 19.1245C12.5022 18.9365 11.6958 18.4927 11.0578 17.8356C10.3821 17.1392 9.95201 16.2568 9.80863 15.2777C9.76562 14.9716 9.76562 14.3557 9.81042 14.0425C9.99681 12.7304 10.7172 11.5865 11.814 10.8526C12.056 10.6933 12.5524 10.4445 12.8141 10.355C13.0811 10.2637 13.375 10.1903 13.6654 10.1455C14.0291 10.09 14.6331 10.09 15.0112 10.1455C15.445 10.21 15.531 10.1778 15.8839 9.82511C16.4288 9.27914 17.0095 8.91576 17.7065 8.68304C18.0328 8.57385 18.4521 8.48972 18.8087 8.45929C18.9611 8.44676 19.5525 8.46287 19.7138 8.48435ZM20.5919 22.5525C20.755 22.5633 20.9307 22.5775 20.9827 22.5829L21.0776 22.5936L20.9808 22.6957C20.8087 22.8765 20.7442 23.0555 20.7569 23.3168C20.764 23.4601 20.7747 23.5012 20.8302 23.6176C21.0794 24.1439 21.7515 24.2764 22.1709 23.8843C22.4719 23.6032 22.5274 23.1414 22.3016 22.8067L22.2354 22.71L22.359 22.7225C22.7193 22.7583 23.7139 22.9481 24.3376 23.0967L24.5795 23.154V24.6308V26.1076L22.9128 26.1165L21.2461 26.1255L21.1457 26.172C21.0399 26.2221 20.9575 26.2956 20.7819 26.4996C20.1367 27.2442 18.9844 27.3875 18.1474 26.8236C17.9861 26.7162 17.85 26.589 17.6618 26.3779C17.5633 26.2668 17.513 26.2257 17.4199 26.1809L17.3033 26.1255L15.6403 26.1201L13.9789 26.1165L13.9826 24.6362L13.988 23.1557L14.1134 23.1235C14.6026 22.9983 15.4252 22.8353 15.9826 22.753C16.3248 22.7029 16.3267 22.7029 16.2998 22.7405C16.0076 23.1414 16.0704 23.6498 16.4467 23.9362C16.8768 24.2603 17.4897 24.1153 17.7192 23.6354C17.8751 23.3079 17.8213 22.9481 17.5758 22.6922L17.4826 22.5936L17.5633 22.5829C17.6313 22.5758 18.0005 22.5543 18.5041 22.5292C18.7515 22.5167 20.3016 22.5345 20.5919 22.5525Z" fill="black"></path>
<path d="M23.7152 12.0535C23.5288 12.1144 23.3837 12.2432 23.2996 12.4204C23.2601 12.5045 23.2529 12.5457 23.2529 12.6817C23.2529 12.8177 23.2601 12.8571 23.2996 12.9412C23.3604 13.07 23.7941 13.6194 23.8854 13.6821C24.0628 13.8038 24.3101 13.836 24.507 13.7626C24.6468 13.7107 24.8009 13.564 24.8672 13.4207C24.9102 13.3241 24.9174 13.2848 24.9174 13.1559C24.9192 13.0289 24.9102 12.9877 24.8708 12.9C24.8207 12.7926 24.4068 12.2576 24.3118 12.177C24.1667 12.0535 23.8889 11.9963 23.7152 12.0535Z" fill="black"></path>
<path d="M21.9769 14.8031C21.6615 14.8675 21.4482 15.1287 21.4482 15.4474C21.4482 15.748 21.5504 15.8803 21.9769 16.1417C22.4176 16.4119 22.3979 16.4047 22.6075 16.4047C22.7634 16.4047 22.7992 16.3994 22.887 16.3582C23.025 16.2937 23.1199 16.2025 23.1916 16.0701C23.2435 15.9716 23.2525 15.9377 23.2579 15.7963C23.2722 15.4688 23.1755 15.3381 22.7006 15.0482C22.5305 14.9427 22.3566 14.8461 22.3172 14.8317C22.2187 14.7977 22.0682 14.7851 21.9769 14.8031Z" fill="black"></path>
<path d="M25.9479 15.0315C25.8027 15.0798 25.6971 15.1604 25.5877 15.3072C25.1596 15.878 25.1362 15.921 25.1362 16.1357C25.1381 16.3952 25.2706 16.6153 25.4964 16.7263C25.6415 16.7978 25.8584 16.8105 26.0089 16.7531C26.1736 16.6923 26.2471 16.6207 26.4907 16.2897C26.7667 15.9156 26.799 15.8441 26.7882 15.6257C26.7792 15.4378 26.738 15.3394 26.6126 15.2069C26.4442 15.028 26.1736 14.9563 25.9479 15.0315Z" fill="black"></path>
<path d="M14.9428 28.5215C14.5916 28.6665 14.4411 29.0423 14.597 29.3896C14.6364 29.4773 14.6813 29.5329 14.8013 29.6456C15.6221 30.4135 16.7259 30.9898 17.8494 31.2351C19.0178 31.4892 20.2041 31.4301 21.3277 31.0632C22.1466 30.7965 22.8938 30.3813 23.5479 29.8282C23.8938 29.5364 23.9744 29.4326 24.012 29.2195C24.0623 28.9511 23.9153 28.6683 23.6608 28.5395C23.5658 28.4911 23.5408 28.4875 23.3688 28.4875C23.1985 28.4875 23.1716 28.4929 23.0856 28.5358C23.0336 28.5627 22.9207 28.6486 22.8347 28.7255C22.1807 29.3091 21.4119 29.7208 20.5858 29.9302C19.6253 30.1719 18.5519 30.136 17.6254 29.8299C16.8854 29.5847 16.3478 29.2661 15.6238 28.6415C15.4894 28.5251 15.3621 28.4785 15.183 28.4785C15.0808 28.4785 15.02 28.4893 14.9428 28.5215Z" fill="black"></path>
<path d="M108.613 1.02008C108.023 1.106 107.482 1.54815 107.287 2.10485C107.181 2.41095 107.188 1.77011 107.192 10.9889L107.197 19.4291L107.236 19.5687C107.283 19.7317 107.392 19.9733 107.475 20.0915C107.563 20.2204 107.756 20.4172 107.878 20.5031C108.079 20.6463 108.34 20.7555 108.575 20.7967C108.713 20.8218 109.032 20.8218 109.17 20.7967C109.591 20.7233 109.986 20.4781 110.229 20.1398C110.274 20.0771 110.315 20.0305 110.323 20.0341C110.328 20.0359 110.45 20.0968 110.593 20.1667C111.523 20.6195 112.471 20.8612 113.487 20.9041C115.319 20.9829 117.011 20.4262 118.461 19.2698C118.749 19.0407 119.299 18.4912 119.529 18.2029C120.423 17.0842 120.941 15.8669 121.125 14.4528C121.172 14.0911 121.172 13.0762 121.125 12.7164C120.968 11.5116 120.59 10.4949 119.939 9.52109C119.416 8.73884 118.695 8.01565 117.928 7.5019C116.9 6.81272 115.751 6.4028 114.509 6.27929C114.211 6.24885 113.43 6.24885 113.138 6.27749C112.315 6.35984 111.566 6.55674 110.821 6.88791C110.684 6.94698 110.57 6.9971 110.566 6.9971C110.561 6.9971 110.555 5.95528 110.554 4.68254L110.548 2.36979L110.498 2.21225C110.471 2.12633 110.417 1.99388 110.38 1.91689C110.057 1.27785 109.344 0.914462 108.613 1.02008ZM114.348 9.61955C115.685 9.80392 116.823 10.6291 117.405 11.8392C117.668 12.387 117.797 12.958 117.797 13.5845C117.797 14.22 117.67 14.7767 117.394 15.3477C116.898 16.3734 115.93 17.1701 114.837 17.4493C114.425 17.5549 114.317 17.5675 113.801 17.5656C113.358 17.5656 113.308 17.5621 113.079 17.5173C112.084 17.3222 111.235 16.7888 110.632 15.9814L110.557 15.8812V13.5828V11.2843L110.663 11.1429C111.021 10.6667 111.525 10.2514 112.066 9.98651C112.771 9.64103 113.572 9.51393 114.348 9.61955Z" fill="black"></path>
<path d="M123.918 1.01932C123.246 1.12494 122.705 1.619 122.534 2.2849C122.504 2.39946 122.502 2.74674 122.502 8.43019V14.4538L122.55 14.6418C122.577 14.7455 122.613 14.9389 122.627 15.0714C122.774 16.2975 123.248 17.4145 124.041 18.4098C124.233 18.6479 124.765 19.1796 125.011 19.3747C126.034 20.1873 127.19 20.6599 128.477 20.7906C128.886 20.8336 129.398 20.821 129.59 20.7655C130.144 20.6044 130.584 20.1712 130.748 19.6271C130.812 19.4105 130.828 19.0524 130.782 18.8286C130.656 18.2003 130.178 17.7045 129.54 17.5398C129.445 17.5148 129.298 17.4987 129.068 17.488C128.839 17.4772 128.665 17.4575 128.511 17.427C127.447 17.2105 126.581 16.4926 126.174 15.4884C126.038 15.1501 125.973 14.8351 125.952 14.4001C125.943 14.2193 125.921 14.0135 125.903 13.9346C125.873 13.8004 125.871 13.4638 125.862 8.08112L125.853 2.37082L125.803 2.20972C125.62 1.62437 125.181 1.20549 124.592 1.05333C124.434 1.01216 124.081 0.994261 123.918 1.01932Z" fill="black"></path>
<path d="M49.3286 6.26631C46.9523 6.42383 44.8196 7.70909 43.5526 9.74261C42.3053 11.7475 42.1171 14.2662 43.0507 16.4589C43.3034 17.0533 43.6529 17.6314 44.083 18.1738C44.3303 18.4818 44.9075 19.0581 45.2157 19.3015C46.3572 20.2073 47.6619 20.7372 49.0992 20.8804C49.4344 20.9145 50.1226 20.9198 50.4487 20.8893C52.0151 20.748 53.4721 20.1321 54.6549 19.1118C54.8771 18.9202 55.0098 18.7556 55.1173 18.5372C55.2409 18.2884 55.2713 18.1649 55.2821 17.8713C55.2893 17.6762 55.2857 17.5849 55.2606 17.4685C55.1567 16.953 54.818 16.5251 54.3358 16.2996C54.0384 16.1618 53.7571 16.1135 53.4362 16.1475C53.0635 16.1851 52.7517 16.3264 52.438 16.6022C51.8377 17.1266 51.128 17.4471 50.334 17.5508C50.0723 17.5849 49.5706 17.5849 49.3196 17.5527C48.1566 17.3951 47.1404 16.765 46.5043 15.8074C45.8303 14.7924 45.6529 13.5197 46.0221 12.365C46.2301 11.7117 46.5759 11.1603 47.0723 10.686C47.6781 10.1078 48.4271 9.7444 49.2749 9.6191C49.5293 9.5815 50.0706 9.57613 50.3054 9.61014C51.1297 9.72471 51.782 10.0165 52.4201 10.5517C52.7409 10.8202 52.9452 10.9276 53.2534 10.9921C53.4648 11.0368 53.7571 11.0368 53.9702 10.9921C54.5724 10.8686 55.0581 10.4193 55.2356 9.81779C55.2893 9.63699 55.3036 9.2414 55.2606 9.03733C55.1818 8.64172 54.999 8.35173 54.6369 8.04026C53.162 6.77648 51.2534 6.13742 49.3286 6.26631Z" fill="black"></path>
<path d="M89.8402 6.2579C89.7955 6.26148 89.6718 6.27222 89.5624 6.28296C88.652 6.37068 87.704 6.69646 86.9191 7.1941L86.7237 7.31762L86.6574 7.21558C86.5714 7.0867 86.3849 6.90053 86.247 6.80745C85.7255 6.4566 85.0946 6.40827 84.5427 6.67678C83.9315 6.97393 83.5767 7.56823 83.609 8.24308C83.6215 8.51159 83.6681 8.67449 83.8348 9.02175C83.9118 9.18466 83.9943 9.37262 84.0176 9.44243L84.0606 9.56773L84.0696 14.4904C84.0785 18.3319 84.0857 19.431 84.1018 19.4937C84.1789 19.7712 84.2416 19.9143 84.3617 20.0934C84.6143 20.4657 85.0283 20.7288 85.4746 20.8004C85.6681 20.8326 86.0499 20.8147 86.2165 20.7664C86.8241 20.5909 87.2811 20.1059 87.4047 19.5027C87.437 19.3487 87.4387 19.1822 87.4387 15.7829C87.4387 13.4146 87.446 12.1669 87.4585 12.0505C87.5284 11.4043 87.7936 10.8494 88.2524 10.3912C88.5714 10.0725 88.9065 9.86309 89.3097 9.72883C90.1323 9.45674 90.9818 9.57131 91.722 10.0564C91.9226 10.1889 92.308 10.572 92.4424 10.776C92.645 11.0803 92.7865 11.4133 92.8725 11.791L92.9119 11.9664L92.9227 15.6987L92.9317 19.431L92.9729 19.5742C93.0213 19.7424 93.127 19.9752 93.2112 20.0969C93.3547 20.3082 93.602 20.523 93.8367 20.6393C94.1162 20.7808 94.3474 20.8272 94.6915 20.813C95.1289 20.7969 95.4711 20.6519 95.7883 20.3458C96.007 20.1345 96.1575 19.8786 96.2489 19.5652C96.2812 19.4543 96.2829 19.2967 96.2919 15.7255C96.3044 11.5869 96.2937 11.9235 96.4263 11.501C96.5607 11.0714 96.7741 10.7241 97.1074 10.3894C97.3367 10.1584 97.5446 10.0081 97.8152 9.87204C98.7023 9.4281 99.749 9.5015 100.584 10.0654C100.796 10.2086 101.143 10.5558 101.287 10.7671C101.496 11.0768 101.645 11.4312 101.726 11.8089L101.767 12.0022L101.776 15.7255C101.785 19.4382 101.785 19.4489 101.823 19.5742C102.003 20.181 102.426 20.6017 103.021 20.77C103.183 20.8147 103.555 20.8308 103.742 20.8004C104.181 20.7305 104.606 20.4603 104.858 20.0934C104.944 19.968 105.052 19.7263 105.097 19.5598L105.136 19.4131V15.654C105.136 12.661 105.131 11.8554 105.113 11.6979C104.941 10.2641 104.349 9.03249 103.353 8.03722C102.029 6.71257 100.201 6.07889 98.3171 6.2937C96.9999 6.44228 95.7059 7.05806 94.765 7.98352L94.6091 8.13747L94.4246 7.95667C93.4891 7.05089 92.274 6.46913 90.9549 6.29907C90.688 6.26506 90.0355 6.24 89.8402 6.2579Z" fill="black"></path>
<path d="M64.7771 6.47283C63.6123 6.54801 62.537 6.83622 61.5209 7.34817C61.2037 7.50928 60.8381 7.72409 60.605 7.88519C60.528 7.94068 60.4617 7.98186 60.4581 7.97827C60.4545 7.9747 60.4312 7.921 60.4043 7.85656C60.3291 7.67934 60.166 7.35713 60.0925 7.24793C59.9312 7.0027 59.6265 6.7503 59.3577 6.63752C59.0334 6.50147 58.6194 6.46746 58.2897 6.54801C57.6534 6.70375 57.1731 7.19959 57.0405 7.83865C57.0118 7.97649 57.0065 8.05167 57.0136 8.23247C57.0262 8.52603 57.0638 8.65134 57.2501 9.038C57.3344 9.20984 57.4168 9.39959 57.4329 9.45866C57.4634 9.55891 57.4652 9.85964 57.4742 14.4977L57.4832 19.4293L57.5226 19.5672C57.6587 20.0433 57.9706 20.4282 58.3882 20.6376C58.6553 20.7701 58.8613 20.8166 59.1749 20.8166C59.6391 20.8148 60.0316 20.6537 60.3577 20.3298C60.5674 20.1221 60.7125 19.875 60.7951 19.5833L60.8345 19.4472L60.8435 16.3325C60.856 12.8992 60.847 13.1211 60.9671 12.6611C61.3345 11.2577 62.4886 10.1425 64.0065 9.72717C64.3829 9.62514 64.8704 9.55711 65.2377 9.55711C65.4726 9.55711 65.6589 9.52847 65.856 9.46403C66.3758 9.29397 66.761 8.90374 66.9116 8.40252C66.9726 8.19666 66.9797 7.86908 66.9296 7.6686C66.7737 7.05818 66.2593 6.6035 65.5943 6.48716C65.4564 6.46209 65.0442 6.45494 64.7771 6.47283Z" fill="black"></path>
<path d="M69.7734 6.52254C69.1837 6.63531 68.7123 7.0166 68.4973 7.55362C68.379 7.85076 68.3862 7.61269 68.3916 11.4559L68.3987 14.9376L68.4454 15.2329C68.5224 15.7181 68.6282 16.1297 68.7859 16.5576C68.9005 16.8691 69.1873 17.4527 69.3683 17.7391C70.4562 19.4683 72.2446 20.5816 74.2698 20.7911C74.6175 20.8269 75.2627 20.8269 75.6139 20.7893C76.881 20.6587 78.0423 20.1842 79.0477 19.3823C79.3361 19.1514 79.7968 18.6913 80.0279 18.4013C80.786 17.4544 81.2501 16.3875 81.4241 15.1882C81.4867 14.7586 81.4903 14.5348 81.4849 11.2053L81.4796 7.92058L81.4329 7.74873C81.2914 7.24393 80.9241 6.82327 80.4527 6.63173C80.0494 6.46884 79.5584 6.46704 79.157 6.63173C78.7466 6.79821 78.3935 7.16159 78.2358 7.57867C78.1247 7.87583 78.1318 7.61806 78.1193 11.2948C78.1086 14.628 78.1086 14.6529 78.0692 14.8482C77.9311 15.5588 77.6283 16.1209 77.1229 16.6113C76.7268 16.9944 76.2842 17.245 75.7627 17.381C75.4311 17.4669 75.3236 17.4795 74.9203 17.4777C74.5834 17.4777 74.5207 17.4723 74.3182 17.4293C72.967 17.143 71.9884 16.1101 71.7841 14.7532C71.7608 14.6065 71.7573 14.0927 71.7573 11.37C71.7573 9.19868 71.7519 8.10495 71.7375 7.9886C71.7052 7.69861 71.6048 7.4301 71.4435 7.20455C71.354 7.07924 71.1407 6.8698 71.0171 6.78568C70.8827 6.69439 70.6497 6.59235 70.4831 6.55118C70.2876 6.50285 69.9489 6.48852 69.7734 6.52254Z" fill="black"></path>
<path d="M86.4888 29.4201V34.7993H87.0353H87.5819L87.5837 33.881V32.9644L88.2755 32.2484C88.6555 31.8546 88.9708 31.5324 88.9762 31.5342C88.9834 31.5342 89.5497 32.2681 90.2343 33.1631L91.4816 34.7903L92.168 34.7956L92.8526 34.7993L92.7738 34.6972C92.7308 34.6399 92.0319 33.7323 91.2218 32.6798C90.4117 31.6291 89.7504 30.7609 89.754 30.7519C89.7576 30.743 90.4332 30.0413 91.2558 29.1928C92.0784 28.3443 92.7558 27.6444 92.7577 27.6354C92.7612 27.6283 92.4224 27.6211 92.005 27.6229H91.2469L89.4189 29.5221L87.5909 31.4214L87.5856 27.7321L87.5819 24.041H87.0353H86.4888V29.4201Z" fill="black"></path>
<path d="M98.6847 24.894C98.4733 24.9691 98.3102 25.1122 98.2153 25.3074C98.1687 25.4021 98.165 25.4255 98.165 25.6241C98.165 25.8316 98.1669 25.8443 98.2224 25.957C98.4088 26.3346 98.862 26.4956 99.2454 26.3221C99.3798 26.2611 99.5429 26.1001 99.6109 25.9587C99.6612 25.8567 99.67 25.8192 99.6754 25.6671C99.6808 25.5364 99.6754 25.4702 99.6522 25.3968C99.584 25.191 99.4372 25.0246 99.2347 24.9297C99.1308 24.8814 99.0914 24.8725 98.9444 24.8689C98.8154 24.8635 98.7528 24.8706 98.6847 24.894Z" fill="black"></path>
<path d="M52.434 27.4697C52.3175 27.4841 52.115 27.5234 51.986 27.5556C51.2907 27.7311 50.7191 28.0567 50.2495 28.5454C49.5758 29.2471 49.23 30.1545 49.23 31.2249C49.23 32.2917 49.5919 33.2189 50.2783 33.9134C50.6957 34.3339 51.1277 34.6024 51.6939 34.7886C53.0469 35.2343 54.6148 34.9229 55.5663 34.0207L55.7187 33.8758L55.3405 33.4767L54.9607 33.0774L54.7941 33.2385C54.4356 33.5804 54.0163 33.7935 53.5039 33.8955C53.2727 33.9419 52.7117 33.9419 52.4644 33.8955C52.0792 33.8257 51.7029 33.6681 51.4144 33.4623C51.1151 33.2475 50.8086 32.877 50.6456 32.5333C50.3177 31.8443 50.2729 30.9493 50.5273 30.1885C50.7925 29.401 51.3857 28.8246 52.1687 28.5991C52.4394 28.5204 52.6545 28.4917 52.9751 28.4936C53.7045 28.4953 54.3317 28.7279 54.7743 29.1629C54.9124 29.299 54.9177 29.3025 54.9517 29.2722C55.0395 29.1916 55.6542 28.5275 55.6596 28.5078C55.665 28.4828 55.4749 28.3074 55.2922 28.1695C54.7958 27.7936 54.1148 27.5359 53.4196 27.4607C53.183 27.4338 52.6885 27.4392 52.434 27.4697Z" fill="black"></path>
<path d="M63.7484 27.4678C63.0781 27.5538 62.4007 27.8312 61.9044 28.2267C61.3202 28.6921 60.8884 29.3705 60.6912 30.1348C60.4458 31.0853 60.5443 32.1664 60.9492 32.9969C61.4761 34.0762 62.4545 34.7707 63.709 34.9532C63.9939 34.9944 64.5763 34.9944 64.8648 34.9515C66.5439 34.708 67.7212 33.5427 67.9863 31.862C68.033 31.5721 68.033 30.8651 67.9882 30.5733C67.8162 29.4886 67.2857 28.626 66.4453 28.0656C66.0063 27.7739 65.5386 27.5913 64.9741 27.4929C64.7053 27.4446 64.0369 27.432 63.7484 27.4678ZM64.7949 28.5328C65.5726 28.6635 66.2249 29.1378 66.569 29.8198C66.9219 30.5232 66.9776 31.4934 66.7088 32.263C66.4058 33.1312 65.7428 33.7057 64.836 33.8883C64.5423 33.9474 64.0225 33.9474 63.7322 33.8883C62.6929 33.6789 61.976 32.945 61.7575 31.8656C61.6804 31.4827 61.6804 30.9689 61.7575 30.5679C62.0388 29.1163 63.286 28.2804 64.7949 28.5328Z" fill="black"></path>
<path d="M76.6137 27.4542C76.438 27.4685 76.0744 27.5383 75.8736 27.5955C74.897 27.8801 74.1068 28.546 73.6748 29.4517C73.5135 29.7917 73.4043 30.1461 73.3415 30.531C73.3039 30.7673 73.2877 31.4117 73.3146 31.6694C73.4544 33.0101 74.1963 34.0965 75.3414 34.6335C75.6693 34.7875 76.0994 34.9091 76.5062 34.9628C76.7606 34.995 77.3485 34.9896 77.6083 34.952C79.3268 34.6979 80.5059 33.4934 80.7388 31.7553C80.7729 31.5029 80.7676 30.8639 80.728 30.6008C80.6367 29.9779 80.4037 29.3855 80.0614 28.9076C79.9378 28.7339 79.6206 28.3992 79.4486 28.2596C79.0185 27.9089 78.4344 27.6367 77.868 27.524C77.7444 27.4989 77.5652 27.4703 77.4702 27.4613C77.3089 27.4434 76.8019 27.4398 76.6137 27.4542ZM77.2463 28.4976C77.7336 28.5389 78.1405 28.6731 78.5185 28.9201C78.6852 29.0292 79.0204 29.364 79.135 29.5359C79.7694 30.4827 79.7765 31.9235 79.1529 32.8597C78.7946 33.3967 78.2695 33.7404 77.5814 33.8871C77.327 33.9425 76.7464 33.9479 76.4972 33.8978C75.551 33.7063 74.8917 33.1282 74.587 32.2207C74.4758 31.8878 74.4401 31.6479 74.4382 31.2273C74.4382 30.8478 74.4526 30.7065 74.5296 30.4039C74.802 29.3138 75.6407 28.5979 76.7571 28.4995C76.999 28.478 77.0115 28.478 77.2463 28.4976Z" fill="black"></path>
<path d="M108.401 27.4676C107.335 27.6019 106.464 28.1173 105.912 28.9425C105.6 29.4097 105.396 29.9645 105.314 30.5642C105.27 30.8774 105.27 31.4627 105.314 31.7777C105.512 33.2491 106.39 34.3445 107.726 34.7865C108.966 35.1983 110.462 34.9691 111.464 34.2156C111.643 34.0795 111.847 33.9023 111.847 33.8808C111.847 33.8647 111.206 33.079 111.193 33.079C111.189 33.079 111.127 33.1327 111.055 33.1971C110.881 33.3546 110.573 33.5569 110.342 33.6679C109.505 34.067 108.5 34.067 107.729 33.6696C107.181 33.3887 106.767 32.8893 106.555 32.2538C106.5 32.0909 106.417 31.7312 106.417 31.656C106.417 31.6328 106.801 31.6291 109.306 31.6255L112.195 31.6201L112.209 31.5576C112.288 31.1978 112.309 30.5391 112.254 30.1883C112.024 28.7241 111.026 27.7146 109.584 27.4837C109.331 27.4444 108.657 27.4336 108.401 27.4676ZM109.467 28.5147C110.275 28.6865 110.845 29.2235 111.048 30.0075C111.091 30.1668 111.13 30.4495 111.13 30.582V30.6447H108.772H106.414L106.426 30.5677C106.451 30.4246 106.527 30.1578 106.589 29.995C106.808 29.4258 107.211 28.9782 107.742 28.7116C107.955 28.6042 108.252 28.5237 108.613 28.4717C108.756 28.452 109.299 28.4789 109.467 28.5147Z" fill="black"></path>
<path d="M120.199 27.4596C118.952 27.5885 118.125 28.1111 117.846 28.947C117.765 29.1887 117.738 29.4159 117.749 29.74C117.756 29.9458 117.769 30.0676 117.794 30.1642C117.946 30.7351 118.333 31.0878 119.102 31.3509C119.434 31.4637 119.806 31.555 120.512 31.6927C121.394 31.8645 121.647 31.9326 121.928 32.074C122.154 32.185 122.295 32.321 122.381 32.5054C122.435 32.6217 122.455 32.8562 122.423 33.0102C122.293 33.6277 121.544 33.9695 120.405 33.9338C119.563 33.9069 118.622 33.6438 118.097 33.2894L117.975 33.207L117.934 33.2733C117.823 33.4522 117.457 34.0805 117.457 34.093C117.457 34.1378 117.903 34.3973 118.192 34.5208C119.581 35.1151 121.317 35.1615 122.374 34.6336C122.718 34.4635 123.044 34.1915 123.227 33.9284C123.541 33.4754 123.654 32.8633 123.532 32.2906C123.431 31.8198 123.15 31.4725 122.666 31.2167C122.249 30.9983 121.786 30.8676 120.709 30.6636C119.717 30.4757 119.319 30.3503 119.093 30.1516C118.932 30.012 118.857 29.8008 118.88 29.5431C118.937 28.8557 119.564 28.4923 120.683 28.4923C120.865 28.4923 121.098 28.5031 121.202 28.5138C121.765 28.5783 122.356 28.7645 122.801 29.0186C122.856 29.0527 122.906 29.0742 122.91 29.0705C122.914 29.0652 123.032 28.8665 123.172 28.6266C123.412 28.2185 123.424 28.1899 123.394 28.1667C123.376 28.1523 123.285 28.0986 123.191 28.0449C122.725 27.7801 122.154 27.5939 121.498 27.4918C121.233 27.4525 120.464 27.4328 120.199 27.4596Z" fill="black"></path>
<path d="M98.3706 31.208V34.7967H98.9164H99.4624V31.208V27.6191H98.9164H98.3706V31.208Z" fill="black"></path>
</g>
</svg>