<svg width="92" height="69" viewBox="0 0 92 69" fill="none" xmlns="http://www.w3.org/2000/svg">
<mask id="mask0_356_16107" style="mask-type:luminance" maskUnits="userSpaceOnUse" x="0" y="0" width="92" height="69">
<path d="M91.1138 0H0V68.0234H91.1138V0Z" fill="white"></path>
</mask>
<g mask="url(#mask0_356_16107)">
<path d="M9.86044 44.5614C9.86044 43.6271 9.19227 43.0598 6.95392 42.1589C4.5488 41.1912 2.87842 40.1234 2.87842 37.9211C2.87842 34.9513 5.55093 32.9492 8.95829 32.9492C11.3971 32.9492 12.8004 33.7166 13.8694 34.5175C14.2368 34.7844 14.504 35.1182 14.504 35.6854C14.504 36.4529 13.9029 37.0202 13.1678 37.0202C12.8673 37.0202 12.5664 36.92 12.3659 36.7198C11.2968 35.8522 10.2612 35.3851 8.79142 35.3851C6.95386 35.3851 5.85181 36.3861 5.85181 37.4539C5.85181 38.4549 6.65345 38.9556 8.92514 39.8565C11.3303 40.7908 12.8673 41.892 12.8673 44.0942C12.8673 47.1641 10.0608 49.1328 6.72025 49.1328C4.68244 49.1328 2.44404 48.599 0.840378 47.0974C0.539878 46.8638 0.306152 46.4301 0.306152 45.9628C0.306152 45.162 0.874041 44.5614 1.67599 44.5614C2.04332 44.5614 2.41082 44.7283 2.61131 44.9285C3.91401 46.1297 5.08323 46.697 6.88737 46.697C8.55763 46.7637 9.86044 45.8628 9.86044 44.5614Z" fill="#A93439"></path>
<path d="M26.6647 37.0216C27.5333 37.0216 28.001 37.6557 27.7003 38.7235L25.2617 47.7662C25.0278 48.6005 24.4597 49.0676 23.7916 49.0676C22.9231 49.0676 22.4218 48.4337 22.7226 47.3659L24.1927 41.8934L21.2528 45.0634C20.8186 45.5639 20.3507 45.8309 19.8163 45.8309C19.2149 45.8309 18.9478 45.5306 18.6805 44.8966L17.5446 41.8934L15.9745 47.7662C15.7406 48.6005 15.2059 49.0676 14.5044 49.0676C13.6359 49.0676 13.1681 48.4337 13.4354 47.3659L15.8742 38.323C16.1081 37.4888 16.5758 36.9883 17.3775 36.9883H17.5446C18.2127 36.9883 18.6137 37.3887 18.8811 38.0561L20.6848 42.7945L24.8941 37.7891C25.3616 37.2552 25.7961 36.9883 26.4307 36.9883H26.6647V37.0216Z" fill="#A93439"></path>
<path d="M27.9009 43.9273C27.9009 40.3903 30.7736 36.8867 35.0498 36.8867C38.3237 36.8867 40.4954 39.1557 40.4954 42.1589C40.4954 45.6959 37.5889 49.1996 33.3463 49.1996C30.0389 49.1662 27.9009 46.8971 27.9009 43.9273ZM37.7558 42.3256C37.7558 40.5571 36.6868 39.2892 34.7158 39.2892C32.2104 39.2892 30.5732 41.6917 30.5732 43.7271C30.5732 45.4957 31.6424 46.7637 33.6133 46.7637C36.119 46.7637 37.7558 44.3611 37.7558 42.3256Z" fill="#A93439"></path>
<path d="M41.4966 43.9273C41.4966 40.3903 44.3693 36.8867 48.6455 36.8867C51.9194 36.8867 54.0909 39.1557 54.0909 42.1589C54.0909 45.6959 51.2178 49.1996 46.9417 49.1996C43.668 49.1662 41.4966 46.8971 41.4966 43.9273ZM51.3849 42.3256C51.3849 40.5571 50.3159 39.2892 48.3449 39.2892C45.8396 39.2892 44.2023 41.6917 44.2023 43.7271C44.2023 45.4957 45.2715 46.7637 47.2425 46.7637C49.7481 46.7637 51.3849 44.3611 51.3849 42.3256Z" fill="#A93439"></path>
<path d="M58.1337 47.7637C57.8997 48.5979 57.365 49.0651 56.6635 49.0651C55.795 49.0651 55.3272 48.4312 55.5945 47.3634L57.7326 39.4884H55.5611C54.893 39.4884 54.3584 38.9545 54.3584 38.2871C54.3584 37.6198 54.893 37.0859 55.5611 37.0859H63.1784C63.8464 37.0859 64.3805 37.6198 64.3805 38.2871C64.3805 38.9545 63.8464 39.4884 63.1784 39.4884H60.3716L58.1337 47.7637Z" fill="#A93439"></path>
<path d="M73.3007 47.7662C73.0668 48.6005 72.5321 49.0676 71.8309 49.0676C70.9622 49.0676 70.4944 48.4337 70.7621 47.3659L71.6302 44.1958H66.8868L65.918 47.7662C65.684 48.6005 65.1499 49.0676 64.4481 49.0676C63.5794 49.0676 63.1116 48.4337 63.3786 47.3659L65.8173 38.2896C66.0512 37.4554 66.5859 36.9883 67.2877 36.9883C68.1564 36.9883 68.6236 37.6223 68.3566 38.6901L67.5216 41.7933H72.2656L73.2007 38.2896C73.4346 37.4554 73.9687 36.9883 74.6705 36.9883C75.5392 36.9883 76.0071 37.6223 75.7394 38.6901L73.3007 47.7662Z" fill="#A93439"></path>
<path d="M77.6762 47.7662C77.4429 48.6005 76.9081 49.0676 76.2064 49.0676C75.3376 49.0676 74.8704 48.4337 75.1375 47.3659L77.5761 38.2896C77.81 37.4554 78.3448 36.9883 79.0459 36.9883C79.9147 36.9883 80.3825 37.6223 80.1154 38.6901L77.6762 47.7662Z" fill="#A93439"></path>
<path d="M80.4825 48.9651C79.6137 48.9651 79.1459 48.331 79.4136 47.2632L81.7853 38.3872C82.0192 37.553 82.554 37.0859 83.2551 37.0859H89.6359C90.2708 37.0859 90.8055 37.6197 90.8055 38.2537C90.8055 38.8877 90.2708 39.4217 89.6359 39.4217H84.1238L83.489 41.8575H87.6314C88.2662 41.8575 88.8009 42.3581 88.8009 43.0255C88.8009 43.6595 88.2662 44.16 87.6314 44.16H82.8873L82.22 46.6625H87.2311C87.8653 46.6625 88.4 47.1965 88.4 47.8305C88.4 48.4645 87.8653 48.9984 87.2311 48.9984H80.4825V48.9651Z" fill="#A93439"></path>
<path d="M29.2694 15.4278C30.9397 14.7938 34.3808 21.0337 37.4542 20.5665C42.4318 19.799 42.3651 9.35476 45.8061 9.05445C49.2469 8.78751 50.5498 23.1692 53.8237 23.87C57.0977 24.5707 62.7764 14.5269 64.781 15.3277C66.5516 16.0284 63.946 27.5071 65.8499 27.8408C67.7544 28.1745 69.8259 24.5707 70.1599 26.4726C70.4938 28.3747 69.6251 31.9785 67.9214 32.5124C66.1845 33.0463 65.3151 30.6103 61.2066 29.9429C57.0641 29.2422 55.5608 34.4143 52.5542 34.0139C48.278 33.4466 46.2403 23.503 43.6347 24.1369C40.9953 24.771 43.6671 32.1786 40.2604 32.8794C37.3541 33.3798 34.4144 25.9388 32.3431 26.8398C30.5724 27.6072 31.842 31.9451 30.2719 30.8773C28.735 29.7428 26.6302 16.5956 29.2694 15.4278Z" fill="#D13239"></path>
<path d="M26.432 9.95871C26.2649 8.65746 27.0333 7.523 28.1691 7.45628C29.3048 7.3895 30.4072 8.39041 30.574 9.69166C30.7411 10.9929 30.2069 13.5955 29.0711 13.6622C27.902 13.729 26.599 11.26 26.432 9.95871Z" fill="#D13239"></path>
<path d="M43.8347 2.14957C43.9345 0.948424 45.104 0.114319 46.4402 0.347885C47.7764 0.581425 48.7785 1.71581 48.6783 2.95033C48.5785 4.1515 47.1751 6.95421 45.8392 6.75401C44.5029 6.52044 43.7013 3.38409 43.8347 2.14957Z" fill="#D13239"></path>
<path d="M64.481 9.12275C64.9488 7.88822 66.0514 7.45451 67.1871 7.78814C68.3228 8.12184 68.9238 9.28954 68.5561 10.3906C68.189 11.4917 66.4516 13.9273 65.1827 13.4935C64.0801 13.1265 64.1139 10.2238 64.481 9.12275Z" fill="#D13239"></path>
<path d="M24.626 66.2826C24.3921 67.1497 23.7908 67.6507 23.0559 67.6507C22.1539 67.6507 21.5859 66.9829 21.92 65.8484L25.4276 52.8016C25.6949 51.934 26.2628 51.4336 26.9977 51.4336C27.8997 51.4336 28.4341 52.1009 28.1336 53.2354L26.4298 59.6087L35.6836 51.9675C36.0177 51.6672 36.3853 51.4336 36.8528 51.4336C37.6545 51.4336 38.1224 51.9674 38.1224 52.7015C38.1224 53.102 37.9553 53.469 37.6213 53.7693L31.6746 58.6077L34.9819 65.5148C35.149 65.8484 35.2159 66.1489 35.2159 66.4494C35.2159 67.2166 34.5146 67.717 33.8129 67.717C33.0446 67.717 32.6102 67.2834 32.3765 66.7499L29.3697 60.2094L25.4276 63.3458L24.626 66.2826Z" fill="#D13239"></path>
<path d="M50.884 56.9068C51.1176 56.0726 51.6523 55.6055 52.3204 55.6055C53.1889 55.6055 53.6567 56.2395 53.356 57.3073L50.884 66.417C50.6844 67.1842 50.2493 67.6515 49.481 67.6515H49.4136C48.5784 67.6515 48.2445 67.3179 47.9103 66.6838L44.7367 59.8432L42.966 66.417C42.7324 67.251 42.1977 67.7183 41.5296 67.7183C40.6611 67.7183 40.1933 67.0842 40.4941 66.0166L42.9326 57.007C43.1666 56.1727 43.701 55.7056 44.4693 55.7056H44.6041C45.3724 55.7056 45.84 56.106 46.1406 56.74L49.1473 63.3134L50.884 56.9068Z" fill="#D13239"></path>
<path d="M63.7799 65.5508C63.6129 66.1511 63.3121 66.5847 62.711 66.9189C62.0762 67.2525 60.7064 67.653 59.1696 67.653C56.4637 67.653 53.5908 66.0512 53.5908 62.4809C53.5908 58.7768 56.7313 55.3398 61.0074 55.3398C63.0119 55.3398 64.4479 56.0072 65.1497 56.6746C65.4167 56.9082 65.6844 57.2085 65.6844 57.7423C65.6844 58.4431 65.1165 59.0437 64.381 59.0437C64.0139 59.0437 63.7462 58.9101 63.5792 58.7768C62.8111 58.1761 62.0762 57.7757 60.8068 57.7757C58.2678 57.7757 56.2968 59.9447 56.2968 62.414C56.2968 64.2495 57.6664 65.2834 59.3367 65.2834C60.2386 65.2834 60.9403 65.0498 61.4745 64.8167L62.0431 62.8813H60.5728C59.9382 62.8813 59.437 62.3803 59.437 61.7468C59.437 61.1127 59.9382 60.6121 60.5728 60.6121H63.6461C64.5148 60.6121 64.9827 61.2458 64.715 62.2803L63.7799 65.5508Z" fill="#D13239"></path>
<path d="M38.7573 66.3479C38.5236 67.1824 37.989 67.6491 37.2875 67.6491C36.4191 67.6491 35.9513 67.0156 36.2186 65.9475L37.7217 60.309C37.9556 59.4749 38.4903 59.0078 39.1917 59.0078C40.0602 59.0078 40.5279 59.6416 40.2606 60.7093L38.7573 66.3479Z" fill="#D13239"></path>
<path d="M39.058 54.7059C39.3922 53.8717 40.1603 53.538 40.9286 53.8049C41.6972 54.0385 42.1313 54.8393 41.864 55.6068C41.5969 56.3409 40.4276 58.0426 39.5591 57.7423C38.7905 57.442 38.8241 55.44 39.058 54.7059Z" fill="#D13239"></path>
<path d="M66.7199 66.5474C66.7199 67.1145 66.2521 67.5486 65.6844 67.5486C65.1166 67.5486 64.6489 67.1145 64.6489 66.5474C64.6489 65.9803 65.1166 65.5469 65.6844 65.5469C66.2521 65.5469 66.7199 65.9803 66.7199 66.5474ZM64.9159 66.5474C64.9159 66.9815 65.2504 67.3481 65.6844 67.3481C66.119 67.3481 66.4522 66.9815 66.4522 66.5474C66.4522 66.114 66.119 65.7467 65.6844 65.7467C65.2504 65.7467 64.9159 66.0809 64.9159 66.5474ZM65.5174 67.0477H65.2836V66.0472C65.3836 66.0472 65.5174 66.0134 65.6844 66.0134C65.8839 66.0134 65.9514 66.0472 66.0183 66.0803C66.0858 66.114 66.1177 66.1808 66.1177 66.2807C66.1177 66.4144 66.0183 66.4812 65.9189 66.5143C66.0183 66.5474 66.0533 66.6142 66.0858 66.7479C66.1183 66.9147 66.1527 66.9478 66.1527 66.9815H65.9195C65.8869 66.9478 65.8863 66.8478 65.852 66.7479C65.8194 66.6474 65.7844 66.5805 65.6519 66.5805H65.5524V67.0477H65.5174ZM65.5494 66.4806H65.6494C65.7844 66.4806 65.8833 66.4475 65.8833 66.3476C65.8833 66.247 65.8164 66.1802 65.6838 66.1802C65.6169 66.1802 65.5843 66.1802 65.5494 66.1802V66.4806Z" fill="#D13239"></path>
</g>
</svg>