<svg width="148" height="78" viewBox="0 0 148 78" fill="none" xmlns="http://www.w3.org/2000/svg">
<mask id="mask0_356_16500" style="mask-type:luminance" maskUnits="userSpaceOnUse" x="0" y="0" width="148" height="78">
<path d="M147.739 0H0V77.2273H147.739V0Z" fill="white"></path>
</mask>
<g mask="url(#mask0_356_16500)">
<path d="M125.566 6.70223C124.433 6.78831 123.239 6.91128 122.919 6.98506C122.587 7.05885 121.984 7.14494 121.577 7.19412C121.171 7.23101 120.567 7.34169 120.223 7.44007C119.89 7.52615 119.336 7.66143 118.992 7.72291C117.637 7.98115 116.529 8.26399 116.407 8.36237C116.333 8.42385 116.024 8.50994 115.729 8.55913C115.421 8.60832 115.064 8.6944 114.941 8.76819C114.805 8.82967 114.424 8.95265 114.08 9.03873C113.734 9.1248 113.069 9.34616 112.589 9.53062C112.122 9.70281 111.531 9.9118 111.297 9.98559C111.063 10.0594 110.756 10.1947 110.62 10.2807C110.484 10.3791 110.287 10.4529 110.177 10.4529C109.992 10.4529 109.426 10.662 108.404 11.117C105.56 12.3713 103.849 13.6748 102.925 15.298C102.445 16.122 101.164 17.8682 100.401 18.7045C99.7609 19.4177 98.7517 20.1678 98.4313 20.1678C98.0739 20.1678 98.0001 19.9711 98.0001 18.9258C98.0001 17.4009 97.3722 16.9828 96.6704 18.0404C96.4617 18.3724 96.0555 18.8643 95.7471 19.1472C95.2669 19.6144 92.5467 21.5205 92.374 21.5205C91.9801 21.5205 89.2838 24.5703 89.4439 24.8286C89.4808 24.9023 89.6655 24.9023 89.9117 24.8286C90.121 24.7548 91.1059 24.7055 92.1032 24.6933L93.8883 24.681L94.9225 25.1237L95.9567 25.5787L96.326 25.1113C96.8551 24.4842 98.2586 22.9716 98.5541 22.738C98.6898 22.6273 99.0961 22.3813 99.4535 22.1969C100.019 21.9017 100.204 21.8648 100.807 21.9263C101.226 21.9632 101.73 22.1108 102.063 22.3075C102.999 22.8487 103.947 23.2545 104.403 23.3282C104.636 23.3774 104.944 23.4758 105.08 23.5496C105.215 23.6357 105.634 23.7463 106.003 23.7832C106.372 23.8325 107.012 23.9554 107.418 24.0661C108.478 24.349 112.146 24.3366 112.824 24.0538C113.082 23.9431 113.378 23.857 113.489 23.857C113.587 23.857 114.055 23.6357 114.523 23.3651C115.458 22.824 115.754 22.7749 116.419 23.0577C116.665 23.1561 117.231 23.2667 117.674 23.316C118.13 23.3529 118.942 23.4758 119.484 23.5865C120.974 23.8939 130.072 23.8939 131.673 23.5865C132.289 23.4635 133.175 23.316 133.642 23.2545C135.465 22.9962 136.314 22.7995 138.506 22.1108C140.586 21.4714 142.741 20.5122 142.987 20.1433C143.282 19.6513 143 19.6268 139.897 19.7743C136.326 19.9588 134.492 19.9588 131.636 19.7989C127.967 19.5775 124.593 18.975 122.033 18.065C121.663 17.942 121.269 17.8313 121.146 17.8313C120.641 17.8313 120.58 17.0443 121.072 16.8968C121.306 16.8352 121.737 16.6385 122.808 16.1589C123.288 15.9376 124.15 15.6424 124.84 15.4456C125.147 15.3596 125.529 15.2243 125.664 15.1382C125.812 15.0644 126.034 15.0029 126.157 15.0029C126.28 15.0029 126.735 14.9046 127.179 14.7693C127.622 14.634 128.533 14.4126 129.21 14.2774C129.888 14.1421 130.86 13.9454 131.365 13.847C131.869 13.7363 132.781 13.601 133.384 13.5272C133.988 13.4534 134.529 13.3674 134.59 13.3305C134.701 13.2567 137.755 12.9738 140.451 12.7894C141.338 12.728 142.187 12.6173 142.322 12.5435C142.876 12.2484 142.483 11.4367 141.19 10.1947C140.722 9.75197 140.143 9.27237 139.884 9.1494C139.639 9.02643 139.404 8.89116 139.367 8.85427C139.293 8.76819 138.111 8.21481 137.459 7.96886C136.486 7.58764 135.354 7.26791 134.517 7.13263C134.048 7.05885 133.618 6.97277 133.556 6.93588C133.409 6.8375 129.223 6.51777 128.348 6.54236C127.942 6.54236 126.686 6.61614 125.566 6.70223ZM112.639 11.4736C112.799 11.6704 112.7 11.8057 112.381 11.8057C112.245 11.8057 112.159 11.7195 112.159 11.5597C112.159 11.2768 112.43 11.2277 112.639 11.4736ZM106.926 14.0068C106.926 14.3757 106.864 14.4742 106.434 14.7078C106.163 14.8677 105.781 15.0767 105.572 15.1997C105.116 15.458 104.403 15.6301 104.403 15.4825C104.403 15.3473 104.772 14.9291 105.313 14.4126C105.511 14.2282 105.793 13.9577 105.929 13.7978C106.102 13.601 106.286 13.5272 106.557 13.5519C106.889 13.5887 106.926 13.6256 106.926 14.0068ZM103.972 16.2327C103.972 16.3556 103.824 16.4294 103.577 16.4541C103.184 16.491 103.023 16.2941 103.258 16.0605C103.417 15.9129 103.972 16.0359 103.972 16.2327Z" fill="#FF0000"></path>
<path d="M146.557 22.0598C146.52 22.1581 146.582 22.4041 146.705 22.6008C147.013 23.1297 146.853 23.5355 145.978 24.3963C144.674 25.6997 142.975 26.6836 140.106 27.8518C139.663 28.0239 139.195 28.2208 139.06 28.2822C138.69 28.4544 137.792 28.7741 136.966 29.02C135.908 29.3275 134.246 29.8563 133.458 30.1392C133.088 30.2621 132.534 30.4219 132.227 30.4957C131.919 30.5572 131.315 30.6925 130.872 30.7908C130.429 30.8893 129.629 31.0615 129.087 31.1598C128.545 31.2704 127.942 31.418 127.733 31.4795C127.536 31.541 126.92 31.6517 126.379 31.7255C125.837 31.7993 125.184 31.91 124.902 31.9838C124.63 32.0575 124.027 32.1682 123.547 32.2174C123.079 32.2665 122.131 32.4018 121.454 32.5002C119.041 32.8814 114.842 33.3857 111.913 33.6315C106.938 34.062 106.84 34.0866 107.049 34.4309C107.16 34.6154 109.708 34.5169 111.974 34.2464C112.787 34.148 114.006 34.0128 114.683 33.9513C115.359 33.8775 116.333 33.7668 116.837 33.7053C117.342 33.6315 118.265 33.5209 118.868 33.4471C121.553 33.1274 122.82 32.9552 123.178 32.8445C123.374 32.783 123.904 32.697 124.348 32.6478C124.791 32.6109 125.456 32.5002 125.825 32.4018C126.194 32.3158 126.809 32.2051 127.179 32.1559C127.548 32.119 128.102 32.0083 128.41 31.91C128.718 31.8238 129.235 31.7131 129.567 31.6763C129.9 31.6394 130.232 31.5533 130.318 31.4795C130.392 31.418 130.786 31.332 131.193 31.2828C131.624 31.2336 132.017 31.1106 132.165 30.9753C132.337 30.8277 132.608 30.7663 133.088 30.7663C133.47 30.7663 134.098 30.6556 134.529 30.5081C134.948 30.3728 135.428 30.2498 135.588 30.2498C135.748 30.2498 135.932 30.1883 136.006 30.1145C136.068 30.053 136.425 29.9178 136.795 29.8194C137.57 29.6227 138.531 29.3152 139.06 29.0815C139.269 28.9955 139.736 28.7987 140.106 28.6388C141.989 27.8641 142.593 27.5812 143.923 26.8311C145.08 26.1793 145.203 26.0933 145.745 25.6383C146.619 24.8881 147.234 24.1995 147.308 23.8429C147.358 23.6461 147.481 23.4002 147.592 23.2895C147.739 23.1297 147.751 23.0435 147.641 22.8837C147.567 22.773 147.419 22.5025 147.321 22.2811C147.123 21.863 146.68 21.74 146.557 22.0598Z" fill="#FF0000"></path>
<path d="M54.233 27.3348C53.0388 27.4086 52.2262 27.507 52.177 27.5931C52.0416 27.8022 52.0662 29.1303 52.2016 29.4008C52.2755 29.5238 52.4601 29.6345 52.6202 29.6345C53.0265 29.6345 53.1496 29.8312 53.2358 30.6182C53.3589 31.602 53.5436 37.8737 53.4697 38.0704C53.4328 38.1688 53.2727 38.2426 53.125 38.2426C52.9649 38.2426 52.6941 38.2918 52.5217 38.3656C52.2262 38.4762 52.214 38.5131 52.2509 39.3494C52.2755 39.829 52.3493 40.2839 52.4109 40.3455C52.4725 40.407 53.5805 40.4439 55.0456 40.4315L57.5571 40.3946L57.5695 39.4723C57.5695 38.4271 57.4833 38.2426 56.9908 38.2426C56.3383 38.2426 56.2644 38.0213 56.2644 36.2135C56.2644 35.1068 56.3137 34.5411 56.4122 34.4796C56.5353 34.4058 57.274 35.0945 58.1112 36.0906C58.2836 36.2996 58.6776 36.7669 58.9976 37.1358C59.6994 37.9721 59.8348 38.3041 59.8348 39.2141C59.8348 40.407 59.7609 40.3823 62.6172 40.247C63.9715 40.1856 65.1411 40.0995 65.2273 40.0381C65.3258 39.9888 65.375 39.6322 65.375 39.1034C65.375 38.1442 65.2519 37.9966 64.4639 37.9966C63.9715 37.9966 63.4298 37.7876 63.1589 37.4801C63.0604 37.3695 62.4818 36.6809 61.8662 35.943C61.263 35.2175 60.7335 34.5903 60.6843 34.5534C60.6474 34.5165 60.315 34.1353 59.9579 33.7049C59.1823 32.7703 59.1331 32.4506 59.724 31.9956C59.9456 31.8111 60.6843 31.184 61.3614 30.5813C62.7404 29.3762 62.9373 29.2656 63.713 29.2656C64.1931 29.2656 64.267 29.2287 64.3409 28.9581C64.3778 28.786 64.3655 28.3309 64.3162 27.9375L64.2054 27.2365L62.2848 27.1996C61.1645 27.1873 60.2164 27.2242 60.0195 27.2979C59.6994 27.421 59.6871 27.4455 59.7732 28.0358C59.8595 28.6384 59.8471 28.6753 59.3793 29.118C58.3205 30.1386 56.6584 31.4791 56.4491 31.4791C56.2275 31.4791 56.1413 31.1962 56.1413 30.5199C56.1413 29.8066 56.2521 29.6345 56.7815 29.4623C57.1632 29.3394 57.1878 29.2901 57.2247 28.6876C57.2494 28.3433 57.2124 27.8759 57.1509 27.6423C57.0278 27.1504 57.0647 27.1627 54.233 27.3348Z" fill="#FF0000"></path>
<path d="M67.8004 27.2655C67.7757 27.3269 67.7388 27.7943 67.7265 28.3107C67.7018 29.2577 67.7018 29.2577 68.0465 29.3315C68.7237 29.479 68.7607 29.5282 68.7976 30.6841C68.8222 31.2744 68.7483 32.7009 68.6375 33.8446C68.5391 34.9882 68.4528 36.2794 68.4528 36.7221C68.4528 37.6691 68.3051 38.0011 67.8988 38.0011C67.4064 38.0011 67.2217 38.3085 67.2217 39.157C67.2217 39.735 67.2709 39.9809 67.4433 40.1162C67.6157 40.276 68.5144 40.3376 72.7619 40.4974C76.0122 40.6204 77.9205 40.645 78.0066 40.5712C78.0928 40.5098 78.179 40.3007 78.216 40.1162C78.2529 39.9317 78.3391 39.5382 78.4129 39.2308C78.4745 38.9234 78.5853 38.3208 78.6592 37.8781C78.7331 37.4354 78.8561 36.759 78.93 36.3532C79.1024 35.4555 79.0408 35.4063 77.822 35.4432L76.8986 35.4801L76.7755 36.0335C76.5785 36.8451 75.7783 38.1978 75.4459 38.2962C75.2858 38.3331 74.387 38.3331 73.439 38.2962C72.0848 38.2347 71.6785 38.1732 71.5677 38.0256C71.4569 37.9027 71.4076 37.3862 71.4076 36.5131C71.4076 34.9022 71.5061 34.7422 72.4172 34.8284C73.082 34.9022 73.2298 34.9882 73.3159 35.4186C73.3406 35.5662 73.3898 35.7138 73.4021 35.7383C73.5252 35.849 75.2365 35.8245 75.3596 35.7014C75.5567 35.5047 75.7167 31.9508 75.5443 31.8278C75.4704 31.7786 75.0149 31.7294 74.5225 31.7294C73.6483 31.7294 73.6483 31.7294 73.3898 32.1598C73.1559 32.5533 73.0943 32.5902 72.5403 32.5902C72.2202 32.5902 71.8877 32.5287 71.8016 32.4427C71.5677 32.209 71.6046 30.1307 71.8385 29.7987C72.0232 29.5405 72.0971 29.5282 73.2298 29.5897C75.692 29.7126 75.9875 29.8602 76.6031 31.2006L76.9478 31.9753L77.6496 31.9631C78.0436 31.9508 78.4252 31.9631 78.4868 31.9753C78.9669 32.086 79.0162 31.9015 78.7453 30.9424C78.6468 30.5981 78.5115 30.0078 78.4252 29.6389C78.3513 29.2699 78.2283 28.655 78.1421 28.2861L77.982 27.6098L77.2557 27.5729C76.8494 27.5606 75.2857 27.4622 73.7961 27.3638C70.8782 27.1671 67.8865 27.1179 67.8004 27.2655ZM70.6074 38.37C70.6443 38.4438 70.595 38.5298 70.4842 38.5667C70.2503 38.6651 70.1149 38.5667 70.2381 38.3823C70.3365 38.2101 70.5089 38.2101 70.6074 38.37Z" fill="#FF0000"></path>
<path d="M82.5246 27.4225C81.9091 27.693 81.6259 28.2464 81.6259 29.1442C81.6259 29.5623 81.5643 29.7836 81.3797 29.9434C80.998 30.2878 80.9734 30.5706 81.2812 31.2347C81.5643 31.8496 81.5767 31.8618 81.9953 31.7881C83.1649 31.5667 84.5068 30.3985 84.6423 29.4762C84.8023 28.4309 84.5438 27.7792 83.842 27.4225C83.251 27.1274 83.1772 27.1274 82.5246 27.4225Z" fill="#FF0000"></path>
<path d="M45.8609 27.876C43.6325 28.1466 43.8172 28.0605 43.9033 28.7492C44.1003 30.2126 44.0757 30.1879 44.7898 30.2248C45.3315 30.2617 45.4546 30.3109 45.5407 30.5322C45.6393 30.7782 45.7501 31.5776 46.0578 34.4305C46.2056 35.8447 46.181 37.4065 46.0086 37.6893C45.4669 38.5993 45.3315 38.7346 44.8144 38.9436C44.4943 39.0667 43.9403 39.165 43.5093 39.165C42.8691 39.165 42.7091 39.1158 42.3398 38.8084C42.1058 38.6116 41.798 38.255 41.6626 38.0091C41.3179 37.4434 41.0101 35.9185 40.9239 34.4305C40.8869 33.7911 40.7761 32.8319 40.6653 32.3031C40.4068 30.9627 40.4807 30.766 41.2194 30.7167L41.798 30.6798L41.7611 29.6961C41.7364 29.155 41.6749 28.6631 41.6134 28.6016C41.5395 28.5278 40.9485 28.5401 40.0498 28.6507C39.2495 28.7369 38.0676 28.8721 37.4274 28.9459L36.2578 29.0812L36.307 30.065C36.3317 30.606 36.3686 31.0856 36.4056 31.1349C36.4302 31.1963 36.6272 31.2332 36.8241 31.2332C37.5383 31.2332 37.6367 31.3685 37.7229 32.549C37.7721 33.1393 37.8829 34.0739 37.9815 34.615C38.0676 35.1561 38.1784 36.0169 38.2276 36.5211C38.3754 38.2181 38.9294 39.4232 39.9636 40.3086C40.8624 41.0711 41.7858 41.3662 43.2754 41.3662C45.0975 41.3662 46.0948 41.0219 47.0428 40.075C47.88 39.2388 48.2 38.4395 47.8184 38.1566C47.6953 38.0706 47.6215 37.9844 47.6584 37.9722C47.683 37.9475 47.8184 37.8738 47.9539 37.8C48.1385 37.7017 48.2124 37.5172 48.237 37.0745C48.2739 36.5703 48.2247 36.435 47.9661 36.1891C47.6091 35.8571 47.5476 35.4758 47.8431 35.3159C48.0154 35.2175 48.0154 35.0085 47.8923 33.4344C47.8184 32.463 47.6953 31.3808 47.6215 31.0365C47.4491 30.1879 47.6091 29.8805 48.2493 29.8805C48.5202 29.8805 48.7541 29.819 48.7787 29.7206C48.8156 29.6468 48.8034 29.155 48.7664 28.6507L48.6926 27.7284L48.0154 27.7162C47.646 27.7039 46.6734 27.7777 45.8609 27.876ZM46.9443 32.7335C46.9689 32.8195 46.9689 32.9917 46.932 33.1024C46.8828 33.3115 46.8581 33.3115 46.5257 33.1147C46.3287 32.9917 46.1686 32.8319 46.1686 32.7458C46.1686 32.5368 46.8704 32.5368 46.9443 32.7335Z" fill="#FF0000"></path>
<path d="M89.6285 28.8471C87.7325 29.2529 86.649 30.335 86.4767 31.9952C86.3782 32.9544 86.5506 33.6062 87.043 34.2087C87.3877 34.6269 88.4219 35.4139 88.6189 35.4139C88.6559 35.4139 89.333 35.7213 90.1209 36.1026C90.8965 36.4837 91.6599 36.8527 91.8199 36.9265C92.2631 37.1355 92.8051 37.6766 92.94 38.0455C93.1376 38.5497 92.9898 38.9186 92.4478 39.2753C92.0292 39.5581 91.8446 39.5949 90.8596 39.5949C90.0348 39.5949 89.6407 39.5335 89.3453 39.3736C88.2496 38.7957 87.6956 37.9717 87.8187 37.0863C87.9295 36.3362 87.7694 36.1886 86.7106 36.0902C85.6518 35.9919 85.5656 36.0779 85.5656 37.2831C85.5656 37.7135 85.4795 38.5251 85.381 39.1031C85.2824 39.6811 85.1963 40.4066 85.1963 40.7141C85.1963 41.3904 85.2455 41.415 86.5013 41.3904C87.3139 41.3781 87.3508 41.3658 87.3877 41.0706C87.4616 40.5541 87.6217 40.5296 88.1141 40.9108C89.2222 41.7839 89.5177 41.87 91.5368 41.87C93.3093 41.87 93.4081 41.8577 94.024 41.538C94.3684 41.3535 94.7747 41.0461 94.9104 40.8739C95.5752 40.0254 95.8707 38.7833 95.723 37.4307C95.6491 36.6928 95.5993 36.5944 95.0582 36.0533C94.7257 35.7336 94.4053 35.3647 94.3315 35.2171C94.1588 34.8974 92.2016 33.9259 91.1428 33.6308C90.3056 33.3971 89.2591 32.5609 89.2591 32.1305C89.2591 31.7738 90.047 31.1467 90.5888 31.0483C91.7707 30.8515 93.3222 31.6878 93.5069 32.6223C93.6666 33.434 93.6417 33.4094 94.627 33.5078C95.169 33.557 95.6122 33.5446 95.6731 33.4832C95.8707 33.2864 96.1533 31.282 96.1533 30.0399C96.1533 29.1545 96.1413 29.1545 94.8735 29.1053C94.1468 29.0807 94.1468 29.0807 94.036 29.4743C93.9003 29.9907 93.6786 29.9907 93.1616 29.462C92.8541 29.1669 92.5337 28.9947 91.9431 28.8471C91.0197 28.6135 90.7119 28.6135 89.6285 28.8471Z" fill="#FF0000"></path>
<path d="M27.4308 30.991C27.32 31.0648 26.9014 31.1754 26.5074 31.2492C26.1134 31.3107 25.5471 31.446 25.2393 31.5321C24.9315 31.6305 24.3652 31.7657 23.9712 31.8518C23.0109 32.0486 22.7647 32.2945 22.9001 32.9217C23.0233 33.4258 23.3187 34.2006 23.4541 34.3359C23.5034 34.3728 23.7373 34.3359 23.9712 34.2252C24.6237 33.967 24.7223 34.1268 25.1777 36.2174C25.3871 37.2012 25.8918 39.2056 26.3474 40.9027C26.4951 41.456 26.5936 42.0094 26.569 42.1324C26.5443 42.2677 26.3597 42.4275 26.1258 42.5013C25.4979 42.6981 25.3008 42.9564 25.4609 43.3744C25.5348 43.5589 25.6332 43.9524 25.6702 44.2476C25.7195 44.555 25.8426 44.8132 25.9411 44.8501C26.1258 44.9239 26.6674 44.8255 28.0709 44.4566C29.4375 44.1 30.3609 43.8787 30.9026 43.768C31.2104 43.7065 31.7399 43.5835 32.0723 43.4851C32.417 43.3867 32.971 43.2391 33.3034 43.1653C35.5442 42.6612 36.0243 42.5259 36.2213 42.3292C36.4182 42.1324 36.4306 41.9603 36.2951 39.9066C36.2213 38.6891 36.1227 37.6562 36.0735 37.5946C36.0366 37.5455 35.5564 37.607 35.0147 37.7299L34.0421 37.9636L34.0052 38.849C33.956 40.1894 33.4634 40.8289 32.3062 41.0502C31.9738 41.1117 31.3581 41.2593 30.9273 41.37C29.8438 41.6651 29.4006 41.6036 29.2529 41.1363C29.1914 40.9273 29.1051 40.6567 29.0436 40.5215C28.9451 40.2755 28.6988 39.181 28.4034 37.6315C28.3049 37.1888 28.2064 36.7585 28.1572 36.6847C28.1079 36.5986 27.9848 36.1313 27.8986 35.6394C27.8001 35.1475 27.6524 34.5203 27.5662 34.2375C27.3569 33.5611 27.4677 33.3521 28.1325 33.18C28.6619 33.0324 28.6988 32.9955 28.625 32.7126C28.588 32.5404 28.4772 32.0732 28.3911 31.6674C28.268 31.0279 28.2064 30.9295 27.9479 30.9049C27.7755 30.8803 27.5416 30.9295 27.4308 30.991Z" fill="#FF0000"></path>
<path d="M15.5128 31.7771C15.0326 32.1215 14.2078 33.056 13.1736 34.421L12.8535 34.8269L11.5977 34.6916C10.8959 34.6178 9.88643 34.5563 9.35697 34.5563C8.44594 34.5563 8.34744 34.5809 7.9781 34.9129C7.60875 35.2327 7.57181 35.3556 7.51025 36.1181L7.4487 36.9543L5.10949 37.0773C3.82909 37.1511 2.69642 37.2495 2.62255 37.2986C2.40094 37.4339 2.42557 38.1471 2.65948 38.7005C2.96727 39.4261 3.45974 40.3729 3.64441 40.5943C4.01376 41.0247 3.85371 41.3568 2.69642 42.4881C2.08084 43.1029 1.34214 43.9023 1.07129 44.2712C0.578823 44.9107 0.554199 44.9844 0.554199 45.8084C0.554199 46.5708 0.591134 46.7184 0.911239 47.1365C1.45294 47.8375 3.22581 49.1901 4.70321 50.0387C5.09718 50.26 5.4419 50.4937 5.49116 50.5675C5.5404 50.6289 5.61427 51.0963 5.67583 51.6005C5.84819 53.1745 6.64844 53.9001 8.26127 53.937C9.51708 53.9616 9.66482 54.023 9.82484 54.5764C9.98486 55.1052 10.5635 55.6955 11.2653 56.0644C12.3364 56.6178 14.7864 56.5071 15.5744 55.88C15.8944 55.634 15.9191 55.5602 15.796 55.3511C15.5867 55.0068 15.9314 54.5518 16.3254 54.6502C16.7316 54.7608 17.2118 54.2198 18.8123 51.8956C19.7111 50.5798 19.5264 50.6658 21.4101 50.6658C22.9244 50.6658 23.146 50.6413 23.737 50.3584C24.648 49.928 24.9312 49.2025 24.6234 48.0711C24.5002 47.6284 23.5892 46.6077 23.3183 46.6077C23.1706 46.6077 21.644 45.1566 21.2993 44.6893C20.7575 43.9515 20.5606 43.6441 20.1543 42.9062C19.0093 40.7787 18.1968 37.7536 17.9751 34.7408C17.8028 32.5518 17.7166 32.146 17.2979 31.691C16.8547 31.2237 16.2392 31.2483 15.5128 31.7771ZM13.4198 39.7581C13.4198 40.0286 13.2844 40.0902 13.0135 39.9549C12.8166 39.8442 12.8043 39.795 12.9396 39.7089C13.1982 39.549 13.4198 39.5737 13.4198 39.7581ZM14.4048 50.9487C14.4048 51.1823 14.2817 51.2807 14.0846 51.1947C13.8261 51.0963 13.8754 50.7889 14.1585 50.7889C14.2939 50.7889 14.4048 50.8626 14.4048 50.9487ZM15.4389 53.1131C15.5497 53.2852 15.3897 53.6172 15.205 53.6172C14.9834 53.6172 14.8603 53.4082 14.9465 53.1868C15.0204 52.9778 15.3404 52.9409 15.4389 53.1131ZM15.3281 55.0929C15.3651 55.1544 15.3158 55.2159 15.205 55.2159C15.0942 55.2159 15.0449 55.1544 15.0819 55.0929C15.1188 55.0191 15.1804 54.9699 15.205 54.9699C15.2296 54.9699 15.2912 55.0191 15.3281 55.0929Z" fill="#FF0000"></path>
<path d="M101.891 32.6354C101.46 32.8321 101.214 33.2501 101.202 33.791C101.202 34.2705 101.485 34.8606 101.756 34.9713C102.358 35.1926 103.417 34.9099 103.59 34.4918C103.701 34.1845 103.676 33.3362 103.54 33.0903C103.442 32.8813 102.568 32.451 102.334 32.4756C102.284 32.4756 102.088 32.5494 101.891 32.6354Z" fill="#FF0000"></path>
<path d="M100.156 36.4604C99.6627 36.7186 99.2324 37.3949 99.2324 37.936C99.2324 39.5962 101.066 40.3463 102.285 39.1904C102.642 38.8461 102.679 38.7477 102.679 38.0345C102.679 37.3211 102.642 37.2228 102.273 36.8047C101.916 36.4235 101.768 36.3497 101.19 36.3128C100.747 36.2882 100.401 36.3374 100.156 36.4604Z" fill="#FF0000"></path>
<path d="M105.683 36.9425C105.548 37.2868 105.757 37.3606 107.049 37.4221C109.611 37.545 113.009 37.7664 114.191 37.8894C115.323 38.0001 117.146 38.1599 118.992 38.3075C119.399 38.3321 119.903 38.4182 120.1 38.4797C120.309 38.5411 121.024 38.6642 121.701 38.7256C124.593 39.0453 129.334 39.9308 132.35 40.7178C134.246 41.222 135.133 41.4802 135.551 41.6401C135.785 41.7262 136.117 41.8369 136.29 41.8738C136.462 41.9107 136.795 42.0213 137.028 42.1074C137.262 42.2058 137.792 42.3903 138.198 42.5378C140.353 43.3248 143.467 44.9727 144.649 45.9564C144.884 46.1409 145.413 46.6205 145.819 47.0018C146.237 47.3952 146.607 47.715 146.656 47.715C146.705 47.715 146.779 47.6043 146.816 47.4567C146.878 47.26 146.779 47.0756 146.373 46.6451C145.733 45.9811 144.489 44.985 143.554 44.3701C142.396 43.62 139.75 42.341 138.137 41.7507C137.903 41.6647 137.398 41.4802 137.028 41.3327C136.659 41.1974 136.154 41.0375 135.92 41.0006C135.687 40.9515 135.378 40.8408 135.244 40.7424C135.108 40.6563 134.886 40.5825 134.751 40.5825C134.616 40.5825 134.148 40.4719 133.704 40.3488C133.261 40.2136 132.461 39.9923 131.919 39.857C131.377 39.7217 130.688 39.5618 130.38 39.4881C130.073 39.402 129.383 39.2667 128.841 39.1807C128.3 39.0822 127.696 38.9469 127.511 38.8732C127.315 38.7994 126.994 38.7379 126.798 38.7379C126.588 38.7379 125.886 38.6395 125.234 38.5042C123.252 38.123 121.996 37.9509 121.024 37.9263C120.507 37.9263 119.903 37.8525 119.669 37.7788C119.251 37.6557 117.576 37.4713 113.144 37.0778C112.024 36.9794 109.906 36.8687 108.441 36.8196C105.991 36.7458 105.757 36.758 105.683 36.9425Z" fill="#FF0000"></path>
<path d="M88.607 45.7456C86.9449 46.2743 86.6002 48.328 87.6221 51.5253C87.9914 52.6689 88.0037 52.878 87.8437 53.5912C87.659 54.3659 87.6713 55.2637 87.8929 56.0261C88.0284 56.5181 88.7301 57.3419 89.4319 57.8338C89.6166 57.9568 89.7519 58.1782 89.7519 58.338C89.7519 58.7316 90.2937 60.4655 90.6014 61.0558C90.7985 61.4123 90.86 61.769 90.86 62.433C90.86 65.1262 92.2266 66.4912 94.812 66.3805C95.378 66.3559 96.0927 66.2576 96.4002 66.1714L96.9662 65.9993L97.8287 66.8478C98.6902 67.6963 99.9579 68.6432 100.451 68.8031C100.586 68.84 100.71 68.926 100.71 68.9752C100.71 69.1351 102.1 69.6024 102.963 69.7499C103.381 69.8115 103.787 69.8852 103.873 69.8975C103.96 69.9099 104.071 69.959 104.108 70.0082C104.267 70.1681 105.572 70.0943 105.929 69.9099C106.373 69.6762 106.73 69.6762 106.816 69.9099C106.865 70.0082 107.037 70.0943 107.234 70.0943C107.419 70.0943 107.665 70.205 107.788 70.3402C107.998 70.5616 108.157 70.5862 109.808 70.5739C110.793 70.5739 111.888 70.5247 112.22 70.4633C112.566 70.414 113.279 70.3033 113.821 70.2295C114.363 70.1558 115.089 70.0082 115.422 69.9099C115.766 69.8115 116.456 69.6147 116.961 69.4672C118.388 69.049 120.211 68.3111 121.737 67.4995C123.018 66.8355 124.446 65.9747 124.593 65.778C124.63 65.7411 124.803 65.6304 124.976 65.532C125.16 65.4336 125.493 65.2122 125.714 65.0278C125.948 64.8433 126.465 64.4252 126.871 64.1055C127.77 63.3922 129.039 62.1994 130.122 61.068C130.565 60.6007 131.02 60.1211 131.131 60.0104C131.292 59.8383 132.83 57.9322 133.064 57.6124C133.704 56.7394 134.197 55.7433 134.197 55.3375C134.197 55.1284 134.062 54.944 133.79 54.7472C133.434 54.5135 133.236 54.4766 132.215 54.489C131.574 54.489 130.75 54.5504 130.38 54.5997C128.743 54.8579 128.065 54.9808 127.548 55.1161C127.241 55.1899 126.638 55.3129 126.195 55.3989C125.111 55.608 123.757 55.94 123.301 56.0876C123.104 56.1614 122.624 56.2967 122.255 56.3827C121.405 56.5795 120.002 56.973 118.869 57.3173C117.502 57.7231 116.998 57.7478 116.64 57.4157C116.222 57.0222 116.271 56.7148 116.874 56.1368C117.589 55.4604 118.291 55.0055 119.607 54.366C120.223 54.0708 120.863 53.7511 121.048 53.665C121.22 53.5667 121.454 53.4929 121.565 53.4929C121.664 53.4929 121.996 53.3945 122.28 53.2592C122.968 52.9641 123.51 52.7796 124.348 52.5582C124.717 52.4599 125.135 52.3246 125.271 52.2755C125.702 52.0786 127.45 51.6852 129.925 51.2179C130.38 51.1318 130.787 51.0457 130.799 51.0211C130.823 50.9965 130.799 50.8612 130.75 50.7136C130.639 50.4431 129.556 50.0373 128.312 49.8037C127.955 49.7422 127.573 49.6315 127.45 49.5823C127.34 49.5208 126.933 49.4348 126.539 49.3855C126.158 49.3486 125.493 49.2134 125.062 49.1027C124.409 48.9305 123.683 48.8937 120.346 48.8937C117.552 48.8937 116.259 48.9428 115.914 49.0535C115.643 49.1396 115.003 49.2748 114.498 49.3733C113.341 49.5946 112.208 49.8897 111.703 50.1234C111.495 50.2218 111.223 50.2956 111.088 50.2956C110.965 50.2956 110.756 50.3693 110.62 50.4677C110.484 50.5538 110.239 50.6767 110.066 50.726C109.734 50.8243 108.761 51.2425 108.466 51.4146C108.367 51.4761 108.145 51.5868 107.998 51.6483C107.579 51.8328 106.04 52.7427 105.326 53.2347C104.994 53.4683 104.551 53.7757 104.341 53.911C103.048 54.8087 100.648 57.0714 99.5517 58.4364C99.0346 59.0759 98.764 59.1619 98.5175 58.7807C98.4196 58.6209 98.2349 58.5348 98.0004 58.5348C97.7049 58.5348 97.6311 58.4856 97.6311 58.252C97.5941 56.6656 97.5082 55.9523 97.3116 55.522C96.9662 54.7595 96.1167 53.8249 95.366 53.3576C94.5784 52.878 94.4916 52.6813 94.3688 51.2179C94.1961 48.9674 93.0271 46.9138 91.4633 46.0652C90.9585 45.7947 90.6138 45.7087 89.8874 45.6718C89.3703 45.6472 88.7916 45.684 88.607 45.7456ZM89.4442 48.8199C89.7027 48.9183 89.7643 49.0166 89.7274 49.2872C89.7027 49.5577 89.6289 49.6315 89.2964 49.6561C88.9517 49.693 88.8902 49.6438 88.8163 49.3855C88.7301 49.029 88.8163 48.6969 89.001 48.6969C89.0625 48.6969 89.2718 48.7584 89.4442 48.8199ZM110.398 52.8288C110.362 52.8657 110.251 52.878 110.165 52.8411C110.066 52.8042 110.103 52.7673 110.239 52.7673C110.374 52.7551 110.447 52.792 110.398 52.8288ZM120.519 66.4051C120.863 66.7003 120.777 67.0199 120.359 67.0199C120.026 67.0199 119.731 66.6265 119.842 66.3313C119.928 66.0976 120.161 66.1223 120.519 66.4051Z" fill="#FF0000"></path>
<path d="M127.61 67.2054C127.893 67.3038 128.655 67.3283 128.655 67.2422C128.655 67.1931 128.397 67.1439 128.078 67.1562C127.746 67.1562 127.549 67.1808 127.61 67.2054Z" fill="#FF0000"></path>
<path d="M126.821 67.7236C126.464 68.0433 126.439 68.117 126.439 68.9285C126.439 69.7153 126.476 69.8505 126.784 70.1947C126.981 70.416 127.264 70.5882 127.398 70.5882C127.767 70.5882 127.743 70.416 127.35 70.2193C126.993 70.0227 126.686 69.5063 126.686 69.0883C126.686 68.5965 126.932 67.8835 127.103 67.8835C127.202 67.8835 127.301 67.7974 127.338 67.6991C127.472 67.3794 127.202 67.3917 126.821 67.7236Z" fill="#FF0000"></path>
<path d="M128.902 67.5882C128.902 67.6866 128.939 67.7603 129.001 67.7603C129.05 67.7603 129.246 67.957 129.444 68.2029C129.751 68.584 129.776 68.7069 129.702 69.1864C129.665 69.4814 129.566 69.7274 129.505 69.7274C129.37 69.7274 128.656 70.3912 128.656 70.5142C128.656 70.6494 129.087 70.5879 129.271 70.4281C129.947 69.8995 130.255 68.7438 129.849 68.2767C129.751 68.166 129.628 67.9447 129.591 67.8095C129.493 67.5022 128.902 67.3177 128.902 67.5882Z" fill="#FF0000"></path>
<path d="M128.322 68.4603C128.347 68.7308 128.298 68.8045 128.101 68.8045C127.941 68.8045 127.843 68.7062 127.819 68.5218C127.769 68.2021 127.609 68.1652 127.499 68.448C127.388 68.7553 127.413 69.5791 127.536 69.6651C127.609 69.702 127.72 69.616 127.794 69.4807C127.953 69.1856 128.261 69.161 128.359 69.4192C128.409 69.5176 128.483 69.6036 128.556 69.6036C128.716 69.6036 128.617 68.2144 128.446 68.1652C128.347 68.1283 128.31 68.239 128.322 68.4603Z" fill="#FF0000"></path>
</g>
</svg>