<svg width="87" height="68" viewBox="0 0 87 68" fill="none" xmlns="http://www.w3.org/2000/svg">
<mask id="mask0_356_16025" style="mask-type:luminance" maskUnits="userSpaceOnUse" x="0" y="0" width="87" height="68">
<path d="M86.0649 0H0V67.4547H86.0649V0Z" fill="white"></path>
</mask>
<g mask="url(#mask0_356_16025)">
<path d="M53.2186 1.77603C59.0382 4.64885 62.7184 9.7612 62.9875 15.2769H43.8533L53.2186 1.77603ZM22.7428 16.2109H42.1107L32.6464 30.2141C26.8232 27.3732 22.8419 22.1617 22.7428 16.2109ZM43.0139 16.5788L52.6837 30.4123C49.7721 31.7496 46.4284 32.5173 42.8828 32.5173C39.5037 32.5173 36.3265 31.8168 33.5142 30.6139L43.0139 16.5788ZM53.5515 30.0125L43.9171 16.2109H63.0194C62.9203 22.0273 59.1409 27.1043 53.5515 30.0125ZM32.7101 1.64512H32.8093V1.61328L41.9406 15.2804H22.7428C23.0438 9.70105 26.7913 4.52148 32.6782 1.6805L32.7101 1.64512ZM82.3236 52.4006C77.641 53.271 77.3718 53.3028 73.256 53.4019C67.6028 53.5363 67.4364 53.5009 64.4575 52.8676L63.8872 52.7332C63.1505 52.5669 62.35 50.8298 61.6805 49.4252C60.5754 47.0866 59.4384 44.6808 57.3309 44.6808C54.7877 44.6808 53.8845 46.1844 53.084 47.4864C52.7829 47.9888 52.4818 48.523 52.0461 48.99C50.81 50.3592 48.2668 50.6281 43.1804 50.6281V50.5963C37.8956 50.5963 35.3206 50.3628 34.049 48.9582C33.6488 48.4912 33.3123 47.957 33.0112 47.4546C32.2071 46.1526 31.3039 44.649 28.7643 44.649C26.6249 44.649 25.5197 47.0548 24.4146 49.3934C23.7452 50.7979 22.9411 52.5351 22.2079 52.7014L21.6376 52.8358C18.6588 53.4691 18.4923 53.5045 12.8392 53.37C8.72329 53.271 8.45764 53.271 3.77149 52.3688C0.558857 51.7673 1.76316 42.1441 2.40073 36.9964C3.43855 28.944 4.17529 24.2668 6.58389 16.4798C8.99249 8.69273 10.8662 5.68547 14.5783 3.54854C17.8264 1.70881 22.7428 1.60974 29.4656 1.64512C24.2481 5.05217 21.1028 10.3662 21.1028 15.9809C21.1028 26.004 30.8718 34.159 42.8793 34.159C54.855 34.159 64.624 26.0075 64.624 15.9809C64.624 10.4016 61.5459 5.15477 56.3958 1.74772C63.2532 1.71588 68.205 1.71588 71.4849 3.58392C75.2324 5.72085 77.1062 8.72811 79.5148 16.5152C81.9553 24.334 82.692 28.9794 83.698 37.0317C84.3284 42.1759 85.5363 51.7992 82.3236 52.4006Z" fill="#C51300"></path>
<path d="M39.0681 58.7484V61.2533H41.4094C42.2134 61.2533 41.4094 61.9538 41.1402 62.2899C40.9064 62.5906 39.3019 64.5294 39.0008 64.9646C38.6997 65.4316 38.3313 67.4376 40.0386 67.4376H46.1593V64.8655H43.2158C42.8475 64.8655 43.315 64.3313 43.6161 63.9315C43.9491 63.4645 45.4544 61.5576 45.8228 61.0587C46.6587 59.9902 46.726 58.7201 45.5536 58.7201C44.2182 58.7484 39.0681 58.7484 39.0681 58.7484ZM35.2534 67.3386H37.9311L37.9984 58.5503H35.3207L35.2534 67.3386ZM60.2425 64.5967C58.6698 64.5967 58.0004 63.928 58.0004 63.1249C58.0004 62.3218 58.6698 61.6531 59.4739 61.6531C60.2779 61.6531 60.9474 62.3218 60.9474 63.1249V67.3032H64.0254V63.1284C64.0254 60.5881 61.9498 58.5184 59.4101 58.5184C56.8705 58.5184 54.7948 60.5917 54.7948 63.1284C54.7948 65.6687 56.8705 67.8056 60.2815 67.4058L60.2425 64.5967ZM29.2673 61.9255C30.84 61.9255 31.5094 61.2568 31.5094 60.4537C31.5094 59.6506 30.84 58.9819 30.0359 58.9819C29.2319 58.9819 28.5624 59.6506 28.5624 60.4537V67.3704H25.4844V60.4537C25.4844 57.9135 27.56 55.8438 30.0997 55.8438C32.6393 55.8438 34.715 57.917 34.715 60.4537C34.715 62.9904 32.6393 65.1309 29.2283 64.7311L29.2673 61.9255Z" fill="black"></path>
<path d="M36.7937 57.5133C37.7543 57.5133 38.5329 56.7357 38.5329 55.7762C38.5329 54.8167 37.7543 54.0391 36.7937 54.0391C35.8335 54.0391 35.0547 54.8167 35.0547 55.7762C35.0547 56.7357 35.8335 57.5133 36.7937 57.5133Z" fill="black"></path>
<path d="M47.3629 58.7165V61.2214H49.7042C50.5083 61.2214 49.7042 61.9219 49.435 62.258C49.2013 62.5587 47.5967 64.4975 47.2956 64.9327C46.9946 65.3997 46.6262 67.4057 48.3335 67.4057H54.4541V64.8336H51.5107C51.1423 64.8336 51.6099 64.2994 51.9109 63.8996C52.2439 63.4326 53.7493 61.5257 54.1176 61.0268C54.9536 59.9583 55.0209 58.6882 53.8485 58.6882C52.5485 58.7165 47.3629 58.7165 47.3629 58.7165ZM82.4222 57.1457C82.4222 56.2435 83.1236 55.543 84.0622 55.543C84.9654 55.543 85.7022 56.2435 85.7022 57.1457C85.7022 58.0478 85.0009 58.7484 84.0622 58.7484C83.159 58.7837 82.4222 58.0478 82.4222 57.1457ZM82.6914 57.1457C82.6914 57.9134 83.2936 58.5149 84.0622 58.5149C84.799 58.5149 85.433 57.9134 85.433 57.1457C85.433 56.3779 84.8308 55.7765 84.0622 55.7765C83.3255 55.8083 82.6914 56.3779 82.6914 57.1457ZM84.799 58.0832H84.4979L84.0303 57.2483H83.6974V58.0832H83.4282V56.247H84.1968C84.5298 56.247 84.8308 56.3461 84.8308 56.714C84.8308 57.082 84.5971 57.2164 84.3279 57.2164L84.799 58.0832ZM83.6938 56.5124V56.9794H83.963C84.1968 56.9794 84.5333 57.0112 84.5333 56.7777C84.5333 56.5442 84.3314 56.5442 84.1331 56.5442L83.6938 56.5124Z" fill="black"></path>
<path d="M22.173 34.6897L20.0336 39.5013L23.3135 40.6369L25.5875 35.659C26.5226 33.653 25.3856 31.3498 23.0443 30.5467C20.7349 29.7436 18.0925 30.7484 17.1893 32.7509L14.8799 37.6969C14.8799 37.6969 18.2909 38.8326 18.259 38.868C18.2271 38.8998 20.5011 33.9219 20.5011 33.9219C20.703 33.4868 21.2025 33.2533 21.7054 33.4195C22.173 33.5858 22.4741 34.0882 22.2757 34.488L22.173 34.6897Z" fill="white"></path>
<path d="M16.9549 32.885L14.8155 37.6966L18.0955 38.8323L20.3695 33.8544C21.3046 31.8484 20.1676 29.5452 17.8263 28.742C15.5169 27.9389 12.8745 28.9437 11.9713 30.9462L9.69727 35.9241C9.69727 35.9241 13.1083 37.0597 13.0764 37.0951C13.0445 37.127 15.3185 32.1491 15.3185 32.1491C15.5204 31.7139 16.0198 31.4804 16.5228 31.6467C16.9904 31.813 17.2914 32.3154 17.0931 32.7152L16.9549 32.885ZM32.7454 39.8017C31.0736 39.5682 30.5033 38.8676 30.6379 38.1317C30.7725 37.3958 31.573 36.897 32.4125 36.9961C33.2484 37.0951 33.8506 37.7992 33.716 38.5315L33.0146 42.3737L36.2591 42.8089L36.9604 38.9667C37.3961 36.6281 35.5542 34.424 32.8446 34.056C30.1349 33.6881 27.6272 35.2908 27.1915 37.6329C26.7558 39.9715 28.5977 42.211 32.2779 42.3454L32.7454 39.8017ZM58.3686 36.8616C58.4359 39.2002 60.508 41.0399 63.1539 41.0718C65.8636 41.139 68.0703 39.2674 68.1376 36.9288C68.2049 34.5903 66.062 32.6515 63.3523 32.5843C60.6462 32.5524 58.404 34.424 58.3686 36.8616L61.6804 36.8935C61.7123 36.0585 62.4172 35.457 63.285 35.457C64.1563 35.4889 64.8222 36.0903 64.8222 36.8616C64.7904 37.5975 64.0855 38.199 63.2177 38.199C62.4491 38.199 61.7796 37.6647 61.7123 36.9288L58.3686 36.8616ZM40.3395 40.0705C40.1376 37.7319 42.0114 35.6941 44.6892 35.5278L46.4283 35.4287L46.6621 35.3969L46.8959 38.1353L46.2264 38.2343L44.8875 38.436C44.0516 38.7686 43.6514 38.7049 43.5486 39.7734L43.4495 43.4139L40.1695 43.3467L40.2687 39.7061" fill="white"></path>
<path d="M40.2373 40.7699L40.3719 35.325L43.6518 35.3922L43.5172 40.8371L40.2373 40.7699ZM67.5041 26.0697C66.7673 26.2714 65.8995 26.5049 65.5311 26.6711C65.1628 26.8374 65.1982 26.7702 65.2301 27.407C65.2619 28.0085 65.2619 30.5134 65.2301 30.715C65.1982 30.9167 65.6657 30.7823 66.066 30.7469C66.4662 30.715 67.3376 30.7469 67.4722 30.1454C67.6068 29.544 67.8051 26.6358 67.8724 26.4023C67.9716 26.1334 67.837 25.9671 67.5041 26.0697ZM56.1305 39.7014L55.0254 39.9031L53.9876 40.0375C53.1516 40.172 52.3157 39.705 52.1492 38.9691C51.9828 38.2332 52.5176 37.5326 53.3854 37.3664L55.0927 37.0656L55.4257 36.9984L54.6889 34.1928L54.4551 34.2247L52.716 34.5254C50.0736 34.9924 48.3663 37.2319 48.8693 39.5033C49.4042 41.81 51.9792 43.2783 54.6216 42.8431L55.3902 42.7441L56.761 42.4752L56.1305 39.7014ZM69.477 33.8214C69.1086 33.4534 69.2078 33.4216 69.0413 32.8201C68.8748 32.2187 69.2078 31.55 69.2078 31.55C69.5407 30.9804 70.0791 30.6478 70.8124 30.3471L75.3604 28.7762L76.5647 31.4828L74.1561 32.2859C75.2258 32.7211 76.5965 32.7883 77.4998 33.4888C78.07 33.924 78.3357 34.4228 78.3711 34.9606C78.4384 36.0644 78.0027 36.4642 77.4006 36.864C77.1314 37.0656 76.8303 37.1329 76.4973 37.2638L71.8466 38.8346L70.6742 36.2271C70.6742 36.2271 71.0745 36.0927 71.8466 35.8274C72.6153 35.5585 72.4807 35.5938 73.1182 35.3922C73.0509 35.325 73.019 35.325 73.019 35.325C71.9493 35.0561 72.0839 35.0243 70.9115 34.6563C70.9505 34.6563 70.1464 34.49 69.477 33.8214Z" fill="white"></path>
<path d="M53.4204 0.609822C59.6438 3.68431 63.9262 9.59978 63.8235 16.0141C63.6889 25.6055 54.1891 33.2546 42.6136 33.1555C31.0383 33.0211 21.7723 25.1703 21.9387 15.6108C22.0379 9.19645 26.3557 3.48264 32.611 0.539062L42.9147 15.8089L53.4204 0.609822Z" fill="#FFF100"></path>
<path d="M33.4826 11.4668C32.7813 12.468 33.2134 13.7381 34.4177 14.3077C35.6219 14.8773 37.1592 14.5412 37.864 13.54C38.5654 12.5388 38.1332 11.2686 36.9289 10.699C35.6892 10.1329 34.152 10.4655 33.4826 11.4668ZM29.7351 6.25534C29.0338 7.25658 29.4659 8.52671 30.6702 9.09632C31.8745 9.66593 33.4117 9.32983 34.1166 8.32858C34.8179 7.32734 34.3858 6.05722 33.1815 5.4876C31.9772 4.91799 30.4364 5.2541 29.7351 6.25534ZM26.3205 11.2014C27.0219 10.2002 28.5627 9.86406 29.767 10.4337C30.9713 11.0033 31.3715 12.2699 30.7021 13.2747C30.0007 14.2759 28.4599 14.612 27.2556 14.0424C26.0195 13.4728 25.6192 12.2026 26.3205 11.2014ZM33.7837 20.0569C34.485 21.0582 36.0257 21.3943 37.23 20.8247C38.4343 20.255 38.8346 18.9885 38.1651 17.9837C37.4638 16.9824 35.923 16.6463 34.7188 17.2159C33.5145 17.782 33.1142 19.0521 33.7837 20.0569ZM26.657 20.2904C27.3584 21.2917 28.8992 21.6278 30.1035 21.0582C31.3078 20.4885 31.708 19.222 31.0386 18.2172C30.3372 17.2159 28.7964 16.8798 27.5921 17.4494C26.356 18.0155 25.9557 19.321 26.657 20.2904ZM29.9334 25.0348C29.2321 24.0336 29.6642 22.7635 30.8685 22.1938C32.0728 21.6242 33.6101 21.9603 34.315 22.9616C35.0163 23.9628 34.5842 25.233 33.3799 25.8026C32.1756 26.3722 30.6383 26.0361 29.9334 25.0348Z" fill="#C51300"></path>
<path d="M43.0134 24.5992C44.3982 24.5992 45.521 23.6711 45.521 22.5262C45.521 21.3813 44.3982 20.4531 43.0134 20.4531C41.6286 20.4531 40.5059 21.3813 40.5059 22.5262C40.5059 23.6711 41.6286 24.5992 43.0134 24.5992Z" fill="#C51300"></path>
<path d="M39.7019 29.8453C41.0867 29.8453 42.2095 28.9172 42.2095 27.7723C42.2095 26.6274 41.0867 25.6992 39.7019 25.6992C38.3171 25.6992 37.1943 26.6274 37.1943 27.7723C37.1943 28.9172 38.3171 29.8453 39.7019 29.8453Z" fill="#C51300"></path>
<path d="M46.2937 29.8453C47.6785 29.8453 48.8012 28.9172 48.8012 27.7723C48.8012 26.6274 47.6785 25.6992 46.2937 25.6992C44.9089 25.6992 43.7861 26.6274 43.7861 27.7723C43.7861 28.9172 44.9089 29.8453 46.2937 29.8453Z" fill="#C51300"></path>
<path d="M52.9178 19.819C53.6191 18.8177 53.187 17.5476 51.9827 16.978C50.7784 16.4084 49.2411 16.7445 48.5363 17.7457C47.8349 18.747 48.2671 20.0171 49.4714 20.5867C50.7111 21.1563 52.2483 20.8237 52.9178 19.819ZM56.7645 24.8322C57.4658 23.831 57.0337 22.5609 55.8294 21.9913C54.6251 21.4217 53.0878 21.7578 52.3829 22.759C51.6816 23.7602 52.1137 25.0304 53.318 25.6C54.5578 26.1696 56.095 25.8335 56.7645 24.8322ZM60.0763 20.0878C59.375 21.0891 57.8342 21.4252 56.6299 20.8556C55.4256 20.286 55.0253 19.0194 55.6948 18.0146C56.3961 17.0134 57.9369 16.6773 59.1412 17.2469C60.3774 17.8165 60.7776 19.0866 60.0763 20.0878ZM52.9178 11.2677C52.2165 10.2665 50.6757 9.93037 49.4714 10.5C48.2671 11.0696 47.8668 12.3362 48.5363 13.341C49.2376 14.3422 50.7784 14.6783 51.9827 14.1087C53.2189 13.5391 53.6191 12.269 52.9178 11.2677ZM60.0763 11.0342C59.375 10.033 57.8342 9.69686 56.6299 10.2665C55.4256 10.8361 55.0253 12.1027 55.6948 13.1075C56.3961 14.1087 57.9369 14.4448 59.1412 13.8752C60.3455 13.3056 60.7776 12.0001 60.0763 11.0342ZM56.3288 6.08814C57.0301 7.08939 56.598 8.35951 55.3937 8.92912C54.1894 9.49874 52.6521 9.16263 51.9473 8.16139C51.2424 7.16015 51.6781 5.89002 52.8824 5.32041C54.0867 4.7508 55.6593 5.08336 56.3288 6.08814Z" fill="#C51300"></path>
<path d="M85.2674 36.8296C84.265 28.6782 83.4928 23.9656 81.0523 16.0441C78.5091 7.79005 76.4689 4.54928 72.2893 2.17532C68.6091 0.0383927 63.3243 0.0702343 56.0631 0.102076H53.2543V0.33558L53.0205 0.402802L42.8831 15.0393L33.0115 0.307277L32.8096 0.240056V0.00655117H30.401C22.9414 -0.0252905 17.554 -0.0252905 13.7746 2.11164C9.63038 4.48206 7.55474 7.72283 5.01154 15.9769C2.57105 23.8948 1.8343 28.6074 0.79648 36.7624C-0.0748663 43.6472 -1.24374 53.037 3.47428 53.9392C8.22419 54.8413 8.59256 54.8732 12.8076 54.9758C14.3803 55.0076 15.5173 55.043 16.4524 55.043C18.9283 55.043 19.7323 54.9086 22.0063 54.4416L22.5766 54.3071C24.082 54.0064 24.9852 52.103 25.9203 50.0969C26.7562 48.2926 27.6949 46.2866 28.7646 46.2866C30.4046 46.2866 30.8721 47.0897 31.6089 48.2926C31.9418 48.8622 32.3102 49.4955 32.845 50.0651C34.6515 52.0711 37.864 52.2374 42.915 52.2374V52.2693C48.1006 52.2693 51.4124 52.103 53.2507 50.0969C53.7856 49.4955 54.154 48.894 54.4869 48.3244C55.2237 47.1215 55.7231 46.3184 57.3312 46.3184C58.4009 46.3184 59.3395 48.3563 60.1754 50.1288C61.1106 52.1348 62.0138 54.0064 63.5192 54.339L64.0894 54.4734C66.3315 54.9404 67.1321 55.1067 69.608 55.1067C70.5431 55.1067 71.7155 55.0749 73.2527 55.0395C77.4678 54.9404 77.8007 54.905 82.5861 54.0029C87.3076 53.1007 86.1387 43.7109 85.2674 36.8296ZM53.2188 1.77553C59.0384 4.64834 62.7186 9.76069 62.9878 15.2764H43.8536L53.2188 1.77553ZM22.7431 16.2104H42.111L32.6467 30.2136C26.8235 27.3726 22.8423 22.1612 22.7431 16.2104ZM43.0142 16.5783L52.684 30.4117C49.7724 31.7491 46.4287 32.5168 42.8831 32.5168C39.504 32.5168 36.3268 31.8163 33.5145 30.6134L43.0142 16.5783ZM53.5518 30.012L43.9174 16.2104H63.0197C62.9205 22.0268 59.1412 27.1038 53.5518 30.012ZM32.7104 1.64462H32.8096V1.61278L41.9409 15.2799H22.7431C23.0442 9.70054 26.7917 4.52097 32.6786 1.68L32.7104 1.64462ZM82.3239 52.4002C77.6413 53.2705 77.3721 53.3023 73.2563 53.4014C67.6031 53.5358 67.4367 53.5005 64.4578 52.8672L63.8875 52.7327C63.1508 52.5664 62.3503 50.8293 61.6808 49.4247C60.5757 47.0861 59.4387 44.6803 57.3312 44.6803C54.788 44.6803 53.8848 46.184 53.0842 47.4859C52.7832 47.9883 52.4821 48.5226 52.0464 48.9896C50.8102 50.3588 48.267 50.6276 43.1807 50.6276V50.5958C37.8959 50.5958 35.3209 50.3623 34.0493 48.9577C33.6491 48.4907 33.3126 47.9565 33.0115 47.4541C32.2075 46.1521 31.3042 44.6485 28.7646 44.6485C26.6252 44.6485 25.5201 47.0543 24.4149 49.3929C23.7455 50.7975 22.9414 52.5346 22.2082 52.7009L21.638 52.8353C18.6591 53.4686 18.4926 53.504 12.8395 53.3696C8.72362 53.2705 8.45796 53.2705 3.77182 52.3683C0.559162 51.7669 1.76346 42.1436 2.40103 36.9959C3.43886 28.9435 4.17561 24.2663 6.58421 16.4793C8.99281 8.69223 10.8666 5.68496 14.5786 3.54804C17.8267 1.70831 22.7431 1.60925 29.4659 1.64462C24.2485 5.05167 21.1031 10.3657 21.1031 15.9804C21.1031 26.0035 30.8721 34.1584 42.8796 34.1584C54.8553 34.1584 64.6243 26.007 64.6243 15.9804C64.6243 10.4011 61.5462 5.15427 56.3961 1.74723C63.2535 1.71538 68.2053 1.71538 71.4852 3.58341C75.2327 5.72034 77.1065 8.72761 79.5151 16.5147C81.9556 24.3335 82.6923 28.9789 83.6983 37.0313C84.3287 42.1755 85.5366 51.7987 82.3239 52.4002Z" fill="black"></path>
<path d="M52.7157 0.807389L53.6508 1.17534L53.5162 0.106875H53.1478L52.7157 0.807389ZM33.1459 0.474821L32.3454 0.542042L32.3135 0.0078125H32.8837L33.1459 0.474821Z" fill="black"></path>
</g>
</svg>