<svg width="87" height="87" viewBox="0 0 87 87" fill="none" xmlns="http://www.w3.org/2000/svg">
<mask id="mask0_356_15899" style="mask-type:luminance" maskUnits="userSpaceOnUse" x="0" y="0" width="87" height="87">
<path d="M86.415 0H0V86.315H86.415V0Z" fill="white"></path>
</mask>
<g mask="url(#mask0_356_15899)">
<path d="M41.1058 6.81859C40.9907 6.90489 40.9043 8.80366 40.9043 10.9901C40.9043 14.6438 40.962 14.989 41.4227 14.9027C41.826 14.8164 41.9412 14.4424 41.9989 13.0039L42.0853 11.2203H43.5252H44.9942L44.9078 13.0039C44.8214 14.5287 44.879 14.8164 45.3111 14.9027C45.7431 14.989 45.8008 14.6726 45.8582 11.5367C45.8872 9.60918 45.9159 7.76797 45.9159 7.42274C45.9447 7.01996 45.7431 6.73228 45.4552 6.67473C45.0519 6.58843 44.9654 6.87611 44.879 8.40088L44.7926 10.2133L43.4388 10.2996L42.0563 10.3859V8.51595C42.0563 7.13503 41.9412 6.61719 41.682 6.61719C41.4515 6.61719 41.1922 6.70349 41.1058 6.81859Z" fill="black"></path>
<path d="M35.7187 7.42167C33.2416 7.91075 33.2993 7.88199 33.5008 8.45736C33.6159 8.77383 33.9041 8.80259 34.6528 8.62997L35.661 8.4286L36.2946 11.7658C36.9858 15.2469 37.2163 15.8798 37.7635 15.3332C37.9653 15.1318 37.8789 14.1249 37.4755 11.9672C36.7266 8.14091 36.7266 8.05461 37.5332 8.05461C38.3683 8.05461 39.0021 7.62307 38.7717 7.22029C38.5412 6.8463 38.4837 6.8463 35.7187 7.42167Z" fill="black"></path>
<path d="M48.536 9.40805C48.2768 10.6451 47.9025 12.4001 47.672 13.3206C47.4704 14.2125 47.4128 15.0468 47.5279 15.1043C47.6432 15.1906 48.6225 15.4208 49.6593 15.6509C51.4452 16.025 51.5603 16.025 51.5603 15.5071C51.5603 15.1331 51.2434 14.9605 50.2642 14.7879C49.5442 14.7016 48.8817 14.5002 48.824 14.3563C48.7376 14.2413 48.7665 13.6084 48.8529 12.9467L49.0545 11.7671L50.2355 11.9397C50.869 12.0548 51.5603 12.1699 51.7044 12.1987C51.8772 12.1987 51.9923 12.026 51.9923 11.7959C51.9923 11.5657 51.5026 11.2781 50.7539 11.0767C49.4001 10.7602 49.4001 10.789 49.6881 9.32175C49.8322 8.45867 49.9762 8.31482 50.4947 8.42991C52.77 8.94776 53.0005 8.97652 53.0005 8.51622C53.0005 8.11344 52.2516 7.82576 49.9473 7.33668L49.0258 7.16406L48.536 9.40805Z" fill="black"></path>
<path d="M25.1474 11.2228C23.7938 12.0283 23.8225 13.3229 25.1763 14.1284C26.1555 14.7038 26.1843 14.7038 25.7522 15.7107C25.4066 16.545 25.4066 16.8327 25.6948 17.4944C26.5589 19.2781 28.4598 19.3932 30.0726 17.7534C30.62 17.2067 31.1959 16.8903 31.5992 16.9478C32.5784 17.0629 32.6361 16.4587 31.6856 15.9697C31.2249 15.7395 30.8215 15.3367 30.8215 15.1066C30.8215 14.56 29.8998 12.6612 29.6406 12.6612C29.1511 12.6612 29.0934 13.2654 29.5254 14.0997C30.0439 15.0778 29.727 15.2217 28.5173 14.56C27.9124 14.2147 27.826 13.9846 27.9124 12.9489C27.9701 12.1146 27.826 11.568 27.4804 11.194C26.8468 10.5035 26.2996 10.5035 25.1474 11.2228ZM26.9332 12.3735C27.0196 12.6324 27.0196 13.064 26.9045 13.3229C26.6453 14.0134 25.3491 13.3229 25.3491 12.4886C25.3491 11.4529 26.6163 11.3378 26.9332 12.3735ZM29.9575 16.4587C29.9575 17.0053 28.7478 17.8397 27.9414 17.8397C26.8181 17.8397 26.242 16.7752 26.7317 15.7107L27.0483 14.9915L28.4885 15.6244C29.2949 15.9409 29.9575 16.3436 29.9575 16.4587Z" fill="black"></path>
<path d="M59.3383 13.5516C57.927 16.371 57.3509 17.0902 56.5445 16.9176C56.1412 16.8313 56.026 16.5723 56.0548 15.7668C56.0837 14.4722 55.4499 14.0694 54.9604 15.0763C54.4707 16.1696 54.9028 17.2053 56.026 17.7519C57.5814 18.4999 58.1575 18.0396 60.0585 14.501C61.3256 12.1131 61.6138 11.3651 61.2969 11.1925C61.0954 11.0487 60.8649 10.9336 60.7785 10.9336C60.692 10.9336 60.0295 12.1131 59.3383 13.5516Z" fill="black"></path>
<path d="M62.5357 15.279C59.9148 18.6162 59.7996 19.9396 62.075 21.1191C63.3134 21.752 64.2928 21.2342 66.3377 18.7601C68.6132 15.9982 68.6419 15.9695 68.1522 15.5667C67.8643 15.3078 67.3458 15.7681 65.7905 17.6956C63.6303 20.3999 62.8239 20.8602 61.8734 19.9108C61.0957 19.1628 61.326 18.5875 63.3423 16.027C65.4449 13.3802 65.4448 13.3515 64.9841 12.9775C64.6959 12.7186 64.1775 13.2076 62.5357 15.279Z" fill="black"></path>
<path d="M16.8517 16.9736L15.4404 18.4121L18.1479 21.2027C19.6456 22.7563 20.9129 24.0509 20.9705 24.1372C21.1145 24.3672 23.9084 21.4616 23.9084 21.0876C23.9084 20.4259 23.2459 20.6848 22.1802 21.7206L21.1433 22.7274L20.164 21.6917L19.1559 20.6561L20.2504 19.7355C21.1721 18.9587 21.2873 18.7573 20.9705 18.4696C20.6249 18.2107 20.3657 18.3545 19.588 19.1313L18.6087 20.1382L17.6582 19.2176L16.7077 18.297L17.8598 17.1175C18.8679 16.0818 19.0695 15.5352 18.4359 15.5352C18.3495 15.5352 17.6294 16.1969 16.8517 16.9736Z" fill="black"></path>
<path d="M41.0486 18.0398C38.629 18.5865 36.8717 19.7949 34.6826 22.4995C33.2423 24.2258 33.0694 25.2616 34.049 26.2397C34.481 26.6713 34.6826 27.2468 34.7113 28.2537L34.769 29.6636L32.7527 31.0158C31.6581 31.7352 30.2178 33.001 29.5554 33.7778C28.8928 34.5836 27.5678 35.9933 26.6173 36.9428C25.6378 37.921 24.6297 39.1583 24.3992 39.7625C24.1687 40.3378 23.5638 41.1722 23.0743 41.6038C22.5268 42.093 22.1237 42.7835 22.0083 43.4164C21.9219 43.9919 21.3747 45.1427 20.8274 45.9772C19.8768 47.3582 19.7904 47.6746 19.704 50.0051C19.6464 51.8466 19.7328 52.6808 20.0208 53.1413C20.7698 54.2634 20.5682 54.3784 17.7165 54.3784H14.98V57.3995V60.4205L43.2954 60.3629L71.5818 60.2765L71.6682 57.3131L71.7546 54.3784H68.8742H66.0225L65.7056 53.4866C65.5328 52.9687 65.3887 51.9616 65.3887 51.1848C65.3887 50.149 65.2158 49.6024 64.6686 48.9693C64.2653 48.4803 63.9486 47.7898 63.9486 47.3869C63.9486 47.013 63.6316 46.2361 63.2572 45.6893C62.5659 44.6535 62.3354 43.7041 62.0474 40.712C61.9321 39.5323 61.5289 38.2088 60.7512 36.5975C60.1173 35.3028 59.5124 34.2383 59.426 34.2383C58.6772 34.2383 51.5335 32.6558 50.7845 32.3394C50.295 32.1092 49.8052 31.9365 49.7188 31.9365C49.6037 31.9365 49.0852 31.6489 48.5377 31.2747C47.3856 30.5268 47.2415 29.721 48.0769 28.5415C48.3938 28.11 48.7106 27.0453 48.8259 26.1247C48.9698 24.7724 48.9123 24.4558 48.509 24.2258C48.1057 23.9956 48.0192 23.5927 48.0769 22.1829C48.1346 20.6293 48.0482 20.3416 47.3856 19.7374C46.9248 19.3058 45.7437 18.8167 44.217 18.4426C42.892 18.1261 41.7399 17.8672 41.7109 17.8672C41.6535 17.896 41.3653 17.9535 41.0486 18.0398ZM43.8426 19.0756C45.3981 19.6223 45.4845 19.8524 44.1882 19.8812C43.5833 19.91 42.7479 20.0251 42.3448 20.1689C41.8838 20.3128 42.3448 20.3416 43.5833 20.2265C44.9083 20.1114 45.5132 20.1689 45.5132 20.3991C45.5132 20.5717 45.0811 20.7156 44.5339 20.7156C42.8633 20.7156 39.7234 21.5787 37.563 22.5858C35.806 23.42 35.4316 23.7366 35.057 24.6574C34.7113 25.5492 34.5675 25.6642 34.4234 25.2327C34.0777 24.3695 34.8554 23.0748 36.6989 21.4061C39.6083 18.7591 41.3078 18.2124 43.8426 19.0756ZM46.3774 25.6068C46.6656 25.7795 46.8384 26.5274 46.8958 28.1387C46.9823 30.0089 46.8958 30.6131 46.4063 31.5913C46.0894 32.2242 45.6573 32.8573 45.4845 32.9723C45.3116 33.0586 45.3693 32.8573 45.6286 32.4831C46.3199 31.3899 46.4927 28.8868 46.003 26.959C45.5709 25.2903 45.5996 25.1176 46.3774 25.6068ZM38.1392 29.8937C38.4272 30.1815 38.6864 31.1021 38.7728 32.0515L38.9169 33.6915L37.6784 34.2383C36.9871 34.526 35.4603 34.9863 34.2793 35.2741C32.7527 35.6194 31.8596 36.022 31.226 36.5975C30.2754 37.4894 29.7282 37.4607 29.152 36.5112C28.8351 35.9933 28.9215 35.7631 29.9875 34.4684C31.2547 33.001 36.3532 29.3471 37.1886 29.3471C37.4479 29.3471 37.88 29.5773 38.1392 29.8937ZM47.5008 35.1878C47.5297 36.1947 47.3279 36.8565 46.8094 37.6909C46.4063 38.3238 46.0894 38.9567 46.0894 39.1007C46.0894 39.2446 45.9742 39.4459 45.8301 39.5609C45.5422 39.7336 44.0731 37.4894 44.0731 36.8852C44.0731 36.7126 44.6491 35.9357 45.3693 35.1878C46.0894 34.4397 46.752 33.4902 46.8671 33.0873L47.0687 32.3681L47.2705 33.0873C47.3856 33.4902 47.472 34.411 47.5008 35.1878ZM42.3448 37.0867C42.3448 37.2017 42.143 37.921 41.8838 38.6691L41.3942 40.0788L40.9909 39.1007C40.7604 38.5541 40.386 37.662 40.1844 37.0578L39.7811 36.022L41.0773 36.4536C41.7686 36.6839 42.3448 36.9715 42.3448 37.0867ZM29.6993 38.1512C30.4483 38.8993 31.0244 39.6473 30.938 39.8199C30.8803 39.9925 30.7075 40.5104 30.5347 40.942L30.2467 41.7477L29.2385 40.9709C28.6912 40.568 27.971 39.7625 27.6253 39.2446C27.0493 38.3238 27.0493 38.2088 27.4814 37.547C27.7407 37.1441 28.0574 36.8278 28.1438 36.8278C28.2592 36.8278 28.9505 37.432 29.6993 38.1512ZM44.7644 39.4746C45.1965 40.0788 45.6286 40.568 45.7437 40.568C45.8589 40.568 46.2045 40.1078 46.4927 39.5609C47.0976 38.4389 47.7025 38.2088 47.4143 39.187C47.3279 39.5609 47.2415 40.7407 47.2415 41.8341V43.8193L46.5215 43.1575C45.4268 42.1504 45.1101 42.6972 44.9947 45.7469C44.9372 47.1856 44.7644 48.2501 44.6203 48.1637C44.4762 48.0774 44.3611 47.7322 44.3611 47.3869C44.3611 47.0417 43.9003 45.7182 43.3528 44.4522C42.8056 43.1862 42.3448 41.9778 42.3448 41.7764C42.3448 41.5751 42.7479 41.2585 43.209 41.1146C44.1882 40.7694 44.2459 40.6256 43.6698 39.8199C43.2664 39.2446 43.3528 37.6909 43.7562 38.1799C43.8713 38.2951 44.3034 38.8993 44.7644 39.4746ZM26.7901 40.0501C26.7901 40.5104 26.5309 40.9996 26.0988 41.3449C25.7242 41.6325 25.2057 42.5533 24.9464 43.4451C24.572 44.5961 24.0823 45.3441 23.1607 46.2072C21.8932 47.3869 21.6627 48.0487 21.8355 50.1203C21.8644 50.4079 21.7491 50.6382 21.6052 50.6382C21.4323 50.6382 21.3171 50.9545 21.3171 51.3574C21.3171 52.1629 20.7698 52.3645 20.7122 51.5587C20.5105 48.394 20.6834 47.5595 21.7203 46.0346C22.2965 45.2003 22.7573 44.1933 22.7573 43.8193C22.7573 43.3301 23.1607 42.7259 23.9095 42.0354C24.5433 41.4599 25.0618 40.8557 25.0618 40.712C25.0618 40.5393 25.321 39.9925 25.6667 39.4459C26.1275 38.6691 26.3291 38.5541 26.5309 38.8704C26.6747 39.1007 26.7901 39.6186 26.7901 40.0501ZM33.3 49.1419C34.2505 50.0051 34.5675 50.8682 34.5675 52.6521V54.3784H31.1109C29.0079 54.3784 27.6543 54.2634 27.6543 54.0908C27.6543 53.9182 27.7694 53.8029 27.8845 53.8029C27.9999 53.8029 28.6048 53.3426 29.1808 52.7961C29.7569 52.2493 30.3906 51.789 30.5347 51.789C30.7075 51.789 30.8227 51.5876 30.8227 51.3574C30.8227 51.1272 31.0819 50.6669 31.3701 50.3792C31.6868 50.0627 32.0614 49.5448 32.263 49.2282C32.6374 48.509 32.6086 48.509 33.3 49.1419ZM45.9453 50.1777C46.7807 50.7819 46.2909 51.415 44.8219 51.6163L43.4969 51.8177V53.0261C43.4969 55.2416 43.2954 55.5292 41.855 55.5292C39.5218 55.5292 38.1679 54.2058 37.8223 51.4724C37.6784 50.4366 37.7071 50.3792 38.629 50.1203C40.1844 49.6598 45.3116 49.7174 45.9453 50.1777ZM57.8418 50.8682C57.8995 51.0698 58.1875 51.2135 58.4755 51.2135C58.7636 51.2135 59.1093 51.3574 59.1957 51.53C59.3109 51.674 59.7142 51.9329 60.0886 52.0766C60.5494 52.2493 60.7799 52.5658 60.7799 53.0261C60.7799 53.7455 59.2532 56.1047 58.7924 56.1047C58.2739 56.1047 58.1587 55.5581 58.5044 54.8963C58.8501 54.2345 58.8501 54.2345 58.1011 54.925C57.4674 55.5005 57.2656 55.5581 56.8913 55.2416C56.6607 55.0402 56.5456 54.7813 56.632 54.6087C56.7184 54.4647 56.4879 54.436 56.0558 54.5511C54.9324 54.81 54.6732 54.4934 55.1342 53.3713C55.6814 52.0766 55.2206 51.789 54.1837 52.7671C52.7146 54.1771 52.5705 53.5729 53.9244 51.674C54.8173 50.3792 54.846 50.3792 56.2863 50.4656C57.0641 50.4943 57.7841 50.6956 57.8418 50.8682ZM48.3939 51.8466C48.3939 52.7961 47.4433 54.0908 46.752 54.0908C46.2045 54.0908 46.2909 53.8029 47.0976 53.055C47.9328 52.3069 48.0192 51.8466 47.3856 51.6163C46.6943 51.3574 46.8958 50.9258 47.6736 50.9258C48.2785 50.9258 48.3939 51.0698 48.3939 51.8466ZM62.7098 52.9687C63.1995 53.7166 63.4875 54.4934 63.4588 55.1553C63.4301 56.4213 63.3724 56.45 62.3067 56.1047C61.4712 55.8171 61.4712 55.7595 61.5864 54.2345C61.6728 53.055 61.5864 52.4508 61.2407 51.904C60.7512 51.1848 60.7512 51.1848 61.3272 51.5013C61.6728 51.674 62.2777 52.3356 62.7098 52.9687ZM38.6 54.6087C38.6 54.7237 38.4561 54.9826 38.2543 55.184C37.8512 55.5868 38.4561 56.4213 39.1474 56.3637C39.5218 56.335 39.5218 56.3061 39.1185 56.191C38.8305 56.1334 38.6 55.9608 38.6 55.8171C38.6 55.2992 39.1474 55.2703 40.2132 55.7019C40.9909 56.0184 41.9991 56.1334 43.9867 56.0471C45.4557 55.9897 46.6656 55.8745 46.6656 55.7308C46.6656 55.6155 47.2128 55.5292 47.8754 55.5292C49.6324 55.5292 48.9411 55.9608 46.1181 56.6513C43.2377 57.3707 41.5671 57.3995 39.4354 56.8239C38.5713 56.5939 37.3902 56.2487 36.8142 56.076C35.518 55.7308 35.4027 55.1266 36.526 54.7237C37.4766 54.3497 38.6 54.2921 38.6 54.6087ZM52.3689 55.0976C52.6857 55.7882 52.6857 55.8171 51.5623 55.8171C50.266 55.8171 50.0068 55.2416 51.0727 54.7237C51.9656 54.2921 52.0233 54.2921 52.3689 55.0976Z" fill="black"></path>
<path d="M40.1839 50.2058C40.0398 50.2632 39.5214 50.3784 39.0606 50.4935C38.4845 50.6085 38.3117 50.7524 38.5422 50.9826C38.715 51.1552 40.0398 51.2415 42.1136 51.1552C45.4547 51.0689 46.8947 50.6948 45.5122 50.3208C44.7922 50.1195 40.7023 50.0332 40.1839 50.2058Z" fill="black"></path>
<path d="M40.4144 56.5955C40.8464 56.6531 41.5375 56.6531 41.9982 56.5955C42.4302 56.5379 42.0559 56.4805 41.1919 56.4805C40.328 56.4805 39.9537 56.5379 40.4144 56.5955Z" fill="black"></path>
<path d="M43.8717 56.5931C44.1306 56.6507 44.5907 56.6507 44.8783 56.5931C45.1372 56.5068 44.9072 56.4492 44.3606 56.4492C43.8141 56.4492 43.5839 56.5068 43.8717 56.5931Z" fill="black"></path>
<path d="M67.9801 20.6302C65.2151 23.1619 64.812 23.6797 65.3879 24.025C65.7625 24.2552 71.4941 19.0479 71.35 18.6164C71.1197 17.9259 70.6013 18.2711 67.9801 20.6302Z" fill="black"></path>
<path d="M13.0777 21.5762C12.1849 21.9214 11.2344 23.2737 11.2344 24.1367C11.2344 25.1148 11.9832 25.9492 14.201 27.3588C16.39 28.7686 17.5133 28.826 18.5502 27.589C19.3279 26.6683 19.5007 25.6616 19.011 24.7696C18.6942 24.1654 15.1227 21.6914 14.2586 21.4899C13.9418 21.4037 13.3946 21.4324 13.0777 21.5762ZM15.7276 23.5326C17.9165 24.9711 18.5502 25.6903 18.291 26.4383C17.8013 27.9629 16.534 27.7616 13.769 25.7479C12.6745 24.9422 12.3865 24.5683 12.3865 23.8778C12.3865 23.101 12.9625 22.4682 13.7114 22.4393C13.8842 22.4393 14.7771 22.9284 15.7276 23.5326Z" fill="black"></path>
<path d="M71.8107 22.2987C69.8233 23.3057 67.6919 25.2045 67.6919 25.9813C67.6919 26.9593 68.7575 28.4555 69.5641 28.6568C69.9962 28.7718 70.6585 28.6855 71.0618 28.5129C71.6379 28.2539 71.7243 28.1102 71.4361 27.765C71.2346 27.5061 70.8026 27.4198 70.2841 27.5061C69.276 27.7074 68.4119 26.7004 68.8729 25.8373C69.2472 25.1758 72.8476 22.7303 73.5099 22.7303C73.7981 22.7303 74.2301 23.0468 74.4893 23.4496C74.9501 24.1401 74.9501 24.2264 74.4604 24.7443C73.7981 25.4921 74.2876 26.2115 75.1229 25.7223C75.9006 25.2332 75.9006 23.5933 75.1229 22.6729C74.1437 21.5509 73.4812 21.4933 71.8107 22.2987Z" fill="black"></path>
<path d="M8.52696 27.7913C8.41176 28.0502 8.38294 28.3091 8.41176 28.3091C8.46935 28.3378 9.82308 28.9133 11.4648 29.6037C13.0778 30.2942 14.5467 31.071 14.6907 31.3586C15.0939 32.1067 14.4027 32.8547 13.3946 32.7395C12.2713 32.6245 12.0121 33.5163 13.1066 33.7752C14.2011 34.063 14.9211 33.7465 15.4108 32.7971C16.5052 30.697 15.814 30.1216 9.04541 27.4174C8.87259 27.3598 8.64217 27.5324 8.52696 27.7913Z" fill="black"></path>
<path d="M74.1726 28.8562C72.2716 29.6617 70.6588 30.3521 70.6011 30.4097C70.2842 30.6397 71.9836 34.092 72.4444 34.2073C73.0205 34.2936 72.9628 33.977 72.1852 32.1646L71.7244 31.1002L72.9629 30.5534L74.1726 30.0069L74.7199 31.2439C75.2959 32.5098 76.0448 32.9414 76.0448 31.992C76.0161 31.7331 75.8432 31.1865 75.6127 30.7837C75.3823 30.3808 75.2094 29.9782 75.1807 29.863C75.1807 29.6617 77.024 28.7699 77.3986 28.7699C77.456 28.7699 77.8017 29.4028 78.1473 30.2082C78.637 31.2728 78.8675 31.5604 79.1842 31.3878C79.5298 31.1576 79.4434 30.8124 78.7811 29.2301C78.3491 28.1944 77.8881 27.3314 77.8017 27.3601C77.7153 27.389 76.0735 28.0505 74.1726 28.8562Z" fill="black"></path>
<path d="M15.3532 61.8C14.4027 62.4042 14.7483 65.0224 15.8141 65.0224C16.3902 65.0224 16.8511 64.2742 16.4478 64.0153C16.3038 63.929 16.1022 64.0729 16.0157 64.3319C15.7277 65.1087 15.2668 64.4758 15.2668 63.2674C15.2668 62.4905 15.382 62.1453 15.6701 62.1453C15.9005 62.1453 16.1598 62.3179 16.2462 62.4905C16.3326 62.6919 16.3902 62.6056 16.3326 62.3179C16.275 61.6848 15.8717 61.4835 15.3532 61.8Z" fill="black"></path>
<path d="M17.6288 61.8313C17.3696 61.9751 17.2832 62.5506 17.3408 63.4713C17.4272 64.7661 17.4848 64.8811 18.1473 64.8811C18.781 64.8811 18.8674 64.7371 18.9539 63.644C19.0115 62.9534 18.8963 62.2053 18.6946 61.9751C18.3202 61.5148 18.1473 61.4861 17.6288 61.8313ZM18.4642 62.493C18.5506 63.2698 18.4642 64.5071 18.3202 64.6508C18.2625 64.7371 18.0609 64.7084 17.8881 64.5934C17.5424 64.3919 17.456 62.6369 17.7729 62.3492C18.0609 62.0327 18.4354 62.119 18.4642 62.493Z" fill="black"></path>
<path d="M36.0358 61.9732C35.8343 62.2034 35.7189 62.9514 35.7766 63.6419C35.8343 64.5626 36.0071 64.9079 36.4102 64.9655C36.9864 65.0805 37.6777 64.5626 37.332 64.2461C37.2169 64.1311 37.0151 64.2174 36.9 64.4187C36.4966 65.0518 36.0071 64.505 36.0071 63.4405C36.0071 62.3761 36.4966 61.8293 36.9 62.4624C37.0151 62.6637 37.2169 62.75 37.332 62.635C37.5336 62.4335 36.9576 61.5703 36.583 61.5703C36.4679 61.5703 36.2086 61.7429 36.0358 61.9732Z" fill="black"></path>
<path d="M56.1988 62.1167C55.738 62.9222 55.8244 64.332 56.3141 64.7348C56.8614 65.1951 57.6104 64.9075 57.6104 64.2456C57.5814 63.7567 57.5814 63.7567 57.2934 64.2456C56.8614 64.9938 56.458 64.5622 56.458 63.2675C56.458 62.4906 56.5734 62.1454 56.8614 62.1454C57.0919 62.1454 57.3511 62.318 57.4375 62.4906C57.5239 62.692 57.5814 62.6057 57.5239 62.2893C57.4375 61.5125 56.5734 61.3972 56.1988 62.1167Z" fill="black"></path>
<path d="M65.7619 61.8025C64.8114 62.4067 65.157 65.0248 66.2227 65.0248C66.8566 65.0248 67.1158 64.4783 67.1158 63.1835C67.1158 61.9462 66.5109 61.3133 65.7619 61.8025ZM66.5397 63.4712C66.5397 65.1688 65.8483 65.0535 65.7332 63.3562C65.6755 62.4067 65.7332 62.1477 66.0789 62.1477C66.4245 62.1477 66.5397 62.4641 66.5397 63.4712Z" fill="black"></path>
<path d="M19.5874 63.2683C19.5874 64.0736 19.7314 64.7929 19.8754 64.8792C20.0482 64.9941 20.1634 64.7353 20.1634 64.3325C20.1634 63.8723 20.3361 63.5848 20.5953 63.5848C20.8257 63.5848 21.0273 63.4409 21.0273 63.297C21.0273 63.1244 20.8257 63.0094 20.5953 63.0094C19.9906 63.0094 20.0482 62.2041 20.6817 62.0602C20.9697 61.9739 20.8545 61.9163 20.3937 61.8876C19.6162 61.8589 19.5874 61.9163 19.5874 63.2683Z" fill="black"></path>
<path d="M21.6045 63.4704C21.6045 64.4483 21.7196 64.9947 21.8924 64.8798C22.0652 64.7935 22.1805 64.4483 22.1805 64.1318C22.1805 63.8442 22.382 63.5854 22.6125 63.5854C22.8427 63.5854 23.0444 63.4415 23.0444 63.2978C23.0444 63.1252 22.7853 63.01 22.4684 63.01C21.806 63.01 21.9788 62.2334 22.6989 62.0608C22.9868 61.9745 22.8427 61.9171 22.4107 61.8882C21.6332 61.8595 21.6045 61.8882 21.6045 63.4704Z" fill="black"></path>
<path d="M23.6216 63.4416C23.6216 64.9372 23.6503 65.0235 24.3704 65.0235C24.7734 65.0235 25.0326 64.9085 24.9175 64.7359C24.8311 64.5634 24.5432 64.4482 24.3127 64.4482C23.6503 64.4482 23.852 63.6428 24.5719 63.499L25.2054 63.384L24.5719 63.1538C24.1976 63.0388 23.9095 62.7799 23.9095 62.5786C23.9095 62.3485 24.1976 62.1183 24.5719 62.0609C25.119 61.9457 25.0902 61.9457 24.4278 61.8883C23.6503 61.8594 23.6216 61.8883 23.6216 63.4416Z" fill="black"></path>
<path d="M25.6362 63.4416C25.6362 64.9372 25.665 65.0235 26.3561 65.0235C26.7593 65.0235 27.0762 64.8796 27.0762 64.7359C27.0762 64.5634 26.8744 64.4482 26.6442 64.4482C26.4138 64.4482 26.2122 64.2469 26.2122 64.0167C26.2122 63.7867 26.4138 63.5852 26.6442 63.5852C26.8744 63.5852 27.0762 63.4416 27.0762 63.2977C27.0762 63.1251 26.8744 63.0101 26.6442 63.0101C26.0395 63.0101 26.0969 62.2046 26.7306 62.0609C27.0185 61.9746 26.9034 61.917 26.4425 61.8883C25.665 61.8594 25.6362 61.8883 25.6362 63.4416Z" fill="black"></path>
<path d="M30.7626 62.5784C30.8202 62.9525 30.7915 63.6428 30.6763 64.0743C30.5037 64.8509 30.475 64.8796 30.0436 64.3042C29.6121 63.7291 29.6121 63.7291 29.7271 64.3042C29.7847 64.6494 30.0436 64.8796 30.3887 64.8796C30.8778 64.8796 30.9641 64.6494 31.0504 63.355C31.1077 62.5497 31.0215 61.8594 30.8778 61.8594C30.7339 61.8594 30.6763 62.1759 30.7626 62.5784Z" fill="black"></path>
<path d="M32.089 63.297C32.1177 64.7927 32.1754 64.879 32.8376 64.879C33.5 64.879 33.5577 64.764 33.6441 63.3544C33.7015 62.4628 33.6151 61.8587 33.4423 61.8587C33.2696 61.8587 33.2121 62.06 33.2985 62.2902C33.5577 62.9805 33.1257 64.7927 32.7512 64.6488C32.5497 64.5914 32.3192 63.9011 32.2328 63.1244L32.0601 61.7148L32.089 63.297Z" fill="black"></path>
<path d="M34.6523 63.4411C34.6523 64.3903 34.7099 64.7355 34.7675 64.2177C34.8249 63.7 34.8249 62.9233 34.7675 62.4919C34.7099 62.0604 34.6523 62.4919 34.6523 63.4411Z" fill="black"></path>
<path d="M38.0234 63.4416C38.0234 64.9372 38.0522 65.0235 38.7433 65.0235C39.1465 65.0235 39.4634 64.8796 39.4634 64.7359C39.4634 64.5634 39.2042 64.4482 38.8874 64.4482C38.5705 64.4482 38.3113 64.2469 38.3113 64.0167C38.3113 63.7867 38.5705 63.5852 38.8874 63.5852C39.2042 63.5852 39.4634 63.4416 39.4634 63.2977C39.4634 63.1251 39.2042 63.0101 38.8874 63.0101C38.1098 63.0101 38.1675 62.2046 38.9737 62.0609C39.5208 61.9457 39.4921 61.9457 38.8297 61.8883C38.0522 61.8594 38.0234 61.8883 38.0234 63.4416Z" fill="black"></path>
<path d="M41.3357 63.355C40.8174 65.1098 40.8174 65.0235 41.1917 65.0235C41.3644 65.0235 41.4798 64.822 41.4798 64.592C41.4798 64.3619 41.739 64.1606 42.0556 64.1606C42.3724 64.1606 42.6316 64.3619 42.6316 64.592C42.6316 64.822 42.7757 65.0235 42.9195 65.0235C43.294 65.0235 43.294 65.1098 42.7757 63.355C42.5165 62.521 42.1996 61.8594 42.0556 61.8594C41.9117 61.8594 41.5949 62.521 41.3357 63.355ZM42.3437 63.2977C42.3437 63.6139 42.2284 63.8728 42.0556 63.8728C41.9117 63.8728 41.7677 63.6139 41.7677 63.2977C41.7677 62.9812 41.9117 62.7223 42.0556 62.7223C42.2284 62.7223 42.3437 62.9812 42.3437 63.2977Z" fill="black"></path>
<path d="M43.8421 63.4964L43.8708 65.165L44.0436 63.8703L44.2165 62.5756L44.7062 63.784C45.3688 65.4816 45.8009 65.3377 45.8009 63.4387C45.8009 61.6837 45.2247 61.2232 45.196 62.9208L45.167 64.0142L44.8214 63.0359C44.2165 61.3672 43.7844 61.5974 43.8421 63.4964Z" fill="black"></path>
<path d="M46.4345 63.355C46.5209 64.6781 46.6073 64.8796 47.1543 64.9659C47.9895 65.0809 48.5079 64.103 48.2487 62.8373C48.1046 61.9744 47.9606 61.8594 47.212 61.8594C46.3481 61.8594 46.3481 61.8594 46.4345 63.355ZM47.8167 63.2974C47.8167 64.1317 47.7014 64.4481 47.3848 64.4481C47.0679 64.4481 46.9528 64.1317 46.9528 63.2974C46.9528 62.4634 47.0679 62.1469 47.3848 62.1469C47.7014 62.1469 47.8167 62.4634 47.8167 63.2974Z" fill="black"></path>
<path d="M50.1785 63.5014L50.2074 65.1701L50.3803 63.8754L50.5531 62.5807L50.7834 63.6452C51.1003 65.1701 51.4747 65.2277 51.9068 63.8178L52.2525 62.5807L52.4542 63.8754L52.6271 65.1701L52.6558 63.5014C52.7135 61.5162 52.195 61.3723 51.6765 63.1849L51.3596 64.307L51.1003 63.1849C50.6682 61.3436 50.121 61.5162 50.1785 63.5014Z" fill="black"></path>
<path d="M53.6925 63.2974C53.7213 64.5922 53.8077 64.8798 54.2685 64.9661C54.5567 65.0237 54.9023 64.9085 55.0462 64.6785C55.3919 64.1606 55.3631 61.8588 55.0175 61.8588C54.8734 61.8588 54.7295 62.5206 54.7295 63.3261C54.7295 65.2251 54.0669 65.11 53.8364 63.1248L53.6636 61.7148L53.6925 63.2974Z" fill="black"></path>
<path d="M58.561 63.4415C58.561 64.3908 58.6187 64.8222 58.6764 64.3618C58.8202 63.3839 59.6267 63.3263 59.6267 64.3045C59.6267 64.707 59.7705 65.0235 59.9146 65.0235C60.0874 65.0235 60.2025 64.3045 60.2025 63.4415C60.2025 62.5786 60.0874 61.8594 59.9146 61.8594C59.7705 61.8594 59.6267 62.1182 59.6267 62.4347C59.6267 63.2114 58.8202 63.1538 58.6764 62.3484C58.6187 62.0033 58.561 62.4923 58.561 63.4415Z" fill="black"></path>
<path d="M61.9887 63.5014L62.0177 65.1701L62.1905 63.8754L62.3634 62.5807L62.7377 63.8178C63.1698 65.2277 63.4868 65.1988 63.8324 63.6741L64.0627 62.5807L64.2355 63.8754L64.4373 65.1701L64.466 63.5014C64.5237 61.5162 63.9763 61.3436 63.5442 63.1849L63.285 64.307L62.9683 63.1849C62.4498 61.3723 61.9313 61.5162 61.9887 63.5014Z" fill="black"></path>
<path d="M67.6919 63.4415C67.6919 64.3045 67.8359 65.0235 67.9798 65.0235C68.1526 65.0235 68.2679 64.6783 68.2679 64.2756C68.2679 63.3552 68.9014 63.4989 69.1606 64.477C69.2757 64.9085 69.3333 64.5344 69.3333 63.4989C69.3333 61.8883 69.3333 61.8594 68.5271 61.8594C67.7206 61.8594 67.6919 61.8883 67.6919 63.4415ZM69.0742 62.6649C69.1318 62.8662 68.9878 63.0101 68.7286 63.0101C68.4694 63.0101 68.2679 62.8086 68.2679 62.5497C68.2679 62.0609 68.9014 62.1472 69.0742 62.6649Z" fill="black"></path>
<path d="M69.9966 63.2974C69.9966 64.822 70.3134 65.1959 71.3501 64.937C71.8108 64.822 71.7821 64.7644 71.2348 64.5918C70.4862 64.3618 70.3421 63.5852 71.0046 63.5852C71.2348 63.5852 71.4365 63.4413 71.4365 63.2974C71.4365 63.1248 71.2348 63.0099 71.0046 63.0099C70.3134 63.0099 70.5149 62.2045 71.2348 62.0606C71.6957 61.9744 71.6093 61.9168 70.9469 61.8881L69.9966 61.8594V63.2974Z" fill="black"></path>
<path d="M27.8546 64.6494C27.7396 64.7357 27.6533 65.0232 27.6533 65.2821C27.682 65.6562 27.7396 65.6562 27.9698 65.2247C28.2861 64.6781 28.1998 64.2755 27.8546 64.6494Z" fill="black"></path>
<path d="M35.92 66.6648C35.5461 67.0387 35.7187 67.6141 36.2365 67.6427C36.6679 67.6427 36.6679 67.6717 36.1789 67.8729C35.7474 68.0455 35.7187 68.1605 35.9776 68.3044C36.1789 68.4483 36.4954 68.3907 36.6679 68.1894C36.9268 67.9305 36.8692 67.7579 36.4665 67.4415C35.9487 67.0676 35.9487 67.0387 36.4091 67.0387C36.6679 67.0387 36.8116 66.895 36.7253 66.7511C36.5241 66.406 36.1789 66.3773 35.92 66.6648Z" fill="black"></path>
<path d="M42.7179 66.663C42.2578 66.8356 42.2289 68.0723 42.6603 68.3601C42.8329 68.4464 43.1207 68.3888 43.2933 68.2162C43.5233 67.986 43.4659 67.8998 43.0631 67.8711C42.5167 67.8711 42.5167 67.8424 43.0631 67.6122L43.6385 67.3533L43.0631 67.3246C42.5167 67.2957 42.5167 67.267 43.0344 67.0657C43.6385 66.8356 43.322 66.4617 42.7179 66.663Z" fill="black"></path>
<path d="M37.4482 67.4692C37.4482 67.8718 37.5345 68.1883 37.6784 68.1883C37.7934 68.1883 37.8797 67.8718 37.8797 67.4692C37.8797 67.0665 37.7934 66.75 37.6784 66.75C37.5345 66.75 37.4482 67.0665 37.4482 67.4692Z" fill="black"></path>
<path d="M38.3115 67.4714C38.3115 68.2191 38.7435 68.4493 38.9739 67.8166C39.0891 67.5288 39.1467 67.5288 39.1467 67.8166C39.2042 68.5356 40.0394 68.1905 40.0394 67.4714C40.0394 66.7235 39.6074 66.4933 39.377 67.0974C39.2618 67.3851 39.2042 67.3851 39.2042 67.0974C39.1467 66.407 38.3115 66.7522 38.3115 67.4714Z" fill="black"></path>
<path d="M40.414 67.2098C40.2127 67.7562 40.9894 68.6192 41.4495 68.3603C41.9386 68.044 41.8236 67.6126 41.3345 67.7851C41.0469 67.9001 40.9031 67.7851 40.9031 67.4687C40.9031 67.1522 41.0469 67.0372 41.3345 67.1522C41.5647 67.2385 41.766 67.1811 41.766 67.0372C41.766 66.5771 40.6155 66.7207 40.414 67.2098Z" fill="black"></path>
<path d="M44.9365 67.0665C44.9365 67.2104 45.0804 67.2678 45.2241 67.1815C45.3967 67.0952 45.5119 67.1528 45.5119 67.3254C45.5119 67.4979 45.6556 67.5555 45.7994 67.4692C46.2885 67.1815 46.1159 66.75 45.5119 66.75C45.1954 66.75 44.9365 66.8939 44.9365 67.0665Z" fill="black"></path>
<path d="M46.4912 67.179C46.2899 67.6968 46.894 68.5308 47.2678 68.3008C47.4117 68.2145 47.5267 67.8404 47.5267 67.4379C47.5267 66.6613 46.7501 66.4598 46.4912 67.179ZM47.1529 67.6679C47.0666 67.898 46.9803 67.8118 46.9803 67.4953C46.9516 67.179 47.0379 67.0064 47.1242 67.1214C47.2105 67.2077 47.2392 67.4666 47.1529 67.6679Z" fill="black"></path>
<path d="M48.1045 67.439C48.1045 68.2732 48.3921 68.5321 48.9387 68.2156C49.4565 67.8993 49.2263 66.9212 48.5936 66.8062C48.2484 66.7199 48.1045 66.8925 48.1045 67.439ZM48.9674 67.6405C48.9674 67.7841 48.8524 67.8993 48.6798 67.8993C48.536 67.8993 48.3921 67.6978 48.3921 67.439C48.3921 67.209 48.536 67.0938 48.6798 67.1801C48.8524 67.2664 48.9674 67.4679 48.9674 67.6405Z" fill="black"></path>
<path d="M50.0626 67.0089C50.3504 67.1815 50.3504 67.2964 49.9763 67.6129C49.6025 67.9294 49.6025 68.0444 49.89 68.217C50.4941 68.6197 50.6093 68.5334 50.638 67.6129C50.638 66.9802 50.523 66.75 50.1778 66.75C49.8037 66.75 49.775 66.8076 50.0626 67.0089Z" fill="black"></path>
<path d="M45.08 67.8739C44.9937 68.0178 45.1376 68.1904 45.3676 68.3054C45.5977 68.3917 45.8566 68.3341 45.9429 68.2191C46.0292 68.0752 45.8853 67.9026 45.6553 67.7876C45.4252 67.7013 45.1663 67.7589 45.08 67.8739Z" fill="black"></path>
</g>
</svg>