<svg width="76" height="85" viewBox="0 0 76 85" fill="none" xmlns="http://www.w3.org/2000/svg">
<mask id="mask0_356_16055" style="mask-type:luminance" maskUnits="userSpaceOnUse" x="0" y="0" width="76" height="85">
<path d="M75.8709 0H0V84.1685H75.8709V0Z" fill="white"></path>
</mask>
<g mask="url(#mask0_356_16055)">
<mask id="mask1_356_16055" style="mask-type:luminance" maskUnits="userSpaceOnUse" x="-15" y="-8" width="123" height="100">
<path d="M-14.2764 91.5058H107.649V-7.50781H-14.2764V91.5058Z" fill="white"></path>
</mask>
<g mask="url(#mask1_356_16055)">
<path d="M37.8024 56.8293C50.928 56.8293 61.5683 46.3053 61.5683 33.3253C61.5683 20.3441 50.928 9.82031 37.8024 9.82031C24.6772 9.82031 14.0371 20.3441 14.0371 33.3253C14.0371 46.3053 24.6772 56.8293 37.8024 56.8293Z" fill="white"></path>
<path d="M5.80762 33.0751C5.80762 50.6564 20.2694 64.9605 38.0461 64.9605C55.8239 64.9605 70.2849 50.6564 70.2849 33.0751C70.2849 15.4945 55.8239 1.19141 38.0461 1.19141C20.2694 1.19141 5.80762 15.4945 5.80762 33.0751ZM16.9428 33.0751C16.9428 21.566 26.4098 12.2044 38.0461 12.2044C49.6838 12.2044 59.1506 21.566 59.1506 33.0751C59.1506 44.5847 49.6838 53.9472 38.0461 53.9472C26.4098 53.9472 16.9428 44.5847 16.9428 33.0751Z" fill="#C41230"></path>
<path d="M38.0457 0.539062C33.6049 0.539062 29.2967 1.39976 25.2402 3.0968C23.2897 3.91208 21.4101 4.92169 19.6519 6.09728C17.909 7.26097 16.2712 8.59719 14.7828 10.0694C13.2954 11.5411 11.9431 13.1613 10.7667 14.8834C9.57877 16.6228 8.55722 18.483 7.73313 20.4121C6.01674 24.4239 5.14648 28.685 5.14648 33.077C5.14648 37.4673 6.01674 41.7305 7.73313 45.7432C8.55722 47.6699 9.57877 49.5297 10.7667 51.2703C11.9431 52.9919 13.2954 54.6112 14.7828 56.0839C16.2712 57.5561 17.909 58.8929 19.6519 60.0571C21.4101 61.2308 23.2897 62.2414 25.2402 63.0569C29.2967 64.753 33.6049 65.6148 38.0457 65.6148C42.487 65.6148 46.7952 64.753 50.852 63.0569C52.8008 62.2414 54.6832 61.2308 56.441 60.0571C58.1823 58.8929 59.821 57.5561 61.3088 56.0839C62.7982 54.6128 64.1488 52.9919 65.3255 51.2703C66.5139 49.5297 67.5348 47.6699 68.3592 45.7432C70.0749 41.7305 70.9452 37.4673 70.9452 33.077C70.9452 28.685 70.0749 24.4239 68.3592 20.4121C67.5348 18.483 66.5139 16.6228 65.3255 14.8834C64.1488 13.1613 62.7982 11.5411 61.3088 10.0694C59.821 8.59719 58.1823 7.26097 56.441 6.09728C54.6832 4.92169 52.8008 3.91208 50.853 3.0968C46.7952 1.39976 42.487 0.539062 38.0457 0.539062ZM6.4675 33.077C6.4675 15.8288 20.6062 1.84533 38.0457 1.84533C55.4874 1.84533 69.624 15.8288 69.624 33.077C69.624 50.327 55.4874 64.3079 38.0457 64.3079C20.6062 64.3079 6.4675 50.327 6.4675 33.077ZM38.0457 11.5518C26.0261 11.5518 16.2828 21.1878 16.2828 33.077C16.2828 44.9645 26.0261 54.6016 38.0457 54.6016C50.0668 54.6016 59.8098 44.9645 59.8098 33.077C59.8098 21.1878 50.0668 11.5518 38.0457 11.5518ZM38.0457 53.2968C35.2853 53.2968 32.6087 52.762 30.0884 51.7069C27.6535 50.6894 25.4674 49.2312 23.5903 47.3735C21.7117 45.5161 20.2383 43.3538 19.2082 40.9471C18.1419 38.4542 17.6026 35.8072 17.6026 33.077C17.6026 30.3469 18.1419 27.6983 19.2082 25.2066C20.2383 22.7987 21.7117 20.6367 23.5903 18.7799C25.4674 16.9223 27.6535 15.4638 30.0884 14.4462C32.6087 13.3917 35.2853 12.8571 38.0457 12.8571C40.8063 12.8571 43.4841 13.3917 46.0035 14.4462C48.4382 15.4638 50.6245 16.9223 52.5035 18.7799C54.3801 20.6367 55.8545 22.7987 56.885 25.2066C57.9496 27.6983 58.4907 30.3469 58.4907 33.077C58.4907 35.8072 57.9496 38.4542 56.885 40.9471C55.8545 43.3538 54.3801 45.5161 52.5035 47.3735C50.6245 49.2312 48.4382 50.6894 46.0035 51.7069C43.4841 52.762 40.8063 53.2968 38.0457 53.2968Z" fill="white"></path>
<path d="M14.803 28.7898L13.8912 28.4867L14.0642 27.977C14.1605 27.6953 14.0609 27.5218 13.7744 27.428L10.3422 26.2869C10.0565 26.1928 9.87876 26.2743 9.78362 26.5557L9.61057 27.066L8.69824 26.7621L10.0719 22.7168L10.9842 23.0198L10.7738 23.6388C10.6779 23.9209 10.77 24.0911 11.0562 24.1854L14.4884 25.327C14.8764 25.4553 14.9405 25.3979 15.0977 24.9357L15.2843 24.3868C15.4966 23.7588 15.2684 23.16 14.3558 22.8573L13.8095 22.6749L14.1641 21.6328L16.9231 22.5489L14.803 28.7898Z" fill="white"></path>
<path d="M14.8901 15.9162C14.4131 16.5453 14.6245 17.0107 16.0839 18.0935C17.5485 19.1812 18.087 19.2706 18.5631 18.6416C19.04 18.013 18.7969 17.5323 17.3323 16.4467C15.8742 15.3637 15.3673 15.2879 14.8901 15.9162ZM19.4001 19.262C18.0747 21.0081 16.18 21.2464 14.5873 20.0657C13.0013 18.8888 12.722 17.0379 14.0476 15.2911C15.3718 13.5436 17.2478 13.292 18.8329 14.4677C20.4251 15.6486 20.7246 17.515 19.4001 19.262Z" fill="white"></path>
<path d="M24.2317 7.7549C23.985 7.92603 24.0045 8.1962 24.1775 8.43971L25.4766 10.2667C26.6659 11.9363 26.1555 13.1307 24.7063 14.141C23.0985 15.2594 21.7897 15.5335 20.5722 13.8214L19.1569 11.8342C18.9839 11.5905 18.8006 11.5359 18.5267 11.7263L18.3225 11.8691L17.7686 11.0902L20.8809 8.92504L21.4344 9.70184L21.0779 9.95048C20.8315 10.1216 20.8076 10.3304 20.9806 10.5733L22.5363 12.7592C23.0374 13.4627 23.6704 13.4058 24.3759 12.9149C25.0378 12.4522 25.145 11.8129 24.712 11.2032L23.215 9.10108C23.042 8.85714 22.7955 8.75481 22.542 8.93063L22.2269 9.1507L21.6744 8.37202L23.9926 6.75781L24.5465 7.53531L24.2317 7.7549Z" fill="white"></path>
<path d="M28.2057 11.9626L27.8812 11.0666L28.4637 10.8613C28.7478 10.7613 28.78 10.6792 28.6768 10.3917L27.4581 7.01897C27.3559 6.73804 27.1563 6.58002 26.8727 6.67995L26.3607 6.86047L26.0381 5.96566L29.952 4.58203L30.2751 5.47682L29.756 5.66133C29.4726 5.76126 29.4736 5.9097 29.5747 6.19137L30.7929 9.56317C30.8937 9.84383 31.0707 9.93843 31.3543 9.83872L31.7949 9.68325L32.1194 10.579L28.2057 11.9626Z" fill="white"></path>
<path d="M36.7286 10.0374C35.6934 10.1076 35.0545 9.82668 34.7035 9.85056C34.5364 9.86132 34.4639 10.024 34.4708 10.1156L33.5606 10.176L33.3939 7.7491L34.4201 7.68072L34.432 7.86215C34.4928 8.7537 35.2539 9.08265 36.1721 9.02221C37.0143 8.96556 37.4246 8.70595 37.3964 8.30888C37.3725 7.9551 37.1691 7.80293 36.2381 7.66596L34.849 7.4686C33.9777 7.34639 33.2761 6.77936 33.2155 5.77966C33.1258 4.36116 34.3839 3.62977 35.8438 3.53121C36.7861 3.46683 37.1334 3.75807 37.4087 3.74051C37.6599 3.72365 37.7115 3.62041 37.7103 3.48813L38.678 3.42188L38.8317 5.65068L37.755 5.72418L37.7401 5.51675C37.6897 4.78281 37.065 4.46886 36.2644 4.52223C35.5796 4.56882 35.136 4.6901 35.1625 5.07758C35.1819 5.3583 35.3436 5.52053 36.0977 5.63592L37.5384 5.86281C38.4626 6.00794 39.2305 6.45233 39.2975 7.54236C39.4085 9.27649 38.0706 9.94676 36.7286 10.0374Z" fill="white"></path>
<path d="M40.2275 9.93418L40.3994 8.99743L41.0085 9.1077C41.3053 9.16084 41.3752 9.10653 41.4304 8.80572L42.0816 5.28197C42.1346 4.98957 42.0425 4.75405 41.7466 4.70067L41.2114 4.60421L41.3846 3.66797L45.4735 4.40685L45.3 5.34241L44.7581 5.24499C44.4608 5.19163 44.3863 5.31992 44.3326 5.61348L43.6813 9.13605C43.6271 9.42962 43.7317 9.59985 44.0286 9.6532L44.4885 9.73682L44.3169 10.6717L40.2275 9.93418Z" fill="white"></path>
<path d="M50.9522 8.20568L49.2203 9.6713L50.6432 10.4249L50.9522 8.20568ZM48.9439 12.5844L49.3981 11.7453L50.0024 12.0649C50.2465 12.1944 50.4207 12.0806 50.4541 11.8451L50.5216 11.4016L48.4569 10.3095L48.1508 10.5794C47.898 10.8016 47.9451 10.9774 48.2325 11.1296L48.7045 11.3796L48.2502 12.2171L45.6172 10.8243L46.0715 9.98618L46.2263 10.0686C46.4547 10.1894 46.7447 10.2493 46.9715 10.0587L51.1766 6.54297L53.0872 7.55343L52.4575 12.8386C52.4279 13.1419 52.4954 13.3841 52.7678 13.5279L52.9747 13.6377L52.5205 14.4768L48.9439 12.5844Z" fill="white"></path>
<path d="M62.4199 17.3251C62.2251 17.0994 62.024 17.082 61.7945 17.2752L57.9587 20.5005L56.5883 18.9063L57.8093 14.0563L55.758 15.7812C55.5285 15.975 55.5056 16.1785 55.702 16.4052L56.0643 16.8271L55.3311 17.444L53.251 15.0237L53.9842 14.4075L54.3364 14.8175C54.5312 15.0441 54.7372 15.0551 54.9666 14.8624L57.6684 12.5896C57.8984 12.3969 57.9726 12.1511 57.7773 11.9242L57.4251 11.5144L58.1583 10.8984L60.1995 13.2747L58.9998 17.9954L60.9823 16.3305C61.2118 16.1366 61.2337 15.9455 61.0389 15.7182L60.6824 15.3023L61.414 14.6866L63.4941 17.1052L62.7609 17.7222L62.4199 17.3251Z" fill="white"></path>
<path d="M64.4319 23.0511L62.1525 23.0038L62.7063 24.504L64.4319 23.0511ZM59.9855 24.994L60.8889 24.6674L61.1253 25.3047C61.2192 25.5613 61.4268 25.5926 61.6087 25.4374L61.9577 25.1528L61.1541 22.9773L60.7432 22.9764C60.406 22.9752 60.3238 23.1379 60.4348 23.4402L60.6189 23.9367L59.715 24.2636L58.6895 21.4907L59.5934 21.1641L59.6542 21.3275C59.7428 21.5677 59.9178 21.8027 60.215 21.8119L65.72 21.9603L66.4644 23.9723L62.4347 27.4998C62.2074 27.7056 62.0943 27.9299 62.2015 28.2176L62.2821 28.4351L61.3787 28.7624L59.9855 24.994Z" fill="white"></path>
<path d="M13.1604 49.2633L13.9644 48.7409L14.171 49.0528C14.2913 49.2331 14.4549 49.3143 14.5882 49.2288C14.6786 49.1694 14.7553 49.0596 14.8175 48.9111L15.3552 47.5648L14.2977 47.2803L13.7508 47.6349C13.4996 47.7976 13.4104 47.906 13.5754 48.1542L13.7948 48.4857L12.9906 49.0076L10.8311 45.7488L11.6353 45.2279L11.9333 45.677C12.0995 45.9268 12.2977 45.9551 12.5501 45.791L15.5787 43.8287C15.8311 43.6646 15.877 43.477 15.7108 43.2285L15.4127 42.7795L16.2176 42.2578L18.4918 45.6875L17.6878 46.2094L17.3528 45.7044C17.1878 45.4562 17.0458 45.4983 16.7946 45.6615L15.3746 46.5824L17.6795 47.1939C17.8393 47.2387 17.9413 47.2424 18.0675 47.1605C18.1648 47.0961 18.1831 46.9565 18.1144 46.8538L17.908 46.5423L18.712 46.0204L20.6516 48.9472L19.8462 49.4677L19.4939 48.9353C19.3509 48.7213 19.0903 48.5841 18.7766 48.5014L17.2901 48.0999L16.0571 51.2635C15.9286 51.5831 15.9184 51.6887 16.0294 51.8538L16.2671 52.2146L15.462 52.7365L13.1604 49.2633Z" fill="white"></path>
<path d="M17.1543 54.168L17.7776 53.4442L18.2486 53.8407C18.4782 54.0337 18.5661 54.0203 18.7668 53.7874L21.1151 51.061C21.3111 50.8351 21.3492 50.586 21.121 50.3935L20.706 50.0442L21.3298 49.3203L24.4943 51.9858L23.8705 52.7099L23.4499 52.3566C23.2217 52.1625 23.0905 52.2377 22.8959 52.4648L20.5477 55.1907C20.3517 55.4172 20.3564 55.6166 20.5851 55.8095L20.942 56.1101L20.3183 56.8339L17.1543 54.168Z" fill="white"></path>
<path d="M29.7482 57.717L30.0697 56.9906C30.3412 56.3772 30.2428 55.9001 29.6233 55.6305L29.3463 55.5116L27.7316 59.1555C27.6078 59.4348 27.7245 59.7296 27.9996 59.85L28.6581 60.1351L28.2725 61.006L23.9209 59.1198L24.3063 58.2495L24.9736 58.5373C25.2499 58.6572 25.5391 58.5389 25.6631 58.258L27.2785 54.6146L27.0032 54.4958C26.383 54.2266 25.96 54.476 25.6883 55.0911L25.3668 55.817L24.3714 55.3858L25.4953 52.8477L31.8678 55.6113L30.743 58.1493L29.7482 57.717Z" fill="white"></path>
<path d="M35.528 62.5383C33.3625 62.3432 32.2279 60.8872 32.4071 58.9354C32.5996 56.851 34.1016 55.7658 36.1087 55.9449C36.825 56.0094 37.2968 56.2599 37.475 56.3425C37.6277 56.415 37.6599 56.3425 37.7909 56.0963L38.8319 56.1895L38.5983 58.7345L37.4568 58.6327L37.4788 58.3934C37.5484 57.6446 37.2516 57.1281 36.4607 57.0561C35.51 56.9709 35.0693 57.6707 34.9343 59.1209C34.7816 60.7854 35.1062 61.4612 36.1312 61.5544C37.0051 61.6312 37.3273 61.1467 37.4583 60.2609L37.5039 59.9497L38.62 60.0493L38.5924 60.3547C38.4773 61.6152 37.6277 62.7264 35.528 62.5383Z" fill="white"></path>
<path d="M46.1158 61.437L45.8611 60.5197L46.207 60.4259C46.4977 60.3476 46.5867 60.1695 46.5076 59.8812L46.1456 58.5813L44.2902 59.0855L44.6514 60.3854C44.7315 60.6727 44.9002 60.7809 45.1914 60.7025L45.5375 60.6071L45.7927 61.5249L41.9214 62.577L41.6666 61.6597L42.1919 61.518C42.4816 61.4386 42.5704 61.2605 42.4911 60.9738L41.5312 57.5185C41.4519 57.2323 41.2846 57.1327 40.9948 57.2105L40.4698 57.3533L40.2148 56.4361L44.0873 55.3835L44.3404 56.3018L43.9943 56.3945C43.7041 56.4734 43.6125 56.645 43.6927 56.9317L44.023 58.1197L45.8772 57.6161L45.5472 56.4275C45.4681 56.1413 45.3005 56.0401 45.0098 56.1195L44.664 56.2133L44.4093 55.2955L48.2716 54.2461L48.5263 55.1649L48.0022 55.3056C47.713 55.3851 47.6282 55.5529 47.7094 55.8407L48.6681 59.2944C48.7488 59.5806 48.9093 59.692 49.1993 59.6131L49.7232 59.4698L49.9782 60.3875L46.1158 61.437Z" fill="white"></path>
<path d="M52.8927 58.839L52.3234 58.071L52.7618 57.7544C53.004 57.5769 53.0734 57.4447 52.8903 57.1985L50.6514 54.1856C50.4741 53.9463 50.3309 53.9783 50.0883 54.1536L49.6506 54.4724L49.0801 53.7054L54.4866 49.7773L56.0308 51.858L55.1621 52.4899L54.9082 52.1501C54.413 51.4829 53.8292 51.4358 53.2828 51.8327L52.5819 52.3426C52.3388 52.5186 52.2597 52.6481 52.4375 52.8881L53.2498 53.9815L53.6275 53.707C53.8436 53.5503 53.8314 53.3542 53.6681 53.133L53.3511 52.7074L54.1334 52.1396L55.9348 54.5667L55.1536 55.1332L54.747 54.588C54.5885 54.3738 54.3868 54.3253 54.1713 54.4819L53.8148 54.741L54.6755 55.9007C54.8591 56.1485 54.9797 56.1416 55.2219 55.9663L55.8681 55.4967C56.5223 55.0218 56.7517 54.5054 56.1301 53.6654L55.8868 53.3392L56.756 52.7074L58.36 54.8673L52.8927 58.839Z" fill="white"></path>
<path d="M60.4549 43.0704C60.2921 43.3214 60.3332 43.5148 60.5872 43.6765L64.8174 46.3771L63.6706 48.1353L58.6234 48.379L60.8855 49.8227C61.1385 49.9861 61.3423 49.9478 61.5051 49.6984L61.8093 49.232L62.6188 49.7478L60.877 52.4168L60.0685 51.9007L60.3626 51.4491C60.5275 51.1997 60.4768 51 60.2233 50.838L57.244 48.9365C56.9905 48.7752 56.7317 48.777 56.5684 49.0267L56.2733 49.4786L55.4648 48.9634L57.1751 46.3427L62.0921 46.1132L59.9068 44.719C59.655 44.5569 59.4607 44.593 59.299 44.8428L58.9986 45.301L58.1912 44.7871L59.9319 42.1172L60.7404 42.633L60.4549 43.0704Z" fill="white"></path>
<path d="M40.9776 38.3235L40.8838 38.3881L41.5185 40.11C44.374 38.8899 49.9491 35.986 51.139 31.5273C48.076 35.9905 40.9776 38.3235 40.9776 38.3235Z" fill="#C41230"></path>
<path d="M36.7142 26.5524L36.6709 26.5697L37.3645 28.4542C38.9107 28.1664 41.009 28.2402 41.8105 30.4388C41.892 30.6668 41.9403 30.886 41.9618 31.0946C42.8358 30.344 43.4389 29.3143 42.9617 27.9951C41.6327 24.3442 36.7142 26.5524 36.7142 26.5524Z" fill="#C41230"></path>
<path d="M28.6491 29.3867L26.1107 30.3008L23.7852 23.9844L22.6888 24.3791L21.9736 24.6334L24.9582 32.7447L27.4963 31.8308L34.6282 51.2106L42.5076 48.373L41.8476 46.5816L35.7795 48.7655L28.6491 29.3867Z" fill="#C41230"></path>
<path d="M39.577 31.3029C39.577 31.3029 44.7701 29.8089 43.6129 26.6129C42.2825 22.9605 37.3644 25.1699 37.3644 25.1699L37.3201 25.1894L39.5678 31.2959L39.577 31.3029ZM41.5358 37.0099L44.3099 44.5503L36.4316 47.3865L29.2998 28.0081L26.7603 28.9225L23.7764 20.8111L24.492 20.5567L26.9255 19.6786C34.2827 17.0767 48.7138 12.4821 52.7059 23.4621C55.8903 32.2601 41.6274 36.9457 41.6274 36.9457L41.5358 37.0099Z" fill="#F58427"></path>
<path d="M11.6715 39.7502C11.6597 39.7502 11.6427 39.7113 11.6391 39.7012C11.5842 39.5756 11.5442 39.495 11.454 39.4053C11.3938 39.3449 11.3399 39.2838 11.2836 39.2204C11.0191 38.9207 10.941 38.532 11.0362 38.1465C11.0657 38.0308 11.1003 37.9173 11.1346 37.8042C11.1811 37.645 11.2256 37.4896 11.2473 37.3268C11.2566 37.2542 11.262 37.1793 11.2594 37.103C11.2594 37.0613 11.1463 37.0677 11.1358 37.1119C11.12 37.1828 11.1018 37.2552 11.0823 37.3268C11.0362 37.4945 10.9791 37.6574 10.8963 37.8042C10.8279 37.9252 10.7414 38.0388 10.6269 38.1364C10.4086 38.3251 10.0926 38.4129 9.82536 38.2677C9.39545 38.0353 9.47218 37.5071 9.77494 37.3268C9.80263 37.3102 9.83315 37.3008 9.8689 37.298C9.86746 37.3086 9.86746 37.3172 9.86746 37.3268C9.86533 37.4469 9.88357 37.574 9.996 37.645C10.1295 37.7311 10.3218 37.7213 10.447 37.6098C10.5204 37.5432 10.5843 37.4298 10.6247 37.3268C10.6633 37.2301 10.6839 37.1428 10.6752 37.1056C10.6657 37.0508 10.4697 37.1006 10.3783 37.037C10.3158 36.9918 10.2908 36.9204 10.3023 36.8501C10.3078 36.8227 10.3184 36.7954 10.3353 36.7708C10.424 36.6324 10.6557 36.7277 10.6752 36.6528C10.6851 36.6219 10.6633 36.5044 10.6016 36.3726C10.5168 36.1927 10.357 35.9907 10.0888 35.9565C9.9539 35.9395 9.82536 35.968 9.71741 36.0539C9.61064 36.138 9.55382 36.2426 9.55029 36.3726C9.54789 36.4224 9.55382 36.4758 9.56614 36.5327C9.48562 36.5825 9.1945 36.5053 9.00865 36.3672C9.01553 36.3735 9.00224 36.3627 9.00865 36.3672C8.85833 36.2463 8.73097 36.0766 8.67419 35.8956C8.65781 35.8423 8.64527 35.7863 8.63962 35.7294C8.59133 35.3122 8.80274 34.8939 9.18879 34.7169C9.39758 34.6216 9.62009 34.5778 9.8554 34.6216C10.1054 34.6679 10.309 34.7857 10.4903 34.9533C10.7566 35.1992 10.8846 35.5276 11.013 35.8556C11.0177 35.8683 11.0224 35.8816 11.0283 35.8956C11.0823 36.0481 11.114 36.2187 11.1346 36.3726C11.1486 36.4758 11.1585 36.5723 11.1669 36.6504C11.1704 36.6837 11.2783 36.6743 11.2795 36.6383C11.2807 36.5495 11.276 36.4603 11.2665 36.3726C11.2483 36.2108 11.2137 36.0516 11.168 35.8956C11.0589 35.5236 10.8882 35.1661 10.7367 34.8058C10.6371 34.5729 10.5729 34.3266 10.5753 34.0737C10.5788 33.8481 10.6645 33.6441 10.7725 33.4458C10.9133 33.1869 11.1585 33.0408 11.3446 32.8118C11.5108 32.6046 11.5776 32.3647 11.6358 32.105C11.6391 32.0903 11.6609 32.0781 11.6715 32.0781C11.6831 32.0781 11.7049 32.0903 11.7073 32.105C11.7653 32.3647 11.8322 32.6046 11.9985 32.8118C12.1849 33.0408 12.4298 33.1869 12.5704 33.4458C12.6795 33.6441 12.7652 33.8481 12.7675 34.0737C12.7699 34.3266 12.706 34.5729 12.6073 34.8058C12.4548 35.1661 12.2841 35.5236 12.1748 35.8956C12.1291 36.0516 12.0957 36.2108 12.0763 36.3726C12.068 36.4603 12.0623 36.5495 12.0636 36.6383C12.0645 36.6743 12.1727 36.6837 12.176 36.6504C12.1849 36.5723 12.1954 36.4758 12.2084 36.3726C12.229 36.2187 12.2619 36.0481 12.3159 35.8956C12.3204 35.8816 12.3251 35.8683 12.331 35.8556C12.4584 35.5276 12.5874 35.1992 12.8525 34.9533C13.0338 34.7857 13.2377 34.6679 13.4877 34.6216C13.723 34.5778 13.9452 34.6216 14.1543 34.7169C14.5401 34.8939 14.7515 35.3122 14.7046 35.7294C14.6975 35.7863 14.6864 35.8423 14.6701 35.8956C14.6118 36.0766 14.4845 36.2463 14.3344 36.3672C14.342 36.3627 14.3273 36.3735 14.3344 36.3672C14.1495 36.5053 13.8572 36.5825 13.7769 36.5327C13.7904 36.4758 13.7961 36.4224 13.7939 36.3726C13.7904 36.2426 13.7336 36.138 13.6254 36.0539C13.5175 35.968 13.3903 35.9395 13.2552 35.9565C12.9877 35.9907 12.8253 36.1927 12.7413 36.3726C12.6795 36.5044 12.6579 36.6219 12.6679 36.6528C12.6882 36.7277 12.9191 36.6324 13.0088 36.7708C13.0246 36.7954 13.035 36.8227 13.0417 36.8501C13.0521 36.9204 13.027 36.9918 12.9647 37.037C12.8731 37.1006 12.6773 37.0508 12.6679 37.1056C12.6608 37.1428 12.6795 37.2301 12.7183 37.3268C12.7607 37.4298 12.8227 37.5432 12.8961 37.6098C13.0223 37.7213 13.2135 37.7311 13.3468 37.645C13.4595 37.574 13.4777 37.4469 13.4753 37.3268C13.4753 37.3172 13.4753 37.3086 13.4742 37.298C13.5099 37.3008 13.5416 37.3102 13.5679 37.3268C13.8707 37.5071 13.9488 38.0353 13.5175 38.2677C13.2505 38.4129 12.9342 38.3251 12.7174 38.1364C12.6028 38.0388 12.5155 37.9252 12.4466 37.8042C12.3627 37.6574 12.3069 37.4945 12.2619 37.3268C12.2425 37.2552 12.2243 37.1828 12.2072 37.1119C12.198 37.0677 12.0834 37.0613 12.0834 37.103C12.0822 37.1793 12.0875 37.2542 12.0957 37.3268C12.1175 37.4896 12.162 37.645 12.2084 37.8042C12.2425 37.9173 12.2782 38.0308 12.3069 38.1465C12.4021 38.532 12.3239 38.9207 12.06 39.2204C12.0029 39.2838 11.9489 39.3449 11.8891 39.4053C11.7989 39.495 11.7596 39.5756 11.7049 39.7012C11.7014 39.7113 11.6831 39.7502 11.6715 39.7502Z" fill="#F58427"></path>
<path d="M64.6146 39.7502C64.6023 39.7502 64.5863 39.7113 64.5804 39.7012C64.5265 39.5756 64.4871 39.495 64.3969 39.4053C64.3371 39.3449 64.2822 39.2838 64.2261 39.2204C63.9609 38.9207 63.8825 38.532 63.9785 38.1465C64.009 38.0308 64.0426 37.9173 64.0773 37.8042C64.1242 37.645 64.1685 37.4896 64.1888 37.3268C64.1989 37.2542 64.2032 37.1793 64.2021 37.103C64.2021 37.0613 64.0879 37.0677 64.0783 37.1119C64.0618 37.1828 64.0452 37.2552 64.0244 37.3268C63.9785 37.4945 63.922 37.6574 63.8393 37.8042C63.771 37.9252 63.6824 38.0388 63.5703 38.1364C63.35 38.3251 63.0341 38.4129 62.7684 38.2677C62.3372 38.0353 62.4151 37.5071 62.7182 37.3268C62.7444 37.3102 62.7753 37.3008 62.8121 37.298C62.8111 37.3086 62.8111 37.3172 62.8111 37.3268C62.8084 37.4469 62.826 37.574 62.938 37.645C63.072 37.7311 63.2641 37.7213 63.3884 37.6098C63.4636 37.5432 63.5255 37.4298 63.5666 37.3268C63.605 37.2301 63.6253 37.1428 63.6184 37.1056C63.6072 37.0508 63.4129 37.1006 63.3212 37.037C63.2582 36.9918 63.2321 36.9204 63.2443 36.8501C63.2502 36.8227 63.2614 36.7954 63.2763 36.7708C63.3671 36.6324 63.5981 36.7277 63.6184 36.6528C63.6264 36.6219 63.6061 36.5044 63.5447 36.3726C63.4599 36.1927 63.2972 35.9907 63.0298 35.9565C62.8959 35.9395 62.7673 35.968 62.6606 36.0539C62.5517 36.138 62.4962 36.2426 62.492 36.3726C62.4898 36.4224 62.4962 36.4758 62.508 36.5327C62.4279 36.5825 62.1371 36.5053 61.9509 36.3672C61.9573 36.3735 61.944 36.3627 61.9509 36.3672C61.801 36.2463 61.6734 36.0766 61.6163 35.8956C61.6003 35.8423 61.5891 35.7863 61.5817 35.7294C61.5347 35.3122 61.746 34.8939 62.1323 34.7169C62.3399 34.6216 62.5619 34.5778 62.7982 34.6216C63.0474 34.6679 63.2502 34.7857 63.4316 34.9533C63.6989 35.1992 63.8259 35.5276 63.9545 35.8556C63.9599 35.8683 63.9657 35.8816 63.9705 35.8956C64.0244 36.0481 64.0554 36.2187 64.0773 36.3726C64.0906 36.4758 64.1002 36.5723 64.1082 36.6504C64.1125 36.6837 64.2213 36.6743 64.2213 36.6383C64.2224 36.5495 64.2181 36.4603 64.208 36.3726C64.1904 36.2108 64.1562 36.0516 64.1114 35.8956C63.9999 35.5236 63.8302 35.1661 63.6797 34.8058C63.5805 34.5729 63.5165 34.3266 63.517 34.0737C63.5207 33.8481 63.6061 33.6441 63.7155 33.4458C63.8558 33.1869 64.1007 33.0408 64.2864 32.8118C64.4529 32.6046 64.5196 32.3647 64.5772 32.105C64.5804 32.0903 64.6023 32.0781 64.6146 32.0781C64.6253 32.0781 64.6471 32.0903 64.6503 32.105C64.7074 32.3647 64.7747 32.6046 64.9417 32.8118C65.1263 33.0408 65.3712 33.1869 65.5137 33.4458C65.6215 33.6441 65.7079 33.8481 65.709 34.0737C65.7132 34.3266 65.6481 34.5729 65.5494 34.8058C65.3979 35.1661 65.2277 35.5236 65.1183 35.8956C65.0724 36.0516 65.0377 36.2108 65.0196 36.3726C65.0094 36.4603 65.0052 36.5495 65.0057 36.6383C65.0057 36.6743 65.1146 36.6837 65.1194 36.6504C65.1274 36.5723 65.1375 36.4758 65.1503 36.3726C65.1733 36.2187 65.2031 36.0481 65.2581 35.8956C65.2624 35.8816 65.2672 35.8683 65.273 35.8556C65.4016 35.5276 65.5302 35.1992 65.796 34.9533C65.9774 34.7857 66.1801 34.6679 66.4288 34.6216C66.6662 34.5778 66.8882 34.6216 67.0958 34.7169C67.4832 34.8939 67.6945 35.3122 67.6464 35.7294C67.6406 35.7863 67.6283 35.8423 67.6112 35.8956C67.5552 36.0766 67.4266 36.2463 67.2761 36.3672C67.2836 36.3627 67.2708 36.3735 67.2761 36.3672C67.0915 36.5053 66.7991 36.5825 66.7196 36.5327C66.7319 36.4758 66.7383 36.4224 66.7367 36.3726C66.7319 36.2426 66.6753 36.138 66.5675 36.0539C66.4603 35.968 66.3317 35.9395 66.1961 35.9565C65.9299 35.9907 65.7671 36.1927 65.6828 36.3726C65.6225 36.5044 65.6001 36.6219 65.6087 36.6528C65.6295 36.7277 65.8605 36.6324 65.9507 36.7708C65.9672 36.7954 65.9784 36.8227 65.9827 36.8501C65.995 36.9204 65.9688 36.9918 65.9064 37.037C65.8152 37.1006 65.6193 37.0508 65.6087 37.1056C65.6023 37.1428 65.6225 37.2301 65.6615 37.3268C65.702 37.4298 65.7645 37.5432 65.8392 37.6098C65.964 37.7213 66.1551 37.7311 66.2901 37.645C66.401 37.574 66.4197 37.4469 66.4171 37.3268V37.298C66.4523 37.3008 66.4827 37.3102 66.5104 37.3268C66.8119 37.5071 66.8909 38.0353 66.4592 38.2677C66.1924 38.4129 65.8776 38.3251 65.6583 38.1364C65.5446 38.0388 65.4577 37.9252 65.3883 37.8042C65.3061 37.6574 65.249 37.4945 65.2031 37.3268C65.1834 37.2552 65.1674 37.1828 65.1487 37.1119C65.1407 37.0677 65.0265 37.0613 65.0255 37.103C65.0244 37.1793 65.0286 37.2542 65.0393 37.3268C65.0607 37.4896 65.1044 37.645 65.1514 37.8042C65.185 37.9173 65.2202 38.0308 65.249 38.1465C65.3461 38.532 65.2672 38.9207 65.0025 39.2204C64.9465 39.2838 64.8921 39.3449 64.8307 39.4053C64.7421 39.495 64.7021 39.5756 64.6471 39.7012C64.6434 39.7113 64.6269 39.7502 64.6146 39.7502Z" fill="#F58427"></path>
<path d="M56.4692 70.4426C56.4692 73.4973 54.8539 76.0947 52.6016 77.0414L52.604 77.0707V81.9425H48.8578V77.0845L48.8504 77.0515C46.5901 76.1102 44.9639 73.5075 44.9639 70.4426V68.9128H48.7802H48.8135V71.6856C48.8135 72.9467 49.6544 73.968 50.693 73.968C51.7313 73.968 52.5737 72.9467 52.5737 71.6856V68.8984H56.4692V70.4426Z" fill="#F58427"></path>
</g>
<mask id="mask2_356_16055" style="mask-type:luminance" maskUnits="userSpaceOnUse" x="0" y="0" width="76" height="84">
<path d="M0.533203 83.6402H75.3363V0.539062H0.533203V83.6402Z" fill="white"></path>
</mask>
<g mask="url(#mask2_356_16055)">
<path d="M17.1859 77.9537C18.407 77.9537 19.3852 76.8194 19.3852 75.4378C19.3923 74.0498 18.3926 72.9342 17.1799 72.9326C15.9553 72.9342 14.9794 74.068 14.9807 75.4501C14.983 76.8365 15.9693 77.9558 17.1859 77.9537ZM12.6426 74.5866C12.6355 71.0654 14.9807 68.2021 17.8708 68.1914C20.7604 68.1877 23.1172 71.0377 23.131 74.561C23.1385 78.0768 20.7983 80.9396 17.9037 80.945C15.0069 80.9572 12.6502 78.1018 12.6426 74.5866Z" fill="#F58427"></path>
<path d="M66.4551 79.1926C67.1472 79.7507 68.6643 80.8492 70.1687 81.0976C72.2237 81.426 74.9639 80.37 75.2686 78.5109C76.0072 74.065 70.5315 74.3395 70.9382 71.9201C70.9382 71.9201 71.0945 70.6366 72.5839 70.8839C73.76 71.0683 75.315 72.3129 75.315 72.3129L75.3295 69.1585C74.9073 68.9171 74.1373 68.5973 72.8176 68.3808C70.4488 68.0008 67.2315 68.577 66.843 70.9527C66.2923 74.2894 70.9451 74.4072 70.6062 76.4545C70.6062 76.4545 70.4211 77.7007 68.8223 77.4416C67.7582 77.2695 66.4807 76.3484 66.4807 76.3484L66.4551 79.1926Z" fill="#F58427"></path>
</g>
<mask id="mask3_356_16055" style="mask-type:luminance" maskUnits="userSpaceOnUse" x="-15" y="-8" width="123" height="100">
<path d="M-14.2764 91.5058H107.649V-7.50781H-14.2764V91.5058Z" fill="white"></path>
</mask>
<g mask="url(#mask3_356_16055)">
<path d="M5.48039 75.7228C5.48039 75.7228 7.8587 75.8784 7.86697 74.3822C7.8729 72.6691 5.49789 72.8509 5.49789 72.8509L5.47633 72.8525V75.7185L5.48039 75.7228ZM5.42094 78.3767V81.9165H1.72567V72.8248H0.533203V69.0195L0.868428 69.0217L2.01165 69.0206C5.45648 69.0387 12.1345 69.2876 12.1139 74.4318C12.0916 78.5504 5.46924 78.365 5.46924 78.365L5.42094 78.3767Z" fill="#F58427"></path>
<path d="M28.3632 75.7228C28.3632 75.7228 30.7418 75.8784 30.7498 74.3822C30.7564 72.6691 28.3815 72.8509 28.3815 72.8509L28.3611 72.8525V75.7185L28.3632 75.7228ZM28.3047 78.3767V81.9165H24.6076V72.8248H23.418V69.0195L23.7529 69.0217L24.895 69.0206C28.3393 69.0387 35.0181 69.2876 34.9975 74.4318C34.9759 78.5504 28.3528 78.365 28.3528 78.365L28.3047 78.3767Z" fill="#F58427"></path>
<path d="M44.9097 80.9961C43.9294 82.4107 42.1882 83.6399 40.5476 83.6399C37.5956 83.6399 35.2031 80.7307 35.2031 77.1429C35.2031 73.5546 37.5982 70.5196 40.5476 70.6443C44.4691 70.8122 45.7284 73.5514 45.5084 78.0682L38.6209 78.0757C38.6209 78.0757 38.8205 82.3745 43.9646 79.5943L44.9097 80.9961ZM43.146 75.6744C43.146 75.6744 42.8574 73.496 40.7996 73.5376C39.0826 73.5706 38.7964 75.6792 38.7964 75.6792L43.146 75.6744Z" fill="#F58427"></path>
<path d="M65.331 80.9961C64.3501 82.4107 62.6084 83.6399 60.9685 83.6399C58.0169 83.6399 55.623 80.7307 55.623 77.1429C55.623 73.5546 58.0191 70.5196 60.9685 70.6443C64.8896 70.8122 66.1496 73.5514 65.9297 78.0682L59.0415 78.0757C59.0415 78.0757 59.2427 82.3745 64.3859 79.5943L65.331 80.9961ZM63.5678 75.6744C63.5678 75.6744 63.2797 73.496 61.2204 73.5376C59.5031 73.5706 59.2171 75.6792 59.2171 75.6792L63.5678 75.6744Z" fill="#F58427"></path>
<path d="M74.547 82.4111C74.1495 82.4111 73.8281 82.0929 73.8281 81.6997C73.8281 81.3064 74.1495 80.9883 74.547 80.9883C74.944 80.9883 75.2653 81.3064 75.2653 81.6997C75.2653 82.0929 74.944 82.4111 74.547 82.4111ZM74.547 81.0831C74.2022 81.0831 73.924 81.3586 73.924 81.6997C73.924 82.0396 74.2022 82.3146 74.547 82.3146C74.8907 82.3146 75.1694 82.0396 75.1694 81.6997C75.1694 81.3586 74.8907 81.0831 74.547 81.0831ZM74.7361 82.1063L74.5305 81.7695H74.4074V82.1063H74.2752V81.3187H74.5779C74.7772 81.3187 74.8667 81.3906 74.8667 81.5473C74.8667 81.6746 74.8049 81.7391 74.6594 81.7594L74.8827 82.1063H74.7361ZM74.5646 81.4284H74.4074V81.6597H74.5523C74.6882 81.6597 74.7377 81.6277 74.7377 81.5377C74.7377 81.4631 74.6871 81.4284 74.5646 81.4284Z" fill="#F58427"></path>
<path d="M53.7221 63.935C53.3246 63.935 53.0039 63.6174 53.0039 63.2226C53.0039 62.8298 53.3246 62.5117 53.7221 62.5117C54.1196 62.5117 54.4415 62.8298 54.4415 63.2226C54.4415 63.6174 54.1196 63.935 53.7221 63.935ZM53.7221 62.6066C53.3779 62.6066 53.0981 62.8837 53.0981 63.2226C53.0981 63.5631 53.3779 63.8418 53.7221 63.8418C54.0658 63.8418 54.3451 63.5631 54.3451 63.2226C54.3451 62.8837 54.0658 62.6066 53.7221 62.6066ZM53.9108 63.6297L53.7061 63.2929H53.5836V63.6297H53.4498V62.8432H53.752C53.9523 62.8432 54.0429 62.914 54.0429 63.0723C54.0429 63.1997 53.9806 63.2636 53.8356 63.2839L54.0589 63.6297H53.9108ZM53.7392 62.9524H53.5836V63.1831H53.7285C53.8633 63.1831 53.9129 63.1522 53.9129 63.0627C53.9129 62.987 53.8617 62.9524 53.7392 62.9524Z" fill="#C41230"></path>
</g>
</g>
</svg>