<svg width="104" height="65" viewBox="0 0 104 65" fill="none" xmlns="http://www.w3.org/2000/svg">
<mask id="mask0_356_16181" style="mask-type:luminance" maskUnits="userSpaceOnUse" x="0" y="0" width="104" height="65">
<path d="M103.297 0H0V64.5188H103.297V0Z" fill="white"></path>
</mask>
<g mask="url(#mask0_356_16181)">
<mask id="mask1_356_16181" style="mask-type:luminance" maskUnits="userSpaceOnUse" x="0" y="0" width="104" height="65">
<path d="M0 0H103.297V64.5187H0V0Z" fill="white"></path>
</mask>
<g mask="url(#mask1_356_16181)">
<path d="M4.30414 11.3085L0 15.7308L3.44302 57.0013L7.62428 60.4408L19.1836 59.7038L33.0796 52.9481C33.0796 52.9481 35.6619 55.1592 36.7687 57.0013C37.8757 58.8438 40.7038 63.1429 44.6388 63.757C48.5738 64.3712 60.2565 64.7399 62.716 64.3712C65.1755 64.003 70.7089 61.5463 73.0455 57.2473C75.3822 52.9481 74.6444 48.8949 74.6444 48.8949C74.6444 48.8949 76.4886 49.0176 77.5955 48.2807L77.8417 49.8772L91.3685 54.1764L103.297 52.7025L98.6232 0.00852461L82.1454 7.13255L80.4236 9.83466L78.8252 8.48362L71.0781 12.0459C71.0781 12.0459 68.6185 2.46519 63.9458 1.85102C59.273 1.23686 57.797 4.43042 57.5512 4.79863C57.1822 4.92137 56.3215 -0.237427 51.7711 0.00852461C47.2212 0.254001 44.6388 4.06173 44.6388 9.95788C43.6553 8.97505 42.7942 8.60637 42.7942 8.60637L41.0729 10.0802C41.0729 10.0802 38.6134 5.78149 36.1539 6.02697C33.6944 6.27244 32.2189 7.62398 30.8662 9.22049C29.5132 10.8176 26.8078 15.1167 27.2998 16.7133C25.9473 15.8531 20.6591 16.4673 20.5362 21.7493C18.323 20.0296 4.30414 11.3085 4.30414 11.3085Z" fill="#B30538"></path>
</g>
<path d="M4.50864 13.2305C4.2624 13.3123 1.55713 16.0963 1.55713 16.0963L4.83679 56.3029L8.27982 58.8414L15.6583 55.566L19.0195 52.1269L18.1178 41.3175L12.3787 42.6276L13.035 50.8164L10.5755 52.0446L8.11598 21.5828L10.6574 23.1385L11.3133 31.9827L16.97 30.5902L16.3961 20.5181" fill="white"></path>
<path d="M25.0044 35.8344L24.6763 29.775L27.2177 30.8393L27.4635 34.7698L25.0044 35.8344ZM34.1043 39.3558L31.399 36.8991L33.6122 34.7698L33.2841 29.12C33.2841 29.12 30.9885 28.0553 29.5948 25.1072C28.857 25.6804 27.382 27.2366 25.496 27.2366C23.6104 27.2366 21.6429 25.9264 21.1509 23.5516C20.0855 22.8965 17.9536 21.75 17.9536 21.75L20.5775 52.7032L26.3161 50.2466L25.6598 40.6659L28.1194 39.6017L28.857 48.8546L34.3505 46.4798" fill="white"></path>
<path d="M37.0555 15.6847C37.0555 15.6847 39.4331 19.7793 39.2693 24.3649C39.1055 28.9504 36.2359 29.7687 34.5142 29.5237C34.5966 31.0798 35.5801 41.6428 35.5801 41.6428L39.1055 44.345C39.1055 44.345 39.4331 42.3802 40.9087 41.7251C42.3846 41.0696 44.8437 40.8242 46.5654 40.5782C48.2053 39.2685 49.5989 37.3033 49.5989 37.3033L48.943 26.4119C48.943 26.4119 46.3197 21.9901 45.0899 17.2409C44.516 14.0473 44.516 11.6724 44.516 11.6724L42.9586 9.95312L41.5645 11.3451L43.6139 35.7471L41.3187 37.0573L39.2693 13.0644" fill="white"></path>
<path d="M50.3367 27.4811C50.091 27.3974 51.2384 38.4543 51.2384 38.4543C51.2384 38.4543 53.6974 37.3895 54.3538 36.8163C54.6814 36.6527 56.6489 36.8976 56.6489 36.8976L55.501 28.3003L59.6005 37.3891C59.6005 37.3891 67.0604 41.1559 68.7002 41.1559C68.5364 39.5185 67.1428 22.8132 67.1428 22.8132C67.1428 22.8132 65.5853 26.6619 62.2238 26.4982C62.3057 27.4811 62.7977 31.8212 62.7977 31.8212L60.2562 26.0068C60.2562 26.0068 58.6988 25.7618 57.2229 22.1586C57.059 21.749 56.8951 22.1586 56.8951 22.1586C56.8951 22.1586 56.5675 29.61 50.3367 27.4811Z" fill="white"></path>
<path d="M78.9478 10.2852L71.0778 13.0692C71.0778 13.0692 68.8645 15.444 67.9624 16.099C68.2906 20.1119 70.0123 40.092 70.0123 40.092C70.0123 40.092 72.2256 41.8112 72.6356 42.3844C73.8654 42.7946 81.9817 45.0871 81.9817 45.0871L84.9327 41.8935L83.8668 31.0027L78.1281 32.477L78.5382 39.8465L76.0787 38.9454L74.1931 16.5905L76.4064 15.5258L77.0627 22.814L82.8833 21.5856L82.2275 12.8237" fill="white"></path>
<path d="M83.4575 8.15337L89.4419 5.61488L91.1636 25.595L93.377 25.2677L91.7374 4.71385L97.3942 2.01172L101.494 51.0622L95.4263 49.1787L93.7867 30.9997H91.6551L92.7213 48.3595L86.5723 46.3943" fill="white"></path>
<path d="M47.7743 57.1842C47.7129 56.9387 47.5285 50.1829 47.5285 50.1829C47.5285 50.1829 42.8557 49.7528 41.6874 48.8932C40.5191 48.0335 40.5191 47.4803 40.15 47.6035C40.0271 47.7876 40.8263 49.0773 40.2114 49.63C39.5971 50.1829 36.0307 51.5339 35.9078 51.7795C35.7844 52.0253 37.691 55.0348 38.9203 57.3069C40.15 59.5795 41.4412 61.2374 43.0401 61.4219C44.6385 61.6061 47.7743 61.3601 48.2663 61.2987C48.7583 61.2374 48.1434 59.3949 48.0205 58.9653C47.8977 58.5352 47.8357 57.4296 47.7743 57.1842ZM43.8392 46.8052C44.3927 46.8052 45.9297 45.6382 46.4217 45.1468C46.9136 44.6554 46.7294 43.3043 46.6679 42.1987C46.6679 42.1987 47.6514 42.4447 47.7129 44.2258C47.7743 46.0065 44.577 47.1735 43.8392 46.8052ZM69.5408 43.5498C69.5408 43.5498 68.1881 42.6288 67.6957 42.3829C67.2042 42.1373 61.5473 39.1893 59.6412 38.1455C57.7352 37.1013 55.2757 37.7155 54.6608 37.7769C54.0459 37.8383 50.48 39.8653 47.7743 40.6636C45.069 41.4618 44.6999 41.4618 43.3473 41.6459C41.9946 41.8305 39.9042 42.3219 39.9657 44.4713C40.0114 46.0683 41.1955 48.8318 47.5285 48.4631C53.8616 48.0944 55.2143 47.2348 55.4605 46.1292C55.7058 45.024 55.8291 43.6726 55.952 43.4271C56.0754 43.1816 56.936 45.0854 56.3826 46.1906C56.5669 46.7433 57.1818 46.5593 57.3661 46.0065C57.3661 46.682 57.4275 46.9893 57.1204 47.2348C56.8131 47.4803 61.6088 48.7704 60.6253 51.288C60.2561 51.4726 60.0104 50.9811 59.7027 50.6739C59.3955 50.367 57.7967 49.6914 56.7512 49.6914C55.7058 49.6914 54.2922 50.8584 54.2922 53.3764C54.2922 55.8945 57.7352 57.5524 58.7806 57.7984C58.8421 57.0615 58.7806 56.2627 59.5184 55.5871C60.2561 54.9116 60.6867 54.8503 60.871 55.0348C61.0554 55.2189 61.7317 56.0785 62.5308 56.3241C63.3305 56.57 64.9289 57.0001 66.7121 55.6485C68.4953 54.2974 69.7865 50.367 69.8479 47.3575C69.9094 44.348 69.5408 43.5498 69.5408 43.5498ZM49.4346 50.2442C48.8812 50.5511 49.4961 54.7889 50.111 56.6314C50.7258 58.4738 51.2178 59.088 51.525 59.2721C51.8327 59.4563 51.7708 59.2108 51.8327 59.0266C51.8941 58.8426 51.5869 56.0785 51.0949 54.052C50.6029 52.0253 50.3571 49.9983 49.4346 50.2442ZM54.5174 5.20657L53.8616 5.45205C53.8616 5.45205 54.6813 6.02531 54.3537 6.51673L54.0255 7.00816C54.0255 7.00816 53.9435 8.64609 54.1074 9.38297C54.2717 9.54665 54.2717 8.97339 54.6818 7.90872C55.0914 6.84451 55.0914 6.68085 55.3372 6.35308C55.5829 6.02531 55.0094 4.38785 54.4355 3.89642C53.845 3.39119 55.1737 4.9611 54.5174 5.20657ZM69.6022 11.3482C69.2745 10.9387 68.6182 11.0204 68.6182 10.6113C68.6182 10.2017 68.7821 8.15467 67.8804 7.08998C67.4442 6.57477 68.2081 8.56426 67.8804 9.38297C67.5527 10.2017 67.3889 10.5295 67.2246 10.8568C67.0608 11.1841 67.1427 11.6755 67.1427 11.6755C67.1427 11.6755 68.7001 11.9215 69.6022 11.3482ZM64.8471 11.1023C65.0932 11.4301 65.0932 11.4301 65.0113 12.0033L64.9289 12.5766C64.9289 12.5766 65.8306 11.9215 66.1587 10.4472C66.4869 8.97339 66.4869 6.68085 66.0767 5.86165C65.7905 5.28983 65.5852 6.35308 65.5852 6.76221C65.5852 7.1718 65.831 9.62803 65.0932 10.4472C64.3555 11.2664 64.6012 10.775 64.8471 11.1023ZM63.4534 18.7996C62.3061 18.0626 59.436 17.5712 58.2887 19.5369C58.2887 19.5369 60.5843 15.3605 63.4534 18.7996ZM57.1408 16.0974C57.2228 16.8343 57.3866 20.683 58.2887 22.2391C59.1907 23.7948 59.9285 24.532 61.6497 24.532C63.3715 24.532 65.831 22.8937 65.5028 19.5369C65.1752 16.1793 64.6836 15.9338 64.2736 15.7701C63.8635 15.6059 63.2896 15.8519 63.2896 15.8519C63.2896 15.8519 63.6173 14.7873 63.4534 13.8862C63.2896 12.9857 62.8795 11.4301 62.8795 10.3653C62.3061 9.87392 60.7482 10.4472 59.3546 9.87392C57.9605 9.30113 57.2228 6.92633 57.2228 6.92633C57.2228 6.92633 55.9111 9.71033 56.1568 12.0852C56.4031 14.46 57.0594 15.3605 57.1408 16.0974ZM51.3202 19.1274C53.2877 19.1274 54.517 20.8471 54.8452 22.1572C54.1074 21.1744 50.992 18.0632 48.4511 22.3209C48.2411 22.6729 49.3527 19.1274 51.3202 19.1274ZM49.7627 25.9241C51.4021 27.2342 55.3376 26.5792 55.6653 22.8123C55.9935 19.0455 54.5174 16.5889 52.3042 16.9984C53.1239 16.0156 53.7792 15.8519 54.1074 16.0974C54.0255 15.1145 53.8616 14.3782 53.452 13.4771C53.042 12.5766 52.8781 10.2836 52.8781 10.0381C52.8781 9.79208 49.5985 11.1027 47.6309 7.82688C47.2209 7.49959 46.4836 7.90872 46.5655 9.21883C46.2373 8.56426 46.0735 6.68085 45.9092 6.35308C45.9092 6.35308 44.5156 12.0846 45.6634 16.0974C46.8112 20.1102 48.1229 24.6134 49.7627 25.9241ZM31.2346 24.2862C31.1669 24.5225 31.235 21.3381 32.7924 20.7648C34.3504 20.1916 36.0717 21.0107 36.5636 22.4027C35.6615 21.7476 32.5462 19.7006 31.2346 24.2862ZM29.1908 17.1155C29.5085 16.674 30.7273 15.2216 32.9563 15.3605C31.958 15.5903 29.738 16.4671 29.1908 17.1155ZM29.1032 17.2439C29.1032 17.2439 29.1313 17.1987 29.1822 17.1274C29.1499 17.1673 29.1222 17.2063 29.1032 17.2439ZM31.3169 14.7873C30.1691 14.7054 28.9394 15.8519 28.9394 15.8519C29.4313 14.7873 30.825 14.6236 31.3169 14.7873ZM37.7934 20.1916C35.9897 16.4252 35.9897 16.0156 35.5796 15.5242C35.17 15.0332 35.8254 15.1964 35.9078 14.8691C35.9897 14.5418 36.1535 12.822 36.1535 12.3306C36.1535 11.8396 36.0721 11.1841 35.7439 11.4301C35.4158 11.6755 36.236 10.6931 36.236 10.2836C35.8254 11.1023 35.4158 11.3478 35.0057 11.4301C35.4158 10.6927 35.7439 9.38297 35.5796 8.89157C35.5796 8.89157 34.5142 10.6927 33.6121 11.1841C32.7105 11.6755 29.0213 11.6755 27.8735 14.2959C26.7256 16.9166 29.1032 22.4027 30.2511 24.6139C31.3989 26.8246 32.6281 28.6262 35.0881 27.4797C37.5476 26.3336 39.5971 23.9583 37.7934 20.1916ZM35.8254 7.49959C36.1535 6.92585 37.0552 7.00816 37.4657 6.92633C36.4817 6.10713 35.4158 7.49959 35.4158 7.49959C35.4158 7.49959 35.6615 7.74506 35.8254 7.49959ZM24.0203 20.5193C24.9224 19.8642 25.1681 19.3728 25.824 19.291C25.0044 19.2091 23.0364 20.2739 22.5448 21.4204C22.5448 21.5017 21.9709 21.5017 22.0529 21.0107C22.1347 20.5193 21.8885 19.3733 21.8885 19.3733C21.8885 19.3733 20.9869 21.3385 21.3151 22.5669C21.6427 23.7947 22.6268 25.9241 25.0857 25.4327C27.5457 24.9412 27.7096 22.8123 27.3819 21.3385C27.0537 19.8642 25.0044 19.8642 24.0203 20.5193Z" fill="#F67F28"></path>
</g>
</svg>