<svg width="76" height="76" viewBox="0 0 76 76" fill="none" xmlns="http://www.w3.org/2000/svg">
<mask id="mask0_356_15825" style="mask-type:luminance" maskUnits="userSpaceOnUse" x="0" y="0" width="76" height="76">
<path d="M75.5872 0H0V75.4989H75.5872V0Z" fill="white"></path>
</mask>
<g mask="url(#mask0_356_15825)">
<path d="M75.5872 37.7495C75.5872 58.5977 58.6665 75.4989 37.794 75.4989C16.9208 75.4989 0 58.5977 0 37.7495C0 16.9012 16.9208 0 37.794 0C58.6665 0 75.5872 16.9012 75.5872 37.7495Z" fill="white"></path>
<path d="M73.4637 37.7489C73.4637 57.4265 57.4939 73.3787 37.7927 73.3787C18.0923 73.3787 2.12158 57.4265 2.12158 37.7489C2.12158 18.0713 18.0923 2.11914 37.7927 2.11914C57.4939 2.11914 73.4637 18.0713 73.4637 37.7489Z" fill="black"></path>
<path d="M64.5342 72.1886C63.5606 72.1886 62.8384 71.4411 62.8384 70.4947C62.8384 69.5566 63.5606 68.8008 64.5342 68.8008C65.5087 68.8008 66.2309 69.5566 66.2309 70.4947C66.2309 71.4411 65.5087 72.1886 64.5342 72.1886ZM64.5342 69.062C63.7044 69.062 63.1175 69.6927 63.1175 70.4947C63.1175 71.2875 63.7044 71.9274 64.5342 71.9274C65.3733 71.9274 65.9417 71.2875 65.9417 70.4947C65.9417 69.6927 65.3733 69.062 64.5342 69.062ZM65.048 71.3412C64.8865 71.3412 64.7957 71.2329 64.7957 71.0708V70.9003C64.7957 70.792 64.7327 70.6929 64.5889 70.6929H64.2913V71.3328H63.8305V69.6742H64.6873C65.0665 69.6742 65.2388 69.8816 65.2388 70.1428V70.1613C65.2388 70.3326 65.1749 70.4762 64.9588 70.5308C65.1934 70.5568 65.2388 70.7197 65.2388 70.9003V71.0532C65.2388 71.1254 65.2741 71.1791 65.3641 71.2152V71.3412H65.048ZM64.7781 70.1789C64.7781 70.0714 64.7058 70.0076 64.5704 70.0076H64.2913V70.4048H64.562C64.6974 70.4048 64.7781 70.3595 64.7781 70.2243V70.1789Z" fill="black"></path>
<path d="M40.0049 31.5025H42.9854V42.7409C42.9854 45.3729 42.2774 45.488 41.7596 45.5711C41.6721 45.5854 41.5695 45.5921 41.4534 45.5921C40.7094 45.5921 39.8139 45.3132 39.8055 45.3099L38.457 44.8824L38.4561 52.7784L39.0993 53.0412C39.2245 53.0924 42.2152 54.2992 45.0032 54.2992C48.0957 54.2992 49.7512 53.6895 51.5622 51.8798C53.7894 49.6551 54.0896 46.5276 54.0896 43.7621V23.1699H40.0049V31.5025Z" fill="white"></path>
<path d="M23.1264 31.5025H26.1069V42.7409C26.1069 45.3729 25.3982 45.488 24.8811 45.5711C24.7936 45.5854 24.6911 45.5921 24.575 45.5921C23.9528 45.5921 23.1575 45.383 22.927 45.3099L21.5776 44.8791V52.7784L22.2208 53.0404C22.3461 53.0924 25.3317 54.2992 28.1247 54.2992C31.2172 54.2992 32.8727 53.6895 34.6838 51.8798C36.911 49.6551 37.2112 46.5276 37.2112 43.7621V23.1699H23.1264V31.5025Z" fill="white"></path>
<path d="M48.6447 9.25172C46.6816 8.52954 45.1465 9.5321 44.5949 10.9933C44.0797 12.3604 44.6362 14.002 46.6001 14.7259C48.5573 15.4641 50.0302 14.5782 50.5615 13.2178C51.1257 11.7743 50.6027 9.99068 48.6447 9.25172ZM47.0474 13.5276C46.448 13.306 46.5387 12.7039 46.9036 11.7281C47.2676 10.7557 47.5972 10.2283 48.1975 10.45C48.7961 10.6751 48.7001 11.2889 48.3362 12.263C47.9713 13.2379 47.646 13.7526 47.0474 13.5276Z" fill="white"></path>
<path d="M61.6979 31.1712C62.0157 32.1697 62.8882 32.7088 63.8064 32.4031C64.3142 32.2334 64.679 31.8379 64.8336 31.55C65.1128 31.0344 65.2053 30.3634 65.2649 29.8294C65.3028 29.4951 65.3281 29.2314 65.3919 29.1013C65.4314 29.0198 65.5197 28.9451 65.6113 28.9149C65.8324 28.841 66.0267 28.956 66.1141 29.2154C66.2369 29.58 66.1293 29.8898 65.7854 30.187C65.7685 30.1996 65.7517 30.2123 65.7349 30.2249C65.8543 30.6178 65.9653 31.0142 66.0679 31.4123C66.5613 31.2476 67.0767 31.083 67.5702 30.9177C67.4684 30.5221 67.3457 30.1333 67.2171 29.7386L66.9094 29.841C66.8917 29.847 66.874 29.8529 66.8565 29.8587C66.864 29.841 66.8707 29.8234 66.8774 29.8066C67.0388 29.407 67.0455 28.9383 66.8875 28.4916C66.5369 27.5024 65.6197 27.0666 64.684 27.3789C64.2578 27.5208 63.9702 27.7863 63.7701 28.2196C63.5759 28.642 63.5532 29.1382 63.523 29.579C63.4994 29.9284 63.4735 30.2323 63.3684 30.4406C63.2993 30.5767 63.227 30.6447 63.111 30.6842C62.884 30.7597 62.6814 30.6296 62.5881 30.3542C62.4494 29.9427 62.5856 29.6035 63.011 29.2734C62.8673 28.8879 62.7294 28.5135 62.5965 28.123C62.0375 28.3094 61.4935 28.4891 60.9336 28.6755C61.0959 29.0593 61.2589 29.4296 61.4003 29.81C61.5112 29.7731 61.5372 29.7613 61.6482 29.7244C61.6651 29.7193 61.681 29.7135 61.6979 29.7075C61.6928 29.7244 61.6877 29.7403 61.6827 29.7571C61.5498 30.1996 61.5566 30.7279 61.6979 31.1712Z" fill="white"></path>
<path d="M64.0992 26.3536C64.6238 26.106 65.1753 25.8473 65.7001 25.5987C65.3931 24.9143 65.0769 24.2777 64.7532 23.6562C64.2858 23.8771 63.8418 24.0871 63.3735 24.3079C63.5055 24.5616 63.7427 25.0646 63.7511 25.0814C63.7334 25.0906 63.7166 25.099 63.6989 25.1074C63.3559 25.2704 63.2239 25.2359 63.0801 25.1881C62.8985 25.1284 62.7623 24.9495 62.5966 24.674C62.3588 24.7866 62.1208 24.8991 61.8828 25.0108C61.919 25.0872 61.9795 25.2057 62.0526 25.3426C62.5866 26.3469 63.2642 26.7476 64.0992 26.3536Z" fill="white"></path>
<path d="M46.446 63.3572C46.4232 63.2767 46.3996 63.1842 46.3761 63.1037C46.6662 63.0087 46.9546 62.9087 47.2413 62.8047C47.3674 63.2489 47.4952 63.7058 47.6221 64.1508C47.3254 64.26 47.026 64.3634 46.725 64.4607C46.5132 64.1466 46.2374 64.0359 45.9524 64.1207C45.5437 64.2407 45.4588 64.6379 45.6488 65.3065C45.8515 66.016 46.1348 66.2957 46.5602 66.1706C46.9251 66.0622 47.0597 65.7339 47.0017 65.141C47.3464 65.1519 47.6894 65.1569 48.0299 65.1553C48.0762 66.1714 47.5902 66.798 46.6157 67.0818C45.3049 67.4555 44.3465 66.7669 44.0303 65.6584C43.7209 64.5742 44.3036 63.6369 45.3192 63.3531C45.7245 63.2397 46.1247 63.233 46.446 63.3572Z" fill="white"></path>
<path d="M58.6414 54.8511C58.5816 54.7973 58.4908 54.7142 58.4312 54.6604C58.6186 54.4379 58.8011 54.2103 58.9785 53.9785C59.2543 54.2229 59.5603 54.4975 59.8353 54.7411C59.6578 54.972 59.4754 55.1996 59.2871 55.423C59.0231 55.3113 58.7717 55.3256 58.5783 55.5439C58.4598 55.6758 58.4547 55.816 58.5623 55.9109C58.733 56.0621 58.9037 55.9311 59.3183 55.7556C59.4182 55.7136 59.5166 55.6716 59.6141 55.6279C60.1791 55.3802 60.7114 55.3113 61.1654 55.7127C61.6523 56.1444 61.727 56.9263 61.2452 57.4847C61.0368 57.7283 60.708 57.9097 60.3893 57.9718C60.4532 58.0289 60.5171 58.0869 60.5819 58.1448C60.3893 58.3581 60.1985 58.579 59.9916 58.7898C59.6805 58.5143 59.3434 58.2128 59.0331 57.9382C59.2433 57.735 59.4485 57.5284 59.6494 57.3168C60.0009 57.4671 60.238 57.4327 60.4322 57.216C60.5583 57.0749 60.5676 56.9237 60.4482 56.8171C60.3322 56.7146 60.1539 56.7323 59.7999 56.8927C59.7133 56.933 59.6251 56.9716 59.5368 57.0102C58.8979 57.2924 58.3101 57.3361 57.862 56.9388C57.3475 56.4837 57.3659 55.837 57.8535 55.3063C58.0814 55.0577 58.353 54.9006 58.6414 54.8511Z" fill="white"></path>
<path d="M17.6458 55.6422C17.708 55.5918 17.8055 55.5155 17.8668 55.465C18.0577 55.685 18.2536 55.9017 18.4546 56.1141C18.1696 56.3468 17.8492 56.6046 17.5642 56.8372C17.3642 56.6248 17.1683 56.4089 16.9774 56.188C17.1304 55.9453 17.1557 55.6959 16.9715 55.4701C16.8597 55.3324 16.721 55.3046 16.6109 55.3954C16.4343 55.5389 16.5369 55.7295 16.6437 56.1654C16.6697 56.2704 16.6958 56.3744 16.7227 56.4769C16.8774 57.0739 16.8614 57.6097 16.3923 57.9935C15.8887 58.405 15.1035 58.3546 14.6285 57.7903C14.4208 57.5459 14.2938 57.1933 14.2838 56.8691C14.2174 56.9228 14.1484 56.9766 14.0829 57.0312C13.9013 56.8077 13.713 56.5844 13.5381 56.3468C13.8592 56.0839 14.2115 55.8001 14.5326 55.5372C14.6999 55.7766 14.8714 56.0117 15.0488 56.2434C14.8437 56.5667 14.8395 56.8052 15.0236 57.0319C15.1422 57.1781 15.291 57.2116 15.4145 57.1109C15.5348 57.0126 15.5457 56.8338 15.4431 56.4602C15.4179 56.3677 15.3935 56.2746 15.3691 56.1813C15.1918 55.5061 15.243 54.92 15.7063 54.5413C16.2384 54.1072 16.874 54.2272 17.3213 54.7924C17.5306 55.0577 17.6424 55.35 17.6458 55.6422Z" fill="white"></path>
<path d="M19.6973 57.4609C19.5006 57.6927 19.3232 57.901 19.1256 58.1336C19.2005 58.2032 19.2871 58.2805 19.3627 58.3502C18.7599 58.6903 18.0765 59.0648 17.4779 59.3999C17.4065 59.3344 17.3526 59.279 17.2905 59.2118C17.0937 59.4436 16.9399 59.6325 16.7432 59.8643C17.0954 60.2119 17.4611 60.5403 17.8234 60.8601L18.3371 60.2505C18.3371 60.2505 18.2597 60.18 18.2177 60.1414C18.174 60.1002 18.1042 60.0338 18.1042 60.0338L18.5313 59.7912L19.362 60.489L19.166 60.9458C19.166 60.9458 18.9642 60.7821 18.9054 60.73C18.8264 60.8224 18.4817 61.2339 18.3918 61.3405L18.3909 61.3413C18.8887 61.7502 19.398 62.145 19.9219 62.5229C20.1185 62.2911 20.2767 62.1005 20.4734 61.8679C20.3934 61.8133 20.3329 61.7679 20.2573 61.7125C20.4876 61.0658 20.7433 60.3529 20.9786 59.7022C21.0593 59.7652 21.1544 59.8374 21.2359 59.8995C21.4326 59.6678 21.6126 59.457 21.8093 59.2252C21.0828 58.671 20.3632 58.0873 19.6973 57.4609ZM19.5495 60.0338L18.9458 59.5241L19.9731 58.8994L20.027 58.9464L19.5495 60.0338Z" fill="white"></path>
<path d="M24.817 61.1721C24.9043 61.9799 24.9959 62.7768 25.0935 63.5653C25.0968 63.5662 25.1002 63.5678 25.1036 63.5695C25.2742 63.2546 25.4567 62.9271 25.629 62.6122C25.5298 62.5669 25.4113 62.5123 25.3129 62.456C25.4575 62.1881 25.5979 61.9404 25.745 61.6726C26.1998 61.8993 26.6177 62.1 27.1356 62.3284C26.9901 62.5954 26.848 62.8482 26.7009 63.1144C26.5958 63.0716 26.5033 63.0338 26.4025 62.9876C25.9266 63.8491 25.4735 64.6729 24.9976 65.5362C24.6059 65.3607 24.199 65.1776 23.8728 64.9971C23.7661 64.0767 23.6727 63.1975 23.5802 62.2511C23.5768 62.2495 23.5676 62.2436 23.5642 62.2419C23.349 62.6332 23.1086 63.0674 22.8926 63.4578C22.9917 63.5149 23.0943 63.5712 23.196 63.6266C23.0489 63.8928 22.9328 64.1044 22.7849 64.3715C22.325 64.1179 21.8584 63.85 21.4204 63.567C21.6003 63.2403 21.6945 63.0707 21.8349 62.8146C21.9307 62.8767 22.0366 62.9481 22.1325 63.006C22.4504 62.4292 22.8067 61.7859 23.1186 61.2183C23.0236 61.1595 22.9144 61.0923 22.8203 61.0318C22.9682 60.7614 23.1094 60.5053 23.2565 60.2383C23.7661 60.5691 24.2839 60.8824 24.817 61.1721Z" fill="white"></path>
<path d="M30.3142 63.4926C31.3071 63.8142 32.2278 64.5742 31.8141 65.8684C31.4459 67.0206 30.5151 67.5195 29.2354 67.1197C28.525 66.903 27.7943 66.6645 27.0923 66.3891C27.1848 66.0993 27.2672 65.8432 27.3597 65.5535C27.453 65.5904 27.5446 65.6265 27.6371 65.6626C27.8381 65.0336 28.055 64.3668 28.2559 63.7378C28.1634 63.7008 28.0701 63.6631 27.9785 63.6261C28.071 63.338 28.1584 63.0693 28.2509 62.7812C28.926 63.0567 29.634 63.2826 30.3142 63.4926ZM29.8812 64.287C29.8055 64.2627 29.7323 64.2375 29.6567 64.2123C29.4473 64.8673 29.2405 65.5022 29.0311 66.1565C29.1068 66.1825 29.1833 66.2077 29.259 66.232C29.7038 66.3773 30.0695 66.2362 30.3058 65.4955C30.5462 64.7439 30.3663 64.4441 29.8812 64.287Z" fill="white"></path>
<path d="M34.9617 64.3818C34.9415 64.685 34.923 64.9604 34.9028 65.2635C34.8095 65.2543 34.7128 65.2417 34.6203 65.2316C34.7313 65.7901 34.8415 66.3476 34.9524 66.9052L34.9633 66.9061C35.1878 66.3795 35.4047 65.8665 35.63 65.3374C35.5342 65.3299 35.4467 65.3206 35.3526 65.3114C35.3727 65.0074 35.3921 64.7295 35.4123 64.4263C35.9638 64.4717 36.5162 64.5061 37.0693 64.5279C37.0491 64.8311 37.0298 65.1057 37.0096 65.4096C36.9163 65.4071 36.8171 65.4055 36.7229 65.3996C36.8751 65.9521 37.0331 66.4929 37.1853 67.0421C37.1895 67.0429 37.1929 67.0429 37.1962 67.0429C37.3829 66.5038 37.5695 65.9588 37.7554 65.4189C37.6645 65.4172 37.5729 65.4214 37.4812 65.4189C37.5015 65.1149 37.5199 64.8412 37.5409 64.5372C38.1211 64.5405 38.5691 64.5145 39.0811 64.4985C39.0609 64.8025 39.0416 65.0805 39.0214 65.3845C38.9365 65.3903 38.8634 65.3937 38.7742 65.3954C38.3463 66.3695 37.9075 67.3637 37.4804 68.3277C37.0836 68.3252 36.6901 68.3135 36.2984 68.2925C36.1613 67.7953 36.0234 67.2982 35.8864 66.7994C35.883 66.7986 35.8788 66.7986 35.8755 66.7986C35.6729 67.2747 35.4703 67.75 35.2685 68.2236C34.8675 68.1917 34.4597 68.1455 34.0629 68.0909C33.773 67.0799 33.4761 66.0353 33.1869 65.0141C33.0953 64.9999 33.0297 64.9864 32.9414 64.9688C32.9616 64.6648 32.9809 64.386 33.0011 64.082C33.6569 64.2013 34.2554 64.3046 34.9617 64.3818Z" fill="white"></path>
<path d="M42.46 64.1133C42.5021 64.4181 42.5391 64.6785 42.5794 64.9917C42.4643 65.0169 42.3507 65.0295 42.233 65.0488C42.3213 65.7014 42.4155 66.4236 42.5029 67.0761C42.6206 67.056 42.7316 67.0375 42.8519 67.0148C42.8922 67.3163 42.9284 67.5817 42.9687 67.884C42.2448 68.0134 41.531 68.1032 40.8062 68.178C40.765 67.8756 40.7322 67.617 40.6919 67.3155C40.8071 67.302 40.9231 67.2903 41.0416 67.2785C40.9534 66.626 40.8567 65.9046 40.7692 65.2512C40.6532 65.2655 40.5414 65.2764 40.4195 65.2865C40.3791 64.985 40.3421 64.7121 40.3018 64.4106C41.0433 64.3434 41.7403 64.2409 42.46 64.1133Z" fill="white"></path>
<path d="M56.2545 57.1211C56.5117 57.4335 56.7614 57.7367 57.0187 58.0498C56.7783 58.2799 56.5353 58.5084 56.2864 58.7275C56.2217 58.6503 56.1494 58.5647 56.0854 58.4866C55.8753 58.6696 55.6567 58.8653 55.434 59.0474C55.5567 59.197 55.7139 59.3834 55.8367 59.5337C56.0308 59.3749 56.2217 59.213 56.41 59.0491C56.5739 59.2474 56.737 59.4472 56.9009 59.6454C56.7118 59.81 56.5209 59.972 56.3276 60.1299C56.4587 60.2903 56.5857 60.4338 56.7169 60.5934C56.9396 60.4113 57.1524 60.2223 57.3675 60.0325C57.3037 59.9544 57.2491 59.8881 57.1852 59.8108C57.4349 59.5908 57.682 59.364 57.9216 59.1332C58.1788 59.4464 58.4177 59.7353 58.6748 60.0484C57.7912 60.8798 56.8623 61.6616 55.8921 62.3788C55.6988 62.1445 55.5138 61.9194 55.3204 61.6851C55.4003 61.6264 55.4752 61.5683 55.5558 61.5088C55.1371 60.9998 54.689 60.4583 54.2713 59.9494C54.1906 60.0073 54.1115 60.066 54.0299 60.1224C53.8365 59.8872 53.6651 59.6747 53.4717 59.4404C54.4755 58.7242 55.3692 57.9483 56.2545 57.1211Z" fill="white"></path>
<path d="M51.8038 64.4057L51.6079 64.0438C51.5524 64.0723 51.4894 64.1059 51.4339 64.1345L51.3876 64.158L51.0497 63.5324L51.0976 63.508C51.3565 63.3738 51.6171 63.2343 51.871 63.0924L51.9207 63.0647L52.2561 63.6852C52.2561 63.6852 52.1232 63.76 52.0392 63.8053L52.4612 64.5863C53.0321 64.273 53.597 63.9381 54.1452 63.5862C54.0006 63.3183 53.8627 63.0663 53.7189 62.7976C53.6366 62.8505 53.5591 62.9001 53.4768 62.9521C53.1641 62.3736 52.8118 61.7219 52.4982 61.1417C52.5882 61.0863 52.657 61.0385 52.7387 60.9821C52.594 60.7142 52.4629 60.4742 52.3183 60.207C51.771 60.5589 51.2153 60.9099 50.6452 61.224C50.6452 61.224 50.9993 61.8798 51.064 61.999L51.2817 61.8815L51.6062 62.482L51.5592 62.508C51.3043 62.6499 51.043 62.7901 50.7824 62.9244L50.7344 62.9497L50.4124 62.3542C50.4124 62.3542 50.568 62.2745 50.6335 62.2393C50.5696 62.1209 50.2114 61.4583 50.2114 61.4583C49.6355 61.7605 49.0428 62.0469 48.4468 62.309C48.5906 62.5768 48.7268 62.8229 48.8706 63.0907C48.9596 63.0521 49.0463 63.0134 49.1354 62.974C49.4472 63.5542 49.7978 64.1984 50.1098 64.7786C50.0214 64.818 49.934 64.8567 49.845 64.8953C49.9886 65.1632 50.1224 65.4101 50.267 65.6771C50.8631 65.4151 51.4516 65.122 52.0265 64.8197L51.8038 64.4057Z" fill="white"></path>
<path d="M18.6539 15.7791C18.6607 15.7732 18.8776 15.5784 18.9827 15.4885C18.6607 15.2005 18.3639 14.9334 18.0418 14.6445C17.2043 15.3684 16.3963 16.1654 15.6313 16.9691C15.971 17.6527 16.2863 18.2834 16.6318 18.9729C16.6419 18.9931 16.652 19.0132 16.6621 19.0325C16.6411 19.025 16.6201 19.0166 16.5991 19.009C15.881 18.7344 15.2244 18.485 14.5122 18.2162C13.79 19.0687 13.0905 19.9588 12.4473 20.8818C12.7693 21.1707 13.0627 21.4319 13.3847 21.7199C13.4697 21.6024 13.6345 21.3689 13.6395 21.3622C13.6454 21.3672 15.8709 23.3592 15.8777 23.366C15.8718 23.3727 15.7061 23.6154 15.6296 23.7304C15.9517 24.0185 16.2636 24.299 16.5856 24.587C16.9832 23.9933 17.4036 23.4121 17.8426 22.8495C17.5189 22.5589 17.212 22.2834 16.889 21.9945C16.8042 22.1029 16.6234 22.3414 16.6184 22.3481C16.6117 22.3422 15.1226 21.0069 14.3912 20.3519C14.4181 20.3158 14.4458 20.2797 14.4736 20.2435C15.855 20.7726 17.2473 21.3109 18.6497 21.8577C18.8254 21.6519 19.0029 21.4487 19.1836 21.248C18.4799 19.9017 17.7904 18.569 17.1077 17.2429C17.1397 17.2102 17.1716 17.1782 17.2043 17.1463C17.9359 17.8014 19.4249 19.13 19.4317 19.1358C19.4249 19.1417 19.2173 19.3491 19.1206 19.4474C19.4434 19.7363 19.7503 20.0134 20.0723 20.3015C20.7433 19.6187 21.447 18.9679 22.1819 18.3515C21.8598 18.0626 21.5513 17.7854 21.2292 17.4965C21.1225 17.5847 20.8997 17.7762 20.8929 17.7829C20.8862 17.7762 18.6607 15.785 18.6539 15.7791Z" fill="white"></path>
<path d="M27.9079 10.3972C27.9162 10.3948 28.1887 10.2898 28.3199 10.2453C28.1231 9.85985 27.9432 9.50461 27.7465 9.11914C26.7039 9.49286 25.6622 9.94467 24.6591 10.4191C24.7297 11.1792 24.7953 11.8813 24.8693 12.6489C24.8718 12.6707 24.8735 12.6934 24.876 12.716C24.8592 12.7001 24.8423 12.6858 24.8256 12.6707C24.2547 12.1559 23.7274 11.6806 23.1607 11.1733C22.178 11.7032 21.2085 12.2852 20.2769 12.9218C20.4736 13.3073 20.6528 13.6566 20.8486 14.0421C20.9706 13.9623 21.2085 13.8044 21.2153 13.7994C21.2195 13.807 22.5756 16.4666 22.5798 16.4742C22.5723 16.4792 22.3301 16.6447 22.2175 16.7245C22.4134 17.1099 22.6034 17.4828 22.7992 17.8683C23.3853 17.4576 23.9873 17.0671 24.5993 16.7001C24.4017 16.313 24.2152 15.9443 24.0184 15.5596C23.8999 15.6302 23.6451 15.7872 23.6384 15.7914C23.6342 15.7838 22.7269 14.0026 22.2814 13.1284C22.32 13.104 22.3587 13.0805 22.3974 13.057C23.4946 14.0471 24.5993 15.0507 25.7109 16.066C25.9479 15.9367 26.1876 15.8116 26.4289 15.689C26.2583 14.1807 26.0952 12.6892 25.937 11.2061C25.9791 11.1868 26.0202 11.1691 26.0624 11.1506C26.5088 12.0249 27.4177 13.8011 27.4219 13.8086C27.4135 13.812 27.1445 13.9313 27.0192 13.9875C27.2158 14.373 27.4026 14.7417 27.5993 15.1263C28.4712 14.7316 29.3624 14.3772 30.2705 14.0673C30.0737 13.6818 29.8863 13.3115 29.6903 12.9268C29.5592 12.9713 29.2817 13.0688 29.2733 13.0721C29.269 13.0646 27.912 10.4057 27.9079 10.3972Z" fill="white"></path>
<path d="M35.5924 8.764C35.5201 8.33582 35.4553 7.94699 35.3855 7.51953C34.5104 7.59344 33.9731 7.66484 33.2737 7.7673C33.346 8.19559 33.4107 8.58102 33.483 9.00929C33.5881 8.99417 33.7799 8.96722 33.8378 8.95891C33.8319 8.97142 33.3158 10.2335 33.3149 10.2352C33.3056 10.2227 32.4742 9.18723 32.4658 9.17631C32.607 9.1512 32.6885 9.13769 32.7996 9.11846C32.7264 8.69019 32.6659 8.30559 32.5936 7.87728C31.636 8.03763 30.6961 8.23833 29.7495 8.48278C29.8226 8.91104 29.8839 9.30068 29.9572 9.72894C30.0782 9.69871 30.3093 9.63909 30.3135 9.63741C30.3169 9.64069 32.0538 11.3 32.0555 11.3025C32.0563 11.305 32.2177 12.2507 32.2194 12.2591C32.211 12.2616 31.9236 12.3204 31.779 12.3539C31.852 12.7822 31.9194 13.1794 31.9924 13.6076C32.9778 13.3842 33.9807 13.213 34.9905 13.0937C34.924 12.6655 34.8559 12.2707 34.7828 11.8425C34.6424 11.8585 34.3347 11.8988 34.3262 11.9005C34.3246 11.8913 34.1682 10.9482 34.1674 10.9456C34.169 10.9424 35.2553 8.79768 35.2569 8.79348C35.4158 8.7808 35.4805 8.77332 35.5924 8.764Z" fill="white"></path>
<path d="M62.949 23.0005C63.3053 22.7302 63.6122 22.4924 63.9535 22.2289C63.5618 21.6065 63.1549 20.975 62.7169 20.3805C62.3756 20.645 62.0603 20.8894 61.719 21.1539C61.8073 21.274 61.9854 21.5319 61.9906 21.5393C61.9838 21.5445 60.6967 22.5412 60.69 22.547C60.6841 22.5396 60.6597 22.5043 60.6563 22.5008C60.6579 22.4966 61.3944 20.2043 61.7409 19.0772C61.2045 18.3955 60.6421 17.732 60.0376 17.082C59.6963 17.3465 59.3733 17.5935 59.032 17.858C59.1371 17.973 59.3624 18.2199 59.3684 18.2266C59.3617 18.2317 57.0084 20.0522 57.0009 20.0581C56.9951 20.0514 56.7756 19.8129 56.6638 19.6936C56.3225 19.9581 56.0013 20.2068 55.6592 20.4713C56.1812 21.0187 56.6748 21.5839 57.1506 22.1666C57.4919 21.9021 57.8079 21.6569 58.1493 21.3924C58.0484 21.2681 57.8349 21.0112 57.829 21.0045C57.8358 20.9994 59.4121 19.7777 59.4188 19.7725C59.4247 19.7793 59.4524 19.812 59.455 19.8154C59.4533 19.8197 58.6882 22.2934 58.2569 23.6178C58.6151 24.1208 58.9842 24.6682 59.312 25.199C60.4528 24.3147 62.6841 22.5941 62.6909 22.589C62.6959 22.5957 62.8666 22.8654 62.949 23.0005Z" fill="white"></path>
<path d="M12.0502 24.0105C12.0661 23.9786 12.2174 23.6998 12.3066 23.552C11.9206 23.3572 11.5717 23.1834 11.1859 22.9902C10.6671 23.9139 10.2064 24.8427 9.76758 25.8168C10.1535 26.0099 10.5024 26.1871 10.8882 26.3802C10.9505 26.2274 11.0993 25.9083 11.1027 25.9008C11.1111 25.9041 13.7651 27.2359 13.7736 27.2401C13.7694 27.2477 13.6223 27.5668 13.56 27.7196C13.9451 27.9128 14.3184 28.1009 14.7042 28.2932C15.1289 27.3174 15.5971 26.3853 16.1191 25.4641C15.7333 25.2701 15.3633 25.0845 14.9783 24.8914C14.8925 25.0325 14.7262 25.339 14.7219 25.3465C14.7143 25.3432 12.0577 24.0147 12.0502 24.0105Z" fill="white"></path>
<path d="M55.4165 18.5614C55.4097 18.5555 55.3887 18.5378 55.382 18.532C55.387 18.5252 57.1962 16.0556 57.2013 16.048C57.208 16.0539 57.4224 16.2445 57.524 16.3335C57.7755 15.9901 58.0159 15.6618 58.2731 15.3099C57.5712 14.6843 56.844 14.0881 56.0865 13.5213C55.9596 13.6951 55.8368 13.8614 55.7149 14.0276C55.6073 14.1729 55.4997 14.319 55.3895 14.4693C55.4643 14.5247 55.5552 14.5944 55.5913 14.6222L55.6073 14.6339L55.6737 14.6835L55.625 14.7498L55.3676 15.1025L55.1095 15.4552L55.0591 15.5232L54.9919 15.4728C54.9793 15.4636 54.316 14.979 54.0301 14.7699L53.9024 14.6767L53.8343 14.628L53.8838 14.56C53.888 14.5525 54.3967 13.8614 54.4017 13.8538L54.4504 13.7883L54.5169 13.8353C54.5227 13.8395 54.6447 13.926 54.7405 13.994L55.0642 13.5515L55.435 13.0443C54.6682 12.4959 53.8797 11.977 53.0675 11.4941C52.8127 11.8418 52.5732 12.1693 52.3184 12.5178C52.4328 12.5883 52.6783 12.7353 52.6858 12.7395C52.6808 12.747 50.8732 15.215 50.8674 15.2217C50.8607 15.2175 50.6235 15.0773 50.495 15.0042C50.2394 15.3519 50.0476 15.6156 49.793 15.9641C50.6766 16.4746 51.4163 16.9449 52.1797 17.4899L52.1814 17.4873L52.5312 17.0062L52.8725 16.5452C52.7968 16.4914 52.7034 16.4251 52.6674 16.3999L52.6514 16.389L52.5824 16.3403L53.1953 15.498L54.4218 16.394L53.8047 17.2337C53.8047 17.2337 53.5955 17.07 53.5249 17.0188L52.8304 17.9668C53.5846 18.5328 54.3076 19.1525 54.9994 19.7798C55.2541 19.4313 55.4483 19.1676 55.7031 18.8183C55.5964 18.7234 55.5283 18.6588 55.4165 18.5614Z" fill="white"></path>
<path d="M44.0373 8.0698C44.0373 8.0698 43.1688 7.89934 42.6828 7.81703C42.1162 7.72128 41.2486 7.61719 41.2486 7.61719L41.0653 8.86419L41.7581 8.96831L41.262 12.2273C41.1578 12.9218 40.9148 13.0469 40.6399 13.0494C40.402 13.052 40.085 12.8949 40.085 12.8949L39.9043 14.0823C39.9043 14.0823 40.534 14.4577 41.1435 14.5492C41.8421 14.655 42.1717 14.5576 42.5727 14.2612C43.0738 13.8925 43.2495 13.2778 43.3487 12.622L44.0373 8.0698Z" fill="white"></path>
<path d="M8.9556 27.9336C8.9556 27.9336 8.65379 28.8918 8.56123 29.2083C8.45538 29.5678 8.16113 30.641 8.16113 30.641L9.3356 30.9793L9.53233 30.3084L12.6992 31.2396C13.3727 31.4371 13.4643 31.6932 13.4298 31.966C13.4004 32.202 13.2019 32.495 13.2019 32.495L14.3546 32.8335C14.3546 32.8335 14.8119 32.2617 14.986 31.6704C15.1844 30.9928 15.1323 30.6544 14.8935 30.2169C14.595 29.6718 14.0091 29.414 13.3727 29.2276L8.9556 27.9336Z" fill="white"></path>
<path d="M33.9545 51.1484C35.8261 49.279 36.1792 46.5807 36.1792 43.7615V24.2031H24.1644V30.4681H27.1449V42.7394C27.1449 45.7224 26.2042 46.4052 25.0489 46.5908C24.8993 46.6151 24.7404 46.6261 24.5773 46.6261C23.6524 46.6261 22.6157 46.2943 22.6157 46.2943V52.0831C22.6157 52.0831 25.5021 53.2647 28.1271 53.2647C31.132 53.2647 32.4545 52.6466 33.9545 51.1484Z" fill="#EA0029"></path>
<path d="M50.8325 51.1484C52.704 49.279 53.0572 46.5807 53.0572 43.7615V24.2031H41.0423V30.4681H44.0229V42.7394C44.0229 45.7224 43.0821 46.4052 41.9268 46.5908C41.7772 46.6151 41.6182 46.6261 41.4552 46.6261C40.5303 46.6261 39.4937 46.2943 39.4937 46.2943V52.0831C39.4937 52.0831 42.38 53.2647 45.0057 53.2647C48.0099 53.2647 49.3333 52.6466 50.8325 51.1484Z" fill="#EA0029"></path>
<path d="M15.5604 42.3209L15.1703 41.1528H12.6701C12.5709 41.1528 12.4834 41.0899 12.4523 40.9949L11.6806 38.6211H10.4439L9.68471 40.9555C9.64604 41.0739 9.5359 41.1528 9.41232 41.1528H6.9398L6.55225 42.3126L8.56152 43.7703C8.66157 43.8434 8.7036 43.9718 8.66493 44.0903L7.90157 46.4364L8.89108 47.1612L10.8937 45.7075C10.9945 45.6346 11.1299 45.6346 11.2308 45.7075L13.246 47.1704L14.2271 46.4515L13.4595 44.0903C13.4217 43.9718 13.4629 43.8434 13.5637 43.7703L15.5604 42.3209Z" fill="white"></path>
<path d="M13.6302 46.2582L12.8904 43.9843C12.8349 43.8138 12.8954 43.6265 13.0408 43.5207L14.9602 42.1284L14.8038 41.6607H12.4364C12.2565 41.6607 12.0975 41.5456 12.0412 41.3744L11.3107 39.1289H10.8146L10.0841 41.3744C10.0285 41.5456 9.86876 41.6607 9.68893 41.6607H7.30715L7.15332 42.12L9.08446 43.5207C9.2299 43.6265 9.29044 43.8138 9.23495 43.9843L8.50008 46.244L8.89278 46.5312L10.8188 45.1339C10.9643 45.0281 11.161 45.0281 11.3065 45.1339L13.2451 46.5404L13.6302 46.2582Z" fill="#EA0029"></path>
<path d="M69.0355 42.3209L68.6455 41.1528H66.1452C66.046 41.1528 65.9585 41.0899 65.9274 40.9949L65.1557 38.6211H63.9189L63.1598 40.9555C63.1212 41.0739 63.011 41.1528 62.8874 41.1528H60.4149L60.0273 42.3126L62.0366 43.7703C62.1367 43.8434 62.1787 43.9718 62.14 44.0903L61.3767 46.4364L62.3662 47.1612L64.3688 45.7075C64.4697 45.6346 64.605 45.6346 64.7059 45.7075L66.7211 47.1704L67.7021 46.4515L66.9346 44.0903C66.8968 43.9718 66.9379 43.8434 67.0389 43.7703L69.0355 42.3209Z" fill="white"></path>
<path d="M67.1019 46.2582L66.3621 43.9843C66.3065 43.8138 66.367 43.6265 66.5125 43.5207L68.4318 42.1284L68.2755 41.6607H65.908C65.7281 41.6607 65.5692 41.5456 65.5129 41.3744L64.7823 39.1289H64.2863L63.5557 41.3744C63.5002 41.5456 63.3405 41.6607 63.1606 41.6607H60.7788L60.625 42.12L62.5561 43.5207C62.7016 43.6265 62.7621 43.8138 62.7066 43.9843L61.9718 46.244L62.3645 46.5312L64.2905 45.1339C64.4359 45.0281 64.6327 45.0281 64.7781 45.1339L66.7169 46.5404L67.1019 46.2582Z" fill="#EA0029"></path>
</g>
</svg>