<svg width="172" height="43" viewBox="0 0 172 43" fill="none" xmlns="http://www.w3.org/2000/svg">
<mask id="mask0_356_16609" style="mask-type:luminance" maskUnits="userSpaceOnUse" x="0" y="0" width="172" height="43">
<path d="M171.584 0H0V42.0579H171.584V0Z" fill="white"></path>
</mask>
<g mask="url(#mask0_356_16609)">
<mask id="mask1_356_16609" style="mask-type:luminance" maskUnits="userSpaceOnUse" x="0" y="0" width="172" height="42">
<path d="M171.254 0.880859H0.946289V41.8798H171.254V0.880859Z" fill="white"></path>
</mask>
<g mask="url(#mask1_356_16609)">
<path d="M30.4868 22.0876V7.47656H37.335V21.3089C37.335 24.9056 39.2412 27.0521 42.406 27.0521C45.5708 27.0521 47.4372 24.8594 47.4372 21.3089V7.47656H54.2856V22.086C54.2856 28.9147 49.5697 33.4782 42.406 33.4782C35.2423 33.4782 30.4868 28.9147 30.4868 22.086V22.0876Z" fill="black"></path>
<path d="M75.2185 26.678V32.7659H70.3524C64.7794 32.7659 61.3553 29.3475 61.3553 23.7379V12.9744H56.7749V11.4977L66.7813 0.880859H68.0912V7.47863H75.0798V12.9744H68.2067V22.8289C68.2067 25.2723 69.614 26.678 72.1082 26.678H75.2202H75.2185Z" fill="black"></path>
<path d="M96.0413 26.678V32.7659H91.1752C85.6021 32.7659 82.178 29.3475 82.178 23.7379V12.9744H77.5977V11.4977L87.6025 0.880859H88.9123V7.47863H95.901V12.9744H89.0279V22.8289C89.0279 25.2723 90.4352 26.678 92.9294 26.678H96.043H96.0413Z" fill="black"></path>
<path d="M123.364 20.0335C123.364 20.7017 123.317 21.3699 123.231 22.0381H104.061C104.655 25.4895 106.928 27.3901 110.25 27.3901C112.63 27.3901 114.582 26.2666 115.623 24.4567H122.822C120.979 29.9689 116.132 33.4814 110.252 33.4814C102.772 33.4814 97.1133 27.7003 97.1133 20.1225C97.1133 12.5448 102.734 6.76367 110.252 6.76367C117.769 6.76367 123.364 12.7494 123.364 20.0335ZM104.137 17.3689H116.411C115.443 14.2771 113.218 12.6009 110.145 12.6009C107.074 12.6009 104.933 14.3761 104.137 17.3689Z" fill="black"></path>
<path d="M140.959 7.33789V13.7872H137.987C134.127 13.7872 132.602 15.4947 132.602 19.6277V32.7638H125.753V7.47813H130.145L131.363 10.5765C133.166 8.341 135.453 7.33789 138.708 7.33789H140.959Z" fill="black"></path>
<path d="M171.256 7.47656L160.215 32.4273C157.178 39.2807 154.51 41.8776 148.826 41.8776H146.003V35.7303H148.373C151.674 35.7303 152.531 34.8543 154.087 31.0298L154.183 30.8253L143.451 7.47656H150.904L157.662 23.0331L163.971 7.47656H171.254H171.256Z" fill="black"></path>
<path d="M14.7616 6.76367C11.6018 6.76367 8.79383 7.87567 6.64323 9.77796L5.47378 7.47971H0.946289V41.8792H7.79452V31.3894C9.75846 32.7456 12.1387 33.5177 14.7616 33.5177C22.3911 33.5177 28.0319 27.7745 28.0319 20.1208C28.0319 12.4672 22.3911 6.76367 14.7616 6.76367Z" fill="black"></path>
</g>
</g>
</svg>