<svg width="155" height="78" viewBox="0 0 155 78" fill="none" xmlns="http://www.w3.org/2000/svg">
<mask id="mask0_356_16412" style="mask-type:luminance" maskUnits="userSpaceOnUse" x="0" y="0" width="155" height="78">
<path d="M154.327 0H0V77.0744H154.327V0Z" fill="white"></path>
</mask>
<g mask="url(#mask0_356_16412)">
<path d="M35.4956 1.44089C35.4956 1.80057 35.0326 2.05749 34.4667 2.05749C33.798 2.05749 33.5408 2.3144 33.7465 2.82823C34.0038 3.39344 33.8494 3.49621 33.2321 3.29068C32.7691 3.13653 32.4091 2.77684 32.4091 2.51993C32.4091 2.26302 32.2033 2.05749 31.8946 2.05749C31.6374 2.05749 31.3802 2.41717 31.3802 2.82823C31.3802 3.59897 29.3225 3.90726 28.6023 3.23929C28.448 3.03376 27.8307 2.82823 27.2648 2.72546C26.5446 2.6227 26.3388 2.82823 26.596 3.39344C26.8533 4.06141 26.6989 4.16419 25.8244 3.90726C25.2585 3.70174 24.6412 3.80452 24.4869 4.06141C24.2811 4.36971 23.8181 4.47249 23.4066 4.26697C22.9951 4.11282 22.635 4.26697 22.635 4.62663C22.635 5.03771 22.172 5.19186 21.3489 5.03771C20.4744 4.83215 20.0629 4.9863 20.0629 5.44875C20.0629 6.11675 19.3941 6.42505 18.3138 6.21949C18.0566 6.16812 18.0051 6.47642 18.1595 6.93887C18.4167 7.50409 18.108 7.70961 16.9763 7.70961C15.8445 7.70961 15.5359 7.91513 15.7417 8.48036C15.9989 9.04558 15.6902 9.2511 14.7128 9.2511C13.9412 9.2511 13.4268 9.50803 13.4782 9.86769C13.5811 10.2274 13.3239 10.4843 12.9638 10.3815C12.6551 10.3301 12.3465 10.6384 12.3465 11.0495C12.3465 11.4606 11.9864 11.8203 11.5748 11.8203C11.1633 11.8203 10.8032 12.1799 10.8032 12.591C10.8032 13.002 10.4431 13.3617 10.0316 13.3617C9.62002 13.3617 9.15704 13.9269 8.95128 14.6463C8.79695 15.3657 8.33397 15.9309 7.92242 15.9309C7.51086 15.9309 7.20221 16.1878 7.20221 16.5475C7.20221 16.8558 6.5849 17.9348 5.81326 18.9625C4.99019 19.9901 4.37289 20.915 4.32146 21.0692C4.26999 21.4289 3.13826 24.2035 2.57239 25.4367C1.64643 27.4407 0.46325 33.1955 0.20604 36.9979C-0.359829 45.0649 2.57239 54.6222 7.76809 61.6105C10.4431 65.2072 16.1018 70.397 17.3364 70.397C18.0051 70.397 22.3263 72.6576 22.7379 73.2229C22.9436 73.4799 23.2523 73.5312 23.4066 73.377C23.6124 73.1716 24.3326 73.2742 25.0528 73.5312C26.1331 73.9424 26.2874 73.8395 26.1331 73.12C26.0302 72.5551 25.4643 72.1951 24.7955 72.1439C24.1268 72.0926 22.7893 71.3219 21.8119 70.3453C20.8345 69.4204 20.0629 68.9067 20.0629 69.215C20.0629 69.5746 20.2686 69.9858 20.5773 70.1399C20.8345 70.2941 21.0917 70.7565 21.0917 71.0648C21.0917 71.4244 20.5258 71.0648 19.8571 70.2941C19.1883 69.5233 18.4681 69.0609 18.2109 69.2663C18.0051 69.4721 17.9537 69.2663 18.1595 68.7526C18.5196 67.7764 17.3364 66.5945 15.2272 65.9267C14.4042 65.6696 13.5296 65.1043 13.3239 64.6935C12.6037 63.3061 12.1922 61.9188 12.295 61.148C12.3465 60.7369 12.0378 60.9423 11.6263 61.6617C10.8546 62.8949 10.8546 62.8949 10.8032 61.8671C10.8032 61.1993 10.3917 60.634 9.77435 60.4798C9.10561 60.3257 8.74548 59.7607 8.74548 59.0412C8.74548 58.4246 8.3854 57.4485 7.87099 56.9344C6.89355 55.8041 7.35654 55.0846 8.4883 56.0095C9.05414 56.4719 9.25993 56.4719 9.25993 56.0611C9.25993 55.7528 8.89981 55.3416 8.4883 55.1875C8.07674 54.9821 7.71666 54.4167 7.71666 53.903C7.71666 53.389 7.408 52.9782 7.09935 53.0807C6.73923 53.1323 6.48204 52.7724 6.48204 52.2587C6.53347 51.7962 6.27624 51.385 5.91616 51.385C5.50461 51.385 5.40175 50.9226 5.55608 50.1006C5.7104 49.2269 5.50461 48.7132 4.93877 48.5078C4.11566 48.1995 4.11566 48.0966 4.93877 47.223C5.81326 46.2469 5.55608 45.2191 4.32146 45.2191C3.9099 45.2191 3.60124 44.8595 3.60124 44.3971C3.60124 43.6776 3.70415 43.6776 4.73297 44.3971C6.07049 45.322 6.6878 45.4249 6.6878 44.7566C6.6878 44.5 6.22481 44.0888 5.6075 43.9346C4.9902 43.7292 4.68154 43.2668 4.83587 42.9068C4.9902 42.496 4.73297 41.4682 4.26999 40.5946C3.39547 38.7448 3.70415 38.0769 4.93877 39.1048C5.76183 39.7726 5.81326 39.6697 5.45318 37.82C5.24742 36.741 4.78444 35.405 4.47578 34.8912C4.16713 34.3774 4.06423 33.7608 4.26999 33.5552C4.52721 33.3497 4.8873 33.4525 5.09309 33.8635C5.6075 34.6343 6.27624 33.3497 6.37914 31.3457C6.43057 30.6264 6.73923 30.1126 7.09935 30.2153C7.92242 30.3695 7.87099 29.7015 7.09935 28.828C6.53347 28.2628 6.63637 28.2114 7.61376 28.5197C8.2825 28.7252 8.74548 28.6225 8.74548 28.3142C8.74548 28.0059 8.3854 27.749 7.97385 27.749C7.56233 27.749 7.20221 27.492 7.20221 27.2351C7.20221 26.9268 7.56233 26.7213 7.97385 26.7213C8.43683 26.7213 8.89981 26.3616 9.10561 25.8992C9.25993 25.4881 9.67145 25.2312 10.083 25.3854C10.546 25.5909 10.7003 25.1284 10.546 23.5869C10.3917 21.8913 10.4946 21.583 11.3176 21.583C11.9864 21.583 12.4493 21.1206 12.6551 20.2984C12.8095 19.5791 13.3239 19.0138 13.7354 19.0138C14.1984 19.0138 14.4042 18.7055 14.2498 18.2945C14.0441 17.7807 14.5071 17.3182 15.4845 16.8558C16.9248 16.1878 17.4907 15.4171 16.4619 15.4171C16.2047 15.4171 15.9474 15.1601 15.9474 14.8518C15.9474 14.5435 16.4104 14.4408 16.9763 14.6463C17.7479 14.9032 18.5196 14.4408 19.96 12.8993C21.0403 11.7175 22.0691 10.9467 22.2749 11.1523C22.4806 11.3064 22.635 11.1009 22.635 10.6898C22.635 10.1246 22.9436 9.97047 23.6638 10.1246C24.384 10.3301 24.6927 10.1246 24.6927 9.50803C24.6927 8.9428 24.9499 8.73728 25.4643 8.9428C25.9273 9.09695 26.236 8.9428 26.236 8.48036C26.236 8.01791 26.5446 7.86376 27.0076 8.06928C27.4706 8.22343 28.8595 7.96654 30.1456 7.45268C31.4316 6.99024 32.6148 6.68194 32.7691 6.83609C32.872 6.99024 33.8494 6.83609 34.8783 6.47642C36.936 5.75705 39.3025 5.80845 40.2798 6.5792C40.6398 6.83609 41.3601 6.8875 41.9261 6.68194C42.4917 6.47642 43.4177 6.52779 43.9837 6.83609C45.3726 7.60683 46.8646 7.65824 46.6585 6.99024C46.5042 6.68194 46.1442 6.47642 45.7843 6.5792C44.9609 6.78472 42.6977 4.72941 42.1317 3.18791C41.5657 1.80057 40.6398 1.6978 41.0001 3.08514C41.2058 3.90726 41.1027 4.06141 40.4341 3.80452C39.9711 3.65036 39.6112 3.18791 39.6112 2.82823C39.6112 2.46855 39.0965 2.26302 38.4792 2.26302C37.8105 2.3144 36.8846 2.05749 36.4216 1.64642C35.8043 1.13259 35.4956 1.08121 35.4956 1.44089ZM29.8369 4.31834C29.8369 4.47249 29.6312 4.72941 29.3225 4.88356C29.0653 5.03771 28.8081 4.93493 28.8081 4.678C28.8081 4.36971 29.0653 4.11282 29.3225 4.11282C29.6312 4.11282 29.8369 4.21556 29.8369 4.31834Z" fill="black"></path>
<path d="M47.8418 7.45609C47.8418 7.86705 48.0471 8.22663 48.3554 8.22663C48.6123 8.22663 48.7152 7.86705 48.5611 7.45609C48.3554 7.04516 48.15 6.68555 48.0471 6.68555C47.9447 6.68555 47.8418 7.04516 47.8418 7.45609Z" fill="black"></path>
<path d="M62.8133 17.7833C62.8133 18.0401 63.0186 18.7079 63.224 19.2217C63.5322 20.0949 63.6351 20.0949 63.9433 19.3758C64.0974 18.9648 63.892 18.297 63.4809 17.9888C63.0699 17.6292 62.7616 17.5265 62.8133 17.7833Z" fill="black"></path>
<path d="M126.549 17.9351C126.549 18.7058 130.664 18.86 131.282 18.1406C131.693 17.6268 131.282 17.4727 129.172 17.4727C127.732 17.4727 126.549 17.6782 126.549 17.9351Z" fill="black"></path>
<path d="M32.7172 19.8358C32.5628 20.2982 32.0484 20.5552 31.6369 20.3496C31.2253 20.1955 30.5566 20.5552 30.0936 21.2231C29.2705 22.3536 29.2705 22.3536 29.5792 20.8121C29.8878 19.4247 29.8364 19.3733 29.1676 20.1441C28.7561 20.6579 27.9844 21.069 27.47 21.1204C26.5441 21.1204 26.5441 21.1718 27.47 21.5314C28.2931 21.8397 28.3446 21.9425 27.6758 22.1994C27.2128 22.4049 26.5955 22.2508 26.2868 21.9425C25.8753 21.5314 25.721 21.5314 25.721 21.9425C25.721 22.2508 25.0008 22.6619 24.1777 22.8674C22.8916 23.1757 22.6859 23.3298 23.2003 23.9464C23.6633 24.5117 23.5604 24.6658 22.4801 24.6658C21.4513 24.6658 21.0397 25.0255 20.5253 26.4642C20.1652 27.4405 19.5479 28.2626 19.1363 28.2626C18.7763 28.2626 18.6219 28.4681 18.7763 28.7764C18.9306 29.0333 18.8277 29.2903 18.5705 29.2903C18.2618 29.2903 18.0046 29.7527 18.0046 30.2665C18.0046 30.8318 17.7474 31.4484 17.4902 31.6025C17.0787 31.8594 17.1301 32.1677 17.5416 32.6815C18.2104 33.5037 19.6508 32.7329 19.2907 31.7052C19.1363 31.3456 19.8566 30.5235 20.8339 29.8041C21.8113 29.0847 22.6344 28.2112 22.6344 27.8515C22.6344 27.5432 22.9431 27.2349 23.3032 27.2349C23.6633 27.2349 24.5378 26.6697 25.3094 25.9504C26.0811 25.231 27.0585 24.6658 27.4186 24.6658C27.8301 24.6658 28.4474 24.3575 28.7561 23.9464C29.2705 23.3298 31.5854 22.5077 33.283 22.4049C33.5917 22.3536 34.0547 22.148 34.2604 21.9425C34.8777 21.3773 37.81 21.5314 38.4787 22.1994C38.8386 22.5591 38.8903 23.0729 38.5817 23.6895C37.9643 24.7685 38.2215 24.9227 40.6393 25.4366C43.4685 26.0531 44.9604 26.978 46.555 29.2389C47.7896 31.0887 47.944 31.6539 47.6353 33.7606C47.481 35.0452 46.9667 36.5353 46.555 36.9977C46.1437 37.4602 45.7834 38.0253 45.7834 38.2823C45.7834 38.4877 45.2691 39.156 44.6005 39.7726C43.9314 40.3891 43.5202 41.2111 43.6228 41.5707C43.7771 42.0331 43.5202 42.136 42.7485 41.879C42.0282 41.6736 41.6682 41.7765 41.6682 42.2389C41.6682 42.6497 41.0509 43.0097 40.2793 43.0609C39.5076 43.1122 38.736 43.4205 38.53 43.7288C38.3244 44.0887 37.9129 44.1912 37.6042 43.9858C37.2441 43.7288 37.1412 43.9346 37.347 44.397C37.7585 45.4761 37.0898 45.4244 35.9066 44.3454C34.3119 42.9068 34.3633 43.9858 36.0095 45.7327C37.81 47.6341 38.0672 49.3298 36.5239 49.3298C35.958 49.3298 35.4951 49.6893 35.4951 50.1005C35.4951 50.563 35.1864 50.7171 34.7234 50.563C33.5917 50.1005 33.7975 51.1796 35.0321 52.3611C36.1124 53.3376 39.096 54.1084 40.6393 53.8001C41.0509 53.6972 41.8739 53.3889 42.4912 53.0806C43.0572 52.721 44.0345 52.5669 44.6005 52.721C45.2691 52.9265 45.7321 52.7211 45.9377 52.207C46.1437 51.7445 46.761 51.385 47.3266 51.385C47.8926 51.385 48.3556 51.1279 48.3556 50.8713C48.3556 50.563 48.7156 50.3572 49.1273 50.3572C49.5902 50.3572 50.0532 50.0489 50.2076 49.6381C50.3619 49.2269 50.8249 49.0215 51.2365 49.1756C51.6478 49.3298 51.9565 49.124 51.9565 48.6103C51.9565 48.0966 52.4195 47.7883 53.1398 47.7883C53.9627 47.7883 54.0657 47.6341 53.5514 47.3258C53.0885 47.0175 53.0368 46.7605 53.4484 46.5551C53.7571 46.3493 53.9114 45.9385 53.7571 45.6815C53.5514 45.4244 53.9627 45.219 54.6317 45.219C55.609 45.219 55.6603 45.1161 55.043 44.7053C54.58 44.397 54.4774 44.0371 54.7861 43.7804C55.0947 43.5746 55.3004 43.0609 55.3004 42.6497C55.3004 42.1873 55.6603 41.9306 56.3293 42.0848C57.3066 42.2389 57.3066 42.1873 56.432 41.2624C55.1973 39.8751 55.3004 39.2072 56.5863 40.3375C57.1523 40.8516 57.6153 41.0057 57.6153 40.7487C57.6153 40.4404 57.2553 39.8751 56.7923 39.5155C56.072 38.8989 56.072 38.796 56.9467 38.4877C57.7696 38.1281 57.7696 38.0768 56.998 38.0768C56.4837 38.0253 56.072 37.7685 56.072 37.4602C56.072 37.2032 55.8664 37.1005 55.5577 37.2546C54.8887 37.6657 54.8887 37.2032 55.609 35.9187C56.0207 35.0452 55.969 34.6855 55.1973 34.0689C54.3231 33.4009 54.3744 33.3495 55.712 33.6578C56.4837 33.812 57.101 33.812 57.101 33.6064C57.101 33.0926 55.712 31.9108 55.4034 32.1677C55.249 32.3218 54.8374 31.9622 54.5287 31.3456C53.8084 30.0096 54.2201 29.4444 55.3004 30.3179C55.7633 30.729 56.072 30.729 56.072 30.4207C56.072 30.1124 55.3517 29.4444 54.5287 28.9306C53.6541 28.4168 52.8311 27.4405 52.6255 26.7211C52.2651 25.0255 50.4649 23.1243 49.2816 23.1243C48.7673 23.1243 48.3556 22.7646 48.3556 22.1994C48.3043 21.3773 48.3043 21.3773 47.6353 22.1994C47.2753 22.7132 46.8124 23.1243 46.7093 23.1243C46.555 23.1243 46.4524 22.7132 46.5037 22.1994C46.5037 21.737 46.195 21.3259 45.7834 21.3259C45.3721 21.3259 44.8574 20.9148 44.6005 20.3496C44.3944 19.7844 43.9314 19.5275 43.4685 19.733C43.0572 19.8872 42.6968 19.733 42.6968 19.4247C42.6968 19.065 42.4912 19.065 41.9769 19.4761C41.4622 19.8872 41.1535 19.9386 40.8966 19.5275C40.7423 19.2706 40.3306 19.0137 40.0733 19.0137C39.7646 19.0137 39.7133 19.2192 39.8676 19.5275C40.0219 19.7844 39.9189 20.0413 39.662 20.0413C39.3533 20.0413 39.096 19.733 39.096 19.3733C39.096 18.9623 38.8903 19.0137 38.5817 19.5275C38.1186 20.1955 38.0157 20.1955 37.5527 19.5275C37.1412 18.8595 37.0383 18.8595 37.0383 19.4761C37.0383 20.0927 36.884 20.0927 36.421 19.6303C35.5465 18.7567 34.9292 18.8595 35.2893 19.7844C35.7008 20.7607 35.0321 20.7607 33.9518 19.7844C33.1287 19.065 33.0258 19.065 32.7172 19.8358ZM44.2401 21.069C44.2401 21.3259 44.0345 21.5828 43.7258 21.5828C43.4685 21.5828 43.2115 21.3259 43.2115 21.069C43.2115 20.7607 43.4685 20.5552 43.7258 20.5552C44.0345 20.5552 44.2401 20.7607 44.2401 21.069ZM50.3619 24.3575C50.7219 24.7685 50.7736 25.231 50.5162 25.3338C50.3106 25.4879 49.8476 25.1796 49.4872 24.6144C48.7673 23.484 49.4872 23.2785 50.3619 24.3575Z" fill="black"></path>
<path d="M110.601 19.8893C109.264 20.4031 107.515 22.2529 107.515 23.1778C107.515 24.822 108.132 25.7469 110.447 27.2884C112.299 28.573 112.71 29.1382 112.556 30.2172C112.453 31.2449 112.041 31.6559 111.167 31.7587C110.498 31.8615 109.727 31.7074 109.418 31.3991C108.544 30.5255 108.029 30.731 108.029 31.8615C108.029 34.2765 112.556 34.1737 114.408 31.7074C115.797 29.8062 115.128 28.0592 112.144 25.9524C110.498 24.7707 109.83 23.9485 109.83 23.075C109.83 21.996 110.035 21.8418 111.99 21.7904C114.562 21.739 115.128 21.3794 114.202 20.3003C113.585 19.5296 112.041 19.3754 110.601 19.8893Z" fill="black"></path>
<path d="M117.032 26.466C117.032 33.043 117.084 33.4027 118.061 33.4027C119.038 33.4027 119.09 33.043 119.09 26.466C119.09 19.8376 119.038 19.5293 118.061 19.5293C117.084 19.5293 117.032 19.8376 117.032 26.466Z" fill="black"></path>
<path d="M126.805 20.0405C124.131 20.6571 122.896 21.582 121.867 23.7914C120.632 26.5147 120.632 27.3369 121.918 29.8032C123.205 32.321 125.211 33.4001 128.554 33.4001C135.756 33.4001 138.329 23.8428 131.95 20.7085C130.304 19.8863 128.452 19.6294 126.805 20.0405ZM130.149 21.8389C132.258 22.9179 133.236 24.5622 133.236 27.1313C133.236 30.0088 131.538 31.8586 128.863 31.8586C126.445 31.8586 125.211 31.1392 124.233 29.2894C122.69 26.3092 123.616 22.6096 126.239 21.582C127.834 20.914 128.503 20.9654 130.149 21.8389Z" fill="black"></path>
<path d="M137.505 19.8879C136.991 20.042 136.991 20.4017 137.402 21.1211C137.711 21.7376 137.865 24.5123 137.762 27.8008C137.608 33.3502 137.608 33.4016 138.791 33.4016C139.82 33.4016 139.923 33.2474 139.614 31.3462C139.409 30.2672 139.46 28.2119 139.666 26.8759C139.974 24.6151 140.077 24.5123 140.746 25.4372C144.502 30.6269 147.022 33.4016 147.897 33.4016C148.874 33.4016 148.925 33.0933 148.823 26.619C148.771 20.4531 148.668 19.7851 147.845 19.7851C147.022 19.7851 146.919 20.2989 147.022 24.6665L147.176 29.5479L145.479 27.7494C144.553 26.7218 142.701 24.461 141.363 22.7139C138.894 19.5282 138.688 19.374 137.505 19.8879Z" fill="black"></path>
<path d="M87.1953 26.7188V33.3986H88.4812C89.7159 33.3986 89.7676 33.2445 89.7676 30.4184C89.7676 27.5924 89.8189 27.4896 91.1565 27.3354C92.8024 27.1299 94.6543 25.0232 94.6543 23.3276C94.6543 21.2209 92.9567 20.0391 89.9219 20.0391H87.1953V26.7188ZM92.2881 22.9165C92.6998 24.458 91.4652 26.7188 90.2819 26.7188C89.7159 26.7188 89.5102 26.0509 89.5102 23.9956C89.5102 22.4541 89.6646 21.0667 89.8189 20.9126C90.4362 20.296 91.9795 21.5292 92.2881 22.9165Z" fill="black"></path>
<path d="M98.8219 21.1695C98.5646 21.8375 97.3813 24.5607 96.1984 27.2327C95.0664 29.9046 93.9348 32.4223 93.7805 32.782C93.5748 33.2959 93.8835 33.45 94.9638 33.2959C96.0954 33.1931 96.507 32.782 96.8157 31.4974C97.1757 30.0587 97.4843 29.8532 99.1306 29.6991C100.159 29.5963 101.085 29.288 101.188 28.9797C101.291 28.62 100.88 28.4659 100.108 28.62C98.256 28.9797 97.9473 27.7979 99.1819 25.3315L100.211 23.379L100.725 24.6635C101.034 25.3829 101.702 27.1813 102.32 28.6714C102.937 30.1615 103.4 31.8572 103.4 32.371C103.4 33.1931 103.76 33.3986 104.943 33.3986C106.487 33.3986 106.847 32.9876 106.024 32.114C105.767 31.8057 104.583 28.9797 103.4 25.7939C101.651 21.2723 100.983 20.0391 100.211 20.0391C99.6962 20.0391 99.0789 20.5529 98.8219 21.1695Z" fill="black"></path>
<path d="M64.8695 21.8918C64.8695 22.4569 65.0237 22.611 65.1778 22.2001C65.3319 21.8405 65.2802 21.3781 65.1261 21.224C64.972 21.0186 64.8179 21.3268 64.8695 21.8918Z" fill="black"></path>
<path d="M65.6406 22.8682C65.4865 23.2792 65.5893 23.6387 65.7947 23.6387C66.0517 23.6387 66.3599 23.2792 66.5652 22.8682C66.7193 22.4573 66.6165 22.0977 66.4111 22.0977C66.1541 22.0977 65.8459 22.4573 65.6406 22.8682Z" fill="black"></path>
<path d="M68.3165 27.3352C68.9336 27.9516 69.5508 28.3112 69.7051 28.1571C70.1163 27.7975 68.5221 26.2051 67.7507 26.2051C67.4421 26.2051 67.6477 26.7188 68.3165 27.3352Z" fill="black"></path>
<path d="M67.9046 29.0323C68.264 29.4946 68.6751 29.7001 68.778 29.5973C69.1374 29.2378 68.4182 28.2617 67.8017 28.2617C67.4935 28.2617 67.4935 28.5699 67.9046 29.0323Z" fill="black"></path>
<path d="M68.4189 30.7791C68.4189 31.0359 68.7788 31.3442 69.1904 31.5496C69.6019 31.7037 69.9618 31.601 69.9618 31.3955C69.9618 31.1387 69.6019 30.8304 69.1904 30.625C68.7788 30.4709 68.4189 30.5736 68.4189 30.7791Z" fill="black"></path>
<path d="M29.322 32.7838C27.5216 34.2225 27.7788 37.7162 29.7849 39.7715C30.6594 40.6447 31.3795 41.0558 31.3795 40.7475C31.3795 40.388 31.1737 39.9769 30.8651 39.8227C30.6079 39.6686 30.3507 39.2574 30.3507 38.9492C30.3507 38.5897 30.6079 38.5897 31.0708 39.0008C31.6367 39.4632 31.8424 39.3603 32.151 38.4355C32.3568 37.7676 32.4597 36.9455 32.4597 36.5859C32.4082 36.2776 32.8198 35.9693 33.3855 35.9693C34.6715 35.9693 34.9287 35.5069 34.6201 33.7601C34.3114 32.1673 33.437 31.859 33.437 33.4004C33.437 33.9656 33.2312 34.428 32.9226 34.428C32.6654 34.428 32.4082 33.8628 32.4082 33.1435C32.4082 31.5508 31.0194 31.3966 29.322 32.7838Z" fill="black"></path>
<path d="M69.4476 33.1436C69.807 33.6059 70.2181 33.8114 70.321 33.7087C70.6804 33.3491 69.9611 32.373 69.3447 32.373C69.0365 32.373 69.0365 32.6813 69.4476 33.1436Z" fill="black"></path>
<path d="M16.5127 34.7899C16.5127 35.8686 16.6669 36.3823 16.8212 35.9714C16.9755 35.5604 17.387 34.944 17.7469 34.6357C18.3127 34.2248 18.2612 34.0193 17.4384 33.5056C16.5127 32.9406 16.4612 33.0433 16.5127 34.7899Z" fill="black"></path>
<path d="M35.7531 34.9434C35.9072 35.2002 36.164 35.4571 36.3181 35.4571C36.4209 35.4571 36.5236 35.2002 36.5236 34.9434C36.5236 34.6352 36.2668 34.4297 35.9585 34.4297C35.7017 34.4297 35.599 34.6352 35.7531 34.9434Z" fill="black"></path>
<path d="M56.8448 34.9434C56.9989 35.2002 57.2559 35.4571 57.41 35.4571C57.5129 35.4571 57.6154 35.2002 57.6154 34.9434C57.6154 34.6352 57.3588 34.4297 57.0506 34.4297C56.7936 34.4297 56.6907 34.6352 56.8448 34.9434Z" fill="black"></path>
<path d="M68.3686 35.4547C67.9569 38.7947 68.0082 39.668 68.6772 39.925C69.0885 40.0792 69.2945 40.3875 69.1402 40.6958C68.9859 40.9528 68.5229 41.0553 68.1112 40.9012C67.5969 40.6958 67.3909 40.9012 67.4939 41.4153C67.5969 41.8261 67.031 42.5456 66.2593 43.0593C64.9217 43.8816 64.8191 43.83 64.0987 42.9051C63.4301 42.0319 63.3271 42.0319 63.2758 42.6997C63.2758 43.1622 62.8128 44.1383 62.1955 44.909C61.6295 45.6285 61.3208 46.4505 61.4752 46.7588C61.6295 47.0159 61.4238 47.2729 61.0122 47.2729C60.5492 47.2729 60.1892 47.6325 60.1892 48.0437C60.1892 48.4545 59.3659 49.6877 58.3886 50.8183C57.4113 51.8974 56.588 53.0789 56.588 53.3872C56.588 53.7472 56.3824 53.9013 56.125 53.7472C55.5077 53.336 54.4274 54.7233 54.9421 55.237C55.1477 55.4941 54.8904 55.4941 54.4274 55.3399C53.8101 55.1345 53.5014 55.2887 53.5014 55.7511C53.5014 56.1619 53.0385 56.5218 52.5242 56.5218C51.9582 56.5218 51.3409 56.7785 51.1865 57.0355C50.9809 57.3438 50.6209 57.3951 50.3123 57.2409C49.9519 57.0355 49.9006 57.3438 50.1579 58.1146C50.4666 59.1424 50.4149 59.2449 49.8493 58.6799C49.026 57.9092 48.1517 57.8575 48.666 58.6283C48.8716 59.0395 48.666 59.0907 47.8943 58.8341C47.2257 58.6283 46.8141 58.7312 46.8141 59.0907C46.8141 59.399 46.2998 59.6561 45.6824 59.6048C44.1905 59.5019 42.1842 60.1185 42.1842 60.6839C42.1842 60.9405 41.4639 61.0434 40.5896 60.9405C39.4577 60.7864 39.0977 60.9405 39.3033 61.4546C39.612 62.2766 38.789 62.4308 38.326 61.6088C38.1202 61.3005 37.6058 61.1976 37.1428 61.403C36.7313 61.5571 36.1654 61.403 35.9082 61.0434C35.5995 60.4781 35.4966 60.4781 35.4966 61.0434C35.4966 61.5571 35.2395 61.5571 34.4678 61.1463C33.6447 60.6839 33.5419 60.7351 33.7476 61.403C34.2106 62.5336 33.2846 62.3795 32.5644 61.1976C32.1014 60.4268 31.4841 60.2214 30.0952 60.3756C28.9635 60.4781 28.2947 60.3239 28.3462 59.9644C28.5005 58.7824 28.2947 58.0633 27.8317 58.0633C27.5745 58.0633 27.4716 58.577 27.6774 59.1936C27.9346 60.2727 27.8832 60.3239 27.1115 59.6561C26.6485 59.2965 26.237 58.5258 26.237 58.0117C26.237 57.4467 26.0827 57.0868 25.8255 57.0868C24.3851 57.3438 22.1216 56.9327 22.3788 56.5218C22.5331 56.2135 22.4303 56.0078 22.1731 56.0078C21.8644 56.0078 21.6072 55.6995 21.6072 55.2887C21.6072 54.3638 18.6235 51.1266 18.1605 51.5891C18.0062 51.7432 18.4692 52.4623 19.1894 53.1306C19.961 53.8497 20.5784 54.8775 20.5784 55.3912C20.5784 56.676 22.3788 58.2687 23.3562 57.9092C23.8192 57.7034 24.2822 57.8063 24.4365 58.0633C24.5909 58.2687 24.3851 58.577 24.0764 58.7312C23.562 58.8853 23.562 59.0907 24.1279 59.759C24.488 60.2727 25.0538 60.6322 25.311 60.6322C25.6197 60.6322 26.7514 61.3517 27.8832 62.2254C34.9308 67.826 51.1352 67.4664 57.72 61.6088C58.9546 60.5297 60.2405 59.6048 60.6005 59.6048C60.9092 59.6048 61.2178 59.3478 61.2178 59.0907C61.2178 58.7824 61.6295 58.577 62.0925 58.577C62.7611 58.577 62.8128 58.4229 62.3498 57.9604C61.4239 57.0355 61.6295 56.4189 62.7611 56.7785C63.5844 57.0355 63.7901 56.8814 63.7901 56.0594C63.7901 55.4428 64.15 54.9804 64.5617 54.9804C65.0247 54.9804 65.3333 54.5179 65.3333 53.9013C65.3333 53.1306 65.5907 52.9248 66.1563 53.1306C66.6193 53.2847 66.7736 53.2331 66.6193 52.8735C66.4136 52.5652 66.671 52.0515 67.1853 51.6403C67.9569 51.075 68.0082 50.8183 67.5452 50.3043C67.0309 49.7905 67.0823 49.4823 67.7513 48.7115C68.4199 47.992 68.4712 47.6325 68.0082 47.17C67.2883 46.4505 67.1853 45.2173 67.8539 45.2173C68.1112 45.2173 68.4199 45.7314 68.5742 46.348C68.7799 46.9646 69.0372 47.3754 69.1402 47.2213C69.2945 47.0671 69.1915 46.1422 68.9342 45.1661C68.5229 43.8816 68.5742 43.265 69.0372 42.9051C69.8602 42.2885 70.1688 39.5655 69.4489 39.5655C69.1915 39.5655 68.9342 39.2055 68.9342 38.7431C68.9342 38.3322 69.1915 38.1266 69.4489 38.2808C69.7575 38.4348 69.9632 38.4864 69.9632 38.3835C69.9632 38.0239 68.4199 35.1464 68.3686 35.4547Z" fill="black"></path>
<path d="M111.322 36.0225C110.447 36.2794 109.11 37.1015 108.339 37.8208C107.258 38.9 107.001 39.6708 107.001 41.6231C107.001 43.7812 107.207 44.2952 108.802 45.6826C110.242 46.967 111.116 47.2753 112.917 47.2753C115.643 47.2753 116.775 46.8641 116.775 45.888C116.775 45.3226 116.466 45.2714 115.643 45.5797C111.734 46.9158 109.059 45.2201 109.059 41.3664C109.059 38.2833 110.91 36.7418 114.1 37.2042C115.746 37.4098 116.261 37.307 116.261 36.7932C116.261 36.3821 115.746 35.9711 115.129 35.7655C113.688 35.4059 113.328 35.4059 111.322 36.0225Z" fill="black"></path>
<path d="M140.644 36.1784C138.329 37.206 136.837 39.364 136.837 41.7278C136.837 43.3718 137.197 44.1426 138.586 45.5299C143.473 50.4114 151.601 44.7079 148.411 38.5932C147.64 37.1033 144.862 35.459 143.164 35.459C142.65 35.5104 141.518 35.8187 140.644 36.1784ZM145.788 38.2851C148.771 41.4708 147.28 45.9411 143.267 45.9411C141.209 45.9411 140.026 45.0162 139.101 42.8069C137.249 38.4907 142.65 34.8938 145.788 38.2851Z" fill="black"></path>
<path d="M56.3303 36.4825C56.4844 36.7393 56.8951 36.9962 57.1521 36.9962C57.4603 36.9962 57.5115 36.7393 57.3574 36.4825C57.2033 36.1743 56.7926 35.9688 56.5356 35.9688C56.2274 35.9688 56.1762 36.1743 56.3303 36.4825Z" fill="black"></path>
<path d="M87.2983 39.9249L87.4009 43.9324L89.2527 43.8812C91.6704 43.7783 93.1105 42.4423 93.1105 40.2332C93.1105 37.9211 91.2075 35.9688 88.8928 35.9688H87.1953L87.2983 39.9249ZM90.7445 37.8184C91.876 38.8972 91.7734 40.901 90.5389 42.134C89.0471 43.6241 88.4811 43.0076 88.4811 39.7708C88.4811 36.7908 89.1501 36.2257 90.7445 37.8184Z" fill="black"></path>
<path d="M94.2432 39.9249L94.3975 43.9324H96.4036C97.6381 43.9324 98.5127 43.6754 98.667 43.213C98.8213 42.6993 98.5127 42.5965 97.2781 42.9047C95.838 43.213 95.6837 43.1105 95.6837 41.9287C95.6837 40.9526 95.9406 40.5927 96.6609 40.5927C97.2268 40.5927 97.8441 40.3361 97.9984 40.079C98.204 39.7708 97.7411 39.5654 97.0208 39.5654C95.9406 39.5654 95.6837 39.3084 95.6837 38.2808C95.6837 37.2532 95.9406 36.9963 96.9695 36.9963C97.6898 36.9963 98.2553 36.7394 98.2553 36.4826C98.2553 36.1743 97.3295 35.9688 96.1979 35.9688H94.0889L94.2432 39.9249Z" fill="black"></path>
<path d="M100.312 40.1304V44.2408L102.216 44.0866C104.376 43.9325 105.251 42.6478 103.193 42.6478C101.907 42.6478 101.856 42.5453 101.856 39.3084C101.856 36.6881 101.701 35.9688 101.084 35.9688C100.467 35.9688 100.312 36.7908 100.312 40.1304Z" fill="black"></path>
<path d="M118.216 41.6208C118.061 47.1701 118.061 47.273 119.245 47.273C120.325 47.273 120.376 47.1189 120.376 41.6208C120.376 36.3798 120.325 35.9688 119.399 35.9688C118.473 35.9688 118.37 36.4312 118.216 41.6208Z" fill="black"></path>
<path d="M122.69 41.6208V47.273H125.571C127.732 47.273 128.555 47.0676 128.812 46.451C129.069 45.7828 128.761 45.7315 126.806 46.0398L124.491 46.3481V44.4983C124.491 42.8027 124.594 42.6486 125.983 42.6486C128.143 42.6486 128.504 41.21 126.394 41.0042C124.954 40.85 124.748 40.6446 124.594 39.1544C124.439 37.5102 124.491 37.4589 125.88 37.5616C126.652 37.6644 127.629 37.5616 127.989 37.3561C129.327 36.4826 128.452 35.9688 125.674 35.9688H122.69V41.6208Z" fill="black"></path>
<path d="M130.664 41.6208V47.273H133.442C135.963 47.273 136.837 46.8106 136.837 45.4745C136.837 45.372 135.911 45.4232 134.728 45.5774L132.619 45.8857L132.773 40.9017C132.979 36.0715 132.979 35.9688 131.847 35.9688C130.715 35.9688 130.664 36.1229 130.664 41.6208Z" fill="black"></path>
<path d="M15.7931 42.1365C15.9472 42.7017 16.1527 43.164 16.2554 43.164C16.3582 43.164 16.4609 42.7017 16.4609 42.1365C16.4609 41.5717 16.2554 41.1094 15.9986 41.1094C15.7417 41.1094 15.639 41.5717 15.7931 42.1365Z" fill="black"></path>
<path d="M15.7416 44.6543C15.5875 44.9109 15.793 45.2191 16.2039 45.4249C16.6149 45.579 16.9745 45.4761 16.9745 45.2191C16.9745 44.5515 16.0498 44.0891 15.7416 44.6543Z" fill="black"></path>
<path d="M87.4521 45.9396C87.4521 46.402 87.812 46.7614 88.2749 46.7614C88.7377 46.7614 88.995 46.5044 88.892 46.145C88.5835 45.2203 87.4521 45.0662 87.4521 45.9396Z" fill="black"></path>
<path d="M91.3101 45.7864C90.7965 46.557 91.4642 47.0709 92.1322 46.4029C92.4917 46.0434 92.4917 45.7352 92.1835 45.5298C91.8753 45.3757 91.4642 45.4782 91.3101 45.7864Z" fill="black"></path>
<path d="M94.5 45.528C94.0889 45.9391 94.5512 46.7609 95.2193 46.7609C95.4759 46.7609 95.6816 46.4014 95.6816 45.9903C95.6816 45.2198 95.0652 44.9628 94.5 45.528Z" fill="black"></path>
<path d="M98.2559 45.9912C98.2559 46.4023 98.5128 46.7618 98.7694 46.7618C99.0776 46.7618 99.2834 46.4023 99.2834 45.9912C99.2834 45.5802 99.0776 45.2207 98.7694 45.2207C98.5128 45.2207 98.2559 45.5802 98.2559 45.9912Z" fill="black"></path>
<path d="M101.702 45.528C101.291 45.9391 101.753 46.7609 102.421 46.7609C102.678 46.7609 102.884 46.4014 102.884 45.9903C102.884 45.2198 102.267 44.9628 101.702 45.528Z" fill="black"></path>
<path d="M17.2338 49.84C17.7481 50.4052 18.2624 50.7647 18.4166 50.6106C18.7767 50.3023 17.4909 48.8125 16.8224 48.8125C16.5652 48.8125 16.7195 49.2748 17.2338 49.84Z" fill="black"></path>
<path d="M127.167 50.9716C125.983 52.1534 126.755 56.5204 128.093 56.5204C128.349 56.5204 128.144 55.8526 127.681 55.0303C126.961 53.746 126.909 53.2323 127.424 51.9476C128.093 50.1496 128.041 50.098 127.167 50.9716Z" fill="black"></path>
<path d="M130.973 51.8986C131.694 53.2858 131.694 53.5941 130.973 55.0842L130.15 56.7797L131.179 55.5466C132.311 54.2106 132.465 52.875 131.694 51.3337C130.819 49.7407 130.15 50.2547 130.973 51.8986Z" fill="black"></path>
<path d="M133.699 50.6164C133.545 52.0549 133.699 56.1136 133.956 56.3706C134.11 56.5248 134.264 55.2917 134.264 53.545C134.264 51.7978 134.162 50.3594 134.007 50.3594C133.853 50.3594 133.75 50.4623 133.699 50.6164Z" fill="black"></path>
<path d="M137.867 53.4436C137.867 55.2419 138.021 56.5775 138.175 56.4234C138.535 56.0126 138.535 50.8745 138.175 50.515C138.021 50.3096 137.867 51.6452 137.867 53.4436Z" fill="black"></path>
<path d="M142.034 53.4421C142.034 55.2917 142.24 56.5248 142.6 56.5248C142.908 56.5248 143.011 56.0111 142.806 55.2917C142.6 54.3669 142.754 53.8532 143.371 53.4933C143.886 53.1851 143.989 52.9284 143.68 52.9284C143.32 52.9284 143.011 52.3631 143.011 51.6437C143.011 50.9247 142.806 50.3594 142.548 50.3594C142.291 50.3594 142.034 51.7466 142.034 53.4421Z" fill="black"></path>
<path d="M147.279 53.4438C147.279 55.2936 147.382 56.0644 147.485 55.1395C147.64 54.1633 148.051 53.3926 148.566 53.2897C149.389 53.0843 149.389 53.0326 148.566 52.9814C148.051 52.9301 147.64 52.3648 147.485 51.4912C147.382 50.7204 147.279 51.5941 147.279 53.4438Z" fill="black"></path>
<path d="M71.8145 51.8483C71.0431 52.7217 71.0431 52.8246 71.8658 53.4922C72.6372 54.1087 72.6889 54.1087 72.4317 53.3894C72.2261 52.9271 72.3803 52.2594 72.6889 51.9512C72.9975 51.6429 73.1001 51.2835 72.9458 51.1294C72.8432 50.9753 72.3287 51.2835 71.8145 51.8483Z" fill="black"></path>
<path d="M120.891 52.2072C120.119 54.2109 121.251 56.2663 123.206 56.3688C124.132 56.4204 124.337 56.3688 123.72 56.1634C121.868 55.6498 121.303 54.8791 121.508 52.8237C121.714 50.5117 121.56 50.3575 120.891 52.2072Z" fill="black"></path>
<path d="M69.7051 54.4685C68.7794 55.4448 68.8311 55.496 69.7568 55.496C70.4253 55.496 70.7851 55.1366 70.8368 54.4685C70.8881 53.9037 70.8368 53.4414 70.7851 53.4414C70.6825 53.4414 70.2197 53.9037 69.7051 54.4685Z" fill="black"></path>
<path d="M69.189 57.2408C70.2177 57.9601 70.9891 57.8572 70.9891 56.9838C70.9891 56.7272 70.372 56.5215 69.6005 56.5215C68.2632 56.5215 68.2632 56.5731 69.189 57.2408Z" fill="black"></path>
<path d="M65.8992 59.913C64.7672 61.1978 63.7899 62.4823 63.7899 62.7906C63.7899 63.0989 63.6356 63.2018 63.4299 63.0476C63.2756 62.8418 62.8126 63.0989 62.4523 63.6126C62.0923 64.075 61.372 64.4862 60.8577 64.4862C60.2917 64.4862 59.8804 64.9486 59.7774 65.6165C59.6744 66.4389 59.2631 66.7984 58.4397 66.7984C57.7711 66.7984 56.9482 67.158 56.5878 67.5692C56.2278 67.9804 55.7649 68.237 55.5592 68.0829C55.3532 67.9287 54.9932 68.1858 54.8389 68.6482C54.6846 69.0594 54.3759 69.3161 54.1186 69.2136C53.5013 68.8024 51.8037 70.2926 52.2153 70.8575C52.3697 71.1658 52.3183 71.4229 52.061 71.4229C51.7523 71.4229 51.3924 71.0117 51.1863 70.5493C50.8777 69.676 50.8264 69.676 50.3634 70.5493C49.9517 71.2687 49.6431 71.3716 49.0775 70.8575C48.5115 70.3951 48.3571 70.4467 48.3571 71.0117C48.3571 71.577 47.8942 71.7312 46.7109 71.6283C45.1676 71.4229 45.1676 71.4741 45.9909 72.399C46.7108 73.1698 46.7109 73.4268 46.1452 73.9405C45.7336 74.2488 45.0649 74.403 44.6533 74.2488C44.2416 74.0947 43.573 74.3005 43.213 74.7629C42.6983 75.3795 42.4414 75.4308 41.7724 74.9171C41.1037 74.3517 41.0524 74.403 41.2581 75.0196C41.4124 75.5337 42.081 75.7391 43.2643 75.7391C45.7336 75.5849 47.7911 75.2254 48.2028 74.8654C48.3571 74.66 48.9745 74.5059 49.4887 74.5059C50.0034 74.5059 50.4147 74.3005 50.4147 74.0434C50.4147 73.838 51.032 73.7351 51.7523 73.8893C52.8326 74.0947 53.0383 73.9922 52.7296 73.4781C52.421 72.9644 52.524 72.8615 53.1413 73.1185C53.6556 73.2727 54.0159 73.2214 54.0159 72.9131C54.0159 72.6561 54.7359 72.1424 55.5592 71.8853C56.4335 71.577 57.1025 71.1146 57.1025 70.8063C57.1025 70.5493 57.3081 70.4467 57.5655 70.6009C57.7711 70.755 58.3884 70.4467 58.9027 69.8814C59.3657 69.3677 60.086 69.0594 60.4977 69.2136C60.909 69.3677 61.2176 69.1619 61.2176 68.6482C61.2176 68.1858 60.8577 67.8262 60.3947 67.8262C59.983 67.8262 59.7774 67.5692 59.9317 67.2609C60.1373 66.9526 60.909 66.9013 61.8349 67.0555C63.1213 67.3638 63.3269 67.2609 63.1726 66.4389C63.0696 65.8223 63.2756 65.5652 63.9442 65.6681C64.4072 65.7706 64.8189 65.5652 64.8189 65.2569C64.8189 64.1779 66.6191 62.3281 67.3907 62.5335C68.0597 62.7393 68.0597 62.6877 67.4424 62.2769C66.8251 61.8144 66.8251 61.6086 67.3394 60.9408C67.6994 60.4783 68.2654 60.2729 68.6254 60.4783C68.934 60.6325 68.934 60.4783 68.574 60.0671C67.5968 59.0397 67.7511 58.4744 68.934 58.8339C70.2203 59.2451 70.2716 58.7827 68.9857 58.1148C68.2141 57.6524 67.6994 57.9607 65.8992 59.913ZM56.3309 70.3951C56.4852 70.6521 56.2792 70.9092 55.8679 70.9092C55.4562 70.9092 54.9419 70.6521 54.7876 70.3951C54.6333 70.0868 54.8389 69.8814 55.2506 69.8814C55.6618 69.8814 56.1765 70.0868 56.3309 70.3951Z" fill="black"></path>
<path d="M9.5685 59.3487C9.774 59.7597 9.97947 60.1192 10.0822 60.1192C10.1849 60.1192 10.2877 59.7597 10.2877 59.3487C10.2877 58.9376 10.0822 58.5781 9.774 58.5781C9.51714 58.5781 9.41439 58.9376 9.5685 59.3487Z" fill="black"></path>
<path d="M127.268 59.2985C127.114 59.7096 127.063 60.4801 127.166 60.9937C127.32 61.5589 127.474 61.3019 127.628 60.2232C127.936 58.4767 127.731 58.0657 127.268 59.2985Z" fill="black"></path>
<path d="M148.153 58.8858C148.205 59.7076 149.645 61.968 149.645 61.1458C149.645 60.7351 149.336 59.9129 148.925 59.3994C148.513 58.8342 148.153 58.5776 148.153 58.8858Z" fill="black"></path>
<path d="M130.15 60.3782C130.15 61.0972 130.253 61.6623 130.356 61.6623C130.459 61.6623 130.664 61.0972 130.767 60.3782C130.921 59.6589 130.818 59.0938 130.613 59.0938C130.356 59.0938 130.15 59.6589 130.15 60.3782Z" fill="black"></path>
<path d="M132.979 60.375C132.979 61.043 133.134 61.4537 133.391 61.2996C133.596 61.1971 133.75 60.786 133.75 60.375C133.75 59.9643 133.596 59.5532 133.391 59.4503C133.134 59.2962 132.979 59.7073 132.979 60.375Z" fill="black"></path>
<path d="M135.087 60.3779C135.55 61.0972 136.065 61.6107 136.167 61.4566C136.476 61.1484 135.139 59.0938 134.625 59.0938C134.419 59.0938 134.625 59.6586 135.087 60.3779Z" fill="black"></path>
<path d="M136.837 59.6077C136.837 59.8643 137.094 60.1213 137.35 60.1213C137.659 60.1213 137.864 59.8643 137.864 59.6077C137.864 59.2995 137.659 59.0938 137.35 59.0938C137.094 59.0938 136.837 59.2995 136.837 59.6077Z" fill="black"></path>
<path d="M142.342 60.0177C142.496 60.6341 142.804 61.3022 143.061 61.4563C143.78 61.867 143.626 60.9423 142.753 59.8123C142.085 58.8877 142.033 58.8877 142.342 60.0177Z" fill="black"></path>
<path d="M145.53 60.2767C146.867 61.7153 147.124 61.9207 147.124 61.253C147.124 61.0473 146.456 60.4309 145.684 59.9173L144.296 58.9414L145.53 60.2767Z" fill="black"></path>
<path d="M13.8896 64.2288C13.8896 64.4854 14.1465 64.7424 14.4547 64.7424C14.7115 64.7424 14.8143 64.4854 14.6602 64.2288C14.5061 63.9206 14.2492 63.7148 14.0951 63.7148C13.9924 63.7148 13.8896 63.9206 13.8896 64.2288Z" fill="black"></path>
<path d="M27.2646 72.8069C27.2646 73.0638 27.7275 73.7315 28.2932 74.2455C28.8589 74.759 29.3218 74.9644 29.3218 74.6562C29.3218 74.3996 28.8589 73.7315 28.2932 73.2179C27.7275 72.7044 27.2646 72.4986 27.2646 72.8069Z" fill="black"></path>
<path d="M29.888 74.8158C29.888 75.3806 30.0421 75.5348 30.1962 75.1241C30.3503 74.7642 30.299 74.3019 30.1449 74.1478C29.9907 73.9424 29.8366 74.2507 29.888 74.8158Z" fill="black"></path>
<path d="M33.0264 75.5326C33.0264 76.2515 33.1291 76.5085 33.2832 76.149C33.3859 75.8408 33.3859 75.2244 33.2832 74.8646C33.1291 74.5563 33.0264 74.8133 33.0264 75.5326Z" fill="black"></path>
<path d="M34.467 75.5364C34.8784 75.793 35.7013 76.05 36.2156 76.05C37.5528 76.05 37.1413 75.7417 35.2385 75.3307C34.107 75.0741 33.9013 75.1253 34.467 75.5364Z" fill="black"></path>
</g>
</svg>