<svg width="129" height="45" viewBox="0 0 129 45" fill="none" xmlns="http://www.w3.org/2000/svg">
<mask id="mask0_356_16197" style="mask-type:luminance" maskUnits="userSpaceOnUse" x="0" y="0" width="129" height="45">
<path d="M128.89 0H0V44.4895H128.89V0Z" fill="white"></path>
</mask>
<g mask="url(#mask0_356_16197)">
<path d="M60.3025 0.0924583C60.078 0.191144 60.0241 0.25396 58.9283 1.73425C58.4612 2.35328 58.0301 2.92744 57.9583 3.00819C57.7343 3.22352 57.442 3.35368 57.1319 3.37602C57.0152 3.37602 56.1529 3.19659 55.2188 2.98127C54.6097 2.79947 53.9838 2.67926 53.3506 2.62241C53.1238 2.68424 52.9303 2.83239 52.8117 3.03509C52.8117 3.10686 52.5332 3.86946 52.2817 4.73072C52.0302 5.59198 51.7787 6.37249 51.7249 6.47118C51.5806 6.71267 51.3681 6.90618 51.1141 7.02741C50.7078 7.11363 50.297 7.17653 49.8836 7.2158C49.0162 7.24141 48.1545 7.36481 47.3148 7.58363C47.2052 7.65414 47.1122 7.74764 47.0424 7.85764C46.9726 7.96764 46.9277 8.09149 46.9106 8.2206C46.8387 8.58842 46.9106 8.80373 47.9884 10.3917C48.5363 11.226 49.0303 11.9707 49.0932 12.0424L49.192 12.177L49.5333 11.7015C51.895 8.39618 55.2827 5.96165 59.1708 4.77556C60.5344 4.37276 61.9379 4.12006 63.3564 4.02196H63.8953V1.79706L62.4761 0.980655C61.8937 0.558862 61.248 0.231829 60.563 0.0117188C60.473 0.026911 60.3854 0.0540632 60.3025 0.0924583Z" fill="#146A34"></path>
<path d="M68.1503 0.0563096C68.0785 0.0563096 67.36 0.477968 66.5426 0.953455L65.0605 1.8506V4.00374H65.2402L65.7791 4.05757C69.3681 4.3323 72.8001 5.64123 75.6591 7.82559C77.0874 8.95595 78.3617 10.2678 79.4495 11.7281C79.5491 11.8796 79.6634 12.0208 79.7909 12.1498C79.8358 12.1498 81.9644 8.98286 82.0452 8.78549C82.1175 8.58911 82.1243 8.3746 82.0644 8.17407C82.0045 7.97354 81.8811 7.79778 81.7129 7.67307C81.5063 7.5385 81.1291 7.4757 79.0992 7.25141C78.6988 7.19443 78.3027 7.11051 77.9136 7.00021C77.6383 6.86363 77.41 6.64809 77.2579 6.38118C77.1428 6.08866 77.0467 5.78899 76.9705 5.48403C76.7432 4.61004 76.4643 3.75027 76.1352 2.90922C76.0692 2.80176 75.9746 2.71469 75.862 2.65767C75.7495 2.60065 75.6233 2.57592 75.4975 2.58624C75.2819 2.58624 73.8987 2.89127 72.6682 3.20527C72.2532 3.37194 71.7898 3.37194 71.3748 3.20527C71.0784 3.05276 70.9976 2.97203 70.0724 1.70706C69.0036 0.253678 68.9138 0.146006 68.6892 0.0383487C68.604 -5.53843e-05 68.5111 -0.0183966 68.4177 -0.0152862C68.3243 -0.0121749 68.2328 0.0123225 68.1503 0.0563096Z" fill="#146A34"></path>
<path d="M63.9051 4.90896C59.853 5.04347 55.9812 6.61456 52.9831 9.34081C51.4366 10.7479 50.153 12.4187 49.1928 14.2751C48.96 14.7315 48.756 15.2019 48.582 15.6836C48.582 15.7644 48.7168 15.7554 49.8037 15.5401C51.7168 15.1812 53.4951 14.9211 55.6238 14.6429C56.9621 14.4904 57.0519 14.4636 57.4741 14.0958C59.1101 12.6662 61.1501 11.7791 63.3123 11.5568C64.3335 11.4766 65.3604 11.5066 66.3752 11.6465C67.7935 11.9083 69.144 12.4546 70.3452 13.2525C70.7949 13.5523 71.2239 13.882 71.6295 14.2393C71.7664 14.3629 71.9208 14.4657 72.0876 14.5443C72.1775 14.5443 72.5637 14.625 72.9858 14.6699C74.863 14.8762 77.2791 15.2621 79.3899 15.6748L80.7101 15.926C80.512 15.3788 80.278 14.8453 80.0096 14.329C78.9954 12.3009 77.5879 10.4942 75.8686 9.01416C74.1493 7.53406 72.1528 6.41005 69.9948 5.70742C68.7853 5.32265 67.5391 5.0641 66.2763 4.93588C65.4869 4.88651 64.6955 4.87753 63.9051 4.90896ZM65.0189 6.86474C65.0599 7.06875 65.0839 7.27581 65.0907 7.48377C65.1446 8.38092 65.1625 8.38091 65.3871 7.59142L65.5848 6.8737H65.8901C66.0053 6.87458 66.1199 6.88966 66.2314 6.91856C66.2843 7.19155 66.3233 7.46701 66.3481 7.74393C66.429 8.41679 66.447 8.51548 66.483 8.34502C66.5189 8.17457 66.7613 7.12491 66.7883 6.99931C66.8152 6.87371 66.8421 6.90959 67.1834 6.94548C67.3131 6.95131 67.4422 6.96628 67.5697 6.99033C67.5697 6.99033 66.7794 9.81639 66.7614 9.83433H66.3752H66.0068L65.9529 9.2781C65.8452 8.1656 65.8542 8.17456 65.6476 9.03578L65.468 9.78938H65.0997H64.7045C64.7045 9.78938 64.6057 9.17044 64.4979 8.43475C64.3901 7.69909 64.3004 7.02623 64.2824 6.95446V6.81091H64.6506C64.7756 6.80644 64.9004 6.82468 65.0189 6.86474ZM60.528 7.76189C60.528 7.86057 60.5279 7.88748 60.2584 8.00411C59.989 8.12074 59.9621 8.14765 59.9891 8.26428C60.016 8.38091 60.0788 8.47959 60.3483 8.41679C60.442 8.38886 60.542 8.38886 60.6358 8.41679C60.7283 8.57895 60.7949 8.75453 60.8334 8.93719C60.8334 8.93719 60.7435 9.03587 60.6267 9.08073C60.2854 9.22427 60.2854 9.22427 60.3662 9.42164C60.3863 9.4831 60.4168 9.5407 60.456 9.5921L60.7255 9.51127C60.827 9.47763 60.933 9.4595 61.0399 9.45744C61.1668 9.63579 61.2358 9.84878 61.2375 10.0676C60.8026 10.2459 60.3553 10.3928 59.8992 10.5072C59.8453 10.4534 58.9561 7.81572 59.001 7.76189C59.0459 7.70806 59.3244 7.62732 59.6837 7.51069L60.3483 7.2864L60.4382 7.48377C60.4806 7.58914 60.5166 7.69699 60.5459 7.80673L60.528 7.76189ZM69.5098 7.56452C70.0038 7.70806 70.0038 7.56452 69.5098 9.08073C69.2584 9.82536 69.0427 10.4533 69.0337 10.4622C68.7796 10.4158 68.5302 10.3467 68.2883 10.256C68.2883 10.256 69.1416 7.56452 69.1865 7.51069C69.2314 7.45686 69.1865 7.52861 69.5009 7.60936L69.5098 7.56452ZM71.9618 8.58721C72.2133 8.73075 72.2672 8.78458 72.2492 8.86532C72.2313 8.94607 72.1954 9.17044 72.1505 9.42164C72.1056 9.67285 72.0606 9.92396 72.0516 9.98676C72.0426 10.0496 72.0516 10.0945 72.0516 10.0945C72.1975 9.94926 72.3161 9.77907 72.4019 9.5921C72.4905 9.41501 72.5957 9.2467 72.7164 9.08961C72.8315 9.13743 72.9427 9.1944 73.0487 9.26007C73.2732 9.39464 73.3361 9.45744 73.3181 9.51127C73.3002 9.5651 71.9888 11.8529 71.926 11.9157C71.8631 11.9785 71.8091 11.9156 71.5756 11.808C71.342 11.7003 71.2702 11.6016 71.2702 11.5657C71.2702 11.5298 71.4498 10.3098 71.4947 10.0945C71.4947 10.0227 71.4947 10.0944 71.3959 10.211C71.2971 10.3277 70.8031 11.2338 70.7672 11.2876C70.5463 11.187 70.3331 11.0702 70.1296 10.9378C70.1296 10.9378 70.399 10.4264 70.7493 9.81639C70.9915 9.31973 71.277 8.84541 71.6025 8.39885L71.9618 8.58721ZM58.004 9.69079L58.7675 10.9108C58.8303 11.0095 58.8124 11.0275 58.5519 11.189L58.2106 11.3953C58.2106 11.3953 58.031 11.2339 57.8334 10.9288L57.5191 10.4443L57.3663 10.525C57.2854 10.525 57.2226 10.6237 57.2226 10.6417C57.311 10.8151 57.41 10.9829 57.5191 11.1441L57.8154 11.6107L57.7076 11.7003L57.3843 11.9157C57.2047 12.0234 57.1687 12.0323 57.1148 11.9695C57.0609 11.9067 55.6328 9.64593 55.6328 9.58313C55.6328 9.52033 55.7675 9.43959 55.9382 9.33193L56.2526 9.1255L56.531 9.55622C56.6208 9.70577 56.7198 9.84958 56.8274 9.98676L56.9801 9.90601L57.1239 9.81639C57.1239 9.81639 57.016 9.61005 56.8543 9.35884C56.7508 9.21754 56.6718 9.05983 56.6209 8.89224L56.9622 8.68598C57.1239 8.57833 57.2585 8.51547 57.2854 8.53338L58.004 9.69079ZM54.5011 10.9916L54.6717 11.207L54.5639 11.3594L54.4563 11.5119L55.2106 12.2655L55.9651 13.0191L55.7046 13.2794C55.6168 13.3751 55.5172 13.4595 55.4082 13.5305C55.1339 13.3005 54.8731 13.0548 54.6269 12.7948L53.8903 12.0681L53.7287 12.1938L53.567 12.3193L53.3425 12.0862L53.118 11.8529L53.6837 11.3145C53.8739 11.1238 54.0748 10.9441 54.2855 10.7762C54.3707 10.8477 54.4435 10.9325 54.5011 11.0274V10.9916ZM75.4558 11.1262C75.6231 11.2215 75.763 11.3582 75.8621 11.5232C75.9612 11.6882 76.0161 11.8759 76.0217 12.0681C76.0164 12.2245 75.9765 12.3777 75.9049 12.5167L75.5726 12.3643C75.2852 12.2297 75.2492 12.2027 75.2492 12.0681C75.2492 11.9336 75.1684 11.7362 75.0786 11.7362C74.8626 11.7999 74.6633 11.9101 74.4947 12.0593C74.266 12.2694 74.0958 12.5352 74.0008 12.8308C74.0008 12.9833 74.1893 13.0641 74.3689 12.9833C74.5486 12.9026 74.4947 12.8935 74.4228 12.7051C74.4228 12.7051 74.4228 12.5527 74.5845 12.4181L74.7822 12.2027L75.1054 12.5527C75.5725 13.0461 75.5635 13.0192 75.2761 13.2794C74.5935 13.9074 73.857 13.9163 73.4797 13.2794C73.4169 13.2021 73.3703 13.1131 73.3426 13.0176C73.3148 12.922 73.3065 12.8219 73.3181 12.7231C73.3216 12.5189 73.3663 12.3175 73.4496 12.1308C73.533 11.9443 73.6533 11.7766 73.8031 11.6376C74.324 11.0903 74.9349 10.9019 75.4648 11.1621L75.4558 11.1262Z" fill="#146A34"></path>
<path d="M86.719 6.38963C85.9492 6.45025 85.1987 6.66054 84.5095 7.00866C84.2745 7.17261 84.0908 7.39965 83.9796 7.66355C83.9057 7.9026 83.8605 8.14955 83.8449 8.39922C83.8082 8.95541 83.6776 9.50141 83.4586 10.014C83.106 10.797 82.5511 11.4721 81.8509 11.9699C81.7049 12.0627 81.5694 12.171 81.4467 12.2928C81.3889 12.6787 81.3709 13.0695 81.3928 13.4592C81.4518 13.525 81.5237 13.5781 81.604 13.6152C81.6844 13.6522 81.7714 13.6724 81.8599 13.6745C82.379 13.5855 82.8897 13.4535 83.3868 13.2797C84.9676 12.8043 86.0813 11.638 86.719 9.69116C86.9885 8.91064 86.8089 8.96447 88.8657 8.96447L103.784 9.04521C118.532 9.12596 122.089 9.12596 123.212 9.00036C123.979 8.92894 124.739 8.79697 125.484 8.60561C126.429 8.41559 127.326 8.03391 128.116 7.48414C128.448 7.22397 128.924 6.7126 128.871 6.66774C128.817 6.62288 119.889 6.59597 108.94 6.53317L88.1202 6.39858C87.6352 6.35372 86.9975 6.36271 86.719 6.38963Z" fill="#146A34"></path>
<path d="M30.7706 6.42649L13.0314 6.54313C5.846 6.54313 0.0167575 6.63285 -0.010188 6.65976C-0.0371336 6.68667 0.0616677 6.82125 0.187414 6.97377C1.0856 8.0324 3.1155 8.76807 6.14238 9.0103C7.13039 9.10001 12.1243 9.10001 26.2438 9.0103L39.3034 8.93853H41.7105L41.8093 9.04619C41.9274 9.24455 42.0238 9.45511 42.0967 9.67419C42.4706 10.9384 43.2662 12.0368 44.3512 12.7873C44.8804 13.0885 45.453 13.3065 46.0487 13.4332C46.9469 13.6934 47.1356 13.7024 47.3421 13.514C47.5487 13.3256 47.4589 13.3973 47.432 12.868C47.4434 12.6695 47.4127 12.4709 47.3421 12.2849C46.8305 11.8626 46.3503 11.4038 45.905 10.9122C45.5398 10.4063 45.2635 9.84204 45.0877 9.24356C45.0243 8.94795 44.9822 8.64812 44.9619 8.3464C44.989 7.94454 44.8567 7.54819 44.5937 7.2429C44.1122 6.86325 43.5447 6.60755 42.941 6.49828C42.5189 6.3996 42.4021 6.39062 39.007 6.39062C37.0849 6.3996 33.3754 6.40855 30.7706 6.42649Z" fill="#146A34"></path>
<path d="M4.6342 10.2381C4.8307 10.6274 5.0817 10.9869 5.37968 11.3057C6.3116 12.2484 7.52543 12.8625 8.8377 13.0551C11.034 13.4059 13.2695 13.4391 15.4753 13.1538C16.616 13.0551 16.8315 13.0372 16.8315 12.9923C16.7899 12.9426 16.7378 12.9028 16.6789 12.8757C16.2687 12.5686 15.9029 12.2062 15.5921 11.7991C15.3359 11.4221 15.1334 11.0115 14.9903 10.579L14.9274 10.3637H11.6939C9.47541 10.3637 8.1012 10.3637 7.36469 10.3637C6.33178 10.3188 5.03837 10.2022 4.74197 10.1394C4.60724 10.1304 4.60725 10.1394 4.6342 10.2381Z" fill="#146A34"></path>
<path d="M123.724 10.1938C121.777 10.411 119.817 10.486 117.859 10.4181C114.267 10.4181 113.952 10.4181 113.925 10.5168C113.803 10.8778 113.647 11.2262 113.458 11.5575C113.153 12.0305 112.77 12.449 112.326 12.7955C112.236 12.8486 112.154 12.9152 112.084 12.9929C112.084 12.9929 112.255 13.0557 113.826 13.1903C114.863 13.279 115.903 13.3149 116.943 13.2979C118.091 13.3762 119.243 13.2671 120.356 12.975C121.648 12.7513 122.824 12.0927 123.689 11.1089C123.933 10.8214 124.141 10.505 124.308 10.1669C124.308 10.1669 124.111 10.14 123.724 10.1938Z" fill="#146A34"></path>
<path d="M27.6174 10.293C21.4199 10.3467 16.0757 10.4364 16.0218 10.4813C15.9679 10.5261 16.2733 11.0375 16.5967 11.3784C17.2916 12.0189 18.1243 12.4916 19.0308 12.7601C20.2641 13.1763 21.5482 13.4237 22.848 13.4957C24.9408 13.6303 30.321 13.2535 38.2968 12.4012C39.195 12.3115 39.9046 12.2487 39.9226 12.2576C39.9316 12.2807 39.9316 12.3063 39.9226 12.3294C40.1393 12.8721 40.4038 13.3945 40.713 13.8904C40.9285 14.2055 41.1656 14.5052 41.4225 14.7876C42.0352 15.4796 42.8536 15.9575 43.7578 16.1512L44.4853 16.3307C44.8277 16.4547 45.2028 16.4547 45.5452 16.3307C45.7158 16.2499 45.7428 16.2051 45.8236 15.927C45.86 15.8091 45.8899 15.6892 45.9134 15.5681C45.7927 15.4808 45.655 15.4197 45.5093 15.3887C44.5019 15.0321 43.5956 14.4383 42.867 13.6574C42.1384 12.8766 41.609 11.9317 41.3237 10.9029L41.1171 10.3108H36.4466L27.6174 10.293Z" fill="#146A34"></path>
<path d="M87.6513 10.2898L87.4536 10.8551C87.068 11.9319 86.4931 12.9314 85.7561 13.8067C85.0387 14.5003 84.1769 15.0272 83.2322 15.3498L82.8819 15.4933C82.8806 15.6282 82.905 15.7622 82.9537 15.888L83.0615 16.2469L83.3489 16.3366C83.6633 16.4353 83.7621 16.4263 84.3369 16.2738L85.1094 16.0764C86.2062 15.8055 87.1652 15.1413 87.8039 14.2104C88.165 13.7538 88.4668 13.2534 88.7021 12.7211C88.7679 12.5585 88.8428 12.3998 88.9267 12.2456C88.9267 12.2456 90.0222 12.3174 91.3066 12.452C95.5101 12.8916 98.4921 13.1517 102.291 13.4299C104.047 13.5487 105.81 13.4976 107.555 13.2773C108.969 13.0804 110.332 12.6144 111.57 11.9047C112.046 11.5812 112.45 11.1628 112.755 10.6756C112.805 10.5822 112.841 10.4826 112.863 10.3796C112.863 10.3796 92.8335 10.2091 89.7617 10.2091C89.0575 10.1695 88.3508 10.1965 87.6513 10.2898Z" fill="#146A34"></path>
<path d="M63.2217 12.508C62.2124 12.6285 61.2278 12.9039 60.3026 13.3244C59.8549 13.5499 59.4332 13.8237 59.0451 14.1408L58.9463 14.2484H59.4493C62.1438 14.0959 66.4551 14.1138 69.5718 14.2484H70.0479L69.958 14.1497C69.5301 13.7981 69.063 13.4971 68.5659 13.2526C67.6329 12.8413 66.6424 12.5752 65.6288 12.4631C64.8264 12.4177 64.0218 12.4327 63.2217 12.508Z" fill="#146A34"></path>
<path d="M88.8545 14.5262L88.1719 15.5669H88.2976C88.4054 15.5669 92.627 16.0873 101.474 17.11C102.578 17.1802 103.685 17.1802 104.788 17.11C107.294 16.8319 108.902 15.9617 109.764 14.4186C109.899 14.1853 109.908 14.1225 109.854 14.0866C109.8 14.0507 109.432 14.0866 108.696 14.2302C107.081 14.5831 105.424 14.7159 103.773 14.6249C102.3 14.5531 100.675 14.4545 98.8334 14.3109C97.1628 14.1763 96.4353 14.1135 92.7886 13.7547L89.9414 13.4766H89.5372L88.8545 14.5262Z" fill="#146A34"></path>
<path d="M36.3828 13.7629C28.7393 14.5524 24.4549 14.8126 22.443 14.6152C21.6051 14.5405 20.7735 14.4055 19.955 14.2115C19.4251 14.0769 19.0568 14.05 18.985 14.1128C18.9131 14.1756 19.1197 14.5255 19.4431 14.9561C20.044 15.7395 20.8671 16.324 21.8053 16.6338C23.2404 17.091 24.7476 17.2796 26.2513 17.19C27.41 17.1182 29.3051 16.9119 36.5894 16.0776L40.254 15.6559C40.373 15.65 40.4907 15.6289 40.6043 15.5931C40.6043 15.5931 40.4606 15.2432 39.9935 14.5345L39.3199 13.5117H38.9786C38.8079 13.5297 37.6313 13.6373 36.3828 13.7629Z" fill="#146A34"></path>
<path d="M15.0432 14.3736C13.8794 14.4905 12.7097 14.5384 11.5402 14.5171C10.6677 14.52 9.79659 14.4509 8.9355 14.3108C8.71095 14.3108 8.71095 14.3108 8.9355 14.6966C9.28427 15.1926 9.70507 15.6341 10.184 16.0064C11.5043 16.9484 13.8216 17.4149 16.4174 17.2444C17.3156 17.1906 18.7976 17.0381 19.4443 16.9484L19.8125 16.8946L19.5161 16.6254C18.8984 16.0776 18.4001 15.4089 18.0521 14.6607L17.8275 14.2031H17.5042L15.0432 14.3736Z" fill="#146A34"></path>
<path d="M110.762 14.7074C110.445 15.3524 110.023 15.9405 109.513 16.4479L109.073 16.8875H109.235C109.477 16.8875 111.687 17.1477 112.585 17.2105C114.505 17.412 116.443 17.0863 118.19 16.2684C118.893 15.8777 119.487 15.316 119.914 14.6356L120.175 14.2499H119.941L119.196 14.3665C117.434 14.4966 115.665 14.4816 113.905 14.3216L111.507 14.1602H111.04L110.762 14.7074Z" fill="#146A34"></path>
<path d="M65.1627 15.9697V16.6785H66.483C73.0302 16.8395 79.5293 17.8406 85.821 19.657C92.2102 21.5639 98.3125 24.322 103.965 27.8569C105.034 28.5298 107.161 29.9383 107.314 30.0818C107.467 30.2254 107.315 30.2613 105.896 32.2081C105.07 33.3295 104.414 34.2625 104.432 34.2895L104.961 34.747C105.338 35.0789 105.456 35.1507 105.501 35.0969C105.546 35.0431 106.398 33.8678 107.476 32.4054L109.354 29.8755L109.246 29.7858C108.977 29.5794 107.53 28.5657 106.757 28.0543C101.851 24.7748 96.5682 22.097 91.0219 20.0787C82.9102 17.1096 74.365 15.4941 65.7285 15.2969H65.1357L65.1627 15.9697Z" fill="#146A34"></path>
<path d="M61.2648 15.3427C56.6152 15.4947 51.9887 16.0652 47.4418 17.0473C38.7029 18.8997 30.3656 22.2964 22.8225 27.0774C21.4842 27.9745 19.4902 29.3023 19.4902 29.3651C19.4902 29.4279 22.8944 34.2097 23.2087 34.4878C23.3255 34.5955 23.2896 34.6224 23.8824 34.0841C24.0304 33.9686 24.1579 33.8291 24.2596 33.6713C24.2596 33.6265 21.6189 29.9482 21.4662 29.7598C21.3136 29.5714 21.9962 29.2754 23.2626 28.4769C29.0889 24.7332 35.4186 21.8363 42.0616 19.8733C48.5254 17.9667 55.2102 16.9081 61.9475 16.7243C62.8456 16.7243 63.7438 16.7243 63.8696 16.6795H64.166V16.0873C64.1809 15.8632 64.1809 15.6385 64.166 15.4145C64.166 15.3427 63.9863 15.3337 62.8906 15.3427H61.2648Z" fill="#146A34"></path>
<path d="M37.6135 17.0918C31.6944 17.8274 27.2933 18.3388 26.6197 18.3837C25.6063 18.4241 24.5912 18.3851 23.5838 18.267C22.6856 18.1594 22.6856 18.1504 23.0359 18.5631C23.9341 19.5141 25.2904 20.0524 27.5897 20.3574C29.0362 20.6148 30.5254 20.4785 31.901 19.9627C32.1345 19.8729 34.2453 19.1193 36.5895 18.3029C38.9338 17.4865 40.8918 16.7868 40.9367 16.7598C40.9817 16.7329 40.7661 16.706 37.6135 17.0918Z" fill="#146A34"></path>
<path d="M88.0379 16.7807C88.0828 16.7807 88.936 17.1217 89.969 17.4626C91.8372 18.0816 94.397 18.9608 96.9119 19.84C97.582 20.1437 98.2888 20.3607 99.0137 20.4859C100.238 20.5172 101.463 20.427 102.669 20.2168C103.827 20.0062 104.899 19.4674 105.759 18.6647C106.055 18.3418 106.199 18.1444 106.127 18.1444L105.696 18.2162C104.921 18.3416 104.137 18.3986 103.352 18.3866C102.094 18.3866 99.9298 18.1623 92.1515 17.2024C87.4809 16.6462 87.9211 16.691 88.0379 16.7807Z" fill="#146A34"></path>
<path d="M20.1169 18.0608C18.6446 18.2814 17.1594 18.4042 15.6708 18.4286C14.8894 18.4286 14.0541 18.4286 13.8206 18.4286C13.6808 18.4058 13.5383 18.4058 13.3984 18.4286C13.5823 18.7293 13.8059 19.004 14.0631 19.245C14.8624 19.9896 15.8726 20.469 16.9553 20.6176C18.8622 20.9247 20.8085 20.8912 22.7036 20.519C22.8728 20.4981 23.0407 20.4682 23.2066 20.4292C23.0598 20.2371 22.8976 20.057 22.7216 19.891C22.255 19.4381 21.8719 18.9066 21.5899 18.321C21.4462 18.0339 21.3833 17.9531 21.3025 17.9531L20.1169 18.0608Z" fill="#146A34"></path>
<path d="M107.242 18.3057C106.953 18.8922 106.568 19.426 106.101 19.8846C105.939 20.037 105.789 20.202 105.652 20.3781C105.652 20.4229 105.733 20.4409 106.622 20.5575C108.337 20.8493 110.089 20.8493 111.805 20.5575C112.955 20.4168 114.028 19.9031 114.859 19.0952C115.088 18.8962 115.276 18.6557 115.416 18.3864C115.416 18.3864 114.868 18.3864 114.194 18.3864C113.481 18.4053 112.768 18.3874 112.056 18.3326C110.844 18.2249 107.799 17.92 107.565 17.8931C107.332 17.8661 107.449 17.9109 107.242 18.3057Z" fill="#146A34"></path>
<path d="M56.4125 18.0338C55.5764 18.1745 54.7767 18.4794 54.0595 18.9309C53.5827 19.266 53.1838 19.6996 52.8895 20.2023C52.5952 20.7049 52.4125 21.2648 52.3538 21.8441C52.2949 22.4234 52.3615 23.0086 52.5488 23.5599C52.7363 24.1112 53.0401 24.616 53.4398 25.0399C54.0792 25.7315 54.9462 26.1708 55.8826 26.2778C57.5384 26.4686 59.2156 26.2276 60.7503 25.5781C61.2892 25.3269 61.873 24.9233 61.873 24.7977C61.8341 24.7208 61.7825 24.651 61.7203 24.5914C61.5766 24.4299 61.5676 24.385 61.5227 23.8737C61.5227 23.5777 61.5227 23.1202 61.5227 22.851V22.3666L61.7203 22.2679C61.8281 22.2141 61.9179 22.1334 61.9269 22.0975C61.9269 21.9001 61.9269 21.9001 59.8882 22.0257C59.1899 22.0952 58.4879 22.1191 57.7866 22.0975C57.6941 22.0594 57.6157 21.9935 57.5621 21.9091C57.4723 21.7476 57.4453 21.7387 57.3286 21.8194C57.2118 21.9002 57.2477 21.936 57.3286 22.8241C57.3824 23.3444 57.4363 23.775 57.4453 23.784C57.4543 23.793 57.7058 23.6853 57.7058 23.5866C57.7097 23.5136 57.7359 23.4436 57.7809 23.3859C57.8258 23.3281 57.8874 23.2855 57.9572 23.2637C58.6411 23.166 59.3322 23.127 60.0229 23.1471C60.0646 23.3658 60.0826 23.5883 60.0768 23.8109V24.4299L59.7894 24.5465C59.2557 24.7208 58.7092 24.8528 58.1548 24.9412C57.5235 25.033 56.8822 25.033 56.2508 24.9412C55.6249 24.8247 55.0604 24.4904 54.6576 23.9979C54.2548 23.5052 54.0397 22.8859 54.0505 22.25C54.0019 21.8816 54.0408 21.5069 54.1641 21.1562C54.2873 20.8056 54.4914 20.4889 54.76 20.2316C55.4012 19.6518 56.2225 19.3098 57.0861 19.2628C57.9085 19.192 58.7366 19.2896 59.5199 19.5498C59.8702 19.6665 60.0139 19.801 60.0588 20.0253C60.1037 20.2495 60.1486 20.2675 60.2923 20.2675C60.436 20.2675 60.454 20.097 60.7953 19.2628C61.0198 18.7156 61.2084 18.2401 61.2084 18.2132C61.2084 18.1863 60.9928 18.1235 60.921 18.2132C60.8491 18.3029 60.5168 18.285 60.0229 18.2132C58.8352 17.9724 57.6181 17.912 56.4125 18.0338Z" fill="#146A34"></path>
<path d="M69.9671 18.0152C69.2365 18.1298 68.5507 18.4398 67.9822 18.9123C67.7837 19.1016 67.6255 19.3292 67.5176 19.5813C67.4095 19.8334 67.3538 20.1048 67.3538 20.379C67.3538 20.6532 67.4095 20.9246 67.5176 21.1767C67.6255 21.4288 67.7837 21.6564 67.9822 21.8457C68.5481 22.3929 69.1228 22.5723 71.871 23.0478C73.0476 23.2541 73.775 23.5142 73.9547 23.7923C74.0044 23.8621 74.0393 23.9414 74.0573 24.0252C74.0753 24.109 74.0758 24.1957 74.0589 24.2797C74.0421 24.3637 74.0083 24.4433 73.9594 24.5138C73.9106 24.5843 73.8479 24.644 73.775 24.6894C73.3072 24.9406 72.7782 25.0556 72.2482 25.0213C71.2364 25.0832 70.2254 24.8856 69.3114 24.4472C68.898 24.2984 68.5384 24.0298 68.2786 23.6757L68.0721 23.3976L67.5691 24.2947C67.0033 25.3263 67.0033 25.3532 67.4524 25.3084C67.6527 25.2946 67.8519 25.3483 68.0182 25.4609C69.4692 26.1245 71.0582 26.432 72.6524 26.3579C73.3916 26.3615 74.1221 26.199 74.7899 25.8825C75.236 25.6953 75.5973 25.3503 75.8047 24.9137C75.9621 24.6165 76.0443 24.2854 76.0443 23.9493C76.0443 23.6132 75.9621 23.2822 75.8047 22.985C75.5597 22.5982 75.2113 22.2876 74.7989 22.0879C73.7399 21.6317 72.6208 21.3296 71.4759 21.1908C70.9315 21.1309 70.4006 20.9824 69.9042 20.7513C69.3384 20.4732 69.2216 20.0695 69.5988 19.7107C70.0301 19.4154 70.5508 19.279 71.0717 19.3249C72.2965 19.2623 73.5079 19.6027 74.5205 20.2938C74.6443 20.3587 74.7532 20.4491 74.8398 20.5588C74.9265 20.6685 74.9891 20.7952 75.0234 20.9307C75.0497 21.0205 75.0957 21.1032 75.1581 21.1729C75.4068 20.9742 75.6328 20.7485 75.8317 20.5001L76.5861 19.6568C76.7837 19.4505 76.7118 19.3698 76.3436 19.3429C75.9917 19.2866 75.6536 19.1649 75.3467 18.984C74.3888 18.4981 73.3571 18.1738 72.2932 18.0242C71.5198 17.9482 70.741 17.9452 69.9671 18.0152Z" fill="#146A34"></path>
<path d="M77.5305 18.4222C77.5305 18.4222 77.4137 18.8976 77.261 19.4538C77.1084 20.01 77.0186 20.4585 77.0186 20.4585C77.0186 20.4585 77.306 20.4585 77.3778 20.3867C77.4496 20.315 77.7101 20.2612 78.8148 20.5303L79.8835 20.7725C79.9284 20.7725 79.9643 20.7725 79.9643 20.8891C79.9643 21.0057 78.68 26.738 78.6082 26.8905C78.5724 26.9597 78.5159 27.0162 78.4465 27.052C78.3477 27.0968 78.24 27.2762 78.2939 27.33L79.3985 27.5993L80.4763 27.8503V27.7427C80.473 27.6475 80.4383 27.556 80.3775 27.4826L80.2697 27.33L80.8535 25.0515C81.5091 22.45 81.8234 21.2659 81.8504 21.23C82.6523 21.4183 83.4413 21.6581 84.2124 21.9476C84.2638 21.9916 84.2987 22.0517 84.3112 22.1181C84.3112 22.2526 84.4279 22.3782 84.5357 22.3424C84.6435 22.3065 84.6884 22.1091 84.9129 21.3556L85.2183 20.3419C85.2183 20.2432 84.9488 20.2701 84.7962 20.3867C84.6435 20.5034 84.7962 20.5392 82.9999 20.0638L80.0721 19.3372C79.0213 19.086 78.1142 18.8438 78.0514 18.8079C77.972 18.7474 77.91 18.6669 77.8718 18.5747C77.855 18.5152 77.8199 18.4624 77.7716 18.4239C77.7233 18.3852 77.6641 18.3627 77.6023 18.3594C77.6023 18.3594 77.5305 18.4042 77.5305 18.4222Z" fill="#146A34"></path>
<path d="M49.6338 19.2845C48.4482 19.5177 48.4392 19.5267 48.5021 19.6254C48.562 19.6933 48.6398 19.743 48.7266 19.7689C48.8145 19.7974 48.8923 19.8503 48.9512 19.9214C49.023 20.0201 49.2835 21.2133 49.7505 23.5639C49.8493 24.0304 49.9302 24.461 49.9571 24.6135V24.8199L48.053 23.6087L45.1788 21.7606L44.1998 21.1326V20.8724C44.1998 20.6481 44.1998 20.6122 44.1189 20.6392L42.8255 20.9801C42.1609 21.1505 41.613 21.303 41.604 21.321C41.595 21.3389 41.7118 21.5363 41.8375 21.5632C41.8841 21.5736 41.9274 21.5954 41.9635 21.6268C41.9997 21.6581 42.0273 21.698 42.0441 21.7426C42.1968 22.0656 44.1908 28.4174 44.1908 28.5699C44.1908 28.7224 44.1908 28.7404 44.1459 28.7583C44.1121 28.8086 44.0963 28.8686 44.101 28.9288C44.101 29.0454 44.101 29.0723 44.1908 29.0454L45.2417 28.7224C45.7716 28.561 46.2207 28.4264 46.2297 28.4084C46.2386 28.3905 46.1129 28.238 45.9602 28.1752C45.8746 28.1378 45.8026 28.0752 45.7536 27.9958C45.6997 27.8613 44.4243 23.51 44.3794 23.2768C44.3345 23.0435 44.3794 23.1153 44.4333 23.1422C44.4872 23.1691 49.9751 26.677 50.1188 26.8115C50.2625 26.9461 50.2535 26.9371 50.1727 27.0717C50.0919 27.2063 50.1188 27.3678 50.1727 27.3678L51.3313 27.1524L52.4541 26.9371C52.499 26.9371 52.3104 26.659 52.2475 26.6321C52.1835 26.5833 52.1339 26.5182 52.1038 26.4437C52.014 26.2643 50.6757 19.8856 50.6757 19.6702C50.6812 19.5727 50.7156 19.4791 50.7745 19.4011C50.8823 19.2576 50.8912 19.1409 50.7745 19.0781C50.3881 19.1075 50.0059 19.1766 49.6338 19.2845Z" fill="#146A34"></path>
<path d="M64.3259 20.334C64.1201 20.3821 63.9282 20.4766 63.7648 20.6103C63.6014 20.7441 63.4707 20.9134 63.383 21.1053C63.2625 21.3898 63.259 21.7103 63.3733 21.9973C63.4876 22.2843 63.7105 22.5149 63.9936 22.6391C64.1903 22.743 64.4098 22.796 64.6323 22.7932C64.8548 22.7905 65.0729 22.732 65.2668 22.6231C65.4608 22.5141 65.6243 22.3583 65.7423 22.17C65.8603 21.9816 65.929 21.7666 65.9422 21.5448C65.9272 21.2071 65.7863 20.8871 65.5471 20.6479C65.3809 20.5063 65.1845 20.4043 64.9728 20.35C64.7612 20.2955 64.5399 20.2901 64.3259 20.334Z" fill="#146A34"></path>
<path d="M24.1062 21.3537L23.1092 21.5869C21.4449 22.0382 19.7219 22.2348 17.9985 22.1701C17.0105 22.1701 16.2021 22.1701 16.2021 22.1701C16.4471 22.5551 16.75 22.9002 17.1003 23.1928C17.6189 23.605 18.2142 23.91 18.8518 24.09C20.7952 24.7697 22.9252 24.6832 24.8068 23.8478C26.1524 23.3458 27.4338 22.6862 28.6241 21.883L28.7678 21.7663L28.642 21.7215C28.2258 21.6528 27.806 21.6078 27.3846 21.5869C26.7648 21.5869 25.9205 21.4703 25.5163 21.4165C25.0507 21.3377 24.577 21.3166 24.1062 21.3537Z" fill="#146A34"></path>
<path d="M102.708 21.4328C102.106 21.5136 101.298 21.5853 100.912 21.6033C99.9686 21.6033 99.9327 21.675 100.427 22.016C102.316 23.2921 104.462 24.1403 106.714 24.501C107.539 24.5239 108.365 24.4548 109.175 24.2947C110.23 24.1436 111.211 23.6705 111.986 22.94C112.337 22.6081 112.696 22.1685 112.642 22.1236C112.588 22.0788 112.175 22.1236 111.636 22.1236C109.674 22.2445 107.706 22.0475 105.807 21.5405C104.799 21.2467 103.734 21.2098 102.708 21.4328Z" fill="#146A34"></path>
<path d="M39.464 21.9287C38.2785 22.3414 38.2067 22.3683 38.2336 22.4669C38.2606 22.5656 38.3234 22.5746 38.4402 22.5836C38.7815 22.5836 38.8084 22.6284 38.9072 22.8975C39.3114 23.983 41.1884 29.473 41.1884 29.5807C41.1771 29.6791 41.1327 29.7708 41.0627 29.8408C40.9729 29.9395 40.9459 30.0023 40.9729 30.0741C40.9998 30.1458 41.0178 30.1728 41.0447 30.1638L42.2392 29.6973C43.3439 29.2667 43.3977 29.2398 43.3708 29.1322C43.3439 29.0245 43.3259 29.0155 43.1642 29.0155C43.1171 29.0184 43.0698 29.012 43.0251 28.9966C42.9804 28.9813 42.9392 28.9572 42.9038 28.9258C42.805 28.8182 40.5507 22.2875 40.5507 22.1081C40.5507 21.9287 40.7034 21.7762 40.8022 21.7762C40.901 21.7762 40.8022 21.6058 40.8022 21.543C40.3412 21.6126 39.8914 21.7423 39.464 21.9287Z" fill="#146A34"></path>
<path d="M87.2648 21.8549C86.5432 21.9041 85.8501 22.1548 85.2642 22.5782C84.6783 23.0017 84.2232 23.5809 83.9507 24.2501C83.7198 24.7779 83.6152 25.3523 83.6454 25.9276C83.6225 26.2916 83.6682 26.6568 83.7802 27.0041C84.0847 28.0517 84.7743 28.9458 85.711 29.5069C86.3144 29.8937 86.9938 30.1468 87.7034 30.2488C88.413 30.351 89.1362 30.2999 89.824 30.0989C90.3413 29.9429 90.8218 29.6835 91.2349 29.3365C91.649 28.9896 91.9875 28.5623 92.2309 28.0805C92.6225 27.292 92.7689 26.4051 92.653 25.5329C92.4833 24.7415 92.0827 24.0178 91.5035 23.4517C90.7401 22.6458 89.7288 22.1185 88.6299 21.9536C88.1795 21.8734 87.722 21.8404 87.2648 21.8549ZM89.0071 23.4965C89.7279 23.7575 90.3368 24.2579 90.7311 24.9139C90.9879 25.3135 91.1083 25.7858 91.0724 26.2595C91.1029 26.7654 90.9502 27.2655 90.6413 27.6679C90.3889 28.0204 90.0575 28.3099 89.6749 28.5137C89.2914 28.7175 88.8664 28.8302 88.4323 28.843C87.9939 28.878 87.5532 28.8159 87.1417 28.6608C86.7303 28.5057 86.3582 28.2616 86.0523 27.946C85.7728 27.6903 85.5488 27.3801 85.3944 27.0345C85.2399 26.6887 85.1582 26.315 85.1542 25.9366C85.155 25.6009 85.2238 25.2689 85.3566 24.9605C85.4893 24.6521 85.6832 24.3739 85.9266 24.1424C86.2016 23.8648 86.5359 23.6528 86.9045 23.5224C87.2731 23.3918 87.6664 23.3463 88.0551 23.3889C88.3764 23.3584 88.7007 23.3951 89.0071 23.4965Z" fill="#146A34"></path>
<path d="M37.1568 22.8421L36.1239 23.3176C35.8454 23.4521 35.8275 23.4701 35.8814 23.5508C35.9322 23.6186 36.0005 23.6713 36.079 23.7033C36.3215 23.802 36.2945 23.7033 36.546 26.3948C36.6538 27.5341 36.7526 28.5748 36.7616 28.7094C36.7706 28.844 36.7616 28.9427 36.7077 28.8799C36.6538 28.8171 34.1299 26.1884 33.5371 25.5156C33.2676 25.2195 33.2587 25.1926 33.2676 24.9683C33.2898 24.877 33.2898 24.7815 33.2676 24.6902C32.8828 24.8182 32.51 24.9804 32.1539 25.1747C31.103 25.695 31.085 25.704 31.13 25.8206C31.1459 25.8541 31.1685 25.884 31.1963 25.9087C31.2241 25.9334 31.2565 25.9522 31.2916 25.9641C31.3724 25.9974 31.439 26.0577 31.4803 26.1346C31.4803 26.2153 31.7228 27.2919 31.9383 28.512C32.3964 31.2035 32.3784 31.1138 32.3335 31.0958C32.2886 31.0779 29.2707 28.3416 28.8576 27.9379C28.4444 27.5341 28.5522 27.6328 28.5701 27.4534C28.5926 27.365 28.5926 27.2725 28.5701 27.1843C28.5701 27.1035 28.5162 27.1125 28.3276 27.1843C27.6741 27.5187 27.0696 27.9414 26.5312 28.4403C26.6025 28.5006 26.6848 28.5463 26.7738 28.5748C27.0522 28.6825 26.9265 28.5748 29.0641 30.4588C31.8755 32.917 32.5132 33.4912 32.594 33.6168C32.6188 33.6556 32.632 33.7008 32.632 33.7469C32.632 33.793 32.6188 33.8381 32.594 33.877C32.5734 33.9108 32.5625 33.9495 32.5625 33.9891C32.5625 34.0287 32.5734 34.0675 32.594 34.1013C32.6479 34.182 32.7287 34.1013 33.564 33.6617C34.058 33.3746 34.4622 33.1234 34.4622 33.1054C34.4622 33.0875 34.3904 32.9709 34.2646 32.8542C34.145 32.7421 34.0528 32.6039 33.9952 32.4505C33.8874 32.0558 33.1688 27.7315 33.1688 27.4534C33.1688 27.4085 33.1688 27.3637 33.2317 27.3637C33.2946 27.3637 34.2736 28.3775 36.3035 30.5037L36.9951 31.2304V31.5175C36.9951 31.7059 36.9951 31.8046 36.9951 31.8315C37.343 31.7192 37.6798 31.575 38.0011 31.4008C38.7915 31.0151 38.9621 30.9164 38.8993 30.8446C38.8636 30.7742 38.8027 30.7196 38.7286 30.6921C38.6448 30.6564 38.5709 30.601 38.513 30.5306C38.1677 28.0199 37.9608 25.4921 37.8933 22.9587C37.9188 22.8042 37.9188 22.6467 37.8933 22.4922C37.8933 22.4922 37.552 22.6537 37.1568 22.8421Z" fill="#146A34"></path>
<path d="M94.1288 24.3119C94.1288 24.3747 94.1288 24.4465 94.3174 24.5901C94.506 24.7336 94.5419 24.8143 94.5419 24.8591C94.5419 24.904 91.5959 31.2469 91.4791 31.3815C91.3624 31.516 91.3624 31.4801 91.1468 31.4532C90.9312 31.4263 90.8235 31.4531 90.8145 31.5877C90.8055 31.7223 93.1408 32.781 93.2216 32.781C93.3025 32.781 93.2845 32.781 93.3024 32.6823C93.3204 32.5836 93.3025 32.5477 93.1857 32.4491C93.1156 32.3934 93.0626 32.3187 93.033 32.2337C93.033 32.2337 93.3204 31.5878 93.6617 30.897L94.2905 29.641L94.8833 29.946L96.3024 30.6996C97.1961 31.2355 98.1652 31.6346 99.1766 31.8839C99.6194 31.92 100.063 31.8221 100.449 31.6029C100.836 31.3836 101.146 31.0532 101.341 30.6548C101.537 30.2665 101.621 29.8317 101.584 29.3987C101.575 29.1124 101.504 28.8314 101.377 28.5746C101.25 28.3177 101.07 28.0909 100.847 27.9095C100.403 27.4302 99.8763 27.0324 99.2934 26.7342C97.6542 25.8 95.9656 24.9525 94.2366 24.1953C94.2087 24.2008 94.1836 24.2151 94.1638 24.236C94.1449 24.257 94.1324 24.2836 94.1288 24.3119ZM96.2934 26.797C96.8054 27.0572 97.9281 27.6942 98.5299 27.9902C98.9817 28.2065 99.385 28.5117 99.7155 28.8874C99.8026 29.1119 99.8098 29.3589 99.7388 29.5885C99.667 29.8181 99.5197 30.0168 99.3203 30.1524C99.1676 30.251 99.1137 30.2599 98.8173 30.242C98.5182 30.2169 98.229 30.1216 97.973 29.9639C96.9401 29.4435 95.027 28.4028 95.009 28.34C95.2542 27.7306 95.5551 27.145 95.9072 26.5907C96.041 26.6499 96.1704 26.7189 96.2934 26.797Z" fill="#146A34"></path>
<path d="M62.2429 27.1406C50.4677 27.5802 39.4111 31.2226 28.7765 38.1665L27.9682 38.6869C27.4247 38.06 26.9235 37.3976 26.4682 36.7042L24.9233 34.5959C24.8605 34.5152 24.8245 34.5421 24.3575 34.9548C24.1719 35.1033 24.0033 35.2718 23.8545 35.4572C23.8545 35.4572 27.4472 40.4812 27.546 40.6158C27.8915 40.4396 28.2218 40.2355 28.534 40.0057C35.0863 35.4617 42.4077 32.1396 50.1444 30.1999C54.4047 29.1828 58.7617 28.6233 63.1411 28.5312H64.1381V27.1406H63.6711H62.2429Z" fill="#146A34"></path>
<path d="M65.1699 27.8145V28.5053H66.14C76.626 28.912 86.8318 32.0011 95.7804 37.4768C97.0289 38.2214 98.987 39.5133 100.271 40.4015C100.747 40.7424 101.17 41.0115 101.17 41.0026C101.439 40.6975 104.87 35.9606 104.852 35.9247C104.534 35.5998 104.192 35.2998 103.828 35.0276L102.346 37.0282C101.547 38.1137 100.864 39.0109 100.846 39.0199C100.828 39.0288 100.253 38.67 99.5798 38.2214C97.1268 36.5549 94.5643 35.0562 91.9093 33.7357C85.8178 30.6532 79.2652 28.5807 72.5081 27.5992C70.272 27.2862 68.0199 27.1005 65.7626 27.043H65.1789L65.1699 27.8145Z" fill="#146A34"></path>
<path d="M61.7475 29.7706C60.8114 29.7833 59.8775 29.8673 58.9541 30.0217C59.2527 30.3136 59.5914 30.5613 59.9601 30.7574C61.4298 31.6025 63.1088 32.0147 64.8033 31.9464C66.4976 31.8781 68.138 31.3321 69.5347 30.3717L69.9659 30.0487L69.6066 29.9949C66.9941 29.7566 64.3694 29.6817 61.7475 29.7706Z" fill="#146A34"></path>
<path d="M55.5961 30.3267C53.5572 30.6227 52.2638 30.865 50.2878 31.3046C50.1441 31.3046 50.0273 31.3853 50.0273 31.4032C50.1366 31.6058 50.2596 31.8007 50.3956 31.9864C52.7663 35.4111 56.3037 37.8569 60.3475 38.8675C61.7313 39.226 63.1575 39.395 64.5869 39.3699C65.6568 39.3861 66.7257 39.2899 67.7755 39.0828C72.1478 38.2503 76.0287 35.7625 78.6076 32.1389C78.922 31.6993 79.0028 31.5558 78.9489 31.5289C78.895 31.502 77.6016 31.1879 76.5238 30.9726C74.8173 30.6317 72.3113 30.228 71.8622 30.228C71.4131 30.228 71.4581 30.228 70.9102 30.6766C69.7949 31.5576 68.5112 32.2018 67.1378 32.5695C66.2584 32.7985 65.3519 32.9071 64.4432 32.8925C62.0637 32.9061 59.7508 32.1087 57.8865 30.6318C57.4553 30.2998 57.2218 30.1831 56.9883 30.1921C56.9344 30.1831 56.2967 30.2639 55.5961 30.3267ZM56.4943 31.3225C56.68 31.4738 56.8542 31.6387 57.0152 31.8159C56.9597 31.9152 56.8902 32.0059 56.8086 32.0851L56.6021 32.3094L56.3146 32.094L56.0362 31.8787L55.9284 32.0492L55.8206 32.2196L55.9194 32.3004L56.144 32.4708L56.2608 32.5785L56.0272 32.8387L55.7937 33.1078L55.5691 32.9194L55.3446 32.74L55.1829 32.9015L55.0213 33.063L55.2817 33.2783L55.5512 33.4937L55.4614 33.6282C55.3863 33.7229 55.3053 33.8128 55.2189 33.8973L55.0751 34.0408L54.5542 33.5654C54.3668 33.4062 54.1926 33.2323 54.0332 33.0451C54.0332 32.9913 55.9015 30.9008 55.9554 30.8919C56.1457 31.0347 56.3258 31.1905 56.4943 31.3585V31.3225ZM73.1107 31.6903L73.3532 31.9864L73.1107 32.0313C72.8323 32.0852 72.7245 32.1927 72.8143 32.3273C72.9041 32.4619 72.958 32.417 73.2724 32.4439C73.4393 32.4249 73.6083 32.4468 73.7649 32.5078C73.9213 32.5687 74.0606 32.667 74.1706 32.7938C74.2754 32.9205 74.347 33.0712 74.3787 33.2324C74.4104 33.3936 74.4013 33.5602 74.3523 33.7171C74.3031 33.874 74.2157 34.0161 74.0976 34.1306C73.9797 34.245 73.8349 34.3284 73.6766 34.3728C73.5418 34.4266 73.5329 34.4266 73.3263 34.1934C72.985 33.8076 72.985 33.7986 73.2724 33.7358C73.5598 33.673 73.5329 33.6461 73.5688 33.5564C73.6047 33.4667 73.479 33.2514 73.1017 33.2514C72.9733 33.2637 72.8438 33.25 72.7207 33.2112C72.5977 33.1724 72.4838 33.1093 72.3857 33.0255C72.2876 32.9418 72.2075 32.8392 72.1499 32.7239C72.0924 32.6086 72.0587 32.4829 72.0508 32.3542C72.0333 32.2553 72.0406 32.1536 72.072 32.0582C72.1032 31.9626 72.1577 31.8764 72.2305 31.807C72.4012 31.6239 72.6185 31.4905 72.8592 31.4212C72.9608 31.5127 73.0486 31.6185 73.1197 31.7352L73.1107 31.6903ZM58.3266 32.6951L58.6859 32.9015V33.1616C58.6684 33.2475 58.6684 33.336 58.6859 33.4218C58.7632 33.3793 58.8355 33.3282 58.9014 33.2694L59.099 33.1168L59.4942 33.3142L59.8894 33.5115L59.3325 33.9242C59.0272 34.1485 58.7487 34.3728 58.7128 34.4176C58.5959 34.9698 58.5297 35.5313 58.5152 36.0953C58.3776 36.0655 58.2467 36.0108 58.129 35.9338C57.8505 35.7813 57.7428 35.7095 57.7607 35.6557C57.7852 35.5372 57.8032 35.4173 57.8146 35.2969V35.0098L57.5182 35.2341L57.2308 35.4673L56.8715 35.2789C56.6739 35.1802 56.5302 35.0726 56.5392 35.0457C56.7284 34.8706 56.9295 34.7087 57.141 34.5612C57.8326 34.0408 57.8326 34.0498 57.8775 33.1258C57.878 32.9213 57.896 32.7172 57.9314 32.5157L58.3266 32.6951ZM70.991 33.0899C71.1257 33.3321 71.1437 33.3859 71.0808 33.4218L70.8922 33.5564L70.7754 33.6551L71.2515 34.5522C71.5119 35.0726 71.7185 35.5211 71.7185 35.5481C71.6197 35.6412 71.5038 35.7143 71.3772 35.7634L71.0449 35.9338L70.5509 34.9649L70.0569 33.9961H69.8952L69.6707 34.0499C69.6707 34.0499 69.5449 33.9422 69.4551 33.7538L69.3024 33.4398L70.0209 33.0809C70.4162 32.8835 70.7575 32.722 70.7754 32.722C70.7934 32.722 70.9102 32.9643 71 33.1258L70.991 33.0899ZM61.1918 33.987C61.5706 34.0618 61.9329 34.2047 62.2606 34.4087C62.433 34.5553 62.5436 34.7615 62.5702 34.9861C62.5968 35.2106 62.5376 35.4371 62.4043 35.6199C62.2337 35.9788 62.0451 36.0774 61.5062 36.0863H61.111L60.9942 36.499C60.9223 36.7233 60.8684 36.9207 60.8595 36.9297C60.6211 36.9097 60.3858 36.8616 60.1589 36.7861C60.1941 36.3196 60.2845 35.8588 60.4283 35.4135C60.8235 33.7717 60.7876 33.8794 60.8595 33.9152L61.1918 33.987ZM68.0449 34.1306C68.1726 34.1824 68.288 34.2604 68.3837 34.3594C68.4795 34.4585 68.5534 34.5764 68.6007 34.7056C68.6482 34.8349 68.6679 34.9726 68.6589 35.1101C68.6497 35.2474 68.612 35.3814 68.5479 35.5032C68.501 35.5672 68.4618 35.6364 68.4312 35.7095C68.5515 35.8856 68.6836 36.0535 68.8264 36.2119C68.9677 36.365 69.0911 36.5336 69.1946 36.7143C68.9509 36.8017 68.702 36.8737 68.4491 36.9297C68.3159 36.7904 68.1984 36.637 68.0988 36.4721C68.003 36.3148 67.8917 36.1676 67.7665 36.0325C67.7776 36.1874 67.8047 36.3408 67.8473 36.4901C67.8889 36.6527 67.9219 36.8174 67.9461 36.9835C67.9461 36.9835 67.8114 37.0823 67.5779 37.1361C67.4546 37.1714 67.3283 37.1954 67.2006 37.2078C67.2006 37.2078 67.039 36.5618 66.8504 35.7813C66.7003 35.3153 66.6039 34.8337 66.5629 34.3459C66.6617 34.3459 67.6767 34.0947 67.7755 34.0857C67.8639 34.0898 67.9514 34.1049 68.036 34.1306H68.0449ZM65.3504 34.8124V35.1354H65.1708H64.8294C64.6767 35.1354 64.6678 35.1354 64.6857 35.3148C64.7037 35.4942 64.6857 35.4943 64.8654 35.5123C65.2516 35.5123 65.2516 35.5122 65.2516 35.88V36.1851H64.9642C64.6767 36.1851 64.6767 36.185 64.6588 36.3914C64.6408 36.5977 64.6588 36.5887 64.6588 36.6067C64.7688 36.6244 64.881 36.6244 64.9911 36.6067H65.3414V37.2795H63.9492V36.5618C63.9146 35.8318 63.9327 35.1003 64.0031 34.3728C64.239 34.3474 64.4768 34.3474 64.7127 34.3728H65.3953L65.3504 34.8124Z" fill="#146A34"></path>
<path d="M61.445 34.9333C61.3374 35.3817 61.3374 35.3817 61.445 35.3817C61.5313 35.3631 61.6099 35.3189 61.6707 35.2548C61.7315 35.1909 61.7716 35.1101 61.7858 35.023C61.7858 34.8884 61.6782 34.7539 61.5705 34.7539C61.4629 34.7539 61.4719 34.8077 61.445 34.9333Z" fill="#146A34"></path>
<path d="M67.5137 34.8106C67.5272 35.0283 67.5725 35.2429 67.6482 35.4474C67.6482 35.4474 67.7289 35.4474 67.7917 35.3936C67.8314 35.3699 67.8635 35.3354 67.8841 35.294C67.9047 35.2527 67.9132 35.2063 67.9083 35.1604C67.9083 34.981 67.9083 34.9182 67.7289 34.8375C67.5495 34.7568 67.5495 34.7388 67.5137 34.8106Z" fill="#146A34"></path>
<path d="M79.5222 32.7215C78.9634 33.463 78.3636 34.1729 77.7258 34.8478C74.5788 38.1475 70.3129 40.1565 65.762 40.4819H65.3848V42.7427L65.9506 43.1196C66.6256 43.6005 67.3307 44.038 68.0614 44.4293C68.2867 44.4942 68.5285 44.4684 68.735 44.3576C68.7979 44.3576 69.3278 43.6398 69.9116 42.8593C71.0344 41.3611 71.1601 41.2355 71.5733 41.1458C71.8427 41.083 71.8337 41.083 73.7828 41.5495C74.6181 41.7559 75.3546 41.9173 75.4265 41.9173C75.5475 41.9054 75.6649 41.869 75.7714 41.8103C75.8779 41.7518 75.9714 41.6722 76.0462 41.5764C76.1001 41.4867 76.3696 40.6792 76.6301 39.7821C76.8038 39.1744 77.0077 38.5755 77.2408 37.9878C77.4002 37.7511 77.6392 37.5792 77.9145 37.5034C78.1031 37.4406 80.9503 37.1176 81.3276 37.1176C81.7048 37.1176 86.3394 37.8981 88.0909 38.2749C89.8425 38.6517 92.1868 39.2797 94.9981 40.123C96.3634 40.5267 96.3095 40.5177 96.4622 40.4011C96.5026 40.3702 96.5358 40.3302 96.5592 40.2843C96.5816 40.2384 96.5942 40.1878 96.5942 40.1365C96.5942 40.0852 96.5816 40.0346 96.5592 39.9887C96.5358 39.9428 96.5026 39.9028 96.4622 39.8719C94.9712 38.9416 93.4326 38.0882 91.8545 37.3149C89.6422 36.2027 87.3658 35.2231 85.0371 34.3813C83.2407 33.7175 79.8096 32.4883 79.7468 32.4883C79.6839 32.4883 79.603 32.5959 79.5222 32.7215Z" fill="#146A34"></path>
<path d="M48.5179 32.8274C48.0958 32.9889 47.2065 33.285 46.5329 33.4824C43.0017 34.5169 39.5692 35.8619 36.2756 37.5016C34.9282 38.148 33.615 38.8637 32.3416 39.6457C32.2962 39.7256 32.2686 39.8143 32.2607 39.9059C32.2607 40.0853 32.2607 40.1033 32.4134 40.184L32.5931 40.2648L34.0751 39.8431C38.0826 38.6535 42.1753 37.7717 46.3173 37.2055C47.5658 37.035 47.458 37.0261 49.8562 37.3221C51.0149 37.4657 51.1675 37.4926 51.3651 37.6092C51.6595 37.7879 51.8722 38.0745 51.9579 38.4077L52.4609 40.1212C52.901 41.6195 52.946 41.7181 53.2513 41.9155C53.5567 42.1129 53.7453 41.9873 55.4788 41.5656C57.2123 41.144 57.3471 41.144 57.7602 41.3503C58.0297 41.4939 58.0836 41.5567 59.2422 43.1446C59.5614 43.5947 59.9063 44.0261 60.2751 44.4365C60.3885 44.5226 60.5247 44.5737 60.6668 44.5832C60.8088 44.5928 60.9507 44.5605 61.0745 44.4903C61.2003 44.4275 61.8739 43.9968 62.5835 43.5303L63.8679 42.6871V40.6057H63.4278C61.9249 40.4589 60.4411 40.1583 58.9997 39.7085C55.2811 38.5043 52.0354 36.163 49.7215 33.0158C49.6257 32.8643 49.5041 32.7307 49.3622 32.6211C49.3622 32.6211 48.94 32.6749 48.5179 32.8274Z" fill="#146A34"></path>
</g>
</svg>