<svg width="209" height="62" viewBox="0 0 209 62" fill="none" xmlns="http://www.w3.org/2000/svg">
<mask id="mask0_356_16624" style="mask-type:luminance" maskUnits="userSpaceOnUse" x="0" y="0" width="209" height="62">
<path d="M208.202 0H0V61.3411H208.202V0Z" fill="white"></path>
</mask>
<g mask="url(#mask0_356_16624)">
<path d="M156.268 14.1642L156.113 13.4939C156.113 13.4939 154.407 12.9912 152.081 10.8114C147.121 6.12101 144.33 0.757408 144.33 0.589844H143.866C142.91 1.63339 142.125 2.82094 141.54 4.10873L139.989 4.27629L138.283 4.44386V5.11412L139.989 5.28169L141.074 5.44925C140.145 8.96814 140.764 12.4885 142.934 14.8344C144.174 16.1749 145.57 16.8452 147.276 17.1803V20.0289H148.361V17.3479H148.825C151.617 17.683 154.253 16.3425 156.268 14.1642Z" fill="#B4D7E5"></path>
<path d="M11.767 54.7645C11.457 54.7645 11.1469 54.5969 10.8369 54.4294C10.5268 54.2618 10.371 53.9267 10.371 53.424V41.3577C10.371 41.1902 10.371 41.0226 10.2153 41.0226L1.06784 22.2537C1.06784 22.0862 0.913574 21.9186 0.913574 21.751V21.4159C0.913574 21.0808 1.06784 20.9132 1.22362 20.7456C1.3779 20.5766 1.53367 20.409 1.84373 20.2414C2.15379 20.0754 2.30806 20.0754 2.61962 20.0754C2.92968 20.0754 3.08395 20.0754 3.23973 20.2414C3.39401 20.4105 3.54979 20.5781 3.70407 20.9132L11.767 38.174L19.8286 20.9132C19.9843 20.5781 20.1386 20.4105 20.2929 20.2429C20.4487 20.0739 20.6044 20.0739 20.9145 20.0739C21.2246 20.0739 21.3788 20.0739 21.6889 20.2429C21.9989 20.409 22.1532 20.5766 22.309 20.7441C22.4648 20.9132 22.6191 21.2483 22.6191 21.4159V21.751C22.6191 21.9186 22.6191 22.0862 22.4648 22.2537L13.3173 41.0226C13.3173 41.1902 13.1616 41.1902 13.1616 41.3577V53.424C13.1616 53.7591 13.0073 54.0942 12.6972 54.4294C12.3871 54.7645 12.0771 54.7645 11.767 54.7645ZM28.8202 54.7645C28.5101 54.7645 28.3559 54.7645 28.0443 54.5969C27.8082 54.4692 27.5979 54.2987 27.4242 54.0942C27.2699 53.9267 27.1141 53.5915 27.1141 53.424V53.0888L36.2615 20.9132C36.4173 20.5781 36.5716 20.2429 36.8817 20.0754C37.1917 19.9078 37.5033 19.7402 37.9676 19.7402C38.4319 19.7402 38.7435 19.9078 39.0535 20.0754C39.3636 20.2429 39.6737 20.5781 39.6737 20.9132L48.8211 53.0888V53.424C48.8211 53.7591 48.6653 53.9267 48.511 54.0942C48.3552 54.2618 48.0467 54.4294 47.8909 54.5969C47.5809 54.7645 47.4266 54.7645 47.115 54.7645C46.805 54.7645 46.6507 54.7645 46.4949 54.5969C46.3014 54.4029 46.1443 54.1759 46.0306 53.9267L44.0145 46.5538H31.9208L29.9061 53.9267C29.792 54.1761 29.6343 54.403 29.4403 54.5969C29.2845 54.5969 29.1302 54.7645 28.8202 54.7645ZM32.6966 43.8727H43.3943L38.1219 24.7672L32.6966 43.8727ZM75.4904 54.769C75.1804 54.769 74.8703 54.6014 74.5603 54.2663C74.2502 53.9311 74.0959 53.5945 73.9402 53.0918L67.1174 38.8487H61.5364V53.427C61.5364 53.7621 61.3806 54.0987 61.0721 54.4323C60.7605 54.5999 60.4504 54.7675 60.1404 54.7675C59.8303 54.7675 59.366 54.6014 59.0559 54.4323C58.7459 54.2663 58.5916 53.9297 58.5916 53.427V21.2513C58.5916 20.9162 58.7459 20.7486 58.9002 20.4135C59.0559 20.0784 59.3645 20.0784 59.6761 20.0784H67.4275C69.1335 20.0784 70.6838 20.4135 72.2356 20.9162C73.6707 21.4379 74.8772 22.446 75.6447 23.7648C76.5749 25.1053 76.8849 26.9486 76.8849 29.2945C76.8849 31.3068 76.5749 32.8149 75.9563 34.1554C75.3347 35.4959 74.5603 36.3337 73.4743 37.004C72.3899 37.6743 71.3039 38.177 70.0637 38.3445L76.8849 52.4231C77.0407 52.5891 77.0407 52.5891 77.0407 52.7567V53.0918C77.0407 53.427 76.8849 53.5945 76.7307 53.9296C76.6152 54.223 76.3939 54.4627 76.1106 54.6014C75.9548 54.7675 75.6462 54.769 75.4904 54.769ZM61.5364 36.1662H67.4275C69.4436 36.1662 70.9939 35.6635 72.2356 34.6581C73.4743 33.6527 74.0944 31.977 74.0944 29.6311C74.0944 27.2837 73.4743 25.442 72.2341 24.4351C70.9939 23.4297 69.4436 22.927 67.4275 22.927H61.5364V36.1662ZM88.6671 54.769C88.2028 54.769 87.8927 54.6014 87.7369 54.4338C87.5404 54.1984 87.4311 53.9026 87.4269 53.596V21.2498C87.4269 20.9162 87.5826 20.5811 87.7369 20.412C87.8927 20.2459 88.357 20.0784 88.6671 20.0784H96.42C98.1246 20.0784 99.6748 20.4135 101.071 21.0838C102.465 21.754 103.551 22.7594 104.327 24.2675C105.102 25.7756 105.567 27.7864 105.567 30.1323V44.546C105.567 47.0594 105.103 48.9027 104.327 50.4108C103.551 51.9189 102.465 52.9243 101.071 53.5945C99.6748 54.2663 98.1246 54.5999 96.42 54.5999H88.6671V54.769ZM90.2174 51.7513H96.4185C98.4346 51.7513 99.9849 51.081 101.071 49.9081C102.155 48.7351 102.775 46.8919 102.775 44.3784V30.2999C102.775 27.7864 102.155 25.9432 101.071 24.7702C99.9849 23.5972 98.4346 22.927 96.5743 22.927H90.3731V51.7513H90.2174ZM118.591 54.766C118.127 54.766 117.817 54.5984 117.663 54.4309C117.466 54.1955 117.356 53.8997 117.351 53.593V21.2498C117.351 20.9147 117.507 20.5796 117.815 20.2444C118.127 20.0769 118.437 19.9093 118.747 19.9093H125.878C127.584 19.9093 128.979 20.0769 130.375 20.5796C131.771 20.9147 132.855 21.7525 133.631 22.9255C134.406 24.0984 134.871 25.7741 134.871 27.9525C134.871 29.9632 134.561 31.6389 133.786 32.9794C133.165 34.3215 132.235 35.3269 131.149 35.8295C132.081 36.1647 132.857 36.6674 133.475 37.3376C134.096 38.0079 134.716 38.8457 135.026 39.8511C135.336 40.8565 135.646 42.1971 135.646 43.8742V44.712C135.646 47.058 135.336 49.0687 134.561 50.4093C133.786 51.7498 132.701 52.9228 131.461 53.4255C130.219 53.9282 128.669 54.4309 127.119 54.4309H118.591V54.766ZM120.142 34.6566H125.878C127.894 34.6566 129.445 34.1539 130.375 33.3161C131.305 32.4782 131.771 30.8026 131.771 28.6227C131.771 27.1146 131.461 25.9417 130.995 25.2714C130.456 24.5076 129.699 23.9237 128.823 23.5957C127.894 23.2606 126.809 23.093 125.568 23.093H119.987V34.6566H120.142ZM120.142 51.7498H126.498C128.359 51.7498 129.911 51.2471 130.995 50.0741C132.081 48.9012 132.701 47.2255 132.701 44.712V43.8742C132.701 41.3607 132.081 39.6851 130.995 38.6782C129.911 37.6728 128.359 37.1701 126.498 37.1701H120.142V51.7498ZM147.892 54.769C147.582 54.769 147.118 54.6014 146.808 54.4338C146.498 54.2663 146.344 53.9297 146.344 53.427V21.2513C146.344 20.9162 146.498 20.5811 146.808 20.4135C147.118 20.2459 147.428 20.0784 147.892 20.0784C148.202 20.0784 148.512 20.2459 148.823 20.4135C149.132 20.5811 149.286 20.9162 149.286 21.2513V53.4255C149.286 53.7606 149.132 54.0972 148.823 54.4309C148.512 54.5984 148.202 54.766 147.894 54.766L147.892 54.769ZM178.126 54.769C177.816 54.769 177.506 54.6014 177.196 54.2663C176.886 53.9311 176.732 53.5945 176.576 53.0918L169.755 38.8487H164.172V53.427C164.172 53.7621 164.018 54.0987 163.708 54.4323C163.398 54.5999 163.088 54.7675 162.777 54.7675C162.467 54.7675 162.002 54.6014 161.692 54.4323C161.381 54.2663 161.227 53.9297 161.227 53.427V21.2513C161.227 20.9162 161.381 20.7486 161.537 20.4135C161.744 20.2066 162.021 20.0866 162.312 20.0784H170.065C171.769 20.0784 173.319 20.4135 174.871 20.9162C176.308 21.438 177.513 22.446 178.282 23.7648C179.212 25.1053 179.522 26.9486 179.522 29.2945C179.522 31.3068 179.212 32.8149 178.592 34.1554C177.972 35.4959 177.196 36.3337 176.111 37.004C175.025 37.6743 173.941 38.177 172.699 38.3445L179.522 52.4231C179.676 52.5891 179.676 52.5891 179.676 52.7567V53.0918C179.676 53.427 179.522 53.5945 179.366 53.9296C179.251 54.2232 179.031 54.4629 178.746 54.6014C178.746 54.7675 178.436 54.769 178.126 54.769ZM164.328 36.1662H170.219C172.235 36.1662 173.785 35.6635 175.025 34.6581C176.266 33.6527 176.886 31.977 176.886 29.6311C176.886 27.2837 176.266 25.442 175.025 24.4351C173.785 23.4297 172.235 22.927 170.219 22.927H164.328V36.1662ZM191.303 54.769C190.838 54.769 190.528 54.6014 190.373 54.4338C190.062 54.2663 190.062 53.9296 190.062 53.596V21.2498C190.062 20.9162 190.218 20.5811 190.373 20.412C190.683 20.2459 190.993 20.0784 191.303 20.0784H199.056C200.762 20.0784 202.312 20.4135 203.706 21.0838C205.102 21.754 206.187 22.7594 206.963 24.2675C207.739 25.7756 208.203 27.7864 208.203 30.1323V44.546C208.203 47.0594 207.739 48.9027 206.963 50.4108C206.187 51.9189 205.102 52.9243 203.706 53.5945C202.312 54.2663 200.762 54.5999 199.056 54.5999H191.303V54.769ZM193.009 51.7513H199.21C201.226 51.7513 202.776 51.081 203.862 49.9081C204.947 48.7351 205.567 46.8919 205.567 44.3784V30.2999C205.567 27.7864 204.947 25.9432 203.862 24.7702C202.776 23.5972 201.226 22.927 199.366 22.927H193.165V51.7513H193.009Z" fill="#3C3B3B"></path>
</g>
</svg>