<svg width="67" height="22" viewBox="0 0 67 22" fill="none" xmlns="http://www.w3.org/2000/svg">
<path d="M45.8725 5.28516V11.6377C45.8725 13.278 45.3613 14.2621 44.0985 14.2621C42.8657 14.2621 42.3245 13.278 42.3245 11.6377V5.28516H38.8066V11.8763C38.8066 15.306 40.9113 16.7375 44.0985 16.7375C46.7143 16.7375 49.3903 15.306 49.3903 11.8763V5.28516H45.8725Z" fill="#00A3FF"></path>
<path d="M19.1084 4.40625C15.5694 4.40625 13.2295 6.86031 13.2295 10.6672C13.2295 14.4743 15.7156 16.7396 18.9037 16.7396C21.8578 16.7396 24.6949 14.7575 24.6949 10.447C24.7241 6.89177 22.472 4.40625 19.1084 4.40625ZM19.0206 14.1282C17.5583 14.1282 16.7686 12.5864 16.7686 10.5729C16.7686 8.81097 17.3828 7.01762 19.0206 7.01762C20.5708 7.01762 21.185 8.81097 21.185 10.5414C21.185 12.7123 20.3368 14.1282 19.0206 14.1282Z" fill="#00A3FF"></path>
<path d="M10.6022 4.40625C9.36582 5.19633 9.05671 6.39609 9.05671 6.39609C8.4076 5.60601 7.04755 4.9915 5.44021 4.9915C2.78193 4.9915 0 7.24469 0 10.7854C0 13.9166 2.34918 16.3453 5.44021 16.3453C6.70753 16.3453 7.57302 16.0527 8.28396 15.4089C8.28396 15.4089 8.28396 15.5552 8.28396 15.643C8.28396 17.6329 6.98572 18.54 5.25475 18.54C3.58559 18.54 2.411 18.0133 1.66916 17.6036L0.958219 20.208C1.91644 20.6761 3.83287 21.1443 5.34748 21.1443C7.04754 21.1443 8.77852 20.8225 10.0458 19.7983C11.375 18.7156 11.8077 16.9598 11.8077 14.853V9.96609C11.8386 8.26887 12.4568 7.09838 13.2296 6.24978L10.6022 4.40625ZM6.12024 14.0043C4.57472 14.0043 3.74014 12.5704 3.74014 10.6976C3.74014 9.05896 4.38926 7.39101 6.12024 7.39101C7.72757 7.39101 8.4076 9.05896 8.4076 10.6684C8.4076 12.6875 7.5112 14.0043 6.12024 14.0043Z" fill="#00A3FF"></path>
<path d="M32.1923 4.40625C28.4793 4.40625 26.4595 6.95534 26.4595 10.7329V21.1443H29.9051V15.4319C30.5289 16.1076 31.5091 16.4761 32.8458 16.4761C35.3112 16.4761 37.9251 14.5106 37.9251 10.3029C37.9251 6.58679 35.5488 4.40625 32.1923 4.40625ZM32.1626 13.8963C30.6774 13.8963 29.8754 12.3913 29.8754 10.4258C29.8754 8.70591 30.4992 6.95534 32.1626 6.95534C33.7369 6.95534 34.3607 8.70591 34.3607 10.3951C34.3607 12.5142 33.529 13.8963 32.1626 13.8963Z" fill="#00A3FF"></path>
<path d="M66.1481 2.88043V0.237561C65.6534 0.0890851 65.0351 0 64.2312 0C63.18 0 61.9124 0.296951 61.0157 1.09872C59.9955 2.01927 59.5626 3.50402 59.5626 4.8403V5.25603H55.8215V4.69183C55.7597 1.98957 58.5114 2.79134 58.8206 2.88043V0.237561C58.3259 0.0890851 57.7075 0 56.9037 0C55.8525 0 54.5848 0.296951 53.6882 1.09872C52.6679 2.01927 52.2351 3.50402 52.2351 4.8403V5.25603H50.6892V7.80981H52.2351V16.4213C52.2351 18.7969 50.5346 18.4406 49.7616 18.3218L49.3906 20.8756C49.7616 21.0241 50.3491 21.1429 50.9365 21.1429C52.5752 21.1429 53.7191 20.6677 54.4921 19.9551C55.4814 19.0345 55.8215 17.6982 55.8215 16.3916L55.8525 7.80981H59.5626V16.4213C59.6244 18.9157 57.5839 18.4109 57.0892 18.3218L56.7182 20.8756C57.0892 21.0241 57.6766 21.1429 58.2641 21.1429C59.9027 21.1429 61.0467 20.6677 61.8196 19.9551C62.809 19.0345 63.1491 17.6982 63.1491 16.3916L63.18 7.80981H66.1481V5.28573H63.1491V4.69183C63.2109 1.98957 65.8389 2.79134 66.1481 2.88043Z" fill="#00A3FF"></path>
</svg>