<svg width="138" height="48" viewBox="0 0 138 48" fill="none" xmlns="http://www.w3.org/2000/svg">
<path d="M69.2127 8.74459C38.623 5.13151 24.3588 3.6053 2.31661 1.00337C1.5698 1.00337 0.903654 0.881523 1.01152 2.10386C5.76397 18.3605 6.45295 21.045 12.6329 42.1065C13.9579 45.915 16.1226 46.9242 18.2196 46.9242C38.8596 46.9242 49.2258 46.9242 69.0495 46.9252C88.8716 46.9252 99.2254 46.9262 119.867 46.9262C121.962 46.9262 124.128 45.916 125.453 42.1084C131.634 21.046 132.322 18.362 137.075 2.1058C137.182 0.883465 136.517 1.00434 135.77 1.00434C113.728 3.60627 99.8036 5.13248 69.2127 8.74459Z" fill="white"></path>
<path d="M69.2127 8.74459C38.623 5.13151 24.3588 3.6053 2.31661 1.00337C1.5698 1.00337 0.903654 0.881523 1.01152 2.10386C5.76397 18.3605 6.45295 21.045 12.6329 42.1065C13.9579 45.915 16.1226 46.9242 18.2196 46.9242C38.8596 46.9242 49.2258 46.9242 69.0495 46.9252C88.8716 46.9252 99.2254 46.9262 119.867 46.9262C121.962 46.9262 124.128 45.916 125.453 42.1084C131.634 21.046 132.322 18.362 137.075 2.1058C137.182 0.883465 136.517 1.00434 135.77 1.00434C113.728 3.60627 99.8036 5.13248 69.2127 8.74459Z" stroke="white" stroke-width="1.68167" stroke-miterlimit="3.864"></path>
<path d="M69.037 11.0193C96.6329 7.92758 113.066 5.83051 132.844 3.55626C133.555 3.48538 134.196 3.09364 133.864 4.24703C131.137 13.8625 130.289 16.8591 125.345 33.8823C124.383 36.9749 122.974 36.59 120.775 36.6002C102.199 36.6002 89.2144 36.5934 69.0375 36.5895C48.8596 36.5939 35.8876 36.5987 17.3127 36.5987C15.1136 36.5885 13.703 36.9735 12.7429 33.8827C7.79757 16.8571 6.94922 13.861 4.22194 4.24606C3.89105 3.09315 4.53145 3.48296 5.24327 3.55431C25.0193 5.82954 41.4408 7.92661 69.037 11.0193Z" fill="white"></path>
<path d="M69.037 11.0193C96.6329 7.92758 113.066 5.83051 132.844 3.55626C133.555 3.48538 134.196 3.09364 133.864 4.24703C131.137 13.8625 130.289 16.8591 125.345 33.8823C124.383 36.9749 122.974 36.59 120.775 36.6002C102.199 36.6002 89.2144 36.5934 69.0375 36.5895C48.8596 36.5939 35.8876 36.5987 17.3127 36.5987C15.1136 36.5885 13.703 36.9735 12.7429 33.8827C7.79757 16.8571 6.94922 13.861 4.22194 4.24606C3.89105 3.09315 4.53145 3.48296 5.24327 3.55431C25.0193 5.82954 41.4408 7.92661 69.037 11.0193Z" stroke="white" stroke-width="1.68167" stroke-miterlimit="3.864"></path>
<path fill-rule="evenodd" clip-rule="evenodd" d="M20.5595 40.0209H20.8831C21.7654 40.0209 22.3897 40.5544 22.3897 41.4984C22.3897 42.5284 21.6881 42.976 20.8685 42.976H20.5595V40.0209ZM19.186 44.1375H21.1343C22.5986 44.1375 23.819 42.9828 23.819 41.4984C23.819 40.0151 22.6064 38.8594 21.1357 38.8594H19.186V44.1375Z" fill="white"></path>
<path d="M20.5595 40.0209H20.8831C21.7654 40.0209 22.3897 40.5544 22.3897 41.4984C22.3897 42.5284 21.6881 42.976 20.8685 42.976H20.5595V40.0209ZM19.186 44.1375H21.1343C22.5986 44.1375 23.819 42.9828 23.819 41.4984C23.819 40.0151 22.6064 38.8594 21.1357 38.8594H19.186V44.1375Z" stroke="white" stroke-width="0.101667" stroke-miterlimit="3.864"></path>
<path fill-rule="evenodd" clip-rule="evenodd" d="M33.6421 40.0141C34.4617 40.0141 35.1346 40.6786 35.1346 41.4067C35.1346 42.3168 34.4617 42.9813 33.6421 42.9813C32.8225 42.9813 32.1486 42.3168 32.1486 41.4067C32.1486 40.6791 32.8225 40.0141 33.6421 40.0141ZM33.6421 38.6836C32.1209 38.6836 30.7197 39.8039 30.7197 41.3994C30.7197 43.1085 31.946 44.3113 33.6421 44.3113C35.3381 44.3113 36.5634 43.1085 36.5634 41.3994C36.5644 39.8039 35.1623 38.6836 33.6421 38.6836Z" fill="white"></path>
<path d="M33.6421 40.0141C34.4617 40.0141 35.1346 40.6786 35.1346 41.4067C35.1346 42.3168 34.4617 42.9813 33.6421 42.9813C32.8225 42.9813 32.1486 42.3168 32.1486 41.4067C32.1486 40.6791 32.8225 40.0141 33.6421 40.0141ZM33.6421 38.6836C32.1209 38.6836 30.7197 39.8039 30.7197 41.3994C30.7197 43.1085 31.946 44.3113 33.6421 44.3113C35.3381 44.3113 36.5634 43.1085 36.5634 41.3994C36.5644 39.8039 35.1623 38.6836 33.6421 38.6836Z" stroke="white" stroke-width="0.101667" stroke-miterlimit="3.864"></path>
<path fill-rule="evenodd" clip-rule="evenodd" d="M47.0232 38.7891V41.5684C47.0232 42.2548 46.9737 43.0047 46.0918 43.0047C45.2096 43.0047 45.1595 42.2548 45.1595 41.5684V38.7891H43.7866V41.7577C43.7866 42.4368 43.8153 43.1081 44.34 43.6187C44.782 44.0531 45.4748 44.207 46.0918 44.207C46.7089 44.207 47.4017 44.0531 47.8438 43.6197C48.3685 43.1081 48.3972 42.4368 48.3972 41.7577V38.7891H47.0232Z" fill="white"></path>
<path d="M47.0232 38.7891V41.5684C47.0232 42.2548 46.9737 43.0047 46.0918 43.0047C45.2096 43.0047 45.1595 42.2548 45.1595 41.5684V38.7891H43.7866V41.7577C43.7866 42.4368 43.8153 43.1081 44.34 43.6187C44.782 44.0531 45.4748 44.207 46.0918 44.207C46.7089 44.207 47.4017 44.0531 47.8438 43.6197C48.3685 43.1081 48.3972 42.4368 48.3972 41.7577V38.7891H47.0232Z" stroke="white" stroke-width="0.101667" stroke-miterlimit="3.864"></path>
<path d="M58.5029 41.1902V42.2683H59.5003C59.4444 42.8779 58.9892 43.1852 58.3931 43.1852C57.4899 43.1852 56.9987 42.3527 56.9987 41.5334C56.9987 40.7281 57.4685 39.868 58.3727 39.868C58.927 39.868 59.3268 40.2034 59.5144 40.7082L60.8174 40.1602C60.3622 39.1729 59.5222 38.6836 58.4353 38.6836C56.7334 38.6836 55.5703 39.8107 55.5703 41.5256C55.5703 43.1847 56.7256 44.3108 58.3863 44.3108C59.2695 44.3108 60.0478 43.9967 60.5657 43.2759C61.0356 42.6172 61.0914 41.9605 61.105 41.1897L58.5029 41.1902Z" fill="white"></path>
<path d="M58.5029 41.1902V42.2683H59.5003C59.4444 42.8779 58.9892 43.1852 58.3931 43.1852C57.4899 43.1852 56.9987 42.3527 56.9987 41.5334C56.9987 40.7281 57.4685 39.868 58.3727 39.868C58.927 39.868 59.3268 40.2034 59.5144 40.7082L60.8174 40.1602C60.3622 39.1729 59.5222 38.6836 58.4353 38.6836C56.7334 38.6836 55.5703 39.8107 55.5703 41.5256C55.5703 43.1847 56.7256 44.3108 58.3863 44.3108C59.2695 44.3108 60.0478 43.9967 60.5657 43.2759C61.0356 42.6172 61.0914 41.9605 61.105 41.1897L58.5029 41.1902Z" stroke="white" stroke-width="0.101667" stroke-miterlimit="3.864"></path>
<path fill-rule="evenodd" clip-rule="evenodd" d="M69.6796 40.8961V38.8594H68.3062V44.139H69.6796V41.9756H71.6619V44.139H73.0354V38.8594H71.6619V40.8961H69.6796Z" fill="white"></path>
<path d="M69.6796 40.8961V38.8594H68.3062V44.139H69.6796V41.9756H71.6619V44.139H73.0354V38.8594H71.6619V40.8961H69.6796Z" stroke="white" stroke-width="0.101667" stroke-miterlimit="3.864"></path>
<path fill-rule="evenodd" clip-rule="evenodd" d="M80.5039 44.139H81.8774V40.9048H81.892L84.4072 44.139H85.7811V38.8594H84.4072V42.0872H84.3926L81.8774 38.8594H80.5039V44.139Z" fill="white"></path>
<path d="M80.5039 44.139H81.8774V40.9048H81.892L84.4072 44.139H85.7811V38.8594H84.4072V42.0872H84.3926L81.8774 38.8594H80.5039V44.139Z" stroke="white" stroke-width="0.101667" stroke-miterlimit="3.864"></path>
<path fill-rule="evenodd" clip-rule="evenodd" d="M96.4574 38.8594V41.6397C96.4574 42.3251 96.4088 43.075 95.526 43.075C94.6437 43.075 94.5932 42.3251 94.5932 41.6397V38.8594H93.2207V41.828C93.2207 42.5071 93.2484 43.1789 93.7741 43.6905C94.2162 44.1244 94.909 44.2783 95.526 44.2783C96.1431 44.2783 96.8354 44.1244 97.2775 43.6905C97.8022 43.1789 97.8309 42.5071 97.8309 41.828V38.8594H96.4574Z" fill="white"></path>
<path d="M96.4574 38.8594V41.6397C96.4574 42.3251 96.4088 43.075 95.526 43.075C94.6437 43.075 94.5932 42.3251 94.5932 41.6397V38.8594H93.2207V41.828C93.2207 42.5071 93.2484 43.1789 93.7741 43.6905C94.2162 44.1244 94.909 44.2783 95.526 44.2783C96.1431 44.2783 96.8354 44.1244 97.2775 43.6905C97.8022 43.1789 97.8309 42.5071 97.8309 41.828V38.8594H96.4574Z" stroke="white" stroke-width="0.101667" stroke-miterlimit="3.864"></path>
<path d="M107.372 40.0214H108.916V38.8594H104.414V40.0214H105.958V44.139H107.372V40.0214Z" fill="white"></path>
<path d="M107.372 40.0214H108.916V38.8594H104.414V40.0214H105.958V44.139H107.372V40.0214Z" stroke="white" stroke-width="0.101667" stroke-miterlimit="3.864"></path>
<path fill-rule="evenodd" clip-rule="evenodd" d="M119.022 39.1566C118.554 38.8906 117.902 38.7227 117.37 38.7227C116.312 38.7227 115.548 39.4236 115.548 40.4934C115.548 41.5151 116.114 41.7389 116.977 41.9845C117.271 42.068 117.81 42.2015 117.81 42.5883C117.81 42.9572 117.466 43.1184 117.145 43.1184C116.675 43.1184 116.27 42.8737 115.927 42.5728L115.338 43.678C115.876 44.0566 116.529 44.2804 117.194 44.2804C117.728 44.2804 118.281 44.1333 118.694 43.7838C119.115 43.4266 119.241 42.8883 119.241 42.3621C119.241 41.5083 118.672 41.1375 117.938 40.921L117.587 40.8147C117.348 40.7375 116.977 40.6186 116.977 40.3113C116.977 40.0172 117.312 39.8706 117.565 39.8706C117.901 39.8706 118.223 40.0099 118.475 40.2201L119.022 39.1566Z" fill="white"></path>
<path d="M119.022 39.1566C118.554 38.8906 117.902 38.7227 117.37 38.7227C116.312 38.7227 115.548 39.4236 115.548 40.4934C115.548 41.5151 116.114 41.7389 116.977 41.9845C117.271 42.068 117.81 42.2015 117.81 42.5883C117.81 42.9572 117.466 43.1184 117.145 43.1184C116.675 43.1184 116.27 42.8737 115.927 42.5728L115.338 43.678C115.876 44.0566 116.529 44.2804 117.194 44.2804C117.728 44.2804 118.281 44.1333 118.694 43.7838C119.115 43.4266 119.241 42.8883 119.241 42.3621C119.241 41.5083 118.672 41.1375 117.938 40.921L117.587 40.8147C117.348 40.7375 116.977 40.6186 116.977 40.3113C116.977 40.0172 117.312 39.8706 117.565 39.8706C117.901 39.8706 118.223 40.0099 118.475 40.2201L119.022 39.1566Z" stroke="white" stroke-width="0.101667" stroke-miterlimit="3.864"></path>
<path d="M43.8578 13.3581C54.3796 13.3561 67.1885 13.3551 67.7395 13.3615C69.4061 13.377 70.1621 12.6221 70.4658 12.3518C70.7705 12.0809 71.1174 12.0945 71.1081 12.41C71.1052 12.5459 69.3041 16.7182 66.8095 16.7124C65.2814 16.71 53.7956 16.708 43.8389 16.708C44.2213 16.2522 44.4511 15.6634 44.4511 15.0231C44.4516 14.392 44.229 13.811 43.8578 13.3581ZM52.9321 23.2784C52.7378 23.6677 51.2204 27.4332 51.2204 27.4332C50.8127 28.474 51.4099 29.0026 51.8481 29.1138C52.8291 29.3638 53.7742 28.6405 54.794 25.9604C56.413 21.7041 53.4253 22.2934 52.9321 23.2784ZM42.2126 26.7614C43.6649 27.4075 43.0814 29.424 42.0664 29.6686C41.5985 30.0356 43.559 30.9948 44.421 29.0215C45.2994 27.0104 44.179 25.0551 44.0473 24.5798C43.6946 24.8721 43.0824 25.6284 42.2126 26.7614ZM54.4466 30.0308C56.8984 29.2711 58.978 26.0643 59.4046 25.0002C60.3482 22.4823 61.1519 20.5299 61.1519 20.5299L64.0861 20.5226C64.0861 20.5226 61.9881 25.5386 61.0848 28.0842C60.2209 30.5152 62.6552 28.472 63.642 25.773C64.505 23.4502 65.6094 20.6124 65.6094 20.6124L68.652 20.607C68.652 20.607 65.1211 29.4167 64.7571 30.1803C65.8941 29.8715 67.3192 30.7458 67.1807 31.1696C66.6827 32.6856 66.3781 30.4196 64.2849 31.0735C63.1318 33.8647 60.5664 36.3026 58.5519 36.0011C55.9427 35.6123 57.465 32.0574 61.8647 30.771L62.2471 29.7089C59.9857 31.5856 57.808 30.4473 58.323 28.238C56.4252 30.5434 54.1954 30.8715 52.7776 30.7691C51.7111 30.9283 50.8006 30.4701 50.3268 29.7662C49.6048 31.6574 48.6189 34.0856 48.6189 34.0856H45.7036L47.1933 30.2822C45.9441 31.0176 44.7168 31.1604 43.7611 31.1244C41.8322 31.6526 40.6456 30.3647 40.305 29.424C38.1526 32.273 35.7746 31.2511 35.4505 29.5026C34.5317 30.456 33.5255 31.172 32.6135 31.138C30.3935 31.0565 30.9372 27.7371 31.3225 26.6254C32.3268 23.7318 33.4157 22.574 31.3803 22.5099C31.0411 22.4993 28.6 31.9638 24.1615 32.3754C20.0489 32.754 21.6329 29.4827 22.3151 27.6118C23.4059 24.6153 24.5633 23.1196 23.9827 22.0036C23.5327 21.1362 21.0372 22.9303 20.272 24.8429C19.2832 27.3075 17.2867 32.456 17.2867 32.456L13.4375 32.5385C13.4375 32.5385 16.6128 24.5167 19.6981 16.4444C20.7044 13.8144 19.1695 13.7377 17.9684 13.8081C16.9786 13.8668 17.3678 12.9906 18.0933 12.9352C21.7894 12.6537 23.1309 12.709 23.576 12.9993C24.3354 13.4945 24.3004 14.5148 24.1634 14.7517C23.4846 16.5182 22.2354 19.6469 22.0673 20.1396C21.528 21.7201 22.646 20.2027 22.9745 19.7915C23.3029 19.3818 25.6327 16.7639 26.0958 16.1444C26.5783 15.5003 28.7147 13.3605 30.1461 13.3605L39.7817 13.3595C39.411 13.8124 39.188 14.3925 39.188 15.0236C39.188 15.6648 39.4188 16.2522 39.8002 16.7085C33.8136 16.7095 29.1219 16.7105 28.7852 16.7129C28.0403 16.7168 26.3718 17.6347 25.108 19.1536C24.0201 20.4658 25.4384 19.9901 25.4384 19.9901C27.5598 19.7862 29.5354 19.3095 26.1488 26.7084C22.9098 33.7875 27.7449 30.473 30.5727 21.9075C30.6748 21.5959 29.8463 21.19 29.8191 20.6032C29.7817 19.8532 29.5577 18.9896 30.8725 18.9896C32.1878 18.9896 31.7534 20.3221 32.8656 20.6614C35.1177 21.3502 36.3426 20.6444 35.1605 23.5056C34.0284 26.2487 32.7772 29.6604 34.2572 29.2497C34.9676 29.0526 35.3777 28.5327 35.641 28.055C37.2036 23.8026 38.5422 20.5153 38.5422 20.5153H41.4488C41.4488 20.5153 40.3687 23.2391 38.2765 28.5128C37.5433 30.3589 39.0048 29.322 40.0893 28.1361C40.2151 27.1628 40.9415 26.7968 41.1607 26.7614C42.3117 25.1002 46.0024 19.8871 46.0024 19.8871C46.0024 19.8871 46.2843 20.0915 46.0476 20.4643C45.7313 20.9604 46.3197 23.4201 46.5782 24.2002C46.9878 25.4439 47.6462 28.5128 45.9198 29.9225C45.5729 30.2065 45.2396 30.4385 44.9223 30.6225C45.9563 30.4293 46.8124 30.0002 47.5145 29.4647L51.0177 20.5221H53.9068C53.9068 20.5221 53.7819 20.7954 53.6177 21.2172C54.4481 20.5833 55.4782 20.2449 56.2692 20.4551C57.0758 20.6677 59.7438 20.875 56.7439 27.0167C56.0297 28.4754 55.2338 29.4395 54.4466 30.0308ZM59.1986 34.2152C60.1461 33.5948 60.8025 32.9249 61.3802 31.8604C60.6738 32.0108 59.4649 32.6725 58.8361 33.2618C58.0155 34.0312 58.4173 34.7268 59.1986 34.2152ZM40.2385 15.0236C40.2385 14.1508 40.9464 13.4454 41.8186 13.4454C42.6907 13.4454 43.3987 14.1517 43.3987 15.0236C43.3987 15.894 42.6912 16.6012 41.8186 16.6012C40.9459 16.6012 40.2385 15.894 40.2385 15.0236ZM93.66 25.9492C95.142 25.9808 96.9257 25.0827 97.3144 24.4123C97.7026 23.742 97.6565 22.4289 96.6677 22.3803C95.8315 22.34 94.1717 23.1036 93.66 25.9492ZM123.129 28.4385C120.26 32.3142 116.021 31.8259 115.016 28.2507C114.317 29.6662 113.303 31.0604 111.441 31.2244C109.205 31.4206 108.976 29.2128 109.222 27.9817C109.468 26.7492 109.853 26.2565 110.754 23.7109C111.391 21.9172 109.52 22.8332 108.457 24.5638C107.691 26.6279 105.958 31.2341 105.958 31.2341C105.958 31.2341 105.063 31.1672 103.065 31.1419C103.312 29.9109 104.963 26.2939 105.867 23.7488C106.513 21.9284 104.576 22.8978 103.523 24.6789C103.49 24.7371 103.455 24.792 103.421 24.8439L100.838 31.2346H97.8192L98.7657 28.8468C98.464 29.1759 98.118 29.491 97.7114 29.7778C93.8413 32.5108 91.9988 30.5337 91.3973 28.5953C90.2909 29.9584 88.9474 31.1832 87.7604 31.139C85.5419 31.0565 86.0861 27.7381 86.4704 26.6279C87.4733 23.7318 88.5636 22.575 86.5282 22.5109C86.1891 22.5002 83.747 31.9638 79.3094 32.3754C75.1969 32.754 76.7799 29.4846 77.4616 27.6118C78.5524 24.6172 79.7112 23.1196 79.1306 22.0036C78.6792 21.1371 76.1852 22.9313 75.4189 24.8429C74.4311 27.3075 72.4332 32.4584 72.4332 32.4584L68.5849 32.5385C68.5849 32.5385 71.7602 24.5177 74.8466 16.4454C75.8528 13.8144 74.3179 13.7391 73.1168 13.809C72.1266 13.8668 72.5158 12.9906 73.2407 12.9352C76.9373 12.6547 78.2789 12.71 78.7234 12.9993C79.4819 13.495 79.4474 14.5158 79.3109 14.7527C78.6321 16.5192 77.3829 19.6478 77.2148 20.1396C76.6769 21.7211 77.7934 20.2027 78.1229 19.7915C78.4523 19.3818 80.7792 16.7648 81.2432 16.1454C81.7257 15.5012 83.8631 13.3619 85.295 13.3619C86.552 13.3619 121.965 13.3522 122.89 13.3619C124.556 13.3784 125.312 12.6236 125.616 12.3532C125.92 12.0828 126.267 12.095 126.259 12.4115C126.256 12.5464 124.454 16.7187 121.959 16.7139C119.236 16.7085 84.867 16.7076 83.9321 16.7139C83.1897 16.7177 81.5187 17.6357 80.2559 19.1546C79.1666 20.4667 80.5853 19.9901 80.5853 19.9901C82.7072 19.7871 84.6814 19.3109 81.2972 26.7084C78.0568 33.7875 82.8928 30.473 85.7207 21.9075C85.8237 21.5959 84.9952 21.19 84.9666 20.6041C84.9301 19.8532 84.7052 18.9905 86.02 18.9905C87.3358 18.9905 86.9009 20.3226 88.0131 20.6624C90.2666 21.3507 91.4911 20.6449 90.3089 23.5065C89.1768 26.2487 87.9261 29.6613 89.4051 29.2502C90.6033 28.9172 90.9483 27.6686 91.1679 27.2507C91.165 27.1327 91.166 27.0225 91.1743 26.9206C91.3788 24.0861 93.0425 21.6468 94.4584 21.0299C97.8508 19.5488 99.1578 21.4366 99.0466 23.2361C98.911 25.4429 96.4354 26.9206 93.6396 27.0012C93.5896 26.9618 93.5818 26.991 93.6396 27.4123C94.0779 30.5769 97.6846 28.8531 99.6097 26.7201L102.088 20.4774L105.195 20.4609L104.44 22.3303C106.735 19.5837 109.212 20.3546 109.002 22.7051L109.091 22.5861C111.722 19.1376 114.726 20.4575 113.695 23.5725C113.543 24.0298 112.048 28.2759 112.048 28.2759C112.048 28.2759 111.586 29.7016 112.49 29.7016C113.27 29.7016 114.337 28.3259 114.814 27.0322L114.807 26.9206C114.665 24.1056 116.41 21.6764 117.817 21.0638C121.193 19.592 122.635 21.4692 122.625 23.2575C122.613 25.4517 120.173 26.9206 117.327 27.0031C117.273 26.9618 117.266 26.9924 117.35 27.4104C118.104 31.1725 121.875 28.7026 122.431 28.0264C123.833 26.3138 123.786 27.5526 123.129 28.4385ZM117.286 25.9565C118.798 25.9871 120.568 25.0949 120.925 24.4279C121.283 23.7604 121.16 22.4556 120.149 22.407C119.294 22.3677 117.644 23.1269 117.286 25.9565Z" fill="white"></path>
<path d="M54.4466 30.0294C56.8984 29.2697 58.978 26.063 59.4046 24.9989C60.3482 22.481 61.1519 20.5285 61.1519 20.5285L64.0861 20.5213C64.0861 20.5213 61.9881 25.5372 61.0848 28.0829C60.2209 30.5139 62.6552 28.4707 63.642 25.7717C64.505 23.4489 65.6094 20.6111 65.6094 20.6111L68.652 20.6057C68.652 20.6057 65.1211 29.4154 64.7571 30.179C65.8941 29.8702 67.3192 30.7445 67.1807 31.1683C66.6827 32.6843 66.3781 30.4183 64.2849 31.0722C63.1318 33.8634 60.5664 36.3012 58.5519 35.9998C55.9427 35.611 57.465 32.0561 61.8647 30.7697L62.2471 29.7076C59.9857 31.5843 57.808 30.4459 58.323 28.2367C56.4252 30.5421 54.1954 30.8702 52.7776 30.7678C51.7111 30.927 50.8006 30.4688 50.3268 29.7649C49.6048 31.6561 48.6189 34.0843 48.6189 34.0843H45.7036L47.1933 30.2809C45.9441 31.0163 44.7168 31.159 43.7611 31.1231C41.8322 31.6513 40.6456 30.3634 40.305 29.4227C38.1526 32.2717 35.7746 31.2498 35.4505 29.5013C34.5317 30.4547 33.5255 31.1707 32.6135 31.1367C30.3935 31.0552 30.9372 27.7358 31.3225 26.6241C32.3268 23.7305 33.4157 22.5727 31.3803 22.5086C31.0411 22.4979 28.6 31.9624 24.1615 32.3741C20.0489 32.7527 21.6329 29.4814 22.3151 27.6105C23.4059 24.614 24.5633 23.1183 23.9827 22.0023C23.5327 21.1349 21.0372 22.929 20.272 24.8416C19.2832 27.3062 17.2867 32.4547 17.2867 32.4547L13.4375 32.5372C13.4375 32.5372 16.6128 24.5154 19.6981 16.4431C20.7044 13.8131 19.1695 13.7364 17.9684 13.8067C16.9786 13.8655 17.3678 12.9893 18.0933 12.9339C21.7894 12.6524 23.1309 12.7077 23.576 12.998C24.3354 13.4932 24.3004 14.5135 24.1634 14.7504C23.4846 16.5169 22.2354 19.6455 22.0673 20.1383C21.528 21.7188 22.646 20.2014 22.9745 19.7902C23.3029 19.3805 25.6327 16.7626 26.0958 16.1431C26.5783 15.499 28.7147 13.3592 30.1461 13.3592L39.7817 13.3582C39.411 13.8111 39.188 14.3912 39.188 15.0223C39.188 15.6635 39.4188 16.2509 39.8002 16.7072C33.8136 16.7082 29.1219 16.7092 28.7852 16.7116C28.0403 16.7155 26.3718 17.6334 25.108 19.1523C24.0201 20.4645 25.4384 19.9887 25.4384 19.9887C27.5598 19.7849 29.5354 19.3082 26.1488 26.7071C22.9098 33.7862 27.7449 30.4717 30.5727 21.9062C30.6748 21.5946 29.8463 21.1887 29.8191 20.6018C29.7817 19.8519 29.5577 18.9883 30.8725 18.9883C32.1878 18.9883 31.7534 20.3208 32.8656 20.6601C35.1177 21.3489 36.3426 20.6431 35.1605 23.5043C34.0284 26.2474 32.7772 29.6591 34.2572 29.2484C34.9676 29.0513 35.3777 28.5314 35.641 28.0537C37.2036 23.8013 38.5422 20.514 38.5422 20.514H41.4488C41.4488 20.514 40.3687 23.2377 38.2765 28.5115C37.5433 30.3576 39.0048 29.3207 40.0893 28.1348C40.2151 27.1615 40.9415 26.7955 41.1607 26.7601C42.3117 25.0989 46.0024 19.8858 46.0024 19.8858C46.0024 19.8858 46.2843 20.0902 46.0476 20.463C45.7313 20.9591 46.3197 23.4188 46.5782 24.1989C46.9878 25.4426 47.6462 28.5115 45.9198 29.9212C45.5729 30.2052 45.2396 30.4372 44.9223 30.6212C45.9563 30.428 46.8124 29.9989 47.5145 29.4634L51.0177 20.5208H53.9068C53.9068 20.5208 53.7819 20.7941 53.6177 21.2159C54.4481 20.5819 55.4782 20.2436 56.2692 20.4538C57.0758 20.6664 59.7438 20.8737 56.7439 27.0154C56.0297 28.4741 55.2338 29.4382 54.4466 30.0294ZM59.1986 34.2139C60.1461 33.5935 60.8025 32.9236 61.3802 31.859C60.6738 32.0095 59.4649 32.6712 58.8361 33.2605C58.0155 34.0299 58.4173 34.7255 59.1986 34.2139ZM40.2385 15.0223C40.2385 14.1495 40.9464 13.4441 41.8186 13.4441C42.6907 13.4441 43.3987 14.1504 43.3987 15.0223C43.3987 15.8927 42.6912 16.5999 41.8186 16.5999C40.9459 16.5999 40.2385 15.8927 40.2385 15.0223ZM93.66 25.9479C95.142 25.9795 96.9257 25.0814 97.3144 24.411C97.7026 23.7407 97.6565 22.4276 96.6677 22.379C95.8315 22.3387 94.1717 23.1023 93.66 25.9479ZM123.129 28.4372C120.26 32.3129 116.021 31.8246 115.016 28.2494C114.317 29.6649 113.303 31.059 111.441 31.2231C109.205 31.4192 108.976 29.2115 109.222 27.9804C109.468 26.7479 109.853 26.2552 110.754 23.7096C111.391 21.9159 109.52 22.8319 108.457 24.5625C107.691 26.6266 105.958 31.2328 105.958 31.2328C105.958 31.2328 105.063 31.1658 103.065 31.1406C103.312 29.9095 104.963 26.2926 105.867 23.7475C106.513 21.9271 104.576 22.8965 103.523 24.6775C103.49 24.7358 103.455 24.7906 103.421 24.8426L100.838 31.2333H97.8192L98.7657 28.8455C98.464 29.1746 98.118 29.4896 97.7114 29.7765C93.8413 32.5095 91.9988 30.5324 91.3973 28.594C90.2909 29.9571 88.9474 31.1819 87.7604 31.1377C85.5419 31.0552 86.0861 27.7367 86.4704 26.6266C87.4733 23.7305 88.5636 22.5737 86.5282 22.5096C86.1891 22.4989 83.747 31.9624 79.3094 32.3741C75.1969 32.7527 76.7799 29.4833 77.4616 27.6105C78.5524 24.6159 79.7112 23.1183 79.1306 22.0023C78.6792 21.1358 76.1852 22.93 75.4189 24.8416C74.4311 27.3062 72.4332 32.4571 72.4332 32.4571L68.5849 32.5372C68.5849 32.5372 71.7602 24.5164 74.8466 16.4441C75.8528 13.8131 74.3179 13.7378 73.1168 13.8077C72.1266 13.8655 72.5158 12.9893 73.2407 12.9339C76.9373 12.6534 78.2789 12.7087 78.7234 12.998C79.4819 13.4936 79.4474 14.5145 79.3109 14.7514C78.6321 16.5179 77.3829 19.6465 77.2148 20.1383C76.6769 21.7198 77.7934 20.2014 78.1229 19.7902C78.4523 19.3805 80.7792 16.7635 81.2432 16.1441C81.7257 15.4999 83.8631 13.3606 85.295 13.3606C86.552 13.3606 121.965 13.3509 122.89 13.3606C124.556 13.3771 125.312 12.6223 125.616 12.3519C125.92 12.0815 126.267 12.0937 126.259 12.4102C126.256 12.5451 124.454 16.7174 121.959 16.7126C119.236 16.7072 84.867 16.7062 83.9321 16.7126C83.1897 16.7164 81.5187 17.6344 80.2559 19.1533C79.1666 20.4654 80.5853 19.9887 80.5853 19.9887C82.7072 19.7858 84.6814 19.3096 81.2972 26.7071C78.0568 33.7862 82.8928 30.4717 85.7207 21.9062C85.8237 21.5946 84.9952 21.1887 84.9666 20.6028C84.9301 19.8519 84.7052 18.9892 86.02 18.9892C87.3358 18.9892 86.9009 20.3213 88.0131 20.6611C90.2666 21.3494 91.4911 20.6436 90.3089 23.5052C89.1768 26.2474 87.9261 29.66 89.4051 29.2489C90.6033 28.9159 90.9483 27.6673 91.1679 27.2494C91.165 27.1314 91.166 27.0212 91.1743 26.9193C91.3788 24.0848 93.0425 21.6455 94.4584 21.0285C97.8508 19.5475 99.1578 21.4353 99.0466 23.2348C98.911 25.4416 96.4354 26.9193 93.6396 26.9999C93.5896 26.9605 93.5818 26.9897 93.6396 27.411C94.0779 30.5756 97.6846 28.8518 99.6097 26.7188L102.088 20.4761L105.195 20.4596L104.44 22.329C106.735 19.5824 109.212 20.3533 109.002 22.7038L109.091 22.5848C111.722 19.1363 114.726 20.4562 113.695 23.5712C113.543 24.0285 112.048 28.2746 112.048 28.2746C112.048 28.2746 111.586 29.7003 112.49 29.7003C113.27 29.7003 114.337 28.3246 114.814 27.0309L114.807 26.9193C114.665 24.1042 116.41 21.6751 117.817 21.0625C121.193 19.5907 122.635 21.4679 122.625 23.2562C122.613 25.4504 120.173 26.9193 117.327 27.0018C117.273 26.9605 117.266 26.9911 117.35 27.4091C118.104 31.1712 121.875 28.7013 122.431 28.0251C123.833 26.3125 123.786 27.5513 123.129 28.4372ZM117.286 25.9552C118.798 25.9858 120.568 25.0936 120.925 24.4266C121.283 23.7591 121.16 22.4543 120.149 22.4057C119.294 22.3664 117.644 23.1256 117.286 25.9552Z" stroke="white" stroke-width="1.68167" stroke-miterlimit="3.864"></path>
<path d="M43.8582 13.3581C54.38 13.3561 67.1889 13.3551 67.7399 13.3615C69.4065 13.377 70.1626 12.6221 70.4662 12.3518C70.7709 12.0809 71.1178 12.0945 71.1086 12.41C71.1057 12.5459 69.3045 16.7182 66.81 16.7124C65.2818 16.71 53.796 16.708 43.8393 16.708C44.2217 16.2522 44.4515 15.6634 44.4515 15.0231C44.452 14.392 44.2294 13.811 43.8582 13.3581ZM52.9326 23.2784C52.7382 23.6677 51.2208 27.4332 51.2208 27.4332C50.8131 28.474 51.4103 29.0026 51.8486 29.1138C52.8296 29.3638 53.7746 28.6405 54.7945 25.9604C56.4135 21.7041 53.4257 22.2934 52.9326 23.2784ZM42.213 26.7614C43.6653 27.4075 43.0818 29.424 42.0668 29.6686C41.5989 30.0356 43.5594 30.9948 44.4214 29.0215C45.2998 27.0104 44.1794 25.0551 44.0477 24.5798C43.695 24.8721 43.0827 25.6284 42.213 26.7614Z" stroke="white" stroke-width="1.68167" stroke-miterlimit="3.864"></path>
<path d="M69.2127 8.74459C38.623 5.13151 24.3588 3.6053 2.31661 1.00337C1.5698 1.00337 0.903654 0.881523 1.01152 2.10386C5.76397 18.3605 6.45295 21.045 12.6329 42.1065C13.9579 45.915 16.1226 46.9242 18.2196 46.9242C38.8596 46.9242 49.2258 46.9242 69.0495 46.9252C88.8716 46.9252 99.2254 46.9262 119.867 46.9262C121.962 46.9262 124.128 45.916 125.453 42.1084C131.634 21.046 132.322 18.362 137.075 2.1058C137.182 0.883465 136.517 1.00434 135.77 1.00434C113.728 3.60627 99.8036 5.13248 69.2127 8.74459Z" fill="#007550"></path>
<path d="M69.037 11.0193C96.6329 7.92758 113.066 5.83051 132.844 3.55626C133.555 3.48538 134.196 3.09364 133.864 4.24703C131.137 13.8625 130.289 16.8591 125.345 33.8823C124.383 36.9749 122.974 36.59 120.775 36.6002C102.199 36.6002 89.2144 36.5934 69.0375 36.5895C48.8596 36.5939 35.8876 36.5987 17.3127 36.5987C15.1136 36.5885 13.703 36.9735 12.7429 33.8827C7.79757 16.8571 6.94922 13.861 4.22194 4.24606C3.89105 3.09315 4.53145 3.48296 5.24327 3.55431C25.0193 5.82954 41.4408 7.92661 69.037 11.0193Z" fill="white"></path>
<path d="M43.8578 13.3581C54.3796 13.3561 67.1885 13.3551 67.7395 13.3615C69.4061 13.377 70.1621 12.6221 70.4658 12.3518C70.7705 12.0809 71.1174 12.0945 71.1081 12.41C71.1052 12.5459 69.3041 16.7182 66.8095 16.7124C65.2814 16.71 53.7956 16.708 43.8389 16.708C44.2213 16.2522 44.4511 15.6634 44.4511 15.0231C44.4516 14.392 44.229 13.811 43.8578 13.3581ZM52.9321 23.2784C52.7378 23.6677 51.2204 27.4332 51.2204 27.4332C50.8127 28.474 51.4099 29.0026 51.8481 29.1138C52.8291 29.3638 53.7742 28.6405 54.794 25.9604C56.413 21.7041 53.4253 22.2934 52.9321 23.2784ZM42.2126 26.7614C43.6649 27.4075 43.0814 29.424 42.0664 29.6686C41.5985 30.0356 43.559 30.9948 44.421 29.0215C45.2994 27.0104 44.179 25.0551 44.0473 24.5798C43.6946 24.8721 43.0824 25.6284 42.2126 26.7614ZM54.4466 30.0308C56.8984 29.2711 58.978 26.0643 59.4046 25.0002C60.3482 22.4823 61.1519 20.5299 61.1519 20.5299L64.0861 20.5226C64.0861 20.5226 61.9881 25.5386 61.0848 28.0842C60.2209 30.5152 62.6552 28.472 63.642 25.773C64.505 23.4502 65.6094 20.6124 65.6094 20.6124L68.652 20.607C68.652 20.607 65.1211 29.4167 64.7571 30.1803C65.8941 29.8715 67.3192 30.7458 67.1807 31.1696C66.6827 32.6856 66.3781 30.4196 64.2849 31.0735C63.1318 33.8647 60.5664 36.3026 58.5519 36.0011C55.9427 35.6123 57.465 32.0574 61.8647 30.771L62.2471 29.7089C59.9857 31.5856 57.808 30.4473 58.323 28.238C56.4252 30.5434 54.1954 30.8715 52.7776 30.7691C51.7111 30.9283 50.8006 30.4701 50.3268 29.7662C49.6048 31.6574 48.6189 34.0856 48.6189 34.0856H45.7036L47.1933 30.2822C45.9441 31.0176 44.7168 31.1604 43.7611 31.1244C41.8322 31.6526 40.6456 30.3647 40.305 29.424C38.1526 32.273 35.7746 31.2511 35.4505 29.5026C34.5317 30.456 33.5255 31.172 32.6135 31.138C30.3935 31.0565 30.9372 27.7371 31.3225 26.6254C32.3268 23.7318 33.4157 22.574 31.3803 22.5099C31.0411 22.4993 28.6 31.9638 24.1615 32.3754C20.0489 32.754 21.6329 29.4827 22.3151 27.6118C23.4059 24.6153 24.5633 23.1196 23.9827 22.0036C23.5327 21.1362 21.0372 22.9303 20.272 24.8429C19.2832 27.3075 17.2867 32.456 17.2867 32.456L13.4375 32.5385C13.4375 32.5385 16.6128 24.5167 19.6981 16.4444C20.7044 13.8144 19.1695 13.7377 17.9684 13.8081C16.9786 13.8668 17.3678 12.9906 18.0933 12.9352C21.7894 12.6537 23.1309 12.709 23.576 12.9993C24.3354 13.4945 24.3004 14.5148 24.1634 14.7517C23.4846 16.5182 22.2354 19.6469 22.0673 20.1396C21.528 21.7201 22.646 20.2027 22.9745 19.7915C23.3029 19.3818 25.6327 16.7639 26.0958 16.1444C26.5783 15.5003 28.7147 13.3605 30.1461 13.3605L39.7817 13.3595C39.411 13.8124 39.188 14.3925 39.188 15.0236C39.188 15.6648 39.4188 16.2522 39.8002 16.7085C33.8136 16.7095 29.1219 16.7105 28.7852 16.7129C28.0403 16.7168 26.3718 17.6347 25.108 19.1536C24.0201 20.4658 25.4384 19.9901 25.4384 19.9901C27.5598 19.7862 29.5354 19.3095 26.1488 26.7084C22.9098 33.7875 27.7449 30.473 30.5727 21.9075C30.6748 21.5959 29.8463 21.19 29.8191 20.6032C29.7817 19.8532 29.5577 18.9896 30.8725 18.9896C32.1878 18.9896 31.7534 20.3221 32.8656 20.6614C35.1177 21.3502 36.3426 20.6444 35.1605 23.5056C34.0284 26.2487 32.7772 29.6604 34.2572 29.2497C34.9676 29.0526 35.3777 28.5327 35.641 28.055C37.2036 23.8026 38.5422 20.5153 38.5422 20.5153H41.4488C41.4488 20.5153 40.3687 23.2391 38.2765 28.5128C37.5433 30.3589 39.0048 29.322 40.0893 28.1361C40.2151 27.1628 40.9415 26.7968 41.1607 26.7614C42.3117 25.1002 46.0024 19.8871 46.0024 19.8871C46.0024 19.8871 46.2843 20.0915 46.0476 20.4643C45.7313 20.9604 46.3197 23.4201 46.5782 24.2002C46.9878 25.4439 47.6462 28.5128 45.9198 29.9225C45.5729 30.2065 45.2396 30.4385 44.9223 30.6225C45.9563 30.4293 46.8124 30.0002 47.5145 29.4647L51.0177 20.5221H53.9068C53.9068 20.5221 53.7819 20.7954 53.6177 21.2172C54.4481 20.5833 55.4782 20.2449 56.2692 20.4551C57.0758 20.6677 59.7438 20.875 56.7439 27.0167C56.0297 28.4754 55.2338 29.4395 54.4466 30.0308ZM59.1986 34.2152C60.1461 33.5948 60.8025 32.9249 61.3802 31.8604C60.6738 32.0108 59.4649 32.6725 58.8361 33.2618C58.0155 34.0312 58.4173 34.7268 59.1986 34.2152ZM40.2385 15.0236C40.2385 14.1508 40.9464 13.4454 41.8186 13.4454C42.6907 13.4454 43.3987 14.1517 43.3987 15.0236C43.3987 15.894 42.6912 16.6012 41.8186 16.6012C40.9459 16.6012 40.2385 15.894 40.2385 15.0236ZM93.66 25.9492C95.142 25.9808 96.9257 25.0827 97.3144 24.4123C97.7026 23.742 97.6565 22.4289 96.6677 22.3803C95.8315 22.34 94.1717 23.1036 93.66 25.9492ZM123.129 28.4385C120.26 32.3142 116.021 31.8259 115.016 28.2507C114.317 29.6662 113.303 31.0604 111.441 31.2244C109.205 31.4206 108.976 29.2128 109.222 27.9817C109.468 26.7492 109.853 26.2565 110.754 23.7109C111.391 21.9172 109.52 22.8332 108.457 24.5638C107.691 26.6279 105.958 31.2341 105.958 31.2341C105.958 31.2341 105.063 31.1672 103.065 31.1419C103.312 29.9109 104.963 26.2939 105.867 23.7488C106.513 21.9284 104.576 22.8978 103.523 24.6789C103.49 24.7371 103.455 24.792 103.421 24.8439L100.838 31.2346H97.8192L98.7657 28.8468C98.464 29.1759 98.118 29.491 97.7114 29.7778C93.8413 32.5108 91.9988 30.5337 91.3973 28.5953C90.2909 29.9584 88.9474 31.1832 87.7604 31.139C85.5419 31.0565 86.0861 27.7381 86.4704 26.6279C87.4733 23.7318 88.5636 22.575 86.5282 22.5109C86.1891 22.5002 83.747 31.9638 79.3094 32.3754C75.1969 32.754 76.7799 29.4846 77.4616 27.6118C78.5524 24.6172 79.7112 23.1196 79.1306 22.0036C78.6792 21.1371 76.1852 22.9313 75.4189 24.8429C74.4311 27.3075 72.4332 32.4584 72.4332 32.4584L68.5849 32.5385C68.5849 32.5385 71.7602 24.5177 74.8466 16.4454C75.8528 13.8144 74.3179 13.7391 73.1168 13.809C72.1266 13.8668 72.5158 12.9906 73.2407 12.9352C76.9373 12.6547 78.2789 12.71 78.7234 12.9993C79.4819 13.495 79.4474 14.5158 79.3109 14.7527C78.6321 16.5192 77.3829 19.6478 77.2148 20.1396C76.6769 21.7211 77.7934 20.2027 78.1229 19.7915C78.4523 19.3818 80.7792 16.7648 81.2432 16.1454C81.7257 15.5012 83.8631 13.3619 85.295 13.3619C86.552 13.3619 121.965 13.3522 122.89 13.3619C124.556 13.3784 125.312 12.6236 125.616 12.3532C125.92 12.0828 126.267 12.095 126.259 12.4115C126.256 12.5464 124.454 16.7187 121.959 16.7139C119.236 16.7085 84.867 16.7076 83.9321 16.7139C83.1897 16.7177 81.5187 17.6357 80.2559 19.1546C79.1666 20.4667 80.5853 19.9901 80.5853 19.9901C82.7072 19.7871 84.6814 19.3109 81.2972 26.7084C78.0568 33.7875 82.8928 30.473 85.7207 21.9075C85.8237 21.5959 84.9952 21.19 84.9666 20.6041C84.9301 19.8532 84.7052 18.9905 86.02 18.9905C87.3358 18.9905 86.9009 20.3226 88.0131 20.6624C90.2666 21.3507 91.4911 20.6449 90.3089 23.5065C89.1768 26.2487 87.9261 29.6613 89.4051 29.2502C90.6033 28.9172 90.9483 27.6686 91.1679 27.2507C91.165 27.1327 91.166 27.0225 91.1743 26.9206C91.3788 24.0861 93.0425 21.6468 94.4584 21.0299C97.8508 19.5488 99.1578 21.4366 99.0466 23.2361C98.911 25.4429 96.4354 26.9206 93.6396 27.0012C93.5896 26.9618 93.5818 26.991 93.6396 27.4123C94.0779 30.5769 97.6846 28.8531 99.6097 26.7201L102.088 20.4774L105.195 20.4609L104.44 22.3303C106.735 19.5837 109.212 20.3546 109.002 22.7051L109.091 22.5861C111.722 19.1376 114.726 20.4575 113.695 23.5725C113.543 24.0298 112.048 28.2759 112.048 28.2759C112.048 28.2759 111.586 29.7016 112.49 29.7016C113.27 29.7016 114.337 28.3259 114.814 27.0322L114.807 26.9206C114.665 24.1056 116.41 21.6764 117.817 21.0638C121.193 19.592 122.635 21.4692 122.625 23.2575C122.613 25.4517 120.173 26.9206 117.327 27.0031C117.273 26.9618 117.266 26.9924 117.35 27.4104C118.104 31.1725 121.875 28.7026 122.431 28.0264C123.833 26.3138 123.786 27.5526 123.129 28.4385ZM117.286 25.9565C118.798 25.9871 120.568 25.0949 120.925 24.4279C121.283 23.7604 121.16 22.4556 120.149 22.407C119.294 22.3677 117.644 23.1269 117.286 25.9565Z" fill="#CE1041"></path>
<path fill-rule="evenodd" clip-rule="evenodd" d="M122.149 39.7458C122.362 39.7458 122.517 39.7676 122.615 39.8079C122.792 39.8821 122.88 40.0263 122.88 40.2408C122.881 40.3927 122.826 40.5038 122.714 40.5761C122.655 40.6135 122.572 40.6421 122.467 40.6586C122.601 40.6795 122.699 40.7353 122.761 40.8256C122.823 40.9163 122.854 41.0042 122.854 41.0905V41.2143C122.854 41.2536 122.856 41.2968 122.858 41.3424C122.861 41.3876 122.866 41.4167 122.873 41.4307L122.884 41.4526H122.604C122.602 41.4453 122.601 41.4409 122.599 41.4346C122.597 41.4288 122.595 41.423 122.594 41.4172L122.587 41.3613L122.587 41.2259C122.587 41.0289 122.534 40.8979 122.426 40.8343C122.361 40.7969 122.251 40.7785 122.092 40.7785H121.855L121.856 41.4506H121.555L121.552 39.7467H122.149M122.472 40.0151C122.398 39.9724 122.278 39.952 122.11 39.952L121.855 39.9501L121.856 40.5684H122.127C122.253 40.5684 122.349 40.5567 122.412 40.531C122.529 40.4849 122.587 40.3956 122.587 40.265C122.586 40.1403 122.55 40.0578 122.472 40.0151ZM123.283 41.7069C122.98 42.0112 122.613 42.1621 122.183 42.1621C121.751 42.1602 121.386 42.0073 121.084 41.703C120.782 41.3997 120.632 41.0313 120.631 40.6009C120.631 40.1738 120.781 39.8089 121.085 39.5055C121.387 39.2042 121.75 39.0537 122.178 39.0547C122.609 39.0547 122.977 39.2066 123.28 39.5085C123.584 39.8108 123.735 40.1767 123.736 40.6048C123.737 41.0352 123.585 41.4016 123.283 41.7069ZM121.236 39.6555C120.978 39.9161 120.848 40.2316 120.848 40.6004C120.848 40.9726 120.978 41.2905 121.236 41.5535C121.496 41.8156 121.812 41.9471 122.184 41.9471C122.554 41.9486 122.869 41.8166 123.128 41.5555C123.388 41.2944 123.518 40.9765 123.518 40.6043C123.517 40.234 123.386 39.9195 123.126 39.6594C122.864 39.3954 122.549 39.2648 122.18 39.2639C121.811 39.2629 121.497 39.3944 121.236 39.6555Z" fill="white"></path>
<path d="M58.5029 41.1902V42.2683H59.5003C59.4444 42.8779 58.9892 43.1852 58.3931 43.1852C57.4899 43.1852 56.9987 42.3527 56.9987 41.5334C56.9987 40.7281 57.4685 39.868 58.3727 39.868C58.927 39.868 59.3268 40.2034 59.5144 40.7082L60.8174 40.1602C60.3622 39.1729 59.5222 38.6836 58.4353 38.6836C56.7334 38.6836 55.5703 39.8107 55.5703 41.5256C55.5703 43.1847 56.7256 44.3108 58.3863 44.3108C59.2695 44.3108 60.0478 43.9967 60.5657 43.2759C61.0356 42.6172 61.0914 41.9605 61.105 41.1897L58.5029 41.1902Z" fill="white"></path>
<path d="M58.5029 41.1902V42.2683H59.5003C59.4444 42.8779 58.9892 43.1852 58.3931 43.1852C57.4899 43.1852 56.9987 42.3527 56.9987 41.5334C56.9987 40.7281 57.4685 39.868 58.3727 39.868C58.927 39.868 59.3268 40.2034 59.5144 40.7082L60.8174 40.1602C60.3622 39.1729 59.5222 38.6836 58.4353 38.6836C56.7334 38.6836 55.5703 39.8107 55.5703 41.5256C55.5703 43.1847 56.7256 44.3108 58.3863 44.3108C59.2695 44.3108 60.0478 43.9967 60.5657 43.2759C61.0356 42.6172 61.0914 41.9605 61.105 41.1897L58.5029 41.1902Z" stroke="white" stroke-width="0.101667" stroke-miterlimit="3.864"></path>
<path d="M107.372 40.0214H108.916V38.8594H104.414V40.0214H105.958V44.139H107.372V40.0214Z" fill="white"></path>
<path d="M107.372 40.0214H108.916V38.8594H104.414V40.0214H105.958V44.139H107.372V40.0214Z" stroke="white" stroke-width="0.101667" stroke-miterlimit="3.864"></path>
<path fill-rule="evenodd" clip-rule="evenodd" d="M20.5595 40.0209H20.8831C21.7654 40.0209 22.3897 40.5544 22.3897 41.4984C22.3897 42.5284 21.6881 42.976 20.8685 42.976H20.5595V40.0209ZM19.186 44.1375H21.1343C22.5986 44.1375 23.819 42.9828 23.819 41.4984C23.819 40.0151 22.6064 38.8594 21.1357 38.8594H19.186V44.1375Z" fill="white"></path>
<path d="M20.5595 40.0209H20.8831C21.7654 40.0209 22.3897 40.5544 22.3897 41.4984C22.3897 42.5284 21.6881 42.976 20.8685 42.976H20.5595V40.0209ZM19.186 44.1375H21.1343C22.5986 44.1375 23.819 42.9828 23.819 41.4984C23.819 40.0151 22.6064 38.8594 21.1357 38.8594H19.186V44.1375Z" stroke="white" stroke-width="0.101667" stroke-miterlimit="3.864"></path>
<path fill-rule="evenodd" clip-rule="evenodd" d="M33.6421 40.0141C34.4617 40.0141 35.1346 40.6786 35.1346 41.4067C35.1346 42.3168 34.4617 42.9813 33.6421 42.9813C32.8225 42.9813 32.1486 42.3168 32.1486 41.4067C32.1486 40.6791 32.8225 40.0141 33.6421 40.0141ZM33.6421 38.6836C32.1209 38.6836 30.7197 39.8039 30.7197 41.3994C30.7197 43.1085 31.946 44.3113 33.6421 44.3113C35.3381 44.3113 36.5634 43.1085 36.5634 41.3994C36.5644 39.8039 35.1623 38.6836 33.6421 38.6836Z" fill="white"></path>
<path d="M33.6421 40.0141C34.4617 40.0141 35.1346 40.6786 35.1346 41.4067C35.1346 42.3168 34.4617 42.9813 33.6421 42.9813C32.8225 42.9813 32.1486 42.3168 32.1486 41.4067C32.1486 40.6791 32.8225 40.0141 33.6421 40.0141ZM33.6421 38.6836C32.1209 38.6836 30.7197 39.8039 30.7197 41.3994C30.7197 43.1085 31.946 44.3113 33.6421 44.3113C35.3381 44.3113 36.5634 43.1085 36.5634 41.3994C36.5644 39.8039 35.1623 38.6836 33.6421 38.6836Z" stroke="white" stroke-width="0.101667" stroke-miterlimit="3.864"></path>
<path fill-rule="evenodd" clip-rule="evenodd" d="M47.0232 38.7891V41.5684C47.0232 42.2548 46.9737 43.0047 46.0918 43.0047C45.2096 43.0047 45.1595 42.2548 45.1595 41.5684V38.7891H43.7866V41.7577C43.7866 42.4368 43.8153 43.1081 44.34 43.6187C44.782 44.0531 45.4748 44.207 46.0918 44.207C46.7089 44.207 47.4017 44.0531 47.8438 43.6197C48.3685 43.1081 48.3972 42.4368 48.3972 41.7577V38.7891H47.0232Z" fill="white"></path>
<path d="M47.0232 38.7891V41.5684C47.0232 42.2548 46.9737 43.0047 46.0918 43.0047C45.2096 43.0047 45.1595 42.2548 45.1595 41.5684V38.7891H43.7866V41.7577C43.7866 42.4368 43.8153 43.1081 44.34 43.6187C44.782 44.0531 45.4748 44.207 46.0918 44.207C46.7089 44.207 47.4017 44.0531 47.8438 43.6197C48.3685 43.1081 48.3972 42.4368 48.3972 41.7577V38.7891H47.0232Z" stroke="white" stroke-width="0.101667" stroke-miterlimit="3.864"></path>
<path fill-rule="evenodd" clip-rule="evenodd" d="M69.6796 40.8961V38.8594H68.3062V44.139H69.6796V41.9756H71.6619V44.139H73.0354V38.8594H71.6619V40.8961H69.6796Z" fill="white"></path>
<path d="M69.6796 40.8961V38.8594H68.3062V44.139H69.6796V41.9756H71.6619V44.139H73.0354V38.8594H71.6619V40.8961H69.6796Z" stroke="white" stroke-width="0.101667" stroke-miterlimit="3.864"></path>
<path fill-rule="evenodd" clip-rule="evenodd" d="M80.5039 44.139H81.8774V40.9048H81.892L84.4072 44.139H85.7811V38.8594H84.4072V42.0872H84.3926L81.8774 38.8594H80.5039V44.139Z" fill="white"></path>
<path d="M80.5039 44.139H81.8774V40.9048H81.892L84.4072 44.139H85.7811V38.8594H84.4072V42.0872H84.3926L81.8774 38.8594H80.5039V44.139Z" stroke="white" stroke-width="0.101667" stroke-miterlimit="3.864"></path>
<path fill-rule="evenodd" clip-rule="evenodd" d="M96.4574 38.8594V41.6397C96.4574 42.3251 96.4088 43.075 95.526 43.075C94.6437 43.075 94.5932 42.3251 94.5932 41.6397V38.8594H93.2207V41.828C93.2207 42.5071 93.2484 43.1789 93.7741 43.6905C94.2162 44.1244 94.909 44.2783 95.526 44.2783C96.1431 44.2783 96.8354 44.1244 97.2775 43.6905C97.8022 43.1789 97.8309 42.5071 97.8309 41.828V38.8594H96.4574Z" fill="white"></path>
<path d="M96.4574 38.8594V41.6397C96.4574 42.3251 96.4088 43.075 95.526 43.075C94.6437 43.075 94.5932 42.3251 94.5932 41.6397V38.8594H93.2207V41.828C93.2207 42.5071 93.2484 43.1789 93.7741 43.6905C94.2162 44.1244 94.909 44.2783 95.526 44.2783C96.1431 44.2783 96.8354 44.1244 97.2775 43.6905C97.8022 43.1789 97.8309 42.5071 97.8309 41.828V38.8594H96.4574Z" stroke="white" stroke-width="0.101667" stroke-miterlimit="3.864"></path>
<path fill-rule="evenodd" clip-rule="evenodd" d="M119.022 39.1566C118.554 38.8906 117.902 38.7227 117.37 38.7227C116.312 38.7227 115.548 39.4236 115.548 40.4934C115.548 41.5151 116.114 41.7389 116.977 41.9845C117.271 42.068 117.81 42.2015 117.81 42.5883C117.81 42.9572 117.466 43.1184 117.145 43.1184C116.675 43.1184 116.27 42.8737 115.927 42.5728L115.338 43.678C115.876 44.0566 116.529 44.2804 117.194 44.2804C117.728 44.2804 118.281 44.1333 118.694 43.7838C119.115 43.4266 119.241 42.8883 119.241 42.3621C119.241 41.5083 118.672 41.1375 117.938 40.921L117.587 40.8147C117.348 40.7375 116.977 40.6186 116.977 40.3113C116.977 40.0172 117.312 39.8706 117.565 39.8706C117.901 39.8706 118.223 40.0099 118.475 40.2201L119.022 39.1566Z" fill="white"></path>
<path d="M119.022 39.1566C118.554 38.8906 117.902 38.7227 117.37 38.7227C116.312 38.7227 115.548 39.4236 115.548 40.4934C115.548 41.5151 116.114 41.7389 116.977 41.9845C117.271 42.068 117.81 42.2015 117.81 42.5883C117.81 42.9572 117.466 43.1184 117.145 43.1184C116.675 43.1184 116.27 42.8737 115.927 42.5728L115.338 43.678C115.876 44.0566 116.529 44.2804 117.194 44.2804C117.728 44.2804 118.281 44.1333 118.694 43.7838C119.115 43.4266 119.241 42.8883 119.241 42.3621C119.241 41.5083 118.672 41.1375 117.938 40.921L117.587 40.8147C117.348 40.7375 116.977 40.6186 116.977 40.3113C116.977 40.0172 117.312 39.8706 117.565 39.8706C117.901 39.8706 118.223 40.0099 118.475 40.2201L119.022 39.1566Z" stroke="white" stroke-width="0.101667" stroke-miterlimit="3.864"></path>
<path d="M127.282 41.5989H127.597L127.818 40.3735L128.402 41.6931L129.001 40.3774L129.197 41.5989H129.508L129.126 39.418L128.405 40.9933L127.707 39.418L127.282 41.5989Z" fill="#007550"></path>
<path fill-rule="evenodd" clip-rule="evenodd" d="M131.442 39.6802C131.252 39.5701 131.112 39.5312 130.897 39.5312C130.324 39.5312 129.84 40.0107 129.84 40.579C129.84 41.176 130.302 41.6394 130.897 41.6394C131.085 41.6394 131.262 41.5904 131.442 41.4865V41.1197C131.247 41.2847 131.091 41.3502 130.903 41.3502C130.475 41.3502 130.148 41.0211 130.148 40.5897C130.148 40.1617 130.478 39.82 130.889 39.82C131.095 39.82 131.25 39.885 131.442 40.0423V39.6802Z" fill="#007550"></path>
</svg>