<svg width="131" height="63" viewBox="0 0 131 63" fill="none" xmlns="http://www.w3.org/2000/svg">
<path d="M106.378 0.247428C106.082 0.384702 105.899 0.613603 105.968 0.750876C106.013 0.888149 106.287 1.5287 106.56 2.14643L107.061 3.31325L106.104 4.27416C105.033 5.34953 105.079 4.96053 105.649 8.91863C105.945 10.8861 105.945 10.9091 105.33 11.9615C104.988 12.5334 104.19 13.5401 103.575 14.1578C102.937 14.7984 102.481 15.3933 102.55 15.4847C102.846 15.7823 105.102 15.622 106.264 15.2102C109.568 14.0892 112.257 9.23882 111.368 5.96726C111.049 4.7088 110.639 4.20552 109.477 3.61062C108.998 3.35906 108.611 3.01588 108.611 2.85562C108.611 2.6727 108.383 1.96334 108.132 1.25415C107.608 -0.0727657 107.381 -0.233028 106.378 0.247428Z" fill="#25CAD2"></path>
<path d="M1.34929 2.9836C1.0521 3.09787 0.617553 3.4177 0.411769 3.6918C0.0459878 4.17147 0.0231811 6.09015 0.000201831 32.3577C0.000201831 62.8738 -0.0454142 61.5491 1.23491 62.3941C1.76086 62.7597 2.33242 62.8053 5.32778 62.7367C9.0319 62.6912 10.4952 62.3486 10.8612 61.4805C10.9526 61.2522 11.044 53.486 11.0897 44.2124C11.1125 31.9238 11.2041 27.2869 11.3869 27.1041C11.8443 26.6474 12.7132 27.3327 15.6398 30.3705C18.7266 33.5912 19.6641 34.3221 20.7844 34.5505C21.5161 34.6875 21.6533 34.5733 25.266 30.9872C27.3239 28.9543 29.2445 27.1727 29.5189 27.0128C30.5249 26.4874 30.5934 26.9215 30.6164 34.8931C30.662 43.5957 30.685 43.71 32.3769 43.9611C33.4974 44.1211 39.7395 43.9155 40.6083 43.687C41.1342 43.55 42.0032 41.7456 41.7516 41.3344C41.683 41.2201 41.6144 32.8602 41.6144 22.7186L41.5916 4.30852L40.7684 3.48623C40.0825 2.77803 39.8537 2.68673 39.2364 2.80099C37.6817 3.12066 36.5612 3.92016 34.3662 6.31851C30.0219 11.0239 22.2935 18.9727 21.5161 19.498C20.5558 20.1604 19.9842 19.9548 18.6352 18.4701C17.6976 17.4194 15.457 15.0439 10.198 9.56194C4.61903 3.73737 2.88118 2.43541 1.34929 2.9836Z" fill="#25CAD2"></path>
<path d="M55.2851 4.06047C51.0315 5.45469 47.5553 8.79187 46.2061 12.7918C45.5656 14.6662 45.154 20.0147 45.497 22.0033C46.2517 26.2317 49.019 30.3004 52.4036 32.1518C53.3183 32.6546 54.9879 33.3403 56.1312 33.6831C58.0523 34.2545 58.3725 34.2775 60.8652 34.1403C63.7467 33.9802 64.9816 33.6603 67.5659 32.3345C70.5847 30.826 73.512 27.009 74.4495 23.3747C75.0214 21.1346 75.0214 16.426 74.4495 14.2318C73.7178 11.5347 72.5971 9.45478 70.9049 7.76331C69.0067 5.82052 67.8403 5.15761 64.753 4.17481C62.5804 3.46613 62.0315 3.37476 59.7904 3.39756C57.6406 3.39756 56.9775 3.4891 55.2851 4.06047ZM63.1292 11.6947C65.2791 12.6546 66.3768 14.1404 66.9942 16.906C67.2457 17.9576 67.2457 18.6203 67.0171 20.2204C66.6282 23.0546 65.6221 24.586 63.4495 25.7289C62.4432 26.2547 62.0315 26.3232 60.1335 26.346C57.5492 26.346 56.6573 25.9804 55.0793 24.2203C53.6843 22.689 53.1811 21.1575 53.1811 18.4604C53.1583 16.4946 53.2269 16.1518 53.8444 14.9405C54.5762 13.4775 55.8568 12.2432 57.2748 11.5805C58.6697 10.9176 61.5513 10.9861 63.1292 11.6947Z" fill="#25CAD2"></path>
<path d="M80.0165 3.70879C79.6736 3.82284 79.285 4.18828 79.1478 4.53077C78.9421 5.01027 78.9193 10.0335 78.9879 23.2994C79.0565 33.2545 79.1936 41.7711 79.2622 42.2051C79.5135 43.4608 80.245 43.6436 85.251 43.6206C87.6053 43.6206 92.177 43.5978 95.4 43.6206C98.6458 43.6206 101.549 43.5066 101.846 43.3923C102.737 43.0499 102.897 42.4791 102.897 39.3966C102.897 35.652 102.806 35.5378 99.6974 35.3552C98.5087 35.2638 95.88 35.2638 93.8686 35.3095C91.537 35.3552 89.9826 35.2867 89.5712 35.1268C88.5198 34.7158 88.2683 33.9167 88.2683 30.9941C88.2683 26.3134 88.2455 26.3362 94.7828 26.3134C100.292 26.2677 100.749 26.2219 100.932 25.4914C101.252 24.1899 101.343 20.3995 101.092 19.5776C100.612 18.162 100.223 18.0706 94.5543 18.0706C90.6226 18.0478 89.4568 17.9793 89.0683 17.7281C88.0853 17.0888 87.8796 13.3214 88.7711 12.4309C89.2969 11.9057 91.6512 11.6546 96.5658 11.6546H101.114L101.8 10.9467L102.509 10.2617L102.372 7.59028C102.235 4.57633 102.143 4.23384 101.435 3.82284C100.84 3.48035 80.9536 3.3663 80.0165 3.70879Z" fill="#25CAD2"></path>
<path d="M115.084 13.7067C109.419 15.0083 106.495 18.6849 107.021 23.8457C107.341 27.0198 108.688 29.0979 111.224 30.331C113.074 31.2444 114.787 31.6326 118.076 31.9522C120.794 32.2262 122.027 32.546 122.553 33.1853C122.918 33.6193 122.941 34.9209 122.598 35.5375C122.21 36.3139 120.771 36.8391 118.898 36.9304C116.774 37.0446 115.266 36.4736 114.056 35.1265C113.279 34.2814 113.165 34.2359 111.795 34.1902C109.67 34.1216 107.66 34.2587 107.226 34.487C106.678 34.7839 106.701 36.1768 107.272 37.7068C107.98 39.6249 109.51 41.1778 111.68 42.2054C114.878 43.7125 117.939 44.1008 121.434 43.4843C126.756 42.5022 130.045 39.3509 130.296 34.9437C130.479 31.6326 129.177 29.0749 126.596 27.7048C125.271 26.997 122.027 26.1977 119.264 25.8781C117.277 25.6496 115.198 24.9646 114.604 24.3252C114.124 23.8229 114.079 23.5944 114.193 22.6583C114.467 20.6944 116.02 19.8951 119.172 20.1236C120.429 20.2148 120.611 20.3061 121.616 21.2882C123.01 22.6583 123.512 22.8181 126.253 22.8181C128.24 22.8181 128.583 22.7496 128.994 22.3385C130.159 21.1739 128.469 17.6344 125.796 15.6706C124.357 14.6201 122.964 14.0265 120.703 13.5697C118.67 13.1359 117.436 13.1587 115.084 13.7067Z" fill="#25CAD2"></path>
<path d="M48.4905 40.4967C46.6599 42.3256 45.9277 43.2172 46.0193 43.4687C46.1566 43.7886 47.5752 43.8344 60.0915 43.8344C72.4476 43.8344 74.0721 43.7886 74.3467 43.4687C74.5984 43.1714 74.2781 42.7599 72.0128 40.4967C70.5942 39.0565 69.2441 37.8906 69.061 37.8906C68.8551 37.8906 67.8484 38.7594 66.7729 39.8339C65.6974 40.9082 64.7364 41.777 64.5991 41.777C64.4618 41.777 63.5008 40.9082 62.4255 39.8339C61.35 38.7594 60.3431 37.8906 60.1372 37.8906C59.9542 37.8906 58.9016 38.7822 57.8033 39.8795L55.7897 41.8913L53.7762 39.8795C52.6779 38.7822 51.6252 37.8906 51.4423 37.8906C51.2363 37.8906 49.9091 39.0565 48.4905 40.4967Z" fill="#25CAD2"></path>
<path d="M27.8275 50.435C25.903 50.7776 25.4678 51.8737 25.4678 56.3726C25.4678 61.5108 25.8573 62.1959 28.8357 62.1959C30.5311 62.1959 30.6915 62.1502 31.1954 61.5793C31.9058 60.7344 32.0661 59.6153 31.9515 55.4362C31.8599 50.9375 31.7453 50.6863 29.3627 50.3665C28.996 50.321 28.2858 50.3437 27.8275 50.435ZM29.9582 52.4218C30.2103 52.6959 30.2791 53.655 30.2791 56.2813C30.2791 60.1863 30.1416 60.5517 28.7669 60.5517C27.3923 60.5517 27.1861 59.9808 27.1861 56.2813C27.1861 52.4903 27.3464 52.0337 28.7669 52.0337C29.3168 52.0337 29.7751 52.1707 29.9582 52.4218Z" fill="#25CAD2"></path>
<path d="M77.3083 50.5903C76.5044 51.0018 75.9073 52.0304 75.9073 53.0591C75.9073 54.3165 76.5044 55.1394 78.5257 56.5795C79.6052 57.3567 80.6159 58.2024 80.7308 58.4311C81.3509 59.5739 80.6619 60.4884 79.2148 60.4884C78.1812 60.4884 77.7447 60.1683 77.7447 59.414C77.7447 58.9567 77.6299 58.8882 76.826 58.8882C75.7924 58.8882 75.7235 59.0483 76.1598 60.534C76.4585 61.6542 77.2854 62.0885 79.077 62.0885C81.4657 62.0885 82.3614 61.4941 82.6831 59.7341C83.0047 58.0652 82.04 56.6709 79.2837 54.8879C77.9514 54.0192 77.561 53.402 77.8596 52.5105C78.0203 51.9848 78.7325 51.7333 79.7201 51.8477C80.2024 51.8933 80.478 52.122 80.7308 52.6476C81.0293 53.2648 81.2131 53.402 81.8562 53.402H82.6371L82.4992 52.3505C82.3385 50.7504 81.7873 50.339 79.743 50.2474C78.5257 50.2018 77.8825 50.2932 77.3083 50.5903Z" fill="#25CAD2"></path>
<path d="M96.3209 50.5737C95.3167 51.2837 95.0429 52.2 94.9517 55.3843C94.8375 58.6142 95.1341 60.63 95.7959 61.4775C96.1382 61.8899 96.5033 62.0045 97.7813 62.0732C100.679 62.2335 101.296 61.5463 101.364 58.156L101.41 56.0485L99.8808 55.9797L98.329 55.911V56.7128C98.329 57.4001 98.3974 57.5147 98.9679 57.5834C99.5385 57.6521 99.584 57.7208 99.584 58.7974C99.584 59.7595 99.5156 59.9657 98.9908 60.2636C98.2605 60.6759 97.3021 60.4467 96.9141 59.7595C96.7087 59.4159 96.6175 58.2247 96.6175 56.1631C96.6175 53.5744 96.6859 52.9559 97.0282 52.4292C97.7356 51.3525 99.6982 51.7419 99.6982 52.979C99.6982 53.3226 99.8579 53.4141 100.52 53.4141H101.364L101.227 52.3374C101.045 50.734 100.36 50.207 98.3747 50.207C97.3478 50.207 96.6632 50.3216 96.3209 50.5737Z" fill="#25CAD2"></path>
<path d="M111.85 50.4781C111.234 51.1007 111.714 52.0463 112.649 52.0463C113.311 52.0463 113.744 51.2853 113.402 50.6627C113.128 50.1554 112.284 50.04 111.85 50.4781Z" fill="#25CAD2"></path>
<path d="M123.376 50.4359C123.308 50.5504 123.331 53.1602 123.399 56.2735L123.558 61.8823H126.38H129.179V61.081V60.2799H127.268C125.743 60.2799 125.333 60.2112 125.22 59.9135C125.151 59.7074 125.083 57.441 125.083 54.8771V50.207H124.309C123.877 50.207 123.467 50.2985 123.376 50.4359Z" fill="#25CAD2"></path>
<path d="M18.6998 50.8358C17.8548 51.3616 17.5122 52.276 17.6493 53.6934C17.7863 55.0193 18.1289 55.408 20.8697 57.3511C22.2629 58.3342 22.3999 58.517 22.3999 59.2258C22.3999 60.1402 21.7604 60.7346 20.7554 60.7346C20.0017 60.7346 19.2023 60.0258 19.2023 59.363C19.2023 58.9971 19.0424 58.9057 18.403 58.9057C17.6493 58.9057 17.6035 58.9515 17.6035 59.6829C17.6035 61.5118 18.5628 62.3348 20.6641 62.3348C22.9708 62.3348 24.2272 61.2833 24.2272 59.363C24.2272 57.7398 23.4734 56.7796 20.961 55.1337C19.3393 54.0821 18.9739 53.4649 19.5221 52.6189C19.8189 52.1618 20.0702 52.0475 20.8697 52.0475C21.9203 52.0475 22.3999 52.3446 22.3999 53.0076C22.3999 53.3277 22.5827 53.4191 23.2907 53.4191H24.2042L24.0672 52.5503C23.7931 50.7902 23.2679 50.4473 20.8467 50.4473C19.8189 50.4473 19.111 50.5844 18.6998 50.8358Z" fill="#25CAD2"></path>
<path d="M33.4442 55.1852C33.5813 60.7472 33.7641 61.4567 35.1578 62.0518C36.186 62.4638 38.1738 62.3493 38.9964 61.8C39.8419 61.2507 40.0246 60.0834 40.0246 55.0707V50.4473H39.2478H38.448L38.3795 55.0936C38.3109 60.4267 38.2424 60.5868 36.7344 60.4725C35.3864 60.3808 35.2264 59.9232 35.2264 55.9176C35.2264 54.0866 35.1578 52.0953 35.0893 51.5001C34.9294 50.4701 34.9066 50.4473 34.1297 50.4473H33.3301L33.4442 55.1852Z" fill="#25CAD2"></path>
<path d="M41.6191 51.2189V52.0201L42.8256 52.0888L44.0091 52.1574L44.0774 56.9869L44.123 61.8393L44.9195 61.9308L45.7162 62.0225L45.7618 57.0785L45.8301 52.1574L47.0364 52.0888L48.2428 52.0201L48.1745 51.2876L48.1062 50.5553L44.8741 50.4866L41.6191 50.418V51.2189Z" fill="#25CAD2"></path>
<path d="M49.624 56.1612V61.8749H50.5401H51.4334L51.5021 59.8637L51.5709 57.8753L52.8994 57.8067L54.205 57.7381V59.8179V61.8749H55.144H56.106L55.9457 59.7721C55.877 58.6295 55.8083 56.0696 55.8083 54.0584V50.4473H55.0066H54.205V53.3042V56.184L52.8994 56.1154L51.5709 56.0468L51.5021 53.2356L51.4334 50.4473H50.5401H49.624V56.1612Z" fill="#25CAD2"></path>
<path d="M57.6289 50.8131C57.6289 51.1787 59.1361 60.435 59.3416 61.3491C59.4558 61.7835 59.6156 61.8749 60.3692 61.8749C60.8716 61.8749 61.2826 61.8063 61.2826 61.692C61.2826 61.6006 61.4881 60.3436 61.7394 58.9038C61.9906 57.4639 62.1962 56.2297 62.1962 56.1612C62.1962 56.0926 62.2875 56.2068 62.4017 56.3897C62.5158 56.5725 62.7898 57.8981 63.0183 59.2922L63.4293 61.8749H64.297C64.7995 61.8749 65.2105 61.7605 65.2561 61.5778C65.3018 61.4407 65.7356 59.0865 66.1924 56.3897C66.6492 53.6928 67.083 51.2473 67.1515 50.9502C67.2658 50.493 67.1743 50.4473 66.4437 50.4473C65.9869 50.4473 65.5531 50.5844 65.5073 50.7215C65.4388 50.8816 65.2105 52.3443 64.9821 53.9671C64.7537 55.6126 64.4797 56.961 64.3427 57.0067C64.2285 57.0525 63.9317 55.6126 63.6804 53.8299L63.2238 50.5616L62.3787 50.493C61.5796 50.4245 61.5339 50.4702 61.3969 51.1787C61.1913 52.4129 60.5975 56.5953 60.5975 56.8468C60.5975 56.961 60.5062 57.0753 60.392 57.0753C60.1637 57.0753 60.118 56.801 59.5471 53.0072L59.1589 50.4473H58.4053C57.8572 50.4473 57.6289 50.5616 57.6289 50.8131Z" fill="#25CAD2"></path>
<path d="M68.9235 52.6643C69.0144 53.8985 69.0827 56.481 69.0827 58.378V61.8749H71.6976H74.3127V61.0749V60.2979L72.5618 60.2293L70.7881 60.1607L70.7199 58.9494L70.6517 57.761H72.2433H73.8579V56.961V56.1612H72.63C70.6743 56.1612 70.6743 56.1611 70.6743 53.9671V52.0472H72.4935H74.3127V51.2473V50.4473H71.5385H68.7871L68.9235 52.6643Z" fill="#25CAD2"></path>
<path d="M84.1927 51.1787C84.2613 51.9101 84.2843 51.9329 85.4742 52.0015L86.6641 52.07V56.9839V61.8749H87.4651H88.266L88.3117 57.0067L88.3803 52.1614L89.5932 52.0928L90.7831 52.0243V51.2245V50.4473H87.4422H84.124L84.1927 51.1787Z" fill="#25CAD2"></path>
<path d="M103.19 56.0986L103.259 61.773L104.127 61.8416L104.972 61.9103V59.6221C104.972 57.9061 105.04 57.3113 105.269 57.3113C105.428 57.3113 106.091 58.3409 106.776 59.5993L107.964 61.8873H108.877H109.768L108.626 59.7594C107.987 58.5697 107.484 57.5401 107.484 57.4714C107.484 57.38 107.827 57.174 108.238 56.9909C108.717 56.8078 109.152 56.3732 109.38 55.8699C109.859 54.8859 109.882 52.987 109.448 51.9344C108.946 50.7675 108.124 50.4473 105.428 50.4473H103.145L103.19 56.0986ZM107.69 52.4148C107.895 52.5979 108.032 53.1699 108.032 53.9021C108.032 55.3436 107.644 55.7096 106.068 55.7096H104.972V53.925C104.972 52.9412 105.04 52.0488 105.132 51.9574C105.383 51.7285 107.324 52.0488 107.69 52.4148Z" fill="#25CAD2"></path>
<path d="M115.54 56.0986L115.608 61.773L118.527 61.8416L121.422 61.9103V61.0866V60.2857H119.507C117.98 60.2857 117.569 60.2171 117.455 59.9197C117.387 59.7137 117.318 57.5172 117.318 55.0004V50.4473H116.384H115.472L115.54 56.0986Z" fill="#25CAD2"></path>
<path d="M111.822 57.4203V61.8778H112.619H113.416V57.4203V52.9629H112.619H111.822V57.4203Z" fill="#25CAD2"></path>
</svg>