<svg width="101" height="92" viewBox="0 0 101 92" fill="none" xmlns="http://www.w3.org/2000/svg">
<path d="M56.6045 0.109705C53.2915 0.481322 49.5002 1.49 47.3918 2.55176C44.4864 4.00283 43.0867 6.56875 43.264 10.0549C43.4056 12.8509 44.1675 13.8596 47.0021 15.1337C47.6576 15.4344 48.1891 15.6999 48.1891 15.7353C48.1891 15.7707 47.7994 16.9918 47.321 18.4428C46.3998 21.221 45.7974 24.1763 45.9746 25.0081C46.0809 25.5035 46.5769 27.5209 46.949 28.9012C47.2679 30.1929 47.6044 29.8568 47.7285 28.1048C48.1537 22.6899 49.3584 18.4959 50.9352 16.8678C51.2718 16.514 51.5553 16.1777 51.5553 16.1069C51.5553 16.0362 50.5277 14.9921 49.2699 13.8065C47.0376 11.6652 47.0021 11.6121 46.7719 10.5681C46.3112 8.40915 46.825 6.79881 48.2422 5.82552C50.0317 4.6222 54.3899 3.38346 58.4293 2.92338C61.4765 2.56945 62.38 2.92338 64.6478 5.34773C65.8348 6.62184 67.1635 8.83385 67.6773 10.4265C67.9962 11.4175 68.4569 11.2583 68.5277 10.1257L68.5809 9.27625L69.2363 9.40013C70.388 9.59478 73.453 10.6919 74.7994 11.3644C77.2619 12.6031 78.9274 13.8418 80.3978 15.5584C81.3191 16.6202 81.3013 16.7616 80.2561 19.4515C79.3703 21.7166 78.2896 23.5038 77.0672 24.7249C75.2954 26.5122 74.1439 26.8307 72.4253 26.0344C71.9116 25.7866 71.3092 25.592 71.0966 25.592C70.5297 25.592 68.8466 27.2378 65.7816 30.7416C64.3466 32.3873 63.1065 33.7322 63.0178 33.7322C62.9293 33.7322 62.5395 33.4667 62.1498 33.1306C61.3349 32.4226 59.4037 31.4494 57.7738 30.9009C55.2226 30.0515 50.2619 29.3259 49.1636 29.6267C48.3132 29.8568 48.5258 30.246 49.6951 30.6176C52.3879 31.4848 55.7895 32.8297 58.8722 34.2276C62.1674 35.7141 62.2384 35.7319 62.5218 35.3779C62.6813 35.1832 63.2304 34.8647 63.7619 34.6523C65.4627 33.9622 69.0416 31.3432 70.388 29.8037L70.7069 29.432L71.6636 29.9275C73.6833 30.9362 75.9155 30.2638 78.3073 27.8925C81.5317 24.7249 83.6399 20.5487 83.9235 16.8147C84.012 15.523 83.9766 15.2752 83.5691 14.3727C82.0986 11.1521 76.6065 7.86057 71.1497 6.92268C70.2817 6.7811 69.2187 6.65724 68.758 6.63955H67.9431L66.5789 4.65758C64.8604 2.16244 63.5317 0.658278 62.7344 0.339749C61.9548 0.00352842 58.5888 -0.102648 56.6045 0.109705Z" fill="#AB0404"></path>
<path d="M51.9976 36.8622C50.3323 37.9593 47.126 41.2681 47.126 41.852C47.126 42.5598 47.7106 42.3474 50.1376 40.7196C51.5193 39.7994 52.6885 39.0386 52.7593 39.0386C52.848 39.0386 53.4148 39.7287 54.0348 40.5604C54.6549 41.3919 55.3103 42.1351 55.4697 42.2412C55.9304 42.4714 56.3732 41.9758 56.2314 41.3743C55.9126 40.0472 54.956 38.03 54.1766 37.0391C53.5388 36.2428 52.9896 36.1897 51.9976 36.8622Z" fill="#AB0404"></path>
<path d="M29.9059 37.1658C28.0101 37.8383 26.4688 39.3069 25.4413 41.4305C24.5377 43.2709 24.2012 44.6866 24.2012 46.7393C24.2012 48.9868 24.6264 50.1723 25.8665 51.4288C27.1421 52.6851 28.2937 53.0745 30.4728 52.986C33.0062 52.8798 33.6618 52.5259 36.709 49.5353L39.1894 47.0932L39.5436 47.5356C40.022 48.1196 39.898 49.2699 39.1716 51.0748C38.2504 53.3753 38.5516 53.9062 40.4472 53.2869C41.8291 52.8444 42.8212 52.1897 44.1854 50.8625C44.8586 50.19 45.4079 49.6591 45.4256 49.6591C45.4432 49.6591 45.4256 49.9776 45.3901 50.3493C45.2661 51.6943 46.0988 52.7382 47.5692 53.0037C49.2878 53.3222 51.7858 52.3313 53.5751 50.6325L54.6204 49.6238L54.4965 50.8448C54.1421 54.6318 54.0181 57.3038 54.1598 58.5072L54.3016 59.8344L54.8862 59.8875C55.2051 59.9229 55.5948 59.852 55.7366 59.7282C55.8784 59.622 56.3921 58.2417 56.8882 56.6668C57.3842 55.1095 57.8449 53.6585 57.9334 53.4462C58.0752 53.1098 58.146 53.0922 59.2976 53.2338C60.839 53.4107 62.841 53.1453 64.0634 52.5968C64.5771 52.349 65.5693 51.6234 66.3311 50.8801L67.6953 49.606L67.589 50.2962C67.4295 51.3226 67.6953 52.3135 68.2444 52.7206C69.2366 53.4638 71.5929 52.986 73.648 51.6057C74.8173 50.8271 75.5083 49.9069 75.0476 49.73C74.8705 49.6591 74.4276 49.9246 73.843 50.4554C72.7622 51.4288 72.0359 51.7826 71.1323 51.7826C70.3173 51.7826 69.4492 50.9863 69.4492 50.2431C69.4492 49.7831 69.5555 49.7122 70.8311 49.2699C72.5319 48.6504 73.843 47.6949 74.3745 46.6509C74.8705 45.6599 74.8173 45.0582 74.1972 44.7219C73.0457 44.0672 70.7603 45.4829 66.6854 49.3406C64.4355 51.4641 63.4788 52.119 62.2385 52.4021C61.5122 52.5437 61.4944 52.4021 62.2032 52.0481C63.7799 51.2165 65.0023 49.4468 65.1441 47.7303C65.2149 46.8985 65.1618 46.6509 64.8075 46.12C64.2051 45.2352 63.1775 44.7043 62.0437 44.7043C59.5988 44.7043 58.7306 46.0846 56.7819 53.1984C56.2681 55.0919 55.7721 56.8791 55.7189 57.18C55.4354 58.3479 55.4354 57.1269 55.7189 54.9326C56.2504 50.6856 56.959 47.4825 58.1107 44.0672C58.7661 42.156 58.7661 41.7844 58.1991 41.4128C57.9512 41.2535 57.7031 41.165 57.65 41.2005C57.6145 41.2535 57.1716 42.386 56.6933 43.7132C56.1973 45.0405 55.5595 46.6331 55.2582 47.2171C53.8587 49.9954 50.0319 52.349 48.1362 51.6234C47.6224 51.4288 47.02 50.3493 47.1972 49.9069C47.2503 49.7831 47.5161 49.6238 47.7818 49.5529C48.8271 49.3053 50.6166 48.385 51.2543 47.7479C52.1224 46.9163 52.4413 46.3146 52.4413 45.5006C52.4413 44.9874 52.3527 44.8459 51.963 44.6866C51.396 44.4743 50.6697 44.6157 49.5889 45.1466C48.4196 45.7484 47.1618 46.7747 44.5575 49.2875C42.4492 51.3403 40.9433 52.4021 40.6244 52.0835C40.5713 52.0128 40.7307 51.2341 40.9787 50.3316C41.2267 49.4291 41.4925 48.3143 41.5456 47.8719C41.7937 46.1907 40.8547 44.5274 39.6677 44.5274C38.6756 44.5274 37.2582 45.7484 37.9669 45.996C38.711 46.2615 34.8664 50.544 33.148 51.3757C31.0397 52.3844 28.6834 51.8712 27.5141 50.1369C25.6007 47.2879 27.1244 40.0502 29.959 38.5815C30.6145 38.2452 31.7838 38.2806 32.7583 38.6522C33.7326 39.0238 34.0161 39.4309 33.6263 39.8733C33.1835 40.3865 32.9531 41.3066 32.9531 42.5807C32.9531 43.9787 33.2011 44.3327 33.9807 44.0672C34.3173 43.961 34.6185 43.5718 34.9906 42.8462C35.4334 41.926 35.5042 41.5897 35.5042 40.3687C35.5042 38.6699 35.1677 37.7852 34.335 37.2719C33.8566 36.9888 33.4492 36.918 32.1558 36.918C31.2878 36.9358 30.2779 37.0419 29.9059 37.1658ZM51.3428 46.1376C51.4846 46.9694 49.6599 48.3143 48.083 48.5266L47.3921 48.6151L48.3665 47.6949C49.4473 46.6685 50.8292 45.7306 51.1126 45.8191C51.2012 45.8546 51.3075 45.996 51.3428 46.1376ZM73.5241 46.2793C73.5241 46.7747 72.8685 47.5003 72.0712 47.9072C71.15 48.3674 69.8036 48.7921 69.8036 48.5974C69.8036 48.2966 71.8764 46.4916 72.7445 46.0315C73.2937 45.7484 73.5241 45.8191 73.5241 46.2793ZM61.8488 46.704C62.6284 47.3056 62.9295 48.739 62.4689 49.6415C61.902 50.7032 59.8646 52.119 58.8724 52.1366C58.3409 52.1366 58.3586 51.9419 59.0142 50.0662C59.6697 48.2081 59.8999 47.7657 60.5201 47.0225C60.9984 46.4385 61.3881 46.35 61.8488 46.704Z" fill="#AB0404"></path>
<path d="M35.114 57.2156C34.4231 57.5519 33.9979 58.1004 33.3069 59.6045C32.616 61.1088 32.2439 63.0907 32.1198 65.8513L32.0135 68.1517L30.8089 69.4082C29.5333 70.7177 29.3915 71.0008 29.8699 71.1955C30.047 71.2663 30.4545 70.9832 31.0746 70.3814C31.5707 69.886 32.0313 69.4789 32.0845 69.4789C32.1553 69.4789 32.2439 69.9567 32.2971 70.5407C32.4742 72.5404 33.484 73.5491 35.3266 73.5491C36.9388 73.5314 37.6652 73.1244 40.0746 70.7885C41.2439 69.656 42.2537 68.7888 42.3246 68.8773C42.3955 68.9658 42.555 69.4436 42.6613 69.9214C42.9802 71.4432 43.5825 72.8235 44.1848 73.4605C44.6631 73.9561 44.9112 74.0799 45.4604 74.0799C46.6652 74.0799 48.242 73.1775 49.925 71.5141C50.7753 70.6823 51.4663 70.0098 51.4841 70.0098C51.5018 70.0098 51.5549 70.3814 51.6081 70.8239C51.7675 72.3811 53.4506 73.3367 55.6298 73.142C57.1002 73.0182 57.986 72.4697 60.0057 70.4876C61.0156 69.5144 61.866 68.7357 61.9014 68.7888C61.9368 68.8242 62.1317 69.4789 62.3443 70.2399C62.805 71.9388 63.3187 73.0358 63.9211 73.6552C64.3285 74.0623 64.5058 74.0976 65.2321 74.0445C66.5786 73.903 67.925 73.1244 69.4309 71.5848C70.1928 70.8061 70.8306 70.1869 70.8837 70.1869C70.9191 70.1869 70.9545 70.5407 70.9545 70.9832C70.9722 72.558 72.0884 73.3722 74.2322 73.3722C75.8798 73.3722 76.7124 73.0182 78.0235 71.7795C79.3345 70.5407 79.9545 69.1427 79.9723 67.3554C79.99 65.0726 79.2104 64.241 77.1199 64.3825C76.0569 64.4533 76.0038 64.4356 76.0038 64.0463C76.0038 62.7722 72.7085 64.9133 72.3541 66.4176C72.0352 67.7625 70.4054 69.7798 68.3325 71.4432C66.4723 72.9297 65.4801 72.098 64.8955 68.5764C64.6297 66.9485 64.5589 66.7714 64.1159 66.5414C63.8325 66.3998 63.4781 66.2936 63.301 66.2936C63.1415 66.2936 61.8305 67.4439 60.4132 68.8419C58.9959 70.2576 57.614 71.4786 57.3482 71.5848C56.1081 72.0626 54.3542 71.6025 53.9112 70.7177C53.7872 70.47 53.6809 69.9922 53.6809 69.6382C53.6809 68.8419 54.0353 68.5233 55.9487 67.5325C57.7911 66.5769 58.7833 65.8689 59.049 65.285C59.2261 64.8957 59.1908 64.7895 58.8364 64.5064C57.5608 63.4623 55.4703 64.7188 51.0234 69.2135C48.4899 71.7617 48.0116 72.1333 47.1435 72.1333C46.7183 72.1333 46.5057 71.9919 46.1513 71.461C45.7085 70.7885 45.1946 68.8242 45.177 67.7801C45.177 67.0547 44.6986 66.506 43.9545 66.3645C43.3875 66.2405 43.299 66.3114 41.0313 68.6473C38.3561 71.4079 37.6297 71.9564 36.6375 71.9564C35.0254 71.9564 34.3699 71.0363 34.2281 68.5411L34.1395 66.9661L35.1493 64.9134C36.177 62.7545 36.8501 60.5601 36.8501 59.3214C36.8501 58.2951 36.5312 57.3041 36.1415 57.0917C35.734 56.8794 35.8226 56.8617 35.114 57.2156ZM35.7518 60.3125C35.8403 60.9848 35.3798 62.6483 34.7065 64.1525C34.1042 65.4973 33.8206 65.7628 33.9269 64.825C34.4231 60.8787 34.7773 59.6576 35.3798 59.7816C35.5745 59.8169 35.7163 60.0292 35.7518 60.3125ZM77.7932 66.2936C78.7144 66.7892 78.9625 68.8419 78.2537 70.2045C77.5096 71.6025 75.5431 72.6111 74.4269 72.1333C73.5589 71.7795 73.2931 70.5761 73.7183 68.7888C73.8954 68.0279 74.6219 67.1608 75.738 66.3645C76.1455 66.0813 77.297 66.046 77.7932 66.2936Z" fill="#AB0404"></path>
<path d="M9.15945 57.2845C8.50394 57.6561 7.3878 60.6114 6.90945 63.1418C6.69686 64.2921 6.67914 64.3452 5.93505 64.6991C5.52756 64.8937 4.71261 65.5131 4.14567 66.0794C2.76378 67.4243 0 70.6272 0 70.8574C0 71.2821 0.425197 71.2466 0.903544 70.7865L1.43504 70.2734L1.32874 71.1759C1.11614 72.7862 2.07284 73.7772 3.40158 73.3171C4.12796 73.0871 5.33268 71.6537 6.11221 70.1141C6.78544 68.7691 7.08662 68.4684 7.08662 69.1231C7.08662 69.8487 7.86615 71.5297 8.50394 72.1846C9.60237 73.264 10.1871 73.1224 12.1536 71.1936L13.2519 70.1494L13.1634 70.9105C12.933 73.264 15.7678 74.5027 18.1595 73.1224C19.2047 72.5031 20.7284 70.9636 20.7284 70.5388C20.7284 70.008 20.4271 70.1141 19.4351 70.9989C18.2658 72.043 17.628 72.3615 16.689 72.3615C15.7854 72.3615 15.13 71.8306 14.9527 70.9458C14.8642 70.468 14.8996 70.3441 15.1653 70.2556C18.4606 69.2293 20.1969 67.8136 20.1969 66.1678C20.1969 65.4777 19.9134 65.23 19.0984 65.23C17.7165 65.23 15.8917 66.4511 12.6141 69.5478C10.9665 71.1228 10.5413 71.4413 10.1516 71.3883C9.44293 71.3174 9.08859 70.5211 8.69883 68.2737L8.36221 66.3094L9.05315 64.1683C10.6299 59.2664 10.6654 56.3996 9.15945 57.2845ZM6.71457 66.8227C6.73229 67.2827 4.73032 70.8043 4.03937 71.5475C3.24213 72.4146 2.88779 71.9191 3.36614 70.5741C3.75591 69.4593 4.18111 68.7338 5.47441 67.0172C6.48426 65.6547 6.67914 65.6193 6.71457 66.8227ZM19.0631 66.9465C18.8858 67.7074 17.8051 68.5568 16.5119 68.9462C15.8741 69.1408 15.3071 69.2647 15.2539 69.1939C15.13 69.07 16.6182 67.7252 17.6988 66.9996C18.7264 66.3094 19.2225 66.2918 19.0631 66.9465Z" fill="#AB0404"></path>
<path d="M44.8933 59.1961C44.1141 59.6737 43.5296 60.5583 43.5118 61.319L43.4941 61.9559L44.4329 62.009C45.2653 62.0621 45.4247 62.009 45.8852 61.5313C46.6115 60.8237 46.576 59.4968 45.8144 59.0015C45.5488 58.8069 45.5133 58.8245 44.8933 59.1961Z" fill="#AB0404"></path>
<path d="M64.2044 59.4265C63.3721 60.1517 62.7698 61.4255 63.0709 61.797C63.3189 62.0802 64.4348 62.1332 65.1077 61.8679C66.0111 61.5316 66.2767 59.9748 65.586 59.1611C65.214 58.7365 64.9483 58.7896 64.2044 59.4265Z" fill="#AB0404"></path>
<path d="M97.9544 64.3288C97.2814 65.0011 97.2636 65.868 97.8836 66.5403C98.1138 66.788 98.4504 67.0003 98.6275 66.9825C98.8755 66.9825 98.8932 66.9472 98.6806 66.8764C98.0785 66.6641 97.6179 66.045 97.6179 65.4788C97.6179 64.7181 98.1138 64.1519 98.964 63.9927L99.6547 63.8511L99.0703 63.8335C98.6275 63.8158 98.3442 63.9573 97.9544 64.3288Z" fill="#AB0404"></path>
<path d="M100.045 64.3815C100.24 64.6114 100.452 64.9122 100.505 65.0537C100.594 65.2837 100.611 65.2837 100.611 65.036C100.629 64.7707 100.027 63.9922 99.7975 63.9922C99.7266 63.9922 99.8506 64.1692 100.045 64.3815Z" fill="#AB0404"></path>
<path d="M98.5222 65.4414C98.5398 65.9545 98.5929 66.2021 98.6283 65.9721C98.7345 65.4768 98.9821 65.4768 99.5128 65.9721C99.7429 66.1844 99.9198 66.2551 99.9198 66.149C99.9198 66.0429 99.796 65.8836 99.6367 65.7953C99.389 65.6537 99.389 65.583 99.5837 65.2467C99.796 64.9283 99.796 64.8399 99.5659 64.6984C99.4244 64.6099 99.1236 64.5215 98.9113 64.5215C98.5398 64.5215 98.5044 64.5922 98.5222 65.4414ZM99.4775 65.0522C99.4775 65.1937 99.3005 65.3352 99.0882 65.3707C98.7698 65.4237 98.6814 65.3352 98.6814 65.0522C98.6814 64.7691 98.7698 64.6807 99.0882 64.7338C99.3005 64.7691 99.4775 64.9107 99.4775 65.0522Z" fill="#AB0404"></path>
<path d="M94.2523 65.2138C94.2523 65.3022 93.8447 65.9923 93.3487 66.7355C92.4274 68.0982 89.0081 71.7789 88.6361 71.7789C88.3348 71.7789 88.0869 70.9119 87.9628 69.4077C87.8388 67.7797 87.8033 67.7089 87.2718 67.7089C86.9529 67.7089 86.8113 67.8682 86.6341 68.3991C86.333 69.3192 85.27 70.6995 84.5435 71.1242C83.9944 71.4604 83.9234 71.4604 83.6577 71.1773C83.2325 70.7526 83.2856 68.6291 83.7818 67.001C83.9944 66.2932 84.1538 65.6916 84.1183 65.6738C84.0829 65.6385 83.6577 65.5499 83.1617 65.4969L82.2581 65.373L82.0455 66.3994C81.7798 67.7442 81.1065 69.1954 80.3447 70.027C79.9727 70.4341 79.7777 70.8233 79.8309 70.9826C79.9903 71.3896 80.3092 71.3011 80.8762 70.7171C81.3369 70.2394 81.4077 70.2041 81.5317 70.4871C81.5848 70.6641 81.6558 71.0711 81.6558 71.3896C81.6735 71.7082 81.7974 72.2391 81.9215 72.5752C82.1518 73.0885 82.2758 73.1946 82.7365 73.1946C83.4805 73.1946 84.5612 72.6107 85.5889 71.6727L86.4214 70.8764L86.5456 71.4073C86.7227 72.2391 87.2897 72.8407 87.8743 72.8407C88.8132 72.8407 89.3447 72.4868 91.329 70.4695C92.4097 69.3723 93.4727 68.3636 93.6853 68.2574C94.075 68.0451 94.075 68.0627 94.0573 69.2485C94.0573 69.9032 93.9687 70.7349 93.8447 71.0711C93.6676 71.5843 93.5258 71.7082 93.012 71.7789C92.4628 71.8498 92.392 71.9382 92.3389 72.4338C92.3034 72.8585 92.392 73.1239 92.7286 73.4601C93.4904 74.221 93.9156 74.0617 95.6695 72.3629C96.5554 71.5135 97.264 70.7171 97.264 70.611C97.264 70.0979 96.8388 70.2041 96.1125 70.8764C95.6695 71.2835 95.2974 71.602 95.2443 71.602C95.209 71.602 95.3329 71.1066 95.5279 70.4871C96.2719 68.1336 96.1125 65.5676 95.209 65.2314C94.642 65.0014 94.2523 65.0014 94.2523 65.2138Z" fill="#AB0404"></path>
<path d="M100.38 66.0442C100.31 66.3272 100.044 66.5926 99.6904 66.7341C99.3542 66.8934 99.2481 66.9819 99.4427 66.9995C99.8319 66.9995 100.628 66.2388 100.628 65.8495C100.628 65.4427 100.504 65.5311 100.38 66.0442Z" fill="#AB0404"></path>
<path d="M69.4492 86.7324V90.0059H69.8915H70.334V86.7324V83.459H69.8915H69.4492V86.7324Z" fill="#AB0404"></path>
<path d="M13.1454 84.0063C12.0825 84.5372 11.5156 85.5457 11.5156 86.9437C11.5156 88.1468 11.9231 88.9254 12.8974 89.5801C14.0134 90.341 15.6786 90.2879 16.7238 89.4563C17.1667 89.1023 17.1845 89.067 16.9009 88.7485C16.6175 88.4477 16.5999 88.4477 16.0861 88.8193C15.3244 89.3855 14.0134 89.3678 13.3757 88.7662C12.8442 88.2708 12.4014 87.386 12.4014 86.8021C12.4014 86.1651 12.9682 85.2096 13.5351 84.8557C14.2437 84.4133 15.1826 84.431 15.909 84.8734C16.3873 85.1565 16.5644 85.1919 16.7593 85.0327C17.1845 84.6788 17.025 84.3426 16.2632 83.9887C15.2534 83.5286 14.1021 83.5464 13.1454 84.0063Z" fill="#AB0404"></path>
<path d="M48.4553 83.8464C48.2605 83.9525 47.9948 84.1649 47.8885 84.3063C47.605 84.6426 47.5873 85.6512 47.8354 86.1289C47.9948 86.412 47.9238 86.5713 47.3924 87.0667C45.4792 88.8715 48.1364 91.0657 50.4217 89.5616C50.8292 89.2962 50.8823 89.314 51.2543 89.7208C51.6087 90.1279 51.6795 90.1455 51.9807 89.9155C52.3172 89.6501 52.3172 89.6325 51.8389 89.1369L51.3429 88.6061L51.6795 88.1107C52.2641 87.2614 52.2817 87.1906 51.9275 86.9959C51.6263 86.8543 51.52 86.9074 51.2543 87.3499C50.8646 88.0222 50.6874 88.0222 50.032 87.3321C49.6245 86.8898 49.5713 86.7482 49.7839 86.6774C50.2977 86.5005 51.0241 85.5981 51.0241 85.1735C51.0241 84.4834 50.8468 84.1825 50.2977 83.8994C49.7131 83.5809 48.9514 83.5632 48.4553 83.8464ZM49.9612 84.5895C50.28 84.9788 50.1028 85.5981 49.5713 85.9874C49.0754 86.3589 49.0754 86.3589 48.8096 86.005C48.4908 85.5981 48.4731 84.8372 48.7565 84.5541C49.0399 84.271 49.6954 84.2887 49.9612 84.5895ZM49.4651 87.8276C50.2269 88.5708 50.2622 88.7123 49.8371 89.0485C49.1285 89.5794 47.6581 89.1016 47.6581 88.3407C47.6581 88.0222 48.3313 87.1728 48.5971 87.1728C48.7034 87.1728 49.093 87.4737 49.4651 87.8276Z" fill="#AB0404"></path>
<path d="M57.9685 84.0068C55.3468 85.3163 55.7719 89.3152 58.6239 90.0053C59.616 90.2354 60.3246 90.1469 61.4406 89.616L62.1847 89.2621V87.9528V86.6433H60.856C59.6515 86.6433 59.5274 86.6788 59.5274 86.9795C59.5274 87.2803 59.6692 87.3334 60.3601 87.3865C61.2635 87.4396 61.4406 87.6696 61.228 88.5013C61.0864 89.0497 60.0235 89.4037 59.0669 89.2268C57.2068 88.8729 56.6222 86.2363 58.128 84.9801C58.7834 84.4138 59.988 84.3608 60.8029 84.8209C61.299 85.1216 61.3343 85.1216 61.5824 84.8031C62.2909 83.8299 59.5452 83.2284 57.9685 84.0068Z" fill="#AB0404"></path>
<path d="M77.5979 84.696C77.5979 85.2092 77.527 85.4039 77.3321 85.4039C77.1904 85.4039 77.0664 85.5631 77.0664 85.7577C77.0664 85.9524 77.1904 86.1116 77.3321 86.1116C77.5447 86.1116 77.5979 86.4125 77.5979 87.6865C77.5979 89.7744 77.8991 90.146 79.5111 90.0398C79.7945 90.0044 79.9008 89.8982 79.9008 89.5797C79.9008 89.2259 79.8299 89.1905 79.4225 89.2612C78.7139 89.3851 78.4836 88.925 78.4836 87.4033V86.1116H79.1922C79.8123 86.1116 79.9008 86.0585 79.9008 85.7046C79.9008 85.3685 79.8123 85.3154 79.2453 85.3154C78.5899 85.3154 78.5721 85.2977 78.5721 84.6429C78.5721 84.0414 78.5368 83.9883 78.0938 83.9883C77.6333 83.9883 77.5979 84.0414 77.5979 84.696Z" fill="#AB0404"></path>
<path d="M20.0193 85.7594C19.417 86.4141 19.2397 86.4319 19.346 85.8479C19.4346 85.4585 19.3815 85.4054 18.9386 85.4054H18.4248V87.706V90.0064H18.9386C19.3815 90.0064 19.4346 89.9534 19.346 89.5641C19.3107 89.3163 19.3283 88.6969 19.3815 88.166C19.5233 87.122 20.1256 86.2903 20.7457 86.2903C20.9937 86.2903 21.0823 86.1665 21.0823 85.7594C21.0823 85.3878 20.9937 85.2285 20.7989 85.2285C20.6394 85.2285 20.285 85.4585 20.0193 85.7594Z" fill="#AB0404"></path>
<path d="M23.1021 85.4926C21.7911 86.165 21.4722 88.306 22.5528 89.3853C23.3678 90.1993 24.3597 90.3408 25.4404 89.8277C26.1667 89.4738 26.2198 89.4031 25.9896 89.1553C25.7415 88.9253 25.653 88.9253 25.0684 89.1907C24.3597 89.5269 23.8638 89.4562 23.2615 88.8899C22.4997 88.1998 22.7122 88.0582 24.5015 88.0406C25.3873 88.0229 26.2021 88.0229 26.2908 88.0406C26.3792 88.0582 26.3971 87.7044 26.3439 87.2443C26.1667 85.6695 24.5192 84.767 23.1021 85.4926ZM24.9443 86.2357C25.1392 86.4126 25.3518 86.7311 25.4226 86.9435C25.5289 87.3328 25.4936 87.3505 24.2003 87.3505C22.6946 87.3505 22.4997 87.1558 23.2968 86.3773C23.7929 85.8641 24.4484 85.8111 24.9443 86.2357Z" fill="#AB0404"></path>
<path d="M28.2219 85.3678C27.8145 85.4208 27.8145 85.4563 27.8145 88.4113V91.384L28.2573 91.4547C28.7002 91.5432 28.7002 91.5254 28.7002 90.393C28.7002 89.2959 28.7179 89.2606 29.0191 89.5261C29.9048 90.34 31.2334 90.2692 32.066 89.3845C32.633 88.7829 32.7746 87.1726 32.3318 86.3587C31.7117 85.2263 30.0465 84.9078 29.1254 85.7748L28.7356 86.1464L28.6648 85.7393C28.6293 85.4208 28.523 85.3325 28.2219 85.3678ZM30.95 86.288C32.261 87.0842 31.7117 89.3137 30.2236 89.2959C28.5585 89.2783 28.1157 86.7303 29.6569 86.1109C30.206 85.8809 30.3299 85.8986 30.95 86.288Z" fill="#AB0404"></path>
<path d="M35.167 85.4051C34.6 85.6353 33.98 86.3962 33.8559 87.0332C33.3954 89.2453 35.2556 90.7494 37.3107 89.8292C38.0548 89.5107 38.1257 89.4398 37.8953 89.1922C37.6474 88.962 37.5587 88.962 36.9564 89.2098C36.2123 89.5284 35.7162 89.4398 35.1315 88.8913C34.3698 88.2012 34.5824 88.0595 36.3718 88.0419C37.2575 88.0242 38.0548 88.0242 38.1434 88.0419C38.3737 88.0773 38.2674 86.9801 37.9839 86.3785C37.5411 85.4406 36.1945 84.9804 35.167 85.4051ZM36.9386 86.3785C37.7359 87.157 37.5411 87.3517 36.0529 87.3517C34.9721 87.3517 34.7241 87.2987 34.7241 87.0863C34.7241 86.6439 35.5567 85.936 36.0529 85.936C36.3008 85.936 36.7083 86.1307 36.9386 86.3785Z" fill="#AB0404"></path>
<path d="M40.2171 85.4592C39.7032 85.7246 39.4198 86.4147 39.5793 87.0518C39.6678 87.4234 39.8982 87.5827 40.7486 87.9012C41.9179 88.3259 42.219 88.5914 42.0595 88.9984C41.8824 89.4584 41.2977 89.5293 40.4473 89.2108C39.7741 88.9453 39.6146 88.9453 39.4906 89.1399C39.2249 89.5646 39.2957 89.6355 40.2702 89.9186C41.2269 90.184 42.0773 90.0955 42.6265 89.6355C42.9631 89.3522 42.9454 88.1667 42.591 87.8658C42.4316 87.7419 41.9001 87.4765 41.3864 87.2642C40.7308 86.9987 40.465 86.804 40.4297 86.5209C40.3587 86.0255 41.032 85.8131 41.8292 86.0962C42.1305 86.2024 42.4494 86.2378 42.5379 86.1847C42.8746 85.99 42.6796 85.6184 42.1481 85.4237C41.404 85.1761 40.7662 85.1761 40.2171 85.4592Z" fill="#AB0404"></path>
<path d="M64.5232 85.5798C63.4957 86.1992 63.1413 87.6679 63.7259 88.8889C64.2929 90.11 66.2948 90.517 67.3578 89.65C67.6767 89.3845 67.7122 89.2783 67.5527 89.1013C67.3756 88.9244 67.1983 88.942 66.6847 89.1898C65.6925 89.65 64.7713 89.3314 64.4346 88.3581C64.3283 88.0926 64.4877 88.0573 66.2063 88.0573H68.0842L67.9779 87.4733C67.8185 86.4647 67.5172 85.9338 66.9326 85.5798C66.1885 85.1375 65.2673 85.1375 64.5232 85.5798ZM66.5074 86.3054C66.7555 86.5 66.9681 86.8185 66.9681 87.0132C66.9681 87.3141 66.8263 87.3494 65.6393 87.3494C64.8066 87.3494 64.3106 87.2786 64.3106 87.1548C64.3106 86.8363 65.3204 85.9338 65.6925 85.9338C65.8874 85.9338 66.2417 86.093 66.5074 86.3054Z" fill="#AB0404"></path>
<path d="M72.6733 85.4227C72.2481 85.5466 72.1065 85.6704 72.1773 85.8651C72.2305 86.0244 72.2836 86.166 72.2836 86.1836C72.2836 86.2013 72.7443 86.1836 73.3111 86.1482C74.4273 86.0598 74.9411 86.3429 74.9411 87.0154C74.9411 87.3339 74.8525 87.3516 74.0907 87.2454C72.5317 87.0507 71.3977 87.8824 71.6813 89.0327C71.9292 90.0236 73.1872 90.413 74.2856 89.8644C74.7993 89.5813 74.9411 89.5636 74.9411 89.7582C74.9411 89.9174 75.136 90.006 75.4371 90.006H75.9155L75.827 88.1125C75.7738 87.0507 75.6675 86.0951 75.5789 85.9536C75.1892 85.3519 73.8249 85.1042 72.6733 85.4227ZM74.5514 87.8117C75.0829 87.971 75.0829 88.8204 74.5514 89.192C74.073 89.5282 73.1517 89.5636 72.8506 89.2627C72.5139 88.9266 72.6025 88.2895 73.0277 87.9886C73.4529 87.6877 73.8958 87.6347 74.5514 87.8117Z" fill="#AB0404"></path>
<path d="M82.0807 85.5824C79.4234 87.1926 81.4076 91.0676 84.2951 89.8998C85.3049 89.5106 85.8186 88.7498 85.8186 87.6703C85.8186 86.6617 85.4112 86.0071 84.49 85.547C83.6928 85.1401 82.7894 85.1401 82.0807 85.5824ZM83.8876 86.184C84.5963 86.4848 84.862 86.9271 84.862 87.7943C84.862 89.5637 82.4174 89.8822 81.8504 88.1658C81.5316 87.1926 82.0985 86.2725 83.2322 85.954C83.2499 85.9363 83.5511 86.0425 83.8876 86.184Z" fill="#AB0404"></path>
</svg>