<svg width="136" height="59" viewBox="0 0 136 59" fill="none" xmlns="http://www.w3.org/2000/svg">
<path d="M135.375 35.9828C135.375 35.4663 135.322 34.9415 135.217 34.4208L135.194 34.3079C134.489 31.2266 132.609 29.1975 130.767 27.7456L133.206 26.2708L132.74 24.0631C131.423 17.9294 125.814 15.0381 121.156 14.9461C121.109 14.9449 121.044 14.9415 120.974 14.9415C120.103 14.9438 119.286 15.0697 118.537 15.3167C113.736 10.8202 106.657 7.03071 98.0149 4.33664C88.9144 1.49946 78.4314 0 67.6967 0C46.5675 0 27.2549 5.76754 17.0909 15.0823C16.4396 14.911 15.7282 14.8232 14.9673 14.8202H14.9537C14.7231 14.8224 14.4746 14.8293 14.226 14.8497C11.5914 15.0488 8.9706 16.0125 6.84702 17.5636C4.45982 19.3071 2.88459 21.6442 2.2905 24.3274C2.06057 25.4054 1.81378 26.5093 1.57482 27.5758C1.0698 29.8328 0.546736 32.1662 0.129617 34.5073C0.0447643 34.9769 0.0013117 35.4464 0.000854242 35.9033C-0.0243963 37.4473 0.511289 38.9101 1.45511 39.9965L7.33524 43.8575C7.55434 43.9737 7.76561 44.0668 7.98351 44.1425C8.78466 44.4347 9.67737 44.5838 10.6422 44.5856C12.1097 44.5811 13.7204 44.2357 15.4341 43.5557C15.8566 43.3855 16.2744 43.1901 16.6837 42.9702C21.4473 47.4962 28.5048 51.3151 37.152 54.0393C46.3066 56.9239 56.8697 58.4486 67.698 58.4486C78.5524 58.4486 89.1365 56.9155 98.3074 54.0152C105.514 51.7359 111.609 48.6968 116.189 45.1225C116.287 46.509 117.447 47.6068 118.859 47.6068C120.335 47.6068 121.535 46.4073 121.535 44.9331C121.535 44.6079 121.477 44.2959 121.371 44.0073C121.465 44.0368 121.56 44.0649 121.656 44.092C122.912 44.4479 123.96 44.6144 124.957 44.6162C126.082 44.614 127.109 44.386 128.011 43.9381L133.558 40.4534C134.73 39.3567 135.395 37.748 135.375 35.9828Z" fill="white"></path>
<path d="M116.29 16.5153C114.907 20.2832 113.491 24.0402 112.138 27.8201C112.578 30.8845 113.041 33.9441 113.491 37.008C112.016 36.7855 110.535 36.583 109.052 36.3815C108.641 33.2924 108.202 30.2064 107.819 27.1131C105.284 22.9375 102.917 18.6544 100.466 14.4266C101.873 14.5734 103.276 14.7399 104.68 14.9016C106.394 18.1205 108.114 21.3353 109.817 24.5566C110.614 21.672 111.403 18.7837 112.197 15.8972C113.561 16.1018 114.925 16.3043 116.29 16.5153ZM91.8831 21.9768C93.7545 22.1218 95.6264 22.2888 97.4942 22.4662L97.7663 25.1585C95.8835 24.9703 93.9916 24.8001 92.104 24.654C92.2792 26.8311 92.4622 29.0069 92.6391 31.1863C94.7711 31.3974 99.2837 31.7455 101.044 31.986L101.426 35.4556C97.1403 34.9843 92.8486 34.6031 88.5515 34.3097L87.1255 13.2891C91.1259 13.5464 95.1214 13.8795 99.1134 14.2817L99.4318 17.2025C96.7695 16.9241 94.1024 16.6752 91.4341 16.4762C91.5882 18.3087 91.7344 20.1437 91.8831 21.9768ZM86.0999 34.1558C81.9508 33.9015 77.797 33.7385 73.6437 33.6574L73.2374 12.7228C74.5893 12.7433 75.9425 12.7787 77.2956 12.8221C77.49 18.6822 77.6681 24.5453 77.8848 30.4073C79.9247 30.4993 81.9677 30.5659 84.0076 30.6754C84.6402 30.709 85.2704 30.7444 85.8994 30.7799L86.0999 34.1558ZM66.0385 26.9466C66.0475 25.4326 65.0038 24.3648 63.5176 24.3648C62.4396 24.3366 61.3567 24.4148 60.2793 24.4232C60.2052 27.5135 60.1276 30.6027 60.0512 33.6935C58.5974 33.7231 57.145 33.7794 55.6943 33.8316L56.5099 12.8784C59.0302 12.7846 61.5463 12.7268 64.0666 12.6908C65.9813 12.663 68.1596 13.0647 69.2605 14.8389C70.0274 16.075 69.8944 17.5522 69.904 18.9452C69.9106 19.6409 69.9088 20.3299 69.5874 20.9678C69.1185 21.8906 68.1699 22.3771 67.211 22.614L67.2224 23.4503C68.5087 23.7208 69.6307 24.6094 69.9702 25.9309C70.1219 26.5081 70.0743 27.1429 70.0791 27.7364C70.0906 29.2111 69.8167 31.1501 70.7015 32.4241C70.8321 32.6118 70.9838 32.7903 71.1584 32.955L71.1674 33.76C69.981 33.7532 68.0651 34.0685 67.0352 33.3753C65.646 32.4404 66.0234 30.0475 66.0306 28.5738C66.033 28.0328 66.0565 27.4859 66.0385 26.9466ZM53.4618 33.9309C52.013 33.9934 50.5666 34.0727 49.1214 34.1636C48.874 32.6521 48.6326 31.1443 48.3774 29.6376C46.4513 29.8024 44.5173 29.9141 42.5863 30.0596C42.1403 31.6318 41.6388 33.1896 41.1652 34.751L37.1715 35.1232L44.4529 13.5524C45.8523 13.3596 48.8975 13.2476 49.2983 13.2242L53.4618 33.9309ZM17.6277 30.7589C17.3592 32.3985 17.0384 33.9489 16.0964 35.3582C14.8949 37.1583 13.0597 38.4245 11.068 39.1712C9.07622 39.9197 6.56441 40.4452 4.49137 39.7351C2.38044 39.0275 1.69426 36.9364 2.06563 34.8628C2.66936 31.4737 3.49641 28.1123 4.2163 24.7448C5.19805 20.116 9.95924 17.149 14.3822 16.8291C16.4004 16.6824 18.7124 17.2608 19.1578 19.5671C19.3955 20.787 19.0583 22.0676 18.8592 23.2713L15.1309 23.8815C15.3717 22.5215 15.9676 20.4773 14.1491 20.0006C12.3603 19.5334 10.0923 20.5633 9.15989 22.1409C8.76383 22.8131 8.65488 23.5754 8.50681 24.3282C8.05952 26.5749 7.61236 28.8241 7.16633 31.0739C6.86116 32.6166 5.69404 35.7586 7.85493 36.3605C9.68838 36.8745 12.0268 35.7917 13.0056 34.1979C13.6045 33.2233 13.6935 32.0202 13.8886 30.9158L17.7108 30.2731C17.6819 30.4331 17.6541 30.5965 17.6277 30.7589ZM22.2288 16.0325C23.6101 15.8316 24.9934 15.6399 26.373 15.4523C25.9541 18.3977 25.5345 21.3437 25.109 24.2891C27.4113 23.9807 29.7082 23.677 32.0142 23.4173C32.3675 20.4864 32.7172 17.5554 33.0682 14.6244C34.0962 14.5108 35.1231 14.4002 36.1512 14.2932C36.4943 14.2602 36.8361 14.2252 37.1763 14.1927L34.9353 35.345C33.4636 35.497 31.9907 35.6666 30.5208 35.8482C30.8904 32.7741 31.2618 29.6982 31.6277 26.6236C29.2977 26.8791 26.9773 27.2086 24.6521 27.5122C24.2097 30.6061 23.7673 33.7006 23.3249 36.7933C21.8381 37.0103 20.3508 37.2346 18.8659 37.4685L22.2288 16.0325ZM131.323 39.6167C129.654 40.3983 127.649 40.1031 125.939 39.6481C122.337 38.6837 118.831 36.1369 118.181 32.1941L118.077 31.5538L122.023 32.2175C122.371 34.192 123.382 35.796 125.338 36.4435C126.215 36.7321 127.423 36.9696 128.263 36.4481C129.083 35.9629 129.131 34.9245 128.967 34.0822C128.562 32.0381 126.551 30.7196 124.942 29.6759C123.006 28.4247 120.97 27.3083 119.247 25.7511C117.637 24.2955 116.304 22.288 116.659 19.9986C117.004 17.7584 119.081 16.8897 121.105 16.9293C125.203 17.0152 129.771 19.5501 130.809 24.4795L127.01 23.7328C126.591 21.5389 124.85 19.8176 122.567 19.8176C121.451 19.8176 120.594 20.5265 120.698 21.7199C120.809 22.9777 121.691 23.9156 122.624 24.6575C126.317 27.6017 132.158 29.4991 133.269 34.7376C133.676 36.6446 133.194 38.7395 131.323 39.6167ZM45.986 18.6634C45.1144 21.5415 44.2458 24.4232 43.3766 27.3042C44.7629 27.2002 48.0451 26.9664 48.0451 26.9664C47.6659 24.1953 47.247 21.4291 46.8455 18.6629L45.986 18.6634ZM64.0617 15.3435C62.8856 15.266 61.6836 15.3765 60.5038 15.3899C60.4508 17.6072 60.39 19.8227 60.3389 22.0382C62.3294 22.0177 65.9187 22.5654 65.9355 19.6381C65.9446 17.9775 66.3508 15.4968 64.0617 15.3435Z" fill="white"></path>
<path d="M113.556 26.9776C113.442 27.2963 113.321 27.6132 113.208 27.9312C113.432 29.4824 113.665 31.0366 113.895 32.5895L116.725 30.3428C116.223 29.9507 115.727 29.5334 115.25 29.0747C114.633 28.4747 114.041 27.7725 113.556 26.9776ZM64.9043 19.2988C64.7719 19.0848 64.7556 19.0018 64.2278 18.9309C63.9804 18.9104 63.7209 18.9038 63.4507 18.9038C62.9583 18.9038 62.4485 18.9302 61.9218 18.9513C61.9061 19.6374 61.8887 20.321 61.8724 21.0063C61.9609 21.0069 62.0512 21.0109 62.1379 21.0109C62.9998 21.0177 63.8329 20.9254 64.2819 20.7048C64.7129 20.4493 64.8453 20.3783 64.8977 19.6317C64.8977 19.5205 64.9025 19.4113 64.9043 19.2988ZM17.3497 27.6932L13.8526 25.1583L13.8572 25.127C13.8389 25.1565 13.8155 25.1859 13.8012 25.2147C13.552 25.6494 13.4479 26.2717 13.3076 27.0701C13.1536 27.8998 12.9988 28.7301 12.8447 29.561C12.8652 29.7028 12.8887 29.8459 12.9146 29.9873L19.1475 28.964L19.4039 27.3353L18.7009 27.458L17.3497 27.6932ZM27.6016 14.2191L30.2055 16.7533L29.4164 22.6735L31.0801 22.4631L32.1359 13.6666L38.3459 13.0173L40.254 15.552L39.247 25.7115L43.6765 12.594L50.1387 12.1178L51.2782 14.652L54.6923 32.8149L55.5103 11.8605C55.5103 11.8605 64.1965 11.6344 64.2494 11.6333C66.2364 11.6355 68.7379 12.0679 70.141 14.2768C70.9067 15.5225 70.9428 16.8453 70.9464 17.9545C70.9464 18.2389 70.9416 18.5142 70.9416 18.7776C70.9416 18.8233 70.9434 18.8762 70.9434 18.9501V19.1966C70.9434 19.3197 70.9416 19.4503 70.9368 19.5849L70.6611 22.849C70.6051 23.2145 70.5094 23.5968 70.3276 23.9847C70.2993 24.0431 70.265 24.0906 70.2337 24.1458C70.5672 24.5811 70.826 25.0867 70.9765 25.6621C71.1101 26.1816 71.1197 26.6607 71.1215 27.0785C71.1215 27.2769 71.1167 27.467 71.1167 27.6401V27.8276C71.1167 28.3993 71.0848 28.9789 71.0848 29.5302C71.0782 30.5096 71.207 31.3489 71.5489 31.8173C71.6362 31.9429 71.7415 32.068 71.8649 32.1841L72.1773 32.4781L72.2128 32.4849L71.8806 14.1866L72.1725 11.6519L78.2982 11.7944L78.8863 29.394L85.7651 29.7132L84.811 14.6935L86.0022 12.1587L105.333 13.9143L108.111 19.1293L108.593 17.2505L111.438 14.7164L115.635 15.3921C106.219 7.64291 88.2739 2.40745 67.684 2.40625C46.0282 2.40625 27.2976 8.19844 18.3392 16.6168C18.9917 17.0304 19.5575 17.6551 19.9006 18.4511C20.1895 18.5184 20.4736 18.6166 20.7523 18.7343L21.323 15.0987L27.6016 14.2191ZM114.729 38.2608L111.673 40.7956L105.5 39.8565C105.5 39.8565 104.626 33.0368 104.271 30.0043C102.454 26.7931 100.732 23.5339 99.0001 20.2927L98.5017 20.8632L92.7949 20.3287L92.849 20.9949L98.4439 21.4945L98.9339 26.3349L96.9024 28.8691C96.9024 28.8691 94.2172 28.5955 93.4684 28.5228C93.5142 29.0879 93.5605 29.6531 93.6063 30.2188C95.9104 30.4286 101.99 31.0503 101.99 31.0503L102.604 36.6465L100.335 39.1813C100.335 39.1813 91.136 38.1917 87.132 37.8977C87.132 37.8977 77.1119 37.3278 73.2397 37.2478L72.6835 37.2364L72.6853 37.2387L70.8483 37.3482C70.4029 37.3527 69.7528 37.4155 69.0672 37.4155C68.2552 37.4041 67.3644 37.3607 66.5409 36.789C65.2143 35.7808 65.2655 34.1442 65.115 32.9268C65.0801 32.6448 65.0247 31.7165 64.9964 31.4658C64.9537 31.0918 64.9422 30.7269 64.9368 30.392C64.9368 29.7234 64.9826 29.106 64.9898 28.6497C64.7767 28.2144 64.3788 27.9883 63.7504 27.9558C63.618 27.949 63.4778 27.9468 63.3291 27.9468C62.806 27.9468 62.2661 27.9708 61.7135 27.9894C61.6509 30.7455 61.4974 37.2628 61.4974 37.2628L49.511 37.8092L48.2488 35.2745C48.2488 35.2745 47.9893 33.6908 47.9364 33.368C46.9432 33.4443 45.9476 33.517 44.9623 33.593C44.5934 34.9457 43.6272 38.2705 43.6272 38.2705L31.8194 39.5914L29.3274 37.0572C29.3274 37.0572 29.8873 32.4025 30.087 30.7432C29.4929 30.8279 28.9018 30.9061 28.3065 30.9903C27.9285 33.8208 27.0684 40.2575 27.0684 40.2575L21.0179 41.273C30.7257 48.4702 47.9966 53.2584 67.6858 53.2584C88.7361 53.2584 107.022 47.7855 116.257 39.7471C115.559 38.9631 114.971 38.0607 114.548 37.0398L114.729 38.2608Z" fill="#E31837"></path>
<path d="M33.9572 43.8671C33.5575 43.9201 33.3565 43.9471 32.9575 44C33.0171 44.6192 33.046 44.9289 33.1055 45.5457C32.4459 45.6347 32.1155 45.679 31.4552 45.767C31.2819 43.9328 31.1946 43.0142 31.0195 41.1788C32.0806 41.0382 32.6085 40.9648 33.6683 40.826C34.6253 40.6985 35.33 41.1476 35.4191 42.0668C35.4237 42.1256 35.426 42.154 35.4305 42.2117C35.5202 43.1411 34.9129 43.7397 33.9572 43.8671ZM33.8036 42.3564C33.7777 42.0751 33.6142 41.9729 33.2957 42.0168C33.0898 42.0438 32.9857 42.0565 32.7775 42.0828C32.8172 42.5007 32.8377 42.7099 32.8768 43.1241C33.0852 43.0963 33.1875 43.085 33.3951 43.0568C33.6924 43.0196 33.8573 42.8932 33.829 42.5994C33.8176 42.5032 33.813 42.452 33.8036 42.3564Z" fill="#FFE894"></path>
<path d="M40.6155 44.6679C40.5691 44.0144 40.5446 43.6875 40.4963 43.0352C39.9847 43.0874 39.7277 43.1108 39.2143 43.1649C39.2619 43.8184 39.2864 44.146 39.3347 44.7971C38.6744 44.8657 38.344 44.9016 37.6843 44.9709C37.5508 43.1362 37.4701 42.1893 37.3545 40.3738C38.0129 40.3058 38.3434 40.2697 39.0024 40.2036C39.0489 40.913 39.0752 41.2773 39.1283 41.9993C39.6416 41.9464 39.8986 41.9182 40.4102 41.8671C40.3597 41.1457 40.3313 40.7856 40.2851 40.072C40.9435 40.0047 41.274 39.9693 41.9318 39.9043C42.0539 41.7331 42.1286 42.6679 42.2616 44.5057C41.6043 44.5693 41.2758 44.6018 40.6155 44.6679Z" fill="#FFE894"></path>
<path d="M44.4539 44.3271C44.3504 42.4843 44.2937 41.5554 44.1963 39.7211C44.8566 39.6718 45.1871 39.6473 45.845 39.6016C45.9455 41.4401 46.0003 42.3648 46.1044 44.2093C45.4441 44.2543 45.1142 44.2778 44.4539 44.3271Z" fill="#FFE894"></path>
<path d="M48.2892 44.0789C48.2117 42.2319 48.1726 41.3096 48.0947 39.4621C48.755 39.4291 49.0861 39.4164 49.7482 39.3887C49.8048 40.7264 49.8324 41.3944 49.8886 42.7321C50.8041 42.6937 51.2616 42.6719 52.1777 42.6335C52.1981 43.1445 52.2127 43.4024 52.2337 43.9129C50.656 43.979 49.865 44.0055 48.2892 44.0789Z" fill="#FFE894"></path>
<path d="M54.1615 43.8491C54.1139 41.9998 54.0887 41.0763 54.043 39.2263C54.7033 39.2081 55.0343 39.1999 55.6946 39.1836C55.7312 40.5231 55.7483 41.1893 55.7838 42.5276C56.6993 42.5042 57.1586 42.4921 58.0766 42.4669C58.0902 42.9797 58.0947 43.2352 58.1079 43.7457C56.5297 43.7855 55.7391 43.8082 54.1615 43.8491Z" fill="#FFE894"></path>
<path d="M62.2103 41.824C62.2217 42.5665 62.2241 42.938 62.2313 43.6816C61.5681 43.6907 61.2346 43.693 60.5714 43.7021C60.5618 42.9579 60.5575 42.5875 60.5479 41.8445C59.857 40.7485 59.5121 40.2015 58.8203 39.1025C59.5253 39.0935 59.8786 39.0889 60.5846 39.0798C60.9331 39.7153 61.1064 40.0333 61.4525 40.6681C61.7661 40.0261 61.9244 39.7044 62.2398 39.0618C62.9108 39.0527 63.2479 39.0481 63.9196 39.0391C63.2364 40.1542 62.8958 40.7125 62.2103 41.824Z" fill="#FFE894"></path>
<path d="M70.7238 43.7994C69.7234 43.788 68.9596 43.4242 68.3408 42.9216C68.6544 42.5681 68.8091 42.3943 69.1233 42.0414C69.6247 42.4526 70.2838 42.7196 70.7684 42.725C71.1759 42.7295 71.3107 42.5763 71.3125 42.3853C71.3191 41.7726 68.6568 42.0018 68.6719 40.4295C68.6809 39.6335 69.5007 38.9409 70.7882 38.9553C71.7381 38.9667 72.4429 39.3461 72.9449 39.8445C72.5916 40.1421 72.417 40.2882 72.0637 40.5834C71.6556 40.2468 71.1855 40.0351 70.7527 40.0297C70.4132 40.0275 70.2315 40.1495 70.2302 40.3285C70.2212 40.9447 72.9214 40.777 72.9052 42.2747C72.8986 43.1422 71.9626 43.8138 70.7238 43.7994Z" fill="#FFE894"></path>
<path d="M77.7215 40.4437C77.6859 41.7922 77.6673 42.468 77.633 43.8177C76.9721 43.7996 76.6422 43.7889 75.9807 43.7732C76.0156 42.4228 76.0337 41.7501 76.0686 40.4009C75.5208 40.3873 75.247 40.3805 74.6992 40.3659C74.7125 39.8681 74.7173 39.618 74.7317 39.1172C76.4875 39.1622 77.3651 39.1858 79.1215 39.2308C79.1083 39.7292 79.1011 39.9781 79.089 40.476C78.5413 40.4646 78.2674 40.458 77.7215 40.4437Z" fill="#FFE894"></path>
<path d="M80.9717 43.9188C81.0475 42.0706 81.0854 41.1507 81.1613 39.3008C82.7389 39.3662 83.528 39.4 85.1057 39.4637C85.0876 39.9416 85.078 40.1779 85.0581 40.6541C84.1402 40.6169 83.6815 40.5994 82.7636 40.5627C82.7522 40.8429 82.7479 40.9818 82.7353 41.2632C83.3378 41.2873 83.64 41.3004 84.2419 41.3257C84.2311 41.6185 84.2239 41.7652 84.2124 42.0604C83.6099 42.0351 83.3083 42.0225 82.7058 41.9979C82.6944 42.2804 82.6877 42.4235 82.6757 42.7073C83.5918 42.7453 84.0505 42.765 84.9666 42.803C84.9486 43.3159 84.9353 43.5684 84.9155 44.0824C83.3384 44.0163 82.5499 43.9844 80.9717 43.9188Z" fill="#FFE894"></path>
<path d="M89.8218 44.3732C89.7574 44.0828 89.7243 43.9349 89.6617 43.6404C89.132 43.6031 88.866 43.5852 88.3364 43.5502C88.2274 43.8327 88.1745 43.9728 88.0673 44.2548C87.4817 44.2157 87.1862 44.1995 86.6006 44.1634C87.3565 42.3575 87.7357 41.4485 88.4898 39.6504C89.1748 39.6967 89.5178 39.7238 90.2034 39.7742C90.7511 41.6565 91.0153 42.628 91.5564 44.5042C90.8618 44.4506 90.5145 44.4239 89.8218 44.3732ZM89.188 41.3048C88.9918 41.8272 88.8943 42.0869 88.6981 42.6106C89.002 42.631 89.1519 42.646 89.454 42.6665C89.3469 42.1224 89.2939 41.8489 89.188 41.3048Z" fill="#FFE894"></path>
<path d="M96.3163 44.965C96.0538 44.3049 95.9244 43.9755 95.6632 43.2974C95.4357 43.5414 95.322 43.6653 95.0927 43.9094C95.0644 44.2875 95.0481 44.4654 95.018 44.8346C94.3596 44.7666 94.0298 44.7334 93.3701 44.6673C93.5116 42.8518 93.6042 41.8935 93.733 40.0684C94.3933 40.1351 94.7237 40.1688 95.3846 40.2379C95.3304 41.0128 95.2925 41.4126 95.2263 42.2013C95.786 41.4648 96.0713 41.0861 96.619 40.3647C97.3111 40.4381 97.6596 40.4783 98.353 40.5558C97.7758 41.2237 97.4718 41.5748 96.8814 42.2602C97.3436 43.4294 97.5892 44.0138 98.0599 45.1529C97.3611 45.0759 97.0132 45.0384 96.3163 44.965Z" fill="#FFE894"></path>
<path d="M101.802 45.7529C100.806 45.6152 100.078 45.1691 99.502 44.6009C99.8438 44.2955 100.016 44.144 100.357 43.8314C100.822 44.3069 101.456 44.6389 101.939 44.705C102.347 44.7597 102.495 44.6297 102.512 44.438C102.572 43.8405 99.8854 43.7382 100.048 42.1684C100.132 41.3724 101.014 40.7796 102.29 40.9575C103.232 41.0905 103.897 41.5648 104.355 42.1221C103.977 42.3704 103.787 42.4961 103.409 42.7462C103.034 42.3584 102.587 42.086 102.158 42.0265C101.821 41.9808 101.628 42.0818 101.61 42.2628C101.549 42.8754 104.253 43.0432 104.107 44.5312C104.024 45.3873 103.039 45.9224 101.802 45.7529Z" fill="#FFE894"></path>
<path d="M45.9866 18.665C45.115 21.5431 44.2464 24.4248 43.3773 27.3058C44.7635 27.2017 48.0458 26.9679 48.0458 26.9679C47.6666 24.1969 47.2476 21.4307 46.8461 18.6644L45.9866 18.665ZM64.0626 15.3451C62.8864 15.2676 61.6838 15.378 60.5046 15.3914C60.451 17.6088 60.3908 19.8243 60.3391 22.0398C62.3296 22.0193 65.9189 22.567 65.9357 19.6397C65.9454 17.9791 66.3511 15.4984 64.0626 15.3451ZM64.898 19.633C64.8444 20.3797 64.712 20.4489 64.2823 20.7044C63.8338 20.925 63.0002 21.0176 62.1382 21.0104C62.0503 21.0104 61.9606 21.0059 61.8728 21.0059C61.8884 20.3204 61.9053 19.6369 61.9221 18.9509C62.4488 18.9304 62.9586 18.9034 63.451 18.9034C63.7213 18.9034 63.9807 18.9102 64.2281 18.9304C64.756 19.0014 64.7722 19.0843 64.9046 19.2984C64.9028 19.4113 64.898 19.5223 64.898 19.633ZM134.446 35.9845C134.446 35.4867 134.39 34.9943 134.287 34.5187C133.555 31.3202 131.433 29.2942 129.098 27.6715L132.16 25.8203L131.83 24.2601C130.643 18.7343 125.591 15.9609 121.129 15.8761C121.089 15.8749 121.033 15.8739 120.975 15.8739C120.078 15.8761 119.161 16.0272 118.318 16.3963C108.901 7.22887 89.7254 0.931641 67.6957 0.931641C45.8655 0.931641 26.8455 7.10742 17.3309 16.1305C16.5587 15.8546 15.7449 15.7548 14.963 15.7518C14.748 15.7541 14.5236 15.7587 14.2942 15.7789C9.52462 16.139 4.36133 19.2708 3.19722 24.5249C2.48513 27.8695 1.65449 31.2411 1.04235 34.6759C0.968183 35.0878 0.928595 35.502 0.928595 35.9162C0.899017 37.5768 1.63163 39.3047 3.16835 40.2589L3.14787 40.268L7.44017 42.8658L7.45383 42.8613C7.71326 43.0224 7.98713 43.1667 8.29291 43.2731C9.05373 43.5515 9.84706 43.6609 10.6362 43.6615C12.2144 43.657 13.7674 43.222 15.0844 42.6989C15.6815 42.4591 16.2647 42.1645 16.8263 41.8212C26.1615 51.1167 45.4729 57.5245 67.6951 57.5245C89.968 57.5245 109.322 51.0794 118.625 41.74C119.664 42.3959 120.787 42.8829 121.905 43.2034C122.834 43.4667 123.874 43.6904 124.952 43.6916C125.826 43.6898 126.734 43.5377 127.594 43.1102L132.256 40.2983L132.252 40.2937C133.798 39.3228 134.461 37.5918 134.443 35.9853L134.446 35.9845ZM67.6867 2.40736C88.2766 2.40856 106.222 7.64401 115.639 15.3938L111.442 14.718L108.598 17.2522L108.116 19.131L105.337 13.916L86.0068 12.1604L84.8156 14.6952L85.7696 29.7149L78.8909 29.3957L78.3028 11.7961L72.177 11.6536L71.8851 14.1883L72.2174 32.4866L72.1819 32.4798L71.8695 32.1858C71.7461 32.0697 71.6401 31.9459 71.5534 31.8202C71.2116 31.3525 71.0827 30.5114 71.0894 29.532C71.0894 28.9806 71.1207 28.4011 71.1207 27.8293V27.6411C71.1207 27.4687 71.1255 27.278 71.1255 27.0796C71.1237 26.6617 71.114 26.1826 70.9804 25.6632C70.8299 25.0878 70.5705 24.5815 70.2377 24.1469C70.2696 24.0916 70.3033 24.0439 70.3316 23.9857C70.5133 23.5979 70.609 23.2161 70.665 22.85L70.9407 19.586C70.9455 19.4512 70.9479 19.3215 70.9479 19.1976V18.9511C70.9479 18.877 70.9461 18.8243 70.9461 18.7786C70.9461 18.5153 70.9509 18.2399 70.9509 17.9555C70.9461 16.8463 70.9118 15.5236 70.1456 14.2778C68.7425 12.0684 66.2409 11.6373 64.254 11.6343C64.201 11.6355 55.5145 11.8615 55.5145 11.8615L54.6965 32.816L51.2824 14.653L50.143 12.1189L43.6808 12.595L39.2512 25.7125L40.2582 15.553L38.3502 13.0183L32.1401 13.6676L31.0832 22.4647L29.4195 22.6751L30.2086 16.7549L27.6047 14.2207L21.3278 15.0997L20.7572 18.7353C20.4781 18.618 20.194 18.5201 19.905 18.4521C19.5619 17.6562 18.9961 17.0321 18.3436 16.6178C27.302 8.20008 46.0305 2.40736 67.6867 2.40736ZM116.291 16.5169C114.907 20.2847 113.492 24.0418 112.139 27.8217C112.579 30.8861 113.041 33.9457 113.492 37.0096C112.016 36.7871 110.536 36.5845 109.052 36.3831C108.642 33.294 108.203 30.2079 107.82 27.1146C105.284 22.9391 102.918 18.656 100.467 14.4282C101.873 14.575 103.276 14.7415 104.681 14.9032C106.394 18.1221 108.115 21.3369 109.818 24.5582C110.615 21.6736 111.404 18.7853 112.198 15.8988C113.561 16.1033 114.925 16.3059 116.291 16.5169ZM91.8839 21.9784C93.7553 22.1233 95.6272 22.2904 97.495 22.4678L97.7671 25.1601C95.8843 24.9719 93.9924 24.8017 92.1048 24.6556C92.28 26.8327 92.4629 29.0085 92.6399 31.1879C94.7719 31.399 99.2845 31.7471 101.045 31.9875L101.427 35.4572C97.1411 34.9858 92.8494 34.6047 88.5523 34.3113L87.1263 13.2907C91.1267 13.548 95.1222 13.8811 99.1136 14.2833L99.4326 17.2041C96.7703 16.9257 94.1032 16.6768 91.4349 16.4778C91.5884 18.3103 91.7352 20.1452 91.8839 21.9784ZM86.1007 34.1574C81.9516 33.903 77.7978 33.7401 73.6445 33.6589L73.2382 12.7243C74.5901 12.7448 75.9433 12.7803 77.2964 12.8237C77.4908 18.6838 77.669 24.5469 77.8857 30.4089C79.9256 30.5009 81.9685 30.5675 84.0084 30.677C84.641 30.7106 85.2712 30.746 85.9002 30.7815L86.1007 34.1574ZM66.0393 26.9482C66.0483 25.4342 65.0046 24.3664 63.5184 24.3664C62.4404 24.3382 61.3575 24.4164 60.2801 24.4248C60.2061 27.5151 60.1278 30.6043 60.052 33.6951C58.598 33.7247 57.1456 33.781 55.695 33.8332L56.5106 12.88C59.0308 12.7862 61.5471 12.7284 64.0674 12.6923C65.9821 12.6646 68.1604 13.0663 69.2613 14.8405C70.0282 16.0766 69.8952 17.5538 69.9048 18.9468C69.9114 19.6424 69.909 20.3314 69.5882 20.9693C69.1193 21.8922 68.1707 22.3787 67.2118 22.6156L67.2226 23.4518C68.5089 23.7224 69.6309 24.611 69.9704 25.9325C70.1227 26.5097 70.0745 27.1445 70.0793 27.7379C70.0908 29.2127 69.8169 31.1517 70.7017 32.4257C70.8323 32.6134 70.984 32.7919 71.1586 32.9565L71.1682 33.7616C69.9818 33.7548 68.0659 34.0701 67.036 33.3769C65.6468 32.4419 66.0242 30.0491 66.0314 28.5754C66.0338 28.0343 66.0567 27.4874 66.0393 26.9482ZM53.4624 33.9325C52.0136 33.995 50.5672 34.0743 49.122 34.1652C48.8746 32.6537 48.6332 31.1458 48.378 29.6392C46.4519 29.8039 44.5179 29.9157 42.5869 30.0612C42.1409 31.6334 41.6395 33.1912 41.1658 34.7526L37.1721 35.1247L44.4535 13.554C45.853 13.3611 48.8981 13.2492 49.299 13.2258L53.4624 33.9325ZM17.3496 27.6936L18.7009 27.4585L19.404 27.3358L19.1476 28.9646L12.9147 29.9879C12.8895 29.8465 12.8653 29.7034 12.8449 29.5615C12.9989 28.7307 13.1537 27.9004 13.3077 27.0707C13.4479 26.2723 13.5521 25.65 13.8013 25.2153C13.8149 25.1858 13.8393 25.1564 13.8572 25.1276L13.8527 25.159L17.3496 27.6936ZM17.6283 30.7604C17.3599 32.4 17.039 33.9505 16.097 35.3598C14.8956 37.1599 13.0604 38.426 11.0686 39.1728C9.07685 39.9213 6.56504 40.4468 4.49202 39.7367C2.38109 39.0291 1.69491 36.938 2.06628 34.8644C2.67001 31.4753 3.49706 28.1139 4.21695 24.7464C5.19868 20.1176 9.95986 17.1506 14.3828 16.8307C16.401 16.6839 18.713 17.2624 19.1584 19.5687C19.3962 20.7886 19.059 22.0692 18.8599 23.2728L15.1316 23.8831C15.3723 22.5231 15.9682 20.4789 14.1498 20.0022C12.3609 19.535 10.0929 20.5649 9.16052 22.1425C8.76445 22.8147 8.6555 23.577 8.50743 24.3298C8.0602 26.5765 7.61298 28.8257 7.16695 31.0755C6.86178 32.6182 5.69466 35.7602 7.85555 36.362C9.689 36.8761 12.0275 35.7933 13.0062 34.1994C13.6051 33.2249 13.6942 32.0218 13.8892 30.9174L17.7114 30.2747C17.6825 30.4346 17.6547 30.5981 17.6283 30.7604ZM22.2294 16.0341C23.6108 15.8332 24.994 15.6415 26.3736 15.4539C25.9547 18.3993 25.5352 21.3453 25.1096 24.2907C27.4119 23.9823 29.7089 23.6786 32.0148 23.4189C32.3681 20.4879 32.7179 17.557 33.0688 14.626C34.0969 14.5124 35.1237 14.4018 36.1518 14.2947C36.4949 14.2618 36.8368 14.2268 37.1769 14.1943L34.9359 35.3466C33.4642 35.4986 31.9913 35.6682 30.5215 35.8497C30.891 32.7757 31.2624 29.6998 31.6284 26.6252C29.2984 26.8807 26.978 27.2102 24.6527 27.5138C24.2103 30.6077 23.7679 33.7022 23.3255 36.7949C21.8388 37.0119 20.3514 37.2362 18.8665 37.4701L22.2294 16.0341ZM67.6867 53.2576C47.997 53.2576 30.7261 48.4695 21.0183 41.2722L27.0688 40.2574C27.0688 40.2574 27.929 33.8207 28.307 30.9901C28.9029 30.9061 29.4934 30.8272 30.0875 30.743C29.8878 32.4024 29.3278 37.0571 29.3278 37.0571L31.8198 39.5912L43.6277 38.2703C43.6277 38.2703 44.5931 34.9456 44.9627 33.5928C45.9487 33.5172 46.9436 33.4442 47.9368 33.3678C47.9898 33.6907 48.2492 35.2743 48.2492 35.2743L49.5114 37.8091L61.4984 37.2626C61.4984 37.2626 61.6519 30.7453 61.7145 27.9893C62.267 27.9711 62.8063 27.9465 63.33 27.9465C63.4787 27.9465 63.6189 27.9488 63.7514 27.9557C64.3798 27.9886 64.7776 28.2147 64.9907 28.6495C64.9835 29.1064 64.9371 29.7233 64.9371 30.3918C64.942 30.7273 64.9534 31.0916 64.9967 31.4656C65.025 31.7163 65.081 32.6446 65.1153 32.9266C65.2658 34.1435 65.2152 35.7806 66.5413 36.7889C67.3647 37.3606 68.2561 37.4032 69.0675 37.4153C69.7531 37.4153 70.4032 37.3521 70.8486 37.3481L72.6857 37.2385L72.6839 37.2362L73.24 37.2476C77.1122 37.3276 87.1323 37.8975 87.1323 37.8975C91.1357 38.1909 100.335 39.1811 100.335 39.1811L102.605 36.6464L101.991 31.0502C101.991 31.0502 95.9107 30.4285 93.6066 30.2187C93.5609 29.6529 93.5145 29.0878 93.4688 28.5226C94.2175 28.5953 96.9027 28.8689 96.9027 28.8689L98.9342 26.3348L98.4442 21.4943L92.8494 20.9947L92.7952 20.3286L98.502 20.863L99.0004 20.2925C100.733 23.5343 102.454 26.7929 104.271 30.004C104.626 33.0367 105.501 39.8563 105.501 39.8563L111.673 40.7954L114.729 38.2606L114.549 37.039C114.972 38.0598 115.56 38.9623 116.257 39.7463C107.022 47.7846 88.7365 53.2576 67.6867 53.2576ZM113.894 32.59C113.665 31.037 113.431 29.4828 113.208 27.9317C113.32 27.6136 113.442 27.2968 113.555 26.9782C114.041 27.773 114.633 28.4752 115.249 29.0746C115.726 29.534 116.222 29.9506 116.724 30.3426L113.894 32.59ZM131.324 39.6183C129.655 40.3999 127.649 40.1047 125.94 39.6497C122.337 38.6853 118.832 36.1385 118.182 32.1957L118.077 31.5553L122.023 32.2191C122.371 34.1935 123.382 35.7976 125.339 36.4451C126.215 36.7337 127.423 36.9711 128.263 36.4496C129.083 35.9645 129.131 34.9261 128.968 34.0838C128.562 32.0397 126.551 30.7212 124.943 29.6775C123.006 28.4263 120.97 27.3098 119.247 25.7527C117.638 24.2971 116.304 22.2896 116.659 20.0002C117.004 17.76 119.082 16.8912 121.105 16.9309C125.203 17.0168 129.771 19.5517 130.809 24.481L127.01 23.7344C126.591 21.5405 124.85 19.8192 122.567 19.8192C121.451 19.8192 120.594 20.528 120.698 21.7215C120.809 22.9792 121.692 23.9171 122.624 24.6591C126.317 27.6032 132.158 29.5007 133.269 34.7392C133.676 36.6462 133.195 38.7411 131.324 39.6183Z" fill="#6F1200"></path>
<path fill-rule="evenodd" clip-rule="evenodd" d="M117.111 44.9368C117.111 45.9077 117.887 46.6821 118.859 46.6821C119.831 46.6821 120.607 45.9077 120.607 44.9368C120.607 43.97 119.827 43.1914 118.859 43.1914C117.887 43.1914 117.111 43.9658 117.111 44.9368ZM120.208 44.9368C120.208 45.6787 119.602 46.2835 118.86 46.2835C118.108 46.2835 117.511 45.6883 117.511 44.9368C117.511 44.19 118.112 43.59 118.86 43.59C119.607 43.59 120.208 44.19 120.208 44.9368ZM119.73 45.8945L119.272 45.0973C119.607 45.0973 119.786 44.9182 119.786 44.5838C119.786 44.0848 119.483 44.0067 119.052 44.0067H118.108V45.8945H118.507V45.1201H118.86L119.281 45.8945H119.73ZM119.061 44.8177H118.506V44.3091H118.988C119.148 44.3091 119.387 44.3136 119.387 44.5333C119.387 44.7672 119.276 44.8177 119.061 44.8177Z" fill="#6F1200"></path>
<path d="M51.8268 7.12613L52.3673 5.90625L52.909 7.12613L54.2393 7.26261L53.2431 8.15122L53.523 9.45888L52.3673 8.78731L51.2128 9.45888L51.5529 8.06224L50.6055 7.21511L51.8268 7.12613Z" fill="#FFE894"></path>
<path d="M58.8164 6.11649L59.3584 4.89844L59.8996 6.11649L61.228 6.25537L60.233 7.14338L60.5141 8.45104L59.3584 7.78008L58.2012 8.45104L58.5407 7.0544L57.5957 6.20547L58.8164 6.11649Z" fill="#FFE894"></path>
<path d="M83.5498 7.12613L83.0087 5.90625L82.467 7.12613L81.1367 7.26261L82.1341 8.15122L81.8536 9.45888L83.0087 8.78731L84.1638 9.45888L83.8237 8.06224L84.7705 7.21511L83.5498 7.12613Z" fill="#FFE894"></path>
<path d="M76.5578 6.11649L76.016 4.89844L75.4749 6.11649L74.1465 6.25537L75.1415 7.14338L74.8616 8.45104L76.016 7.78008L77.1729 8.45104L76.8335 7.0544L77.7785 6.20547L76.5578 6.11649Z" fill="#FFE894"></path>
<path d="M66.4721 6.73856L65.1504 5.55486L66.8549 5.42921L67.6108 3.72852L68.3662 5.42921L70.2229 5.62219L68.832 6.8618L69.2244 8.68636L67.6108 7.75033L65.9966 8.68636L66.4721 6.73856Z" fill="#FFE894"></path>
</svg>