<svg width="188" height="52" viewBox="0 0 188 52" fill="none" xmlns="http://www.w3.org/2000/svg">
<path d="M27.6619 42.6366C26.5952 44.0753 23.2747 48.1534 17.6128 48.1534C12.171 48.1534 9.61875 46.5583 7.53963 44.7013L7.03641 44.2499L6.50607 44.6622C6.45744 44.6952 6.39913 44.7111 6.34037 44.7073C6.25594 44.6893 6.18096 44.6412 6.12946 44.5719C6.08426 44.5177 6.06317 44.4575 6.06919 44.4154L6.09029 44.2499L6.21382 43.3169L5.27371 43.3289C5.15619 43.3289 4.79159 43.2687 4.53848 43.2085C3.89064 43.0821 4.0654 42.0106 4.07444 41.9625L4.28537 40.7195L3.06803 41.0385C3.1524 41.0204 3.21869 41.0204 3.21869 41.0204C3.12826 41.0123 3.0386 40.9972 2.95052 40.9753L2.91134 40.9693L2.86615 40.9602C2.41416 40.9121 2.04957 40.5991 1.98026 40.2108L1.8989 39.7172L1.41378 39.5788L1.9441 40.0904C1.88383 39.9158 0.551994 35.7293 3.73998 31.2538C3.75806 31.2237 5.67446 28.5662 7.90426 27.4887L9.50123 26.7122L7.86507 26.0139C7.54983 25.8593 7.28489 25.6187 7.10091 25.3198C6.91693 25.021 6.82147 24.6762 6.82554 24.3254V24.2652C6.80138 23.9974 6.61158 21.5957 6.30118 20.6355L6.29219 20.6175L6.28313 20.5934C6.25601 20.5122 5.53284 18.3361 8.9348 15.9584L8.96486 15.9343L8.99499 15.9103C9.02513 15.8892 11.963 13.4212 14.1718 12.3347L15.1601 11.8532L14.4068 11.0495C14.2742 10.9141 11.2549 7.61842 14.0844 4.35291C14.1898 4.24456 17.1819 1.19269 22.0362 4.96689C22.2622 5.12942 26.8785 8.65984 22.2773 17.6078L22.1658 17.8245L22.196 18.0652C22.2261 18.327 22.5876 20.6536 26.1975 23.2269C26.327 23.3112 27.1979 23.9312 26.8514 24.8612L26.7428 25.1411L26.8453 25.4271C26.8755 25.5083 27.6227 27.4917 29.9791 29.767L29.8887 29.6587C30.0695 29.9115 30.9011 31.2298 29.5934 32.208L29.503 32.2802L29.4277 32.3795C29.1866 32.7105 28.5086 34.074 29.9821 37.6074C30.2081 38.2033 30.6781 40.0573 30.0212 41.21C29.6838 41.8059 29.0811 42.1732 28.1802 42.3236L27.8577 42.3808L27.6619 42.6366ZM6.06015 26.6941C4.01117 28.0996 2.4925 30.2155 2.41718 30.3208C-1.26497 35.4885 0.335042 40.4034 0.407364 40.6141L0.419418 40.6652C0.545484 41.124 0.79544 41.5394 1.14193 41.8659C1.48843 42.1923 1.91812 42.4173 2.38403 42.5162L2.42019 42.5223L2.43224 42.5644C2.4925 43.4733 2.91435 44.5388 4.19497 44.7946L4.46616 44.8548L4.50232 44.8578L4.51136 44.9059C4.61807 45.272 4.82844 45.5994 5.11711 45.8488C5.4058 46.0982 5.7605 46.2588 6.1385 46.3115C6.36907 46.342 6.60335 46.3276 6.82849 46.2694L6.85862 46.2573L6.90084 46.2874C9.1397 48.1504 12.1981 49.7848 17.6068 49.7848C25.3116 49.7848 28.3338 44.4335 28.7436 43.9068L28.7888 43.8466L28.8642 43.8375C30.0453 43.5456 30.9101 42.9346 31.4375 42.0076C32.6066 39.9429 31.5279 37.1198 31.4767 36.9813C30.5726 34.8204 30.654 33.77 30.7293 33.4178L30.7534 33.3366L30.8137 33.3065C32.483 31.8438 31.9798 29.7851 31.1994 28.7076L31.1572 28.6504L31.109 28.6053C29.521 27.0703 28.7587 25.6979 28.4875 25.1351L28.4694 25.105L28.4875 25.0327C28.8401 23.4888 27.7794 22.3119 27.1105 21.8846C24.7812 20.2292 24.0792 18.7334 23.8773 18.1405L23.8623 18.0502L23.8924 18.008C28.8702 7.99772 23.2535 3.84126 23.0065 3.6697C16.974 -1.02548 12.9122 3.22426 12.8791 3.2694C10.3299 6.21292 11.264 9.36714 12.4873 11.2211L12.5777 11.3415L12.4632 11.4198C10.3148 12.6868 8.05788 14.5799 7.94943 14.6702L8.00668 14.6281C3.50796 17.7763 4.72229 21.0418 4.77351 21.1833L4.75544 21.1351C4.97238 21.7973 5.15318 23.7115 5.20741 24.3917L5.20139 24.3345C5.20741 25.3789 5.6142 26.1223 6.06317 26.6279L6.10535 26.6791L6.06015 26.6941Z" fill="#C5CA07"></path>
<path d="M15.3227 10.5218C15.3227 10.5218 12.6409 4.8635 17.1005 5.10128C17.1005 5.10128 21.7679 6.08545 15.3227 10.5218ZM30.0874 32.854C32.1153 31.3311 30.5454 29.1791 30.5454 29.1791C28.2916 27.0061 27.6136 25.146 27.6136 25.146C28.2101 23.5539 26.6734 22.5577 26.6734 22.5577C23.2474 20.1258 22.9973 17.9709 22.9973 17.9709C28.0173 8.22236 22.5363 4.32476 22.5363 4.32476C16.992 0.0118242 13.4726 3.81311 13.4726 3.81311C10.1158 7.69565 13.813 11.5993 13.813 11.5993C11.4928 12.7429 8.47365 15.2862 8.47365 15.2862C4.44495 18.1063 5.53272 20.8782 5.53272 20.8782C5.81897 21.7752 6.01483 24.3274 6.01483 24.3274C6.02086 26.1032 7.54855 26.7502 7.54855 26.7502C5.10183 27.9361 3.08298 30.7773 3.08298 30.7773C-0.406322 35.6741 1.17561 40.3452 1.17561 40.3452H1.18465C1.31121 41.0675 1.947 41.6605 2.77563 41.7537C2.77563 41.7537 3.16735 41.844 3.27582 41.8199C3.27582 41.8199 2.93231 43.713 4.35757 43.996C4.35757 43.996 4.98733 44.1435 5.29166 44.1344L5.26756 44.303C5.19524 44.8779 5.67133 45.4347 6.24384 45.5069C6.51431 45.5379 6.78605 45.4611 7.00017 45.2931C9.12143 47.1953 12.1708 48.962 17.6127 48.962C21.3973 48.962 24.3804 47.4571 26.574 45.263C27.4779 44.3541 27.942 43.6198 28.3217 43.1141C32.7029 42.3677 30.7322 37.2873 30.7322 37.2873C29.322 33.8983 30.0874 32.854 30.0874 32.854Z" fill="white"></path>
<path d="M17.0942 5.10279C12.6377 4.86201 15.3165 10.5233 15.3165 10.5233C21.7647 6.08998 17.0942 5.10279 17.0942 5.10279ZM21.9365 8.15166C21.8009 9.7378 21.3158 11.4984 20.3817 12.8077C19.6826 13.7889 18.5738 14.7339 17.5311 15.3389C15.0061 16.6451 12.2189 18.1168 10.1428 20.0701C8.61809 21.5028 6.56307 24.052 7.5424 26.7578C7.5424 26.7578 6.01467 26.1077 6.00563 24.329C6.00563 24.329 5.81579 21.7767 5.52351 20.8798C5.52351 20.8798 4.43875 18.1078 8.46742 15.2877C8.46742 15.2877 11.4685 12.7415 13.7948 11.6008C13.7948 11.6008 10.1096 7.68817 13.4633 3.8056C13.4633 3.8056 14.6475 2.63181 16.0968 2.43016C16.0968 2.43016 18.0464 2.15928 19.7248 3.25181C20.8879 4.00425 21.5809 5.16299 21.84 6.43614C21.9486 6.98993 21.9847 7.57381 21.9365 8.15166ZM30.0812 32.8555C30.0812 32.8555 29.3279 33.9059 30.7381 37.2948C30.7381 37.2948 32.6966 42.3662 28.3335 43.1156C26.2755 41.8816 23.5787 40.9547 20.5595 40.5754C14.6144 39.8321 9.34728 41.4422 7.5785 44.2834C7.35857 44.5844 7.16568 44.9095 7.01803 45.2826L6.98797 45.3218C6.7728 45.4875 6.50151 45.563 6.23162 45.5325C5.6591 45.4602 5.18302 44.9004 5.25533 44.3286L5.28547 44.1389C7.95514 34.8629 17.507 35.1188 17.507 35.1188C28.4812 35.167 30.0812 32.8555 30.0812 32.8555Z" fill="#F46690"></path>
<path d="M23.0307 17.9483C23.0307 17.9483 19.5865 21.8459 14.8708 23.2605C14.8708 23.2605 10.5408 24.5156 7.56381 26.7368L7.48852 26.7729C5.04778 27.9557 3.05002 30.7969 3.05002 30.7969C-0.433253 35.6847 1.16375 40.3678 1.16375 40.3678V40.3828C1.29332 41.1052 1.93212 41.6861 2.76075 41.7884C2.76075 41.7884 3.15247 41.8757 3.26095 41.8486L3.28204 41.7884C3.42968 38.7696 5.66549 36.2114 5.66549 36.2114C5.66549 36.2114 9.9473 30.6795 22.5997 27.6457C27.4028 26.4238 27.6378 25.1145 27.6378 25.1145C28.2375 23.5254 26.6977 22.5292 26.6977 22.5292C23.2747 20.0913 23.0276 17.9453 23.0276 17.9453M15.4584 11.0019C15.9948 11.044 18.1703 8.74762 18.1884 8.72355C18.5801 8.23592 19.7734 6.74913 18.6404 5.47905C18.2737 5.04389 17.7704 4.74548 17.2124 4.63236C16.6543 4.51924 16.0744 4.59807 15.5669 4.85603C15.2319 5.03699 14.9383 5.28567 14.7049 5.58622C14.4715 5.88677 14.3033 6.2326 14.211 6.60165C13.7379 8.39547 14.9763 10.5534 15.121 10.7942C15.121 10.7942 15.2716 11.0139 15.4584 11.0019ZM15.6121 10.0087L15.5458 9.86424C15.2083 9.15694 14.7172 7.85972 14.9914 6.80329C15.058 6.54025 15.179 6.29399 15.3466 6.08043C15.5142 5.86687 15.7248 5.69072 15.9647 5.56332C16.3112 5.3972 16.7035 5.352 17.0788 5.43495C17.4541 5.51788 17.7907 5.72417 18.0347 6.0208C18.3512 6.37293 18.5801 6.9418 17.5557 8.21789C17.3989 8.4135 16.3202 9.44285 15.7206 9.9485L15.6121 10.0087Z" fill="#C5CA07"></path>
<path d="M15.3679 41.8926C14.5845 41.8956 13.9518 42.6992 13.9487 43.6923L13.9548 43.8428L15.1539 43.7525L14.1054 44.5169C14.3404 45.0947 14.8135 45.4949 15.3588 45.4949C16.1482 45.4979 16.7749 44.6914 16.7749 43.6953C16.7749 42.7022 16.1482 41.8956 15.3679 41.8926ZM19.8542 45.4919C20.6375 45.504 21.2702 44.6944 21.2702 43.7043V43.5539L20.068 43.6411L21.1195 42.8767C20.8876 42.2959 20.4116 41.8986 19.8692 41.8986C19.0858 41.8986 18.4471 42.6992 18.4441 43.6893C18.4441 44.6854 19.0738 45.4919 19.8542 45.4919Z" fill="#AA056C"></path>
<path d="M18.4559 46.2291C18.4433 46.4332 18.3533 46.6249 18.2041 46.7651C18.0549 46.9053 17.8579 46.9833 17.6531 46.9833C17.4483 46.9833 17.2512 46.9053 17.102 46.7651C16.9528 46.6249 16.8628 46.4332 16.8503 46.2291C16.8503 46.2067 16.8458 46.1845 16.8371 46.1638C16.8285 46.1432 16.8158 46.1245 16.7998 46.1088C16.7838 46.0932 16.7649 46.0808 16.744 46.0725C16.7233 46.0642 16.701 46.0601 16.6786 46.0606C16.6559 46.0601 16.6334 46.0643 16.6123 46.0728C16.5914 46.0812 16.5723 46.0938 16.5562 46.1099C16.5402 46.1259 16.5276 46.145 16.5191 46.1659C16.5106 46.1869 16.5064 46.2095 16.5069 46.2321C16.5069 46.5353 16.6275 46.8261 16.8421 47.0406C17.0568 47.255 17.348 47.3755 17.6516 47.3755C17.9552 47.3755 18.2463 47.255 18.461 47.0406C18.6757 46.8261 18.7963 46.5353 18.7963 46.2321C18.7967 46.2101 18.7927 46.1882 18.7845 46.1678C18.7764 46.1474 18.7643 46.1288 18.7488 46.1131C18.7334 46.0974 18.715 46.0849 18.6947 46.0764C18.6745 46.0679 18.6526 46.0635 18.6306 46.0635C18.608 46.0619 18.5853 46.065 18.5639 46.0725C18.5426 46.0801 18.5231 46.0921 18.5066 46.1077C18.4902 46.1233 18.4772 46.1421 18.4684 46.163C18.4596 46.1839 18.4554 46.2064 18.4559 46.2291Z" fill="#F46690"></path>
<path d="M145.867 13.2063C147.729 13.2063 149.245 11.6925 149.245 9.83565C149.208 8.96556 148.836 8.14336 148.206 7.54067C147.577 6.93806 146.739 6.60156 145.867 6.60156C144.995 6.60156 144.157 6.93806 143.528 7.54067C142.898 8.14336 142.527 8.96556 142.49 9.83565C142.49 11.6925 144.005 13.2063 145.867 13.2063Z" fill="white"></path>
<path d="M176.047 12.486C176.047 12.486 176.018 12.9074 174.502 13.4311C170.5 14.7553 168.928 16.2782 168.928 16.2782C168.928 16.2782 168.225 16.8802 168.439 17.6718C166.962 16.0435 167.942 14.5958 167.942 14.5958C167.942 14.5958 168.027 14.4544 168.174 14.2497L168.177 14.2528C169.159 12.9586 171.543 11.8449 171.543 11.8449C171.645 11.8058 171.748 11.7577 171.844 11.7095C173.501 10.939 174.022 9.91571 174.022 9.91571C174.022 9.91571 174.502 10.9841 175.671 11.6764C175.671 11.6764 176.195 11.9563 176.044 12.483M182.957 23.6611C182.372 23.0171 181.95 22.5324 181.86 22.1412L181.791 21.8583L182.044 21.7078C182.527 21.4239 182.882 20.9671 183.039 20.4305C183.196 19.8937 183.144 19.3174 182.891 18.8184L182.312 17.7049C182.042 17.1903 181.579 16.8033 181.025 16.6284C180.471 16.4536 179.87 16.5052 179.353 16.7718C179.166 16.8699 178.984 16.9744 178.808 17.0909L178.621 17.2324L177.88 17.7862L177.991 16.8682L178.111 15.902V15.8057V15.6523C178.287 12.6275 176.936 11.1075 175.951 9.99998C175.84 9.87656 175.734 9.75918 175.638 9.64482L175.52 9.50639L175.55 9.32579C175.882 7.14377 175.59 5.54257 174.677 4.56441C173.589 3.39965 171.94 3.52606 171.931 3.52606C170.762 3.64645 169.906 4.06781 169.385 4.78412C168.505 5.98801 168.837 7.65841 168.843 7.67349L168.882 7.86608L168.755 8.01658L168.693 8.08576C167.198 9.80135 166.116 11.0413 166.092 11.9202L166.089 12.0646C166.089 12.7569 166.24 13.4491 166.484 14.027L166.613 14.355L166.629 14.4002L166.553 14.5898C166.288 15.2068 166.188 15.7515 166.188 16.3475V16.3776L166.182 16.4077C166.116 16.8261 166.318 17.4912 166.402 17.7139L166.821 18.8125L165.824 18.1864L165.239 17.8252L165.26 17.8403C164.015 17.1587 162.618 16.8046 161.198 16.811C156.127 16.811 152.002 20.9704 151.999 26.0478C152.002 26.0689 152.189 28.1998 152.527 29.1599L152.71 29.6836H148.7V29.2893V19.3752C148.699 18.7942 148.468 18.237 148.056 17.8258C147.645 17.4146 147.088 17.1828 146.506 17.1812H145.265C144.682 17.182 144.123 17.4138 143.711 17.8258C143.299 18.2377 143.068 18.7961 143.068 19.3783V29.6836H138.172L138.166 29.3074L138.16 29.2713V24.8048C138.16 20.0946 135.234 16.9645 130.705 16.829L130.211 16.811L130.331 16.3324C132.076 9.5515 132.431 7.42666 132.5 6.86382V6.87891L132.591 5.75626C132.591 4.45606 132.187 3.30936 131.428 2.44255C130.096 0.916622 128.228 0.796232 127.692 0.790212H127.64C125.712 0.7541 124.539 1.57576 123.898 2.271C122.693 3.56518 122.512 5.25364 122.512 6.14451C122.512 6.33109 122.521 6.46355 122.527 6.58999V23.0502L122.5 23.1193L121.548 25.5061L119.963 29.4789L119.863 29.7287H119.598L112.743 29.7257C110.682 29.7257 108.805 27.9891 108.805 26.0809C108.805 24.3383 110.01 22.8334 111.667 22.5054L112.044 22.4302L112.128 22.8064C112.52 24.5219 114.075 25.7679 115.831 25.7679C117.905 25.7679 119.592 24.0614 119.592 21.9667C119.592 18.5837 115.94 16.814 112.33 16.814C107.361 16.814 103.236 20.8862 103.14 25.8973V25.9215C103.14 25.9215 103.133 25.9937 103.124 26.0238V29.6866H99.892L99.8768 29.3104L99.8708 29.2743V24.7627C99.8708 19.9833 96.7547 16.7718 92.1174 16.7718C91.0873 16.7718 90.0896 17.0126 89.1523 17.4852L88.9658 17.5755L88.7815 17.4761C88.456 17.287 88.0859 17.1854 87.7091 17.1812H86.4342C85.8512 17.1812 85.2915 17.4127 84.8792 17.8247C84.4668 18.2367 84.2349 18.7956 84.2349 19.3783V29.7287H83.843L76.2255 29.7257H75.2618L75.9484 29.0516L81.8846 23.2037C82.2985 22.7913 82.5319 22.2323 82.5341 21.6486C82.5364 21.065 82.3068 20.5041 81.8967 20.0886C79.6581 17.8553 77.437 16.811 74.9061 16.811C69.8378 16.811 65.7127 20.9704 65.7127 26.0809C65.7127 27.1283 65.8875 28.1667 66.237 29.1599L66.4178 29.6836H62.4313L62.4132 29.3074V24.8079C62.4132 20.0254 59.2946 16.814 54.6542 16.814C53.0331 16.814 51.5084 17.3979 50.2429 18.5055L49.9898 18.7252L49.7306 18.5145C48.3717 17.4009 46.627 16.814 44.6926 16.814C43.677 16.814 42.6918 17.0457 41.7607 17.5062L41.5708 17.5965L41.387 17.4942C41.0542 17.2933 40.6731 17.1862 40.2842 17.1842H39.0096C38.4267 17.185 37.868 17.4168 37.4562 17.8288C37.0443 18.2407 36.813 18.7991 36.813 19.3813V32.7836C36.813 33.9936 37.7983 34.9807 39.0096 34.9807H40.2842C40.8676 34.9807 41.4271 34.7492 41.8395 34.3372C42.252 33.9251 42.4838 33.3663 42.4838 32.7836V25.2202C42.4838 23.9651 43.5023 22.4362 44.6926 22.4362C45.7743 22.4362 46.7776 22.7251 46.7776 24.8048V32.7836C46.7776 33.9936 47.76 34.9807 48.9713 34.9807H50.2489C50.5377 34.9807 50.8238 34.9238 51.0906 34.8135C51.3575 34.703 51.6 34.5412 51.8043 34.3372C52.0086 34.1332 52.1706 33.891 52.2811 33.6244C52.3916 33.3578 52.4486 33.0722 52.4486 32.7836V25.2202C52.4486 23.9651 53.467 22.4362 54.6542 22.4362C55.6847 22.4362 56.7816 22.6168 56.7816 24.8048V29.2472C56.7816 32.7836 59.1921 35.3479 62.5187 35.3479H67.37C67.5327 35.3479 68.9971 35.2877 70.4736 34.3938L70.6604 34.2795L70.8532 34.3787C72.1429 35.0228 73.5048 35.3479 74.9122 35.3479H86.7001C87.4863 35.3152 88.2362 35.0033 88.8132 34.4681C89.3902 33.933 89.7573 33.2098 89.8487 32.4285L89.9091 31.9078V25.1359C89.9091 23.9019 90.9302 22.397 92.1205 22.397C93.205 22.397 94.2027 22.6829 94.2027 24.7657V29.2502C94.2027 32.7264 96.6739 35.3479 99.9395 35.3479H105.219C106.192 35.3479 107.142 34.9687 107.822 34.3096L108.024 34.1109L108.277 34.2403C109.675 34.9626 111.221 35.3479 112.746 35.3479H120.198V35.3418L120.367 35.3479C121.053 35.366 122.066 35.1703 123.027 34.5654L123.253 34.4239L123.464 34.5744C123.844 34.8423 124.277 34.9807 124.727 34.9807H126.001C126.585 34.9807 127.144 34.7492 127.557 34.3372C127.969 33.9251 128.201 33.3663 128.201 32.7836V25.2202C128.201 23.9651 129.219 22.4362 130.409 22.4362C131.491 22.4362 132.491 22.7251 132.491 24.8048V29.2472C132.491 32.7264 134.96 35.3479 138.232 35.3479H143.342L143.649 35.2787H143.668L143.689 35.2727C144.43 35.1824 145.111 34.9777 145.707 34.6526L145.897 34.5503L146.087 34.6526C146.94 35.1161 147.859 35.3509 148.811 35.3509H153.678C153.84 35.3479 155.304 35.2907 156.775 34.3999L156.962 34.2884L157.158 34.3848C158.442 35.0258 159.803 35.3479 161.204 35.3479C163.443 35.3479 165.272 34.9567 166.803 34.15C167.157 33.9641 167.452 33.6852 167.658 33.3436C167.864 33.0019 167.973 32.6106 167.972 32.2117V30.7701C167.974 30.3692 167.866 29.9753 167.659 29.6317C167.453 29.288 167.155 29.0077 166.8 28.8213C166.444 28.6349 166.045 28.5498 165.644 28.575C165.243 28.6002 164.858 28.7348 164.528 28.9643C164.082 29.2713 163.485 29.482 162.702 29.6083L161.479 29.807L162.364 28.9342L168.177 23.2096C168.567 22.7764 168.798 22.2253 168.837 21.6446C168.837 21.4715 168.813 21.2993 168.764 21.1329L168.466 20.3113L169.28 20.6274C170.069 20.9343 170.955 21.0969 171.85 21.0998C172.218 21.1059 174.125 21.0969 175.764 20.0706L176.623 19.5318L176.358 20.507L176.307 20.6876C176.207 21.1119 176.156 21.5423 176.156 21.9697C176.156 24.5851 177.693 26.2676 178.714 27.3871C179.516 28.263 179.901 28.7355 179.932 29.2622L179.962 29.6896L179.531 29.6806C178.862 29.6685 178.609 29.5361 178.262 29.2261C177.947 28.9428 177.555 28.7566 177.137 28.6902C176.718 28.6237 176.288 28.6798 175.9 28.8516C175.513 29.0234 175.183 29.3035 174.951 29.6584C174.718 30.0132 174.594 30.4275 174.592 30.8514V32.4164C174.592 33.1538 174.957 33.834 175.571 34.2433C176.704 34.9957 177.994 35.3509 179.63 35.3509C181.222 35.3437 182.747 34.7059 183.869 33.5774C184.991 32.4488 185.619 30.9218 185.615 29.3315C185.615 26.5806 184.02 24.8259 182.963 23.6642" fill="white"></path>
<path d="M156.714 29.1763C156.121 28.2734 155.781 27.1959 155.781 26.0944C155.781 23.0455 158.206 20.5685 161.186 20.5685C162.163 20.5685 163.244 20.9898 164.278 21.7363L156.714 29.1763ZM126.29 5.95026C126.29 5.82385 126.311 5.23094 126.7 4.90288C126.98 4.6621 127.415 4.60191 127.987 4.7223C128.004 4.7223 128.634 4.90288 128.634 5.93521C128.634 6.0255 128.628 6.12784 128.616 6.23619C128.616 6.27833 128.484 8.72826 126.29 17.4324V5.95026ZM70.3891 29.1793C69.7925 28.2764 69.4551 27.1989 69.4551 26.0974C69.4551 23.0485 71.8807 20.5715 74.8638 20.5715C75.8373 20.5715 76.9188 20.9929 77.952 21.7393L70.3891 29.1793ZM161.186 18.7055C157.155 18.7055 153.87 22.0222 153.87 26.0974C153.87 27.8129 154.455 29.396 155.431 30.6541C154.809 31.204 154.021 31.5313 153.192 31.5841H148.793C147.352 31.5841 146.822 30.4314 146.804 29.3268V19.3917C146.804 19.3084 146.772 19.2285 146.713 19.1693C146.654 19.1101 146.574 19.0764 146.491 19.0757H145.25C145.165 19.0757 145.085 19.109 145.025 19.1683C144.967 19.2275 144.933 19.3079 144.933 19.3917V29.2636L144.936 29.3298C144.918 30.4314 144.388 31.5841 142.947 31.5841H138.208C136.771 31.5841 136.258 30.3351 136.258 29.2666V24.8153C136.258 21.0441 134.007 18.6995 130.382 18.6995C129.322 18.6995 128.333 19.0486 127.495 19.6686C130.388 8.77338 130.612 6.66053 130.621 6.57627C130.665 6.28736 130.686 6.01648 130.686 5.75764C130.686 4.9089 130.451 4.21064 129.988 3.68093C129.093 2.65762 127.683 2.66966 127.622 2.66966C126.619 2.64257 125.814 2.94054 125.251 3.5485C124.208 4.67113 124.377 6.43784 124.383 6.51305V23.4217L121.617 30.3561C121.511 30.7242 121.287 31.0473 120.98 31.2757C120.672 31.5041 120.298 31.6251 119.914 31.6202H112.713C109.609 31.6202 106.892 29.0348 106.892 26.0914C106.892 23.0425 109.32 20.5655 112.3 20.5655C112.972 20.5655 113.626 20.6979 114.24 20.8966C114.01 21.2113 113.884 21.5901 113.879 21.9801C113.879 23.0335 114.741 23.8973 115.801 23.8973C116.306 23.8909 116.786 23.6852 117.139 23.3253C117.491 22.9653 117.686 22.4805 117.682 21.9771C117.682 19.5903 114.382 18.6965 112.3 18.6965C108.314 18.6965 105.068 21.9349 104.987 25.9409H104.975V31.223C104.975 31.56 104.441 31.575 104.42 31.5781H99.9002C98.466 31.5781 97.9539 30.329 97.9539 29.2606V24.7761C97.9539 21.0019 95.7033 18.6573 92.0781 18.6573C90.415 18.6573 88.9567 19.4941 87.9862 20.9237V19.3887C87.9869 19.347 87.9786 19.3055 87.9628 19.2669C87.9476 19.2282 87.9242 19.1929 87.8948 19.1633C87.8653 19.1336 87.8306 19.1101 87.7913 19.094C87.7528 19.078 87.712 19.0697 87.6697 19.0697H86.3926C86.3088 19.0705 86.2295 19.1041 86.1706 19.1633C86.1116 19.2225 86.0792 19.3024 86.0792 19.3857V31.3433C86.0761 31.4246 86.061 31.5179 86.0036 31.5691C85.9372 31.6293 85.8231 31.6202 85.8231 31.6202L74.8638 31.6172C73.7549 31.6172 72.6611 31.2259 71.73 30.5337L80.5228 21.8747C80.5825 21.8147 80.6157 21.7336 80.6157 21.649C80.6157 21.5653 80.5817 21.4852 80.5228 21.4262C78.6332 19.5392 76.8886 18.6995 74.8638 18.6995C70.826 18.6995 67.5416 22.0131 67.5416 26.0914C67.5416 27.8069 68.1262 29.381 69.0995 30.6361C68.4759 31.1929 67.6833 31.5246 66.8486 31.5781H62.4643C60.9999 31.5781 60.4756 30.3802 60.4756 29.2606V24.8153C60.4756 21.0441 58.2217 18.6995 54.5999 18.6995C52.6112 18.6995 50.8605 19.9335 49.9535 21.9109C49.0585 19.8853 47.1301 18.6995 44.6321 18.6995C42.9749 18.6995 41.5135 19.5242 40.5402 20.9387V19.3857C40.5402 19.3024 40.5073 19.2225 40.4486 19.1633C40.3899 19.1041 40.3102 19.0705 40.2268 19.0697H38.9462C38.8628 19.0705 38.7831 19.1041 38.7244 19.1633C38.6657 19.2225 38.6328 19.3024 38.6328 19.3857V32.7971C38.6328 32.9716 38.7715 33.1131 38.9462 33.1131H40.2268C40.3102 33.1122 40.3899 33.0786 40.4486 33.0194C40.5073 32.9602 40.5402 32.8803 40.5402 32.7971V25.2305C40.5402 23.0305 42.2909 20.5655 44.6321 20.5655C47.1512 20.5655 48.6006 22.1185 48.6006 24.8182V32.8001C48.6006 32.9746 48.7392 33.1161 48.9139 33.1161H50.1916C50.2755 33.1161 50.3559 33.0827 50.4153 33.0235C50.4746 32.9642 50.5079 32.8839 50.5079 32.8001V25.2305C50.5079 23.0305 52.2556 20.5655 54.5999 20.5655C57.1852 20.5655 58.6074 22.0764 58.6074 24.8182V29.2606C58.6074 31.7497 60.1924 33.4862 62.4643 33.4862H67.2795C67.3669 33.4862 69.1537 33.426 70.4434 31.9814C71.6697 32.9234 73.2005 33.4862 74.8638 33.4862H86.5852C86.9598 33.4655 87.3125 33.3025 87.5708 33.0305C87.8291 32.7586 87.9733 32.3984 87.9741 32.0235C87.9809 31.9979 87.9839 31.9716 87.9831 31.9453V25.1493C87.9831 22.9673 89.7308 20.5264 92.0751 20.5264C94.5976 20.5264 96.0439 22.0764 96.0439 24.7791V29.2636C96.0439 31.7105 97.6647 33.4862 99.9002 33.4862H105.179C105.773 33.4862 106.888 33.1552 106.888 31.9212V30.8979C108.323 32.472 110.42 33.4862 112.71 33.4862H120.318C120.379 33.4893 122.234 33.5856 123.229 31.5992L124.38 28.6436V32.8001C124.38 32.9746 124.518 33.1161 124.693 33.1161H125.971C126.055 33.1161 126.135 33.0827 126.195 33.0235C126.254 32.9642 126.287 32.8839 126.287 32.8001V25.2305C126.287 23.0335 128.035 20.5685 130.379 20.5685C132.901 20.5685 134.345 22.1185 134.345 24.8182V29.2636C134.345 31.7105 135.969 33.4862 138.202 33.4862H143.11C143.128 33.4862 143.143 33.4802 143.161 33.4743C144.282 33.42 145.223 32.9325 145.867 32.1349C146.551 32.9836 147.57 33.4893 148.79 33.4893H153.617C153.705 33.4832 155.489 33.4291 156.775 31.9844C158.001 32.9264 159.529 33.4893 161.186 33.4893C163.115 33.4893 164.654 33.1642 165.905 32.5021C165.956 32.4755 165.999 32.4353 166.029 32.3858C166.058 32.3364 166.074 32.2799 166.073 32.2221V30.7836C166.073 30.726 166.058 30.6696 166.028 30.6204C165.999 30.5711 165.956 30.5308 165.905 30.5036C165.854 30.4779 165.797 30.4663 165.74 30.47C165.682 30.4737 165.627 30.4926 165.579 30.5247C164.507 31.2621 163.067 31.6202 161.186 31.6202C160.078 31.6202 158.987 31.2289 158.053 30.5367L166.845 21.8747C166.905 21.8159 166.94 21.736 166.941 21.652C166.941 21.5684 166.907 21.4884 166.848 21.4293C164.959 19.5422 163.214 18.7025 161.183 18.7025M181.568 24.9386C180.694 23.9755 179.941 23.1449 179.941 21.9801C179.941 21.2397 180.413 20.4752 181.092 20.12C181.243 20.0388 181.302 19.8492 181.224 19.6957L180.649 18.5821C180.609 18.5083 180.542 18.4532 180.462 18.4284C180.382 18.4036 180.295 18.4112 180.221 18.4496C179.57 18.7843 179.021 19.2896 178.635 19.9115C178.25 20.5334 178.04 21.2485 178.03 21.9801C178.03 23.8641 179.13 25.0681 180.101 26.1305C180.987 27.0966 181.818 28.0115 181.818 29.3449C181.818 30.5337 180.793 31.5781 179.624 31.5781C178.473 31.5781 177.756 31.3223 176.994 30.63C176.994 30.5775 176.98 30.526 176.955 30.48C176.929 30.4341 176.893 30.3951 176.849 30.3665C176.805 30.3381 176.754 30.3211 176.702 30.3169C176.65 30.3128 176.597 30.3218 176.549 30.3431C176.501 30.3643 176.459 30.3972 176.427 30.4387C176.395 30.4801 176.373 30.529 176.365 30.5808C176.357 30.6325 176.361 30.6856 176.378 30.7352C176.395 30.7848 176.425 30.8293 176.463 30.8648V32.4298C176.463 32.5352 176.521 32.6345 176.608 32.6917C177.434 33.2424 178.361 33.4862 179.624 33.4862C180.718 33.4807 181.766 33.0413 182.536 32.2648C183.306 31.4881 183.736 30.4379 183.731 29.3449C183.731 27.3163 182.58 26.0522 181.568 24.9386ZM145.744 11.422C145.786 11.4249 145.825 11.437 145.867 11.437C145.912 11.437 145.96 11.4249 146 11.422C146.411 11.3958 146.796 11.2133 147.076 10.9121C147.356 10.611 147.51 10.2139 147.506 9.80272C147.506 9.37031 147.333 8.95586 147.027 8.65011C146.721 8.34436 146.306 8.17222 145.873 8.17146H145.867C145.599 8.17244 145.335 8.23935 145.099 8.36624C144.862 8.49313 144.661 8.67614 144.512 8.8992C144.363 9.1222 144.271 9.37838 144.245 9.64505C144.219 9.9118 144.258 10.181 144.361 10.4288C144.474 10.7068 144.664 10.9473 144.908 11.1228C145.152 11.2984 145.444 11.4021 145.744 11.422Z" fill="#AA056C"></path>
<path d="M169.023 18.2297C170.476 16.9746 172.509 16.7098 172.509 16.7098C175.842 16.1078 176.737 15.5781 176.737 15.5781C177.349 15.0274 176.786 14.3803 176.786 14.3803C175.954 13.2547 175.993 12.4932 175.993 12.4932C175.993 12.4932 175.677 12.5233 174.158 13.0529C170.159 14.3772 168.93 16.2794 168.93 16.2794C168.93 16.2794 168.105 16.797 168.436 17.694C168.578 18.2749 169.023 18.2297 169.023 18.2297ZM173.498 5.52564C172.537 4.90263 171.796 4.92972 171.299 5.1103L171.371 5.09224C171.371 5.09224 171.991 4.95078 172.564 5.25777C172.962 5.46845 173.215 5.8206 173.333 6.22691C173.386 6.4045 173.41 6.58811 173.41 6.77768C173.41 7.29533 173.389 7.73777 173.124 8.18323C172.926 8.52029 172.506 8.99584 172.188 9.21861C171.256 10.0583 169.792 11.0786 169.174 11.7678C168.722 12.2734 167.767 13.372 168.158 14.2178L168.18 14.2568C169.162 12.9627 171.546 11.8491 171.546 11.8491C173.444 11.0665 174.022 9.91987 174.022 9.91987C175.61 7.18097 173.498 5.52564 173.498 5.52564Z" fill="white"></path>
<path d="M172.51 16.7126C172.51 16.7126 170.476 16.9774 169.023 18.2325H169.017C169.617 18.8368 170.375 19.2599 171.205 19.4534C172.034 19.6468 172.902 19.6028 173.707 19.3262C174.513 19.0497 175.223 18.5519 175.758 17.8899C176.293 17.2279 176.631 16.4287 176.731 15.5839C176.659 15.6261 175.701 16.1347 172.51 16.7126ZM171.066 6.9641C171.115 6.32303 171.723 6.50355 171.723 6.50355C172.29 6.7233 171.835 7.31624 171.835 7.31624C171.708 7.47571 171.392 7.76162 171.392 7.76162C171.022 7.29217 171.066 6.9641 171.066 6.9641ZM169.174 11.7706C169.792 11.0844 171.257 10.0611 172.188 9.22141C172.507 8.99864 172.926 8.52308 173.124 8.18603C173.393 7.73756 173.414 7.29813 173.411 6.78048C173.38 6.59385 173.386 6.4073 173.333 6.2297C173.276 6.02487 173.18 5.83348 173.047 5.66697C172.915 5.50046 172.751 5.36223 172.564 5.26057C171.992 4.95358 171.371 5.09503 171.371 5.09503C170.91 5.20037 170.56 5.61271 170.56 5.61271C169.581 6.95806 170.883 8.11678 170.883 8.11678C170.883 8.11678 167.038 11.5629 167.523 13.3266C167.604 13.6186 167.875 14.38 168.125 14.3259L168.18 14.2536L168.159 14.2175C167.767 13.3718 168.722 12.2732 169.174 11.7676" fill="#F46690"></path>
<path d="M165.056 17.7086C165.025 17.6911 164.995 17.673 164.965 17.6543L165.095 17.7388L165.056 17.7086Z" fill="white"></path>
<path d="M175.674 11.6794C174.505 10.9873 174.025 9.92188 174.025 9.92188C174.025 9.92188 173.504 10.9451 171.847 11.7155C171.748 11.7644 171.648 11.8096 171.546 11.8509C171.546 11.8509 169.165 12.9644 168.18 14.2585C168.03 14.4602 167.945 14.6016 167.945 14.6016C167.945 14.6016 166.966 16.0462 168.439 17.6773C168.228 16.8858 168.931 16.2809 168.931 16.2809C168.931 16.2809 170.497 14.7581 174.502 13.4339C176.017 12.9103 176.047 12.4889 176.047 12.4889C176.198 11.9623 175.674 11.6794 175.674 11.6794Z" fill="#C5CA07"></path>
<path d="M179.624 35.3506C177.991 35.3506 176.701 34.9985 175.568 34.246C175.266 34.0458 175.018 33.7737 174.848 33.4543C174.677 33.135 174.588 32.7782 174.589 32.4161V30.854C174.591 30.4305 174.715 30.0165 174.947 29.6618C175.178 29.3071 175.508 29.0269 175.895 28.8549C176.283 28.6828 176.712 28.6263 177.13 28.6921C177.549 28.7579 177.94 28.9433 178.256 29.2258C178.606 29.5388 178.859 29.6712 179.527 29.6832L179.955 29.6923L179.928 29.2649C179.898 28.7382 179.513 28.2657 178.711 27.3869C177.69 26.2702 176.15 24.5848 176.15 21.9693C176.153 21.476 176.221 20.9852 176.351 20.5096L176.616 19.5344L175.761 20.0702C174.122 21.0995 172.214 21.1086 171.847 21.0995C170.952 21.0995 170.069 20.937 169.274 20.627L168.463 20.314L168.758 21.1326C168.819 21.3012 168.831 21.563 168.831 21.6473C168.831 21.6503 168.794 22.5803 168.174 23.2124L162.358 28.9399L161.475 29.8067L162.699 29.611C163.482 29.4846 164.076 29.2709 164.525 28.9639C164.854 28.7356 165.24 28.6018 165.64 28.5773C166.041 28.5526 166.439 28.638 166.794 28.8241C167.15 29.0103 167.447 29.2901 167.654 29.6331C167.861 29.9762 167.97 30.3693 167.969 30.7698V32.2145C167.969 33.0271 167.517 33.7705 166.8 34.1497C165.272 34.9593 163.44 35.3536 161.201 35.3536C159.8 35.3536 158.438 35.0256 157.151 34.3875L156.959 34.2882L156.772 34.4025C155.831 34.9639 154.768 35.2892 153.674 35.3506H148.807C147.854 35.3517 146.917 35.1125 146.081 34.6553L145.894 34.553L145.704 34.6553C145.077 34.9881 144.392 35.1985 143.685 35.2753H143.664L143.643 35.2814L143.342 35.3506H138.229C134.956 35.3506 132.488 32.7291 132.488 29.2498V24.8075C132.488 22.7248 131.488 22.4388 130.403 22.4388C129.216 22.4388 128.198 23.9678 128.198 25.2198V32.7863C128.198 33.0748 128.14 33.3605 128.03 33.6271C127.92 33.8936 127.757 34.1358 127.553 34.3399C127.349 34.5439 127.106 34.7057 126.84 34.8161C126.573 34.9266 126.287 34.9834 125.998 34.9834H124.723C124.27 34.982 123.829 34.84 123.461 34.5771L123.25 34.4266L123.023 34.565C122.23 35.0735 121.307 35.345 120.363 35.3476L120.194 35.3446V35.3506H112.743C111.186 35.3428 109.654 34.9629 108.274 34.243L108.021 34.1106L107.816 34.3092C107.116 34.9774 106.184 35.3504 105.215 35.3506H99.9332C96.6645 35.3506 94.1963 32.7291 94.1963 29.2498V24.7654C94.1963 22.6857 93.1956 22.3967 92.1111 22.3967C90.9238 22.3967 89.9058 23.9046 89.9058 25.1356V31.9074L89.8423 32.4282C89.7509 33.2095 89.3839 33.9327 88.8069 34.4678C88.2299 35.0029 87.4799 35.3149 86.6937 35.3476H74.9028C73.4937 35.3468 72.1046 35.0158 70.8469 34.3815L70.654 34.2821L70.4642 34.3965C69.5225 34.9614 68.4573 35.2888 67.3606 35.3506H62.5093C59.1857 35.3506 56.7722 32.7833 56.7722 29.2498V24.8075C56.7722 22.6194 55.6753 22.4388 54.6478 22.4388C53.4576 22.4388 52.4392 23.9678 52.4392 25.2198V32.7863C52.4392 33.0748 52.3822 33.3605 52.2717 33.6271C52.1612 33.8936 51.9992 34.1358 51.7949 34.3399C51.5907 34.5439 51.3482 34.7057 51.0812 34.8161C50.8144 34.9266 50.5283 34.9834 50.2395 34.9834H48.9649C48.3821 34.9826 47.8233 34.7507 47.4115 34.3388C46.9996 33.9269 46.7683 33.3685 46.7683 32.7863V24.8075C46.7683 22.7248 45.7679 22.4388 44.6861 22.4388C43.4929 22.4388 42.4745 23.9678 42.4745 25.2198V32.7863C42.4745 33.3685 42.2431 33.9269 41.8313 34.3388C41.4194 34.7507 40.8606 34.9826 40.2778 34.9834H39.0032C38.7144 34.9834 38.4283 34.9266 38.1615 34.8161C37.8946 34.7057 37.6521 34.5439 37.4478 34.3399C37.2436 34.1358 37.0815 33.8936 36.971 33.6271C36.8605 33.3605 36.8036 33.0748 36.8036 32.7863V19.381C36.8036 18.7982 37.0353 18.2394 37.4478 17.8274C37.8603 17.4153 38.4198 17.1839 39.0032 17.1839H40.2808C40.6575 17.1839 41.0311 17.2892 41.3806 17.4939L41.5645 17.5992L41.7543 17.5059C42.6884 17.0484 43.6707 16.8136 44.6861 16.8136C46.6206 16.8136 48.3623 17.4036 49.7242 18.5141L49.9833 18.7248L50.2365 18.5052C51.5021 17.4005 53.0267 16.8136 54.6478 16.8136C59.2882 16.8136 62.4038 20.0281 62.4038 24.8075V29.2709L62.4069 29.31L62.425 29.6863H66.4174L66.2336 29.1596C65.8861 28.1702 65.7088 27.1292 65.7093 26.0807C65.7093 20.9731 69.8344 16.8136 74.9058 16.8136C77.4366 16.8136 79.6548 17.855 81.8934 20.0912C82.0988 20.2958 82.2612 20.539 82.3722 20.8068C82.4825 21.0746 82.5391 21.3616 82.5383 21.6513C82.5368 21.941 82.4787 22.2276 82.3654 22.4945C82.2529 22.7614 82.0882 23.0033 81.8813 23.2063L75.945 29.0512L75.2585 29.7284H84.2346V19.381C84.2346 18.7982 84.4665 18.2394 84.8788 17.8274C85.2912 17.4153 85.8508 17.1839 86.4339 17.1839H87.7088C88.0856 17.1864 88.4557 17.2871 88.7812 17.4758L88.9625 17.5781L89.152 17.4878C90.0893 17.0123 91.087 16.7746 92.1171 16.7746C96.7543 16.7746 99.8735 19.9859 99.8735 24.7683V29.31L99.8909 29.6863H103.124V26.0205C103.136 25.9904 103.136 25.9181 103.136 25.9181V25.894C103.239 20.8828 107.364 16.8107 112.33 16.8107C115.94 16.8107 119.592 18.5804 119.592 21.9633C119.592 24.0581 117.904 25.7646 115.831 25.7646C114.97 25.7596 114.136 25.4645 113.463 24.9271C112.791 24.3897 112.319 23.6412 112.125 22.8031L112.044 22.4269L111.664 22.5021C110.007 22.8332 108.804 24.338 108.804 26.0776C108.804 27.9857 110.682 29.7224 112.743 29.7224H119.866L119.962 29.4756L121.548 25.5027L122.499 23.116L122.529 23.0468V6.58962C122.52 6.46621 122.511 6.3308 122.511 6.14419C122.511 5.25331 122.693 3.56485 123.897 2.27067C124.542 1.57542 125.711 0.756776 127.64 0.789886H127.706H127.692C128.228 0.795905 130.095 0.919305 131.428 2.44223C132.187 3.30902 132.588 4.45874 132.588 5.75293L132.497 6.87855L132.503 6.86354C132.431 7.4263 132.076 9.55122 130.334 16.3351L130.213 16.8107L130.704 16.8257C135.233 16.9641 138.159 20.0943 138.159 24.8045V29.2709L138.165 29.307L138.174 29.6863H143.068V19.378C143.068 18.7952 143.299 18.2364 143.712 17.8243C144.124 17.4123 144.684 17.1809 145.267 17.1809H146.509C147.092 17.1816 147.65 17.4135 148.062 17.8254C148.474 18.2374 148.706 18.7958 148.706 19.378V29.6863H152.713L152.529 29.1596C152.192 28.1995 152.004 26.0686 152.004 26.0475C152.004 20.9701 156.13 16.8136 161.201 16.8136C162.647 16.8136 163.98 17.1508 165.263 17.843L165.239 17.828L165.242 17.825L165.826 18.1861L166.824 18.8151L166.402 17.7136C166.321 17.4939 166.118 16.8257 166.185 16.4104L166.191 16.3803V16.3471C166.191 15.7513 166.294 15.2064 166.556 14.5895L166.631 14.3999L166.616 14.3548L166.486 14.0267C166.208 13.3602 166.074 12.642 166.094 11.9199C166.118 11.041 167.201 9.80099 168.695 8.08547L168.755 8.01622L168.885 7.86572L168.846 7.67615C168.843 7.66106 168.508 5.99069 169.388 4.7868C169.909 4.07049 170.765 3.64912 171.934 3.52271C171.943 3.52271 173.592 3.40233 174.676 4.56408C175.592 5.54225 175.885 7.14341 175.55 9.32845L175.526 9.50905L175.641 9.64453L175.951 9.99962C176.939 11.1102 178.289 12.6272 178.117 15.6519L178.114 15.8084V15.9018C178.114 15.8686 177.994 16.8679 177.994 16.8679L177.879 17.7888L178.624 17.232L178.807 17.0936C178.988 16.9732 179.169 16.8679 179.356 16.7715C179.872 16.506 180.476 16.4554 181.03 16.6308C181.584 16.8062 182.046 17.1932 182.315 17.7076L182.893 18.8212C183.149 19.3195 183.204 19.8969 183.047 20.4344C182.889 20.9719 182.531 21.4287 182.047 21.7105L181.794 21.861L181.863 22.1439C181.953 22.5352 182.375 23.0167 182.96 23.6608C184.017 24.8256 185.611 26.5803 185.611 29.3311C185.611 32.6478 182.924 35.3506 179.624 35.3506ZM165.055 17.7046L165.094 17.7347L164.964 17.6504L165.055 17.7046ZM183.55 23.1341C183.333 22.8934 182.948 22.472 182.751 22.1861C183.115 21.9083 183.411 21.5509 183.615 21.1412C183.818 20.7316 183.925 20.2808 183.926 19.8234C183.926 19.3471 183.813 18.8778 183.596 18.4539L183.017 17.3434C182.652 16.6428 182.022 16.1154 181.269 15.8768C180.515 15.6381 179.697 15.7077 178.994 16.0703L178.88 16.1275L178.901 15.962L178.904 15.8115L178.907 15.6971C179.097 12.3472 177.56 10.6196 176.545 9.47593L176.354 9.25927C176.68 6.91468 176.312 5.14797 175.249 4.01632C173.893 2.57466 171.94 2.73116 171.859 2.74019C170.448 2.88767 169.403 3.42038 168.746 4.32632C167.848 5.5603 167.963 7.09528 168.038 7.637C166.411 9.50301 165.335 10.7521 165.302 11.9018V12.0643C165.302 12.8619 165.47 13.6595 165.793 14.3758C165.537 15.0349 165.402 15.6911 165.402 16.3351C165.375 16.5685 165.381 16.8047 165.42 17.0364C164.116 16.3637 162.669 16.0157 161.201 16.0222C155.693 16.0222 151.212 20.5367 151.212 26.0807C151.221 26.189 151.363 27.7751 151.634 28.8947H149.495V19.378C149.494 18.5869 149.179 17.8284 148.619 17.2688C148.06 16.7091 147.301 16.3939 146.509 16.3923H145.267C144.475 16.3939 143.716 16.7091 143.157 17.2688C142.597 17.8284 142.282 18.5869 142.281 19.378V28.8947H138.952V24.8015C138.952 19.8806 135.863 16.4344 131.216 16.0733C133.003 9.08471 133.266 7.22466 133.302 6.81835H133.298L133.377 5.78603C133.38 4.26311 132.91 2.93582 132.021 1.92154C130.484 0.163862 128.345 0.00735204 127.706 0.00133969H127.646C125.434 -0.0407996 124.069 0.919306 123.316 1.73193C121.93 3.22776 121.719 5.13894 121.719 6.14419C121.719 6.35486 121.728 6.50536 121.737 6.61671V22.8963L120.812 25.2138L119.326 28.9369H112.743C111.097 28.9369 109.597 27.5764 109.597 26.0776C109.597 24.8436 110.368 23.7662 111.468 23.3839C111.795 24.4286 112.487 25.3209 113.418 25.8977C114.349 26.4746 115.457 26.6973 116.54 26.5253C117.622 26.3532 118.606 25.7978 119.311 24.9607C120.017 24.1237 120.398 23.0607 120.384 21.9663C120.384 18.0657 116.331 16.0222 112.33 16.0222C106.963 16.0222 102.507 20.4013 102.356 25.7947L102.335 25.8308V28.8947H100.663V24.7654C100.663 19.5104 97.2279 15.98 92.1171 15.98C91.0326 15.98 89.9775 16.2268 88.9836 16.6963C88.5886 16.4994 88.1536 16.3955 87.7118 16.3923H86.4339C85.6424 16.3939 84.8834 16.7091 84.3237 17.2688C83.7634 17.8284 83.4492 18.5869 83.4484 19.378V28.9369H77.1897L82.4386 23.7662C83.0028 23.206 83.3215 22.445 83.3246 21.6504C83.3276 20.8558 83.0141 20.0925 82.4538 19.5285C80.0611 17.1357 77.6625 16.0222 74.9088 16.0222C69.4005 16.0222 64.9199 20.5367 64.9199 26.0807C64.9199 27.0347 65.0645 27.9768 65.3297 28.8947H63.1963V24.8015C63.1963 19.5525 59.7613 16.0222 54.6508 16.0222C52.9694 16.0222 51.3213 16.6241 49.9683 17.7076C48.5069 16.609 46.693 16.0222 44.6891 16.0222C43.6195 16.0222 42.5799 16.2629 41.5976 16.7144C41.1909 16.5059 40.7409 16.3956 40.2839 16.3923H39.0062C38.2137 16.3931 37.4539 16.708 36.8935 17.2677C36.3331 17.8274 36.0179 18.5863 36.0171 19.378V32.7833C36.0171 34.4296 37.358 35.7689 39.0062 35.7689H40.2839C41.0758 35.7673 41.8349 35.4522 42.3946 34.8925C42.9544 34.3329 43.2691 33.5744 43.27 32.7833V25.2168C43.27 24.323 44.0534 23.2244 44.6861 23.2244C45.3792 23.2244 45.9818 23.2244 45.9818 24.8045V32.7833C45.9818 34.4296 47.3227 35.7689 48.9709 35.7689H50.2456C51.038 35.7682 51.7979 35.4534 52.3583 34.8936C52.9187 34.3338 53.2338 33.5749 53.2346 32.7833V25.2168C53.2346 24.323 54.0181 23.2244 54.6508 23.2244C55.4554 23.2244 55.9857 23.2244 55.9857 24.8045V29.2468C55.9857 33.2408 58.7308 36.1392 62.5153 36.1392H67.3515C68.5233 36.0793 69.6652 35.7486 70.6872 35.173C72.031 35.8111 73.4503 36.1361 74.9058 36.1361H86.7262C87.7004 36.0983 88.6294 35.7144 89.3454 35.0533C90.0614 34.3923 90.5175 33.4976 90.6316 32.5305L90.698 31.9767L90.701 31.9526V25.1326C90.701 24.2387 91.4691 23.1853 92.1171 23.1853C92.8135 23.1853 93.4131 23.1853 93.4131 24.7654V29.2498C93.4131 33.1745 96.2212 36.1361 99.9423 36.1361H105.218C106.304 36.1361 107.355 35.7448 108.159 35.0587C109.606 35.7629 111.182 36.1361 112.746 36.1361H120.33C120.839 36.1512 121.981 36.0729 123.235 35.3536C123.689 35.6214 124.199 35.7689 124.726 35.7689H126.004C126.797 35.7682 127.556 35.4534 128.117 34.8936C128.677 34.3338 128.992 33.5749 128.993 32.7833V25.2168C128.993 24.323 129.773 23.2244 130.409 23.2244C131.102 23.2244 131.702 23.2244 131.702 24.8045V29.2468C131.702 33.1746 134.507 36.1392 138.232 36.1392H143.432L143.475 36.1241L143.815 36.0489C144.568 35.9555 145.271 35.7479 145.9 35.4319C146.819 35.8923 147.792 36.1361 148.811 36.1361H153.662C154.831 36.0771 155.971 35.7485 156.991 35.1761C158.333 35.8081 159.749 36.1361 161.204 36.1361C163.576 36.1361 165.528 35.7147 167.174 34.8419C167.653 34.5884 168.055 34.2089 168.334 33.7443C168.615 33.2796 168.762 32.7476 168.761 32.2054V30.7667C168.762 30.2338 168.619 29.7104 168.348 29.2513C168.077 28.7922 167.687 28.4142 167.22 28.1565C166.753 27.8989 166.225 27.7712 165.692 27.7867C165.158 27.8022 164.639 27.9603 164.187 28.2446L168.737 23.7631C169.587 22.8993 169.623 21.7075 169.626 21.6563V21.566C170.334 21.7707 171.087 21.879 171.841 21.882C172.185 21.8911 173.805 21.882 175.421 21.1416C175.384 21.413 175.364 21.6864 175.363 21.9603C175.363 24.8798 177.03 26.7036 178.129 27.9105C178.35 28.1513 178.551 28.374 178.711 28.5726C178.277 28.2053 177.746 27.9695 177.183 27.8933C176.619 27.817 176.045 27.9034 175.529 28.1423C175.012 28.3811 174.575 28.7625 174.269 29.2414C173.962 29.7203 173.799 30.2767 173.799 30.845V32.4101C173.799 32.9018 173.922 33.3859 174.154 33.8192C174.387 34.2525 174.724 34.6214 175.134 34.8931C176.4 35.7388 177.831 36.1331 179.627 36.1331C181.43 36.1267 183.155 35.4063 184.426 34.1299C185.698 32.8535 186.41 31.1254 186.407 29.3251C186.407 26.2702 184.689 24.3801 183.553 23.1281" fill="#C5CA07"></path>
<path d="M145.867 6.45845C147.729 6.45845 149.245 7.97233 149.245 9.83238C149.208 10.7026 148.837 11.5248 148.207 12.1276C147.578 12.7302 146.739 13.0668 145.867 13.0668C144.995 13.0668 144.157 12.7302 143.528 12.1276C142.898 11.5248 142.527 10.7026 142.49 9.83238C142.49 7.97233 144.005 6.45845 145.867 6.45845ZM145.867 13.9948C148.167 13.9948 150.037 12.1288 150.037 9.83238C149.997 8.75499 149.539 7.73545 148.762 6.98772C147.984 6.23998 146.947 5.82227 145.867 5.82227C144.788 5.82227 143.751 6.23998 142.973 6.98772C142.196 7.73545 141.738 8.75499 141.697 9.83238C141.697 12.1288 143.568 13.9948 145.867 13.9948ZM185.795 19.1926V19.5538H186.073C186.178 19.5538 186.248 19.5357 186.283 19.5086C186.316 19.4785 186.335 19.4334 186.335 19.3702C186.335 19.304 186.32 19.2588 186.283 19.2317C186.254 19.2046 186.181 19.1926 186.073 19.1926H185.795ZM185.464 18.9037H186.13C186.271 18.9037 186.374 18.9187 186.44 18.9488C186.507 18.9789 186.56 19.0301 186.6 19.0993C186.639 19.1656 186.66 19.2468 186.66 19.3401C186.662 19.4075 186.649 19.4744 186.621 19.5357C186.588 19.5968 186.541 19.6486 186.483 19.6862C186.53 19.7094 186.57 19.746 186.597 19.7915C186.618 19.8307 186.627 19.8999 186.636 19.9962C186.636 20.106 186.644 20.2157 186.66 20.3243C186.669 20.3544 186.69 20.3845 186.721 20.4116H186.347C186.332 20.3787 186.321 20.3444 186.313 20.3092C186.307 20.2792 186.307 20.234 186.304 20.1677C186.306 20.085 186.298 20.0023 186.283 19.921C186.273 19.891 186.253 19.8654 186.227 19.8487C186.175 19.8303 186.119 19.8231 186.063 19.8277H185.798V20.4116H185.467L185.464 18.9037ZM187.131 19.6561C187.132 19.5123 187.105 19.3695 187.051 19.2365C186.995 19.1035 186.914 18.9832 186.811 18.8826C186.711 18.7789 186.591 18.6968 186.457 18.6413C186.324 18.586 186.181 18.5585 186.036 18.5606C185.735 18.5606 185.473 18.669 185.259 18.8796C185.155 18.979 185.073 19.0987 185.017 19.2313C184.962 19.3638 184.934 19.5064 184.937 19.6501C184.935 19.841 184.985 20.0288 185.082 20.1935C185.178 20.3583 185.318 20.4939 185.485 20.5861C185.65 20.6833 185.838 20.7355 186.029 20.7374C186.221 20.7393 186.409 20.6907 186.576 20.5968C186.742 20.5029 186.881 20.3668 186.979 20.2022C187.076 20.0376 187.128 19.8473 187.131 19.6561ZM187.414 19.6561C187.415 19.8978 187.352 20.1354 187.23 20.3444C187.11 20.5535 186.934 20.7263 186.724 20.8449C186.514 20.9684 186.276 21.0335 186.033 21.0335C185.791 21.0335 185.552 20.9684 185.344 20.8449C185.134 20.7255 184.96 20.5519 184.84 20.3423C184.716 20.1338 184.652 19.8956 184.653 19.6531C184.653 19.4063 184.714 19.1776 184.84 18.9669C184.959 18.7577 185.132 18.5842 185.341 18.4643C185.551 18.3407 185.79 18.2762 186.033 18.2777C186.215 18.2761 186.395 18.3106 186.563 18.3793C186.732 18.448 186.884 18.5495 187.013 18.6779C187.141 18.8062 187.243 18.9587 187.312 19.1267C187.381 19.2947 187.415 19.4746 187.414 19.6561Z" fill="#C5CA07"></path>
<path d="M143.761 44.8424V45.4202C143.761 45.7945 143.669 46.1629 143.491 46.4926C143.314 46.8225 143.058 47.1033 142.746 47.3103C142.098 47.7339 141.336 47.9512 140.561 47.9334C139.558 47.9334 138.66 47.5421 138.006 46.8408C137.801 47.1366 137.528 47.3784 137.21 47.5456C136.891 47.7128 136.537 47.8004 136.177 47.8009H135.722C135.214 47.8004 134.722 47.6285 134.324 47.3133C133.478 47.7448 132.537 47.957 131.588 47.9303C130.985 47.9303 130.409 47.819 129.855 47.6023C129.598 48.5239 129.083 49.353 128.37 49.9914C127.657 50.6298 126.775 51.0509 125.83 51.2049C125.234 51.3034 124.623 51.162 124.131 50.8117C123.639 50.4614 123.306 49.9308 123.205 49.3359L123.127 48.8904C123.032 48.324 123.157 47.7428 123.476 47.2652C122.969 47.2537 122.48 47.0736 122.087 46.7535C121.214 47.518 120.107 47.9303 118.941 47.9303C117.399 47.9303 115.98 47.1749 115.094 45.971C114.989 46.4862 114.709 46.9494 114.302 47.2823C113.894 47.6152 113.384 47.7973 112.858 47.7979H112.403C112.09 47.7976 111.781 47.7333 111.494 47.609C111.208 47.4848 110.95 47.3033 110.736 47.0756C110.345 48.8031 109.007 50.2478 107.322 50.624C106.739 50.7554 106.127 50.6523 105.618 50.337C105.109 50.0218 104.745 49.5195 104.604 48.9386L104.496 48.5172C104.356 47.9241 104.457 47.2998 104.776 46.7806C105.029 46.3758 105.407 46.0633 105.852 45.8898V43.4338C105.249 43.4306 104.671 43.1892 104.245 42.7624C103.82 42.3356 103.581 41.7579 103.58 41.1555V40.713C103.58 39.458 104.601 38.4407 105.852 38.4347V38.0915C105.852 35.5212 107.657 33.6582 110.142 33.6582C111.077 33.6582 111.885 33.8689 112.611 34.3053C112.947 34.5086 113.227 34.795 113.421 35.1372C113.615 35.4792 113.718 35.8654 113.719 36.2586V36.8064C113.717 37.1175 113.648 37.4244 113.518 37.7071C113.388 37.9898 113.2 38.2418 112.966 38.4467C113.077 38.4557 113.183 38.4828 113.268 38.5069C113.677 38.3714 114.063 38.3022 114.44 38.3022C115.163 38.3022 115.862 38.5701 116.398 39.0456C117.178 38.5477 118.085 38.2889 119.011 38.3013C119.936 38.3136 120.837 38.5964 121.602 39.1148C121.813 38.8997 122.066 38.7288 122.344 38.612C122.622 38.4952 122.921 38.4349 123.223 38.4347H127.426C128.017 38.4347 128.575 38.6724 128.999 39.0727C129.769 38.5701 130.669 38.3023 131.588 38.3022C132.495 38.3022 133.347 38.5671 134.143 39.0818C134.566 38.6698 135.131 38.4378 135.722 38.4347H136.174C136.328 38.4347 136.461 38.4678 136.562 38.5009C136.979 38.3594 137.367 38.2902 137.756 38.2902C140.269 38.2902 142.029 40.0809 142.032 42.6392C142.12 42.6545 142.207 42.6797 142.291 42.7144C142.722 42.8794 143.092 43.1706 143.355 43.5498C143.617 43.9289 143.759 44.3815 143.761 44.8424ZM184.304 43.0245C184.587 43.2363 184.817 43.5107 184.975 43.8261C185.135 44.1414 185.218 44.4893 185.22 44.8424V45.4202C185.221 45.7943 185.129 46.1628 184.952 46.4926C184.775 46.8225 184.52 47.1034 184.207 47.3103C183.565 47.7323 182.81 47.9496 182.041 47.9334C180.019 47.9334 178.488 46.3563 178.488 44.2555V43.5391C178.197 43.7316 177.872 43.8683 177.53 43.9424V45.5225C177.529 46.126 177.289 46.7046 176.862 47.1317C176.436 47.5587 175.856 47.7993 175.252 47.8009H174.801C174.447 47.7991 174.099 47.7146 173.785 47.5541C173.246 47.8069 172.657 47.9364 172.061 47.9334C171.57 47.9334 171.097 47.822 170.639 47.6204C170.189 47.8174 169.705 47.9238 169.214 47.9334C168.403 47.9334 167.656 47.7377 167.008 47.3705C166.535 48.9898 165.26 50.2629 163.679 50.624C163.094 50.7573 162.481 50.6554 161.971 50.3406C161.461 50.0258 161.097 49.5233 160.955 48.9416L160.849 48.5142C160.775 48.2293 160.761 47.9318 160.81 47.6414C160.166 47.4123 159.579 47.0468 159.089 46.57C158.195 47.4418 156.995 47.9309 155.745 47.9334C154.899 47.9333 154.07 47.7056 153.343 47.2743C152.891 48.9266 151.584 50.2659 149.983 50.624C149.399 50.7555 148.788 50.653 148.279 50.3384C147.77 50.0237 147.405 49.5222 147.263 48.9416L147.16 48.5172C147.075 48.1719 147.078 47.8107 147.169 47.4668C145.759 46.7595 144.931 45.3329 144.931 43.5753V40.716C144.931 39.455 145.952 38.4347 147.208 38.4347H147.666C148.248 38.4347 148.802 38.6755 149.224 39.0907C149.636 38.6762 150.195 38.4404 150.779 38.4347H151.237C151.9 38.4347 152.515 38.7326 152.942 39.2202C153.852 38.5555 154.968 38.2351 156.091 38.3162C157.215 38.3972 158.274 38.8744 159.077 39.6626C159.969 38.7958 161.156 38.3052 162.398 38.3052C162.841 38.3052 163.302 38.3895 163.799 38.549C164.013 38.4765 164.238 38.4379 164.465 38.4347H164.923C165.328 38.4383 165.726 38.5495 166.074 38.7567C166.42 38.5482 166.815 38.4369 167.219 38.4347H167.677C168.262 38.4347 168.813 38.6755 169.235 39.0907C169.647 38.6749 170.207 38.439 170.793 38.4347H171.251C171.593 38.4351 171.93 38.5131 172.237 38.6627C172.545 38.8124 172.814 39.0297 173.026 39.2984C173.236 39.0299 173.505 38.8127 173.812 38.6631C174.119 38.5134 174.455 38.4353 174.798 38.4347H175.249C175.412 38.4347 175.551 38.4768 175.662 38.5038C176.069 38.3714 176.452 38.3052 176.831 38.3052C177.277 38.3052 177.717 38.4106 178.115 38.6062C178.236 38.5575 178.361 38.5192 178.488 38.4918V36.8455C178.488 35.5874 179.513 34.5671 180.769 34.5671H181.21C182.466 34.5671 183.49 35.5905 183.49 36.8455V38.4949C184.536 38.7056 185.308 39.6205 185.308 40.716V41.1555C185.306 41.5248 185.214 41.8881 185.039 42.2135C184.864 42.5389 184.611 42.8164 184.304 43.0215" fill="#AA056C"></path>
<path d="M111.583 36.0168C111.146 35.7647 110.647 35.6397 110.142 35.6557C108.772 35.6557 107.849 36.6308 107.849 38.0905V40.4291H105.578V41.4373H107.849V46.0332C107.849 46.7044 107.368 47.541 106.65 47.7036L106.373 47.7638L106.439 48.0467L106.542 48.474L106.609 48.7449L106.88 48.6847C108.01 48.4289 108.862 47.2882 108.862 46.0332V41.4373H111.058V40.432H108.859V38.0905C108.859 37.3983 109.197 36.6578 110.142 36.6578C110.628 36.6578 110.92 36.7542 111.264 37.0281L111.722 37.3832V36.0981L111.583 36.0168ZM114.44 40.2966C113.956 40.3001 113.491 40.4849 113.138 40.8143V40.432H112.114V45.8014H113.138V42.8067C113.138 42.3101 113.379 41.8436 113.765 41.5607C113.804 41.639 113.849 41.7112 113.906 41.7745C114.024 41.897 114.177 41.9812 114.344 42.0162C114.511 42.051 114.684 42.0349 114.842 41.9701C114.999 41.9051 115.134 41.7944 115.227 41.6521C115.322 41.5099 115.37 41.3427 115.368 41.1725C115.368 40.6819 114.958 40.2966 114.44 40.2966ZM120.722 43.1198C120.722 44.1009 119.908 44.9256 118.938 44.9256C118.465 44.9185 118.014 44.7246 117.683 44.3862C117.352 44.0479 117.168 43.5926 117.172 43.1198C117.171 42.8329 117.239 42.5499 117.37 42.2949C117.501 42.0398 117.693 41.8202 117.927 41.6548C118.162 41.4893 118.433 41.3829 118.717 41.3445C119.002 41.3061 119.292 41.3369 119.562 41.4343C119.494 41.5557 119.458 41.6924 119.457 41.8316C119.457 42.3011 119.848 42.6984 120.316 42.6984C120.43 42.695 120.544 42.6663 120.647 42.6141C120.695 42.7784 120.72 42.9486 120.722 43.1198ZM118.938 40.2966C118.194 40.3022 117.482 40.6026 116.958 41.1319C116.436 41.6611 116.144 42.3761 116.148 43.1198C116.148 44.6758 117.399 45.9338 118.938 45.9338C119.684 45.9323 120.399 45.635 120.926 45.1073C121.452 44.5797 121.747 43.8648 121.747 43.1198C121.747 42.7502 121.676 42.3841 121.535 42.0422C121.395 41.7003 121.189 41.3894 120.928 41.1273C120.667 40.8651 120.357 40.6568 120.016 40.5143C119.674 40.3718 119.308 40.2978 118.938 40.2966ZM125.345 43.5742L126.561 42.3583L127.629 41.2959L127.712 41.2116V40.4351H122.937V41.4403H126.049L123.006 44.4681L122.81 44.6698L123.006 44.8745L123.331 45.1905L123.537 45.3951L123.732 45.1875C124.148 44.7661 124.618 44.5825 125.305 44.5825C126.324 44.5825 127.014 45.2808 127.014 46.3191C127.014 47.2973 126.333 48.0647 125.327 48.2393L125.052 48.2875L125.097 48.5643L125.169 49.0068L125.218 49.2837L125.501 49.2385C126.996 48.9857 128.032 47.7879 128.032 46.3191C128.042 45.9613 127.979 45.6053 127.848 45.2723C127.717 44.9391 127.52 44.6357 127.269 44.3801C127.018 44.1243 126.719 43.9215 126.388 43.7836C126.058 43.6457 125.703 43.5755 125.345 43.5773M129.819 43.1198C129.819 42.1206 130.612 41.3049 131.588 41.3049C131.904 41.3049 132.202 41.4373 132.431 41.5757L130.021 43.9535C129.89 43.695 129.82 43.4096 129.819 43.1198ZM133.938 41.5216L133.736 41.323C133.257 40.8474 132.582 40.2997 131.588 40.2997C130.843 40.3044 130.131 40.604 129.607 41.1327C129.084 41.6614 128.792 42.3761 128.795 43.1198C128.795 44.6758 130.048 45.9338 131.588 45.9338C132.302 45.9338 132.884 45.8134 133.356 45.5637L133.507 45.4854V44.2604L133.067 44.5644C132.714 44.8052 132.214 44.9256 131.591 44.9256C131.286 44.9266 130.987 44.8444 130.726 44.6878L133.739 41.7262L133.938 41.5216ZM141.266 44.6608C141.098 44.8473 140.904 44.9135 140.561 44.9135C140.067 44.9135 140.03 44.4109 140.03 44.2514V42.6442C140.03 41.2116 139.136 40.2846 137.756 40.2846C137.272 40.2821 136.807 40.469 136.46 40.8053V40.432H135.436V45.8014H136.46V42.7797C136.46 42.0935 137.027 41.2929 137.756 41.2929C138.793 41.2929 139.009 42.0272 139.009 42.6442V44.2545C139.009 45.2265 139.66 45.9369 140.561 45.9369C140.939 45.9499 141.313 45.8504 141.634 45.6509L141.761 45.5697V44.104L141.266 44.6608ZM150.499 40.432V43.4268C150.499 44.122 149.933 44.9286 149.197 44.9286C148.164 44.9286 147.946 44.1912 147.946 43.5742V40.432H146.928V43.5742C146.928 45.0099 147.82 45.9369 149.197 45.9369C149.691 45.9369 150.14 45.7563 150.499 45.4283V46.0302C150.499 46.7044 150.047 47.541 149.315 47.7036L149.035 47.7638L149.103 48.0467L149.206 48.474L149.269 48.7449L149.547 48.6817C150.67 48.4289 151.52 47.2882 151.52 46.0332V40.432H150.499ZM157.532 43.1198C157.529 43.5942 157.34 44.0485 157.006 44.3859C156.672 44.7233 156.219 44.9169 155.745 44.9256C155.271 44.9185 154.82 44.7246 154.489 44.3862C154.158 44.0479 153.975 43.5926 153.979 43.1198C153.977 42.8323 154.044 42.5486 154.176 42.2928C154.307 42.037 154.498 41.8169 154.734 41.6513C154.969 41.4855 155.24 41.3793 155.526 41.3415C155.811 41.3037 156.101 41.3356 156.372 41.4343C156.301 41.5548 156.263 41.6919 156.263 41.8316C156.263 42.3011 156.655 42.6984 157.119 42.6984C157.235 42.6945 157.349 42.6657 157.453 42.6141C157.502 42.7782 157.529 42.9484 157.532 43.1198ZM155.745 40.2966C155 40.3022 154.289 40.6027 153.766 41.132C153.244 41.6614 152.953 42.3763 152.957 43.1198C152.956 43.4873 153.026 43.8517 153.165 44.1921C153.304 44.5324 153.509 44.8421 153.768 45.1034C154.027 45.3647 154.334 45.5726 154.673 45.7151C155.012 45.8576 155.376 45.9319 155.745 45.9338C156.493 45.9338 157.211 45.6369 157.74 45.1083C158.269 44.5797 158.567 43.8628 158.567 43.1153C158.567 42.3677 158.269 41.6508 157.74 41.1222C157.211 40.5936 156.493 40.2966 155.745 40.2966ZM162.398 44.9286C161.924 44.9223 161.471 44.7283 161.14 44.3893C160.808 44.0502 160.625 43.5937 160.629 43.1198C160.629 42.1206 161.421 41.3049 162.398 41.3049C162.832 41.3122 163.249 41.4727 163.575 41.7582C163.902 42.0435 164.117 42.4354 164.182 42.8639V43.3666C164.159 43.5226 164.115 43.6746 164.049 43.818C163.911 44.1433 163.683 44.4215 163.389 44.6188C163.096 44.816 162.751 44.9237 162.398 44.9286ZM164.182 40.432V41.0039C163.7 40.5488 163.061 40.2957 162.398 40.2966C160.861 40.2966 159.608 41.5607 159.608 43.1198C159.608 44.6758 160.861 45.9369 162.398 45.9369C163.061 45.9381 163.699 45.6861 164.182 45.2326V46.0332C164.182 46.6953 163.729 47.526 162.995 47.7036L162.723 47.7728L162.79 48.0467L162.889 48.4711L162.961 48.7449L163.232 48.6847C164.338 48.4289 165.209 47.2642 165.209 46.0332V40.432H164.182ZM172.767 44.6547C172.585 44.8564 172.396 44.9256 172.061 44.9256C171.558 44.9256 171.534 44.3658 171.534 44.2545V40.432H170.509V43.4268C170.509 44.122 169.943 44.9286 169.214 44.9286C168.177 44.9286 167.957 44.1912 167.957 43.5742V40.432H166.936V43.5742C166.936 45.0099 167.83 45.9369 169.214 45.9369C169.817 45.9369 170.365 45.6509 170.75 45.1634C171.016 45.6449 171.489 45.9369 172.061 45.9369C172.44 45.9498 172.814 45.8503 173.137 45.6509L173.261 45.5697V44.107L172.767 44.6547ZM176.831 40.2966C176.35 40.301 175.887 40.4858 175.535 40.8143V40.432H174.511V45.8014H175.535V42.8067C175.535 42.3101 175.776 41.8436 176.159 41.5607C176.199 41.639 176.244 41.7112 176.301 41.7745C176.42 41.8965 176.572 41.9803 176.739 42.0149C176.906 42.0496 177.079 42.0334 177.237 41.9686C177.395 41.9039 177.529 41.7934 177.624 41.6515C177.717 41.5095 177.767 41.3427 177.766 41.1725C177.766 40.6819 177.359 40.2966 176.831 40.2966ZM181.493 40.432V36.5616H180.486V40.4351H178.657V41.4403H180.486V44.2575C180.486 45.2296 181.14 45.9399 182.041 45.9399C182.413 45.9517 182.78 45.8521 183.095 45.654L183.219 45.5727V44.11L182.731 44.6608C182.553 44.8564 182.355 44.9317 182.041 44.9317C181.535 44.9317 181.493 44.4139 181.493 44.2575V41.4403H183.31V40.4351L181.493 40.432Z" fill="white"></path>
</svg>