<svg width="117" height="76" viewBox="0 0 117 76" fill="none" xmlns="http://www.w3.org/2000/svg">
<path d="M72.8101 73.2161C74.6947 72.5599 76.5409 71.7528 78.2636 70.7748C79.499 70.1234 80.7327 69.4014 81.9341 68.6296C91.6262 62.3869 98.9814 54.4171 104.351 48.5977C105.907 46.9111 107.251 45.4563 108.473 44.2295C110.539 42.1525 113.47 39.8522 113.5 39.8297L116.073 37.8141L113.5 35.7991C113.47 35.7753 110.54 33.4763 108.474 31.4005C107.837 30.76 107.165 30.0563 106.447 29.29L106.656 28.3813L110.515 11.9413L108.662 11.0503C97.0005 5.44986 83.3681 2.14544 71.8218 2.08584L71.7835 2.07915C66.8945 0.533081 61.8398 -0.0392468 58.0378 0.00211161C52.4911 -0.0587097 44.278 1.18569 37.8089 4.85989C36.5704 5.51433 35.3361 6.23202 34.1402 7.00263C24.4432 13.2471 17.0856 21.219 11.7138 27.039C10.1604 28.7225 8.81957 30.1761 7.59991 31.3999C5.53324 33.4763 2.60192 35.7753 2.57391 35.7985L0 37.8122L2.57269 39.8273C2.60192 39.8516 5.53324 42.1518 7.59626 44.2277C8.23257 44.8645 8.89995 45.5633 9.61299 46.3242L9.4364 47.138L8.57966 50.7879L5.5777 63.5808L7.43185 64.4712C18.2432 69.6666 30.7546 72.8859 41.7212 73.3749L44.1307 73.5032C49.0678 75.0918 54.193 75.6751 58.0347 75.6313C62.0426 75.6763 67.4431 75.0402 72.5726 73.2952L72.8101 73.2161Z" fill="white"></path>
<path d="M106.928 33.285C101.273 27.5995 92.8493 16.9278 80.6339 9.06419C79.4787 8.32339 78.2938 7.62942 77.0735 6.98714C71.3004 3.70523 63.5355 2.36047 57.9669 2.42616C52.3929 2.35986 44.6274 3.70523 38.8579 6.98714C37.6413 7.62942 36.4496 8.32278 35.2981 9.06419C23.0875 16.9278 14.6577 27.5995 9.00692 33.285C6.78254 35.5178 3.70264 37.9251 3.70264 37.9251C3.70264 37.9251 6.78254 40.333 9.00448 42.5682C14.6577 48.2513 23.0839 58.9224 35.2987 66.7848C36.4502 67.5274 37.6419 68.2214 38.8585 68.863C44.6286 72.1456 52.388 73.4909 57.9651 73.424C63.5361 73.4909 71.301 72.1456 77.0747 68.863C78.295 68.2214 79.4793 67.5274 80.6326 66.7848C92.8451 58.9218 101.273 48.2507 106.928 42.5682C109.152 40.333 112.228 37.9251 112.228 37.9251C112.228 37.9251 109.154 35.5178 106.928 33.285Z" fill="#EE3E42"></path>
<path d="M27.3285 20.0176H43.2749C53.6179 20.0176 60.7483 22.8798 59.6395 32.8527C58.5318 42.8292 53.8164 52.8678 40.5457 52.8678H21.9092L22.5565 49.9118L24.1634 49.6308L30.4419 23.2575L26.677 22.9267L27.3285 20.0176ZM35.6957 49.3006C36.5208 49.4411 37.3385 49.5354 38.9607 49.5354C46.9558 49.5354 49.0103 30.9046 48.7454 27.9949C48.3794 24.0056 46.4802 23.3488 44.4817 23.3488H41.8506L35.6957 49.3006Z" fill="white"></path>
<path d="M90.9413 52.8174C90.0553 53.1933 89.1182 53.6148 88.0916 53.6148C85.4428 53.6148 85.4428 52.6593 84.214 50.9228C90.8092 47.2614 94.8834 39.8108 94.8834 31.2405C94.8834 23.4687 88.8259 19.1973 78.7301 19.1973C67.4791 19.1973 58.159 29.5454 57.868 39.8108C57.6207 48.5137 61.9057 53.5917 74.1681 53.4561C75.0839 53.4469 76.0539 53.4098 76.96 53.2675C78.4695 56.9281 79.6562 58.4961 84.6256 58.4961C86.5717 58.4961 88.5038 58.0077 90.1113 57.1179L90.987 53.3338L90.9413 52.8174ZM78.6734 45.6186C77.0903 44.5305 75.1259 44.033 73.1981 43.9126L72.4393 47.1951C74.106 47.4226 74.8159 48.2905 75.4486 49.5604C74.8848 49.9357 74.3105 50.1237 73.6633 50.1237C70.5834 50.1237 69.2985 48.4334 69.1055 46.2281C68.7956 42.6627 72.1215 22.5291 78.6588 22.5291C81.7406 22.5291 83.0168 24.2187 83.2123 26.4259C83.4291 28.911 81.866 39.4708 78.6734 45.6186Z" fill="white"></path>
<path d="M105.47 24.0117C93.2953 15.6464 74.1065 9.46269 58.5158 9.8112C51.9797 9.95717 45.7912 10.9972 40.2349 12.7452C48.0576 7.80349 58.696 4.6499 70.4439 4.38716C82.4876 4.12015 96.6097 7.66481 108.021 13.146L105.47 24.0117Z" fill="#F9AA53"></path>
<path d="M10.4619 51.8398C22.6366 60.2056 41.8242 66.3893 57.4167 66.0402C63.9528 65.893 70.1413 64.8542 75.697 63.1074C67.8749 68.0473 57.2365 71.2003 45.4886 71.4636C33.4455 71.7313 19.3241 68.1878 7.91113 62.7042L10.4619 51.8398Z" fill="#007AC1"></path>
<path d="M91.4521 49.1707C91.4521 47.8247 92.5013 46.834 93.7411 46.834C94.9729 46.834 96.0221 47.8247 96.0221 49.1707C96.0221 50.5312 94.9729 51.5159 93.7411 51.5159C92.5013 51.5159 91.4521 50.5312 91.4521 49.1707ZM93.7411 51.1285C94.7628 51.1285 95.5678 50.2947 95.5678 49.1701C95.5678 48.0631 94.7628 47.2202 93.7411 47.2202C92.7132 47.2202 91.9064 48.0631 91.9064 49.1701C91.907 50.2947 92.7132 51.1285 93.7411 51.1285ZM93.2655 50.5313H92.8758V47.8247H93.8635C94.4773 47.8247 94.7793 48.0637 94.7793 48.591C94.7793 49.0782 94.4846 49.2838 94.107 49.3361L94.839 50.5319H94.4054L93.7167 49.355H93.2649V50.5313H93.2655ZM93.7259 48.9937C94.0589 48.9937 94.3603 48.9694 94.3603 48.5539C94.3603 48.2158 94.0699 48.1575 93.7892 48.1575H93.2539V48.9937H93.7259Z" fill="white"></path>
</svg>