<svg width="68" height="68" viewBox="0 0 68 68" fill="none" xmlns="http://www.w3.org/2000/svg">
<path d="M27.2801 0.529153C17.4567 2.34025 8.2001 9.43374 3.59068 18.6402C2.30609 21.2059 1.09706 24.8657 0.832591 26.8279C0.643671 28.4502 0.643671 28.4502 1.02148 27.1296C1.24818 26.4128 1.70156 24.8657 2.00383 23.7339C2.79725 21.0927 5.55534 15.8103 7.44445 13.3578C13.4518 5.62288 22.255 0.981929 32.0029 0.453681C38.4257 0.15185 43.5642 1.13284 48.5892 3.69858C57.5812 8.26406 63.3242 15.0934 66.2712 24.7525C67.178 27.7334 67.2536 28.7143 67.2913 34.1099C67.329 37.7698 67.4423 39.4677 67.5937 38.4489C68.8405 30.0726 66.2335 20.0362 60.9439 13.2446C54.2565 4.56641 44.7354 -0.0745659 33.8918 0.000906118C31.7006 0.000906118 28.7536 0.265044 27.2801 0.529153Z" fill="#128400"></path>
<path d="M54.5222 10.2539C57.9624 13.4222 60.1171 16.2511 61.8937 19.8721C62.6875 21.4563 63.3302 22.5501 63.368 22.2861C63.368 21.6449 61.4023 17.7976 59.8903 15.5722C58.4914 13.46 54.0686 8.93373 52.7457 8.25479C52.254 7.99075 53.0479 8.89599 54.5222 10.2539Z" fill="#128400"></path>
<path d="M12.63 10.1944C9.76091 12.7569 7.26934 16.1107 5.53281 19.766C3.98501 22.9691 2.51272 27.9808 2.58823 29.9027C2.58823 30.5434 2.85248 29.8651 3.11676 28.3579C4.40028 21.2733 7.3826 15.8092 12.7055 10.7973C15.8388 7.85802 15.7633 7.36815 12.63 10.1944Z" fill="#128400"></path>
<path d="M12.5423 18.7895C9.06613 20.4121 6.6101 24.714 5.96774 30.3742C5.47655 34.6004 5.92997 39.053 7.17687 41.4303C9.33062 45.6188 14.2427 46.9396 17.1521 44.1095C18.399 42.9019 18.7769 42.9775 18.7769 44.3736C18.7769 46.2604 21.6485 47.8829 22.8576 46.6756C23.3866 46.1472 23.4244 43.2039 23.0843 37.2041C22.7821 32.4495 22.8954 32.5251 17.7567 33.4683C13.7892 34.1852 13.0713 34.8644 16.5098 34.6004C17.8322 34.5248 18.7769 34.6004 18.7769 34.7891C18.7769 35.6192 16.0186 40.6378 14.7717 42.0342L13.487 43.5435L12.7313 42.6379C11.1821 40.8266 10.6531 37.9589 10.6531 31.4683C10.6531 25.5817 10.6909 25.3932 11.7111 23.3554C13.0336 20.8272 14.5072 19.582 16.5098 19.3178C17.7945 19.1291 18.1345 19.2801 19.1169 20.2235C20.5528 21.6951 20.8928 23.5064 20.1749 26.0345C19.8348 27.1289 19.6459 28.1477 19.7593 28.3365C19.8726 28.4873 20.4394 28.6382 21.0439 28.6382C22.3664 28.6382 23.9156 26.9025 24.2935 25.0536C24.7847 22.4121 22.8199 19.1291 20.3638 18.4499C18.0967 17.8462 14.2427 17.9971 12.5423 18.7895Z" fill="#128400"></path>
<path d="M36.1313 19.0904C35.4537 20.8626 36.4326 23.0496 38.3147 24.0677C39.0677 24.4447 39.1807 24.3695 39.5195 23.1627C39.9337 21.5413 39.4819 19.7314 38.3526 18.7133C37.2983 17.8084 36.5831 17.9215 36.1313 19.0904Z" fill="#128400"></path>
<path d="M41.8297 21.8741C40.8044 22.2534 39.3994 24.1882 39.8172 24.6434C39.9312 24.7572 40.6526 24.871 41.3361 24.871C42.8171 24.871 44.4881 23.4674 44.4881 22.2155C44.4881 21.3809 43.5385 21.2291 41.8297 21.8741Z" fill="#128400"></path>
<path d="M63.4028 22.9758C63.4028 23.0886 63.7426 24.3286 64.1578 25.7941C64.7241 27.7855 64.8374 28.0487 64.6864 26.8087C64.5355 25.4559 63.4782 22.337 63.4028 22.9758Z" fill="#128400"></path>
<path d="M31.8111 25.5875C29.0132 26.8697 26.7447 30 26.707 32.6022C26.707 34.6763 28.3327 40.3711 29.8829 43.8405L30.866 46.0281L31.9622 45.4245L33.0965 44.8588L32.1136 42.7092C30.9414 40.0693 29.8829 36.3358 29.5049 33.658C29.3158 32.0365 29.3915 31.5084 30.072 30.377C31.9622 27.3223 35.8186 26.455 38.7676 28.3784C39.5996 28.9441 40.5447 29.9244 40.885 30.528C41.6412 32.0365 41.6789 34.6387 40.9607 36.034C40.2044 37.4671 37.8225 39.466 35.1381 40.8613C33.815 41.5401 33.5124 42.5584 34.4198 43.3127C35.1004 43.8784 36.8774 43.0109 40.1667 40.5974C42.9643 38.4854 44.0985 36.4113 44.0985 33.5073C44.0608 28.6047 40.3179 24.8711 35.4029 24.8711C34.193 24.8711 32.6808 25.1726 31.8111 25.5875Z" fill="#128400"></path>
<path d="M46.6307 25.1334C46.4792 25.2459 46.3657 25.7707 46.3657 26.258C46.3657 27.8323 50.1099 28.3946 50.6773 26.8953C51.1311 25.7333 50.2234 24.8711 48.4838 24.8711C47.6138 24.8711 46.7441 24.9835 46.6307 25.1334Z" fill="#128400"></path>
<path d="M54.6766 27.881C53.397 28.1805 53.2466 29.2656 54.4509 29.7896C55.8431 30.4259 57.3107 29.9392 57.3107 28.8541C57.3107 27.881 56.2947 27.5069 54.6766 27.881Z" fill="#128400"></path>
<path d="M0.159202 30.9802C-0.407676 35.3572 0.574921 41.6212 2.54009 46.4509C5.97916 54.9034 12.9328 61.8087 21.436 65.2803C26.1977 67.2047 33.3783 68.2611 37.1197 67.5819C38.7447 67.28 38.3289 67.2047 34.2474 67.1668C26.6135 67.0915 20.3778 65.1291 14.4445 60.903C11.8747 59.0918 8.17108 55.3185 6.43266 52.7902C4.95878 50.6017 2.76684 46.2245 2.16218 44.3001C1.93543 43.47 1.55752 42.1872 1.33077 41.47C1.10402 40.7532 0.839455 37.508 0.688297 34.3007C0.461546 28.8294 0.423763 28.603 0.159202 30.9802Z" fill="#128400"></path>
<path d="M64.9614 29.7599C64.9614 30.4783 65.0377 30.781 65.1518 30.4026C65.2281 30.0622 65.2281 29.4573 65.1518 29.0792C65.0377 28.7388 64.9614 29.0412 64.9614 29.7599Z" fill="#128400"></path>
<path d="M47.6027 29.6371C47.2247 29.7504 47.1113 31.4119 47.1113 36.0196C47.1113 42.7799 47.1113 42.8176 44.8051 45.7257C42.4987 48.5959 42.3475 51.2774 44.4268 52.5237C45.9013 53.3922 46.8087 53.3545 48.0564 52.3348C49.6823 51.0508 50.2494 49.2757 50.3248 44.857L50.4382 40.8915L51.6859 40.0607C53.4629 38.9277 54.2946 38.9277 54.2946 40.136C54.2946 41.3823 55.2399 43.1951 55.9959 43.4974C57.2058 43.9506 58.9072 43.724 59.9657 42.9685C60.9488 42.2511 62.2341 39.8341 62.2341 38.6255C62.2341 37.4548 60.9111 38.0966 60.1548 39.6075C59.3609 41.269 58.3024 42.2134 57.8107 41.6846C57.6595 41.5336 57.4327 39.3053 57.357 36.737C57.2436 32.1297 57.2436 32.0917 56.2985 31.8274C55.7691 31.7141 55.0131 31.7141 54.5971 31.8651C53.8789 32.0917 53.8409 32.3183 54.03 34.8489C54.2569 37.1526 54.1812 37.6814 53.614 38.1346C52.5178 39.0787 50.5516 39.9094 50.2871 39.5319C50.1737 39.3429 50.136 37.1149 50.1737 34.6223C50.2871 30.9587 50.1737 30.0146 49.7577 29.7504C49.1529 29.3725 48.3589 29.3348 47.6027 29.6371ZM46.9221 47.6895C46.4684 51.8816 44.6537 53.5811 43.7086 50.7109C43.2172 49.2757 43.822 47.5006 45.4856 45.3102C46.3173 44.1772 46.5064 44.1015 46.8087 44.6304C46.9978 44.9703 47.0356 46.3299 46.9221 47.6895Z" fill="#128400"></path>
<path d="M33.9062 32.0319C32.8852 33.0505 32.9609 33.7672 34.0954 34.8989C34.8138 35.5779 35.2675 35.7667 35.9105 35.6156C36.9315 35.314 37.6879 34.3707 37.6879 33.4653C37.6879 32.5599 36.3643 31.2773 35.419 31.2773C35.0029 31.2773 34.3223 31.6169 33.9062 32.0319Z" fill="#128400"></path>
<path d="M65.3511 33.5263C65.3511 34.6629 65.4284 35.1554 65.5053 34.5493C65.5826 33.981 65.5826 33.0717 65.5053 32.4656C65.4284 31.8973 65.3511 32.3897 65.3511 33.5263Z" fill="#128400"></path>
<path d="M64.9727 37.1178C64.9727 37.9499 65.0584 38.2526 65.1445 37.7609C65.2305 37.307 65.2305 36.6262 65.1445 36.2477C65.0156 35.9073 64.9295 36.2857 64.9727 37.1178Z" fill="#128400"></path>
<path d="M64.0436 41.4883C62.4958 47.8332 58.418 53.9138 52.4146 58.7858C51.8859 59.2013 51.6217 59.5412 51.8102 59.5789C52.4146 59.5789 56.2658 56.0666 58.3047 53.5739C59.3995 52.252 60.9853 49.8726 61.8161 48.2864C63.364 45.2652 65.0254 40.3932 64.7989 39.4111C64.7233 39.0712 64.3834 40.0153 64.0436 41.4883Z" fill="#128400"></path>
<path d="M66.246 42.7006C63.1098 54.2864 53.7772 63.2306 41.6484 66.3631C40.1749 66.7404 39.4568 67.0801 39.9858 67.0801C41.3838 67.1177 46.4469 65.4194 49.4698 63.9099C55.6662 60.7775 61.1451 55.343 64.2056 49.1916C65.4902 46.6632 67.2282 41.5305 67.0771 40.7759C67.0015 40.3983 66.6237 41.2664 66.246 42.7006Z" fill="#128400"></path>
<path d="M4.42773 44.9905C4.42773 45.7815 7.37842 50.9797 9.04289 53.0516C10.8965 55.4247 14.9065 59.1913 15.4739 59.1913C15.663 59.1913 15.1712 58.6263 14.3768 57.9859C10.7452 54.8972 8.24848 51.7707 5.86523 47.326C5.07081 45.8569 4.42773 44.8023 4.42773 44.9905Z" fill="#128400"></path>
<path d="M46.9658 60.4444C47.079 60.8168 47.3054 61.0031 47.4186 60.8913C47.5318 60.7796 47.4186 60.4816 47.1543 60.2209C46.7771 59.8857 46.7394 59.9229 46.9658 60.4444Z" fill="#128400"></path>
<path d="M28.6279 62.8148C28.6279 63.2392 28.7471 63.3549 28.8664 63.0462C28.9857 62.7764 28.946 62.4292 28.8267 62.3135C28.7075 62.1594 28.5882 62.3908 28.6279 62.8148Z" fill="#128400"></path>
</svg>