<svg width="235" height="30" viewBox="0 0 235 30" fill="none" xmlns="http://www.w3.org/2000/svg">
<path d="M37.6085 19.2451C36.2948 16.7252 33.6596 15.0039 30.6191 15.0039C30.4675 15.0039 30.3186 15.0112 30.1704 15.0204C30.1534 15.3478 30.1278 15.6735 30.0835 15.9933C29.9882 16.6787 29.8222 17.3404 29.6042 17.9782C29.0737 19.5329 28.2053 20.9301 27.0737 22.0732H33.8222V18.3558C34.9853 18.6654 36.0828 19.1332 37.0875 19.7412C37.4136 19.9385 37.7848 19.5826 37.6085 19.2451Z" fill="black"></path>
<path d="M19.4063 25.2753C16.9286 25.2753 14.6477 24.4384 12.8273 23.0352H4.98975V26.1529C4.98975 26.9056 5.60111 27.5154 6.35376 27.5154H32.4589C33.2115 27.5154 33.8229 26.9056 33.8229 26.1529V23.0352H25.9854C24.165 24.4384 21.884 25.2753 19.4063 25.2753Z" fill="black"></path>
<path d="M19.4063 3.73229C23.2795 3.73229 26.6742 5.7734 28.5755 8.83588H33.8229C33.8229 4.59465 27.919 1.15625 20.6358 1.15625H18.1768C10.8936 1.15625 4.98975 4.59465 4.98975 8.83588H10.2372C12.1385 5.7734 15.5331 3.73229 19.4063 3.73229Z" fill="black"></path>
<path d="M4.98999 22.072H11.7385C11.1663 21.4946 10.6631 20.8499 10.234 20.156C9.7214 19.3276 9.32208 18.4244 9.04795 17.4677C8.76525 17.4863 8.48089 17.4975 8.19391 17.4975C7.0845 17.4975 6.01255 17.3469 4.98999 17.0748C3.82776 16.7653 2.7294 16.2975 1.7247 15.6894C1.3986 15.4921 1.02738 15.8475 1.20362 16.1852C2.02441 17.7594 3.36117 19.0224 4.98999 19.7478V22.072Z" fill="black"></path>
<path d="M9.70589 9.79883H4.98975V12.999H8.73097C8.88937 11.8663 9.22311 10.7896 9.70589 9.79883Z" fill="black"></path>
<path d="M33.8226 12.9971V9.79688H29.1064C29.5892 10.7885 29.923 11.8643 30.0814 12.9971H33.8226Z" fill="black"></path>
<path d="M19.4058 4.9043L21.6851 11.4825L28.6958 11.5047L23.0942 15.7221L25.1479 22.1839L19.4058 18.3424L13.6637 22.1839L15.7173 15.7221L10.1157 11.5047L17.1264 11.4825L19.4058 4.9043Z" fill="#8EC13F"></path>
<path d="M220.861 5.25586H200.86V27.4442H205.216V18.0118H215.981V14.6236H205.216V8.74015H220.843H220.862V8.52244L220.861 5.25586Z" fill="black"></path>
<path d="M224.959 27.4442H229.316V5.25586H224.959V27.4442Z" fill="black"></path>
<path d="M88.2286 19.38C88.2305 20.489 88.2315 21.8693 87.235 22.8652C86.2831 23.816 84.5276 24.2973 82.0141 24.2973H81.9962C75.8326 24.2918 75.8326 21.4534 75.8326 19.3792V5.32031H71.5151V19.38C71.5151 22.6041 71.5151 27.9993 81.9947 28.0121H82.0403C86.4091 28.0121 89.179 27.2782 90.7551 25.7048C92.3473 24.1153 92.4743 21.8991 92.4714 19.3792C92.4704 18.2191 92.4714 5.32031 92.4714 5.32031H88.2286C88.2286 5.32031 88.2271 18.0099 88.2286 19.38Z" fill="#8EC13F"></path>
<path d="M132.825 8.50937C138.806 7.47439 143.28 11.0267 143.324 11.0624L143.656 11.3312L146.1 8.0867L145.763 7.84092C145.543 7.68009 140.273 3.91607 132.361 4.88048C124.506 5.8381 121.665 12.1297 121.672 16.1124C121.575 19.3595 122.634 22.3063 124.649 24.4095C126.847 26.7014 130.134 27.9431 134.154 27.9992C134.297 28.0009 134.437 28.001 134.577 28.001C141.628 28.001 145.605 25.5262 145.773 25.4182L145.964 25.2974V16.0334H134.83V19.4863H141.897V23.0506C141.028 23.4477 137.628 24.8042 132.974 24.1706C127.192 23.3831 126.106 17.9972 126.181 16.1729C126.45 9.68736 132.761 8.52041 132.825 8.50937Z" fill="#8EC13F"></path>
<path d="M64.4004 15.549C65.2844 14.9273 66.7869 13.4866 66.7506 10.8944C66.7515 5.38604 59.5663 5.25082 59.4936 5.25H45.0405V27.4298H59.4892C59.5663 27.4298 66.2329 27.3753 67.4417 22.3364C68.2225 18.6098 65.6324 16.3782 64.4004 15.549ZM49.3649 8.73937H58.6115C58.9958 8.7522 60.6049 8.86529 61.5447 9.75567C62.0022 10.1886 62.2286 10.732 62.2368 11.4166C62.2455 12.0545 62.0497 12.5673 61.6392 12.984C60.5894 14.053 58.516 14.0777 58.4976 14.0777H49.3649V8.73937ZM59.0831 23.9804H49.3649V17.562H59.0627C59.0739 17.562 60.1159 17.5693 61.1303 17.9931C62.4084 18.5264 63.0554 19.4636 63.0525 20.7767C63.0331 23.9327 59.2449 23.9795 59.0831 23.9804Z" fill="#8EC13F"></path>
<path d="M117.947 12.2965C117.905 7.82139 115.106 5.25391 110.269 5.25391H96.9902V27.4465H101.315V19.3944H108.874L113.447 27.4465H118.235L113.265 19.0397C114.58 18.5269 117.989 16.7656 117.947 12.2965ZM108.369 15.8948H108.302H101.315V8.73224H108.305C109.536 8.72125 111.598 8.70678 112.706 9.81912C113.279 10.3949 113.55 11.2045 113.535 12.2948C113.493 15.4449 111.037 15.8948 108.369 15.8948Z" fill="#8EC13F"></path>
<path d="M170.345 8.7402V5.25586H150.348L150.356 27.4434H170.345V23.9914H154.687V18.011H165.463V14.6236H154.687V8.7402H170.345Z" fill="#8EC13F"></path>
<path d="M195.771 12.2965C195.729 7.82139 192.931 5.25391 188.094 5.25391H174.815V27.4465H179.139V19.3944H186.698L191.271 27.4465H196.06L191.089 19.0397C192.405 18.5269 195.813 16.7656 195.771 12.2965ZM186.126 15.8948H179.139V8.73224H186.13C187.362 8.72125 189.422 8.70678 190.531 9.81912C191.104 10.3949 191.374 11.2045 191.36 12.2948C191.318 15.4713 188.829 15.9033 186.126 15.8948Z" fill="#8EC13F"></path>
<path d="M232.183 24.7676C232.939 24.7676 233.559 25.3857 233.559 26.1424C233.559 26.8982 232.939 27.5129 232.183 27.5129C231.426 27.5129 230.811 26.8982 230.811 26.1424C230.811 25.3857 231.426 24.7676 232.183 24.7676ZM232.183 27.2493C232.798 27.2493 233.291 26.7528 233.291 26.1424C233.291 25.5277 232.798 25.0345 232.183 25.0345C231.571 25.0345 231.074 25.5277 231.074 26.1424C231.074 26.7528 231.571 27.2493 232.183 27.2493ZM231.69 25.5123C231.69 25.4741 231.721 25.4392 231.762 25.4392H232.328C232.565 25.4392 232.798 25.6 232.798 25.8898C232.798 26.161 232.622 26.2682 232.508 26.3098C232.577 26.451 232.645 26.5964 232.71 26.7341C232.737 26.7835 232.698 26.8369 232.645 26.8369H232.473C232.442 26.8369 232.416 26.8096 232.404 26.7833L232.213 26.3327H231.976V26.7646C231.976 26.8021 231.946 26.8368 231.903 26.8368H231.762C231.721 26.8368 231.69 26.8019 231.69 26.7646V25.5123ZM232.309 26.0812C232.424 26.0812 232.5 25.997 232.5 25.8941C232.5 25.7836 232.424 25.7071 232.309 25.7071H231.969V26.0812H232.309Z" fill="black"></path>
</svg>