<svg width="84" height="84" viewBox="0 0 84 84" fill="none" xmlns="http://www.w3.org/2000/svg">
<path d="M38.5656 0.105791C26.4814 0.973437 15.3758 7.11291 8.07473 16.9535C-0.0840527 27.9584 -2.2282 42.4888 2.41196 55.4486C6.75526 67.6286 16.6953 77.2057 28.9994 81.0826C39.4232 84.3668 50.7047 83.455 60.3149 78.5456C71.5085 72.8236 79.4586 62.5765 82.152 50.3965C83.483 44.3559 83.4055 37.7332 81.9326 31.7256C80.5249 25.9925 77.9742 20.7097 74.3563 16.075C65.8127 5.10304 52.3871 -0.88267 38.5656 0.105791ZM45.053 1.74225C48.7255 2.07173 52.717 3.01626 56.1036 4.34522C68.0449 9.04584 77.1163 19.3039 80.2717 31.6706C81.1516 35.1303 81.4708 37.7222 81.4708 41.5003C81.4708 44.3998 81.3388 46.0692 80.8877 48.5733C78.4797 62.0603 69.1224 73.4935 56.3235 78.5893C51.4855 80.5225 46.9663 81.3899 41.6993 81.3899C38.8295 81.4014 37.2901 81.2803 34.8271 80.8627C19.2683 78.2161 6.59032 66.4645 2.77481 51.1324C1.96113 47.8594 1.62027 45.0039 1.62027 41.4454C1.63127 31.6047 5.12785 22.4341 11.6922 15.0316C18.3337 7.54124 27.493 2.85151 37.521 1.79715C39.1703 1.62143 43.3707 1.59946 45.053 1.74225Z" fill="black"></path>
<path d="M37.7406 3.66498C26.0303 4.88412 15.5184 11.3969 9.29488 21.3035C6.56802 25.6418 4.6218 30.8916 3.88504 35.8449C3.43424 38.8981 3.37926 43.3682 3.75309 46.2896C4.3029 50.5181 5.46841 54.3401 7.3927 58.25C9.42683 62.3796 11.7909 65.6415 15.0457 68.7936C21.3461 74.8891 29.076 78.4698 37.9605 79.403C39.7528 79.59 43.6012 79.5571 45.6025 79.3478C63.3824 77.4481 77.5228 63.3241 79.4253 45.5647C79.6339 43.5659 79.6669 39.7218 79.4797 37.9317C78.8645 32.1217 77.1379 26.8609 74.2681 22.0613C68.7592 12.8577 59.5009 6.31187 49.0661 4.22515C46.5261 3.71988 45.2616 3.59909 42.1388 3.55516C40.1266 3.52221 38.7082 3.55516 37.7406 3.66498ZM44.228 7.12463C44.6568 7.19053 45.0307 7.27834 45.0747 7.32232C45.1077 7.36623 45.3936 8.21194 45.7124 9.21135C46.0313 10.2108 46.3282 11.0674 46.3721 11.1224C46.4271 11.1773 46.944 10.4964 47.5377 9.58474C48.1204 8.68417 48.6482 7.9154 48.7032 7.88245C48.7802 7.82751 50.2866 8.03616 50.6934 8.14604C50.7374 8.157 49.9567 9.27725 48.9451 10.6391C47.9445 12.001 47.0869 13.2091 47.0429 13.3299C46.9989 13.4508 46.8669 14.1866 46.757 14.9554C46.6251 15.867 46.5041 16.3942 46.4162 16.4271C46.2292 16.493 44.7228 16.2514 44.7228 16.1526C44.7228 16.1086 44.8217 15.3618 44.9537 14.4831L45.1957 12.8907L44.0741 10.0571C43.4693 8.48648 42.9635 7.14654 42.9635 7.05873C42.9635 6.94885 43.0405 6.9159 43.2164 6.95989C43.3484 6.99284 43.8102 7.06969 44.228 7.12463ZM38.2903 7.36623C38.3563 7.58591 39.357 16.0427 39.3129 16.0756C39.247 16.1415 37.6417 16.3392 37.5757 16.2953C37.5316 16.2624 37.4657 15.9658 37.4327 15.6144C37.3887 15.263 37.1578 13.3409 36.9159 11.353C36.674 9.3541 36.4761 7.67372 36.4761 7.59687C36.4761 7.53097 36.8059 7.43212 37.2788 7.36623C37.7076 7.31128 38.1144 7.25643 38.1584 7.24539C38.2024 7.24539 38.2574 7.30033 38.2903 7.36623ZM30.5495 9.44199C31.803 9.85937 32.6166 11.8582 31.9679 12.9236C31.682 13.3849 31.693 13.3849 32.0669 13.3849C32.5947 13.3849 33.0235 13.8571 33.6392 15.1092C33.9691 15.8011 34.277 16.2953 34.3979 16.3173C34.7058 16.4051 34.7498 16.6687 34.4639 16.7786C34.3319 16.8335 33.9251 17.0092 33.5732 17.174C33.2214 17.3277 32.8695 17.4376 32.7926 17.4046C32.7156 17.3826 32.4077 16.8664 32.0888 16.2514C31.4511 14.9994 31.0992 14.6588 30.6155 14.7687C30.1756 14.8676 28.4053 15.6583 28.3613 15.7791C28.3503 15.8231 28.6362 16.548 29.0101 17.3826C29.3729 18.2173 29.6588 18.9092 29.6368 18.9312C29.6258 18.9422 29.241 19.118 28.8012 19.3046L27.9984 19.6451L27.7345 19.063C26.1842 15.6693 24.4029 11.5617 24.4688 11.4958C24.6118 11.353 28.8012 9.52989 29.197 9.44199C29.7797 9.29924 30.1206 9.29924 30.5495 9.44199ZM58.7642 11.8143C58.8082 11.9351 57.4887 20.9631 57.4118 21.0619C57.3678 21.1168 56.0483 20.4359 55.8504 20.2601C55.7404 20.1503 55.7515 19.9636 55.8834 19.2607C55.9713 18.7774 56.0043 18.3491 55.9603 18.3052C55.9164 18.2613 55.2456 17.8769 54.465 17.4485L53.0355 16.6798L52.3538 17.3497L51.672 18.0306L50.8913 17.6023C50.4625 17.3606 50.0996 17.13 50.0887 17.0641C50.0667 16.9543 50.9463 16.1306 54.7178 12.7698L56.972 10.7599L57.8406 11.2212C58.3244 11.4739 58.7422 11.7374 58.7642 11.8143ZM19.9826 16.4601C19.9826 16.493 19.2899 17.2618 18.4322 18.1514L16.8819 19.7879L17.5527 20.4578L18.2343 21.1278L18.5752 20.7434C19.2239 20.0185 21.0932 18.1075 21.1702 18.1075C21.2691 18.1075 22.1818 19.0191 22.1818 19.118C22.1818 19.1728 21.566 19.8538 20.8073 20.6336C20.0486 21.4133 19.4329 22.0943 19.4329 22.1382C19.4329 22.1931 19.7847 22.5776 20.2135 22.9949L20.9833 23.7637L21.5441 23.1596C22.8855 21.7099 24.2709 20.3041 24.3479 20.3041C24.5129 20.3151 25.5025 21.2706 25.4695 21.3804C25.3705 21.6221 21.0163 26.125 20.9063 26.1031C20.7854 26.0701 15.6394 21.2267 14.8477 20.3919L14.4958 20.0295L16.706 17.6901L18.9271 15.3618L19.4548 15.8779C19.7408 16.1635 19.9826 16.4271 19.9826 16.4601ZM67.1649 18.459L67.3738 18.7555L65.9993 19.8758C65.2406 20.4908 64.6359 21.007 64.6469 21.0179C64.6689 21.0399 65.7684 21.1388 67.0989 21.2376C69.4629 21.4244 69.5179 21.4353 69.7709 21.7209C70.2876 22.314 70.9254 23.1706 70.8814 23.2145C70.8484 23.2365 69.7489 23.1377 68.4184 22.9949C67.0879 22.8521 65.9884 22.7533 65.9774 22.7642C65.9554 22.7753 65.5815 24.1701 65.1307 25.8395C64.6798 27.5199 64.273 28.9256 64.24 28.9696C64.1961 29.0026 64.0861 28.9256 63.9871 28.7938C63.8882 28.662 63.5803 28.2777 63.3164 27.9372L62.8326 27.3222L63.4593 25.1036C63.8002 23.8845 64.1081 22.8082 64.1411 22.7094C64.185 22.5556 64.0751 22.5117 63.5364 22.4458L62.8876 22.3688L61.7001 23.3134C61.0513 23.8296 60.4795 24.258 60.4356 24.258C60.3366 24.258 59.347 23.0278 59.347 22.918C59.347 22.8741 60.8974 21.6001 62.7777 20.0735L66.2083 17.3167L66.5821 17.7341C66.78 17.9757 67.0439 18.2942 67.1649 18.459ZM44.7448 19.5902C53.1014 20.8422 60.0068 26.6522 62.6347 34.6477C64.1301 39.2056 64.0971 44.159 62.5247 48.7168C59.7099 56.8881 52.3757 62.6871 43.7442 63.5657C37.2238 64.2357 30.5934 61.8743 25.9093 57.2067C22.5226 53.8239 20.2906 49.4197 19.6088 44.741C19.2239 42.1051 19.2899 39.7768 19.8287 37.1079C21.9399 26.5973 31.5171 19.0081 42.1938 19.3815C43.0075 19.4145 44.151 19.5023 44.7448 19.5902ZM12.1098 25.0817C12.4507 25.2354 12.7255 25.3782 12.7255 25.4001C12.7255 25.4221 12.5057 25.9602 12.2418 26.5863C11.9668 27.2013 11.7799 27.7505 11.8239 27.7944C11.8679 27.8274 13.3523 28.4754 15.1226 29.2332C16.8929 29.991 18.3663 30.628 18.3993 30.65C18.4763 30.7269 17.8165 32.2095 17.6956 32.2534C17.6296 32.2754 16.1122 31.6604 14.3199 30.8916C11.681 29.7713 11.0322 29.5297 10.9553 29.6505C10.9003 29.7384 10.6803 30.2436 10.4494 30.7818C10.2296 31.309 9.98761 31.7703 9.92163 31.7922C9.72371 31.8691 8.52522 31.2979 8.56917 31.1442C8.69015 30.628 11.2631 24.807 11.3621 24.807C11.4281 24.807 11.7689 24.9279 12.1098 25.0817ZM73.5533 28.8597C73.7293 29.3101 73.8502 29.6835 73.8392 29.7054C73.8172 29.7164 72.4647 30.2656 70.8374 30.9026C66.3622 32.6708 65.6915 32.9344 65.6035 32.9344C65.5156 32.9344 64.8998 31.2979 64.9658 31.2431C65.0757 31.1442 73.0475 28.0141 73.1355 28.036C73.1905 28.0471 73.3774 28.4204 73.5533 28.8597ZM73.2455 40.5565C73.7842 40.7762 74.0811 41.2155 74.0811 41.7976C74.0811 42.215 74.0262 42.3468 73.7073 42.6652C73.3994 42.9728 73.2455 43.0387 72.8716 43.0387C72.2559 43.0387 71.8161 42.7641 71.6071 42.2369C71.3872 41.6878 71.4751 41.2704 71.893 40.8531C72.1679 40.5676 72.3218 40.5017 72.7946 40.4138C72.8386 40.4138 73.0366 40.4687 73.2455 40.5565ZM11.1751 41.0398C11.538 41.3034 11.8019 42.0173 11.692 42.4346C11.648 42.5993 11.4501 42.9069 11.2411 43.1156C10.9442 43.4121 10.7903 43.478 10.4164 43.478C9.56983 43.478 8.98703 42.9069 8.98703 42.0832C8.98703 40.9959 10.2845 40.3808 11.1751 41.0398ZM68.6053 49.0793L69.0011 49.2001L68.6713 50.0128C68.3414 50.8256 68.3304 50.8365 67.9896 50.7817C66.857 50.5729 65.7245 52.7146 66.5491 53.5274C66.824 53.8129 67.2419 53.8788 67.5937 53.6921C67.7037 53.6372 68.1875 53.0551 68.6603 52.4071C69.6938 51.0013 70.1337 50.551 70.7275 50.2764C71.2772 50.0238 71.5961 50.0128 72.3109 50.2545C73.7842 50.7267 74.488 52.0337 74.1471 53.6591C73.6633 55.9985 72.1459 57.4153 70.4196 57.1627C69.6609 57.0419 69.6389 57.009 69.9907 56.1523L70.2987 55.3945L70.8484 55.3395C71.5852 55.2516 71.926 54.9991 72.3218 54.2083C72.8606 53.1429 72.7507 52.3851 72.0249 52.0886C71.6841 51.9349 71.6181 51.9458 71.2992 52.1215C71.1013 52.2314 70.6395 52.7475 70.2657 53.2528C69.287 54.5817 68.6493 55.2846 68.2094 55.4933C67.1429 55.9985 65.4826 55.3615 64.8888 54.2302C64.6029 53.6811 64.6249 52.6048 64.9437 51.6822C65.6365 49.6394 67.033 48.6509 68.6053 49.0793ZM17.0579 50.2654L17.6626 51.4625L15.0896 53.7031C13.6821 54.9332 12.5496 55.9546 12.5606 55.9765C12.5936 56.0095 15.5514 55.3945 18.8062 54.6806L19.2239 54.5927L19.8287 55.8008C20.1586 56.4707 20.4225 57.0199 20.4005 57.0419C20.3015 57.1297 12.6046 60.9408 12.5166 60.9408C12.4177 60.9408 11.692 59.524 11.7579 59.4581C11.7799 59.4472 13.1324 58.7552 14.7597 57.9425C16.3981 57.1188 17.6406 56.4488 17.5416 56.4488C17.4426 56.4378 15.9143 56.7563 14.144 57.1517C12.3847 57.5471 10.9223 57.8546 10.9112 57.8436C10.8013 57.7228 10.0866 56.328 10.0866 56.2511C10.0866 56.1962 11.2522 55.1528 12.6706 53.9227C14.1 52.6927 15.2436 51.6602 15.2106 51.6383C15.1886 51.6163 13.8251 52.2643 12.1868 53.077L9.20697 54.5708L8.8771 53.9118C8.70112 53.5493 8.54724 53.1979 8.54724 53.121C8.54724 53.0002 16.1122 49.1013 16.3761 49.0902C16.42 49.0793 16.728 49.6174 17.0579 50.2654ZM63.5034 57.591C63.8112 57.6898 64.1961 57.8766 64.339 58.0084L64.6139 58.25L64.0421 58.887L63.4593 59.524L63.1075 59.3373C62.8546 59.2165 62.6237 59.1836 62.3598 59.2384C61.5571 59.3813 60.5345 60.6992 60.7655 61.2923C60.8754 61.5888 61.2053 61.8963 61.4362 61.9293C61.821 61.9842 62.019 61.8963 63.1295 61.1605C65.1197 59.8535 65.7024 59.6449 66.6041 59.9084C67.2748 60.1061 68.0445 60.8529 68.3084 61.5448C68.5613 62.1929 68.4954 63.1374 68.1435 63.8513C67.7476 64.642 66.5931 65.8172 65.8564 66.1797C64.9767 66.608 64.0312 66.608 63.2175 66.1577C62.9096 65.9929 62.6457 65.7952 62.6457 65.7293C62.6457 65.6525 62.9096 65.345 63.2284 65.0265L63.8002 64.4663L64.251 64.6201C64.8558 64.8288 65.3286 64.686 65.9663 64.1259C66.868 63.3461 67.0549 62.5773 66.4941 62.0172C66.0104 61.5339 65.6145 61.6327 64.1301 62.6212C62.5357 63.6975 62.2608 63.8293 61.6011 63.8293C60.8974 63.8403 60.2816 63.5218 59.6879 62.8518C59.171 62.2697 58.9621 61.6437 59.0611 60.9958C59.281 59.5679 60.8534 57.8656 62.2608 57.5251C62.7666 57.4043 62.8876 57.4153 63.5034 57.591ZM25.4255 61.6107C25.8213 61.9293 26.1402 62.2478 26.1402 62.3247C26.1402 62.4894 23.2153 71.0451 23.1274 71.122C23.0834 71.1769 21.632 70.0896 21.632 70.0127C21.632 70.0017 21.775 69.5843 21.9618 69.1011L22.2807 68.2115L20.9722 67.1572C20.2465 66.575 19.6308 66.1028 19.5978 66.1028C19.5649 66.1028 19.202 66.3334 18.7732 66.608L18.0145 67.1132L17.2888 66.5421C16.8929 66.2346 16.574 65.9381 16.574 65.9051C16.585 65.7733 24.4359 60.9628 24.5678 61.0067C24.6448 61.0287 25.0296 61.3032 25.4255 61.6107ZM56.862 63.4229C57.0269 63.7634 57.1259 64.0819 57.0709 64.1368C57.0269 64.1807 56.1692 64.6531 55.1687 65.1802C54.1681 65.6964 53.3104 66.1687 53.2554 66.2236C53.1344 66.3334 53.8272 67.86 53.9921 67.86C54.0581 67.86 54.9157 67.4317 55.9164 66.9155C57.3568 66.1577 57.7416 65.9929 57.8296 66.1138C57.8845 66.2016 58.0495 66.4982 58.1925 66.7837L58.4673 67.2999L57.3897 67.871C55.1466 69.0682 54.7178 69.3098 54.7508 69.3757C55.0807 70.0676 55.7404 71.2647 55.7844 71.2647C55.8284 71.2647 56.785 70.7705 57.9286 70.1664C59.0721 69.5514 60.0507 69.0791 60.0947 69.1121C60.2047 69.178 60.8314 70.485 60.7655 70.5289C60.6445 70.6387 55.0477 73.5711 54.9707 73.5711C54.8827 73.5711 50.7264 65.7733 50.7924 65.7293C50.8034 65.7074 51.9359 65.1143 53.2994 64.4004C54.6629 63.6865 55.8723 63.0386 55.9933 62.9616C56.3892 62.7091 56.5431 62.7859 56.862 63.4229ZM32.3308 65.6195C34.4089 66.2565 35.0027 66.5201 35.5965 67.0473C36.608 67.9589 36.9049 69.2768 36.4871 70.9352C36.0253 72.7803 35.2776 73.8787 34.123 74.4498C32.9575 75.0209 32.2428 74.955 29.186 73.9994C28.2844 73.7139 27.7896 73.5052 27.8225 73.4284C27.8446 73.3515 28.4273 71.4953 29.109 69.2878C29.7908 67.0802 30.3625 65.2461 30.3955 65.1912C30.4725 65.0704 30.5604 65.0814 32.3308 65.6195ZM47.9445 67.2231C48.2304 69.3098 48.8022 75.4602 48.7252 75.5371C48.6702 75.592 48.2414 75.6689 47.7796 75.7128L46.9329 75.7897L44.8658 73.022C43.7332 71.5064 42.7876 70.3202 42.7656 70.3861C42.7436 70.441 42.8536 71.7589 43.0185 73.2966C43.1835 74.8452 43.3043 76.1302 43.2714 76.1522C43.2494 76.1741 42.8536 76.229 42.3918 76.2729L41.5451 76.3498L41.4901 75.9764C41.4571 75.7677 41.2482 73.9226 41.0393 71.8688C40.8303 69.815 40.6324 68.0028 40.5994 67.838C40.5445 67.4866 40.5994 67.4647 41.71 67.3658L42.4797 67.289L43.2604 68.3213C43.6783 68.8814 44.6129 70.1225 45.3166 71.0781C46.0313 72.0445 46.6251 72.8023 46.658 72.7694C46.6801 72.7474 46.5811 71.5832 46.4271 70.1774C46.2732 68.7826 46.1523 67.4647 46.1523 67.256C46.1523 66.8936 46.1742 66.8825 46.6251 66.8386C47.9225 66.7288 47.8786 66.7068 47.9445 67.2231Z" fill="black"></path>
<path d="M27.9548 11.6165C27.1411 11.9679 26.7563 12.1876 26.7782 12.2974C26.8662 12.6489 27.614 14.2634 27.6909 14.2634C27.7459 14.2634 28.2956 14.0218 28.9224 13.7362C30 13.231 30.5387 12.7917 30.5387 12.4403C30.5387 12.0668 30.1649 11.3859 29.868 11.2431C29.4172 11.0015 29.2852 11.0344 27.9548 11.6165Z" fill="black"></path>
<path d="M55.6195 14.2183C54.8938 14.9212 54.2891 15.5252 54.2891 15.5692C54.2891 15.646 56.2683 16.7224 56.3233 16.6674C56.3782 16.6015 57.0379 13.0101 56.994 12.9772C56.972 12.9552 56.3563 13.5153 55.6195 14.2183Z" fill="black"></path>
<path d="M39.3347 22.0047C39.2467 22.0267 38.796 22.0926 38.3451 22.1695C30.967 23.3227 24.6005 29.0338 22.6434 36.2276C22.0716 38.3473 22.0166 38.7976 22.0166 41.5543C22.0276 44.4977 22.1376 45.2775 22.8963 47.6278C26.2609 57.9298 37.4765 63.553 47.7793 60.1154C54.6516 57.8199 59.7866 51.7794 60.9521 44.6295C61.194 43.1688 61.227 40.2583 61.018 38.8196C60.8092 37.4028 60.2923 35.5027 59.7645 34.2177C57.2466 28.0673 52.0126 23.7071 45.4153 22.2683C44.5466 22.0816 43.8649 22.0267 41.9187 22.0047C40.5882 21.9828 39.4227 21.9828 39.3347 22.0047ZM40.6652 26.969C41.8747 28.6494 42.0946 30.0771 41.6438 33.2073C41.215 36.1617 41.237 38.3034 41.7207 40.0716C42.0946 41.4664 43.3591 42.2902 43.9419 41.5433C44.2388 41.1699 44.2277 40.9613 43.8979 39.808C43.5131 38.4791 43.535 38.3802 44.0848 39.0282C44.3377 39.3248 45.2173 40.2693 46.042 41.115C48.2191 43.3445 48.758 44.0694 49.4067 45.618C49.7146 46.3538 49.7256 46.4637 49.7146 47.9244C49.6926 50.4065 49.1538 52.043 47.8014 53.7233C46.7458 55.0303 45.8771 55.6014 44.3267 55.9968C43.3811 56.2384 41.8637 56.4031 41.8637 56.2604C41.8747 56.2055 42.0946 55.9968 42.3585 55.7991C43.8539 54.7009 44.7996 52.5482 44.7006 50.4724C44.6676 49.7475 44.5906 49.4071 44.2937 48.7481C43.7989 47.6388 42.9963 46.4087 41.8747 45.0139C40.1044 42.8283 39.4996 41.5323 39.2248 39.3248C39.0269 37.7982 39.2248 36.5461 39.9944 34.2068C40.8521 31.6368 41.05 30.5604 40.8741 29.3743C40.7641 28.6494 40.4123 27.3205 40.1374 26.5956C40.0165 26.2771 40.3133 26.4857 40.6652 26.969Z" fill="black"></path>
<path d="M22.5117 64.123C21.698 64.6611 21.0273 65.1335 21.0382 65.1774C21.0602 65.3311 22.7865 66.6381 22.8635 66.5612C22.9295 66.4953 24.161 63.2773 24.161 63.1784C24.161 63.0686 23.8751 63.2334 22.5117 64.123Z" fill="black"></path>
<path d="M30.8795 69.6926C30.4397 71.1311 30.0659 72.3501 30.0549 72.416C30.033 72.5918 31.7481 73.1189 32.3308 73.1299C33.5622 73.1299 34.3648 72.1305 34.7277 70.1209C35.0025 68.6383 34.5297 67.9794 32.7926 67.4303C32.2209 67.2435 31.7261 67.0898 31.7151 67.0898C31.6931 67.0898 31.3193 68.2649 30.8795 69.6926Z" fill="black"></path>
</svg>