<svg width="51" height="68" viewBox="0 0 51 68" fill="none" xmlns="http://www.w3.org/2000/svg">
<path d="M1.37207 0.847656H44.2066C39.9891 2.42674 27.1502 11.1095 23.9436 16.9472H1.40964L1.37207 0.847656Z" fill="#F5821F"></path>
<path d="M35.5101 46.9805C34.8986 52.8108 34.8739 59.9106 34.8739 67.3683H16.3076C16.3076 59.9106 16.6197 52.8108 17.2309 46.9805H35.5101Z" fill="#ED1B2D"></path>
<path d="M6.78771 38.5557V40.8153H3.81816V43.0759H6.78771V45.6658H0V33.6133H6.78771V36.2977H3.81816V38.5557H6.78771Z" fill="#008061"></path>
<path d="M22.571 38.5557V40.8153H19.6143V43.0759H22.571V45.6658H15.7959V33.6133H22.571V36.2977H19.6143V38.5557H22.571Z" fill="#008061"></path>
<path d="M39.9643 38.5557V40.8153H36.9948V43.0759H39.9643V45.6658H33.1768V33.6133H39.9643V36.2977H36.9948V38.5557H39.9643Z" fill="#008061"></path>
<path d="M11.8777 33.6133V43.0759H14.8471V45.6658H8.05957V33.6133H11.8777Z" fill="#008061"></path>
<path d="M28.0483 41.7589L26.6006 33.6133H23.2695L25.1657 45.6658H30.0693L32.3652 33.6133H29.5329L28.0483 41.7589Z" fill="#008061"></path>
<path d="M41.5732 33.6133H45.2418V45.6645H41.5732V33.6133Z" fill="#008061"></path>
<path d="M45.2412 37.189C45.4411 35.8688 47.3125 36.2229 47.3125 36.9768V45.6634H50.9933V35.4478C50.9933 33.2818 47.9365 32.4106 45.2662 34.3174L45.2412 37.189Z" fill="#008061"></path>
<path d="M37.232 31.9174C37.606 27.3047 43.932 19.7723 50.0584 17.7945V0C33.2019 7.53264 22.2466 18.9248 19.876 31.8726L37.232 31.9174Z" fill="#ED1B2D"></path>
</svg>