<svg width="172" height="39" viewBox="0 0 172 39" fill="none" xmlns="http://www.w3.org/2000/svg">
<path d="M89.7416 0.0256156C84.9267 0.405422 81.4581 3.38242 80.5073 7.95571C80.2813 9.02844 80.2402 9.475 80.2402 10.8557C80.2402 12.1902 80.2762 12.606 80.4765 13.6274C80.8776 15.6445 81.9876 17.6206 83.416 18.8679C84.8188 20.0895 86.5251 20.8337 88.5186 21.0955C89.2741 21.193 90.7642 21.193 91.453 21.0955C92.9123 20.8902 94.2277 20.3667 95.1425 19.6224C95.3839 19.4274 95.5791 19.2888 95.5842 19.3093C95.5842 19.335 95.6258 19.6481 95.672 20.0176L95.7593 20.6849L98.1642 20.7003L100.564 20.7106V14.9875V9.26455H95.8364H91.1088V11.7282V14.192H92.4191C93.3082 14.192 93.7294 14.2074 93.7294 14.2484C93.7294 14.2741 93.5497 14.4794 93.3339 14.695C92.8763 15.1518 92.3113 15.4649 91.6995 15.6086C91.1653 15.7318 90.2454 15.6856 89.6902 15.506C88.1179 15.003 87.311 13.3964 87.3059 10.7736C87.3007 8.21747 88.1128 6.29781 89.4385 5.72294C89.9937 5.48684 90.8875 5.42527 91.5146 5.5895C92.5013 5.84099 93.2462 6.59553 93.5497 7.63234L93.6318 7.93002H97.0234H100.41L100.389 7.81196C100.374 7.75039 100.312 7.44241 100.25 7.13448C100.096 6.32351 99.8392 5.5895 99.4591 4.82474C98.1488 2.2019 95.6925 0.54404 92.4705 0.107739C91.7355 0.0102188 90.4612 -0.0308451 89.7416 0.0256156Z" fill="#C92027"></path>
<path d="M156.041 0.0269124C152.572 0.268139 150.08 1.6078 148.97 3.82514C148.127 5.49839 148.179 8.01345 149.078 9.49681C149.469 10.1436 150.208 10.8827 150.948 11.3754C151.359 11.6526 152.367 12.1402 153.004 12.3763C153.287 12.4789 154.453 12.8023 155.599 13.0897C158.616 13.8545 159.237 14.0906 159.484 14.5628C159.612 14.8041 159.556 15.1839 159.371 15.3789C159.032 15.7331 158.297 15.9384 157.377 15.9384C155.943 15.9384 154.998 15.3173 154.777 14.2292L154.72 13.9366H151.323H147.927L147.963 14.455C148.122 16.8982 149.618 18.9513 152.12 20.1472C153.667 20.8915 155.018 21.1738 156.997 21.1738C160.368 21.1738 162.988 20.3269 164.597 18.7152C165.486 17.8272 165.989 16.9136 166.262 15.6972C166.375 15.2095 166.421 13.7519 166.344 13.2129C166.179 12.0991 165.625 11.0418 164.772 10.2462C163.59 9.14266 162.089 8.50622 158.765 7.70038C156.36 7.11521 155.388 6.68409 155.239 6.13487C155.131 5.73454 155.347 5.47274 155.892 5.34442C156.894 5.09806 158.076 5.26742 158.605 5.73454C158.883 5.9809 158.991 6.16566 159.068 6.54551L159.129 6.82779L162.5 6.84319L165.876 6.85345V6.70461C165.876 6.20162 165.573 5.03131 165.244 4.28708C164.792 3.24514 163.852 2.12619 162.896 1.49488C161.801 0.760914 160.306 0.247616 158.811 0.0833733C158.101 0.00638073 156.776 -0.0192823 156.041 0.0269124Z" fill="#C92027"></path>
<path d="M0 10.5741V20.66H3.54571H7.09138V17.2467V13.8334H10.5857H14.08V11.2157V8.598H10.5857H7.09138V7.16086V5.72371H11.485H15.8785V3.10599V0.488281H7.93929H0V10.5741Z" fill="#C92027"></path>
<path d="M18.7046 10.5741V20.66H22.2503H25.796V10.5741V0.488281H22.2503H18.7046V10.5741Z" fill="#C92027"></path>
<path d="M28.2781 0.601203C28.2935 0.667946 29.8403 5.20528 31.7159 10.687L35.1229 20.66H38.5966H42.0704L45.5442 10.6614C47.4508 5.16423 49.0282 0.626857 49.0487 0.575548C49.0847 0.493412 48.8946 0.488281 45.4671 0.488281H41.8495L40.2306 6.39093C39.347 9.63482 38.6069 12.2936 38.5915 12.2936C38.5761 12.2936 37.8822 9.71183 37.0552 6.5552C36.2226 3.40367 35.5237 0.744909 35.498 0.652554L35.4517 0.488281H31.8495H28.2524L28.2781 0.601203Z" fill="#C92027"></path>
<path d="M51.438 10.5741V20.66H59.9167H68.3958V18.0423V15.4245H63.4624H58.5293V14.244V13.0635H62.5634H66.5971V10.4458V7.82812H62.5634H58.5293V6.77591V5.72371H63.2826H68.0358V3.10599V0.488281H59.7369H51.438V10.5741Z" fill="#C92027"></path>
<path d="M104.176 6.94014C104.191 13.8283 104.186 13.6486 104.448 14.9369C104.649 15.943 105.121 17.103 105.651 17.9037C106.011 18.4478 106.73 19.1869 107.28 19.5769C108.102 20.1672 109.202 20.624 110.353 20.855C111.612 21.1168 112.002 21.1476 113.898 21.1424C115.496 21.1424 115.779 21.1322 116.416 21.0295C118.657 20.6754 120.132 20.0184 121.303 18.843C122.475 17.6676 123.086 16.3279 123.446 14.1157C123.549 13.4638 123.554 13.2791 123.569 6.9658L123.59 0.488281H120.044H116.499L116.478 6.99145C116.463 12.8787 116.452 13.5306 116.375 13.8488C116.134 14.824 115.599 15.3989 114.741 15.6042C114.047 15.7633 112.932 15.6761 112.424 15.4194C112.11 15.2603 111.735 14.8805 111.586 14.5828C111.273 13.9412 111.283 14.2286 111.268 7.0428L111.247 0.488281H107.701H104.155L104.176 6.94014Z" fill="#C92027"></path>
<path d="M125.229 0.511457C125.229 0.52685 126.919 3.42171 128.98 6.94276L132.731 13.3536V17.0029V20.6575H136.277H139.823V16.9516V13.2509L143.574 6.89658C145.64 3.40632 147.325 0.531981 147.325 0.516588C147.325 0.501196 145.552 0.490934 143.389 0.496065L139.448 0.511457L137.901 3.55003C137.053 5.22328 136.344 6.59373 136.328 6.59373C136.313 6.59373 135.609 5.22328 134.761 3.55003L133.22 0.511457L129.227 0.496065C127.027 0.490934 125.229 0.496065 125.229 0.511457Z" fill="#C92027"></path>
<path d="M50.4364 28.2403C50.2156 28.2659 49.9947 28.3019 49.9484 28.3224C49.9074 28.3429 49.8508 28.3635 49.82 28.3635C49.7943 28.3686 49.7327 28.3891 49.6916 28.4045C49.6505 28.4199 49.4861 28.4713 49.3316 28.5226C48.9463 28.6406 48.556 28.8408 48.0778 29.1693C47.8569 29.3181 47.636 29.467 47.5898 29.4927C47.3689 29.6313 46.3514 30.5911 46.3514 30.6629C46.3514 30.6886 46.2744 30.8015 46.1768 30.9196C45.6729 31.5406 45.226 32.5415 45.1387 33.2396C45.1233 33.3781 45.0976 33.5321 45.0822 33.5732C45.0514 33.6759 45.0514 35.0155 45.0822 35.113C45.0976 35.1541 45.1387 35.344 45.1695 35.539C45.2414 35.9959 45.4777 36.5964 45.6986 36.8941C45.9405 37.2175 46.4285 37.6845 46.6956 37.8539C46.9216 37.9925 47.3484 38.1516 47.7388 38.244C48.1138 38.3312 49.383 38.3056 49.9433 38.1978C50.8632 38.0181 51.778 37.5562 52.4817 36.9095C52.8105 36.6066 53.2835 36.0472 53.4427 35.7546C53.5044 35.6417 53.6585 35.3748 53.7818 35.1644C54.3318 34.2045 54.5733 32.7571 54.2651 32.249C54.1058 31.9923 53.8999 31.9153 53.4427 31.9461C53.0678 31.9718 51.2896 32.3516 51.1252 32.444C51.0225 32.4953 50.5704 32.5774 50.1025 32.6236C49.5529 32.6801 49.3676 32.8495 49.3059 33.3525C49.2648 33.6656 49.3881 33.9222 49.6402 34.0505C49.9279 34.1994 50.853 34.1429 51.7985 33.9171C52.2095 33.8144 52.5485 33.7426 52.5485 33.7426C52.5537 33.7477 52.492 33.9273 52.4047 34.1378C52.2044 34.6408 51.7831 35.2208 51.2331 35.7444C50.3337 36.6066 49.9073 36.776 48.7922 36.7401C48.011 36.7144 47.7645 36.6323 47.4306 36.2833C47.2405 36.0934 46.9062 35.539 46.8908 35.3953C46.8856 35.3645 46.8548 35.2721 46.8189 35.19C46.6648 34.841 46.7007 33.6502 46.8754 33.2242C46.9062 33.1472 46.937 33.0753 46.9421 33.0599C46.9627 32.9932 47.2354 32.444 47.3535 32.2387C47.6823 31.6484 48.6741 30.6886 49.3162 30.3242C50.195 29.8314 50.534 29.7493 51.4231 29.8263C52.04 29.8828 52.1581 29.929 52.1581 30.124C52.1581 30.2985 52.3225 30.5705 52.4766 30.6527C52.6513 30.7451 53.1551 30.8426 53.2373 30.7964C53.2784 30.7759 53.3914 30.7296 53.4838 30.6937C53.6996 30.6167 53.8948 30.3139 53.941 30.0059C53.9616 29.8212 53.9462 29.7339 53.828 29.5132C53.6636 29.195 53.3965 28.8305 53.2886 28.769C52.9907 28.5996 52.4612 28.3686 52.3944 28.384C52.3739 28.3891 52.3225 28.3686 52.2814 28.3378C52.2454 28.3019 52.1633 28.2813 52.0965 28.2916C52.0297 28.2967 51.9424 28.2865 51.9013 28.2711C51.7523 28.2146 50.8427 28.1941 50.4364 28.2403Z" fill="#C92027"></path>
<path d="M106.088 28.3369C106.068 28.3677 106.027 28.3831 105.996 28.3728C105.898 28.3369 105.574 28.5217 105.43 28.6962C105.209 28.9528 105.179 29.461 105.369 29.6714C105.441 29.7484 105.451 29.9024 105.435 30.7544L105.42 31.7502L105.25 31.7553C105.158 31.7604 105.071 31.7399 105.055 31.7142C105.019 31.6578 104.793 31.6629 104.752 31.7245C104.737 31.7502 104.634 31.7758 104.531 31.7758C103.971 31.7758 103.077 32.1762 102.424 32.7203C101.956 33.1103 101.289 33.8084 101.109 34.101C101.052 34.1934 100.99 34.2755 100.975 34.2909C100.867 34.3935 100.441 35.3482 100.379 35.6203C100.235 36.3029 100.317 37.2063 100.559 37.5964C100.734 37.8735 101.052 38.1302 101.33 38.2123C101.582 38.2841 102.563 38.3303 102.722 38.279C102.763 38.2636 102.938 38.2123 103.108 38.1661C103.277 38.1199 103.545 38.0121 103.699 37.9249C104.279 37.6015 105.209 36.8367 105.297 36.6109C105.322 36.5493 105.358 36.498 105.379 36.498C105.446 36.498 105.446 36.924 105.379 37.0061C105.348 37.042 105.317 37.2063 105.317 37.3654C105.317 37.5861 105.348 37.6939 105.435 37.8222C105.615 38.0686 105.795 38.1404 106.242 38.1404C106.905 38.1404 107.157 37.9351 107.147 37.4013C107.142 37.2576 107.121 35.2918 107.101 33.0334C107.065 29.2095 107.059 28.9169 106.972 28.7578C106.88 28.5935 106.592 28.3779 106.427 28.3574C106.381 28.3523 106.294 28.3318 106.237 28.3112C106.17 28.2907 106.109 28.301 106.088 28.3369ZM105.266 33.3157C105.374 33.3157 105.441 33.5774 105.369 33.7519C105.112 34.4089 104.881 34.7425 104.187 35.4663C103.411 36.2721 102.681 36.7546 102.234 36.7546C102.085 36.7546 102.049 36.7341 102.023 36.6212C101.967 36.3953 102.039 36.0103 102.214 35.6408C102.62 34.7734 103.709 33.6698 104.397 33.4388C104.696 33.3362 105.04 33.2695 105.127 33.2951C105.168 33.3054 105.225 33.3157 105.266 33.3157Z" fill="#C92027"></path>
<path d="M117.908 28.3369C117.887 28.3677 117.82 28.3882 117.764 28.3831C117.702 28.3779 117.594 28.3934 117.522 28.4242C117.45 28.4498 116.762 28.5627 115.991 28.6705L114.588 28.8605L114.465 28.7475C114.254 28.5473 113.648 28.5011 113.334 28.6551C113.082 28.7835 112.949 28.9785 112.815 29.4045C112.671 29.8664 112.671 30.2463 112.825 30.4618C112.882 30.544 112.897 30.7801 112.897 31.591C112.897 32.4944 112.887 32.6279 112.81 32.7151C112.738 32.787 112.718 32.9051 112.718 33.1873C112.718 33.4696 112.738 33.5877 112.81 33.6595C112.887 33.7519 112.897 33.9008 112.897 35.1583C112.897 36.4517 112.892 36.5698 112.795 36.7546C112.646 37.042 112.656 37.504 112.81 37.7298C112.985 37.9864 113.221 38.0891 113.648 38.0891C113.848 38.0891 114.09 38.0634 114.187 38.0326C114.588 37.8941 114.825 37.4219 114.696 37.0061C114.645 36.847 114.619 36.3799 114.609 35.3842L114.588 33.9932L114.732 33.9624C114.809 33.947 115.395 33.8649 116.032 33.7776C116.669 33.6903 117.229 33.598 117.276 33.5723C117.327 33.5415 117.558 33.521 117.789 33.521C118.026 33.521 118.273 33.4902 118.345 33.4542C118.642 33.3054 118.817 32.7613 118.704 32.3404C118.642 32.1197 118.339 31.8272 118.165 31.8272C118.103 31.8272 118.031 31.8015 117.995 31.7656C117.954 31.7245 117.903 31.7194 117.82 31.7605C117.553 31.8888 117.075 31.9863 116.006 32.1351C115.384 32.2224 114.814 32.3045 114.737 32.3199L114.593 32.3507V31.4473C114.593 30.5542 114.593 30.544 114.712 30.5234C114.773 30.5081 115.266 30.4362 115.801 30.3643C116.34 30.2925 116.813 30.2103 116.86 30.1898C116.901 30.1642 116.998 30.1539 117.07 30.1693C117.142 30.1847 117.219 30.1693 117.235 30.1385C117.26 30.1025 117.496 30.082 117.877 30.082C118.422 30.082 118.504 30.0718 118.658 29.964C118.755 29.9024 118.874 29.7638 118.93 29.6509C119.043 29.4199 119.053 28.9785 118.956 28.7681C118.863 28.5781 118.55 28.3779 118.334 28.3626C118.242 28.3574 118.113 28.3318 118.057 28.3112C117.99 28.2907 117.928 28.301 117.908 28.3369Z" fill="#C92027"></path>
<path d="M22.6357 28.4956C22.1424 28.5418 21.0273 28.7625 20.6933 28.8806C20.5135 28.9422 20.4826 28.9422 20.349 28.8446C20.0253 28.6034 19.3573 28.6752 19.0592 28.9832C18.8897 29.1578 18.8845 29.1783 18.8999 29.5068C18.9051 29.6967 18.9256 31.4007 18.9359 33.2998C18.9616 36.6875 18.9616 36.7542 18.8588 36.9185C18.7303 37.1289 18.7201 37.6114 18.8331 37.832C18.8794 37.9193 19.0027 38.0322 19.1158 38.0887C19.5217 38.294 20.7447 38.2016 22.091 37.8629C22.384 37.7859 22.6512 37.7089 22.682 37.6883C22.7128 37.6729 22.7488 37.6524 22.7642 37.6473C22.7796 37.6473 22.9029 37.5959 23.0365 37.5344C23.1753 37.4728 23.3089 37.4214 23.3397 37.4214C23.4939 37.4214 24.7837 36.5746 25.0201 36.323C25.092 36.2512 25.1691 36.1896 25.2051 36.1896C25.2616 36.1896 25.5391 35.897 25.5391 35.8303C25.5391 35.8098 25.5751 35.7585 25.6265 35.7225C25.7447 35.6198 26.1198 35.0244 26.2174 34.7781C26.3407 34.465 26.4281 33.8439 26.3921 33.5359C26.3305 33.0227 26.0427 32.5146 25.6367 32.2066C25.4671 32.0834 24.979 31.8832 24.7118 31.8268L24.424 31.7703L24.6964 31.4931C24.8608 31.3237 25.0304 31.0774 25.128 30.8669C25.2154 30.6719 25.3079 30.4769 25.3335 30.4307C25.3593 30.3793 25.3695 30.3075 25.3541 30.2664C25.3387 30.2254 25.349 30.1791 25.3798 30.1586C25.4517 30.1176 25.4517 29.7891 25.385 29.748C25.3541 29.7274 25.3335 29.6864 25.3387 29.6556C25.3592 29.5324 25.2205 29.2809 25.0098 29.0654C24.7066 28.7522 24.3624 28.5931 23.8176 28.511C23.3141 28.434 23.3089 28.434 22.6357 28.4956ZM23.6224 30.1022C23.7303 30.1586 23.7303 30.1637 23.6532 30.328C23.4579 30.7335 22.5689 31.37 21.8803 31.6009C21.6748 31.6728 21.459 31.7498 21.4024 31.7754C21.2843 31.8319 20.8783 31.9243 20.7499 31.9294C20.6676 31.9294 20.6574 31.8627 20.6574 31.2673V30.6052L20.904 30.5025C21.0376 30.4461 21.2843 30.3639 21.4539 30.3178C21.6234 30.2715 21.7981 30.2151 21.8392 30.1997C21.8803 30.1791 21.942 30.1586 21.9677 30.1586C21.9986 30.1535 22.0551 30.133 22.1013 30.1124C22.384 29.9892 23.386 29.979 23.6224 30.1022ZM24.0437 33.2793C24.6141 33.3974 24.7991 33.6694 24.6398 34.157C24.5885 34.3007 24.4857 34.5061 24.4034 34.619C24.239 34.8448 23.7251 35.2965 23.535 35.3837C23.4631 35.4197 23.2318 35.548 23.0211 35.6712C22.8105 35.7944 22.533 35.9432 22.4045 35.9946C22.091 36.1331 21.2997 36.3744 21.0171 36.4205C20.8886 36.4411 20.755 36.4822 20.7241 36.5078C20.6728 36.5489 20.6574 36.2614 20.6574 35.1015C20.6574 34.0133 20.6728 33.6232 20.7241 33.5565C20.8064 33.4436 21.6183 33.2742 22.348 33.2177C22.9595 33.1664 23.6327 33.192 24.0437 33.2793Z" fill="#C92027"></path>
<path d="M33.7663 28.4954C33.5094 28.5519 33.2679 28.7469 33.1651 28.9933C33.0829 29.1883 33.0726 29.4911 33.1445 29.6246C33.1805 29.6913 33.1959 30.7538 33.1959 32.6119V35.5016L33.0212 35.7428C32.8671 35.943 32.4457 36.2972 32.3583 36.2972C32.3429 36.2972 32.2196 36.3485 32.0808 36.4101C31.9472 36.4717 31.8239 36.523 31.8085 36.523C31.793 36.5281 31.7622 36.5435 31.7314 36.5641C31.6235 36.6308 31.0582 36.7078 30.6831 36.7078C30.1281 36.7027 29.9072 36.6462 29.7376 36.4409L29.5937 36.2715L29.5988 32.771V29.2756L29.4858 29.0754C29.3162 28.7726 29.1878 28.6545 28.9668 28.593C28.5454 28.48 27.9082 28.7726 27.8979 29.0805C27.8979 29.137 27.8979 30.8411 27.9031 32.8582L27.9082 36.5281L28.0315 36.8823C28.0983 37.0774 28.196 37.2724 28.2474 37.3237C28.2987 37.375 28.3758 37.4572 28.4221 37.5085C28.6585 37.7857 29.1312 38.0423 29.6451 38.1757C29.9123 38.2425 30.1538 38.2527 30.8784 38.2322C32.1168 38.2014 32.7231 38.032 33.4529 37.5188C33.6276 37.4007 33.8177 37.2724 33.8691 37.2416C33.9924 37.1698 34.4755 36.6924 34.4806 36.6411C34.4806 36.6154 34.5371 36.523 34.6039 36.4357C34.8711 36.0867 34.866 36.1689 34.902 32.7556C34.9225 30.9899 34.9482 29.4193 34.9534 29.2653C34.9636 28.9317 34.8557 28.6853 34.6399 28.5775C34.4498 28.4749 34.0438 28.4389 33.7663 28.4954Z" fill="#C92027"></path>
<path d="M37.6777 28.4903C37.1636 28.6083 36.9427 28.9728 37.0403 29.5168C37.0917 29.7991 37.0917 29.7991 36.9016 29.989C36.7989 30.0968 36.7167 30.2046 36.7167 30.2303C36.7167 30.256 36.7013 30.297 36.6807 30.3175C36.6551 30.338 36.6396 30.4767 36.6396 30.6306C36.6396 30.9284 36.7989 31.2568 36.9992 31.3646C37.102 31.4211 37.102 31.4673 37.102 34.0798C37.102 36.4101 37.0917 36.7643 37.0198 36.9388C36.8554 37.3289 37.0249 37.8781 37.3434 38.0115C37.6263 38.1296 38.2325 38.1142 38.5047 37.9807C38.6952 37.8883 38.7466 37.8319 38.8236 37.6163C38.9058 37.3904 38.9058 37.3186 38.8545 37.0158C38.8134 36.8002 38.798 36.2972 38.8082 35.635L38.8236 34.5982L39.214 34.9421C39.4246 35.1372 40.175 35.7993 40.8839 36.4204C41.5881 37.0363 42.282 37.6676 42.4207 37.8113C42.7597 38.1604 42.8316 38.1911 43.3098 38.1911C43.7515 38.1911 43.9467 38.1039 44.1573 37.8216C44.3525 37.5547 44.3577 36.9901 44.1625 36.7643C44.07 36.6513 43.7721 36.482 43.6488 36.4717C43.5461 36.4665 43.3149 36.2869 42.0607 35.2244C41.3723 34.6393 40.6425 34.0336 40.4473 33.8797C40.247 33.7257 40.0877 33.5871 40.0826 33.5717C40.0826 33.5563 40.2161 33.5152 40.3805 33.4742C40.6733 33.4074 41.6857 32.966 41.7165 32.8942C41.7268 32.8685 41.7576 32.8531 41.7884 32.8531C41.999 32.8531 43.0628 31.8676 43.2272 31.5186C43.5563 30.8103 43.5461 30.8411 43.5409 30.3329C43.5409 29.8915 43.5255 29.8043 43.392 29.5425C43.0679 28.9009 42.6107 28.5827 41.8655 28.4903C41.0487 28.3876 39.9182 28.6084 39.1318 29.0241L38.8801 29.1627L38.7928 28.9933C38.6644 28.7418 38.4225 28.5416 38.2017 28.4851C37.9705 28.4338 37.9089 28.4338 37.6777 28.4903ZM41.6138 30.0558C41.7216 30.0763 41.7781 30.1328 41.8244 30.2611C41.8757 30.4151 41.8757 30.4664 41.7884 30.6614C41.7319 30.7846 41.6189 30.9643 41.5264 31.0669C41.2953 31.3287 40.5038 31.8625 40.0415 32.0575C39.5222 32.2834 39.2654 32.386 39.2192 32.3912C39.1986 32.3963 39.1575 32.4219 39.1216 32.4528C39.0856 32.4784 39.0342 32.4887 39.0086 32.4733C38.9829 32.4528 38.9469 32.463 38.9264 32.4938C38.8288 32.6529 38.798 32.4682 38.798 31.6572V30.7743L39.0959 30.6358C39.2551 30.5588 39.5531 30.4356 39.7483 30.3637C39.949 30.2919 40.1442 30.2149 40.1853 30.1995C40.2829 30.1584 40.2675 30.1636 40.5963 30.0917C41.0847 29.9839 41.2131 29.9788 41.6138 30.0558Z" fill="#C92027"></path>
<path d="M64.8864 28.495C64.624 28.5566 64.4647 28.6695 64.3312 28.8851C64.2336 29.0391 64.2233 29.1109 64.249 29.4343C64.2798 29.7936 64.2747 29.8141 64.1463 29.9322C64.0743 29.9989 63.9819 30.1272 63.9459 30.2196C63.7918 30.5789 63.91 31.1692 64.1617 31.3386L64.2849 31.4207L64.2593 34.177C64.249 35.6911 64.2284 37.1026 64.2233 37.3028C64.2079 37.6723 64.2079 37.6775 64.4031 37.8674L64.5932 38.0625H65.1227C65.5439 38.0625 65.6826 38.0419 65.7905 37.9701C66.0015 37.8315 66.0991 37.5543 66.058 37.1899C66.0374 37.0205 66.0118 36.3481 66.0015 35.7014L65.9758 34.5208L66.2481 34.7826C66.397 34.9264 67.1217 35.5731 67.8563 36.2147C68.5913 36.8614 69.3674 37.5543 69.5831 37.7596C70.0095 38.1702 70.1276 38.2164 70.6725 38.1805C71.0938 38.1548 71.3352 38.0008 71.4482 37.6775C71.5509 37.3849 71.5509 37.0975 71.4482 36.8819C71.3506 36.6715 71.0064 36.4251 70.8677 36.461C70.801 36.4764 70.6931 36.4251 70.5441 36.3019C70.4204 36.1993 69.7783 35.6501 69.1152 35.0855C68.4526 34.5208 67.7844 33.9562 67.6406 33.8331C67.4916 33.715 67.3683 33.597 67.3683 33.5713C67.3683 33.5508 67.4454 33.5148 67.5378 33.4994C67.6251 33.484 67.9436 33.3711 68.242 33.2479C69.4804 32.7398 70.4718 31.8159 70.688 30.9536C70.8112 30.4609 70.7701 29.8706 70.5801 29.4857C70.4204 29.1623 70.1173 28.7979 70.0043 28.7979C69.9684 28.7979 69.9376 28.7773 69.9376 28.7516C69.9376 28.726 69.7732 28.6541 69.5677 28.5874C69.0331 28.418 68.2677 28.4283 67.5019 28.6131C67.1937 28.6849 66.8388 28.7979 66.7052 28.8594C66.5768 28.921 66.4587 28.9724 66.4433 28.9775C66.4278 28.9775 66.3457 29.0237 66.2532 29.0699C66.0426 29.1828 66.0477 29.1828 66.0066 29.0031C65.9553 28.7568 65.7905 28.6028 65.5079 28.5155C65.2151 28.4283 65.1689 28.4283 64.8864 28.495ZM68.7094 30.0297C68.9046 30.0297 69.0639 30.194 69.0639 30.389C69.0639 30.9536 68.108 31.7389 66.8285 32.2368C66.659 32.3035 66.4946 32.3754 66.4638 32.401C66.433 32.4216 66.3148 32.4729 66.1967 32.514L65.9809 32.5909V31.6722C65.9809 31.0922 66.0015 30.7483 66.0323 30.7483C66.058 30.7483 66.3097 30.6456 66.5819 30.5276C67.2553 30.2247 67.281 30.2196 67.358 30.2299C67.3889 30.235 67.4197 30.2145 67.4197 30.1786C67.4197 30.1477 67.4556 30.1375 67.5019 30.1529C67.5481 30.1734 67.6149 30.1631 67.6508 30.1324C67.7176 30.0759 68.3807 29.9784 68.4886 30.0092C68.5296 30.0194 68.6272 30.0297 68.7094 30.0297Z" fill="#C92027"></path>
<path d="M76.2833 28.4937C75.6567 28.5656 74.8653 28.8068 74.6649 28.9813C74.6239 29.0172 74.4698 29.1096 74.3208 29.1814C74.177 29.2584 73.9249 29.4381 73.7554 29.5818C73.4677 29.8332 72.9747 30.3824 72.9695 30.4542C72.9695 30.4748 72.8869 30.6236 72.7893 30.7878C72.4863 31.2857 72.3836 31.6757 72.3784 32.2916C72.3784 32.5944 72.4092 32.9332 72.4452 33.0666C72.5531 33.4258 72.8458 33.78 73.1904 33.9545C73.4575 34.093 73.5499 34.1084 74.079 34.129C74.4184 34.1444 74.8036 34.129 74.9885 34.093C75.4153 34.0109 76.6279 33.6773 76.6998 33.6209C76.7306 33.5952 76.7717 33.5901 76.7871 33.6106C76.8077 33.626 76.8487 33.6157 76.8847 33.5849C76.9772 33.508 77.5528 33.4156 77.9432 33.4053C78.2565 33.4053 78.2873 33.4104 78.4209 33.5644C78.5442 33.703 78.5698 33.7748 78.5698 34.0007C78.5698 34.6216 78.2822 35.1759 77.7378 35.6327C77.3624 35.9458 77.1004 36.0946 76.6176 36.2845C76.407 36.3666 76.1857 36.4539 76.1292 36.4744C76.0727 36.5001 76.0162 36.5206 76.0008 36.5206C75.9854 36.5257 75.9443 36.5463 75.9032 36.5719C75.8673 36.5976 75.5694 36.6284 75.2509 36.6438L74.6649 36.6694L74.4954 36.4898C74.3824 36.3718 74.2849 36.1819 74.2027 35.9098C74.1102 35.6071 74.0225 35.4428 73.8632 35.2735C73.6629 35.0579 73.6321 35.0425 73.3342 35.022C73.0517 35.0015 72.9952 35.0169 72.815 35.14C72.4709 35.3761 72.3784 35.5814 72.3784 36.0895C72.3836 36.6643 72.5222 36.9774 73.0055 37.4598C73.6167 38.0808 74.0687 38.2194 75.3331 38.1783C75.9597 38.1578 76.2268 38.1219 76.5919 38.0244C77.1877 37.8601 77.234 37.8396 77.7532 37.5522C77.9894 37.4188 78.2463 37.275 78.3182 37.2391C78.5493 37.116 79.2534 36.4744 79.4743 36.187C79.7619 35.8124 80.0397 35.2119 80.1167 34.8064C80.1476 34.6216 80.1989 34.4523 80.2195 34.4215C80.2862 34.3548 80.276 33.2821 80.2143 33.2411C80.1835 33.2205 80.1732 33.1898 80.1886 33.1641C80.24 33.082 79.8959 32.4969 79.6694 32.2916C79.4743 32.112 79.3048 32.0196 78.7398 31.763C78.6828 31.7373 78.6058 31.7322 78.575 31.7476C78.5442 31.7681 78.5185 31.763 78.5185 31.7373C78.5185 31.6809 77.7069 31.6141 77.6248 31.6603C77.5939 31.6809 77.4856 31.6911 77.3778 31.6809C77.2699 31.6757 77.1569 31.686 77.121 31.7116C77.085 31.7322 77.008 31.7527 76.9515 31.7527C76.895 31.7527 76.8282 31.7681 76.7974 31.7886C76.7717 31.804 76.6176 31.8451 76.4635 31.881C76.0933 31.9631 74.7625 32.3378 74.6649 32.384C74.6239 32.4045 74.4954 32.4199 74.3824 32.4199C74.1256 32.4199 74.0327 32.2711 74.079 31.9323C74.1256 31.5885 74.3259 31.26 74.7368 30.8648C75.0656 30.5466 75.6926 30.1463 75.8159 30.1771C75.8365 30.1874 75.8827 30.1668 75.9186 30.1412C76.0162 30.0591 76.7306 29.9923 77.0131 30.0334C77.3521 30.0898 77.4548 30.1463 77.6248 30.3721C77.8353 30.6493 78.0203 30.7211 78.4825 30.7211C78.9247 30.7211 79.0993 30.6339 79.2329 30.3721C79.3356 30.1515 79.3253 29.669 79.2072 29.4637C78.9863 29.0891 78.3695 28.7246 77.671 28.5502C77.3572 28.4732 76.6844 28.4475 76.2833 28.4937Z" fill="#C92027"></path>
<path d="M121.15 28.496C120.667 28.614 120.477 28.8963 120.518 29.4455C120.544 29.7946 120.539 29.8202 120.415 29.9383C120.236 30.1025 120.143 30.3386 120.143 30.6466C120.143 30.9392 120.287 31.2779 120.451 31.3652C120.554 31.4216 120.554 31.4524 120.533 34.1522C120.523 35.6561 120.498 37.0471 120.477 37.2524L120.441 37.622L120.647 37.8427L120.858 38.0634L121.284 38.0788C121.787 38.0993 122.065 38.0223 122.219 37.817C122.307 37.699 122.327 37.6117 122.312 37.3294C122.265 36.0514 122.255 34.5988 122.291 34.5988C122.317 34.5988 122.373 34.6347 122.409 34.6861C122.45 34.7323 123.247 35.4457 124.177 36.267C125.112 37.0933 125.924 37.8273 125.986 37.8992C126.248 38.2071 126.947 38.2944 127.389 38.0737C127.584 37.9762 127.635 37.9197 127.713 37.7041C127.769 37.5399 127.795 37.3448 127.784 37.1703C127.764 36.9137 127.743 36.8726 127.522 36.6622C127.337 36.4877 127.25 36.4414 127.152 36.462C127.085 36.4723 127.029 36.462 127.029 36.4414C127.029 36.4158 127.003 36.3953 126.972 36.3953C126.942 36.3953 126.592 36.1181 126.191 35.7742C125.791 35.4355 125.05 34.8092 124.552 34.3832C124.048 33.9572 123.637 33.5928 123.637 33.5722C123.637 33.5517 123.714 33.5158 123.807 33.5004C124.146 33.4337 125.061 33.0231 125.441 32.7664C126.587 31.9914 127.075 31.1958 127.014 30.2103C126.947 29.1478 126.361 28.5832 125.205 28.4652C124.542 28.4036 123.149 28.7013 122.589 29.0298C122.327 29.1838 122.301 29.1838 122.301 29.0657C122.301 28.9271 122.111 28.6551 121.957 28.573C121.756 28.4754 121.392 28.4344 121.15 28.496ZM125.189 30.0922C125.318 30.1539 125.359 30.3643 125.287 30.5901C125.138 31.088 124.234 31.7861 123.211 32.1916C122.764 32.3712 122.738 32.3815 122.707 32.3712C122.692 32.3712 122.646 32.3917 122.604 32.4277C122.563 32.4585 122.466 32.5098 122.389 32.5406L122.25 32.597V31.6731C122.25 30.9083 122.26 30.7492 122.322 30.7492C122.363 30.7492 122.589 30.6568 122.825 30.5439C123.062 30.4259 123.381 30.2976 123.535 30.2565C123.689 30.2154 123.863 30.1539 123.92 30.1282C124.172 30.005 124.978 29.9793 125.189 30.0922Z" fill="#C92027"></path>
<path d="M129.7 28.4888C129.572 28.5094 129.402 28.5607 129.315 28.6069C128.981 28.7865 128.796 29.2536 128.924 29.5872C129.012 29.813 129.007 36.8134 128.919 36.8648C128.878 36.8904 128.853 37.029 128.853 37.2394C128.853 37.6089 128.935 37.7732 129.238 37.9784C129.382 38.0708 129.474 38.0914 129.839 38.0914C130.091 38.0914 130.337 38.0606 130.44 38.0195C130.661 37.9271 130.861 37.6603 130.841 37.496C130.83 37.4293 130.851 37.3728 130.882 37.3728C130.913 37.3728 130.923 37.3472 130.897 37.3061C130.877 37.2753 130.861 37.1984 130.856 37.1419C130.856 37.0803 130.815 36.9725 130.769 36.8955C130.682 36.7724 130.676 36.5106 130.676 33.344V29.931L130.815 29.7103C131.057 29.3306 130.939 28.7609 130.574 28.571C130.399 28.4786 129.998 28.4427 129.7 28.4888Z" fill="#C92027"></path>
<path d="M144.499 28.494C143.333 28.6121 142.305 29.1715 141.493 30.121C141.237 30.4187 140.841 31.0397 140.825 31.1628C140.825 31.1782 140.794 31.2347 140.764 31.2911C140.661 31.4759 140.579 32.1174 140.604 32.528C140.651 33.3338 141.011 33.8368 141.678 34.0421C141.997 34.1396 142.12 34.1498 142.696 34.1242C143.354 34.0934 144.237 33.9035 144.91 33.6418C144.951 33.6212 144.998 33.6058 145.013 33.6007C145.028 33.5955 145.075 33.5801 145.116 33.5648C145.501 33.4159 146.441 33.3697 146.626 33.4929C146.873 33.652 146.837 34.4218 146.565 34.93C146.39 35.2482 145.763 35.8332 145.347 36.0693C145.167 36.1668 144.874 36.2952 144.695 36.3567C144.52 36.4132 144.34 36.485 144.304 36.5158C144.268 36.5415 144.227 36.5518 144.206 36.5364C144.191 36.5158 144.139 36.5261 144.103 36.562C144.062 36.5928 143.79 36.6287 143.482 36.6441C142.973 36.6647 142.922 36.6544 142.788 36.5518C142.629 36.4235 142.475 36.1514 142.418 35.8845C142.362 35.6074 142.213 35.3508 142.007 35.1763C141.853 35.0377 141.781 35.012 141.57 35.012C141.432 35.012 141.257 35.0377 141.175 35.0685C141.005 35.1301 140.748 35.3611 140.748 35.4534C140.748 35.4894 140.717 35.5253 140.687 35.5407C140.64 35.5509 140.62 35.7049 140.62 36.0693C140.62 36.6903 140.712 36.9161 141.175 37.4088C141.74 38.0144 142.239 38.1941 143.323 38.1941C144.977 38.1941 146.179 37.6963 147.356 36.5312C147.87 36.018 147.932 35.9307 148.266 35.166C148.384 34.8991 148.451 34.5553 148.486 34.0472C148.564 32.9899 148.158 32.2201 147.366 31.9327C147.192 31.866 147.017 31.7941 146.981 31.7684C146.945 31.7377 146.894 31.7325 146.868 31.7479C146.842 31.7684 146.801 31.753 146.786 31.7223C146.765 31.6915 146.637 31.6761 146.498 31.6812C146.359 31.6915 146.231 31.6812 146.21 31.6607C146.164 31.6093 145.414 31.6761 145.337 31.7377C145.306 31.7633 145.234 31.7787 145.183 31.7684C145.131 31.7633 145.07 31.7684 145.039 31.789C145.013 31.8044 144.777 31.866 144.52 31.9276C144.263 31.984 143.955 32.0713 143.836 32.1072C143.723 32.1483 143.472 32.2201 143.282 32.2714C143.086 32.3176 142.917 32.3689 142.896 32.3895C142.875 32.4049 142.742 32.41 142.603 32.4049C142.352 32.3843 142.341 32.3792 142.31 32.2098C142.239 31.8095 142.444 31.3733 142.942 30.8703C143.148 30.665 143.374 30.4854 143.446 30.4648C143.518 30.4495 143.574 30.4135 143.574 30.3879C143.574 30.3622 143.595 30.3417 143.621 30.3417C143.646 30.3417 143.754 30.3006 143.862 30.2544C143.975 30.2082 144.073 30.1672 144.088 30.1621C144.103 30.1621 144.139 30.1466 144.165 30.1312C144.273 30.0645 144.561 30.0235 144.962 30.0235C145.429 30.0235 145.774 30.1518 145.861 30.3519C146.025 30.7215 146.914 30.8703 147.284 30.588C147.428 30.4751 147.582 30.1415 147.582 29.9362C147.582 29.0278 146.082 28.3247 144.499 28.494Z" fill="#C92027"></path>
<path d="M56.5264 28.5381C56.1309 28.6202 55.9204 28.8357 55.8587 29.2155C55.833 29.3695 55.7919 29.585 55.7611 29.698C55.6892 29.9751 55.7406 30.3138 55.8895 30.4935C56.0128 30.632 56.0128 30.6577 56.0128 31.6944C56.0128 32.5618 55.9974 32.7876 55.9306 32.9467C55.8176 33.1982 55.8176 33.7063 55.9255 33.9167C56.0025 34.0604 56.0128 34.2708 56.0128 35.4615C56.0128 36.5598 55.9974 36.8883 55.9358 37.0628C55.8382 37.3399 55.8382 37.499 55.9409 37.7967C56.0128 38.002 56.059 38.0533 56.2439 38.1406C56.5162 38.2637 57.02 38.2791 57.3538 38.1713C57.4925 38.1252 58.3815 38.0482 59.6866 37.9609C60.8478 37.8891 61.9115 37.8018 62.0604 37.7762C62.5484 37.6838 62.8313 37.2116 62.6926 36.7395C62.6002 36.4212 62.5021 36.2929 62.2659 36.1852C62.0039 36.0671 61.7163 36.062 61.4081 36.1646C61.2125 36.2262 58.4432 36.452 57.8777 36.4469H57.7082V35.2767V34.1066L59.0338 33.9629C59.7585 33.8859 60.555 33.8192 60.7964 33.8243C61.1765 33.8295 61.2587 33.8141 61.4081 33.7165C61.7009 33.5215 61.819 33.2957 61.819 32.9467C61.819 32.4437 61.6084 32.1871 61.1098 32.0794C60.8992 32.0383 60.7862 32.0434 60.5294 32.105C60.3547 32.1512 59.8818 32.223 59.4863 32.2692C59.0856 32.3103 58.7257 32.3616 58.6846 32.377C58.6435 32.3924 58.5099 32.4027 58.3969 32.3975C58.2788 32.3924 58.1658 32.4078 58.1452 32.4386C58.1298 32.4694 58.022 32.495 57.9085 32.495H57.7082L57.7185 31.5302L57.7339 30.5705L59.3013 30.4575C60.2777 30.3908 60.8992 30.3652 60.9557 30.3959C61.0738 30.4575 61.7266 30.4524 61.9063 30.3857C62.2351 30.2625 62.4816 29.8725 62.4867 29.4824C62.4867 29.2104 62.4148 29.0205 62.2402 28.8357C61.9423 28.5175 61.5622 28.4405 61.1098 28.5945C60.8735 28.6766 60.4472 28.728 59.2705 28.8203L57.739 28.9384L57.5798 28.7741C57.3641 28.5432 56.9583 28.4559 56.5264 28.5381Z" fill="#C92027"></path>
<path d="M133.221 28.5411C132.851 28.6078 132.651 28.8336 132.604 29.2391C132.584 29.4084 132.538 29.5932 132.497 29.6548C132.389 29.8293 132.409 30.1116 132.553 30.3322C132.62 30.4452 132.702 30.5478 132.733 30.5683C132.764 30.5888 132.784 30.9841 132.784 31.6667C132.784 32.6264 132.774 32.7598 132.681 32.96C132.548 33.2577 132.548 33.6426 132.681 33.9043C132.774 34.0891 132.784 34.2071 132.784 35.4491C132.784 36.5269 132.769 36.8297 132.707 36.9735C132.61 37.2095 132.61 37.6252 132.702 37.8562C132.815 38.1231 133.046 38.2411 133.473 38.2411C133.668 38.2411 133.945 38.2052 134.089 38.1641C134.249 38.118 135.132 38.041 136.355 37.9588C138.816 37.7997 138.873 37.7946 139.043 37.7074C139.336 37.5534 139.433 37.3891 139.454 37.0196C139.469 36.7065 139.459 36.6604 139.325 36.4859C139.038 36.1163 138.626 35.9932 138.195 36.1574C138.072 36.2036 137.486 36.2652 136.612 36.3165C135.852 36.3627 135.189 36.414 135.148 36.4294C135.107 36.4448 134.937 36.4602 134.773 36.4602L134.48 36.4705V35.2747C134.48 34.1763 134.485 34.084 134.573 34.084C134.619 34.084 135.076 34.0378 135.585 33.9762C136.093 33.9197 136.859 33.8581 137.29 33.8325C138.097 33.7914 138.292 33.735 138.37 33.5297C138.39 33.4835 138.436 33.4116 138.472 33.3757C138.508 33.3346 138.529 33.2885 138.513 33.2628C138.498 33.2371 138.508 33.2063 138.539 33.1858C138.565 33.1704 138.59 33.0421 138.59 32.9035C138.59 32.765 138.565 32.6366 138.539 32.6213C138.508 32.6007 138.498 32.57 138.508 32.5494C138.539 32.5032 138.251 32.221 138.082 32.1337C137.907 32.0464 137.439 32.0516 137.049 32.144C136.864 32.1901 136.427 32.2517 136.073 32.2877C135.718 32.3184 135.395 32.3595 135.353 32.3749C135.312 32.3903 135.204 32.4006 135.117 32.3954C135.025 32.3903 134.937 32.4057 134.917 32.4365C134.901 32.4673 134.793 32.493 134.68 32.493H134.48L134.49 31.5281L134.506 30.5683L136.021 30.4605C136.926 30.3939 137.583 30.3682 137.655 30.399C137.722 30.4195 137.938 30.44 138.133 30.44C138.631 30.44 138.925 30.3066 139.058 30.014C139.11 29.896 139.156 29.7523 139.156 29.6907C139.156 29.6343 139.182 29.5624 139.217 29.5265C139.264 29.4803 139.264 29.4392 139.223 29.352C139.192 29.2853 139.151 29.1724 139.135 29.1005C139.099 28.9209 138.925 28.7104 138.734 28.6129C138.524 28.5051 137.989 28.5 137.789 28.6078C137.665 28.6694 137.275 28.7156 136.196 28.7977C135.405 28.8541 134.701 28.926 134.624 28.9465C134.501 28.9876 134.465 28.9722 134.367 28.849C134.3 28.7721 134.192 28.6745 134.12 28.6283C133.956 28.5257 133.545 28.4846 133.221 28.5411Z" fill="#C92027"></path>
<path d="M94.0169 31.2165C93.9091 31.2422 93.755 31.3089 93.6728 31.3705C93.3903 31.5706 93.3749 31.6528 93.4057 32.787C93.4314 33.6697 93.4262 33.8494 93.3492 34.029C93.2465 34.2959 93.2413 34.5576 93.3441 34.7578C93.4108 34.8861 93.4211 35.0863 93.4057 35.9998C93.3903 36.5952 93.3646 37.1854 93.3441 37.3086C93.2824 37.6729 93.3441 37.8423 93.5855 38.0014C93.7704 38.1195 93.8577 38.14 94.1766 38.14C94.6491 38.14 94.9059 38.0373 95.0292 37.7961C95.1062 37.6422 95.1165 37.4471 95.1165 36.0922C95.1165 34.7835 95.1268 34.5525 95.1936 34.5269C95.2351 34.5115 95.5946 34.2548 95.9901 33.9572C96.3809 33.6595 96.7302 33.4183 96.761 33.4183C96.7867 33.4183 96.8124 33.3926 96.8124 33.367C96.8124 33.3362 96.838 33.3156 96.8689 33.3156C96.8945 33.3156 97.0075 33.2592 97.1103 33.1873C97.213 33.1155 97.3311 33.059 97.3671 33.059C97.4236 33.059 97.4287 33.4439 97.4082 35.1735C97.3979 36.3385 97.3825 37.3701 97.3825 37.4625C97.3722 37.9296 97.6346 38.14 98.2304 38.14C98.6362 38.14 98.8472 38.0527 99.0116 37.8115L99.1297 37.637L99.1246 34.8861C99.1246 33.1719 99.104 32.0839 99.0681 32.0018C98.9756 31.7452 98.7085 31.4731 98.4256 31.3346C97.7938 31.0267 97.1565 31.1909 96.1185 31.935C95.7898 32.1711 95.4303 32.4278 95.3224 32.5047L95.1268 32.6485L95.1525 32.1711C95.1833 31.6323 95.1165 31.4218 94.87 31.2987C94.6799 31.2011 94.2587 31.1601 94.0169 31.2165Z" fill="#C92027"></path>
<path d="M89.0269 31.2644C88.2869 31.326 87.5832 31.4902 87.3212 31.6544C87.2545 31.6955 87.2027 31.7211 87.2027 31.7109C87.2027 31.7006 86.9202 31.8341 86.576 32.0034C85.8308 32.373 85.7127 32.5013 85.7127 32.9426C85.7127 33.0966 85.7486 33.2865 85.7897 33.3686C85.9746 33.7227 86.4373 33.9024 86.8637 33.7792C87.0897 33.7176 87.4291 33.4353 87.4856 33.2711C87.5061 33.1992 88.0506 32.8964 88.179 32.881C88.1944 32.881 88.2304 32.8656 88.256 32.8503C88.4208 32.7527 89.3659 32.6398 89.6437 32.686L89.8286 32.7168L89.8132 33.0504L89.7978 33.3892L89.4121 33.4507C88.9345 33.5277 88.1841 33.7125 88.1071 33.7741C88.0763 33.7997 87.8451 33.9075 87.5883 34.0101C86.6942 34.3745 85.8462 35.0725 85.4405 35.7705C85.3377 35.945 85.2556 36.1092 85.2607 36.1298C85.2658 36.1503 85.235 36.2324 85.1991 36.3197C85.1066 36.5352 85.1117 37.2486 85.2093 37.4796C85.3275 37.7516 85.5843 38.0185 85.8514 38.1468C86.0414 38.2392 86.2113 38.2648 86.725 38.2905C87.0794 38.3059 87.3777 38.3059 87.388 38.2905C87.3983 38.27 87.5164 38.2443 87.6499 38.2237C88.0095 38.1776 88.9961 37.731 89.3505 37.4539C89.52 37.3256 89.6694 37.2178 89.6848 37.2178C89.6951 37.2178 89.7207 37.341 89.7362 37.495C89.7927 38.0287 89.9878 38.1622 90.6761 38.1365C91.0669 38.1211 91.1696 38.0954 91.3237 37.9877C91.5497 37.8388 91.6524 37.572 91.5959 37.2897C91.5754 37.1768 91.5446 36.0015 91.524 34.6774C91.4932 32.296 91.4932 32.26 91.3751 32.024C91.0515 31.3721 90.3474 31.1463 89.0269 31.2644ZM89.8235 34.8467C89.8235 34.8724 89.7875 34.9955 89.7413 35.129C89.6797 35.3086 89.5667 35.4574 89.2889 35.7141C89.0834 35.9091 88.8471 36.099 88.765 36.14C88.6828 36.1811 88.4362 36.3145 88.2149 36.4377C87.614 36.7765 86.915 36.9612 86.8174 36.8072C86.725 36.6584 87.1564 36.0939 87.6705 35.6987C87.9427 35.4883 88.6622 35.1136 88.7855 35.1136C88.8112 35.1136 88.9242 35.0725 89.0321 35.0264C89.1451 34.9801 89.2478 34.9442 89.2683 34.9494C89.2889 34.9545 89.3659 34.9237 89.4481 34.8826C89.6026 34.8005 89.8235 34.78 89.8235 34.8467Z" fill="#C92027"></path>
<path d="M168.816 0.853516C169.229 0.853516 169.625 0.955919 170.005 1.16072C170.384 1.36549 170.683 1.65919 170.9 2.04173C171.117 2.42432 171.225 2.82453 171.225 3.24244C171.225 3.65829 171.118 4.05486 170.906 4.43224C170.693 4.80961 170.396 5.10382 170.016 5.31483C169.635 5.52588 169.235 5.6314 168.816 5.6314C168.396 5.6314 167.997 5.52588 167.616 5.31483C167.235 5.10382 166.939 4.80961 166.726 4.43224C166.513 4.05486 166.407 3.65829 166.407 3.24244C166.407 2.82453 166.515 2.42432 166.733 2.04173C166.95 1.65919 167.247 1.36549 167.627 1.16072C168.006 0.955919 168.403 0.853516 168.816 0.853516ZM168.819 1.32132C168.488 1.32132 168.17 1.40346 167.866 1.56769C167.562 1.73196 167.322 1.96793 167.147 2.27566C166.972 2.58338 166.885 2.90564 166.885 3.24244C166.885 3.57718 166.97 3.89636 167.141 4.19989C167.312 4.50347 167.551 4.74047 167.857 4.91099C168.163 5.08146 168.484 5.16672 168.819 5.16672C169.157 5.16672 169.478 5.08146 169.783 4.91099C170.088 4.74047 170.327 4.50347 170.499 4.19989C170.67 3.89636 170.756 3.57718 170.756 3.24244C170.756 2.90564 170.669 2.58338 170.494 2.27566C170.319 1.96793 170.079 1.73196 169.773 1.56769C169.469 1.40346 169.15 1.32132 168.819 1.32132ZM167.728 4.52113V1.98559H168.247C168.733 1.98559 169.006 1.98769 169.064 1.99184C169.236 2.00642 169.37 2.04019 169.465 2.09321C169.561 2.14623 169.64 2.2273 169.705 2.33646C169.768 2.44562 169.8 2.56675 169.8 2.69981C169.8 2.88276 169.74 3.03921 169.619 3.16915C169.499 3.29909 169.33 3.37969 169.112 3.41086C169.189 3.43997 169.249 3.4717 169.291 3.50599C169.333 3.54028 169.39 3.60527 169.464 3.70092C169.483 3.72585 169.546 3.82876 169.652 4.00967L169.955 4.52113H169.313L169.099 4.10946C168.954 3.83291 168.835 3.6588 168.741 3.58706C168.646 3.51535 168.527 3.47948 168.382 3.47948H168.247V4.52113H167.728ZM168.247 3.08026H168.457C168.757 3.08026 168.943 3.06884 169.016 3.04597C169.088 3.02309 169.145 2.98307 169.187 2.92591C169.229 2.86874 169.25 2.80375 169.25 2.73098C169.25 2.6603 169.229 2.5974 169.189 2.54229C169.148 2.48722 169.089 2.44771 169.014 2.42377C168.939 2.39987 168.753 2.38794 168.457 2.38794H168.247V3.08026Z" fill="#C92027"></path>
</svg>