<svg width="101" height="41" viewBox="0 0 101 41" fill="none" xmlns="http://www.w3.org/2000/svg">
<path d="M11.579 31.572H0.495156V28.82H11.4648C11.5663 28.82 11.6552 28.782 11.7187 28.7186C11.7822 28.6552 11.8203 28.5664 11.8203 28.465V27.666C11.8203 27.5646 11.7822 27.4758 11.7187 27.4124C11.6552 27.349 11.5663 27.3109 11.4648 27.3109H3.33913C2.27264 27.3109 1.46007 27.0573 0.876044 26.55C0.292015 26.0428 0 25.3453 0 24.4195V23.367C0 22.4412 0.292015 21.731 0.876044 21.2111C1.46007 20.7038 2.28533 20.4375 3.32643 20.4375H14.0167V23.1894H3.45339C3.35182 23.1894 3.26295 23.2275 3.19947 23.2909C3.13599 23.3543 3.0979 23.443 3.0979 23.5445V24.3181C3.0979 24.4195 3.13599 24.5083 3.19947 24.5717C3.26295 24.6351 3.35182 24.6732 3.45339 24.6732H11.579C12.6328 24.6732 13.4454 24.9268 14.0294 25.4467C14.6134 25.954 14.9055 26.6769 14.9055 27.5772V28.6679C14.9055 29.5809 14.6134 30.2911 14.0294 30.7984C13.4454 31.3183 12.6201 31.572 11.579 31.572Z" fill="#404040"></path>
<path d="M19.7805 20.4531V24.7776H27.9823V20.4531H31.0675V31.5749H27.9823V27.5295H19.7805V31.5749H16.6953V20.4531H19.7805Z" fill="#404040"></path>
<path d="M42.3172 20.4531H39.1304L32.1982 31.5749H35.8167L37.0482 29.5078L38.4956 27.0729L40.7175 23.3572L42.9393 27.0729L44.3867 29.5078L45.6309 31.5749H49.2494L42.3172 20.4531Z" fill="#404040"></path>
<path d="M61.1205 20.4531C62.1489 20.4531 63.0249 20.8082 63.7359 21.5311C64.4469 22.2412 64.8024 23.1163 64.8024 24.1435V24.4732C64.8024 25.5258 64.4723 26.4008 63.8248 27.0729C63.1773 27.745 62.3393 28.0875 61.3236 28.0875H53.4646V31.5876H50.3794V20.4658H61.1205V20.4531ZM60.6507 23.205H53.4773V25.4243H60.6761C60.9935 25.4243 61.2474 25.3355 61.4379 25.158C61.6283 24.9805 61.7299 24.7522 61.7299 24.4859V24.1562C61.7299 23.8772 61.6283 23.6489 61.4252 23.4713C61.222 23.2938 60.9681 23.205 60.6507 23.205Z" fill="#404040"></path>
<path d="M79.6949 27.3266H69.4871V28.823H80.1012V31.5749H66.4146V20.4531H80.0758V23.205H69.4998V24.6761H79.7076V27.3266H79.6949Z" fill="#404040"></path>
<path d="M93.2543 31.5729H82.1705V28.821H93.14C93.2416 28.821 93.3305 28.783 93.394 28.7195C93.4575 28.6561 93.4955 28.5674 93.4955 28.4659V27.667C93.4955 27.5655 93.4575 27.4768 93.394 27.4133C93.3305 27.3499 93.2416 27.3119 93.14 27.3119H85.0144C83.9479 27.3119 83.1354 27.0583 82.5513 26.551C81.9673 26.0437 81.6753 25.3336 81.6753 24.4078V23.3552C81.6753 22.4295 81.9673 21.7193 82.5513 21.1994C83.1354 20.6921 83.9606 20.4258 85.0017 20.4258H95.692V23.1777H85.116C85.0144 23.1777 84.9255 23.2157 84.8621 23.2791C84.7986 23.3426 84.7605 23.4313 84.7605 23.5328V24.3064C84.7605 24.4078 84.7986 24.4966 84.8621 24.56C84.9255 24.6234 85.0144 24.6614 85.116 24.6614H93.2416C94.2954 24.6614 95.108 24.9151 95.692 25.435C96.276 25.9423 96.568 26.6651 96.568 27.5655V28.6561C96.568 29.5692 96.276 30.2794 95.692 30.7866C95.1207 31.3193 94.2954 31.5729 93.2543 31.5729Z" fill="#404040"></path>
<path d="M99.5261 20.0703C101.443 20.0703 101.443 22.9356 99.5261 22.9356C97.6222 22.9483 97.6222 20.0703 99.5261 20.0703ZM99.5261 20.2351C97.8126 20.2351 97.8126 22.7961 99.5261 22.7961C101.24 22.7961 101.24 20.2351 99.5261 20.2351ZM100.034 22.3904C99.9196 22.1749 100.072 21.7819 99.8307 21.6424C99.7419 21.5917 99.6784 21.6044 99.5642 21.6044H99.1072V22.3778H98.9422V20.6535H99.5769C99.8815 20.6535 100.186 20.7169 100.212 21.0973C100.224 21.3128 100.11 21.4396 99.9323 21.5283C100.008 21.5663 100.059 21.5917 100.097 21.6678C100.212 21.8833 100.097 22.0481 100.186 22.3017C100.199 22.327 100.212 22.3397 100.224 22.3651H100.034V22.3904ZM99.6149 20.8183H99.1199V21.4649H99.6023C99.818 21.4649 100.059 21.4015 100.047 21.1353C100.047 20.869 99.818 20.8183 99.6149 20.8183Z" fill="#404040"></path>
<path d="M14.2959 37.3179L14.1054 38.1929H11.8965L11.4521 40.2979H10.4111L11.4775 35.2891H15.0449L14.8544 36.1767H12.3408L12.0996 37.3306H14.2959V37.3179Z" fill="#C61788"></path>
<path d="M14.6006 40.2988L15.667 35.2773H16.708L15.6416 40.2988H14.6006Z" fill="#C61788"></path>
<path d="M17.0762 36.165L17.2666 35.2773H21.3418L21.1513 36.165H19.6533L18.7773 40.2988H17.7236L18.5996 36.165H17.0762Z" fill="#C61788"></path>
<path d="M23.9062 40.2988L22.6113 36.7356L21.8496 40.2988H20.8721L21.9385 35.2773H23.0429L24.2998 38.7772L25.0488 35.2773H26.0263L24.9599 40.2988H23.9062Z" fill="#C61788"></path>
<path d="M29.9628 39.3985L29.7724 40.2988H25.9639L27.0303 35.2773H30.7119L30.5214 36.165H27.8681L27.6396 37.2301H30.0771L29.8867 38.1051H27.4492L27.1826 39.3985H29.9628Z" fill="#C61788"></path>
<path d="M32.9466 37.228L33.7718 37.4309C34.1273 37.5197 34.3939 37.6465 34.5589 37.7987C34.8128 38.0396 34.889 38.382 34.7874 38.8258C34.6859 39.2823 34.432 39.6627 34.013 39.967C33.5941 40.2714 33.0736 40.4235 32.4261 40.4235C31.766 40.4235 31.2836 40.2714 30.9789 39.9797C30.6615 39.6754 30.5726 39.2696 30.6742 38.7497H31.6771C31.6644 38.9779 31.6898 39.1555 31.7533 39.2696C31.8802 39.4725 32.1468 39.5739 32.5658 39.5739C32.8197 39.5739 33.0228 39.5486 33.1879 39.4978C33.5052 39.3964 33.6957 39.1935 33.7464 38.9145C33.7845 38.7497 33.7337 38.6229 33.6068 38.5341C33.4798 38.4454 33.2767 38.3693 32.972 38.2932L32.4642 38.1791C31.9691 38.0649 31.6263 37.9381 31.4613 37.7987C31.1693 37.5704 31.0805 37.2027 31.182 36.7081C31.2836 36.2643 31.5248 35.8839 31.9056 35.5923C32.2992 35.3006 32.807 35.1484 33.4418 35.1484C33.975 35.1484 34.3939 35.2879 34.7113 35.5669C35.0287 35.8459 35.1302 36.2516 35.0413 36.7842H34.0384C34.0892 36.4799 34.0003 36.2643 33.7845 36.1375C33.6449 36.0488 33.4418 36.0107 33.2005 36.0107C32.9339 36.0107 32.7054 36.0614 32.515 36.1756C32.3246 36.2897 32.2103 36.4418 32.1722 36.6321C32.1342 36.8096 32.1849 36.9491 32.3246 37.0378C32.4261 37.0759 32.6293 37.152 32.9466 37.228Z" fill="#C61788"></path>
<path d="M37.6058 37.228L38.431 37.4309C38.7865 37.5197 39.0531 37.6465 39.2181 37.7987C39.472 38.0396 39.5482 38.382 39.4466 38.8258C39.3451 39.2823 39.0912 39.6627 38.6722 39.967C38.2533 40.2714 37.7328 40.4235 37.0853 40.4235C36.4252 40.4235 35.9428 40.2714 35.6381 39.9797C35.3207 39.6754 35.2318 39.2696 35.3334 38.7497H36.3363C36.3236 38.9779 36.349 39.1555 36.4125 39.2696C36.5394 39.4725 36.806 39.5739 37.225 39.5739C37.4789 39.5739 37.682 39.5486 37.847 39.4978C38.1644 39.3964 38.3548 39.1935 38.4056 38.9145C38.4437 38.7497 38.3929 38.6229 38.266 38.5341C38.139 38.4454 37.9359 38.3693 37.6312 38.2932L37.1234 38.1791C36.6283 38.0649 36.2855 37.9381 36.1205 37.7987C35.8285 37.5704 35.7396 37.2027 35.8412 36.7081C35.9428 36.2643 36.184 35.8839 36.5648 35.5923C36.9584 35.3006 37.4662 35.1484 38.1009 35.1484C38.6341 35.1484 39.0531 35.2879 39.3705 35.5669C39.6878 35.8459 39.7894 36.2516 39.7005 36.7842H38.6976C38.7484 36.4799 38.6595 36.2643 38.4437 36.1375C38.3041 36.0488 38.1009 36.0107 37.8597 36.0107C37.5931 36.0107 37.3646 36.0614 37.1742 36.1756C36.9838 36.2897 36.8695 36.4418 36.8314 36.6321C36.7933 36.8096 36.8441 36.9491 36.9838 37.0378C37.0853 37.0759 37.2884 37.152 37.6058 37.228Z" fill="#C61788"></path>
<path d="M45.7192 37.3179L45.5288 38.1929H43.3198L42.8755 40.2979H41.8345L42.9009 35.2891H46.4682L46.2778 36.1767H43.7641L43.5229 37.3306H45.7192V37.3179Z" fill="#C61788"></path>
<path d="M50.9496 35.7083C51.3558 36.1648 51.4701 36.8622 51.267 37.7752C51.0765 38.6755 50.6703 39.373 50.0609 39.8421C49.6039 40.2352 49.0072 40.4254 48.2963 40.4254C47.5727 40.4254 47.0649 40.2352 46.7729 39.8421C46.3666 39.3603 46.2651 38.6755 46.4555 37.7752C46.6459 36.8495 47.0522 36.1648 47.6615 35.7083C48.1186 35.3152 48.7152 35.125 49.4262 35.125C50.1371 35.125 50.6576 35.3152 50.9496 35.7083ZM49.2484 36.0126C48.8295 36.0126 48.474 36.1648 48.1567 36.4691C47.8393 36.7735 47.6235 37.2173 47.5092 37.7752C47.3949 38.3332 47.4203 38.777 47.5981 39.0813C47.7758 39.3856 48.0805 39.5378 48.4994 39.5378C48.9184 39.5378 49.2738 39.3856 49.5912 39.0813C49.8959 38.777 50.1117 38.3332 50.2387 37.7752C50.3529 37.2173 50.3275 36.7735 50.1498 36.4691C49.9594 36.1648 49.6547 36.0126 49.2484 36.0126Z" fill="#C61788"></path>
<path d="M54.5937 40.0325C54.5937 39.893 54.6064 39.7536 54.6445 39.6014L54.7334 39.1322C54.7968 38.8152 54.7841 38.5996 54.6953 38.4982C54.6064 38.3967 54.4033 38.3333 54.0986 38.3333H53.0195L52.6006 40.2988H51.5723L52.6387 35.2773H55.1015C55.457 35.29 55.7109 35.3281 55.8886 35.4041C56.0664 35.4802 56.1933 35.5944 56.2949 35.7592C56.371 35.886 56.4345 36.0255 56.4599 36.1777C56.4853 36.3298 56.4853 36.5074 56.4472 36.7102C56.3964 36.9512 56.2822 37.1794 56.1171 37.4077C55.9521 37.6359 55.7109 37.8008 55.4189 37.9022C55.6347 37.991 55.7617 38.1305 55.8252 38.2953C55.8886 38.4728 55.8759 38.7264 55.7998 39.0815L55.7236 39.4239C55.6728 39.6521 55.6474 39.8043 55.6474 39.893C55.6474 40.0198 55.6855 40.1213 55.7744 40.1847L55.749 40.3115H54.5937C54.5937 40.1847 54.5937 40.0959 54.5937 40.0325ZM54.6953 36.1523H53.4765L53.1846 37.4964H54.3779C54.6191 37.4964 54.7968 37.4711 54.9238 37.4203C55.1523 37.3189 55.3046 37.1414 55.3554 36.8497C55.4189 36.5454 55.3554 36.3425 55.1777 36.2411C55.0888 36.1777 54.9238 36.1523 54.6953 36.1523Z" fill="#C61788"></path>
<path d="M62.0844 37.354L62.1098 36.3776L61.729 37.354L60.4975 40.2832H59.52L59.1646 35.2617H60.2817L60.3325 38.1402L60.3071 38.9391L60.6245 38.1529L61.8051 35.2617H62.9096L62.8969 38.1402L62.8842 38.9391L63.2016 38.1655L64.4965 35.2617H65.5629L63.0747 40.2832H62.0717L62.0844 37.354Z" fill="#C61788"></path>
<path d="M69.9564 35.7083C70.3627 36.1648 70.4769 36.8622 70.2738 37.7752C70.0834 38.6755 69.6771 39.373 69.0678 39.8421C68.6107 40.2352 68.0141 40.4254 67.3031 40.4254C66.5795 40.4254 66.0717 40.2352 65.7797 39.8421C65.3735 39.3603 65.2719 38.6755 65.4623 37.7752C65.6528 36.8495 66.059 36.1648 66.6684 35.7083C67.1254 35.3152 67.7221 35.125 68.433 35.125C69.1439 35.125 69.6644 35.3152 69.9564 35.7083ZM68.2426 36.0126C67.8236 36.0126 67.4682 36.1648 67.1508 36.4691C66.8334 36.7735 66.6176 37.2173 66.5033 37.7752C66.3891 38.3332 66.4145 38.777 66.5922 39.0813C66.7699 39.3856 67.0746 39.5378 67.4936 39.5378C67.9125 39.5378 68.268 39.3856 68.5854 39.0813C68.89 38.777 69.1059 38.3332 69.2328 37.7752C69.3471 37.2173 69.3217 36.7735 69.1439 36.4691C68.9662 36.1648 68.6615 36.0126 68.2426 36.0126Z" fill="#C61788"></path>
<path d="M73.4604 40.2988H72.4448L72.394 36.0889C72.3813 36.1903 72.3432 36.3171 72.3178 36.4947C72.2798 36.6722 72.2544 36.8117 72.229 36.9004L71.5054 40.2988H70.5278L71.5942 35.2773H73.1177L73.1938 39.221L74.9458 35.2773H76.4565L75.3901 40.2988H74.4126L75.1362 36.9004C75.1616 36.799 75.187 36.6722 75.225 36.4947C75.2631 36.3171 75.2885 36.1777 75.3139 36.0889L73.4604 40.2988Z" fill="#C61788"></path>
<path d="M80.3925 39.3985L80.2021 40.2988H76.3936L77.4599 35.2773H81.1415L80.9511 36.165H78.2978L78.0693 37.2301H80.5068L80.3164 38.1051H77.8789L77.6123 39.3985H80.3925Z" fill="#C61788"></path>
<path d="M84.0361 40.2988L82.7412 36.7356L81.9795 40.2988H81.002L82.0684 35.2773H83.1728L84.4297 38.7772L85.1787 35.2773H86.1562L85.0898 40.2988H84.0361Z" fill="#C61788"></path>
<path d="M0 37.7773H9.50869" stroke="#C61788" stroke-width="4.16667" stroke-miterlimit="10"></path>
<path d="M87.0586 37.7773H96.5673" stroke="#C61788" stroke-width="4.16667" stroke-miterlimit="10"></path>
<path d="M54.7846 15.3671C52.131 17.3581 47.9413 17.2947 45.4274 15.3924C46.0622 14.8852 46.7478 14.4286 47.3318 13.8453C47.9921 13.1858 48.6269 12.4757 49.1474 11.6894C50.3917 9.83788 50.1758 7.93564 49.0712 6.0968C48.0809 4.4482 46.6209 3.28149 45.0211 2.27964C44.5133 1.9626 43.98 1.67093 43.4214 1.35389L43.7007 1.30316L44.8053 1.89919C44.8053 1.89919 45.0211 1.72165 45.1481 1.6202C48.2206 -0.561037 52.093 -0.535674 55.1147 1.67093C55.2162 1.74701 55.3686 1.91188 55.3686 1.91188L56.4859 1.30316L56.7525 1.3412C56.0796 1.73433 55.4448 2.1021 54.8227 2.49523C53.3372 3.45903 52.0041 4.58769 51.0899 6.13485C49.7568 8.40486 49.9219 10.3959 51.547 12.463C52.3596 13.4902 53.3245 14.3398 54.391 15.0754C54.5306 15.1768 54.6576 15.2783 54.7846 15.3671ZM50.0489 5.15837C51.0773 5.15837 51.9152 4.41015 51.9279 3.44635C51.9406 2.46987 51.128 1.65824 50.125 1.64556C49.0966 1.63288 48.2714 2.39378 48.2587 3.37026C48.246 4.35942 49.0458 5.14568 50.0489 5.15837Z" fill="#C61788"></path>
<path d="M43.472 3.82774L44.0052 5.04518C44.0052 5.04518 44.3353 5.13395 44.8559 5.34953C45.8589 5.76803 46.5826 6.12311 47.2174 6.98546C47.9919 8.02535 48.2966 9.48374 47.6998 10.7012C46.6588 12.8317 45.0336 14.3788 42.9895 15.5582C42.9641 15.5329 43.929 14.6832 44.1576 14.493C43.3577 13.6433 42.6594 12.7683 42.2404 11.6777C41.0851 9.00184 41.2247 5.66657 43.0911 3.68824L43.3323 3.47266C43.3323 3.47266 45.8843 4.18283 47.7887 6.32602C48.1315 6.71915 48.3981 7.18837 48.6394 7.6449C49.3123 8.98915 48.9949 10.27 48.2458 11.4747C47.4078 12.8063 46.2398 13.8208 45.0082 14.772C44.7035 15.0002 44.3734 15.2031 44.0179 15.3553C44.6527 14.8354 45.3383 14.3788 45.897 13.7955C46.6461 13.0092 47.357 12.1722 47.9411 11.2592C48.9441 9.69932 48.7029 8.13949 47.5856 6.71915C46.5191 5.36222 45.1479 4.51255 43.472 3.82774Z" fill="#3E3E3E"></path>
<path d="M50.0486 5.15749C49.0329 5.15749 48.2458 4.35855 48.2585 3.36939C48.2711 2.3929 49.0964 1.63201 50.1248 1.64469C51.1278 1.65737 51.9404 2.46899 51.9277 3.44548C51.915 4.3966 51.0897 5.15749 50.0486 5.15749Z" fill="white"></path>
<path d="M56.5747 3.82774L56.0415 5.04518C56.0415 5.04518 55.7114 5.13395 55.1908 5.34953C54.1878 5.76803 53.4641 6.12311 52.8293 6.98546C52.0548 8.02535 51.7501 9.48374 52.3469 10.7012C53.388 12.8317 55.0131 14.3788 57.0572 15.5582C57.0826 15.5329 56.1177 14.6832 55.8891 14.493C56.689 13.6433 57.3873 12.7683 57.8063 11.6777C58.9616 9.00184 58.822 5.66657 56.9556 3.68824L56.7144 3.47266C56.7144 3.47266 54.1624 4.18283 52.258 6.32602C51.9152 6.71915 51.6486 7.18837 51.4073 7.6449C50.7344 8.98915 51.0518 10.27 51.8009 11.4747C52.6389 12.8063 53.8069 13.8208 55.0385 14.772C55.3432 15.0002 55.6733 15.2031 56.0288 15.3553C55.394 14.8354 54.7084 14.3788 54.1497 13.7955C53.4007 13.0092 52.6897 12.1722 52.1056 11.2592C51.1026 9.69932 51.3439 8.13949 52.4611 6.71915C53.5276 5.36222 54.9115 4.52523 56.5747 3.82774Z" fill="#404040"></path>
</svg>