<svg width="74" height="88" viewBox="0 0 74 88" fill="none" xmlns="http://www.w3.org/2000/svg">
<path d="M46.7455 0.0526302C46.6358 0.0995995 46.385 0.146569 46.1813 0.162227C45.6405 0.20137 44.4727 0.624095 43.4539 1.14076C42.9601 1.39126 42.341 1.65742 42.0824 1.72787C41.5102 1.89227 40.6168 2.29151 39.5744 2.85514C38.0775 3.66144 36.3533 4.56166 34.9504 5.28969C34.1745 5.68893 32.85 6.37785 32.0114 6.81619C31.1729 7.25459 29.9738 7.88087 29.3467 8.20179C25.6162 10.1432 24.8325 10.5659 24.6287 10.7773C24.5033 10.9025 24.3622 11.0043 24.323 11.0043C24.1976 11.0043 23.8607 11.6227 23.7431 12.0768C23.5393 12.8518 23.5942 14.2139 23.8998 15.8657C23.9547 16.124 23.939 16.1553 23.7587 16.2023C23.359 16.2962 21.0549 17.2904 20.0125 17.8149C10.2629 22.684 3.27989 31.569 0.866008 42.1606C-0.145003 46.6149 -0.278239 51.6328 0.505494 56.22C0.77196 57.7547 1.27354 59.8132 1.75946 61.3009C4.12631 68.573 8.89923 75.0706 15.1221 79.5092C15.5139 79.7834 15.8431 80.0258 15.8666 80.0493C15.945 80.1274 16.4074 80.4409 16.4465 80.4409C16.4701 80.4409 16.8854 80.6993 17.3714 81.0198C17.8573 81.3334 18.3354 81.6152 18.4372 81.6463C18.5313 81.6774 18.594 81.7326 18.5705 81.7713C18.547 81.8107 18.6331 81.8577 18.7664 81.8888C18.8997 81.9205 18.9858 81.9751 18.9545 82.0144C18.931 82.0532 18.9937 82.0849 19.0956 82.0849C19.1974 82.0925 19.4325 82.1788 19.6285 82.288C19.8244 82.3978 19.9107 82.4683 19.8323 82.4371C19.7069 82.4054 19.6991 82.4137 19.7774 82.5076C19.8323 82.5698 19.9263 82.6015 19.9812 82.5857C20.036 82.5622 20.1458 82.6326 20.2163 82.7342C20.2947 82.8675 20.3887 82.9145 20.4906 82.891C20.5846 82.8675 20.6709 82.9145 20.7414 83.016C20.7962 83.11 20.8982 83.1804 20.9765 83.1804C21.0471 83.1804 21.1176 83.2121 21.1333 83.2509C21.1411 83.2979 21.243 83.3448 21.3527 83.3683C21.5486 83.4 22.0659 83.6349 22.1364 83.7206C22.1599 83.7441 22.2854 83.8227 22.4107 83.9008C22.544 83.9713 22.7634 84.0887 22.9045 84.175C23.1161 84.2924 23.1709 84.3001 23.2258 84.2061C23.2807 84.1198 23.3042 84.128 23.3434 84.2531C23.3982 84.4251 23.6961 84.5895 23.939 84.5895C24.0252 84.5895 24.4093 84.7463 24.7933 84.9418C25.1773 85.1379 25.577 85.294 25.6867 85.294C25.7886 85.294 25.9218 85.341 25.9689 85.4038C26.0159 85.4667 26.251 85.5371 26.4861 85.5682C26.7212 85.5917 27.0504 85.6857 27.2229 85.772C27.3953 85.85 27.5912 85.9205 27.6617 85.9205C27.7401 85.9205 27.889 85.9751 27.9988 86.0303C28.2339 86.1553 29.143 86.3902 29.4095 86.3902C29.4956 86.3902 29.5897 86.4213 29.6211 86.4683C29.6446 86.5076 29.7229 86.5153 29.7857 86.4918C29.8562 86.4683 29.9345 86.4918 29.9659 86.5387C30.0129 86.6092 31.0004 86.7583 31.5647 86.7818C31.6039 86.7818 31.6117 86.8129 31.5882 86.844C31.4863 87.0084 35.7655 87.3924 38.2264 87.4394C40.3346 87.4781 40.9068 87.4546 40.8284 87.3296C40.8127 87.2985 41.1575 87.2515 41.6043 87.228C42.631 87.1728 44.363 86.9538 44.6687 86.844C44.8019 86.8053 45.2956 86.6955 45.7659 86.6174C46.244 86.5311 46.6828 86.4372 46.7455 86.4137C46.8083 86.3826 46.9023 86.3591 46.9493 86.3509C46.9964 86.3509 47.0904 86.3039 47.1609 86.2493C47.2315 86.1865 47.4901 86.1242 47.733 86.1084C47.9839 86.0849 48.2816 86.0221 48.3914 85.9598C48.5011 85.9047 48.9086 85.7637 49.2926 85.6463C49.6845 85.5289 50.1548 85.3645 50.3507 85.2706C50.5467 85.1848 50.7426 85.1144 50.7896 85.122C50.8366 85.1297 50.9228 85.0827 50.9777 85.0205C51.0325 84.9576 51.1344 84.903 51.205 84.903C51.2755 84.903 51.3696 84.8713 51.4087 84.8326C51.4557 84.7856 51.683 84.7069 51.9182 84.6447C52.1533 84.5819 52.5295 84.4251 52.7411 84.3001C52.9605 84.175 53.3132 84.0106 53.5248 83.9319C53.7443 83.8539 53.9715 83.7364 54.042 83.6818C54.1048 83.619 54.1988 83.572 54.2458 83.572C54.2929 83.572 54.3477 83.5409 54.3634 83.5092C54.3791 83.4705 54.7318 83.2744 55.155 83.0712C55.5782 82.8675 55.9467 82.6485 55.9703 82.5857C55.9938 82.5229 56.0878 82.4759 56.1819 82.4759C56.3852 82.4759 56.5028 82.3978 56.5657 82.2176C56.5892 82.1471 56.6833 82.0849 56.7614 82.0849C56.8478 82.0849 56.9965 82.022 57.0988 81.9357C57.2005 81.8577 57.3651 81.7714 57.4668 81.7402C57.5608 81.7091 57.6784 81.6152 57.7178 81.5289C57.7648 81.4508 57.8665 81.3803 57.9453 81.3803C58.1016 81.3803 58.5013 81.0433 58.5013 80.9106C58.5013 80.8713 58.5566 80.832 58.6189 80.832C58.6818 80.832 58.7364 80.8008 58.7364 80.7697C58.7364 80.738 58.8622 80.6599 59.0033 80.613C59.152 80.5584 59.3007 80.4409 59.3242 80.3623C59.356 80.2765 59.4418 80.2061 59.5282 80.2061C59.6064 80.2061 59.771 80.1039 59.8809 79.9789C59.9908 79.8456 60.2024 79.6894 60.3511 79.619C60.4998 79.5485 60.6174 79.4464 60.6174 79.3918C60.6174 79.3289 60.7273 79.2432 60.8525 79.1963C60.9859 79.1569 61.1194 79.0319 61.1582 78.9297C61.1975 78.8205 61.3933 78.6168 61.5896 78.4759C61.7853 78.3349 61.9499 78.194 61.9499 78.1547C61.9499 78.1236 61.9969 78.0925 62.0516 78.0925C62.185 78.0925 62.8122 77.5441 62.8122 77.419C62.8122 77.3721 62.8827 77.3093 62.9686 77.2858C63.055 77.2623 63.1255 77.1918 63.1255 77.1214C63.1255 77.0509 63.1884 76.9963 63.2825 76.9963C63.3841 76.9963 63.4705 76.9182 63.5176 76.8008C63.5564 76.691 63.6269 76.6047 63.6739 76.6047C63.7133 76.6047 63.7527 76.5736 63.7527 76.5343C63.7527 76.4955 63.9484 76.2524 64.1835 76.0023C64.4263 75.7516 64.6379 75.4775 64.6614 75.3917C64.6849 75.3054 64.8184 75.1804 64.9518 75.1176C65.1081 75.0395 65.2651 74.8751 65.3827 74.6479C65.4767 74.4523 65.7824 74.0607 66.0645 73.7631C66.3466 73.466 66.5741 73.1842 66.5741 73.1372C66.5741 73.082 66.7228 72.863 66.8951 72.6517C67.0755 72.4327 67.3106 72.0722 67.4205 71.8532C67.5534 71.579 67.6709 71.4381 67.765 71.4381C67.8673 71.4381 67.9061 71.3759 67.9061 71.2426C67.9061 71.1328 67.9378 71.0471 67.9766 71.0471C68.016 71.0471 68.0789 70.9766 68.1024 70.8827C68.1335 70.7887 68.2435 70.5926 68.3451 70.4441C68.4468 70.2873 68.5332 70.0995 68.5332 70.0214C68.5332 69.9351 68.5726 69.8728 68.6114 69.8728C68.6584 69.8728 68.6902 69.8259 68.6902 69.7707C68.6902 69.7084 68.7607 69.5987 68.8465 69.5206C68.9329 69.4419 69.0035 69.3327 69.0035 69.2775C69.0035 69.2229 69.0505 69.1448 69.1134 69.1131C69.1757 69.082 69.231 69.035 69.2227 69.0115C69.2227 68.8471 69.3485 68.5418 69.4426 68.5107C69.5049 68.4872 69.5519 68.3616 69.5519 68.2289C69.5519 68.088 69.5989 67.9706 69.6695 67.9471C69.7323 67.9154 69.787 67.8608 69.787 67.8138C69.787 67.7434 70.2966 66.6554 70.7669 65.7002C70.8298 65.5828 70.8609 65.4342 70.8374 65.379C70.8139 65.3168 70.8686 65.2147 70.9626 65.1524C71.0884 65.0661 71.1507 64.9176 71.1901 64.6123C71.2212 64.3539 71.2765 64.2048 71.3388 64.2207C71.394 64.2283 71.4328 64.1895 71.4328 64.1267C71.4328 64.0639 71.4722 63.9154 71.5269 63.7903C71.6445 63.5003 71.6762 63.3828 71.7232 63.0623C71.7467 62.9132 71.8173 62.7253 71.8796 62.6548C71.9501 62.5767 72.013 62.373 72.0289 62.1933C72.0442 62.0131 72.0912 61.8252 72.1306 61.7783C72.1617 61.7313 72.217 61.5827 72.2405 61.4571C72.2716 61.3244 72.3657 60.9017 72.4597 60.5177C72.5461 60.1267 72.6402 59.6335 72.6637 59.4222C72.6872 59.2026 72.7419 58.9836 72.7889 58.9208C72.8359 58.8662 72.8906 58.7094 72.8988 58.5685C72.9065 58.4358 72.9535 58.1305 72.9929 57.8957C73.275 56.3298 73.4784 53.8404 73.4866 52.0242C73.4943 50.7012 73.181 46.8576 73.0005 45.9965C72.9611 45.8008 72.8906 45.4485 72.8359 45.2136C72.7889 44.9788 72.7025 44.603 72.6478 44.3917C72.5849 44.1725 72.5144 43.8437 72.4909 43.648C72.4597 43.4523 72.3345 42.967 72.2087 42.5599C72.0835 42.1528 71.9819 41.7458 71.9819 41.6518C71.9819 41.5579 71.9348 41.4326 71.8719 41.3856C71.8173 41.3387 71.7467 41.1508 71.7309 40.9629C71.7073 40.7829 71.6209 40.4776 71.5351 40.2819C71.347 39.8435 71.2371 39.5617 70.955 38.7397C70.751 38.1369 70.0927 36.7357 69.9363 36.5635C69.8969 36.5243 69.8658 36.3834 69.8658 36.2425C69.8658 36.1094 69.8105 35.9529 69.74 35.8902C69.6777 35.8354 69.5284 35.6084 69.419 35.397C69.3091 35.1779 69.0817 34.8178 68.9171 34.5908C68.7525 34.3637 68.6114 34.1445 68.6114 34.0976C68.6114 34.0584 68.5803 34.0193 68.5332 34.0193C68.4939 34.0193 68.4786 33.9723 68.5021 33.9175C68.5256 33.8549 68.4862 33.761 68.4157 33.7061C68.3528 33.6514 68.2981 33.5574 68.2981 33.5026C68.2981 33.44 68.267 33.393 68.2199 33.393C68.1806 33.393 68.1412 33.3226 68.1412 33.2365C68.1412 33.1582 68.0789 33.0486 68.0083 33.0095C67.9296 32.9625 67.8984 32.9233 67.9378 32.9233C67.9766 32.9233 67.9531 32.8607 67.8908 32.7824C67.8279 32.712 67.6163 32.3832 67.4358 32.0622C66.9109 31.1463 65.3356 28.8135 64.8107 28.1638C62.4278 25.236 60.2335 23.0911 57.6002 21.1027C57.3022 20.8757 56.9184 20.5782 56.7614 20.4373C56.4793 20.2025 56.4716 20.179 56.5581 19.9206C56.7144 19.4431 56.8478 19.1691 56.973 19.0674C57.0359 19.0126 57.0906 18.903 57.0906 18.8325C57.0906 18.7543 57.1223 18.676 57.1535 18.6603C57.2317 18.629 57.6396 17.7914 57.6396 17.674C57.6396 17.6191 57.6708 17.58 57.7101 17.58C57.843 17.58 58.1016 16.531 58.1957 15.6229C58.2897 14.6601 58.235 12.5778 58.1016 12.0533C58.0546 11.8811 57.9688 11.4975 57.8982 11.2C57.8353 10.8947 57.7489 10.6364 57.7101 10.6129C57.6708 10.5894 57.5455 10.2528 57.428 9.8692C57.3104 9.47783 57.1929 9.14904 57.1611 9.12556C57.13 9.10207 56.9965 8.84374 56.8637 8.55406C56.7303 8.25663 56.5187 7.89649 56.3852 7.74777C56.26 7.59905 56.1501 7.42679 56.1501 7.36421C56.1501 7.30156 56.0796 7.21543 55.9855 7.16846C55.8915 7.11368 55.8445 7.02756 55.868 6.96497C55.9232 6.82406 55.8445 6.6127 55.7504 6.66748C55.7116 6.69096 55.7034 6.6518 55.7269 6.58921C55.7504 6.51876 55.7351 6.46392 55.6881 6.46392C55.6411 6.46392 55.6017 6.41695 55.6017 6.35437C55.6017 6.29172 55.5782 6.22908 55.5468 6.21346C55.5077 6.19778 55.3274 5.97861 55.1315 5.72028C54.9434 5.46195 54.6377 5.094 54.4653 4.89832C54.285 4.70257 53.8853 4.17029 53.5718 3.71622C52.89 2.71423 52.7724 2.60463 51.9182 2.08014C51.5577 1.85312 51.0404 1.50868 50.7818 1.29732C50.1469 0.796313 49.6845 0.577125 48.6657 0.295309C47.6703 0.013493 47.0277 -0.0647932 46.7455 0.0526302ZM44.316 1.28949C44.2533 1.32863 44.1122 1.3756 44.0025 1.40691C43.8379 1.44606 43.8458 1.4304 44.0417 1.33646C44.2925 1.21904 44.5119 1.17989 44.316 1.28949ZM45.2095 2.27585C45.8364 2.44024 46.8553 2.92559 47.5449 3.38743C48.6265 4.10765 50.4212 6.01771 51.0404 7.0902C51.1188 7.23892 51.299 7.55209 51.4322 7.77126C51.8163 8.42102 52.3962 9.68919 52.506 10.1432C52.5138 10.1667 52.5608 10.2841 52.6157 10.4172C52.6705 10.5424 52.7959 10.9652 52.8978 11.3409C53.6972 14.3078 53.3289 17.2199 51.9417 18.9187C51.6595 19.2631 51.1736 19.5919 49.5278 20.5391C48.7676 20.9696 47.255 21.7681 43.8849 23.4903C41.3065 24.8133 39.5352 25.7292 37.8502 26.6216C37.5524 26.786 36.8392 27.1618 36.2671 27.4592L35.2404 27.9994L35.2796 27.2322C35.4206 24.688 33.9002 20.1634 31.7528 16.7189C31.1023 15.6778 30.6086 14.9498 30.0756 14.253C29.6916 13.7598 29.0254 13.024 28.0144 12.0063C26.9093 10.8947 26.7604 10.7695 26.4078 10.6834L26.0159 10.5816L26.3686 10.425C26.5645 10.3311 26.9172 10.151 27.1523 10.018C27.3874 9.87707 28.3044 9.39951 29.19 8.94549C30.0756 8.49147 31.0239 7.99829 31.3061 7.84952C31.5882 7.7008 32.3641 7.29375 33.0303 6.9571C33.6964 6.6127 34.6683 6.11165 35.1855 5.8377C35.7028 5.5715 36.5492 5.13316 37.0665 4.85916C37.5837 4.59302 38.2185 4.25636 38.4772 4.11546C40.8598 2.80034 41.62 2.44024 42.5526 2.18974C43.0542 2.05666 44.5746 2.10363 45.2095 2.27585ZM26.6272 11.928C29.0646 13.0631 32.27 17.5879 33.8532 22.1204C34.4018 23.6939 34.6056 24.688 34.6526 26.0501C34.6918 27.0835 34.6761 27.3418 34.5586 27.6941C34.3783 28.2656 34.1197 28.5787 33.7043 28.7353C33.2575 28.9075 32.8422 28.8527 32.176 28.5395C31.745 28.336 31.6979 28.2891 31.7763 28.156C31.8155 28.0698 31.886 27.8663 31.9174 27.7097L31.9801 27.4123L32.3876 27.4357C32.7403 27.4514 32.85 27.4201 33.0851 27.2401C34.245 26.3554 33.7827 23.0755 31.9723 19.4588C31.3217 18.1593 30.9534 17.5331 30.201 16.4841C29.143 14.9967 28.0458 13.9242 27.0974 13.4545C26.5959 13.2119 26.4783 13.1805 26.0864 13.2119C25.6946 13.2432 25.6084 13.2823 25.3811 13.5328C24.9187 14.0417 24.7854 14.9576 24.997 16.2884C25.2322 17.8149 25.8748 19.678 26.7526 21.3924C27.1758 22.2143 27.1915 22.2848 27.0896 22.4805L26.9799 22.684L26.8153 22.4257C26.5488 21.9873 25.5456 19.8581 25.2714 19.1456C24.903 18.1828 24.5817 17.1182 24.3544 16.0926C24.0958 14.9263 24.0644 13.3841 24.2839 12.7422C24.6601 11.6462 25.4516 11.3722 26.6272 11.928ZM27.0583 13.9555C27.4971 14.1513 28.2417 14.707 28.6806 15.1454C29.1587 15.6386 29.1038 15.6621 28.5473 15.1846C27.8655 14.5975 27.5206 14.4331 26.9328 14.3939C26.2745 14.3548 26.0002 14.5035 25.7337 15.0515C25.5692 15.3803 25.5456 15.5369 25.5456 16.3432C25.5456 17.4861 25.436 17.2199 25.3732 15.9361C25.3262 14.8558 25.4124 14.4487 25.7808 14.0808C26.0002 13.8616 26.0943 13.8225 26.4078 13.8225C26.6116 13.8225 26.9015 13.8851 27.0583 13.9555ZM24.3309 17.4C24.8168 18.9108 25.2714 20.0146 26.1648 21.8073L26.7761 23.0206L26.6351 23.2555C26.5567 23.3808 26.2275 23.913 25.8905 24.4297C25.1224 25.6274 25.0127 25.9719 25.0519 26.9739C25.0754 27.6628 25.1068 27.788 25.3654 28.3125C25.7102 29.0092 26.2197 29.5337 26.9172 29.9016C27.411 30.1678 27.4188 30.1756 27.1915 30.2226C26.0629 30.4574 24.472 31.1228 23.6255 31.6943C23.1083 32.0466 22.0894 33.0486 21.7054 33.5887C20.9765 34.5986 20.3495 36.2034 20.1771 37.4872C20.0596 38.364 20.0831 39.9922 20.2163 40.7594C20.5376 42.5834 21.3684 44.0551 22.6302 45.0023C23.4296 45.6051 24.4876 46.153 24.9657 46.2079C25.1773 46.2313 25.3889 46.3018 25.436 46.3566C25.483 46.4192 25.6241 46.4662 25.7494 46.4662C25.9845 46.4662 26.1178 46.5836 25.961 46.6462C25.8983 46.6697 25.914 46.6932 26.0002 46.6932C26.0708 46.701 26.1334 46.7323 26.1334 46.7715C26.1334 46.9829 26.7604 47.0454 29.0176 47.0298C31.0866 47.022 31.3061 47.0298 31.3061 47.1472C31.3061 47.2177 31.3296 47.249 31.3609 47.2177C31.4471 47.1316 31.6979 47.7109 31.8233 48.3058C31.886 48.6033 31.9487 49.2765 31.9566 49.7931C31.9723 50.709 31.9644 50.7482 31.7136 51.2727C31.212 52.3295 29.9502 53.2846 28.6022 53.629C27.7166 53.856 26.4313 53.7621 25.6162 53.4177C25.2165 53.2533 24.7306 52.7522 24.5346 52.3139C24.2682 51.7111 24.2525 51.6563 24.1663 50.9831C24.0409 49.9889 23.7352 49.5035 23.0064 49.1356C22.0032 48.6268 20.8198 49.0965 20.2869 50.2081C20.1066 50.5838 20.0752 50.7482 20.0752 51.2806C20.0909 52.5878 20.5925 54.2239 21.2979 55.2886C21.7289 55.9305 22.4107 56.6193 23.0377 57.0344C23.6255 57.426 24.6522 57.8639 25.1303 57.9344C25.334 57.9661 25.483 58.0207 25.4595 58.06C25.436 58.0988 25.6084 58.1305 25.8357 58.1381C26.1334 58.1458 26.1962 58.1616 26.0551 58.201C25.8827 58.2479 25.9062 58.2714 26.3294 58.4746C26.588 58.592 26.9642 58.7329 27.1758 58.7799C27.3796 58.835 27.5442 58.8973 27.5442 58.9208C27.5442 59.0382 29.7072 58.9912 30.4048 58.8662C30.7967 58.7957 31.1258 58.7094 31.1493 58.6783C31.1729 58.6472 31.3688 58.5843 31.5804 58.5297C31.7998 58.4745 32.3249 58.3184 32.756 58.1692L33.5397 57.9033L33.6416 58.1146C33.72 58.279 33.7357 59.7897 33.72 65.2146C33.6964 72.0487 33.6964 72.1039 33.861 72.4562C34.0648 72.8941 34.6291 73.419 35.0288 73.5517C35.2404 73.6222 35.5931 73.638 36.22 73.6069C37.043 73.5599 37.1057 73.5676 37.1057 73.7008C37.1057 73.8805 37.2859 74.0373 37.4505 74.0061C37.5211 73.9903 37.6621 74.0842 37.7562 74.2093L37.9443 74.4441L39.1277 74.4206C40.1074 74.4054 40.3895 74.3737 40.7265 74.241C41.1105 74.0919 41.761 74.0061 43.9241 73.8183C44.3003 73.7866 44.6373 73.7161 44.6922 73.6539C44.7627 73.5834 45.0057 73.5517 45.4054 73.5517C45.8599 73.5517 46.048 73.5206 46.1185 73.4343C46.1813 73.3562 46.3537 73.3169 46.5888 73.3169C47.0277 73.3169 47.7644 73.1607 47.7644 73.0744C47.7644 73.035 47.8976 72.9881 48.0622 72.957C48.219 72.9258 48.603 72.7691 48.9086 72.6123C49.2143 72.4561 49.567 72.2994 49.6845 72.2683C49.8021 72.2366 50.0137 72.1274 50.1548 72.0252C50.288 71.916 50.5153 71.7904 50.6485 71.7434C50.8053 71.6888 50.8993 71.6025 50.8993 71.5168C50.8993 71.4463 51.0012 71.2972 51.1266 71.1956C51.7693 70.6555 52.0044 70.3895 52.2787 69.8646C52.4511 69.5441 52.6 69.2699 52.6235 69.2464C52.647 69.2229 52.8116 68.9176 52.9919 68.5653C53.3681 67.8532 53.4935 67.1486 53.517 65.7237C53.5248 64.7138 53.3602 63.0153 53.2348 62.8509C53.1956 62.7957 53.18 62.6548 53.2113 62.5298C53.2426 62.3654 53.227 62.2873 53.1408 62.2556C53.0781 62.2321 52.9605 62.0912 52.89 61.9503C52.8194 61.8094 52.7333 61.6767 52.7097 61.6532C52.6392 61.6062 52.4903 61.2146 52.4276 60.9093C52.4041 60.776 52.3179 60.4942 52.2316 60.2829C52.0044 59.6881 51.973 59.5942 51.926 59.3828C51.8398 58.9836 51.9574 57.3473 52.0749 57.3473C52.1063 57.3473 52.1533 57.2692 52.1768 57.1676C52.2003 57.0737 52.2708 56.8541 52.3336 56.6821C52.4041 56.5101 52.4667 56.2048 52.4824 56.0166C52.4981 55.8209 52.5452 55.6095 52.5843 55.5469C52.6705 55.406 52.6705 55.406 52.7881 54.8424C52.89 54.3257 52.8273 52.7209 52.6705 51.8677C52.4903 50.8891 52.3257 50.4272 52.0749 50.1846C51.9417 50.0593 51.8398 49.8793 51.8398 49.7853C51.8398 49.5035 51.5263 48.5798 51.2441 48.024C50.8993 47.3351 50.1469 46.3957 49.6218 46.0043C48.65 45.2685 47.2315 44.8301 45.6483 44.7674C44.653 44.7283 44.363 44.7596 40.9459 45.245C37.3173 45.7538 36.0319 45.9182 35.7342 45.9182C35.6087 45.9182 35.5226 45.7773 35.3266 45.2685C35.1777 44.9162 34.9112 44.423 34.7153 44.1725C33.9864 43.2488 32.0976 42.0824 31.0709 41.9258C30.7888 41.8867 29.4956 41.8475 28.1947 41.8397C25.9924 41.8397 25.82 41.824 25.6554 41.6831C25.5613 41.6049 25.4595 41.5579 25.4203 41.5735C25.3889 41.597 25.334 41.5735 25.3027 41.5265C25.2635 41.464 25.2792 41.4561 25.3419 41.4874C25.4203 41.5344 25.4281 41.3074 25.3968 40.4619L25.3497 39.3738L25.6241 38.9119C25.7808 38.6614 25.8905 38.4109 25.867 38.3561C25.8435 38.3013 25.8983 38.1996 25.9845 38.1213C26.0629 38.0508 26.1334 37.9491 26.1334 37.8943C26.1334 37.8394 26.204 37.7377 26.2902 37.6594C26.3764 37.5811 26.447 37.4794 26.447 37.4246C26.447 37.3072 26.878 36.9001 26.9328 36.9627C26.9564 36.9862 27.0426 36.8923 27.1209 36.7592C27.2072 36.6261 27.3561 36.493 27.4658 36.4695C27.6461 36.4226 27.7244 36.3756 27.9752 36.1486C28.0301 36.1016 28.1241 36.0546 28.1712 36.0546C28.2182 36.0546 28.3906 35.9842 28.5552 35.8981C28.9784 35.6867 30.5223 35.5223 31.1885 35.6163C31.4628 35.6632 31.5255 35.7102 31.6352 35.9685C31.7763 36.2816 31.886 36.8688 31.9723 37.6829C32.0349 38.2778 32.3249 38.7084 32.9049 39.0685C33.3516 39.3425 34.1432 39.4286 34.6526 39.2564C35.1307 39.0998 35.2639 39.1076 35.3501 39.2877C35.5226 39.6869 36.3768 39.4521 36.6432 38.9354C36.8392 38.5519 36.9176 37.996 36.8078 37.722C36.7608 37.5968 36.706 37.268 36.6746 36.9862C36.6276 36.493 36.6119 36.4539 36.3611 36.3208C36.2122 36.2425 36.126 36.1564 36.173 36.1251C36.22 36.0938 36.1809 35.9216 36.0633 35.6554C35.9614 35.4205 35.7968 34.9822 35.695 34.6847C35.3188 33.5026 34.5429 32.2814 33.7435 31.6082C32.8578 30.8567 31.5961 30.2539 30.6712 30.1365C30.0286 30.0582 29.9973 30.0112 30.3813 29.7607C30.5694 29.6355 30.8985 29.3459 31.118 29.111L31.5255 28.6883L31.9801 28.9779C32.6227 29.3928 33.2654 29.5807 33.8062 29.5103C34.1667 29.4633 34.2921 29.4006 34.5899 29.1266C34.8328 28.8997 35.3345 28.6022 36.1182 28.2342C36.7608 27.9211 37.3016 27.6941 37.3251 27.7176C37.3486 27.7332 37.4191 27.7097 37.4897 27.6628C37.5602 27.608 37.5916 27.5923 37.5602 27.6315C37.5289 27.6706 37.5759 27.788 37.6543 27.8976C37.7405 27.9994 37.811 28.156 37.811 28.2342C37.811 28.3125 37.8737 28.3908 37.9521 28.4143C38.2656 28.5004 38.9318 28.5552 38.9788 28.4925C39.065 28.3673 39.3706 28.2264 39.5431 28.2264C39.7468 28.2264 39.9506 28.1168 40.2014 27.8741C40.3033 27.7645 40.4992 27.655 40.6246 27.6315C40.7578 27.6001 40.9224 27.5141 40.9929 27.4357C41.0635 27.3497 41.1654 27.287 41.2202 27.287C41.3065 27.287 41.4162 27.2088 41.7924 26.8956C41.8473 26.8486 41.9178 26.8251 41.9569 26.8486C41.9961 26.8721 42.0667 26.8408 42.1215 26.7782C42.1764 26.7156 42.3175 26.6607 42.4429 26.6607C42.5682 26.6607 42.7407 26.5903 42.8269 26.5042C42.9131 26.4181 43.0542 26.3476 43.1325 26.3476C43.3598 26.3476 43.5322 26.2615 43.5322 26.1598C43.5322 26.105 43.7125 26.011 43.9241 25.9562C44.1435 25.9014 44.316 25.8232 44.316 25.7918C44.316 25.7605 44.3787 25.7214 44.4571 25.6979C44.5276 25.6666 44.7313 25.557 44.9038 25.4552C45.327 25.1891 45.5778 25.0717 45.7502 25.0795C45.8286 25.0795 45.9304 25.0168 45.9853 24.9307C46.0324 24.8524 46.1185 24.782 46.1656 24.782C46.2126 24.782 46.3145 24.7115 46.3929 24.6254C46.4712 24.5393 46.6123 24.4689 46.7142 24.4689C46.9807 24.4689 47.2941 24.328 47.2941 24.2105C47.2941 24.007 47.6233 23.9287 47.9603 24.0539C48.6892 24.3201 49.324 24.602 49.8648 24.8759C50.2723 25.0873 50.4291 25.1342 50.4291 25.056C50.4291 24.9855 50.4996 24.9386 50.6015 24.9386C50.8288 24.9386 50.7504 24.8681 49.9589 24.3984C49.5905 24.1792 49.2221 23.9444 49.1359 23.8817C49.0575 23.8191 48.9478 23.7643 48.9008 23.7643C48.8146 23.7643 49.2065 23.506 49.6845 23.2555C50.1391 23.0128 50.3742 22.8797 50.4839 22.778C50.531 22.7232 50.7034 22.6605 50.8679 22.6371C51.0247 22.6058 51.2285 22.5118 51.3147 22.4257C51.4009 22.3474 51.5577 22.277 51.6438 22.277C51.7379 22.277 51.926 22.183 52.0592 22.0577C52.4589 21.6977 52.5373 21.6507 52.6627 21.6507C52.7254 21.6507 52.7803 21.6194 52.7803 21.5802C52.7803 21.5411 52.8821 21.4941 53.0154 21.4706C53.1408 21.4393 53.3132 21.3532 53.3916 21.2749C53.4699 21.1967 53.6894 21.0714 53.8853 20.9931C54.2929 20.8287 54.4417 20.7191 54.3791 20.6252C54.3556 20.5861 54.3712 20.5547 54.4182 20.5547C54.4574 20.5547 54.5123 20.6017 54.528 20.6487C54.5593 20.7113 54.5907 20.6878 54.622 20.5861C54.6534 20.4765 54.7631 20.3982 54.912 20.3669C55.0374 20.3434 55.1236 20.2886 55.0923 20.2416C55.0139 20.1164 55.7269 20.5312 56.5816 21.1106C60.3117 23.6391 64.1207 27.7332 66.5894 31.8587C68.1494 34.4811 69.3797 37.2837 70.2185 40.1644C72.6637 48.5876 71.9113 57.6684 68.1024 65.5282C66.3073 69.2464 63.9719 72.4796 61.0018 75.3917C59.1208 77.2312 57.6396 78.4289 55.6017 79.7751C50.8366 82.8986 45.5229 84.7932 39.7703 85.4197C37.9913 85.6152 34.1275 85.6152 32.4033 85.4273C24.3074 84.5273 17.0579 81.122 11.3288 75.5479C9.41649 73.685 8.11552 72.135 6.68129 70.029C3.60123 65.5047 1.6419 60.4631 0.905196 55.1164C0.662236 53.3942 0.670077 53.4489 0.583865 51.7346C0.113627 42.1371 3.66395 32.618 10.2943 25.6823C14.0718 21.7368 18.2413 18.95 23.4688 16.8911C23.7901 16.7581 24.0644 16.6485 24.0723 16.6485C24.0801 16.6407 24.1976 16.9851 24.3309 17.4ZM29.6367 19.5919C29.8327 19.8032 30.0678 20.1242 30.154 20.3121C30.3186 20.68 30.4361 21.5724 30.3186 21.5724C30.2794 21.5724 30.1148 21.4628 29.9581 21.3376C29.4486 20.9227 28.9549 19.8502 29.0646 19.4118C29.1351 19.1456 29.2292 19.177 29.6367 19.5919ZM33.1635 23.8974C33.14 23.9757 33.1243 23.9287 33.1243 23.8035C33.1243 23.6704 33.14 23.6156 33.1635 23.6626C33.1792 23.7174 33.1792 23.827 33.1635 23.8974ZM33.2967 25.4474C33.2105 26.332 32.8578 26.8173 32.3171 26.8173C32.0349 26.8173 32.0114 26.8017 32.0114 26.5903C32.0114 26.4024 32.0506 26.3476 32.2387 26.3085C32.7403 26.1989 33.0694 25.6196 33.1635 24.6567L33.2184 24.0383L33.281 24.508C33.3124 24.7664 33.3203 25.1891 33.2967 25.4474ZM29.6132 42.4894C29.8875 42.4973 29.9816 42.5129 29.8405 42.5286C29.6994 42.5443 29.5819 42.6068 29.5819 42.6617C29.5819 42.8887 25.8748 42.873 25.6476 42.646C25.577 42.5755 25.5848 42.5521 25.7024 42.5442C26.7761 42.4738 28.3044 42.419 28.6727 42.4424C28.9235 42.4581 29.3467 42.4816 29.6132 42.4894ZM47.2941 50.3568C47.5371 50.529 47.8428 51.4215 47.8428 51.9694C47.8428 53.0105 47.4901 53.9186 46.8396 54.5527C46.0715 55.2964 45.1389 55.68 43.6498 55.8601C43.2658 55.907 42.5369 56.0088 42.0432 56.095C41.2595 56.22 39.7312 56.4079 39.1512 56.4396C38.9396 56.4472 38.9396 56.4472 38.8612 55.3669C38.822 54.8815 38.8299 54.6858 38.9004 54.6858C38.9553 54.6858 38.9866 54.4588 38.9866 53.9813C38.9866 53.4177 39.0101 53.2767 39.0964 53.2767C39.1747 53.2767 39.2296 53.1515 39.2688 52.901C39.3393 52.3999 39.4569 52.1965 39.9898 51.6484C40.3581 51.2727 40.5306 51.1553 40.8833 51.0535C41.1262 50.9831 41.3613 50.9283 41.4083 50.9283C41.4554 50.9283 41.4946 50.8891 41.4946 50.85C41.4946 50.803 41.5572 50.7717 41.6356 50.7717C41.714 50.7717 41.808 50.7482 41.8394 50.7169C41.8708 50.6856 42.004 50.6699 42.145 50.6778C42.2861 50.6934 42.5291 50.6465 42.6858 50.5838C42.8504 50.5134 43.1482 50.4586 43.352 50.4586C43.5557 50.4586 43.9241 50.4037 44.1592 50.3333C44.4492 50.255 44.99 50.2081 45.7972 50.1924C46.7769 50.1768 47.0199 50.1533 47.0512 50.0672C47.0825 49.981 47.0982 49.9889 47.1217 50.1063C47.1452 50.1924 47.2158 50.302 47.2941 50.3568ZM52.0514 50.5525C52.0279 50.6073 52.0122 50.5681 52.0122 50.4586C52.0122 50.349 52.0279 50.3098 52.0514 50.3568C52.067 50.4116 52.067 50.5056 52.0514 50.5525ZM44.8098 56.5647C44.9429 56.7837 44.9429 56.7919 44.7941 56.87C44.7078 56.9169 43.4147 57.1283 41.9099 57.3473C40.413 57.5669 38.8455 57.7935 38.438 57.8563C37.3408 58.0283 37.38 58.0366 37.5994 57.645L37.7875 57.3085L39.0728 57.1048C39.7782 56.995 40.9224 56.823 41.6121 56.7214C42.3018 56.6275 43.1482 56.5018 43.4931 56.4472C44.5354 56.2828 44.653 56.2987 44.8098 56.5647ZM46.0794 60.6821C46.4242 60.7056 46.8239 60.7291 46.965 60.7214C47.1688 60.7138 47.2393 60.7449 47.2706 60.87C47.2941 60.9563 47.3412 61.0267 47.3725 61.0267C47.4117 61.0267 47.5057 61.0502 47.5842 61.0737C47.7017 61.1131 47.7017 61.1048 47.6077 61.0344C47.5449 60.9956 47.5136 60.9328 47.5449 60.9093C47.6938 60.7608 48.2425 61.9503 48.4384 62.8509C48.6892 63.9934 48.5795 64.8547 48.0622 65.8176C47.5057 66.8586 46.5731 67.579 45.233 67.9858C44.7705 68.1268 41.0949 68.6828 39.7312 68.816C39.4726 68.8395 39.1355 68.8783 38.9866 68.9017C38.7828 68.9252 38.7437 68.9176 38.8377 68.863C38.9474 68.7925 38.9553 68.7139 38.8926 68.3305C38.7593 67.5479 38.8612 65.0115 39.0572 64.1737C39.1512 63.7745 39.206 63.4146 39.1825 63.3828C39.1669 63.3441 39.2531 63.2971 39.3785 63.2654C39.5117 63.2419 39.6136 63.1715 39.6136 63.1169C39.6136 62.9683 40.6011 62.0677 40.8284 62.0131C40.9303 61.9896 41.0635 61.9192 41.1184 61.8646C41.2595 61.7313 41.7218 61.5593 42.004 61.5434C42.4272 61.5123 43.3755 61.254 43.3755 61.1677C43.3755 61.1365 43.4461 61.1048 43.5322 61.1048C43.6185 61.1048 43.689 61.0814 43.689 61.0426C43.689 60.9798 44.073 60.7919 44.2141 60.7919C44.269 60.7919 44.316 60.7608 44.316 60.7214C44.316 60.6199 44.6687 60.5729 45.0997 60.604C45.2956 60.6199 45.7345 60.6586 46.0794 60.6821Z" fill="black"></path>
<path d="M18.8994 19.6477C18.5782 19.7651 17.8649 20.18 17.5514 20.4384L17.3477 20.595L18.586 22.4503C19.2678 23.4757 19.8556 24.3133 19.8869 24.3133C20.0124 24.3133 21.1017 23.5305 21.3133 23.28C22.246 22.1762 21.8384 20.4306 20.4747 19.726C20.1299 19.546 19.2835 19.5068 18.8994 19.6477ZM20.1613 20.2818C21.039 20.6575 21.4701 21.8083 21.0234 22.6068C20.8431 22.9434 20.1613 23.4992 20.0359 23.4209C19.9967 23.3974 19.5656 22.7947 19.0797 22.0745L18.1941 20.7672L18.3822 20.6263C18.9622 20.18 19.6127 20.0548 20.1613 20.2818Z" fill="black"></path>
<path d="M54.543 21.1188C53.7515 22.1364 51.9961 24.4612 51.9961 24.4925C51.9961 24.5786 53.344 25.5805 53.6026 25.6823C54.1512 25.9171 54.6919 25.7762 55.1072 25.3065C55.4599 24.9073 55.5226 24.4846 55.3267 23.8663C55.2797 23.7254 55.311 23.6706 55.452 23.6158C55.8831 23.4514 56.1493 23.0444 56.1493 22.5435C56.1493 22.1443 55.9848 21.8781 55.4285 21.4084C55.1542 21.1736 54.927 20.9623 54.9113 20.9232C54.8565 20.8136 54.7389 20.8762 54.543 21.1188ZM55.2326 22.0503C55.4599 22.2382 55.5226 22.3399 55.5226 22.5513C55.5226 22.9192 55.2953 23.1696 54.9583 23.1696C54.684 23.1696 54.1903 22.8878 54.1903 22.7313C54.1903 22.6452 54.8251 21.8155 54.8956 21.8076C54.9191 21.8076 55.0681 21.9172 55.2326 22.0503ZM54.2373 23.5453C54.7389 23.9211 54.8173 24.0385 54.8173 24.4455C54.8095 24.7664 54.7154 24.9387 54.4489 25.0796C54.1277 25.2518 53.8456 25.1891 53.344 24.8134C53.0775 24.6177 52.8581 24.4377 52.8581 24.4221C52.8581 24.3672 53.7358 23.2166 53.775 23.2166C53.7907 23.2166 54.0022 23.3653 54.2373 23.5453Z" fill="black"></path>
<path d="M16.3131 21.3075L16.0858 21.5032L16.2896 21.7537C16.3992 21.8945 16.8224 22.4112 17.2299 22.9043C17.6374 23.3974 17.9352 23.8123 17.896 23.8279C17.8647 23.8436 16.987 23.7419 15.9525 23.6088C14.9181 23.4757 14.0169 23.374 13.9464 23.3896C13.8524 23.4052 14.1737 23.8514 15.0827 24.9786C15.7802 25.8396 16.4306 26.6224 16.5247 26.7242L16.7049 26.912L16.9321 26.7163L17.1594 26.5206L16.1955 25.3387C15.6704 24.689 15.2629 24.1567 15.3021 24.1567C15.3335 24.1567 16.2582 24.282 17.3553 24.4307C18.4525 24.5872 19.3693 24.6968 19.4007 24.689C19.4555 24.6655 16.987 21.5658 16.6657 21.2448C16.5403 21.1196 16.5168 21.1274 16.3131 21.3075Z" fill="black"></path>
<path d="M56.1108 24.9174C55.2956 25.794 54.6138 26.5455 54.6059 26.5689C54.5981 26.6003 54.6921 26.702 54.8175 26.796L55.037 26.976L55.5936 26.4046L56.1419 25.841L56.377 26.0758L56.6045 26.3106L56.4634 27.0543C56.2595 28.0718 56.2671 28.1579 56.5416 28.4241C56.6668 28.5493 56.7926 28.6276 56.8237 28.6041C56.8472 28.5806 56.9336 28.158 57.0277 27.6726C57.1135 27.1795 57.1922 26.7725 57.2075 26.7568C57.2157 26.749 57.3251 26.7725 57.4508 26.8194C58.0151 27.0386 58.8144 26.6473 59.1277 25.9976C59.3393 25.5671 59.3081 25.1052 59.0413 24.6278C58.8767 24.3381 57.7876 23.2892 57.6624 23.3049C57.6307 23.3049 56.9336 24.0328 56.1108 24.9174ZM58.1244 24.526C58.5793 24.9878 58.6734 25.2226 58.5711 25.6062C58.4771 25.9506 58.1168 26.1932 57.7012 26.1932C57.4661 26.1932 57.3409 26.1228 56.9806 25.794L56.5416 25.3948L57.1135 24.7765C57.4191 24.4399 57.6936 24.1581 57.7171 24.1581C57.7406 24.1581 57.9287 24.3225 58.1244 24.526Z" fill="black"></path>
<path d="M11.9321 25.6883C12.0105 25.8997 12.4259 26.9251 12.8491 27.9663C13.5074 29.6024 13.6328 29.8529 13.7426 29.7903C14.009 29.6494 14.0796 29.391 13.9463 29.0075L13.8209 28.663L14.5028 27.9819L15.1768 27.3088L15.5608 27.4497L15.937 27.5984L16.1408 27.3792C16.2505 27.2618 16.3367 27.1522 16.3367 27.1287C16.3367 27.0895 12.2534 25.43 11.9557 25.3517L11.7832 25.3047L11.9321 25.6883ZM13.7661 26.7373C14.1658 26.9095 14.5185 27.0817 14.5498 27.113C14.5811 27.1444 14.4009 27.3792 14.1423 27.6375C13.8601 27.9115 13.6485 28.0681 13.6093 28.0289C13.5466 27.9585 13.3115 27.434 13.0058 26.7138C12.9432 26.5494 12.9196 26.4241 12.9588 26.4241C13.0058 26.4241 13.3664 26.5651 13.7661 26.7373Z" fill="black"></path>
<path d="M59.4646 26.8001C58.8851 27.0036 58.399 27.442 58.1327 27.9743C57.9446 28.3501 57.9129 28.5144 57.9211 29.0076C57.9287 29.7044 58.0698 30.0566 58.5165 30.5498C58.9709 31.0273 59.363 31.2152 60.0372 31.2622C60.8283 31.3091 61.3144 31.1369 61.8317 30.6203C62.3096 30.1428 62.4977 29.6731 62.4977 28.9372C62.4977 28.5614 62.443 28.311 62.3096 28.0291C62.1062 27.5907 61.526 27.0193 61.1187 26.847C60.6561 26.6513 59.9272 26.6357 59.4646 26.8001ZM61.0323 27.536C62.2003 28.1857 62.1215 29.947 60.8989 30.5028C59.9508 30.9334 58.8145 30.3541 58.5871 29.3208C58.4619 28.7493 58.6029 28.2718 59.0414 27.8334C59.6139 27.262 60.3428 27.1523 61.0323 27.536Z" fill="black"></path>
<path d="M8.58547 28.8989C8.49143 29.0163 8.4209 29.1259 8.4209 29.1572C8.42872 29.2276 11.8455 31.9829 11.9239 31.9751C11.9552 31.9751 12.2843 31.5993 12.6527 31.1532C13.5852 29.9947 13.5539 30.0495 13.4363 29.9008C13.1542 29.572 13.0837 29.6033 12.4646 30.3783C12.1354 30.7853 11.8455 31.1219 11.822 31.1219C11.8063 31.1219 11.1245 30.5739 10.3095 29.9086C9.49453 29.2433 8.80487 28.6953 8.78924 28.6953C8.76573 28.6953 8.67169 28.7892 8.58547 28.8989Z" fill="black"></path>
<path d="M63.0549 29.3948L62.8591 29.5435L63.1883 29.9819C63.3682 30.2168 63.5175 30.4438 63.5175 30.4908C63.5175 30.5299 63.1883 30.7961 62.7963 31.0935C60.9547 32.4321 60.4609 32.8079 60.4609 32.8862C60.4686 33.0427 60.7666 33.3324 60.8683 33.2698C60.9229 33.2385 61.6283 32.7218 62.4359 32.1268C63.2506 31.5319 63.9248 31.0465 63.9407 31.0465C63.956 31.0465 64.1053 31.2344 64.2699 31.4537C64.4344 31.6806 64.5832 31.892 64.6143 31.9312C64.6378 31.9624 64.7713 31.8999 64.9123 31.7981L65.1633 31.618L64.2934 30.4281C63.8149 29.7784 63.384 29.2461 63.3294 29.2461C63.2824 29.2461 63.1566 29.3165 63.0549 29.3948Z" fill="black"></path>
<path d="M7.62101 30.2115L7.40942 30.5168L7.95796 31.597C8.25577 32.1919 8.49869 32.7164 8.49869 32.7633C8.49869 32.8024 8.12253 32.5833 7.66015 32.278C7.19783 31.9727 6.77465 31.7222 6.71976 31.7144C6.61009 31.7066 6.32009 32.1058 6.3828 32.1606C6.40631 32.1841 7.25267 32.7476 8.26359 33.4208L10.1052 34.6497L10.2776 34.4306C10.3795 34.3132 10.4578 34.1958 10.4578 34.1723C10.45 34.1488 10.0817 33.8905 9.63498 33.5852C8.83564 33.0607 8.67107 32.8963 8.95319 32.9277C9.02372 32.9355 9.58796 32.9355 10.1914 32.9277L11.2964 32.9198L11.5079 32.6067L11.7117 32.2937H10.3481H8.9767L8.39683 31.1039L7.82472 29.9062L7.62101 30.2115Z" fill="black"></path>
<path d="M63.6425 33.3929C62.6627 33.9877 61.8164 34.5122 61.7776 34.5513C61.7071 34.6218 61.7382 34.7314 61.9339 35.021C61.9892 35.0992 62.1849 35.0132 62.7885 34.653C63.227 34.3869 63.6114 34.1756 63.6501 34.1756C63.7289 34.1756 64.7398 35.8037 64.6846 35.8507C64.6693 35.8585 64.3402 36.062 63.9481 36.289C62.9842 36.8604 63.0312 36.8134 63.1723 37.0874C63.2505 37.244 63.3369 37.3066 63.4309 37.2831C63.5408 37.2596 67.0749 35.1697 67.2001 35.0601C67.216 35.0444 67.169 34.9114 67.0826 34.7627L66.9415 34.4887L66.6988 34.6374C66.5654 34.7157 66.1816 34.9427 65.8524 35.1384L65.2488 35.4984L64.8415 34.8174C64.614 34.4417 64.3789 34.0582 64.3243 33.9642C64.2226 33.8077 64.2461 33.7764 65.0219 33.3145C65.4686 33.0484 65.8366 32.8214 65.8524 32.8058C65.9153 32.751 65.625 32.297 65.5309 32.3048C65.4839 32.3048 64.6299 32.7979 63.6425 33.3929Z" fill="black"></path>
<path d="M5.89675 33.3144C4.96415 33.9329 4.6271 35.1463 5.11304 36.1718C5.84972 37.7139 7.82472 37.9958 8.95329 36.7197C9.12575 36.524 9.32948 36.1953 9.3922 35.9996C9.50976 35.6473 9.5646 34.794 9.47055 34.7079C9.44704 34.6844 9.31385 34.7 9.17277 34.7392C8.92196 34.8175 8.90627 34.841 8.86712 35.2715C8.85143 35.5142 8.77307 35.8195 8.71036 35.9447C7.90313 37.5026 5.57546 36.9468 5.56758 35.1932C5.55976 34.6609 5.86542 34.0894 6.28081 33.8468C6.45321 33.745 6.53157 33.6432 6.50805 33.5728C6.47673 33.5102 6.43752 33.3693 6.41401 33.2675C6.35135 33.0248 6.32784 33.0326 5.89675 33.3144Z" fill="black"></path>
<path d="M65.5782 36.8614C64.4891 37.378 63.5957 37.8321 63.5957 37.8633C63.5957 37.8946 63.8384 38.4347 64.1441 39.061L64.6848 40.2116L64.9434 40.0785C65.0845 40.0081 65.2102 39.9376 65.2255 39.9298C65.2414 39.9141 65.0768 39.5306 64.8576 39.0688C64.6378 38.5991 64.4579 38.1999 64.4579 38.1686C64.4579 38.1138 65.4688 37.6207 65.5782 37.6207C65.6099 37.6207 65.7745 37.9025 65.9467 38.2469C66.1189 38.5913 66.2835 38.8731 66.307 38.8731C66.3622 38.8731 66.8089 38.6383 66.8089 38.607C66.8089 38.5913 66.6831 38.3095 66.5344 37.9808C66.3857 37.6442 66.26 37.3467 66.26 37.3154C66.26 37.2528 67.2632 36.7597 67.3808 36.7597C67.4119 36.7597 67.6159 37.1354 67.8275 37.5972C68.0467 38.059 68.2348 38.4426 68.2506 38.4582C68.2665 38.4739 68.3993 38.4269 68.5563 38.3565L68.8307 38.2234L68.4934 37.5111C67.8275 36.0865 67.7258 35.8986 67.6394 35.9065C67.5924 35.9143 66.6596 36.337 65.5782 36.8614Z" fill="black"></path>
<path d="M3.75805 37.1951C3.69533 37.3517 3.64831 37.4926 3.65612 37.5004C3.70315 37.5474 7.79422 39.1835 7.84912 39.1835C7.93529 39.1835 8.11557 38.7138 8.06072 38.6277C8.04503 38.5964 7.84124 38.4946 7.614 38.4085C7.30834 38.2911 4.65932 37.2186 3.97747 36.9368C3.92263 36.9133 3.82858 37.0229 3.75805 37.1951Z" fill="black"></path>
<path d="M3.75788 38.7006C3.24067 38.9432 2.97424 39.3268 2.69994 40.1878C2.57456 40.6183 2.46484 41.0019 2.46484 41.0488C2.46484 41.0958 2.65292 41.1897 2.8802 41.2524C3.09961 41.3228 4.06351 41.6202 5.01172 41.9177C5.95999 42.2151 6.76714 42.4265 6.79847 42.3951C6.83767 42.3638 6.87687 42.2151 6.87687 42.0742C6.89251 41.8159 6.89251 41.8159 6.22641 41.6046C5.56032 41.4011 5.56032 41.4011 5.57596 41.1428C5.57596 41.0019 5.61516 40.861 5.66218 40.814C5.70138 40.7748 6.12456 40.6339 6.60257 40.5009L7.47244 40.2661L7.58998 39.906C7.66051 39.7103 7.70753 39.5381 7.69184 39.5303C7.67621 39.5146 7.28436 39.6086 6.80634 39.7338C6.33615 39.8669 5.90509 39.9686 5.85807 39.9686C5.79542 39.9686 5.75622 39.8747 5.75622 39.7416C5.75622 38.9824 4.52589 38.3405 3.75788 38.7006ZM4.91768 39.5772C5.05092 39.726 5.12927 39.906 5.12927 40.0626C5.12927 40.3678 4.88635 41.1428 4.79232 41.1428C4.67477 41.1428 3.37391 40.7357 3.30338 40.6809C3.18583 40.5714 3.49928 39.7808 3.7657 39.5146C4.00867 39.272 4.07133 39.2485 4.36914 39.2876C4.60424 39.3189 4.76099 39.405 4.91768 39.5772Z" fill="black"></path>
<path d="M66.966 39.6929C65.8692 40.0999 64.9364 40.4444 64.897 40.4601C64.8582 40.4679 64.85 40.5696 64.8735 40.6793C64.9834 41.0863 65.0145 41.0942 65.7434 40.8358C66.1196 40.7027 66.457 40.5931 66.4882 40.5931C66.5193 40.5931 66.5898 40.7184 66.6451 40.8749L66.7468 41.149L66.1825 41.8927L65.6182 42.6363L65.7123 42.9808C65.7669 43.1764 65.8375 43.333 65.8768 43.333C65.9162 43.333 66.1984 42.9964 66.504 42.5893L67.0683 41.8378L67.2717 42.0257C67.7108 42.4171 68.2592 42.4954 68.8158 42.2449C69.4348 41.9631 69.7798 41.3446 69.6934 40.6871C69.6311 40.2643 69.145 38.9492 69.0433 38.9571C69.0039 38.9571 68.0634 39.2937 66.966 39.6929ZM68.8705 40.1391C69.1609 40.8984 69.1138 41.2586 68.6748 41.5404C68.3532 41.7361 67.8912 41.6969 67.6326 41.4543C67.468 41.3055 67.1306 40.3974 67.2094 40.3192C67.2717 40.2643 68.4867 39.8338 68.6201 39.8181C68.6983 39.8103 68.7923 39.9277 68.8705 40.1391Z" fill="black"></path>
<path d="M2.19046 42.1045C2.10425 42.4881 1.68104 44.9227 1.69671 44.9461C1.71239 44.954 1.84562 44.9853 2.00237 45.0166L2.29235 45.0714L2.37856 44.6643C2.42558 44.4452 2.46477 44.2025 2.46477 44.1164C2.46477 44.0381 2.49612 43.952 2.52747 43.9285C2.56665 43.905 3.44441 44.0381 4.47112 44.226C5.49782 44.4139 6.36776 44.5469 6.40691 44.5313C6.4383 44.5156 6.46181 44.3669 6.46181 44.2103V43.9207L4.72193 43.6154C3.75794 43.4431 2.89582 43.2787 2.80959 43.2474C2.63719 43.1848 2.63719 43.177 2.74693 42.6212C2.80177 42.3081 2.8488 42.0497 2.8331 42.0419C2.82528 42.034 2.68421 42.0028 2.52747 41.9793C2.26883 41.9401 2.22181 41.9558 2.19046 42.1045Z" fill="black"></path>
<path d="M68.7607 42.8871C68.6114 42.981 68.4315 43.1924 68.3451 43.3646C68.2352 43.5994 68.0941 44.2962 68.063 44.8363C68.063 44.8755 67.9925 44.9694 67.9061 45.0555C67.6709 45.2903 67.3106 45.2591 67.0361 44.985C66.7698 44.7189 66.7387 44.3823 66.9421 44.0378C67.052 43.85 67.052 43.7795 66.9656 43.576C66.9109 43.4429 66.8169 43.3333 66.7622 43.3333C66.6053 43.3333 66.2056 43.9126 66.1509 44.2335C65.9546 45.2434 67.1149 46.2532 67.969 45.807C68.4703 45.5487 68.6667 45.1729 68.7684 44.2727C68.823 43.7795 68.87 43.6621 69.0429 43.5134C69.2933 43.2941 69.4426 43.2863 69.7635 43.482C70.0927 43.6856 70.1714 44.03 69.9598 44.3823C69.8264 44.6093 69.8187 44.6719 69.9128 44.8833C69.9675 45.0242 70.038 45.1338 70.0615 45.1338C70.2184 45.1338 70.4301 44.9303 70.5711 44.6641C71.0331 43.7638 70.4142 42.707 69.4343 42.707C69.1445 42.707 68.9488 42.754 68.7607 42.8871Z" fill="black"></path>
<path d="M2.14311 46.0199C2.00204 46.1138 1.79827 46.3173 1.69638 46.4661C1.30452 47.0376 1.61801 48.0395 2.27634 48.3135C3.06004 48.6423 3.74189 48.2588 4.11026 47.2724C4.32187 46.7088 4.54129 46.4661 4.83131 46.4661C5.09776 46.4661 5.41123 46.7479 5.48964 47.0532C5.5523 47.2959 5.35639 47.7734 5.1683 47.8438C5.04292 47.8908 5.00371 48.3135 5.11345 48.4779C5.19963 48.611 5.59933 48.3605 5.87365 48.0004C6.32038 47.4133 6.17931 46.5052 5.57582 46.0668C5.32506 45.8868 5.18399 45.8398 4.84695 45.8398C4.47076 45.8398 4.38459 45.8711 4.11808 46.1138C3.92217 46.2939 3.73407 46.5757 3.60082 46.9201C3.2325 47.8047 2.8328 48.0161 2.37039 47.562C2.16662 47.3507 2.13527 47.2802 2.17446 47.0297C2.2058 46.8497 2.29985 46.6774 2.43309 46.5757C2.61335 46.427 2.63686 46.3643 2.58983 46.1217C2.52713 45.7929 2.49579 45.785 2.14311 46.0199Z" fill="black"></path>
<path d="M62.2479 65.802C61.8012 66.2799 61.4327 66.6944 61.4168 66.7337C61.3933 66.8042 61.887 67.2897 63.5486 68.8078C64.4813 69.6614 64.7399 69.8569 64.8181 69.7788C65.6409 68.91 66.4168 68.0253 66.4168 67.9472C66.4168 67.9002 66.3227 67.7904 66.2052 67.72L65.9936 67.5791L65.3588 68.2524C65.0138 68.6282 64.6929 68.9334 64.6535 68.9334C64.6065 68.9334 64.379 68.7374 64.1439 68.5025L63.7208 68.0799L63.8701 67.9002C63.9559 67.7981 64.1757 67.5632 64.3555 67.3677L64.6929 67.0079L64.4654 66.7883L64.238 66.5693L63.729 67.1018L63.2271 67.6337L62.7416 67.211C62.4747 66.9844 62.2714 66.7648 62.279 66.7337C62.2949 66.6944 62.577 66.3738 62.9138 66.0058C63.2429 65.6459 63.5174 65.3089 63.5174 65.2619C63.5174 65.1839 63.2118 64.9414 63.1095 64.9414C63.086 64.9414 62.6946 65.3324 62.2479 65.802Z" fill="black"></path>
<path d="M10.3411 67.0166L10.1059 67.2122L10.3019 67.3689L10.4978 67.5257L10.294 67.7053C9.25164 68.5977 7.66853 69.9916 7.65284 70.0303C7.64502 70.0538 7.73125 70.1712 7.84881 70.281L8.06823 70.4847L9.74539 69.0128C10.6702 68.2067 11.4461 67.5098 11.4539 67.4705C11.4696 67.4235 11.3521 67.3061 11.1875 67.2045C11.0229 67.1106 10.8191 66.9773 10.7329 66.9227C10.5918 66.8364 10.537 66.8523 10.3411 67.0166Z" fill="black"></path>
<path d="M60.2497 68.1183C59.8417 68.2668 59.2463 68.7835 59.0506 69.1592C58.9718 69.316 58.8701 69.6289 58.8307 69.8562C58.5409 71.4531 59.9205 72.8229 61.5269 72.5258C62.0518 72.4318 62.428 72.2046 62.8436 71.7508C63.2509 71.3046 63.3844 70.9523 63.392 70.3024C63.4003 69.8485 63.3609 69.6759 63.1886 69.316C63.0629 69.0735 62.8983 68.8152 62.8125 68.7365C62.6555 68.5956 62.6396 68.6038 61.966 69.2532C61.5898 69.6137 61.2524 69.9577 61.2213 70.0129C61.1743 70.0834 61.2136 70.1849 61.3312 70.31L61.5111 70.5061L62.0366 69.9812C62.5615 69.4645 62.5615 69.4645 62.6632 69.6448C62.9065 70.0986 62.7337 70.9599 62.3105 71.422C61.9031 71.8758 61.0491 72.0479 60.4454 71.7977C60.1086 71.6568 59.693 71.2417 59.5519 70.913C59.4109 70.5918 59.4109 69.9425 59.5519 69.6055C59.7089 69.2221 60.2103 68.7835 60.5941 68.6743C60.9156 68.588 60.9315 68.5721 60.9315 68.2903C60.9315 68.032 60.908 67.9932 60.7587 68.0009C60.657 68.0009 60.4295 68.0555 60.2497 68.1183Z" fill="black"></path>
<path d="M11.1565 68.6599C9.79276 69.1607 8.86798 70.7183 9.31471 71.7751C9.45578 72.1197 9.9182 72.5113 10.3179 72.6206C11.5875 72.9576 13.3039 71.4622 13.3039 70.022C13.3039 69.6304 13.2647 69.4971 13.0766 69.2235C12.6612 68.6282 11.8775 68.3933 11.1565 68.6599ZM12.3948 69.4266C12.6377 69.6539 12.6769 69.7402 12.6769 70.0372C12.6769 70.8281 11.9245 71.7205 11.0233 71.9865C10.6157 72.1121 10.3335 72.0417 10.0514 71.7364C9.88681 71.5561 9.83197 71.4228 9.83197 71.1727C9.83197 70.2645 10.9057 69.1765 11.8148 69.1683C12.0421 69.1683 12.1753 69.2311 12.3948 69.4266Z" fill="black"></path>
<path d="M57.3717 70.6041L57.1449 70.792L57.7637 71.5276C58.8141 72.7645 59.0727 73.0933 59.0409 73.1167C59.0256 73.132 58.0852 73.0304 56.9485 72.8972C55.8201 72.7563 54.9034 72.6706 54.9112 72.7017C54.9739 72.8661 57.7561 76.1378 57.8343 76.1378C57.8813 76.1378 57.9988 76.0597 58.0929 75.9581L58.2574 75.7779L57.3247 74.6507C56.8157 74.0243 56.4237 73.5077 56.4707 73.4925C56.5101 73.4766 56.9803 73.5236 57.521 73.5864C58.0617 73.6568 58.9392 73.766 59.4876 73.8365C60.0283 73.9069 60.4909 73.9463 60.5144 73.9228C60.5538 73.8834 57.7561 70.4867 57.6538 70.4474C57.6227 70.4315 57.4975 70.5102 57.3717 70.6041Z" fill="black"></path>
<path d="M14.252 73.3158C13.5232 74.271 12.9197 75.0929 12.9041 75.1475C12.8649 75.3042 13.2646 75.539 13.3978 75.4292C13.4527 75.3823 13.7896 74.9596 14.1501 74.4823C14.5576 73.9422 14.8162 73.6604 14.8319 73.7385C14.8475 73.8089 14.824 74.3021 14.777 74.8498C14.6517 76.2746 14.6595 76.4783 14.8319 76.4079C14.9024 76.3762 15.5058 76.1648 16.1641 75.9382C17.0732 75.6171 17.3396 75.5467 17.2848 75.6482C17.2456 75.7187 16.9086 76.1648 16.5403 76.6427L15.8663 77.5033L16.0779 77.6759C16.2033 77.7775 16.3209 77.8556 16.3444 77.8556C16.3992 77.8556 19.0245 74.4506 19.0636 74.3332C19.0793 74.2862 18.5308 74.4506 17.849 74.6937C15.8663 75.3899 15.404 75.539 15.3726 75.5073C15.3569 75.4838 15.3726 75.1005 15.404 74.6467C15.5842 72.3295 15.6312 71.6485 15.6077 71.6174C15.5842 71.6016 14.9808 72.3689 14.252 73.3158Z" fill="black"></path>
<path d="M53.1174 74.185C53.1409 74.2866 53.3604 75.3434 53.6033 76.5258C53.8541 77.7077 54.0736 78.7017 54.1049 78.7334C54.1911 78.8273 54.6614 78.4592 54.6221 78.3259C54.4419 77.6766 54.4341 77.7001 55.2335 77.1282C55.6413 76.8388 56.0092 76.6039 56.041 76.6039C56.0798 76.6039 56.2602 76.682 56.4407 76.7759C56.7616 76.9486 56.7851 76.9486 56.9891 76.8229C57.1066 76.7525 57.2166 76.6585 57.2318 76.6198C57.2554 76.5493 53.5171 74.1691 53.1958 74.0441C53.0939 74.0047 53.0782 74.0282 53.1174 74.185ZM54.7946 75.7508C55.1943 76.0168 55.5235 76.2516 55.5235 76.2828C55.5156 76.3456 54.4262 77.0971 54.3949 77.066C54.3792 77.0501 54.3322 76.8546 54.2852 76.6432C54.2381 76.4237 54.1519 76.0327 54.0814 75.7585C54.0187 75.4925 53.9952 75.2729 54.0187 75.2729C54.0422 75.2729 54.3949 75.4925 54.7946 75.7508Z" fill="black"></path>
<path d="M19.3546 74.7822C19.237 74.9466 18.6727 75.7997 18.0928 76.6845C17.1288 78.1558 17.0504 78.2967 17.1758 78.3906C17.5285 78.6572 17.5441 78.649 17.8812 78.1482C18.6806 76.9504 20.0208 74.8838 20.0208 74.8527C20.0208 74.8368 19.9188 74.7429 19.7935 74.6566L19.5662 74.4922L19.3546 74.7822Z" fill="black"></path>
<path d="M20.0751 75.7201C19.887 76.0565 19.3855 76.9412 18.9623 77.6926L18.1943 79.0546L18.3824 79.1955C18.4843 79.2736 18.6096 79.3441 18.6645 79.3441C18.7116 79.3441 18.9388 79.0153 19.1661 78.6161C20.0516 77.0351 20.1927 76.8156 20.2553 76.9254C20.2867 76.9882 20.5218 77.8881 20.7725 78.929C21.0233 79.9781 21.2506 80.8311 21.2741 80.8311C21.3133 80.8311 23.1157 77.6844 23.4605 77.0193C23.5389 76.8625 23.5232 76.8314 23.3116 76.7216C23.1784 76.6512 23.0374 76.6201 23.006 76.6436C22.9668 76.667 22.6298 77.2306 22.2537 77.8958C21.8775 78.5615 21.5484 79.1092 21.517 79.1092C21.4935 79.1092 21.2427 78.2093 20.9685 77.1132C20.6942 76.0172 20.4591 75.1172 20.4513 75.1172C20.4356 75.1172 20.271 75.3913 20.0751 75.7201Z" fill="black"></path>
<path d="M50.9933 75.3693L50.7425 75.5255L50.8914 75.7762C51.3224 76.4883 51.6751 77.1775 51.6437 77.2245C51.5731 77.3419 50.0294 78.1714 49.9588 78.1321C49.9275 78.1086 49.7002 77.7411 49.4573 77.3102C49.2065 76.8799 48.9871 76.5276 48.9557 76.5276C48.9087 76.5276 48.6814 76.6609 48.4855 76.8094C48.462 76.8253 50.6328 80.6682 50.7033 80.7386C50.7425 80.778 51.2127 80.4962 51.2127 80.4334C51.2127 80.4099 51.0011 80.0189 50.7425 79.5804C50.4839 79.1342 50.288 78.7585 50.2958 78.7508C50.3036 78.7426 50.6955 78.516 51.1657 78.2495C51.8396 77.8585 52.0277 77.7798 52.0825 77.8661C52.1217 77.9289 52.3333 78.3047 52.5527 78.6957C52.7721 79.0949 52.9916 79.4236 53.0386 79.4236C53.0935 79.4236 53.2188 79.3532 53.3207 79.2751L53.5088 79.1342L53.2737 78.7115C52.7173 77.6941 51.3537 75.3065 51.3067 75.2596C51.2754 75.2284 51.1343 75.2754 50.9933 75.3693Z" fill="black"></path>
<path d="M23.6959 77.4423C22.7085 79.7201 22.5752 80.1193 22.6457 80.542C22.8652 81.8336 24.2053 82.5146 25.318 81.8958C25.5453 81.7784 25.7961 81.5829 25.8823 81.4578C25.9685 81.3404 26.3055 80.6125 26.6346 79.8452L27.2223 78.4438L26.9324 78.3188C26.7286 78.2325 26.6268 78.2172 26.5876 78.2795C26.5562 78.3264 26.2976 78.937 26.0076 79.6415C25.3651 81.2072 25.1457 81.4578 24.4247 81.4578C23.8447 81.4578 23.3119 80.9177 23.3119 80.3383C23.3119 80.1504 23.5078 79.5792 23.8604 78.7339C24.1582 78.0135 24.409 77.3871 24.409 77.3402C24.409 77.2544 24.0798 77.0742 23.931 77.0742C23.8918 77.0742 23.7821 77.2386 23.6959 77.4423Z" fill="black"></path>
<path d="M47.0357 77.4184C45.1234 78.0994 44.9588 80.7532 46.7771 81.6691C47.7018 82.1388 48.6737 81.9744 49.4261 81.2153C49.6768 80.9722 49.8806 80.7374 49.8806 80.6986C49.8806 80.6593 49.7631 80.573 49.622 80.5025L49.3634 80.3775L49.042 80.7221C47.984 81.8335 46.1736 81.1131 46.1657 79.579C46.1579 78.6789 46.8633 77.9897 47.8038 77.9585C48.2426 77.9509 48.274 77.9351 48.3837 77.7002C48.4856 77.4888 48.4856 77.4495 48.3916 77.3873C48.2191 77.2775 47.3805 77.301 47.0357 77.4184Z" fill="black"></path>
<path d="M27.3095 78.7677C27.192 79.1041 27.2155 79.1199 27.8346 79.2685C28.0697 79.3313 28.2813 79.4176 28.3048 79.4722C28.3205 79.5192 28.1011 80.3805 27.819 81.3821C27.5289 82.3767 27.3095 83.2063 27.3252 83.2221C27.333 83.2374 27.4741 83.2691 27.6309 83.3002C27.9679 83.363 27.866 83.5897 28.5243 81.2647C28.7673 80.404 28.9867 79.6836 29.0024 79.6677C29.0259 79.6442 29.2845 79.6912 29.5902 79.7699C29.888 79.848 30.1545 79.8949 30.178 79.8791C30.2015 79.8556 30.2328 79.7147 30.2563 79.5661L30.3033 79.3002L28.9397 78.9244C28.1952 78.7131 27.5446 78.5252 27.4976 78.5093C27.4428 78.4935 27.3644 78.6033 27.3095 78.7677Z" fill="black"></path>
<path d="M30.4518 79.7506C30.4048 79.9778 30.2481 80.9247 30.0914 81.8482C29.9346 82.7722 29.7935 83.6017 29.77 83.6957C29.7309 83.8442 29.8092 83.8677 30.9925 84.0714C31.69 84.1888 32.27 84.2751 32.2935 84.2516C32.317 84.2358 32.3483 84.0949 32.3718 83.9463L32.4188 83.6798L31.6038 83.5471C31.165 83.4685 30.7183 83.3904 30.6321 83.3745C30.4675 83.3358 30.4675 83.3358 30.5851 82.6935C30.6478 82.3337 30.7026 82.036 30.7104 82.0284C30.7183 82.0208 31.0318 82.0677 31.4079 82.1382C31.7841 82.2004 32.1132 82.2397 32.1367 82.2239C32.1602 82.2004 32.1916 82.0595 32.2229 81.9034L32.2621 81.6292L31.5882 81.5353C31.212 81.4724 30.8907 81.402 30.8672 81.3633C30.828 81.3004 30.9769 80.2279 31.0396 80.1187C31.0553 80.0952 31.4863 80.1422 32.0113 80.2279C32.5286 80.3142 32.9674 80.3688 32.9831 80.3535C32.9988 80.3376 33.0301 80.1968 33.0458 80.0482L33.0693 79.7817L32.0897 79.6097C31.549 79.5158 30.9769 79.4142 30.8202 79.3907L30.5302 79.3438L30.4518 79.7506Z" fill="black"></path>
<path d="M40.718 79.4923C40.5848 79.5786 40.5456 79.3279 41.2353 82.3187C41.4312 83.1559 41.6115 83.8687 41.6428 83.8998C41.6663 83.9309 42.2463 83.8294 42.9281 83.665L44.1743 83.3832L44.1273 83.1172C44.1037 82.9681 44.0645 82.8272 44.041 82.8037C44.0175 82.7802 43.5865 82.8589 43.0849 82.9763C42.4501 83.1172 42.1523 83.1559 42.1209 83.1013C42.0895 83.0544 41.8779 82.2089 41.6428 81.2149C41.2353 79.4536 41.2196 79.4219 41.0237 79.4219C40.9139 79.4219 40.7729 79.4536 40.718 79.4923Z" fill="black"></path>
<path d="M39.7077 79.6339C39.559 79.6656 39.5355 79.7044 39.5668 79.877C39.5903 79.9944 39.7547 80.9808 39.9191 82.0687C40.0913 83.1566 40.2478 84.0725 40.2713 84.1042C40.3027 84.1588 40.8663 84.1353 40.8663 84.0807C40.8663 84.0572 40.561 82.0763 40.3575 80.7929C40.1461 79.446 40.2009 79.54 39.7077 79.6339Z" fill="black"></path>
<path d="M36.1026 80.1346C35.3267 80.518 34.9114 81.1362 34.8486 82.0134C34.7781 82.968 35.2562 83.8135 36.1183 84.2597C36.6669 84.5415 37.5995 84.5574 38.1246 84.2832C38.6027 84.0407 38.9632 83.6884 39.2062 83.2187C39.3864 82.8823 39.4178 82.7332 39.4178 82.1619C39.41 81.4028 39.3237 81.1756 38.8065 80.6119C38.1011 79.8528 37.0431 79.6649 36.1026 80.1346ZM37.7954 80.6354C38.1951 80.8074 38.4303 81.0423 38.6419 81.4967C38.9475 82.1384 38.8535 82.7414 38.3832 83.2657C37.9914 83.6961 37.7093 83.8217 37.145 83.8217C36.5885 83.8217 36.2986 83.6961 35.8989 83.2892C35.3111 82.6786 35.3189 81.6764 35.9145 81.0347C36.3691 80.5573 37.1763 80.3847 37.7954 80.6354Z" fill="black"></path>
</svg>