<svg width="112" height="24" viewBox="0 0 112 24" fill="none" xmlns="http://www.w3.org/2000/svg">
<path d="M31.0548 16.957C32.0278 16.957 32.5285 17.5259 32.5285 18.5238V18.7277H31.5792V18.4598C31.5792 18.0142 31.3965 17.8459 31.0785 17.8459C30.7605 17.8459 30.5778 18.0142 30.5778 18.4598C30.5778 19.7422 32.5332 19.9816 32.5332 21.7618C32.5332 22.7573 32.023 23.3286 31.0405 23.3286C30.0581 23.3286 29.5479 22.7597 29.5479 21.7618V21.3801H30.4971V21.8258C30.4971 22.2714 30.6964 22.4325 31.0144 22.4325C31.3324 22.4325 31.5341 22.2714 31.5341 21.8258C31.5341 20.5434 29.5787 20.304 29.5787 18.5238C29.5787 17.5283 30.0794 16.957 31.0524 16.957" fill="#F7A800"></path>
<path d="M33.4653 17.0273H34.856L35.594 21.4504L36.2775 17.0273H37.6681V23.2567H36.7212V18.7885L36.0307 23.2567H35.0838L34.3386 18.8501V23.2567H33.4653V17.0273Z" fill="#F7A800"></path>
<path d="M39.6794 21.8218C39.6794 22.2675 39.8811 22.4358 40.1991 22.4358C40.5171 22.4358 40.7188 22.2675 40.7188 21.8218V18.4583C40.7188 18.0127 40.5195 17.8444 40.1991 17.8444C39.8787 17.8444 39.6794 18.0127 39.6794 18.4583V21.8218ZM38.6851 18.5199C38.6851 17.5244 39.2214 16.9531 40.2038 16.9531C41.1863 16.9531 41.7226 17.522 41.7226 18.5199V21.7602C41.7226 22.7558 41.1863 23.327 40.2038 23.327C39.2214 23.327 38.6851 22.7558 38.6851 21.7602V18.5199Z" fill="#F7A800"></path>
<path d="M43.6474 21.8218C43.6474 22.2675 43.8468 22.4358 44.1672 22.4358C44.4875 22.4358 44.6869 22.2675 44.6869 21.8218V18.4583C44.6869 18.0127 44.4875 17.8444 44.1672 17.8444C43.8468 17.8444 43.6474 18.0127 43.6474 18.4583V21.8218ZM42.646 18.5199C42.646 17.5244 43.1823 16.9531 44.1648 16.9531C45.1473 16.9531 45.6836 17.522 45.6836 18.5199V21.7602C45.6836 22.7558 45.1473 23.327 44.1648 23.327C43.1823 23.327 42.646 22.7581 42.646 21.7602V18.5199Z" fill="#F7A800"></path>
<path d="M46.4033 17.0273H49.4979V17.9162H48.4513V23.2567H47.4499V17.9162H46.4033V17.0273Z" fill="#F7A800"></path>
<path d="M51.2993 23.2567H50.2979V17.0273H51.2993V19.6963H52.436V17.0273H53.4565V23.2567H52.436V20.5876H51.2993V23.2567Z" fill="#F7A800"></path>
<path d="M55.5457 17.0273H54.5454V23.2567H55.5457V17.0273Z" fill="#F7A800"></path>
<path d="M57.6406 19.6513H59.0146V20.5426H57.6406V22.3677H59.3682V23.2567H56.6392V17.0273H59.3682V17.9162H57.6406V19.6513Z" fill="#F7A800"></path>
<path d="M72.3575 14.5197V17.5422C72.3575 21.1787 70.4992 23.2578 66.9131 23.2578C63.3271 23.2578 61.4688 21.1763 61.4688 17.5422V5.71544C61.4688 2.07901 63.3271 0 66.9131 0C70.4992 0 72.3575 2.07901 72.3575 5.71544V7.92481H68.9044V5.49024C68.9044 3.8664 68.1734 3.24768 67.0057 3.24768C65.838 3.24768 65.107 3.8664 65.107 5.49024V17.7674C65.107 19.3913 65.838 19.9768 67.0057 19.9768C68.1734 19.9768 68.9044 19.3913 68.9044 17.7674V14.5197H72.3575Z" fill="#E75300"></path>
<path d="M78.0137 15.7866H81.5333L79.7747 4.28695L78.0137 15.7866ZM86.3464 22.9955H82.663L82.0317 18.8707H77.5486L76.9172 22.9955H73.5732L77.2827 0.261719H82.6274L86.3464 22.9955Z" fill="#E75300"></path>
<path d="M92.1252 22.9979H88.4727V0.261719H98.1344V3.5094H92.1252V10.3627H96.8386V13.6104H92.1252V22.9979Z" fill="#E75300"></path>
<path d="M103.711 9.84357H108.726V13.0913H103.711V19.7502H110.019V22.9979H100.059V0.261719H110.019V3.5094H103.711V9.84357Z" fill="#E75300"></path>
<path d="M4.96737 13.796C4.88271 13.9801 4.75685 14.1423 4.5995 14.2701C4.43992 14.4052 4.23375 14.4724 4.02516 14.4574C3.76172 14.4574 3.6834 14.3768 3.64068 14.2962V14.282C3.5167 14.008 3.46598 13.7066 3.49354 13.4072V5.33779H5.13825V4.40141H3.47692V0.824219L1.18666 1.89572L1.17242 4.40141H0V5.33779H1.13682V13.5115C1.13682 14.2677 1.3077 14.7845 1.66132 15.0927C2.01494 15.4009 2.61064 15.5668 3.42706 15.5668C4.215 15.5668 4.7775 15.4198 5.14299 15.1164C5.46754 14.8552 5.72607 14.5215 5.89768 14.1421L6.00211 13.905L5.07889 13.5115L4.96737 13.796Z" fill="#969300"></path>
<path d="M11.9873 4.15983C11.476 4.15803 10.9822 4.34552 10.6013 4.6861C10.4606 4.80308 10.334 4.93593 10.2239 5.08198V4.32103L6.47168 4.37318V5.26215H7.89567V14.6069H6.47168V15.5149H11.6052V14.5785H10.2049V9.73067C10.1819 8.62362 10.3538 7.52113 10.7128 6.47351C11.0641 5.48261 11.3465 5.2882 11.4556 5.24316C11.4671 5.2812 11.4759 5.32003 11.4818 5.35934L11.3916 6.18664V6.21749C11.4181 6.49091 11.5506 6.74314 11.7608 6.92031C11.971 7.09749 12.2422 7.18553 12.5165 7.16569H12.6162C12.7764 7.17413 12.9363 7.14334 13.0819 7.07601C13.2275 7.00866 13.3544 6.9068 13.4516 6.77931C13.6226 6.51893 13.7057 6.21078 13.6889 5.89983C13.71 5.4557 13.5682 5.01911 13.2902 4.67187C13.1248 4.49581 12.9224 4.35858 12.6975 4.27004C12.4726 4.1815 12.2308 4.14385 11.9896 4.15983" fill="#969300"></path>
<path d="M16.5871 12.1585C16.5302 11.5848 16.5017 10.9115 16.5017 10.1601V9.6504C16.4675 8.47789 16.5847 7.30586 16.8506 6.16329C17.0879 5.21506 17.5626 5.0989 17.9043 5.0989C18.0942 5.0989 18.6757 5.0989 18.9771 6.1704C19.2429 7.31138 19.361 8.48173 19.3283 9.65277V10.1624C19.3283 11.6464 19.2096 12.8175 18.9771 13.6448C18.6757 14.7163 18.0966 14.7163 17.9043 14.7163C17.7121 14.7163 17.133 14.7163 16.8316 13.6472C16.7131 13.1596 16.6337 12.6634 16.5943 12.1632M17.966 4.1649C16.7794 4.1649 15.8111 4.73146 15.0682 5.85274C14.3254 6.97402 13.9907 8.2968 13.9907 9.90642C13.9907 11.516 14.3325 12.8886 15.0089 13.9601C15.7209 15.0814 16.6702 15.6503 17.8569 15.6503C19.0435 15.6503 20.0118 15.0837 20.7523 13.9648C21.4643 12.8815 21.8417 11.516 21.8417 9.90642C21.8417 8.2968 21.4999 6.92424 20.8235 5.85274C20.1115 4.72909 19.1622 4.16016 17.9589 4.16016" fill="#969300"></path>
<path d="M25.8237 9.93591C25.8237 8.33814 25.9495 7.09122 26.1987 6.25204C26.493 5.19239 27.0317 5.19239 27.2097 5.19239C27.6156 5.19239 27.9217 5.5622 28.1021 6.28997C28.3261 7.4423 28.4246 8.61543 28.3964 9.78893V9.94065C28.4249 11.1463 28.315 12.3514 28.0689 13.5321C27.8149 14.6557 27.3236 14.6557 27.1599 14.6557C26.9961 14.6557 26.5025 14.6557 26.1963 13.6767C25.9186 12.6737 25.7924 11.6351 25.8213 10.5949L25.8237 9.93591ZM27.5823 4.16119C27.1084 4.14794 26.6397 4.26171 26.2248 4.4907C26.0905 4.56772 25.9661 4.66089 25.8546 4.76806L25.8688 4.32002L22.0715 4.37457V5.27539H23.5121V17.8631H22.0098V18.8113H27.2762V17.8631H25.8213V15.1891C25.926 15.2624 26.0373 15.3259 26.1536 15.3788C26.5699 15.5617 27.0208 15.6523 27.4755 15.6443C28.5768 15.6443 29.4478 15.0919 30.0648 14.0015C30.6226 12.9727 30.9074 11.6309 30.9074 9.99282C30.9074 8.25285 30.6392 6.85184 30.1076 5.82538C29.5522 4.71833 28.7025 4.16596 27.58 4.16596" fill="#969300"></path>
<path d="M32.7892 14.6062H31.332V15.5142H36.4537V14.5778H35.0961V4.32031L31.332 4.37484V5.26143H32.7892V14.6062Z" fill="#969300"></path>
<path d="M43.4744 11.4119C43.3998 11.8211 43.2902 12.2232 43.1469 12.6137C43.0061 12.9945 42.8314 13.3618 42.6247 13.7113C42.2497 14.3442 41.7988 14.6596 41.2506 14.6596C40.6335 14.6596 40.1849 14.2708 39.8788 13.4742C39.7003 12.9782 39.5738 12.465 39.5014 11.9429C39.4077 11.277 39.3633 10.6051 39.3685 9.93263C39.3351 8.70361 39.4805 7.47627 39.8005 6.28906C40.1802 5.10376 40.764 5.10376 40.9539 5.10376C41.1037 5.09214 41.2539 5.11765 41.3913 5.17805C41.5287 5.23843 41.6493 5.3318 41.7418 5.44986C41.8968 5.66594 41.9723 5.92893 41.9554 6.19424C41.9554 6.24637 41.9554 6.30329 41.9554 6.36253C41.9554 6.42184 41.9412 6.4858 41.9317 6.5498V6.57588V6.60196C41.991 7.51937 42.6437 7.65686 43.0329 7.65686H43.1658C43.8968 7.5929 44.3003 7.19934 44.2718 6.57825C44.2644 6.21226 44.156 5.85539 43.9585 5.54705C43.7456 5.23283 43.4639 4.971 43.135 4.78136C42.4626 4.36971 41.688 4.15453 40.8993 4.16027C39.7316 4.16027 38.7491 4.74817 37.9778 5.90738C37.2373 7.01918 36.8623 8.38937 36.8623 9.98002C36.8623 11.5707 37.2159 12.8887 37.9113 13.9602C38.6399 15.0815 39.5916 15.6481 40.7451 15.6481C41.1991 15.6609 41.65 15.5715 42.0644 15.3864C42.479 15.2013 42.8466 14.9253 43.1397 14.5789C43.7188 13.9152 44.1674 12.9195 44.4688 11.6323L44.5234 11.3953L43.5361 11.0894L43.4744 11.4119Z" fill="#969300"></path>
<path d="M47.9549 14.1054C47.8258 13.562 47.766 13.0044 47.7769 12.446C47.7461 11.8295 47.8315 11.2128 48.0285 10.6278C48.0693 10.4975 48.1529 10.3847 48.2658 10.3077L48.8188 10.0162C49.0025 9.91931 49.1979 9.84603 49.4003 9.79808C49.6139 9.74592 49.7966 9.70562 49.9438 9.67955V11.3224C49.9606 12.1323 49.7985 12.936 49.4691 13.6763C49.0562 14.5771 48.5839 14.5771 48.4296 14.5771C48.3276 14.5771 48.0902 14.5771 47.9549 14.103M52.3741 14.4444C52.3219 14.3757 52.2364 14.186 52.2364 13.7048V7.68116C52.2364 6.54328 51.9777 5.6638 51.4651 5.07353C50.9524 4.48325 50.1147 4.16797 48.9636 4.16797C48.0285 4.16797 47.2809 4.35524 46.7422 4.72268C46.4837 4.88732 46.2727 5.11655 46.1306 5.38768C45.9882 5.65877 45.9191 5.96235 45.9305 6.2683C45.9614 6.79693 46.3506 7.098 46.9985 7.098H47.1006C47.3927 7.11762 47.6808 7.02135 47.9027 6.83012C47.9915 6.74357 48.0615 6.63986 48.109 6.52534C48.1562 6.41081 48.1797 6.28788 48.178 6.16399V6.05968C48.1498 5.78629 48.2253 5.5123 48.3893 5.29162C48.5981 5.1505 48.8502 5.08678 49.1013 5.11146C49.2313 5.1006 49.3616 5.13213 49.4724 5.20135C49.5833 5.27059 49.6687 5.37376 49.7159 5.49549C49.8985 6.00834 49.9791 6.55191 49.9533 7.09563V8.63887C49.5 8.78745 49.0379 8.907 48.5696 8.99682C48.2967 9.04663 48.0356 9.09876 47.7912 9.14854C47.5467 9.19837 47.3165 9.25047 47.0792 9.30026C46.7896 9.36391 46.5179 9.4909 46.2837 9.67208C46.0494 9.85329 45.8581 10.0841 45.724 10.348C45.41 10.9931 45.26 11.7056 45.2873 12.4223C45.2873 13.3966 45.4606 14.1718 45.8 14.7312C46.1631 15.3571 46.7873 15.6795 47.6559 15.6795C48.1854 15.6843 48.7106 15.5836 49.2009 15.3831C49.5294 15.2392 49.8273 15.034 50.0791 14.7786C50.1799 14.9503 50.3157 15.0989 50.4778 15.2148C50.7958 15.4234 51.28 15.523 51.954 15.523H53.5987V14.5795H52.9199C52.6375 14.5795 52.4453 14.5321 52.3788 14.4468" fill="#969300"></path>
<path d="M55.7233 0.977809V14.6062H54.2471V15.5142H59.3687V14.5778H58.0301V0.0390625L54.2471 0.0912151V0.977809H55.7233Z" fill="#969300"></path>
<path d="M35.2788 1.37333C35.2788 2.11276 34.605 2.70999 33.7769 2.70999C32.9488 2.70999 32.2773 2.11276 32.2773 1.37333C32.2773 0.633909 32.9464 0.0390625 33.7745 0.0390625C34.6026 0.0390625 35.2764 0.636286 35.2764 1.37571" fill="#969300"></path>
<path d="M110.331 1.03941C110.331 0.834186 110.412 0.637374 110.557 0.492263C110.703 0.347149 110.9 0.265625 111.105 0.265625C111.31 0.265625 111.508 0.347149 111.653 0.492263C111.798 0.637374 111.88 0.834186 111.88 1.03941C111.88 1.24463 111.798 1.44144 111.653 1.58655C111.508 1.73167 111.31 1.8132 111.105 1.8132C110.9 1.8132 110.703 1.73167 110.557 1.58655C110.412 1.44144 110.331 1.24463 110.331 1.03941ZM111.79 1.03941C111.795 0.946235 111.781 0.852926 111.75 0.765207C111.718 0.677488 111.668 0.597209 111.604 0.529303C111.54 0.461394 111.463 0.407286 111.377 0.370305C111.291 0.333325 111.198 0.314254 111.105 0.314254C111.012 0.314254 110.919 0.333325 110.833 0.370305C110.748 0.407286 110.67 0.461394 110.606 0.529303C110.542 0.597209 110.493 0.677488 110.461 0.765207C110.429 0.852926 110.415 0.946235 110.421 1.03941C110.419 1.12939 110.436 1.21873 110.47 1.30212C110.504 1.3855 110.554 1.46125 110.618 1.52489C110.682 1.58852 110.757 1.63874 110.841 1.67259C110.924 1.70644 111.014 1.72322 111.104 1.72195C111.194 1.72164 111.283 1.70358 111.366 1.66882C111.448 1.63405 111.523 1.58327 111.586 1.51939C111.65 1.45551 111.699 1.37978 111.733 1.29659C111.767 1.2134 111.783 1.12438 111.783 1.03466L111.79 1.03941ZM110.786 0.600974H111.152C111.198 0.598422 111.244 0.605072 111.287 0.620534C111.331 0.635995 111.371 0.659958 111.405 0.691032C111.428 0.714976 111.446 0.743245 111.458 0.774172C111.47 0.8051 111.475 0.838061 111.474 0.871146C111.478 0.926351 111.464 0.981365 111.434 1.02794C111.404 1.07452 111.36 1.11015 111.308 1.12948L111.498 1.42335H111.287L111.111 1.15791H110.969V1.42335H110.786L110.786 0.600974ZM111.149 1.00386C111.242 1.00386 111.292 0.954065 111.292 0.885372C111.292 0.807176 111.235 0.766861 111.147 0.766861H110.969V1.00386H111.149Z" fill="#E75300"></path>
</svg>