<svg width="209" height="30" viewBox="0 0 209 30" fill="none" xmlns="http://www.w3.org/2000/svg">
<path d="M13.3605 0.152315C6.82257 1.07296 1.80404 5.39388 0.28467 11.4223C-0.145105 13.1745 -0.0837088 16.3966 0.438103 18.2824C1.66592 22.7815 5.11903 26.4639 9.64641 28.1121C11.5955 28.8248 12.8693 29.0178 15.509 29.003C17.7037 28.9882 18.1028 28.9437 19.3151 28.5873C21.0494 28.0824 21.6172 27.8003 27.2496 24.6673C29.8279 23.2269 32.2528 21.8905 32.6519 21.6827C33.0508 21.4748 33.3885 21.2521 33.3885 21.1927C33.3885 20.9996 30.979 20.1978 29.92 20.0346C27.6179 19.6782 25.9604 20.1087 22.5688 21.9648C19.0542 23.8803 17.5195 24.3703 14.9719 24.3851C11.1658 24.3851 7.55924 22.2024 5.8557 18.8466C4.95018 17.0648 4.62788 15.5651 4.7507 13.7536C5.04226 9.46234 8.32652 5.63142 12.547 4.66634C13.9743 4.3396 36.0435 4.3396 36.8417 4.65142C39.3585 5.67597 40.0338 8.70506 38.1461 10.4869C37.0258 11.5412 37.5783 11.4818 26.9888 11.5709L17.4427 11.6451L18.2715 12.6994C19.2844 14.006 20.1439 14.7187 21.341 15.283C23.0598 16.0996 23.6891 16.1739 28.3853 16.1739C33.3425 16.1739 33.8643 16.263 35.0614 17.3024C36.0435 18.1487 36.4886 19.0842 36.5039 20.2424C36.5194 21.9203 35.5371 23.3755 33.9256 24.0585C33.3118 24.3257 32.79 24.4 31.332 24.4446L29.5056 24.5039L26.8046 26.0333C25.3158 26.8797 23.4896 27.8894 22.7222 28.2903L21.341 29.0178L27.6334 29.0624C31.7311 29.0921 34.2786 29.0476 34.9232 28.9437C36.4886 28.6764 37.7471 28.0082 38.9902 26.8055C40.8779 24.9791 41.7221 22.93 41.7066 20.2573C41.7066 18.3121 41.277 16.946 40.1873 15.3275C39.9264 14.9414 39.9264 14.9266 40.3714 14.6296C41.4764 13.8873 42.7196 12.4914 43.2721 11.3927C45.5588 6.77479 42.9191 1.5927 37.5936 0.285951C36.4579 0.00386623 35.8901 -0.010944 25.3466 0.00386741C19.2538 0.0186788 13.8669 0.0781463 13.3605 0.152315Z" fill="#FF0000"></path>
<path d="M62.6232 11.6609C61.9013 11.9988 61.4944 12.3874 61.2057 12.9955C60.405 14.6847 61.035 16.7792 62.5445 17.438C63.5157 17.8434 65.1433 17.5225 65.1433 16.9313C65.1433 16.7117 65.0776 16.7117 64.6576 16.9482C64.0145 17.286 62.9513 17.286 62.4264 16.9313C61.7438 16.4922 61.3238 15.6307 61.3106 14.6847C61.2713 12.4042 63.0957 11.1205 64.7889 12.2184C65.2351 12.5056 65.4451 12.3536 65.0776 11.9988C64.4739 11.4245 63.4369 11.2894 62.6232 11.6609Z" fill="#FF0000"></path>
<path d="M82.0234 12.4118C82.0234 12.4421 82.4802 13.1095 83.0628 13.8831L84.0865 15.2938L84.055 16.4314C84.0234 17.387 84.055 17.5842 84.2755 17.6146C84.5117 17.6601 84.5431 17.4932 84.5431 16.4011V15.1269L85.488 13.7921C86.0077 13.0489 86.4329 12.427 86.4329 12.3966C86.4329 12.3663 86.3227 12.3359 86.1967 12.3359C86.0708 12.3359 85.5825 12.882 85.1416 13.5495C84.6849 14.2168 84.2755 14.7629 84.2282 14.7629C84.181 14.7629 83.803 14.2168 83.362 13.5495C82.8581 12.7759 82.4802 12.3359 82.3069 12.3359C82.1495 12.3359 82.0234 12.3663 82.0234 12.4118Z" fill="#FF0000"></path>
<path d="M105.276 11.6292C103.945 12.1085 103.191 13.1524 103.191 14.5044C103.191 16.3699 104.474 17.6192 106.398 17.6192C107.521 17.6192 108.483 17.2941 108.483 16.9175C108.483 16.6267 108.483 16.6267 107.841 16.9518C106.495 17.6706 104.602 17.0715 103.993 15.7366C103.576 14.8297 103.592 14.2306 104.009 13.3064C104.619 11.9715 106.478 11.3897 107.825 12.1085C108.483 12.4507 108.483 12.4507 108.483 12.1769C108.483 11.5779 106.43 11.2185 105.276 11.6292Z" fill="#FF0000"></path>
<path d="M124.358 14.9786V17.6212H125.622C126.326 17.6212 126.949 17.5456 126.997 17.4702C127.061 17.3796 126.677 17.3191 125.974 17.3191H124.838V14.8275C124.838 12.7135 124.806 12.3359 124.598 12.3359C124.39 12.3359 124.358 12.7286 124.358 14.9786Z" fill="#FF0000"></path>
<path d="M143.762 14.9786V17.6212H145.085C146.672 17.6212 146.867 17.3494 145.335 17.289L144.249 17.2437L144.207 16.0659L144.166 14.9031H145.293C146.185 14.9031 146.407 14.8578 146.407 14.6766C146.407 14.4954 146.185 14.4501 145.293 14.4501H144.166L144.207 13.5743L144.249 12.7135L145.335 12.6682C146.867 12.6077 146.672 12.3359 145.085 12.3359H143.762V14.9786Z" fill="#FF0000"></path>
<path d="M163.165 14.9786V17.6212H164.262C165.635 17.6212 166.41 17.289 166.619 16.6095C166.813 15.945 166.619 15.3863 166.086 15.0843L165.618 14.8125L166.005 14.4954C166.555 14.0273 166.522 13.3478 165.925 12.7739C165.49 12.3662 165.36 12.3359 164.31 12.3359H163.165V14.9786ZM165.49 12.9551C165.909 13.2571 166.054 13.8762 165.78 14.2386C165.57 14.5407 164.973 14.7521 164.31 14.7521H163.649V13.695V12.638H164.359C164.827 12.638 165.199 12.7437 165.49 12.9551ZM165.829 15.4316C166.054 15.6279 166.232 15.9753 166.232 16.1866C166.232 16.398 166.054 16.7454 165.829 16.9417C165.505 17.2588 165.279 17.3191 164.537 17.3191H163.649V16.1866V15.054H164.537C165.279 15.054 165.505 15.1145 165.829 15.4316Z" fill="#FF0000"></path>
<path d="M184.598 14.3524C183.264 17.9066 183.349 17.6134 183.602 17.6134C183.7 17.6134 183.952 17.1475 184.163 16.5781L184.529 15.5429H185.666H186.804L187.169 16.5781C187.422 17.2682 187.619 17.6134 187.787 17.6134C187.984 17.6134 187.816 17.044 186.902 14.5421C186.284 12.8686 185.764 11.471 185.736 11.4538C185.722 11.4192 185.217 12.7305 184.598 14.3524ZM186.214 13.7485C186.452 14.3696 186.649 14.9562 186.649 15.0425C186.649 15.1288 186.2 15.1978 185.652 15.1978C185.104 15.1978 184.682 15.1288 184.711 15.0597C185.203 13.5932 185.596 12.6097 185.68 12.6097C185.736 12.6097 185.975 13.1274 186.214 13.7485Z" fill="#FF0000"></path>
<path d="M204.617 14.9786C204.617 17.1984 204.649 17.6212 204.851 17.6212C205.023 17.6212 205.085 17.3494 205.116 16.383C205.147 15.6732 205.24 15.1296 205.333 15.0993C205.427 15.0692 205.988 15.6279 206.58 16.3225C207.219 17.0776 207.78 17.6061 207.951 17.6061C208.294 17.6212 208.294 17.6212 207.001 16.1715C206.549 15.6581 206.175 15.2051 206.175 15.1446C206.175 15.0993 206.315 15.054 206.502 15.054C206.969 15.054 207.734 14.2538 207.734 13.7705C207.734 12.8343 206.954 12.3359 205.474 12.3359H204.617V14.9786ZM206.923 12.9853C207.048 13.1212 207.156 13.4384 207.156 13.7102C207.156 14.3897 206.627 14.7822 205.801 14.7219L205.163 14.6766L205.116 13.8611C205.038 12.6833 205.116 12.5776 205.957 12.6833C206.347 12.7135 206.782 12.8645 206.923 12.9853Z" fill="#FF0000"></path>
</svg>