<svg width="85" height="41" viewBox="0 0 85 41" fill="none" xmlns="http://www.w3.org/2000/svg">
<path d="M42.3392 0.000321875C42.1033 -0.00435535 41.8692 0.0419903 41.6529 0.136179C41.4366 0.230368 41.2433 0.37017 41.0862 0.545991C40.8073 0.868248 40.6552 1.28073 40.6581 1.70665C40.6598 1.87887 40.6843 2.05012 40.7311 2.21588C40.7822 2.37114 40.8428 2.52311 40.9127 2.6709C41.0124 2.88996 41.1331 3.09888 41.2731 3.29478C41.3602 3.41681 41.4579 3.531 41.565 3.63604C40.9922 3.89608 40.3715 4.0341 39.7424 4.0413C38.4757 4.0413 37.2817 3.40882 35.9147 2.67624C35.2677 2.32587 34.6116 1.95261 33.9008 1.62044C33.2231 1.31181 32.4856 1.15644 31.7409 1.16542C30.3634 1.14923 29.0221 1.60534 27.9408 2.45761L27.5305 2.37141C26.7918 2.2021 26.0376 2.10889 25.2798 2.09324H25.2523C24.5721 2.08903 23.897 2.21108 23.2614 2.45317C23.102 2.51687 22.8784 2.61641 22.7782 2.66646C22.678 2.71651 22.5732 2.76728 22.473 2.82643C22.2376 2.96422 22.0108 3.11617 21.7939 3.28145C21.5104 3.48122 21.2396 3.69849 20.9832 3.93199C20.6369 3.86373 20.3132 3.81364 20.0033 3.78179C19.7235 3.74985 19.4422 3.73294 19.1606 3.73114C17.1876 3.73114 15.8616 4.61445 14.3762 6.13422C14.0008 6.09387 13.6236 6.07251 13.246 6.07023H13.2139C12.5605 6.06155 11.9103 6.1631 11.2908 6.37061C11.1107 6.43094 10.9357 6.50553 10.7675 6.59368C9.68758 7.1215 8.89474 8.04498 8.03356 9.21894C6.37498 9.5056 5.30847 9.95195 4.55208 10.68C4.40162 10.8201 4.26292 10.9723 4.13737 11.135C4.08471 11.1986 4.03596 11.2654 3.99141 11.335C3.87605 11.5059 3.77114 11.6837 3.67726 11.8673C3.44055 12.3417 3.23946 12.8331 3.07566 13.3372C3.04376 13.4373 3.00699 13.5374 2.97509 13.6421C2.65869 13.8074 2.35419 13.9944 2.06379 14.2019C0.86542 15.071 0 16.2714 0 17.5364C0 18.5147 0.556217 19.457 0.784044 20.0212C0.439096 20.5788 0.202397 21.1963 0.0863249 21.8413C0.0465494 22.1215 0.0343282 22.4048 0.0498362 22.6874C0.0599297 22.8729 0.0858318 23.0572 0.127262 23.2384C0.414323 24.5261 1.48521 25.6225 2.97064 26.3915C3.0071 26.5144 3.0758 26.6461 3.1077 26.7417C3.13959 26.8372 3.17547 26.9333 3.20737 27.0243C3.29394 27.2609 3.38579 27.4789 3.48147 27.6882C4.27887 29.4263 5.4955 30.4183 8.07449 30.8733C8.66443 31.7183 9.40034 32.4517 10.2477 33.0391C10.4072 33.1438 10.5714 33.2397 10.7354 33.3262C11.1488 33.5395 11.5862 33.703 12.0383 33.8132L12.3712 33.8763C12.7487 33.9431 13.1313 33.9767 13.5147 33.9767C13.7972 33.9767 14.0844 33.9587 14.3851 33.9314L14.4946 34.0407C14.5584 34.0998 14.622 34.1682 14.6904 34.2273C16.0573 35.5423 17.42 36.3158 19.2745 36.3158C19.8534 36.3121 20.4304 36.2496 20.9965 36.1292C21.1708 36.2855 21.3568 36.4284 21.5527 36.5566C21.7129 36.6654 21.8787 36.7656 22.0493 36.857C23.2093 37.4467 24.4974 37.7407 25.7987 37.7128C26.5125 37.7106 27.2241 37.6344 27.9221 37.4853C28.8607 38.2452 30.5469 38.7677 32.0871 38.7677C32.712 38.7796 33.3326 38.6619 33.9097 38.422C36.1287 37.3755 37.8832 35.9834 39.7468 35.9834H39.7878C40.4174 35.9942 41.038 36.1352 41.6104 36.3975C41.5046 36.5022 41.407 36.6148 41.3185 36.7344C41.0805 37.0697 40.8989 37.4417 40.7809 37.8355C40.7316 37.9977 40.707 38.1663 40.708 38.3358C40.7048 38.7623 40.8551 39.1758 41.1316 39.5009C41.2879 39.675 41.4799 39.8135 41.6946 39.9069C41.9093 40.0003 42.1416 40.0464 42.3757 40.0422H42.4078C42.6338 40.0398 42.8571 39.9929 43.0649 39.9042C43.2728 39.8156 43.461 39.6868 43.619 39.5253C43.7769 39.3638 43.9013 39.1728 43.9851 38.9632C44.069 38.7536 44.1106 38.5295 44.1076 38.3038C44.1073 38.1502 44.0873 37.9973 44.0479 37.8488C43.9255 37.4619 43.749 37.0943 43.5238 36.7566C43.4413 36.6421 43.3499 36.5342 43.2505 36.434C43.8201 36.1583 44.4407 36.0033 45.0732 35.979H45.1097C45.9673 36.0173 46.806 36.244 47.5659 36.6428C48.1947 36.9386 48.8413 37.3077 49.5202 37.6808L49.7667 37.8079C50.1358 38.0127 50.5316 38.2131 50.9326 38.4043C51.5536 38.6789 52.2265 38.8169 52.9056 38.8086C53.2337 38.8085 53.5613 38.7826 53.8854 38.7313C54.8113 38.5809 55.6994 38.2535 56.501 37.767L56.7377 37.6213L56.9477 37.4667C57.7594 37.6543 58.5888 37.755 59.4218 37.767H59.4494C61.0675 37.7952 62.6359 37.2081 63.8368 36.1247C63.9598 36.1429 64.0781 36.1834 64.1874 36.1834C64.6229 36.2553 65.0632 36.2933 65.5046 36.2971H65.8552C67.9056 36.2107 69.255 35.1644 70.4625 33.9358C70.7861 33.9712 71.1114 33.9893 71.437 33.99C71.8605 33.9917 72.2833 33.9536 72.6998 33.8763C72.8456 33.849 72.9912 33.822 73.1278 33.7856C73.9384 33.5732 74.6865 33.1707 75.31 32.6116C75.8657 32.0895 76.3623 31.5081 76.7909 30.8777L76.9457 30.8458C77.1417 30.8094 77.3331 30.7685 77.5108 30.7276L77.7849 30.6547C78.1952 30.5494 78.5947 30.4063 78.9784 30.2272C79.2519 30.1008 79.5127 29.9484 79.7571 29.7722C80.9053 28.9623 81.3981 27.8159 81.8538 26.4235C83.5534 25.5271 84.7062 24.235 84.7746 22.7016C84.8134 21.7558 84.5585 20.8212 84.0448 20.0257C84.2772 19.4706 84.8244 18.5289 84.8244 17.5506C84.7859 16.9925 84.6319 16.4484 84.3723 15.9527C84.1127 15.457 83.753 15.0203 83.316 14.6703L83.1887 14.5521L83.0018 14.4019C82.6445 14.1162 82.26 13.8661 81.8538 13.6554C81.1521 11.4303 80.263 9.9244 77.2056 9.28737L76.9279 9.23227L76.7909 9.21005C76.7775 9.19721 76.7669 9.18179 76.7597 9.16472L76.5319 8.85012C76.3044 8.53447 76.0608 8.23072 75.8021 7.94008L75.7612 7.89031L75.7203 7.84943C75.0532 7.11029 74.1887 6.57661 73.2284 6.31107C72.9665 6.24016 72.7001 6.18701 72.431 6.15199C72.1122 6.1092 71.7908 6.08812 71.469 6.08889C71.1358 6.08979 70.8028 6.10788 70.4714 6.1431C70.128 5.77867 69.7644 5.4339 69.3821 5.11042C68.3375 4.2071 66.9956 3.72096 65.614 3.74536C65.0202 3.74646 64.428 3.8057 63.8457 3.92221C63.2341 3.37689 62.5223 2.95525 61.7499 2.68068C61.5585 2.61243 61.3674 2.55743 61.1714 2.50738C60.8943 2.43497 60.6128 2.38035 60.3286 2.34386C59.9944 2.30347 59.6579 2.28358 59.3212 2.28431C58.5241 2.29098 57.7299 2.38244 56.9522 2.55715C55.8132 1.68273 54.4196 1.20344 52.983 1.19209C52.2839 1.18407 51.5917 1.33034 50.9557 1.62044C50.2449 1.95261 49.5797 2.32587 48.9418 2.67624C47.5976 3.40427 46.3855 4.0413 45.1097 4.0413H45.0135C44.3829 4.02945 43.7619 3.88501 43.1909 3.61738C43.2909 3.51584 43.3825 3.40647 43.465 3.29034C43.5969 3.09346 43.7126 2.88631 43.8112 2.6709C43.8784 2.52305 43.9361 2.37106 43.9839 2.21588C44.026 2.06796 44.0461 1.91464 44.0435 1.76086C44.0544 1.30701 43.8853 0.86725 43.5728 0.537455C43.2604 0.20766 42.8301 0.0145831 42.3757 0.000321875H42.3392ZM42.4078 1.30584C42.6096 1.3256 42.7958 1.42318 42.9268 1.57784C43.0577 1.73251 43.1231 1.93207 43.1091 2.13412C43.1095 2.20198 43.1005 2.26958 43.0824 2.33497C43.0492 2.45582 43.0078 2.57429 42.9586 2.68957C42.9101 2.80648 42.8492 2.9179 42.7771 3.02194C42.7063 3.12254 42.6235 3.21416 42.5306 3.29478L42.3935 3.40409L42.2707 3.30367C42.1763 3.22273 42.0949 3.1277 42.0295 3.02194C41.9592 2.91585 41.8967 2.80476 41.8427 2.68957C41.7905 2.57508 41.7479 2.45648 41.7154 2.33497C41.6918 2.25654 41.6795 2.17514 41.6789 2.09324C41.6699 1.99263 41.6822 1.89126 41.7149 1.79567C41.7475 1.70007 41.7999 1.61236 41.8685 1.53819C41.9372 1.46402 42.0206 1.40502 42.1135 1.36501C42.2064 1.32499 42.3066 1.30483 42.4078 1.30584ZM31.8414 2.32519C32.469 2.31534 33.091 2.44274 33.664 2.69845H33.705C35.8238 3.67675 37.5736 5.16907 39.8518 5.16907C40.7732 5.15746 41.6765 4.91155 42.4763 4.45455C43.2763 4.91099 44.1794 5.15686 45.1007 5.16907C47.3653 5.15542 49.1287 3.67675 51.2521 2.69845H51.2886C51.8201 2.45645 52.3989 2.33534 52.983 2.34386C53.656 2.35255 54.3223 2.47888 54.9516 2.71712C55.5441 2.91457 56.0933 3.22348 56.5695 3.62716L56.7057 3.75869L56.9068 3.71336C57.6876 3.52817 58.4867 3.4304 59.2892 3.42186C60.8323 3.3736 62.3317 3.93831 63.4586 4.99222L63.5956 5.11931L63.7959 5.07843C64.3806 4.94529 64.9779 4.87498 65.5776 4.86869C67.833 4.86869 68.9176 6.01534 70.0157 7.14379L70.1341 7.26733L70.3254 7.24422C70.6869 7.20056 71.0506 7.17771 71.4147 7.17579C74.2671 7.18034 75.2011 8.75059 76.24 10.1156L76.313 10.2152L76.4536 10.2427C79.7935 10.8343 80.3495 12.0038 81.1605 14.4064L81.197 14.5112L81.3109 14.5699C82.9057 15.3753 83.817 16.4771 83.817 17.8421C83.7923 18.5529 83.5888 19.2461 83.2252 19.8577L83.1567 19.9715L83.2252 20.0897C83.6038 20.7094 83.8156 21.4162 83.8402 22.1417C83.8402 23.4886 82.9292 24.571 81.3207 25.3855L81.2068 25.445L81.1703 25.5544C80.382 27.8932 79.8671 29.1084 76.4634 29.7135L76.3219 29.7402L76.2489 29.8406C75.1827 31.2648 74.18 32.7751 71.4005 32.7751C71.044 32.7758 70.6879 32.7532 70.3343 32.7076H70.143L70.0246 32.8302C68.7169 34.1544 67.4821 35.1054 65.4681 35.1054C64.9027 35.0982 64.3395 35.0342 63.787 34.9143L63.5867 34.869L63.4497 34.996C62.9136 35.5191 62.2784 35.9302 61.5813 36.2052C60.8841 36.4802 60.1391 36.6135 59.3897 36.5975C58.5495 36.5852 57.7133 36.4785 56.897 36.2793L56.6968 36.234L56.5606 36.3611C55.5211 37.161 54.2539 37.6103 52.9421 37.6444H52.91C52.3437 37.649 51.783 37.5326 51.2654 37.3031C49.133 36.3294 47.3559 34.8094 45.0776 34.8094C44.1559 34.8232 43.2529 35.0706 42.4532 35.5284C41.6517 35.071 40.7473 34.8236 39.8243 34.8094C37.5414 34.8322 35.769 36.3294 33.632 37.3031C33.1562 37.5015 32.6434 37.5961 32.128 37.5804H32.1004C30.6879 37.5804 29.0156 37.0118 28.3413 36.3611L28.2007 36.234L27.9995 36.2793C27.2986 36.4395 26.5818 36.5203 25.8628 36.5202C24.2526 36.5867 22.6768 36.0422 21.4522 34.996L21.3151 34.869L21.1149 34.9143C20.542 35.0431 19.9569 35.1102 19.3697 35.1142C17.6018 35.1142 16.3943 34.368 14.8906 32.8391L14.7722 32.7165H14.5809C14.2539 32.7493 13.9253 32.7644 13.5966 32.7618C11.3913 32.7618 10.0566 31.7333 8.64406 29.8495L8.57108 29.7446L8.42513 29.7224C5.35403 29.1764 4.59772 28.1523 3.71375 25.5632L3.69506 25.4539L3.5767 25.3953C3.39899 25.3043 3.23513 25.2081 3.07566 25.1171C1.76337 24.3254 1.04836 23.343 1.04836 22.1417C1.06602 21.4129 1.27666 20.7019 1.65886 20.0808L1.72205 19.9617L1.65886 19.8479C1.28603 19.2398 1.07865 18.545 1.05726 17.8323C1.06181 16.6083 1.79549 15.6074 3.06676 14.8338C3.22624 14.7383 3.39009 14.6474 3.5678 14.561L3.68616 14.5112L3.71375 14.4064C4.14662 13.0731 4.56539 12.1725 5.21242 11.5491C5.85945 10.9258 6.7888 10.5248 8.44738 10.2427L8.59333 10.2152L8.66631 10.1156C10.1244 8.16361 11.0314 7.1669 13.3643 7.1669C13.7711 7.168 14.1773 7.19382 14.5809 7.24422L14.8363 7.29398L14.9547 7.17134C16.4902 5.59697 17.5926 4.86424 19.3332 4.86424C19.947 4.87345 20.558 4.94824 21.1558 5.08731L21.3561 5.12819L21.4931 5.00111C22.9467 3.65425 24.0993 3.24945 25.4116 3.24945C26.3136 3.28035 27.2093 3.41151 28.0823 3.64049L28.287 3.69026L28.424 3.55873C28.8223 3.19446 29.2862 2.90888 29.791 2.71712C30.4445 2.46144 31.1396 2.32856 31.8414 2.32519ZM21.712 13.9789C21.3965 13.984 21.0955 14.1128 20.8742 14.3375C20.6528 14.5622 20.5288 14.8648 20.5288 15.18C20.5288 15.4952 20.6528 15.7977 20.8742 16.0224C21.0955 16.2471 21.3965 16.3759 21.712 16.3811C22.031 16.3809 22.3369 16.2542 22.5623 16.0289C22.7878 15.8036 22.9144 15.4981 22.9144 15.1795C22.9142 14.8611 22.7875 14.5559 22.562 14.3307C22.3366 14.1056 22.0309 13.979 21.712 13.9789ZM19.1027 14.0064C18.9375 13.9703 18.7666 13.9693 18.601 14.0036C18.4354 14.0378 18.2789 14.1066 18.1418 14.2053C18.0046 14.3041 17.8898 14.4306 17.8049 14.5766C17.72 14.7227 17.6668 14.8849 17.649 15.0529C17.6311 15.2208 17.6489 15.3906 17.7011 15.5512C17.7534 15.7118 17.839 15.8596 17.9523 15.9849C18.0657 16.1102 18.2042 16.2103 18.3589 16.2785C18.5135 16.3468 18.6809 16.3817 18.85 16.3811C19.0087 16.3805 19.1658 16.3486 19.3122 16.2871C19.4586 16.2257 19.5913 16.1359 19.7027 16.023C19.8142 15.91 19.9021 15.7762 19.9615 15.6291C20.0209 15.4821 20.0505 15.3247 20.0487 15.1662C20.0456 14.8945 19.9504 14.632 19.7786 14.4213C19.6067 14.2107 19.3685 14.0644 19.1027 14.0064ZM9.40496 14.0464V23.4659L11.6921 23.4703V19.7617H13.9882L13.9837 23.4748H16.2807L16.2718 14.0562H13.957V17.5915H11.6966L11.6921 14.0464L9.40496 14.0464ZM52.2586 14.0464V23.4703H55.029C55.029 23.4703 56.7926 23.3931 57.6036 22.8198C57.6036 22.8198 59.467 21.9915 59.5126 18.6562C59.5126 18.6562 59.5452 15.7164 57.6223 14.6516C56.9121 14.2546 56.1117 14.0462 55.2978 14.0464H52.2586ZM54.6784 16.1624H55.2978C55.6548 16.163 55.9996 16.2924 56.2687 16.5268C57.0798 17.0364 57.0794 18.72 57.0794 18.7655C57.0794 20.3126 56.396 20.8993 56.396 20.8993C56.1107 21.1921 55.725 21.3661 55.3165 21.3863H54.6784V16.1624ZM39.5777 16.8085C39.3219 16.8091 39.0669 16.8365 38.8168 16.8903C38.2669 17.0387 37.7679 17.3341 37.3736 17.7447C36.9794 18.1553 36.7048 18.6656 36.5795 19.2205C36.4155 20.5082 36.5795 21.7773 37.5682 22.6874C38.2561 23.2446 39.1213 23.5369 40.0067 23.5112L40.0014 23.5068C40.7254 23.5116 41.4399 23.3415 42.0838 23.0108V21.3223L41.5187 21.5818C41.1396 21.7104 40.7433 21.7811 40.3431 21.7915C40.1284 21.8075 39.9129 21.7749 39.7125 21.6961C39.5122 21.6173 39.3323 21.4944 39.1862 21.3365L42.5858 20.1074C42.5765 19.4764 42.4286 18.855 42.1524 18.2873C41.9059 17.824 41.5336 17.4395 41.0782 17.1779C40.6228 16.9163 40.1027 16.7883 39.5777 16.8085ZM32.6753 16.9179C32.2351 16.9174 31.801 17.0203 31.408 17.2182C30.2734 17.878 29.8773 19.1246 29.8773 20.3714C29.8773 21.6181 30.4381 22.9018 31.6501 23.3841C31.9405 23.4965 32.2499 23.552 32.5614 23.5476C33.0608 23.5553 33.55 23.4057 33.9595 23.1202C34.0076 23.3084 34.0109 23.5052 33.969 23.6949C33.9271 23.8846 33.8412 24.0619 33.7183 24.2124C33.3685 24.5036 32.925 24.6586 32.4697 24.6488C31.9062 24.6293 31.3507 24.5092 30.8296 24.2942V26.1143C31.4893 26.3395 32.181 26.4572 32.8782 26.4626C33.6859 26.5005 34.4833 26.2692 35.1449 25.805C35.478 25.5157 35.7439 25.1573 35.9241 24.7549C36.1042 24.3524 36.1943 23.9156 36.1879 23.4748V17.0138H34.1055L34.0423 17.4093C33.8585 17.2408 33.643 17.1106 33.4083 17.0262C33.1736 16.9418 32.9244 16.905 32.6753 16.9179ZM32.8782 26.4626C32.8744 26.4632 32.8705 26.4638 32.8666 26.4644H32.8933C32.8883 26.4638 32.8833 26.4632 32.8782 26.4626ZM46.1117 16.9498C45.6429 17.012 45.201 17.2045 44.8364 17.5053L44.759 17.1089H42.8679V23.4792H44.9637V19.6115C45.0002 19.1474 45.1464 18.9246 45.6659 18.9246H45.7753C45.954 18.9396 46.1219 19.0165 46.2499 19.1419C46.3779 19.2673 46.4581 19.4334 46.4766 19.6115V23.4881H48.5137V18.8606C48.5016 18.5206 48.4011 18.1896 48.2222 17.9C48.0432 17.6105 47.7919 17.3725 47.4929 17.2093C47.1753 17.0291 46.8142 16.9393 46.449 16.9498C46.3367 16.9415 46.224 16.9415 46.1117 16.9498ZM62.4111 16.9907C62.0324 16.9912 61.6575 17.0671 61.3085 17.2138C60.0828 17.8508 59.549 19.1796 59.6265 20.5447C59.6629 21.6913 60.1096 22.861 61.2168 23.3797C61.5687 23.5274 61.9467 23.6029 62.3283 23.6019V23.6072C62.8911 23.6199 63.4401 23.4328 63.8777 23.0793L63.9285 23.4517H65.9148V17.1H63.8413L63.7781 17.4955C63.5963 17.3233 63.3815 17.1898 63.1465 17.103C62.9115 17.0163 62.6613 16.978 62.4111 16.9907ZM19.4195 16.9952C19.0394 16.9961 18.6632 17.0719 18.3124 17.2183C17.0867 17.8553 16.5584 19.1841 16.6313 20.5491C16.6723 21.6958 17.1189 22.8654 18.2261 23.3841C18.5796 23.531 18.9592 23.6051 19.3421 23.6019L19.3564 23.6072C19.9204 23.6193 20.4706 23.4324 20.9102 23.0793L20.96 23.4517H22.9286V17.1045H20.8506L20.7865 17.5008C20.6058 17.3272 20.3911 17.1926 20.1559 17.1056C19.9206 17.0186 19.67 16.981 19.4195 16.9952ZM26.0585 16.9952C25.6783 16.9952 25.3019 17.0711 24.9515 17.2183C23.703 17.8553 23.1929 19.1841 23.2703 20.5491C23.3114 21.6958 23.7534 22.8654 24.8607 23.3841C25.2125 23.5321 25.5905 23.608 25.9722 23.6072C26.5379 23.6216 27.0903 23.4344 27.5305 23.0793L27.5804 23.4517H29.5676V17.1045H27.494L27.4255 17.5008C27.2448 17.3272 27.0301 17.1926 26.7949 17.1056C26.5596 17.0186 26.309 16.981 26.0585 16.9952ZM73.4055 17.0183C72.7422 17.0258 72.1061 17.2825 71.6239 17.7373C71.3527 18.0422 71.1703 18.4154 71.0964 18.8164C71.0226 19.2175 71.06 19.631 71.2047 20.0124C71.3969 20.3217 71.6558 20.5843 71.9624 20.7811C72.2691 20.9778 72.6159 21.1039 72.9775 21.1499C73.866 21.2864 73.7882 21.6049 73.7882 21.6049C73.7609 21.969 72.9954 21.9684 72.8769 21.9684C72.3229 21.9176 71.7834 21.7633 71.2866 21.5134V23.2882C71.7291 23.4482 72.1873 23.5611 72.6535 23.625C72.8321 23.6477 73.0119 23.6599 73.1919 23.6614C73.8448 23.6857 74.4916 23.5281 75.0599 23.2064C75.3768 23.0199 75.639 22.7537 75.8205 22.4343C76.002 22.1149 76.0963 21.7535 76.0941 21.3863C76.11 21.1478 76.0779 20.9085 75.9996 20.6826C75.9214 20.4567 75.7985 20.2487 75.6384 20.071C75.1546 19.6518 74.5422 19.4095 73.9021 19.384C73.2004 19.3203 73.264 19.0979 73.264 19.0979C73.264 18.702 73.8566 18.7015 73.9386 18.7015H74.235C74.7065 18.7064 75.1719 18.8086 75.6019 19.0019V17.3684C74.9572 17.1373 74.2774 17.0189 73.5924 17.0183L73.4055 17.0183ZM66.2566 17.1045V18.9246H68.1976L66.0973 23.457H71V21.7365H69.2504L71.3871 17.1045H66.2566ZM39.5101 18.5558C39.6983 18.5565 39.8813 18.6175 40.0322 18.7298C40.1831 18.8421 40.2939 18.9998 40.3484 19.1796L38.662 19.7617C38.6347 19.6703 38.6209 19.5754 38.621 19.48C38.621 19.2425 38.7139 19.0143 38.8801 18.8443C39.0462 18.6742 39.2723 18.5758 39.5101 18.57V18.5558ZM49.2791 18.6882V20.7535H51.4479V18.6882H49.2791ZM33.1167 18.9743C34.2148 19.0016 34.0734 20.2488 34.0734 20.2488C34.0734 21.491 33.2669 21.5321 33.1621 21.5321C32.0458 21.5321 32.1734 20.2621 32.1734 20.2621C32.1734 19.0153 33.0028 18.9743 33.1167 18.9743ZM19.8618 19.0517C20.9554 19.0835 20.8141 20.3261 20.8141 20.3261C20.8141 21.5683 20.0121 21.6138 19.9028 21.6138C18.791 21.6138 18.9185 20.3394 18.9185 20.3394C18.9185 19.0927 19.7525 19.0517 19.8618 19.0517ZM26.4964 19.0517H26.5009C27.599 19.0835 27.4531 20.3261 27.4531 20.3261C27.4531 21.5683 26.6512 21.6138 26.5418 21.6138C25.4255 21.6138 25.5531 20.3394 25.5531 20.3394C25.5531 19.0927 26.387 19.0517 26.4964 19.0517ZM62.8392 19.0517H62.8437C63.9419 19.0835 63.796 20.3261 63.796 20.3261C63.796 21.5683 62.994 21.6138 62.8847 21.6138C61.7729 21.6138 61.9004 20.3394 61.9004 20.3394C61.9004 19.0927 62.7298 19.0517 62.8392 19.0517ZM72.7496 24.4444V24.6168H73.2507V25.9365H73.4563V24.6168H73.9617V24.4444L72.7496 24.4444ZM74.1442 24.4444V25.9365H74.34V24.6808L74.768 25.9365H74.9638L75.383 24.6577V25.9365H75.5788V24.4444H75.2922L74.8641 25.7046L74.4352 24.4444L74.1442 24.4444ZM42.4576 36.634L42.6036 36.7477C42.6946 36.825 42.7716 36.9172 42.8314 37.0205C42.9574 37.2357 43.0541 37.4668 43.1188 37.7075C43.1333 37.775 43.1407 37.8438 43.1411 37.9128C43.1541 38.1127 43.0893 38.31 42.9604 38.4634C42.8314 38.6169 42.6481 38.7147 42.4487 38.7366C42.3483 38.7372 42.2488 38.7166 42.1569 38.6762C42.0649 38.6359 41.9825 38.5766 41.915 38.5023C41.8475 38.4281 41.7965 38.3404 41.7651 38.2451C41.7338 38.1498 41.7229 38.049 41.7332 37.9492C41.7348 37.8677 41.7456 37.7867 41.7652 37.7075C41.8332 37.4649 41.9392 37.2345 42.0794 37.025C42.1407 36.9215 42.2192 36.8292 42.3116 36.7521L42.4576 36.634Z" fill="#790000"></path>
</svg>