<svg width="177" height="49" viewBox="0 0 177 49" fill="none" xmlns="http://www.w3.org/2000/svg">
<path d="M15.7951 0.105671C14.0374 0.392958 11.353 1.25482 9.81902 2.02092C6.39953 3.74464 1.51 9.52229 0.455392 13.0655C-0.151797 15.1723 -0.151797 19.6731 0.455392 22.099C2.24503 29.0897 7.70981 33.9417 15.2518 35.2185C21.7072 36.3039 27.1082 34.1651 32.6368 28.3875C37.4944 23.3121 38.6449 18.3643 36.4398 11.9802C34.6182 6.71327 30.3039 2.40397 25.2866 0.871769C23.2093 0.233346 17.8085 -0.213528 15.7951 0.105671ZM28.5782 6.90479C31.7739 8.72427 31.806 13.6401 28.6741 15.5553C27.0442 16.5449 23.3052 16.3214 23.3052 15.2361C23.3052 15.0446 23.5928 14.9169 23.9123 14.9169C24.2639 14.9169 24.9669 14.5658 25.4463 14.087L26.3413 13.289L25.3185 13.7678C23.7846 14.5339 22.1228 14.4381 21.5795 13.5443C20.7485 12.2356 20.6526 10.8949 21.3237 9.42652C22.6981 6.36213 25.7339 5.30875 28.5782 6.90479ZM11.6726 10.4161C14.389 11.6291 15.5394 15.1723 13.9735 17.4706C12.7272 19.3219 11.2571 20.088 9.3716 19.9604C7.29434 19.7689 5.85624 18.7794 5.02536 16.9279C4.1625 15.0127 4.48207 13.3209 5.95211 11.6929C7.64588 9.84151 9.46747 9.42652 11.6726 10.4161ZM28.8977 24.2058C28.0988 26.5999 26.2454 28.7387 23.9444 29.8558C20.0136 31.8349 16.2425 31.4519 13.3663 28.7387C11.8963 27.366 10.9056 25.4828 11.321 24.8125C11.4169 24.6528 12.2797 24.4931 13.2065 24.4931C16.8177 24.4931 24.7752 22.6736 27.7472 21.1414L29.2174 20.4074L29.3133 21.4926C29.3771 22.099 29.1853 23.3121 28.8977 24.2058Z" fill="#FF0000"></path>
<path d="M12.1196 17.0553C11.1609 17.5341 10.3619 17.566 9.53102 17.1511C9.05165 16.8957 8.92383 16.9276 8.92383 17.2787C8.92383 18.2683 11.3526 18.4279 12.4711 17.5022C13.4299 16.7361 13.2062 16.4807 12.1196 17.0553Z" fill="black"></path>
<path d="M85.9414 2.17971C83.2251 3.26501 81.9787 6.61669 83.2569 9.36188C85.2384 13.5435 91.6938 12.9051 92.9401 8.37232C94.0269 4.38224 89.8403 0.647515 85.9414 2.17971ZM87.9547 9.32994C88.8176 9.68108 89.3291 9.71299 89.9362 9.48955C91.0867 9.04266 91.3743 9.07459 91.3743 9.64917C91.3743 10.7345 88.5621 11.1814 87.2836 10.2557C86.9001 10.0003 86.5806 9.55341 86.5806 9.29803C86.5806 8.75537 86.5806 8.75537 87.9547 9.32994Z" fill="black"></path>
<path d="M123.492 2.27755C121.511 3.17135 120.456 4.99083 120.456 7.44872C120.456 9.87471 122.405 10.8642 124.738 9.65125C125.25 9.36396 125.729 9.23629 125.793 9.30014C126.113 9.61933 125.41 10.2258 124.035 10.8323L122.565 11.5027L123.492 11.9495C124.706 12.588 127.551 12.3645 128.669 11.5346C130.81 9.90662 131.577 7.16143 130.523 4.89507C129.34 2.40525 125.953 1.12841 123.492 2.27755Z" fill="black"></path>
<path d="M167.115 2.15094C163.503 2.78936 161.778 7.29019 164.015 10.2588C166.891 13.9936 172.643 12.4614 173.346 7.73707C173.506 6.74753 173.378 6.10911 172.803 5.05572C171.621 2.75743 169.607 1.73598 167.115 2.15094ZM171.908 8.37549C171.908 9.33311 170.694 10.6738 169.575 10.9292C168.68 11.1845 166.699 10.2907 166.859 9.74807C166.923 9.55655 167.562 9.23735 168.265 9.01391C168.936 8.82239 169.959 8.4074 170.47 8.12012C171.78 7.41787 171.908 7.44978 171.908 8.37549Z" fill="black"></path>
<path d="M113.17 10.6107C113.234 14.7285 113.17 18.1122 113.074 18.1122C112.978 18.1122 112.626 17.8249 112.339 17.5056C112.019 17.1545 111.029 16.5799 110.134 16.1969C108.248 15.3669 105.308 15.4308 103.614 16.2926C102.144 17.0587 100.642 18.7186 99.8753 20.3466C98.8845 22.4852 98.9485 26.6669 99.9712 28.646C100.93 30.4974 102.08 31.7423 103.678 32.5723C106.203 33.9129 110.869 33.2745 112.435 31.3911C113.074 30.625 113.265 30.7528 113.265 31.9019C113.265 32.9232 113.329 32.9553 114.64 33.0511L115.982 33.1469V18.144V3.10938H114.544H113.074L113.17 10.6107ZM110.23 18.7186C110.837 19.0377 111.795 19.8996 112.307 20.6338C113.17 21.8469 113.265 22.2618 113.265 24.2728C113.265 26.1881 113.138 26.8265 112.403 28.0715C110.869 30.657 107.961 31.5189 105.212 30.2101C103.103 29.1885 102.08 27.2414 102.08 24.2728C102.08 22.2618 102.176 21.8469 103.039 20.6338C104.222 18.974 105.787 18.1122 107.673 18.1122C108.472 18.1122 109.622 18.3674 110.23 18.7186Z" fill="black"></path>
<path d="M54.2398 5.24468C53.5365 6.07463 48.6791 31.4198 49.0945 32.1219C49.542 32.8241 53.6964 33.0156 54.2716 32.3453C54.4953 32.0901 55.1026 29.5364 55.6457 26.6635C56.1891 23.8225 56.7325 21.3326 56.8602 21.205C56.988 21.0774 58.2664 23.663 59.7364 26.9508C61.2064 30.2385 62.5486 33.1435 62.7085 33.335C62.8683 33.5584 63.4115 33.7499 63.8908 33.7499C64.3702 33.7499 64.9136 33.5584 65.0734 33.335C65.2331 33.1435 66.6074 30.2706 68.0774 26.9508C69.5474 23.663 70.8258 20.9817 70.9536 20.9817C71.0495 20.9817 71.5928 23.4715 72.1359 26.472C73.2864 32.7923 73.4782 33.1114 76.003 33.1114C77.6966 33.1114 78.9111 32.4411 78.9111 31.4516C78.9111 30.8452 76.2266 16.5127 74.6608 8.69212C73.9896 5.40429 73.8938 5.18083 73.0309 4.86163C72.2639 4.60626 72.0401 4.67011 71.5928 5.21277C71.2731 5.59582 69.4836 9.52207 67.534 13.9271C65.6166 18.3322 63.9867 21.9393 63.8908 21.9393C63.795 21.9393 62.1651 18.2683 60.2477 13.7675C58.3302 9.29861 56.5726 5.40429 56.3169 5.14892C55.7097 4.54243 54.815 4.57435 54.2398 5.24468Z" fill="black"></path>
<path d="M146.311 5.43623C138.289 8.14951 134.391 17.1193 137.874 24.7484C138.833 26.8551 141.677 29.8556 143.818 31.0366C148.164 33.3988 153.661 33.367 157.784 31.0048C159.094 30.2387 159.126 30.1747 159.126 28.4831C159.126 27.5255 159.03 26.7273 158.934 26.7273C158.838 26.7273 158.231 27.1424 157.592 27.6849C153.693 30.7814 148.708 30.9408 144.521 28.1319C142.732 26.887 141.741 25.7697 140.559 23.5353C139.887 22.2904 139.792 21.684 139.792 18.7472C139.792 15.8424 139.887 15.204 140.559 13.9591C142.316 10.6074 144.617 8.72409 148.069 7.73453C151.232 6.80884 154.812 7.60685 157.592 9.80938C158.231 10.352 158.838 10.767 158.934 10.767C159.03 10.767 159.126 9.969 159.126 9.01137C159.126 7.31957 159.094 7.25572 157.784 6.48962C154.46 4.57437 150.018 4.19132 146.311 5.43623Z" fill="black"></path>
<path d="M84.6321 14.7604C84.1849 15.0158 83.5138 15.6222 83.194 16.1011C82.6509 16.8991 82.5869 17.6332 82.5869 23.5386C82.5869 30.7208 82.6828 31.1675 84.5684 32.3806C85.8785 33.2425 92.43 33.2106 93.7082 32.3488C95.402 31.1996 95.5298 30.5293 95.5298 23.5386C95.5298 16.4522 95.3699 15.6542 93.6123 14.7604C92.366 14.122 85.8466 14.09 84.6321 14.7604Z" fill="black"></path>
<path d="M121.576 14.9815C120.01 16.1945 119.818 17.216 119.818 23.7597C119.818 29.1544 119.882 29.8566 120.458 30.7824C121.48 32.474 122.471 32.8892 125.539 33.0486C128.894 33.2083 130.588 32.7934 131.803 31.5164L132.761 30.5269L132.857 24.1109C132.953 17.1202 132.857 16.418 131.259 15.0773C130.364 14.3112 130.109 14.2793 126.402 14.2793C122.854 14.2793 122.375 14.3431 121.576 14.9815Z" fill="black"></path>
<path d="M164.334 15.3321L163.12 16.4493L163.024 23.0249C162.928 28.6748 162.992 29.7603 163.472 30.7179C164.334 32.5374 165.421 32.9523 169.576 32.9523C172.675 32.9523 173.251 32.8565 174.05 32.282C175.839 30.9731 176.063 30.0155 176.063 23.5994C176.063 14.8213 175.839 14.5021 169.671 14.3425L165.549 14.2148L164.334 15.3321Z" fill="black"></path>
<path d="M62.6123 43.1678C62.6123 46.5192 63.1235 47.8918 63.3152 44.9871C63.4111 43.6147 63.4751 43.4871 64.2101 43.4871C64.9449 43.4871 65.0408 43.6466 65.2007 45.0829L65.3924 46.6788L65.3605 44.7638L65.3284 42.8487L64.306 42.8805C63.2515 42.9444 63.2515 42.9444 63.2515 41.3805C63.2515 40.5188 63.1235 39.8164 62.9318 39.8164C62.74 39.8164 62.6123 41.157 62.6123 43.1678Z" fill="black"></path>
<path d="M100.003 43.1717C100.003 45.1825 100.131 46.5231 100.322 46.5231C100.514 46.5231 100.641 45.1825 100.641 43.1717C100.641 41.1609 100.514 39.8203 100.322 39.8203C100.131 39.8203 100.003 41.1609 100.003 43.1717Z" fill="black"></path>
<path d="M58.1387 40.7703C58.1387 40.9299 58.4903 41.0896 58.9375 41.0896C59.7044 41.0896 59.7044 41.1533 59.8324 43.8665L59.9282 46.6752L59.992 43.8665C60.056 41.1214 60.056 41.0896 60.8548 41.0896C61.3022 41.0896 61.6538 40.9299 61.6538 40.7703C61.6538 40.5788 60.8548 40.4512 59.8961 40.4512C58.9375 40.4512 58.1387 40.5788 58.1387 40.7703Z" fill="black"></path>
<path d="M74.1172 43.4221C74.1172 45.2733 74.2449 46.5181 74.4367 46.5181C74.6284 46.5181 74.7564 45.5606 74.7564 44.2839C74.7564 43.0391 74.8201 42.0497 74.8841 42.0497C74.9481 42.0497 76.0345 43.103 77.2807 44.3478L79.5496 46.6778V43.5497C79.5496 41.6986 79.4216 40.4538 79.2299 40.4538C79.0382 40.4538 78.9104 41.4431 78.9104 42.7519V45.0499L76.5138 42.6879L74.1172 40.3262V43.4221Z" fill="black"></path>
<path d="M118.219 43.4871C118.219 45.3064 118.346 46.5194 118.538 46.5194C118.73 46.5194 118.858 45.9767 118.858 45.3064C118.858 44.2213 118.954 44.0616 119.88 43.8065C122.149 43.1362 121.67 40.4551 119.273 40.4551H118.219V43.4871ZM120.679 41.6041C120.935 42.3062 120.392 43.1362 119.529 43.2638C118.954 43.3595 118.858 43.2319 118.858 42.2423C118.858 41.2211 118.954 41.0933 119.657 41.0933C120.136 41.0933 120.551 41.3169 120.679 41.6041Z" fill="black"></path>
<path d="M141.516 41.3769C139.215 43.7068 141.836 47.6966 144.904 46.5155C145.351 46.3561 145.702 46.0688 145.702 45.8773C145.702 45.6537 145.511 45.6219 145.095 45.8773C143.37 46.7709 141.229 45.4943 141.229 43.5153C141.229 42.6853 141.452 42.2387 142.219 41.6002C143.274 40.7066 143.817 40.5788 144.808 41.1214C145.159 41.313 145.543 41.3769 145.638 41.249C145.99 40.8981 144.935 40.4512 143.689 40.4512C142.762 40.4512 142.219 40.6745 141.516 41.3769Z" fill="black"></path>
<path d="M102.081 41.1255C101.762 41.6042 102.177 41.9232 102.592 41.5084C102.815 41.2849 102.815 41.0934 102.624 40.9658C102.432 40.8701 102.177 40.934 102.081 41.1255Z" fill="black"></path>
<path d="M122.565 41.0622C122.437 41.2216 122.501 41.4451 122.661 41.5409C122.82 41.6684 123.044 41.6045 123.139 41.4451C123.267 41.2855 123.203 41.0622 123.044 40.9664C122.884 40.8386 122.661 40.9025 122.565 41.0622Z" fill="black"></path>
<path d="M104.095 42.1161C103.903 43.297 104.191 46.5208 104.51 46.5208C104.669 46.5208 104.797 45.8187 104.797 44.9569C104.797 43.9994 104.957 43.297 105.212 43.2013C105.531 43.0418 105.531 42.9779 105.212 42.8182C104.988 42.7225 104.797 42.3716 104.797 42.0204C104.797 41.1586 104.255 41.2543 104.095 42.1161Z" fill="black"></path>
<path d="M67.3109 43.2623C66.5758 44.0605 66.6398 45.433 67.4068 46.1991C68.2056 46.997 68.749 46.997 69.6758 46.1991C70.5387 45.4969 70.283 45.3372 69.3242 45.9436C68.8449 46.2309 68.5254 46.263 68.1419 46.0076C67.0551 45.3372 67.3109 44.9223 68.813 44.9223C70.0593 44.9223 70.283 44.8266 70.283 44.3157C70.283 42.8474 68.3015 42.1771 67.3109 43.2623ZM69.58 43.869C69.6437 44.1562 69.3242 44.2838 68.5572 44.2838C67.4708 44.2838 67.151 44.0284 67.6304 43.5178C67.982 43.1665 69.4201 43.4538 69.58 43.869Z" fill="black"></path>
<path d="M81.3406 43.2959C80.5099 44.2216 80.7654 45.9133 81.82 46.4879C82.5869 46.903 82.7468 46.903 83.5457 46.3921C84.5365 45.7538 84.4085 45.3069 83.4179 45.9454C82.9386 46.2327 82.5869 46.2645 82.2034 46.0091C81.117 45.3387 81.3727 44.9238 82.8746 44.9238C84.089 44.9238 84.3448 44.8281 84.3448 44.3493C84.3448 43.5832 83.3539 42.6895 82.5232 42.6895C82.1716 42.6895 81.6282 42.9767 81.3406 43.2959ZM83.6415 43.8704C83.7055 44.1577 83.386 44.2853 82.6191 44.2853C81.5323 44.2853 81.2128 44.0301 81.6922 43.5192C82.0438 43.1683 83.4819 43.4556 83.6415 43.8704Z" fill="black"></path>
<path d="M85.7831 43.2004C85.5273 43.4556 85.3037 44.1899 85.3037 44.7645C85.3037 46.1051 86.4542 47.0309 87.6047 46.6479C88.02 46.52 88.4356 46.4243 88.5953 46.4564C88.7233 46.4882 88.8191 45.6903 88.8191 44.7006V42.8492L87.5407 42.7853C86.7737 42.7216 86.1026 42.8811 85.7831 43.2004ZM88.1159 43.7111C89.0746 44.6687 88.1159 46.4243 86.8377 46.1051C85.9108 45.8497 85.4955 44.7963 85.9748 43.9026C86.3264 43.2641 87.5407 43.1365 88.1159 43.7111Z" fill="black"></path>
<path d="M90.415 45.7842C90.415 47.6993 90.5428 48.7526 90.7666 48.7526C90.9584 48.7526 91.0542 48.2419 91.0221 47.5396C90.9262 46.3587 91.0221 46.263 92.0766 46.6778C92.4282 46.8375 92.9075 46.6141 93.4827 46.0396C94.1219 45.4012 94.2496 45.0182 94.0898 44.3479C93.8022 43.1031 93.4187 42.8477 91.853 42.8477H90.415V45.7842ZM93.227 43.7094C94.1856 44.667 93.227 46.4226 91.9489 46.1033C91.0221 45.8481 90.6068 44.7948 91.0861 43.901C91.4377 43.2628 92.6518 43.1349 93.227 43.7094Z" fill="black"></path>
<path d="M95.7215 43.3584C94.7628 44.0927 94.6669 44.7948 95.402 45.8164C96.0731 46.8058 97.5431 46.7419 98.3419 45.7206C99.0771 44.7948 98.9493 43.8372 97.9906 43.1669C97.0956 42.5284 96.7442 42.5605 95.7215 43.3584Z" fill="black"></path>
<path d="M102.241 42.7534C102.081 43.6471 102.145 46.5199 102.305 46.5199C102.464 46.5199 102.56 45.6581 102.56 44.6047C102.56 43.5513 102.496 42.6895 102.4 42.6895C102.305 42.6895 102.241 42.7213 102.241 42.7534Z" fill="black"></path>
<path d="M106.619 43.1053C106.331 43.3286 106.012 43.8714 105.916 44.3502C105.628 45.4354 107.034 47.0315 107.929 46.6803C108.217 46.5527 108.728 46.457 109.048 46.457C109.495 46.4888 109.591 46.2015 109.591 44.6693V42.8498L108.345 42.7861C107.674 42.7541 106.907 42.8819 106.619 43.1053ZM108.984 43.999C109.495 44.9887 108.888 46.2015 107.834 46.2015C107.29 46.2015 106.907 45.9463 106.683 45.4354C106.204 44.4141 106.811 43.3286 107.834 43.3286C108.313 43.3286 108.76 43.6159 108.984 43.999Z" fill="black"></path>
<path d="M111.189 44.6707C111.189 45.7877 111.317 46.522 111.541 46.522C111.733 46.522 111.797 46.2347 111.669 45.8835C111.541 45.5325 111.541 44.7983 111.669 44.2876C111.829 43.5534 112.052 43.33 112.659 43.33C113.363 43.33 113.426 43.4576 113.426 44.9259C113.426 45.7877 113.586 46.522 113.746 46.522C114.226 46.522 114.13 43.4576 113.65 43.0427C113.426 42.8512 112.755 42.7554 112.212 42.7873C111.189 42.8512 111.189 42.8512 111.189 44.6707Z" fill="black"></path>
<path d="M122.79 44.6048C122.79 45.7537 122.854 46.2003 122.918 45.6259C122.982 45.0835 122.982 44.1262 122.918 43.5517C122.854 43.0091 122.79 43.456 122.79 44.6048Z" fill="black"></path>
<path d="M124.611 42.9767C124.611 43.1683 125.123 43.3279 125.73 43.3916L126.848 43.4874L125.538 44.9877L124.228 46.5199L126.273 46.456C127.839 46.4242 127.999 46.3923 126.944 46.2966C126.177 46.2327 125.57 46.073 125.57 45.9772C125.57 45.8814 126.145 45.1154 126.88 44.2535L128.19 42.6895H126.401C125.41 42.6895 124.611 42.8171 124.611 42.9767Z" fill="black"></path>
<path d="M129.085 43.0086C129.085 43.1683 129.532 43.3279 130.043 43.3279C130.587 43.3279 131.002 43.4237 131.002 43.5195C131.002 43.6152 130.491 44.3493 129.852 45.1153L128.701 46.5199L130.715 46.456C132.281 46.4242 132.44 46.3923 131.418 46.2966C130.651 46.2327 130.043 46.073 130.043 45.9772C130.043 45.8814 130.555 45.1793 131.162 44.4132C131.769 43.6789 132.281 42.9767 132.281 42.881C132.281 42.7852 131.577 42.6895 130.683 42.6895C129.82 42.6895 129.085 42.8171 129.085 43.0086Z" fill="black"></path>
<path d="M133.783 43.2626C132.44 44.763 133.719 47.2209 135.508 46.5824C135.924 46.4228 136.467 46.3591 136.691 46.4228C137.01 46.5506 137.074 46.1355 137.01 44.7311L136.914 42.9116L135.604 42.7838C134.646 42.688 134.166 42.8159 133.783 43.2626ZM136.051 43.7096C137.01 44.6672 136.051 46.4228 134.773 46.1036C133.846 45.8482 133.431 44.7948 133.91 43.9011C134.262 43.2626 135.476 43.135 136.051 43.7096Z" fill="black"></path>
<path d="M147.301 43.3285C146.95 43.6797 146.662 44.2861 146.662 44.6692C146.694 47.159 150.209 47.4144 150.433 44.9565C150.625 42.9775 148.675 41.956 147.301 43.3285ZM149.858 43.967C150.337 44.8928 149.954 45.8504 149.027 46.0738C148.068 46.3292 147.301 45.7226 147.301 44.797C147.301 43.3285 149.187 42.7539 149.858 43.967Z" fill="black"></path>
<path d="M151.774 44.6659C151.774 46.9 152.35 47.1555 152.477 44.985C152.573 43.7402 152.669 43.4847 153.212 43.4847C153.756 43.4847 153.852 43.7402 153.947 44.985C154.011 45.8467 154.171 46.517 154.331 46.517C154.491 46.517 154.65 45.8467 154.714 44.985C154.81 43.7402 154.906 43.4847 155.449 43.4847C155.992 43.4847 156.088 43.7402 156.184 44.985C156.312 46.8682 156.887 47.0276 156.887 45.1446C156.887 43.0699 156.6 42.8465 154.011 42.8465L151.774 42.8145V44.6659Z" fill="black"></path>
<path d="M158.167 45.7842C158.167 47.5717 158.295 48.7526 158.486 48.7526C158.678 48.7526 158.806 48.178 158.806 47.4759C158.806 46.2948 158.87 46.199 159.413 46.5184C161.043 47.3802 162.609 45.3693 161.65 43.6776C161.235 42.9755 160.947 42.8477 159.669 42.8477H158.167V45.7842ZM161.043 43.7734C161.938 44.8906 160.691 46.7417 159.541 46.0075C158.934 45.6245 158.646 44.5394 158.934 43.7734C159.158 43.1988 160.532 43.1988 161.043 43.7734Z" fill="black"></path>
<path d="M163.504 43.1053C163.216 43.3286 162.897 43.8714 162.801 44.3502C162.513 45.4354 163.919 47.0315 164.814 46.6803C165.102 46.5527 165.613 46.457 165.932 46.457C166.38 46.4888 166.476 46.2015 166.476 44.6693V42.8498L165.23 42.7861C164.558 42.7541 163.791 42.8819 163.504 43.1053ZM165.837 43.9671C166.348 44.8929 165.932 45.8505 164.974 46.0739C163.664 46.4251 162.705 44.6693 163.664 43.7117C164.271 43.1053 165.453 43.265 165.837 43.9671Z" fill="black"></path>
<path d="M168.105 44.7664C168.137 46.7135 168.201 46.6817 168.553 44.511C168.712 43.5215 168.872 43.33 169.511 43.33C170.246 43.33 170.31 43.4576 170.31 44.9259C170.31 45.7877 170.47 46.522 170.63 46.522C171.109 46.522 171.013 43.4576 170.534 43.0427C170.31 42.8512 169.639 42.7554 169.096 42.7873L168.073 42.8512L168.105 44.7664Z" fill="black"></path>
<path d="M171.908 42.848C171.908 42.9437 172.292 43.7734 172.739 44.6673C173.538 46.263 173.57 46.3588 173.059 47.4121C172.771 48.0187 172.611 48.5932 172.707 48.689C172.963 48.9442 172.995 48.8484 174.433 45.7524C175.871 42.6244 175.871 42.6883 175.487 42.6883C175.327 42.6883 174.944 43.2628 174.624 43.965C174.305 44.6673 173.953 45.2418 173.825 45.2418C173.698 45.2418 173.346 44.6673 173.027 43.965C172.547 42.8798 171.908 42.2735 171.908 42.848Z" fill="black"></path>
</svg>