<svg width="125" height="19" viewBox="0 0 125 19" fill="none" xmlns="http://www.w3.org/2000/svg">
<path d="M55.0518 0.14349C55.0518 0.229678 55.3279 0.471006 55.6557 0.677858C55.9837 0.884711 56.4151 1.28118 56.6222 1.55698L56.9846 2.07411L56.5704 1.97068C55.3969 1.69488 54.5341 1.59146 54.5341 1.74659C54.5341 1.83279 54.7756 2.10859 55.0518 2.34992C55.7075 2.90152 55.7249 3.17733 55.0518 2.83257C54.5167 2.55677 52.8082 2.47058 52.8082 2.72914C52.8082 2.81534 53.0153 2.936 53.257 2.98771C53.7057 3.10837 55.2243 4.4012 55.2243 4.65976C55.2243 4.74595 55.0518 4.8149 54.8274 4.8149C54.396 4.8149 53.2915 5.34928 53.2052 5.60784C53.1706 5.69402 53.7229 5.76298 54.4305 5.76298C55.5522 5.76298 55.7766 5.8147 56.1563 6.17669C56.3979 6.41801 56.605 6.64211 56.605 6.69382C56.605 6.74553 56.3806 6.93514 56.1045 7.09028C55.5522 7.40056 54.8791 8.55549 54.5167 9.81384C54.2407 10.7964 54.1199 10.9515 53.5158 11.0722C52.6357 11.2446 52.4114 11.641 52.4976 12.8304C52.6529 14.7438 53.9128 16.5366 55.7766 17.5191C56.605 17.95 56.8639 18.0017 58.4171 18.0017C59.9702 18.0017 60.2291 17.95 61.1265 17.5018C63.0075 16.5538 64.1811 14.7955 64.3364 12.7443L64.4054 11.6066L63.8359 11.3308C63.508 11.1756 63.1111 11.0032 62.9557 10.9515C62.7832 10.8998 62.6451 10.7274 62.6451 10.5551C62.6451 10.0552 61.696 8.21073 61.1955 7.76255C60.6605 7.26266 60.626 6.95238 61.0747 6.71105C61.5579 6.45249 62.369 6.5042 63.1628 6.81448C63.5598 6.96962 63.9222 7.05581 63.974 7.0041C64.1465 6.81448 63.4908 6.0043 62.8695 5.64231C62.2827 5.29757 62.2655 5.26309 62.5761 5.02175C62.766 4.88386 63.2837 4.59082 63.7497 4.38396C64.5607 4.00474 64.5607 3.97026 64.1811 3.78064C63.9222 3.64275 63.4045 3.59103 62.6624 3.67721L61.5407 3.78064L62.5589 2.74638C63.1111 2.17753 63.5426 1.67765 63.4908 1.64317C63.3355 1.48803 61.3508 2.07411 60.6259 2.50506C60.1256 2.79809 59.8839 2.86705 59.8839 2.71191C59.8839 2.31544 60.5224 1.41908 61.161 0.936424C62.1102 0.212441 61.7477 0.0228258 60.3153 0.505482C60.022 0.608908 59.5561 0.901948 59.2972 1.17775L58.8139 1.67765L58.0029 1.1088C56.8983 0.315867 55.0518 -0.287453 55.0518 0.14349ZM58.1236 1.76383C58.486 2.14307 58.486 2.21201 58.2617 2.74638L58.0201 3.33247L57.6405 2.45334C57.4334 1.95345 57.1227 1.43632 56.9329 1.26394C56.7603 1.1088 56.605 0.901948 56.605 0.832998C56.605 0.626145 57.6749 1.29841 58.1236 1.76383ZM59.7804 2.00516C59.5561 2.55677 59.3662 3.10837 59.3662 3.22904C59.3662 3.60827 58.7103 4.65976 58.5896 4.47016C58.3825 4.1254 58.4515 3.3497 58.7621 2.74638C59.0038 2.26373 60.0047 1.02261 60.16 1.02261C60.1773 1.02261 60.0047 1.4708 59.7804 2.00516ZM56.9156 2.8498C57.5196 3.31522 58.3653 4.90109 58.5896 5.96984C58.6931 6.45249 58.6414 6.55591 58.1754 6.78C57.416 7.17647 57.2953 7.12476 57.2953 6.36629C57.2953 5.26309 56.9674 4.0392 56.4323 3.19456C55.8628 2.29821 56.0355 2.17753 56.9156 2.8498ZM61.4199 3.26351C60.833 3.95302 59.4352 4.98729 59.0728 4.98729C58.9002 4.98729 59.5561 3.98749 60.0047 3.59103C60.4706 3.16008 61.7132 2.41887 62.0066 2.40163C62.0929 2.40163 61.8167 2.79809 61.4199 3.26351ZM55.5178 3.52207C56.2944 3.98749 56.7775 4.69424 56.7775 5.36651V5.74574L56.5015 5.33203C56.3288 5.09071 55.8111 4.48739 55.3279 3.98749C54.3614 2.98771 54.396 2.88428 55.5178 3.52207ZM62.369 4.57358C62.0066 4.8149 61.23 5.48717 60.6433 6.05602L59.5905 7.07304L59.3662 6.55591C59.2454 6.26287 59.1937 5.91812 59.2454 5.78022C59.3834 5.4527 62.0584 4.1254 62.6107 4.1254C63.0075 4.1254 62.9903 4.15988 62.369 4.57358ZM56.0527 5.48717C56.1045 5.64231 56.0527 5.67679 55.8974 5.57336C55.7766 5.50442 55.3969 5.38375 55.0518 5.3148C54.465 5.19414 54.4823 5.19414 55.2071 5.21137C55.6903 5.22861 56.0009 5.33203 56.0527 5.48717ZM62.7142 6.02155C62.7832 6.10773 62.5416 6.14221 62.1447 6.14221C61.4543 6.10773 61.23 5.95259 61.6614 5.79745C61.9031 5.69402 62.4898 5.83193 62.7142 6.02155ZM59.5215 7.60741C59.9011 7.38332 60.022 7.53846 59.7114 7.84874C59.5905 7.9694 59.6423 8.12454 59.8839 8.34864C60.1946 8.64167 60.2463 8.64167 60.6777 8.36587C60.9194 8.1935 61.161 8.09007 61.1955 8.14179C61.2472 8.17625 61.0747 8.34864 60.8158 8.50378C60.3844 8.79681 60.3844 8.81406 60.6777 9.14157C60.9022 9.3829 61.1093 9.45185 61.4199 9.3829C61.765 9.29671 61.7995 9.31394 61.6442 9.52079C61.4889 9.71041 61.5061 9.83107 61.7823 10.0724C61.9721 10.2448 62.1274 10.3137 62.1274 10.2275C62.1274 10.0379 62.4726 10.5378 62.4726 10.7447C62.4726 10.8309 62.369 10.8136 62.2483 10.7102C62.0756 10.5551 61.9203 10.5895 61.627 10.7792L61.2472 11.055L61.6096 11.3135C61.9031 11.5204 62.0238 11.5204 62.2309 11.3652C62.438 11.1756 62.4726 11.2101 62.438 11.5376C62.4036 11.7617 62.4898 11.9686 62.6107 12.003C62.7142 12.0547 62.8178 11.9686 62.8178 11.8134C62.8178 11.4687 63.1628 11.4687 63.6116 11.7962C63.9394 12.0547 63.9394 12.0547 63.5944 12.3133C62.8695 12.8821 61.9031 13.0028 58.4171 13.0028C55.4314 12.9856 54.8447 12.9511 54.0336 12.6581C53.5158 12.4684 53.0671 12.2271 53.0327 12.1064C52.9809 12.003 53.188 11.7789 53.4813 11.641C54.1371 11.2963 54.1199 11.279 54.1025 11.8134C54.1025 12.1926 54.2234 12.3133 54.7584 12.5029C55.3107 12.6925 55.5004 12.6925 55.8456 12.5202L56.277 12.2961L55.9146 11.9686C55.604 11.6927 55.4832 11.6755 55.0172 11.8479C54.7066 11.9513 54.4305 12.0203 54.396 11.9686C54.3442 11.9168 54.5513 11.7962 54.8619 11.6927L55.4142 11.5031L55.069 11.1239C54.6031 10.624 54.6031 10.5895 55.2243 10.331L55.7593 10.1069L55.3797 9.71041C55.1554 9.48633 55.069 9.29671 55.1726 9.29671C55.2589 9.29671 55.4832 9.45185 55.6557 9.64147C55.9492 9.96898 55.9837 9.96898 56.4497 9.69318C57.0536 9.33119 57.071 9.24499 56.5532 8.90024C56.208 8.67615 56.0873 8.67615 55.7249 8.883C55.138 9.21051 54.8965 9.17605 55.3969 8.83129C55.6385 8.67615 55.8628 8.52101 55.8974 8.50378C55.9319 8.4693 55.8628 8.29692 55.7249 8.14179C55.535 7.88322 55.535 7.86597 55.7421 8.03836C56.0527 8.33139 56.2944 8.31416 56.6912 8.02111C56.9846 7.81426 57.0018 7.74531 56.7775 7.46952C56.5359 7.1937 56.5532 7.1937 56.9501 7.40056C57.1745 7.52123 57.5196 7.81426 57.6922 8.03836C58.0546 8.50378 58.2962 8.53824 58.7621 8.1935C59.0901 7.95217 59.0901 7.93493 58.7967 7.62465C58.6414 7.43504 58.5033 7.22818 58.5033 7.15924C58.5033 7.07304 58.6586 7.1937 58.8312 7.4178C59.1245 7.77979 59.2109 7.79703 59.5215 7.60741Z" fill="#00FFF0"></path>
<path d="M56.7085 8.22827C56.45 8.53847 56.45 8.57292 56.7774 8.86589C57.0876 9.14162 57.1738 9.15886 57.5529 8.95206C58.087 8.65909 58.087 8.53847 57.5529 8.1938C57.0359 7.84913 57.0704 7.84913 56.7085 8.22827Z" fill="#00FFF0"></path>
<path d="M58.8656 8.38479C58.4692 8.69499 58.4692 8.71222 58.8139 9.02242C59.0896 9.26368 59.2275 9.28091 59.5205 9.12581C59.9685 8.90179 59.9685 8.74669 59.5549 8.36755C59.262 8.10905 59.2103 8.10905 58.8656 8.38479Z" fill="#00FFF0"></path>
<path d="M57.7439 9.03848C57.4164 9.27974 57.4164 9.29698 57.7266 9.64164C57.9679 9.91737 58.0885 9.9346 58.3987 9.7795C58.933 9.50378 58.933 9.50378 58.5883 9.12464C58.2264 8.71105 58.1747 8.71105 57.7439 9.03848Z" fill="#00FFF0"></path>
<path d="M59.7973 9.16029C59.6075 9.26369 59.4178 9.36709 59.3832 9.40156C59.3143 9.47049 60.0907 10.1426 60.2459 10.1598C60.2977 10.1598 60.4874 10.0564 60.66 9.91856C60.9878 9.67729 60.9878 9.66006 60.6772 9.31539C60.2977 8.9018 60.2631 8.9018 59.7973 9.16029Z" fill="#00FFF0"></path>
<path d="M56.657 9.76294C56.1739 10.0904 56.1566 10.2627 56.6053 10.504C56.8641 10.6418 57.0538 10.6246 57.3817 10.4006C57.7957 10.1248 57.8129 10.0904 57.5369 9.7974C57.1918 9.41828 57.1573 9.40105 56.657 9.76294Z" fill="#00FFF0"></path>
<path d="M58.5906 9.88232C58.2627 10.1236 58.2627 10.1408 58.6768 10.4855C59.1944 10.8991 59.1944 10.8991 59.6084 10.5889C59.9363 10.3476 59.9363 10.3304 59.6258 9.98572C59.2635 9.57213 59.0391 9.5549 58.5906 9.88232Z" fill="#00FFF0"></path>
<path d="M60.6768 10.0735C60.4871 10.2114 60.3666 10.3492 60.4183 10.3837C60.4528 10.4009 60.6251 10.5216 60.7802 10.6594C61.0041 10.8145 61.1592 10.8318 61.4351 10.6767C61.797 10.4871 61.797 10.4699 61.504 10.1424C61.1592 9.74608 61.1075 9.74608 60.6768 10.0735Z" fill="#00FFF0"></path>
<path d="M55.4323 10.4684C54.8801 10.7786 54.8629 10.7786 55.208 11.0888C55.5186 11.3645 55.5703 11.3645 56.0879 11.106C56.6227 10.8303 56.6227 10.8131 56.3294 10.4856C56.1741 10.3133 56.0188 10.1582 56.0188 10.1582C56.0016 10.1754 55.7428 10.3133 55.4323 10.4684Z" fill="#00FFF0"></path>
<path d="M57.6061 10.4684C57.0368 10.8131 57.0194 10.882 57.4508 11.2611C57.7614 11.5369 57.8132 11.5369 58.3307 11.2784L58.8828 10.9854L58.486 10.5718C58.279 10.3478 58.0892 10.1582 58.0892 10.1582C58.0719 10.1582 57.8649 10.2961 57.6061 10.4684Z" fill="#00FFF0"></path>
<path d="M59.6249 10.7783C59.2803 11.0368 59.2803 11.0368 59.6077 11.2953C60.0385 11.6055 60.297 11.6055 60.5728 11.278C60.7451 11.0712 60.7451 10.9678 60.5728 10.761C60.297 10.4336 60.0558 10.4336 59.6249 10.7783Z" fill="#00FFF0"></path>
<path d="M56.3113 11.2259C55.8283 11.4499 55.8283 11.5705 56.2252 11.9324C56.484 12.1737 56.5875 12.1737 57.1223 11.9497L57.7262 11.6912L57.3121 11.3465C56.8635 10.9674 56.8289 10.9674 56.3113 11.2259Z" fill="#00FFF0"></path>
<path d="M58.555 11.4014C58.072 11.6426 58.0546 11.7977 58.5205 12.1079C58.831 12.332 58.9345 12.332 59.3659 12.0907C59.8318 11.815 59.849 11.7805 59.5902 11.5048C59.2796 11.1601 59.1072 11.1429 58.555 11.4014Z" fill="#00FFF0"></path>
<path d="M60.6088 11.4673L60.2119 11.743L60.5742 12.0015C60.8676 12.2083 61.0401 12.2255 61.3852 12.0704C61.8165 11.8809 61.8165 11.8636 61.5232 11.5362C61.1436 11.1226 61.1092 11.1226 60.6088 11.4673Z" fill="#00FFF0"></path>
<path d="M57.1576 12.1222C56.8125 12.3118 56.7953 12.3635 57.0196 12.553C57.3301 12.8115 57.7615 12.846 58.3135 12.6737C58.5897 12.5703 58.6759 12.5875 58.6069 12.7254C58.5379 12.846 58.6241 12.9149 58.8311 12.9149C59.3143 12.9149 59.297 12.8632 58.5379 12.329C57.796 11.8292 57.7098 11.812 57.1576 12.1222Z" fill="#00FFF0"></path>
<path d="M59.522 12.2079C59.1424 12.5181 59.1424 12.5181 59.4702 12.7078C59.8499 12.9146 61.8864 12.725 62.4041 12.432C62.6802 12.2768 62.6802 12.2596 62.3178 12.07C62.0071 11.8976 61.869 11.9148 61.5066 12.2079C61.058 12.5699 60.592 12.5009 60.3158 12.0527C60.1605 11.8114 59.9708 11.8459 59.522 12.2079Z" fill="#00FFF0"></path>
<path d="M56.2431 12.5888C56.088 12.675 56.088 12.7439 56.2086 12.7439C56.312 12.7439 56.5188 12.7956 56.6739 12.8473C56.829 12.899 56.9497 12.8818 56.9497 12.7784C56.9497 12.5199 56.5188 12.4165 56.2431 12.5888Z" fill="#00FFF0"></path>
<path d="M39.037 2.88505C38.7781 3.14362 37.8808 4.29855 37.0524 5.43624C35.3957 7.67714 33.7389 9.60775 33.5836 9.45261C33.3247 9.19405 32.5826 6.76353 32.2547 5.07425C32.0476 4.03998 31.8577 3.16086 31.8405 3.12638C31.7542 3.02296 29.5107 3.50561 29.5107 3.64351C29.5107 3.71246 29.7006 4.69501 29.9421 5.81546C30.4254 8.10807 31.0294 10.0042 31.5989 11.0213C31.9613 11.6763 32.7897 12.2279 33.3765 12.2279C33.946 12.2279 34.8779 11.7108 35.7063 10.9351L36.5691 10.1249L35.7407 12.09C35.2748 13.1588 34.5845 14.7274 34.1875 15.572C33.8079 16.4166 33.48 17.1234 33.48 17.1407C33.48 17.2958 35.62 18.0887 35.7235 17.9853C36.0341 17.6233 40.2795 7.67714 40.9698 5.64309C41.5049 4.05722 41.5393 3.45389 41.0561 2.85058C40.5556 2.21278 39.6583 2.23003 39.037 2.88505Z" fill="#00FFF0"></path>
<path d="M117.732 3.16185C115.298 3.95478 114.211 6.799 115.523 9.02267C116.092 10.0052 116.834 10.5051 118.733 11.1946C119.526 11.4877 120.441 11.8497 120.752 12.0048C121.753 12.4702 122.115 13.6252 121.58 14.6421C120.873 16.004 119.285 16.0383 116.455 14.7455L115.454 14.2974L114.919 15.3489C114.643 15.9349 114.418 16.4349 114.453 16.4521C114.487 16.4866 114.97 16.7451 115.54 17.0209C118.664 18.5723 121.649 18.4345 123.116 16.6934C124.514 15.0386 124.635 12.9873 123.427 11.1602C122.926 10.3845 122.081 9.83284 120.631 9.29848C118.387 8.50554 117.853 8.22974 117.611 7.72984C117.283 7.12653 117.283 6.81625 117.594 6.21293C117.87 5.6958 118.508 5.3338 119.164 5.3338C119.389 5.3338 120.182 5.52342 120.924 5.76474C121.667 5.98884 122.322 6.12673 122.374 6.05779C122.443 5.98884 122.65 5.48894 122.857 4.93733C123.133 4.19612 123.168 3.92032 122.995 3.8686C120.389 2.98948 118.888 2.79986 117.732 3.16185Z" fill="#00FFF0"></path>
<path d="M81.3703 3.24559C78.9197 3.8834 77.4873 6.58971 77.4873 10.5544C77.4873 12.0196 77.9705 14.4329 78.4364 15.3292C79.8516 18.0528 83.3894 18.7768 85.6847 16.8289C86.979 15.7429 87.7901 12.778 87.6003 9.72698C87.4105 6.43457 86.513 4.48671 84.7701 3.62483C83.9589 3.21113 82.2159 3.02151 81.3703 3.24559ZM83.9417 6.02087C84.9254 6.88276 85.1669 7.79634 85.1669 10.5889C85.1669 12.7091 85.1152 13.1055 84.7873 13.8123C84.2178 15.0534 83.6483 15.5016 82.6474 15.5016C81.957 15.5016 81.6981 15.3982 81.215 14.9845C80.2485 14.1398 79.9896 13.1917 79.9896 10.5889C79.9896 8.86509 80.0587 8.1411 80.3003 7.4516C80.9561 5.57268 82.6646 4.90041 83.9417 6.02087Z" fill="#00FFF0"></path>
<path d="M0 10.5035V17.7433H1.29433H2.58865V14.744V11.7446L4.62505 11.6757C6.83404 11.6067 7.31725 11.4516 8.28368 10.469C9.99219 8.76251 9.83687 5.88381 7.95579 4.26347C6.95484 3.41881 6.17824 3.26367 2.86477 3.26367H0V10.5035ZM6.48888 6.26303C6.93759 6.71122 7.07565 6.98701 7.07565 7.48691C7.07565 7.98681 6.93759 8.26261 6.48888 8.71079C5.90212 9.29687 5.90212 9.29687 4.24539 9.29687H2.58865V7.48691V5.67695H4.24539C5.90212 5.67695 5.90212 5.67695 6.48888 6.26303Z" fill="#00FFF0"></path>
<path d="M10.1816 10.5035V17.7433H13.8921H17.6024V16.5367V15.33H15.0137H12.4251V9.29687V3.26367H11.3034H10.1816V10.5035Z" fill="#00FFF0"></path>
<path d="M23.1598 3.72909C22.8836 4.50479 18.2586 17.2951 18.1723 17.5193C18.1033 17.6916 18.4139 17.7433 19.3804 17.7433H20.6747L21.2269 16.1919L21.7792 14.6406H24.7475H27.7159L27.9402 15.2783C28.0783 15.6403 28.3198 16.3471 28.5097 16.8297L28.8375 17.7433H30.1146H31.3744L30.7014 15.8471C30.0111 13.9338 29.2691 11.8825 27.9574 8.26261C27.5606 7.17663 26.991 5.60801 26.6976 4.76335L26.1627 3.26367H24.7475C23.3669 3.26367 23.3324 3.28092 23.1598 3.72909ZM25.99 9.96914C26.4042 11.1413 26.7494 12.1411 26.7494 12.1756C26.7494 12.1928 25.8347 12.2273 24.6957 12.2273H22.6593L23.4705 9.93466C23.9364 8.69355 24.4024 7.41797 24.5059 7.14215L24.713 6.62502L24.9719 7.22835C25.1272 7.55586 25.5758 8.79697 25.99 9.96914Z" fill="#00FFF0"></path>
<path d="M44.4386 3.55685C44.1625 4.26359 39.3477 17.5884 39.3477 17.6745C39.3477 17.709 39.9172 17.7435 40.6248 17.7435H41.9017L42.1262 17.0885C42.2297 16.7437 42.4713 16.037 42.6611 15.5371L42.989 14.6408H45.9574H48.9257L49.4606 16.1404L49.9957 17.6573L51.3244 17.709L52.6361 17.7607L52.2737 16.8471C52.0666 16.3473 51.6868 15.313 51.428 14.5545C51.1519 13.796 50.5824 12.2102 50.1682 11.0208C49.7368 9.83137 49.0638 8.00418 48.7014 6.96991C48.3216 5.91841 47.873 4.67729 47.6831 4.21187L47.3553 3.35L45.9574 3.29828C44.7493 3.2638 44.5422 3.29828 44.4386 3.55685ZM46.3542 7.6077C46.5095 8.1076 46.9411 9.33147 47.3207 10.314C47.6831 11.2966 47.9592 12.124 47.9248 12.1757C47.8902 12.2102 46.9583 12.2102 45.8711 12.1929L43.8691 12.1412L44.7148 9.81413C45.664 7.21123 45.8711 6.71135 45.9746 6.71135C46.0092 6.71135 46.1817 7.12505 46.3542 7.6077Z" fill="#00FFF0"></path>
<path d="M66.2695 10.5207V17.7606L70.0317 17.7089C73.2934 17.6572 73.8629 17.6227 74.3807 17.3297C75.9511 16.5023 76.6931 15.2956 76.6931 13.5201C76.6931 12.5031 76.6241 12.1756 76.2272 11.5033C75.9683 11.0551 75.5541 10.538 75.3126 10.3484C74.9156 10.0381 74.8984 9.96914 75.1227 9.60715C75.2608 9.38305 75.4679 8.81421 75.5887 8.33156C76.0546 6.26303 74.674 4.02214 72.5686 3.45329C72.1889 3.34986 70.6185 3.26367 69.0825 3.26367H66.2695V10.5207ZM72.1889 5.86656C73.2417 6.40094 73.5178 7.8489 72.7584 8.72803C72.3615 9.19344 72.2752 9.21068 70.5149 9.26239L68.6856 9.33134V7.50415V5.67695H70.2561C71.119 5.67695 71.9818 5.76313 72.1889 5.86656ZM73.4832 12.0549C74.536 12.7099 74.6395 14.0718 73.6731 14.8819C73.1726 15.3129 73.0518 15.3301 70.9119 15.3301H68.6856V13.5201V11.7101H70.8083C72.6031 11.7101 73 11.7619 73.4832 12.0549Z" fill="#00FFF0"></path>
<path d="M88.204 6.05583C88.4629 7.60723 88.7217 9.08967 88.7735 9.38271C88.8253 9.65852 89.1186 11.2961 89.3948 13.0026C89.6881 14.7092 89.9987 16.4674 90.1023 16.9156L90.2921 17.7431H91.9143C92.8118 17.7431 93.5366 17.7085 93.5366 17.674C93.5366 17.5189 96.3324 7.14181 96.3841 7.0901C96.4186 7.05562 96.4877 7.17629 96.5221 7.34866C96.8328 8.43464 98.8001 15.7606 99.0763 16.8466L99.3006 17.7603L100.94 17.7085L102.58 17.6568L102.787 16.4502C102.908 15.778 103.046 14.9677 103.115 14.6403C103.184 14.3127 103.529 12.2959 103.908 10.1584C104.271 8.02093 104.685 5.65936 104.84 4.90091C104.978 4.14245 105.099 3.47018 105.099 3.384C105.099 3.31504 104.564 3.26333 103.908 3.26333C102.977 3.26333 102.7 3.33229 102.614 3.53914C102.562 3.67703 102.234 5.45251 101.889 7.45209C101.544 9.4689 101.251 11.1754 101.233 11.2789C101.199 11.365 101.13 11.8305 101.044 12.3131C100.975 12.7785 100.871 13.2784 100.802 13.3818C100.733 13.5026 100.353 12.3476 99.9565 10.7962C99.5423 9.26205 98.9382 6.93496 98.593 5.6249L97.9718 3.24609L96.4014 3.29781L94.8482 3.34952L93.4503 8.5553C92.6909 11.4168 92.0524 13.7266 92.0179 13.6921C91.9834 13.6749 91.7072 12.1063 91.3794 10.2274C91.0687 8.33121 90.7581 6.52125 90.6891 6.19374C90.62 5.86621 90.482 5.09052 90.3611 4.46996L90.1714 3.34952L88.946 3.29781L87.7207 3.24609L88.204 6.05583Z" fill="#00FFF0"></path>
<path d="M105.962 10.5035V17.7433H109.759H113.555V16.5367V15.33H110.967H108.378V9.29687V3.26367H107.17H105.962V10.5035Z" fill="#00FFF0"></path>
</svg>