<svg width="212" height="48" viewBox="0 0 212 48" fill="none" xmlns="http://www.w3.org/2000/svg" xmlns:xlink="http://www.w3.org/1999/xlink">
<mask id="mask0_103_976" style="mask-type:luminance" maskUnits="userSpaceOnUse" x="0" y="0" width="48" height="48">
<path d="M24.0303 47.5132C37.1096 47.5132 47.7125 36.9258 47.7125 23.8655C47.7125 10.8052 37.1096 0.217773 24.0303 0.217773C10.951 0.217773 0.348083 10.8052 0.348083 23.8655C0.348083 36.9258 10.951 47.5132 24.0303 47.5132Z" fill="white"></path>
</mask>
<g mask="url(#mask0_103_976)">
<rect x="-15.0798" y="-15.188" width="78.2358" height="78.1219" fill="url(#pattern0)"></rect>
</g>
<path d="M60.3835 40.148C59.8793 40.148 59.4564 40.0586 59.1229 39.8719C58.7895 39.6851 58.5374 39.409 58.3666 39.0354C58.1958 38.6619 58.0982 38.1909 58.0657 37.6143L59.497 37.3707C59.5133 37.7036 59.5458 37.9878 59.6028 38.2071C59.6597 38.4345 59.7492 38.5969 59.863 38.7106C59.9769 38.8243 60.1233 38.8811 60.3022 38.8811C60.5136 38.8811 60.66 38.8162 60.7413 38.6781C60.8227 38.5401 60.8552 38.3939 60.8552 38.2152C60.8552 37.8741 60.7739 37.5899 60.6112 37.3544C60.4486 37.1189 60.229 36.8915 59.9606 36.656L59.1148 35.9252C58.8139 35.6734 58.5699 35.3811 58.3747 35.0644C58.1796 34.7395 58.0901 34.3497 58.0901 33.8787C58.0901 33.2047 58.2853 32.6931 58.6757 32.3358C59.066 31.9785 59.6109 31.7998 60.294 31.7998C60.7007 31.7998 61.0422 31.8648 61.3025 32.0028C61.5627 32.1409 61.766 32.3195 61.9124 32.5388C62.0588 32.7662 62.1564 33.0098 62.2133 33.2697C62.2703 33.5377 62.3028 33.7975 62.3191 34.0574L60.8959 34.2685C60.8796 34.0168 60.8633 33.8056 60.8308 33.6189C60.7983 33.4321 60.7413 33.2859 60.6519 33.1803C60.5624 33.0748 60.4242 33.0179 60.2452 33.0179C60.0501 33.0179 59.9037 33.091 59.8142 33.2372C59.7166 33.3834 59.676 33.5377 59.676 33.7163C59.676 34.0087 59.741 34.2442 59.8711 34.4228C60.0013 34.6015 60.1802 34.7964 60.4079 34.9994L61.2374 35.7221C61.579 36.0145 61.8718 36.3556 62.1157 36.7291C62.3597 37.1108 62.4817 37.5737 62.4817 38.134C62.4817 38.5157 62.3923 38.8649 62.2215 39.1735C62.0507 39.4821 61.8067 39.7257 61.4895 39.8962C61.1724 40.0586 60.8064 40.148 60.3835 40.148Z" fill="#0381A6"></path>
<path d="M65.6535 40.1475C65.0354 40.1475 64.5556 40.0419 64.214 39.8308C63.8725 39.6197 63.6285 39.3111 63.4902 38.9131C63.352 38.5152 63.2869 38.028 63.2869 37.4595V31.8887H64.9297V37.6869C64.9297 37.8899 64.946 38.0848 64.9785 38.2797C65.011 38.4746 65.0761 38.6289 65.1818 38.7507C65.2876 38.8725 65.4421 38.9294 65.6617 38.9294C65.8812 38.9294 66.0439 38.8725 66.1496 38.7507C66.2553 38.6289 66.3204 38.4746 66.3448 38.2797C66.3692 38.0848 66.3855 37.8899 66.3855 37.6869V31.8887H68.0282V37.4595C68.0282 38.028 67.9632 38.5152 67.8249 38.9131C67.6867 39.3111 67.4508 39.6197 67.1011 39.8308C66.7514 40.0419 66.2716 40.1475 65.6535 40.1475Z" fill="#0381A6"></path>
<path d="M69.1749 40.0338V31.8887H71.761C72.249 31.8887 72.6475 31.978 72.9565 32.1648C73.2656 32.3516 73.4933 32.6195 73.6478 32.9606C73.8023 33.3098 73.8755 33.7321 73.8755 34.2275C73.8755 34.8122 73.7779 35.2669 73.5746 35.5917C73.3794 35.9247 73.1029 36.1521 72.7614 36.2901C72.4198 36.4282 72.0294 36.4932 71.5821 36.4932H70.8258V40.0257H69.1749V40.0338ZM70.8339 35.34H71.4195C71.6635 35.34 71.8505 35.2994 71.9806 35.2263C72.1107 35.1532 72.2002 35.0233 72.249 34.8609C72.2978 34.6985 72.3222 34.4792 72.3222 34.2193C72.3222 33.9676 72.3059 33.7646 72.2653 33.594C72.2246 33.4235 72.1433 33.2936 72.0213 33.2042C71.8912 33.1068 71.696 33.0662 71.4195 33.0662H70.8421V35.34H70.8339Z" fill="#0381A6"></path>
<path d="M74.7296 40.0338V31.8887H78.2835V33.0337H76.3886V35.1938H77.8525V36.347H76.3886V38.905H78.2998V40.0338H74.7296Z" fill="#0381A6"></path>
<path d="M79.1454 40.0338V31.8887H81.2599C81.8129 31.8887 82.2846 31.9536 82.675 32.0754C83.0654 32.1973 83.3663 32.4165 83.5777 32.7332C83.7892 33.0499 83.8949 33.4803 83.8949 34.0407C83.8949 34.3736 83.8624 34.6741 83.8054 34.934C83.7485 35.1938 83.6509 35.4131 83.5045 35.608C83.3581 35.8029 83.1548 35.9491 82.8946 36.0628L84.025 40.0338H82.3253L81.3901 36.347H80.8045V40.0338H79.1454ZM80.8045 35.3644H81.2843C81.5527 35.3644 81.7642 35.3238 81.9187 35.2344C82.0732 35.1451 82.1789 35.0152 82.244 34.8365C82.309 34.6579 82.3416 34.4386 82.3416 34.1787C82.3416 33.8052 82.2765 33.5128 82.1383 33.3179C82 33.123 81.7398 33.0175 81.3657 33.0175H80.8045V35.3644Z" fill="#0381A6"></path>
<path d="M85.0172 40.0338V31.8887H88.4573V33.0175H86.6763V35.2182H88.189V36.3713H86.6763V40.0338H85.0172Z" fill="#0381A6"></path>
<path d="M91.5722 40.148C90.9785 40.148 90.4987 40.0424 90.1489 39.8231C89.7992 39.612 89.5471 39.3034 89.4007 38.9055C89.2462 38.5076 89.173 38.0284 89.173 37.4762V34.4391C89.173 33.8787 89.2462 33.4077 89.4007 33.0098C89.5553 32.6119 89.7992 32.3114 90.1489 32.1084C90.4987 31.9054 90.9703 31.7998 91.5722 31.7998C92.174 31.7998 92.6538 31.9054 93.0035 32.1165C93.3532 32.3277 93.6053 32.6281 93.7598 33.026C93.9144 33.4158 93.9875 33.895 93.9875 34.4472V37.4844C93.9875 38.0366 93.9144 38.5157 93.7598 38.9136C93.6053 39.3115 93.3532 39.6201 93.0035 39.8313C92.6538 40.0424 92.174 40.148 91.5722 40.148ZM91.5722 38.9542C91.7836 38.9542 91.9463 38.9055 92.0439 38.808C92.1414 38.7106 92.2146 38.5807 92.2472 38.4182C92.2797 38.2558 92.296 38.0772 92.296 37.8904V34.0411C92.296 33.8544 92.2797 33.6757 92.2472 33.5214C92.2146 33.359 92.1496 33.2291 92.0439 33.1316C91.9463 33.0342 91.7836 32.9854 91.5722 32.9854C91.3688 32.9854 91.2225 33.0342 91.1167 33.1316C91.0191 33.2291 90.9459 33.359 90.9134 33.5214C90.8809 33.6838 90.8646 33.8544 90.8646 34.0411V37.8904C90.8646 38.0772 90.8809 38.2558 90.9134 38.4182C90.9459 38.5807 91.011 38.7106 91.1086 38.808C91.2062 38.9055 91.3607 38.9542 91.5722 38.9542Z" fill="#0381A6"></path>
<path d="M97.3707 40.148C96.7771 40.148 96.2972 40.0424 95.9475 39.8231C95.5978 39.612 95.3457 39.3034 95.1993 38.9055C95.0448 38.5076 94.9716 38.0284 94.9716 37.4762V34.4391C94.9716 33.8787 95.0448 33.4077 95.1993 33.0098C95.3539 32.6119 95.5978 32.3114 95.9475 32.1084C96.2972 31.9054 96.7689 31.7998 97.3707 31.7998C97.9726 31.7998 98.4524 31.9054 98.8021 32.1165C99.1518 32.3277 99.4039 32.6281 99.5584 33.026C99.7129 33.4158 99.7861 33.895 99.7861 34.4472V37.4844C99.7861 38.0366 99.7129 38.5157 99.5584 38.9136C99.4039 39.3115 99.1518 39.6201 98.8021 39.8313C98.4524 40.0424 97.9726 40.148 97.3707 40.148ZM97.3707 38.9542C97.5822 38.9542 97.7448 38.9055 97.8424 38.808C97.94 38.7106 98.0132 38.5807 98.0457 38.4182C98.0783 38.2558 98.0945 38.0772 98.0945 37.8904V34.0411C98.0945 33.8544 98.0783 33.6757 98.0457 33.5214C98.0132 33.359 97.9482 33.2291 97.8424 33.1316C97.7448 33.0342 97.5822 32.9854 97.3707 32.9854C97.1674 32.9854 97.021 33.0342 96.9153 33.1316C96.8177 33.2291 96.7445 33.359 96.712 33.5214C96.6795 33.6838 96.6632 33.8544 96.6632 34.0411V37.8904C96.6632 38.0772 96.6795 38.2558 96.712 38.4182C96.7445 38.5807 96.8096 38.7106 96.9072 38.808C97.0048 38.9055 97.1593 38.9542 97.3707 38.9542Z" fill="#0381A6"></path>
<path d="M100.892 40.0338V31.8887H102.885C103.576 31.8887 104.113 31.978 104.503 32.1567C104.885 32.3353 105.162 32.6114 105.324 32.9931C105.487 33.3748 105.568 33.8539 105.568 34.4467V37.4108C105.568 38.0117 105.487 38.5071 105.324 38.8969C105.162 39.2867 104.893 39.5709 104.511 39.7577C104.129 39.9445 103.6 40.0338 102.925 40.0338H100.892ZM102.551 38.8807H102.901C103.21 38.8807 103.43 38.8319 103.56 38.7345C103.69 38.637 103.771 38.4909 103.804 38.3041C103.836 38.1092 103.852 37.8737 103.852 37.5976V34.2356C103.852 33.9513 103.828 33.7321 103.787 33.5534C103.747 33.3829 103.657 33.253 103.527 33.1799C103.397 33.0987 103.186 33.0581 102.885 33.0581H102.543V38.8807H102.551Z" fill="#0381A6"></path>
<path d="M109.179 40.0338V31.8887H111.245C111.603 31.8887 111.928 31.9212 112.229 31.978C112.53 32.0348 112.798 32.1485 113.026 32.3028C113.254 32.4571 113.433 32.6683 113.563 32.9444C113.685 33.2124 113.75 33.5697 113.75 34.0082C113.75 34.3411 113.701 34.6173 113.612 34.8446C113.522 35.072 113.384 35.2588 113.205 35.3887C113.034 35.5268 112.815 35.6161 112.562 35.6567C112.88 35.7054 113.14 35.811 113.359 35.9815C113.571 36.1521 113.734 36.3713 113.839 36.6474C113.945 36.9236 114.002 37.2565 114.002 37.6463C114.002 38.0523 113.953 38.4097 113.847 38.7101C113.742 39.0106 113.587 39.2623 113.392 39.4572C113.189 39.6521 112.945 39.7983 112.644 39.8958C112.343 39.9932 112.009 40.0419 111.619 40.0419H109.179V40.0338ZM110.838 35.1776H111.253C111.538 35.1776 111.757 35.137 111.904 35.0477C112.05 34.9664 112.156 34.8365 112.213 34.666C112.27 34.4954 112.302 34.2843 112.302 34.0407C112.302 33.7971 112.262 33.594 112.18 33.4397C112.099 33.2854 111.969 33.1799 111.798 33.1149C111.627 33.0499 111.408 33.0175 111.147 33.0175H110.846V35.1776H110.838ZM110.838 38.8725H111.302C111.717 38.8725 112.001 38.767 112.164 38.564C112.327 38.3609 112.4 38.0442 112.4 37.6301C112.4 37.3052 112.359 37.0535 112.286 36.8586C112.213 36.6637 112.091 36.5256 111.928 36.4363C111.765 36.347 111.546 36.2983 111.269 36.2983H110.838V38.8725Z" fill="#0381A6"></path>
<path d="M117.239 40.148C116.645 40.148 116.165 40.0424 115.816 39.8231C115.466 39.612 115.214 39.3034 115.067 38.9055C114.913 38.5076 114.84 38.0284 114.84 37.4762V34.4391C114.84 33.8787 114.913 33.4077 115.067 33.0098C115.222 32.6119 115.466 32.3114 115.816 32.1084C116.165 31.9054 116.637 31.7998 117.239 31.7998C117.841 31.7998 118.32 31.9054 118.67 32.1165C119.02 32.3277 119.272 32.6281 119.426 33.026C119.581 33.4158 119.654 33.895 119.654 34.4472V37.4844C119.654 38.0366 119.581 38.5157 119.426 38.9136C119.272 39.3115 119.02 39.6201 118.67 39.8313C118.32 40.0424 117.841 40.148 117.239 40.148ZM117.239 38.9542C117.45 38.9542 117.613 38.9055 117.71 38.808C117.808 38.7106 117.881 38.5807 117.914 38.4182C117.946 38.2558 117.963 38.0772 117.963 37.8904V34.0411C117.963 33.8544 117.946 33.6757 117.914 33.5214C117.881 33.359 117.816 33.2291 117.71 33.1316C117.613 33.0342 117.45 32.9854 117.239 32.9854C117.035 32.9854 116.889 33.0342 116.783 33.1316C116.686 33.2291 116.613 33.359 116.58 33.5214C116.547 33.6838 116.531 33.8544 116.531 34.0411V37.8904C116.531 38.0772 116.547 38.2558 116.58 38.4182C116.613 38.5807 116.678 38.7106 116.775 38.808C116.873 38.9055 117.027 38.9542 117.239 38.9542Z" fill="#0381A6"></path>
<path d="M121.492 40.0336L120.435 31.8885H121.842L122.403 36.8665L123.119 31.8966H124.233L124.981 36.8503L125.542 31.8804H126.933L125.884 40.0255H124.477L123.68 34.8688L122.923 40.0255H121.492V40.0336Z" fill="#0381A6"></path>
<path d="M127.852 40.0338V31.8887H129.511V38.905H131.422V40.0338H127.852Z" fill="#0381A6"></path>
<path d="M134.325 40.148C133.821 40.148 133.398 40.0586 133.065 39.8719C132.731 39.6851 132.479 39.409 132.308 39.0354C132.138 38.6619 132.04 38.1909 132.008 37.6143L133.439 37.3707C133.455 37.7036 133.488 37.9878 133.545 38.2071C133.602 38.4345 133.691 38.5969 133.805 38.7106C133.919 38.8243 134.065 38.8811 134.244 38.8811C134.455 38.8811 134.602 38.8162 134.683 38.6781C134.765 38.5401 134.797 38.3939 134.797 38.2152C134.797 37.8741 134.716 37.5899 134.553 37.3544C134.39 37.1189 134.171 36.8915 133.902 36.656L133.057 35.9252C132.756 35.6734 132.512 35.3811 132.317 35.0644C132.121 34.7395 132.032 34.3497 132.032 33.8787C132.032 33.2047 132.227 32.6931 132.618 32.3358C133.008 31.9785 133.553 31.7998 134.236 31.7998C134.643 31.7998 134.984 31.8648 135.244 32.0028C135.505 32.1409 135.708 32.3195 135.854 32.5388C136.001 32.7662 136.098 33.0098 136.155 33.2697C136.212 33.5377 136.245 33.7975 136.261 34.0574L134.838 34.2685C134.821 34.0168 134.805 33.8056 134.773 33.6189C134.74 33.4321 134.683 33.2859 134.594 33.1803C134.504 33.0748 134.366 33.0179 134.187 33.0179C133.992 33.0179 133.846 33.091 133.756 33.2372C133.658 33.3834 133.618 33.5377 133.618 33.7163C133.618 34.0087 133.683 34.2442 133.813 34.4228C133.943 34.6015 134.122 34.7964 134.35 34.9994L135.179 35.7221C135.521 36.0145 135.814 36.3556 136.058 36.7291C136.302 37.1108 136.424 37.5737 136.424 38.134C136.424 38.5157 136.334 38.8649 136.163 39.1735C135.993 39.4821 135.749 39.7257 135.431 39.8962C135.114 40.0586 134.748 40.148 134.325 40.148Z" fill="#0381A6"></path>
<path d="M146.963 40.0338L148.541 31.8887H150.387L151.957 40.0338H150.42L150.127 38.2472H148.842L148.533 40.0338H146.963ZM148.988 37.2321H149.964L149.468 33.9432L148.988 37.2321Z" fill="#0381A6"></path>
<path d="M155.047 40.1478C154.446 40.1478 153.966 40.0341 153.616 39.8067C153.266 39.5793 153.014 39.2626 152.876 38.8566C152.738 38.4505 152.665 37.9795 152.665 37.4436V34.5201C152.665 33.9598 152.738 33.4725 152.876 33.0665C153.014 32.6604 153.266 32.3437 153.616 32.1245C153.966 31.9052 154.446 31.7915 155.047 31.7915C155.633 31.7915 156.088 31.889 156.422 32.0839C156.755 32.2788 156.991 32.5549 157.129 32.904C157.268 33.2614 157.333 33.6755 157.333 34.1384V34.8206H155.722V34.0572C155.722 33.8704 155.714 33.6918 155.69 33.5294C155.674 33.3669 155.617 33.2289 155.527 33.1233C155.438 33.0177 155.283 32.969 155.056 32.969C154.828 32.969 154.673 33.0259 154.576 33.1314C154.478 33.237 154.413 33.3751 154.381 33.5456C154.356 33.7161 154.34 33.9029 154.34 34.114V37.8171C154.34 38.0445 154.356 38.2475 154.397 38.4181C154.429 38.5886 154.503 38.7185 154.608 38.8079C154.714 38.8972 154.86 38.9459 155.056 38.9459C155.267 38.9459 155.422 38.8972 155.511 38.7916C155.6 38.686 155.657 38.548 155.682 38.3775C155.706 38.2069 155.714 38.0201 155.714 37.8252V37.0294H157.325V37.7034C157.325 38.1826 157.26 38.5967 157.121 38.9622C156.983 39.3276 156.755 39.6199 156.43 39.8311C156.105 40.0422 155.641 40.1478 155.047 40.1478ZM155.145 42.7302C155.015 42.7302 154.893 42.7221 154.763 42.6977C154.633 42.6734 154.511 42.649 154.389 42.6084V41.9425C154.47 41.9587 154.559 41.9831 154.657 41.9993C154.755 42.0156 154.852 42.0237 154.958 42.0237C155.129 42.0237 155.283 41.9912 155.397 41.9344C155.511 41.8775 155.576 41.7882 155.576 41.6583C155.576 41.5283 155.527 41.4309 155.438 41.3578C155.348 41.2847 155.234 41.2278 155.096 41.1954C154.958 41.1629 154.812 41.1385 154.657 41.1223V40.026H155.243V40.6675C155.649 40.6675 155.966 40.7487 156.21 40.9193C156.454 41.0898 156.576 41.3415 156.576 41.6745C156.576 41.9262 156.511 42.1211 156.381 42.2754C156.251 42.4297 156.072 42.5434 155.861 42.6165C155.641 42.6977 155.405 42.7302 155.145 42.7302Z" fill="#0381A6"></path>
<path d="M157.951 40.0338L159.528 31.8887H161.374L162.944 40.0338H161.407L161.114 38.2472H159.829L159.52 40.0338H157.951ZM159.967 37.2321H160.943L160.447 33.9432L159.967 37.2321Z" fill="#0381A6"></path>
<path d="M163.79 40.034V31.8889H165.441V40.034H163.79ZM164.123 31.2798L164.749 29.2659H166.287L165.05 31.2798H164.123Z" fill="#0381A6"></path>
<path d="M168.8 40.0338L170.385 31.8887H172.232L173.801 40.0338H172.264L171.971 38.2472H170.686L170.377 40.0338H168.8ZM170.825 37.2321H171.801L171.304 33.9432L170.825 37.2321Z" fill="#0381A6"></path>
<path d="M174.623 40.0338V31.8887H175.777L177.591 36.1277V31.8887H178.957V40.0338H177.851L176.038 35.5268V40.0338H174.623Z" fill="#0381A6"></path>
<path d="M180.202 40.0338V31.8887H182.194C182.885 31.8887 183.422 31.978 183.812 32.1567C184.195 32.3353 184.471 32.6114 184.634 32.9931C184.796 33.3748 184.878 33.8539 184.878 34.4467V37.4108C184.878 38.0117 184.796 38.5071 184.634 38.8969C184.471 39.2867 184.203 39.5709 183.821 39.7577C183.438 39.9445 182.91 40.0338 182.235 40.0338H180.202ZM181.861 38.8807H182.21C182.519 38.8807 182.739 38.8319 182.869 38.7345C182.999 38.637 183.08 38.4909 183.113 38.3041C183.146 38.1092 183.162 37.8737 183.162 37.5976V34.2356C183.162 33.9513 183.137 33.7321 183.097 33.5534C183.056 33.3829 182.967 33.253 182.837 33.1799C182.706 33.0987 182.495 33.0581 182.194 33.0581H181.852V38.8807H181.861Z" fill="#0381A6"></path>
<path d="M188.456 40.0338L188.603 31.8887H190.367L191.376 37.0291L192.449 31.8887H194.149L194.287 40.0338H193.076L192.945 34.5117L191.913 40.0338H190.872L189.782 34.4711L189.668 40.0338H188.456Z" fill="#0381A6"></path>
<path d="M197.76 40.148C197.166 40.148 196.686 40.0424 196.337 39.8231C195.987 39.612 195.735 39.3034 195.588 38.9055C195.434 38.5076 195.361 38.0284 195.361 37.4762V34.4391C195.361 33.8787 195.434 33.4077 195.588 33.0098C195.743 32.6119 195.987 32.3114 196.337 32.1084C196.686 31.9054 197.158 31.7998 197.76 31.7998C198.362 31.7998 198.841 31.9054 199.191 32.1165C199.541 32.3277 199.793 32.6281 199.948 33.026C200.102 33.4158 200.175 33.895 200.175 34.4472V37.4844C200.175 38.0366 200.102 38.5157 199.948 38.9136C199.793 39.3115 199.541 39.6201 199.191 39.8313C198.841 40.0424 198.37 40.148 197.76 40.148ZM197.76 38.9542C197.971 38.9542 198.134 38.9055 198.232 38.808C198.329 38.7106 198.402 38.5807 198.435 38.4182C198.467 38.2558 198.484 38.0772 198.484 37.8904V34.0411C198.484 33.8544 198.467 33.6757 198.435 33.5214C198.402 33.359 198.337 33.2291 198.232 33.1316C198.134 33.0342 197.971 32.9854 197.76 32.9854C197.557 32.9854 197.41 33.0342 197.304 33.1316C197.207 33.2291 197.134 33.359 197.101 33.5214C197.069 33.6838 197.052 33.8544 197.052 34.0411V37.8904C197.052 38.0772 197.069 38.2558 197.101 38.4182C197.134 38.5807 197.199 38.7106 197.296 38.808C197.402 38.9055 197.557 38.9542 197.76 38.9542Z" fill="#0381A6"></path>
<path d="M201.289 40.0338V31.8887H203.404C203.957 31.8887 204.429 31.9536 204.819 32.0754C205.209 32.1973 205.51 32.4165 205.722 32.7332C205.933 33.0499 206.039 33.4803 206.039 34.0407C206.039 34.3736 206.006 34.6741 205.949 34.934C205.892 35.1938 205.795 35.4131 205.649 35.608C205.502 35.8029 205.299 35.9491 205.039 36.0628L206.169 40.0338H204.469L203.534 36.347H202.948V40.0338H201.289ZM202.948 35.3644H203.428C203.697 35.3644 203.908 35.3238 204.063 35.2344C204.217 35.1451 204.323 35.0152 204.388 34.8365C204.453 34.6579 204.486 34.4386 204.486 34.1787C204.486 33.8052 204.42 33.5128 204.282 33.3179C204.144 33.123 203.884 33.0175 203.51 33.0175H202.948V35.3644Z" fill="#0381A6"></path>
<path d="M207.153 40.0338V31.8887H210.707V33.0337H208.812V35.1938H210.276V36.347H208.812V38.905H210.723V40.0338H207.153Z" fill="#0381A6"></path>
<path d="M142.832 31.7017V40.0742" stroke="#0381A6" stroke-miterlimit="10"></path>
<path d="M191.766 9.04557C191.14 14.389 190.505 19.6919 189.838 25.0273C188.814 25.0273 187.83 25.0273 186.772 25.0273C186.276 21.9495 185.943 18.8474 185.341 15.7777C184.926 18.8555 184.512 21.9251 184.097 25.0354C183.056 25.0354 182.064 25.0354 180.998 25.0354C180.722 23.2894 180.559 21.5191 180.323 19.765C180.079 17.9865 179.9 16.1919 179.689 14.4134C179.478 12.6431 179.209 10.889 179.071 9.12678C179.421 8.99684 181.413 8.96436 182.031 9.07805C182.332 12.0178 182.641 14.99 182.95 17.9541C183.178 17.41 183.194 16.8172 183.292 16.2487C183.381 15.664 183.446 15.0793 183.519 14.4946C183.593 13.8937 183.666 13.2927 183.739 12.6999C183.812 12.1152 183.877 11.5305 183.959 10.9458C184.04 10.353 184.146 9.7602 184.243 9.12678C185.008 9.12678 185.748 9.12678 186.569 9.12678C186.976 12.0665 187.382 14.99 187.789 17.9135C187.822 17.9135 187.854 17.9135 187.887 17.9135C188.204 14.9737 188.513 12.0259 188.83 9.05369C189.806 9.04557 190.749 9.04557 191.766 9.04557Z" fill="#0381A6"></path>
<path d="M155.072 25.0273C155.072 19.692 155.072 14.381 155.072 9.04565C155.242 9.02941 155.381 9.01316 155.519 9.01316C156.763 9.01316 158.007 8.9888 159.252 9.02129C160.106 9.03753 160.951 9.13498 161.773 9.3786C163.074 9.7684 163.928 10.5805 164.196 11.9285C164.359 12.7731 164.392 13.6095 164.18 14.4541C163.952 15.3636 163.407 15.9808 162.521 16.2975C162.415 16.3381 162.318 16.3868 162.155 16.4599C162.293 16.5168 162.366 16.5655 162.44 16.5817C163.367 16.7848 164.009 17.3451 164.408 18.1896C164.717 18.8231 164.823 19.4971 164.839 20.1955C164.855 21.2512 164.676 22.25 164.156 23.1839C163.879 23.6793 163.489 24.0447 163.017 24.3371C162.261 24.8162 161.423 25.0273 160.545 25.0436C158.813 25.0761 157.072 25.0598 155.34 25.0598C155.267 25.0679 155.194 25.0436 155.072 25.0273ZM158.609 22.5424C159.097 22.5424 159.536 22.583 159.976 22.5343C160.651 22.4612 161.073 22.047 161.244 21.4055C161.464 20.6015 161.448 19.7813 161.244 18.9774C161.13 18.547 160.87 18.2059 160.447 18.0029C159.862 17.7186 159.244 17.8161 158.601 17.8323C158.609 19.4159 158.609 20.9507 158.609 22.5424ZM158.609 11.4656C158.609 12.7974 158.609 14.0887 158.609 15.3961C159.081 15.3961 159.528 15.4286 159.967 15.388C160.561 15.3311 160.992 14.9576 161.098 14.3566C161.179 13.8694 161.22 13.3497 161.163 12.8543C161.106 12.3021 160.789 11.8554 160.26 11.6199C159.748 11.3926 159.203 11.3682 158.609 11.4656Z" fill="#0381A6"></path>
<path d="M176.826 17.0767C176.826 18.1812 176.842 19.2937 176.818 20.3981C176.802 21.2183 176.68 22.0304 176.387 22.81C175.923 24.0525 175.005 24.8158 173.728 25.1163C172.573 25.3843 171.402 25.3924 170.247 25.1163C168.783 24.7671 167.84 23.8495 167.466 22.3959C167.279 21.6893 167.157 20.9747 167.165 20.2276C167.189 17.9863 167.132 15.7368 167.173 13.4955C167.189 12.5047 167.376 11.514 167.913 10.6451C168.531 9.65435 169.466 9.1265 170.597 8.93972C171.589 8.77731 172.581 8.77731 173.565 8.99657C175.118 9.33764 176.151 10.2472 176.525 11.7982C176.696 12.5047 176.769 13.2437 176.802 13.9746C176.859 14.9978 176.826 16.0373 176.826 17.0767ZM173.191 17.0849C173.191 15.7774 173.199 14.4619 173.183 13.1544C173.183 12.8296 173.142 12.4885 173.077 12.1718C172.955 11.6196 172.597 11.3516 172.02 11.3354C171.434 11.3191 171.076 11.5546 170.93 12.1231C170.832 12.521 170.759 12.9433 170.751 13.3574C170.735 15.8343 170.743 18.3111 170.751 20.7879C170.751 21.1128 170.8 21.4457 170.865 21.7706C171.02 22.5664 171.207 22.7207 172.02 22.7694C172.532 22.8019 172.898 22.5826 173.028 22.0873C173.118 21.7462 173.175 21.3808 173.183 21.0234C173.207 19.7079 173.191 18.4004 173.191 17.0849Z" fill="#0381A6"></path>
<path d="M64.3598 9.04542C65.3438 9.04542 66.2628 9.04542 67.1655 9.04542C67.2875 9.41898 67.3038 24.5724 67.1818 25.0271C66.4255 25.0271 65.6529 25.0271 64.8315 25.0271C63.7742 22.3635 62.717 19.6999 61.6516 17.0363C61.6109 17.0444 61.5784 17.0444 61.5378 17.0525C61.5378 19.6999 61.5378 22.3473 61.5378 25.0352C60.4805 25.0352 59.4883 25.0352 58.5043 25.0352C58.3986 24.7266 58.3579 9.75193 58.4636 9.08603C58.5043 9.06979 58.5531 9.02106 58.61 9.02106C59.3175 9.01294 60.0251 9.01294 60.7326 9.01294C60.9603 9.01294 61.0498 9.15911 61.1311 9.34589C61.5703 10.3935 62.0257 11.4411 62.4649 12.4886C62.9854 13.723 63.514 14.9574 64.0345 16.1836C64.0833 16.2973 64.1483 16.411 64.2866 16.5247C64.2947 16.3785 64.311 16.2323 64.311 16.0861C64.311 13.9423 64.311 11.7902 64.311 9.64636C64.3191 9.45958 64.3435 9.28093 64.3598 9.04542Z" fill="#0381A6"></path>
<path d="M81.707 9.03742C82.8781 9.03742 83.9841 9.03742 85.1308 9.03742C85.1471 9.24856 85.1634 9.42722 85.1634 9.60587C85.1634 13.2927 85.1634 16.9795 85.1715 20.6664C85.1715 21.0643 85.2122 21.4703 85.3098 21.8601C85.4805 22.5991 86.245 22.9402 86.9363 22.6397C87.3185 22.4692 87.5056 22.1525 87.5625 21.7627C87.6194 21.381 87.6601 20.9912 87.6601 20.6014C87.6682 16.9389 87.6682 13.2846 87.6682 9.62211C87.6682 9.43534 87.6682 9.25668 87.6682 9.0293C88.8637 9.0293 89.9941 9.0293 91.1734 9.0293C91.1896 9.19983 91.2222 9.34601 91.2222 9.5003C91.2222 13.0897 91.2384 16.671 91.214 20.2603C91.2059 21.2754 91.027 22.2662 90.6285 23.2082C90.2625 24.0609 89.62 24.6537 88.7417 24.9379C87.2616 25.417 85.7489 25.4333 84.2606 24.9866C82.9432 24.5968 82.2031 23.6386 81.9022 22.3474C81.7721 21.7789 81.6989 21.178 81.6907 20.5933C81.6745 16.8902 81.6826 13.1871 81.6826 9.48406C81.6826 9.37037 81.6989 9.23232 81.707 9.03742Z" fill="#0381A6"></path>
<path d="M125.875 14.8273C124.704 14.8273 123.598 14.8273 122.46 14.8273C122.443 14.6486 122.419 14.4943 122.419 14.34C122.411 13.804 122.411 13.2762 122.411 12.7402C122.411 12.6428 122.411 12.5372 122.403 12.4398C122.305 11.514 121.768 11.181 120.857 11.4003C120.329 11.5302 120.166 11.985 120.093 12.4479C120.028 12.8458 120.004 13.2518 120.004 13.6497C119.995 15.9804 119.995 18.3192 120.004 20.6499C120.004 21.0803 120.077 21.5107 120.158 21.9329C120.329 22.8506 121.394 22.9399 121.915 22.6151C122.102 22.5014 122.256 22.2415 122.305 22.0304C122.395 21.6244 122.411 21.2021 122.419 20.7879C122.435 20.2763 122.427 19.7566 122.427 19.2693C122.826 19.0907 125.412 19.0744 125.818 19.2206C125.827 19.2287 125.843 19.245 125.843 19.2531C125.957 20.7879 125.981 22.3065 125.127 23.687C124.753 24.288 124.216 24.7021 123.574 24.9458C122.671 25.2868 121.728 25.3843 120.76 25.2868C120.402 25.2462 120.036 25.23 119.686 25.1569C118.572 24.9214 117.67 24.3529 117.141 23.3297C116.864 22.7937 116.637 22.2334 116.588 21.6162C116.555 21.2021 116.45 20.7879 116.45 20.3738C116.433 18.1974 116.433 16.021 116.45 13.8528C116.458 12.927 116.629 12.0256 116.986 11.1567C117.466 9.9954 118.369 9.32949 119.548 9.03715C120.695 8.75292 121.874 8.75292 123.029 9.03715C124.176 9.32137 125.046 9.97916 125.501 11.1242C125.786 11.8469 125.9 12.5859 125.892 13.3574C125.867 13.8284 125.875 14.3157 125.875 14.8273Z" fill="#0381A6"></path>
<path d="M137.798 25.0273C136.692 25.0273 135.667 25.0273 134.561 25.0273C134.374 23.9473 134.187 22.8591 133.992 21.7384C133.227 21.7384 132.463 21.7384 131.633 21.7384C131.454 22.8185 131.275 23.9148 131.088 25.0355C129.974 25.0355 128.917 25.0355 127.819 25.0355C127.819 24.8731 127.795 24.735 127.819 24.5969C128.104 23.0865 128.405 21.576 128.689 20.0656C129.096 17.8892 129.494 15.7128 129.893 13.5364C130.145 12.164 130.413 10.7997 130.682 9.42733C130.706 9.30552 130.763 9.18371 130.812 9.04565C132.121 9.04565 133.422 9.04565 134.789 9.04565C135.805 14.3485 136.806 19.6595 137.798 25.0273ZM131.991 19.5945C132.593 19.6108 133.113 19.6514 133.658 19.5621C133.39 17.5806 133.13 15.6722 132.878 13.7557C132.845 13.7557 132.804 13.7557 132.772 13.7557C132.463 15.6722 132.194 17.5968 131.991 19.5945Z" fill="#0381A6"></path>
<path d="M75.8353 21.7303C75.0384 21.7303 74.282 21.7303 73.4769 21.7303C73.2817 22.8347 73.0865 23.9148 72.8832 25.0274C71.7853 25.0274 70.7118 25.0274 69.5651 25.0274C70.5735 19.692 71.582 14.381 72.5986 9.04565C73.9486 9.04565 75.2417 9.04565 76.5348 9.04565C76.7218 9.37049 79.6089 24.6132 79.552 25.0274C78.511 25.0274 77.47 25.0274 76.3802 25.0274C76.1932 23.931 76.0143 22.8429 75.8353 21.7303ZM74.6317 13.6339C74.3633 15.6072 74.0055 17.5644 73.7859 19.5783C74.3796 19.627 74.892 19.6433 75.4694 19.5702C75.2823 17.54 74.892 15.5991 74.6317 13.6339Z" fill="#0381A6"></path>
<path d="M203.07 20.2442C204.079 20.0818 205.022 19.9275 206.022 19.7732C206.079 20.1874 206.104 20.5447 206.177 20.8858C206.25 21.235 206.323 21.5923 206.47 21.9171C206.771 22.5992 207.258 22.6561 207.868 22.5262C208.039 22.4937 208.226 22.2663 208.291 22.0876C208.552 21.3162 208.413 20.5772 207.999 19.895C207.527 19.1154 206.827 18.5551 206.152 17.9704C205.242 17.1908 204.29 16.4437 203.696 15.388C203.485 15.0063 203.298 14.584 203.208 14.1536C203.046 13.3172 203.03 12.4564 203.257 11.6281C203.623 10.2881 204.55 9.47607 205.852 9.07815C206.909 8.75332 207.99 8.71271 209.056 9.0213C209.763 9.22432 210.365 9.6466 210.772 10.2719C211.365 11.1977 211.496 12.2534 211.585 13.3578C210.56 13.4877 209.576 13.6095 208.568 13.7395C208.519 13.301 208.487 12.903 208.43 12.5051C208.405 12.3102 208.348 12.1072 208.283 11.9204C208.145 11.5712 207.86 11.4169 207.502 11.4169C207.137 11.4169 206.852 11.5712 206.714 11.9123C206.396 12.7081 206.478 13.4634 206.99 14.1536C207.551 14.917 208.308 15.4773 209.007 16.1026C209.861 16.8741 210.739 17.6293 211.292 18.6688C212.179 20.3498 212.211 22.4531 210.886 23.996C210.227 24.7594 209.332 25.1573 208.299 25.2547C207.511 25.3278 206.746 25.2629 205.982 25.068C204.973 24.8081 204.249 24.2153 203.753 23.2895C203.225 22.3556 203.127 21.3486 203.07 20.2442Z" fill="#0381A6"></path>
<path d="M99.1434 25.0349C97.9317 25.0349 96.7931 25.0349 95.5813 25.0349C95.5732 20.5928 95.5813 16.1751 95.5813 11.6924C94.7681 11.6924 93.9955 11.6924 93.1903 11.6924C93.1903 10.7748 93.1903 9.93836 93.1903 9.10192C93.4994 8.99635 100.794 8.95575 101.494 9.06944C101.616 9.914 101.567 10.7667 101.526 11.6843C100.713 11.6843 99.9729 11.6843 99.1515 11.6843C99.1515 13.95 99.1515 16.167 99.1515 18.3758C99.1434 20.5766 99.1434 22.7773 99.1434 25.0349Z" fill="#0381A6"></path>
<path d="M114.791 20.8041C114.53 20.7472 114.384 20.7147 114.197 20.6741C114.026 20.9584 113.847 21.2345 113.685 21.5187C112.814 23.0454 111.562 24.1661 109.935 24.8401C109.472 25.035 108.959 25.0918 108.415 25.2299C108.317 25.441 108.203 25.7009 108.049 26.0339C107.886 25.7171 107.756 25.4654 107.618 25.1974C104.674 24.702 102.949 22.8018 101.827 20.1869C101.721 20.2031 101.632 20.2194 101.534 20.2356C101.453 20.2519 101.372 20.26 101.209 20.2843C101.331 19.2774 101.73 18.3841 101.965 17.3365C102.632 18.0917 103.145 18.8551 103.73 19.6103C103.543 19.6996 103.397 19.7727 103.25 19.8458C103.787 21.3806 105.43 22.5663 107.382 22.5988C107.382 19.8215 107.382 17.036 107.382 14.1938C106.723 14.2506 106.064 14.0232 105.438 14.3643C105.21 14.4861 104.991 14.4617 104.787 14.3156C104.487 14.0963 104.405 13.7796 104.446 13.4385C104.487 13.0812 104.69 12.8051 105.031 12.7077C105.17 12.6671 105.349 12.7726 105.511 12.8132C105.682 12.8619 105.853 12.9594 106.032 12.9675C106.487 12.9919 106.951 12.9756 107.455 12.9756C107.455 12.6589 107.479 12.4153 107.447 12.1798C107.431 12.058 107.309 11.9199 107.195 11.8631C105.861 11.2053 105.332 8.67163 107.089 7.3723C107.658 6.95002 108.284 6.91754 108.919 7.29109C109.756 7.78646 110.269 8.88277 110.131 9.88162C110.017 10.6693 109.732 11.3434 109.041 11.8062C108.707 12.0336 108.691 12.3747 108.919 12.9432C109.496 12.9269 110.09 13.1137 110.667 12.8051C110.984 12.6346 111.253 12.732 111.472 13.0081C111.749 13.3654 111.692 14.0557 111.35 14.3074C111.123 14.478 110.854 14.5186 110.619 14.3805C110.057 14.0557 109.472 14.2262 108.837 14.21C108.813 14.4536 108.781 14.6648 108.781 14.8759C108.772 16.8086 108.764 18.7333 108.756 20.666C108.756 21.1533 108.715 21.6405 108.707 22.1359C108.707 22.2902 108.732 22.4445 108.748 22.5906C110.399 22.7531 112.335 21.5025 112.757 20.2031C112.644 20.1219 112.513 20.0245 112.335 19.8945C112.936 19.2124 113.53 18.5465 114.181 17.8075C114.408 18.3354 114.408 18.8388 114.506 19.3098C114.604 19.7809 114.685 20.2519 114.791 20.8041ZM109.138 9.56491C109.13 9.45934 109.13 9.34565 109.106 9.23196C108.968 8.51733 108.171 8.03009 107.528 8.48485C106.812 8.98834 106.804 10.1821 107.512 10.6856C107.837 10.9211 108.195 10.9373 108.561 10.7099C109.008 10.4501 109.122 10.0359 109.138 9.56491Z" fill="#0381A6"></path>
<path d="M143.531 22.6642C144.759 22.6642 145.947 22.6642 147.175 22.6642C147.175 23.4925 147.175 24.2396 147.175 25.0274C144.792 25.0274 142.425 25.0274 140.01 25.0274C139.985 24.8731 139.953 24.7188 139.953 24.5726C139.953 19.5621 139.953 14.5434 139.953 9.5329C139.953 9.37861 139.994 9.22431 140.018 9.04565C141.173 9.04565 142.287 9.04565 143.458 9.04565C143.474 9.24867 143.499 9.44357 143.499 9.63847C143.499 13.7557 143.499 17.8811 143.499 21.9983C143.499 22.2013 143.515 22.3962 143.531 22.6642Z" fill="#0381A6"></path>
<path d="M194.173 25.0355C194.059 24.5401 194.084 9.41109 194.198 9.04565C195.32 9.04565 196.45 9.04565 197.654 9.04565C197.654 11.3276 197.654 13.5852 197.654 15.8346C197.654 18.076 197.654 20.3254 197.654 22.6398C198.28 22.6804 198.866 22.6561 199.451 22.6642C200.045 22.6723 200.63 22.6642 201.2 22.6642C201.346 23.0296 201.354 24.5888 201.232 25.0355C198.89 25.0355 196.54 25.0355 194.173 25.0355Z" fill="#0381A6"></path>
<defs>
<pattern id="pattern0" patternContentUnits="objectBoundingBox" width="1" height="1">
<use xlink:href="#image0_103_976" transform="scale(0.0020202 0.002)"></use>
</pattern>
<image id="image0_103_976" width="495" height="500"></image>
</defs>
</svg>