<svg width="78" height="37" viewBox="0 0 78 37" fill="none" xmlns="http://www.w3.org/2000/svg">
<path d="M38.8068 15.9857H31.0455L38.8483 10.9978L38.8068 15.9857ZM71.6785 21.3005C71.554 18.2752 69.8108 15.9039 66.5319 15.9039H54.2881V11.9381H71.637V5.84642H47.8548V15.9857H45.1155V5.84642H37.2296L20.6278 15.9857H12.2024V11.9381H22.122L32.3321 5.84642H5.93516V29.9271H12.2439V22.0773H21.0013H38.8483V31.2353H45.24V22.0773H65.3698V24.6939H47.9378V31.2353H66.5319C69.8938 31.2353 71.6785 28.7005 71.6785 25.5933V21.3005ZM77.6137 0H0V35.6917H18.1375V27.842H32.9132V37H66.5319C72.9236 37 77.5721 32.1757 77.5721 25.5525V0H77.6137ZM74.3763 3.18896V14.5138H70.9314C72.9236 15.863 74.2103 18.1934 74.3348 21.137V21.1779V25.5525C74.3348 30.4177 71.1389 33.811 66.5319 33.811H36.192V24.653H14.9002V32.5028H3.23736V3.18896H74.3763Z" fill="black"></path>
</svg>