<svg width="55" height="82" viewBox="0 0 55 82" fill="none" xmlns="http://www.w3.org/2000/svg">
<path d="M19.1697 0.514526C18.8074 1.06863 20.0151 2.92886 21.5045 4.11623C22.7121 5.02653 22.7523 5.3036 21.7058 5.22443C21.2629 5.18486 20.9006 4.98696 20.9006 4.74949C20.9006 4.55158 20.6992 4.63075 20.4981 4.94739C20.176 5.46191 20.0954 5.42234 20.0954 4.82865C20.0954 4.47244 19.8943 4.1558 19.6528 4.1558C19.4112 4.1558 19.2905 4.51201 19.4112 4.94739C19.532 5.38274 19.4514 5.73895 19.25 5.73895C19.0489 5.73895 18.8877 5.3036 18.8877 4.74949C18.8877 3.99749 18.6866 3.76002 18.0423 3.76002C17.3582 3.76002 17.2374 3.95789 17.3177 5.14527C17.4385 6.2139 17.2374 6.68885 16.553 7.1638C15.6674 7.75748 15.6674 7.75748 15.6674 5.58064C15.6674 4.39327 15.5062 3.28507 15.2647 3.16633C15.0233 3.008 14.8622 3.91833 14.8622 5.65981C14.8622 7.63874 14.7012 8.54907 14.2584 8.90528C13.7351 9.34066 13.6546 9.02402 13.6546 6.37223C13.6546 4.63075 13.4935 3.36421 13.252 3.36421C12.7287 3.36421 12.7287 9.69688 13.252 10.4884C13.5741 11.003 13.6546 10.9634 13.6546 10.3301C13.6546 9.85518 13.8558 9.69687 14.2584 9.85518C14.5805 9.97392 14.8622 9.85518 14.8622 9.57814C14.8622 8.90528 17.3582 7.32213 18.3645 7.32213C18.8074 7.32213 19.6123 7.67834 20.1358 8.15329L21.102 8.94485L20.0151 8.78655C19.4112 8.70738 18.8074 8.82611 18.6866 9.06359C18.5659 9.38023 18.4046 9.34066 18.2437 8.98445C17.8814 8.23243 17.2776 8.43033 17.2776 9.34066C17.2776 9.77601 16.8751 10.7259 16.392 11.3988C15.6674 12.3487 15.4259 13.4173 15.2245 15.8316C15.1038 17.5731 14.8622 19.3541 14.7012 19.7895C14.4194 20.4623 14.4999 20.4623 15.2245 19.6312C15.7477 19.0771 16.0699 18.1668 16.0699 17.2564C16.0699 15.6733 16.7945 14.011 17.5593 13.7339C17.962 13.6152 18.0022 14.0505 17.8413 15.3963C17.5593 17.2564 18.2839 21.7685 18.9683 22.6392C19.2099 22.9163 19.2905 23.8662 19.1697 24.7369C19.0085 26.1617 18.606 26.7158 15.909 29.1698C14.2182 30.7134 12.4469 32.6527 12.0041 33.5233C10.7159 36.0168 7.65643 43.6952 7.37461 45.1993C7.2136 46.1492 6.44875 47.1781 4.95925 48.5635C0.732369 52.4818 -0.998631 56.6771 0.571354 59.0518C0.973905 59.6853 1.5375 60.3184 1.85956 60.4767C2.22186 60.7141 2.42312 61.862 2.4634 64.4348L2.54389 68.0758L2.78543 64.5137L3.02696 60.9516L3.18801 64.5137L3.34902 68.0758L3.46979 64.8304L3.6308 61.5453H5.20079H6.81105V63.6036C6.81105 64.7117 6.93182 65.5034 7.09283 65.3449C7.25385 65.2261 7.33437 64.1973 7.25385 63.1286C7.17335 61.5851 7.29412 61.1496 7.77719 61.1496C8.21999 61.1496 8.42128 61.664 8.54205 63.0099L8.66282 64.9097L8.82383 62.7327L8.9446 60.5559L9.18614 62.2577C9.42767 63.9993 9.42767 63.9993 10.273 63.2474C10.9172 62.7327 11.0782 62.2182 10.9574 61.3476C10.7964 60.279 10.9977 60.0017 12.4469 59.0518C13.3728 58.4581 14.2584 57.9832 14.3792 57.9832C14.5402 57.9832 14.9025 57.627 15.1844 57.152C15.8685 56.0834 16.2713 56.4396 15.6674 57.5875C15.1439 58.5374 15.5062 59.9622 16.2713 59.9622C16.553 59.9622 17.4789 58.9331 18.2839 57.7062C19.1292 56.4396 19.6929 55.8064 19.5722 56.2814C19.4514 56.8356 19.6929 57.5875 20.2162 58.2604C20.9006 59.0916 20.9408 59.2893 20.4175 59.0518C20.0552 58.9331 19.6929 58.9331 19.6123 59.0916C19.532 59.2498 18.4451 60.0017 17.1568 60.7539C14.3792 62.3764 12.4469 64.3555 10.5951 67.4032C8.78358 70.2923 8.82383 71.2028 10.8366 73.0628L12.4469 74.5669L12.5274 78.2477L12.6079 81.9286L12.8092 78.2083L13.0507 74.4876L14.3792 74.3689L15.6674 74.2107L15.7477 78.0895L15.8283 81.9286L15.9491 78.1685C16.11 74.6856 16.3516 73.8545 17.3983 73.815C17.5593 73.815 17.68 74.1712 17.68 74.6064C17.68 75.1211 17.9216 75.398 18.4046 75.3586C18.8074 75.3586 18.8877 75.2398 18.606 75.1211C17.5191 74.7251 18.2839 73.0233 19.4915 73.0233C19.6123 73.0233 19.6123 73.9732 19.5722 75.1211L19.4915 77.1791L21.6252 77.3771C22.7523 77.4958 23.7184 77.456 23.7184 77.2978C23.7184 77.0998 23.155 76.9811 22.4706 76.9811C21.3435 76.9811 21.2629 76.9021 21.3837 75.7148C21.4643 74.7251 21.746 74.3689 22.5108 74.1712C23.4769 73.8939 23.4769 73.8939 22.6315 73.8545C21.4643 73.815 21.4238 72.7066 22.5512 71.2817L23.3966 70.2529L24.0807 71.1235C24.4835 71.6379 24.9261 72.3109 25.0469 72.6276C25.2081 73.0233 25.2884 73.0628 25.2884 72.7066C25.3289 72.4296 25.53 72.3109 25.7313 72.4296C26.1743 72.7066 27.3415 71.7172 27.3415 71.084C27.3415 70.8466 27.5429 70.6486 27.7442 70.6486C27.9858 70.6486 28.1467 70.8068 28.1467 71.0443C28.1467 71.6379 29.5959 71.5192 30.1596 70.8466C30.723 70.1736 31.3673 70.0549 31.3673 70.6091C31.3673 70.8068 30.6828 71.2422 29.8776 71.5985C27.3819 72.6276 25.1275 74.0525 25.1677 74.5274C25.2081 74.8044 25.2483 75.8335 25.2884 76.8624C25.3289 78.5645 25.4092 78.6832 25.9327 78.129C26.4158 77.654 26.4961 77.2583 26.1743 76.4667C25.8923 75.7937 25.8923 75.3586 26.1338 75.2C26.3753 75.0418 26.5366 75.4375 26.5366 76.071V77.1791L27.583 76.071C28.1467 75.4773 28.4688 74.8438 28.3481 74.6064C28.1467 74.2502 29.3142 73.419 30.079 73.419C30.2804 73.419 30.1191 74.3689 29.7568 75.5168C28.6298 78.8809 28.4284 80.7412 29.0727 81.2954C29.7167 81.8098 30.1191 80.9787 31.5684 75.9917C31.9307 74.6856 32.5345 73.1815 32.8968 72.6276C33.5006 71.7172 33.5411 71.7172 33.8228 72.4296C34.1045 73.2213 34.1449 73.2213 34.1449 72.4296C34.1851 71.6379 34.346 71.559 36.8018 71.3215C37.3652 71.2817 37.8081 71.1235 37.8081 70.9255C37.8081 70.2923 38.6134 70.688 38.6535 71.3215C38.6937 71.7965 38.8144 71.7172 39.0158 71.0443L39.338 70.0549L39.3781 71.1235C39.4183 71.7567 39.6197 72.2316 39.8612 72.2316C40.1429 72.2316 40.2235 71.8359 40.1429 71.2422C40.0221 70.688 40.0626 70.2529 40.2637 70.2529C40.4249 70.2529 40.6664 71.0048 40.7467 71.9152C40.8675 73.5775 40.908 73.5775 40.9481 71.5985C40.9883 70.2529 40.8273 69.3819 40.465 69.0655C40.1429 68.828 39.821 68.2343 39.7404 67.7989C39.6598 67.3239 39.3781 66.8885 39.0964 66.849C38.8144 66.8095 38.7743 66.849 39.0158 66.9677C39.2172 67.047 39.4183 67.4821 39.4183 67.8384C39.4183 68.5508 37.3251 69.4217 34.9097 69.6987L33.7826 69.8569L34.9097 67.6407C35.9966 65.4636 35.9966 65.4241 35.1914 64.8699C34.4668 64.3555 34.346 64.3555 33.863 64.9887C33.5411 65.4241 32.8165 65.7011 32.0919 65.7011C31.0451 65.7011 30.7634 65.8991 30.4011 66.9677C29.8375 68.5906 29.2336 69.1445 29.5153 67.7989C29.6361 67.1259 29.4751 66.5322 29.0727 66.2158C28.5492 65.8198 28.3076 65.8991 27.583 66.7302C27.1404 67.3239 26.4961 68.1156 26.2546 68.5113C25.8119 69.1445 25.8119 69.105 26.1338 68.1946C26.4559 67.2844 26.3753 67.0864 25.7313 66.8885C24.8053 66.6115 23.316 66.9677 23.316 67.4821C23.316 67.6801 22.8731 67.6801 22.3097 67.4032C21.5851 67.0864 20.7798 67.0864 19.2099 67.4427C18.0423 67.7196 16.5931 68.0363 15.9893 68.1551C15.3854 68.2738 14.822 68.63 14.661 68.9468C14.3792 69.7779 15.2647 70.7278 16.11 70.5298C16.5128 70.4111 16.9153 70.5298 17.036 70.8068C17.1568 71.084 17.3983 71.0443 17.7606 70.6091C18.0423 70.2529 18.6866 69.7779 19.2099 69.5007C19.9345 69.105 20.0954 69.1445 20.0954 69.6592C20.0954 70.0154 19.25 70.688 18.0022 71.2422C16.3114 71.9941 15.7882 72.1129 15.3051 71.7172C14.822 71.361 14.7817 71.361 15.0233 71.7172C15.2245 72.0734 15.0233 72.2316 14.4999 72.2316C13.8961 72.2316 13.6546 71.9547 13.6143 71.3215C13.6143 70.4506 13.6143 70.4506 13.2118 71.4005C12.8495 72.3109 12.8092 72.3504 12.2456 71.5985C11.9236 71.2028 11.6418 70.6486 11.6418 70.4111C11.6418 69.8569 15.1844 65.2261 16.6737 63.92L17.7606 62.9306L17.4789 63.9993C17.2776 64.7117 17.3582 65.1074 17.6399 65.1074C17.8814 65.1074 18.0828 64.593 18.0828 63.92C18.0828 63.0099 18.3645 62.6139 19.2905 62.139C20.7798 61.3871 20.8605 61.3871 20.6189 62.337C20.3774 63.2474 19.8539 63.3661 19.5722 62.6139C19.4112 62.337 19.3306 62.3764 19.3306 62.7724C19.2905 63.1286 19.6528 63.5243 20.0552 63.6431C20.4981 63.7223 20.9006 64.2368 20.9812 64.7512C21.0615 65.5034 21.3837 65.1472 22.5914 62.8912C24.1212 59.9227 24.0807 59.1705 22.3498 59.1705C21.6252 59.1705 21.6654 59.0518 22.7121 57.9832C23.8392 56.7958 23.8797 56.7958 24.6043 57.5875C25.0067 57.9832 25.3289 58.6561 25.369 59.0518C25.4092 59.6455 25.4496 59.6455 25.6507 58.9331C25.8119 58.4979 26.3352 57.627 26.8182 57.0333C28.1467 55.371 28.9115 56.2021 29.0322 59.3291L29.1128 61.7433L29.2336 59.4478C29.3544 57.825 29.5558 57.1918 29.9582 57.1918C30.4011 57.1918 30.5621 57.7062 30.5621 59.2498C30.5621 60.3579 30.6828 61.1496 30.8438 60.9914C31.005 60.8329 31.0853 59.9227 31.005 58.9331C30.9244 57.5082 31.0853 56.9145 31.8099 56.1626C32.8968 55.0147 33.058 54.9753 33.702 56.0439C34.0242 56.5189 34.0643 56.7563 33.8228 56.5981C33.5411 56.4396 33.3799 56.9543 33.3799 58.1417C33.3799 59.4478 33.5411 59.9622 33.9436 59.9622C34.6682 59.9622 34.9903 59.0916 34.9903 57.2313C34.9903 56.4396 35.272 55.4107 35.5942 54.9753C36.1575 54.2628 36.198 54.2628 36.6406 54.9358C37.2849 56.0439 38.6937 56.4001 39.2975 55.6482C39.7404 55.094 39.8612 55.094 40.2235 55.6084C40.5457 56.0834 40.626 56.0439 40.626 55.292C40.626 54.0254 41.4312 54.6191 41.4713 55.9252C41.5118 56.5981 41.5921 56.7563 41.7129 56.2814C41.7935 55.9252 42.035 55.6084 42.2364 55.6084C42.4375 55.6084 42.5181 55.8857 42.3973 56.2021C42.2364 56.5188 42.3572 57.0731 42.6389 57.3895C43.0818 57.9042 42.961 57.9832 41.9544 57.9832C41.3104 57.9832 40.5858 57.7855 40.3443 57.548C39.338 56.5583 38.5729 57.9437 37.3652 62.7327C36.8822 64.6324 36.7614 65.8198 37.0029 66.0573C37.2445 66.2948 37.4057 66.7697 37.4057 67.1657C37.4057 67.8383 38.2106 68.2343 38.2106 67.5614C38.2511 66.4928 39.4989 61.8225 40.1429 60.3184C40.8675 58.6166 41.0287 58.4979 42.1959 58.6956C43.4441 58.8541 43.4441 58.8541 43.4441 57.0731C43.4441 55.6084 43.605 55.2127 44.249 55.0147C44.6919 54.896 45.5373 54.1441 46.101 53.3922C46.7048 52.64 47.2682 52.1256 47.389 52.2048C47.5097 52.3236 47.389 52.6798 47.1474 52.9567C46.7851 53.3524 46.8256 53.6692 47.2281 54.2234C47.8721 55.1335 48.959 54.7773 49.442 53.5504C49.8043 52.64 51.4951 50.8987 51.4951 51.4132C51.4951 51.5714 51.294 52.0861 51.0525 52.5213C50.7303 53.0755 50.7303 53.4317 51.0525 53.7484C51.3342 54.0254 51.5355 56.5981 51.5757 60.5559L51.6563 66.8885L51.8979 60.5559L52.1394 54.2234L52.3003 60.9516L52.4612 67.6801L52.7028 60.7539C52.864 54.5796 52.9848 53.6297 53.8301 52.1651C54.9171 50.1465 54.9572 48.8404 53.9911 47.9698C53.0249 47.0991 52.3405 47.1386 51.294 48.0885C50.4888 48.8009 50.368 48.8404 49.885 48.2865C49.1603 47.4156 48.0333 47.5343 47.3087 48.5635L46.6644 49.4341L45.6581 48.4842C44.7725 47.6928 44.531 47.6136 43.7258 48.049C43.2025 48.326 42.4779 49.0384 42.1156 49.5926C41.7935 50.1863 40.8273 51.2944 40.0626 52.0068C38.9757 53.036 38.6134 53.2337 38.6134 52.7193C38.6134 51.8881 40.1027 50.3445 40.626 50.6613C41.2298 51.0175 41.8741 49.4739 41.3506 48.9592C40.7066 48.326 38.8951 48.3655 38.2511 48.9989C37.8081 49.3946 37.7275 49.3551 37.8888 48.8802C38.6535 46.8219 40.3844 43.339 40.626 43.339C40.7872 43.339 41.5921 43.616 42.4375 43.9722C44.4905 44.8034 44.6919 44.3682 42.6389 43.4973C41.0689 42.8246 40.9883 42.7059 41.2298 41.4787C41.4312 40.4499 41.3104 40.1331 40.626 39.7769C39.9418 39.4207 39.7404 39.5 39.338 40.3706C39.0964 40.9248 38.6535 41.36 38.412 41.36C37.5666 41.36 33.058 38.2728 32.3334 37.244C29.5153 32.9297 42.5181 35.4231 47.7917 40.1726C48.9188 41.1623 49.0797 41.2018 49.0797 40.5686C49.0797 38.9458 49.8448 39.5 50.6096 41.6372C51.5757 44.3682 51.7771 43.3785 50.8511 40.3311C50.2874 38.3521 50.2874 37.9959 50.8511 36.3335C51.5757 34.2358 51.6563 32.8109 51.0926 32.4547C50.8913 32.336 50.8109 31.7423 50.9317 31.1091C51.0926 30.3174 50.8913 29.7237 50.2071 28.8531C49.442 27.9824 49.2811 27.4678 49.5226 26.7158C49.6836 26.1617 49.8043 25.1327 49.8448 24.4203C49.885 22.6788 49.0396 22.7975 47.671 24.7369C46.6242 26.2013 46.4228 26.3201 44.6113 26.3201C43.0012 26.3201 42.5987 26.4784 41.8741 27.3887L41.0689 28.4969L39.539 27.6657C38.0095 26.795 38.0095 26.795 37.7275 23.7078C37.2445 18.4834 37.2849 16.4649 37.8081 15.8316C38.2106 15.3567 38.2106 15.1192 37.8081 14.6442C37.5265 14.3276 37.0835 14.0505 36.8018 14.0505C36.1174 14.0505 35.3928 12.3091 35.3928 10.6468C35.3928 9.06359 34.2657 6.68885 33.0176 5.58064C32.3736 4.98696 32.1722 4.31411 32.0919 2.41431L32.0113 0L31.8905 2.25601C31.7296 4.39327 31.6891 4.51201 30.9645 4.03706C30.3607 3.72042 30.1596 3.08717 30.079 1.78106L30.0388 0L29.7568 1.97895L29.4751 3.9579L29.3544 1.97895L29.2336 0L29.0727 1.7019C28.8713 3.79959 27.9858 3.76002 27.8245 1.66232C27.7442 0.672841 27.5027 0.197893 27.0598 0.197893C26.5767 0.197893 26.4961 0.514526 26.6169 1.58316C26.7781 2.84969 26.6975 2.96843 25.7313 2.96843C24.7652 2.96843 24.6846 2.84969 24.8458 1.58316C24.9666 0.514526 24.886 0.197893 24.3627 0.197893C23.9198 0.197893 23.7184 0.554104 23.7184 1.38526C23.7184 3.08717 22.5107 3.008 22.4706 1.26653L22.4304 0L22.1083 1.18737L21.7861 2.37474L21.746 1.26653C21.7058 0.158315 20.4981 -0.316633 20.4981 0.791578C20.4981 1.62274 19.7735 1.54358 19.6123 0.672841C19.4915 0.197893 19.3708 0.118737 19.1697 0.514526ZM30.1998 5.34317C32.0919 6.33264 34.2253 9.30106 32.9774 9.30106C32.776 9.30106 32.3334 8.82612 32.0113 8.19286C31.6891 7.59918 30.6828 6.68885 29.7973 6.13476C28.8713 5.58065 28.1467 5.02653 28.1467 4.86822C28.1467 4.39327 28.4284 4.47244 30.1998 5.34317ZM32.8968 10.7655C34.3059 11.2405 34.628 11.5175 34.4668 12.1112C34.346 12.5861 34.4668 12.8632 34.8291 12.8632C35.1512 12.8632 35.3928 13.0215 35.3928 13.259C35.3928 13.4569 34.8696 13.6548 34.2253 13.6548C32.4137 13.6548 31.7697 14.0505 31.7697 15.0796C31.7697 15.5941 31.6088 16.0295 31.3673 16.0295C31.1659 16.0295 30.9645 15.5941 30.9645 15.04C30.9645 14.3276 30.6828 14.011 29.9181 13.8131C28.2675 13.4173 24.5237 14.011 23.0343 14.8817C22.3097 15.3171 21.7058 15.5941 21.7058 15.4358C21.7058 14.8026 22.9938 12.9423 24.2015 11.7945C26.3352 9.73644 29.1128 9.4198 32.8968 10.7655ZM30.3607 14.8421C30.5219 15.0796 30.1191 15.1192 29.3142 14.9609C28.1467 14.763 28.0259 14.8026 28.3076 15.4754C29.0727 17.4544 29.0322 18.3251 28.1869 18.6022C27.0999 18.9188 26.5366 18.5626 26.4961 17.4939C26.4961 16.6628 26.4559 16.6628 26.1338 17.4148C25.9327 17.8501 25.7715 18.0085 25.7715 17.8106C25.7313 17.5731 25.6106 16.9794 25.4898 16.4253C25.3289 15.6337 25.369 15.5546 25.6912 16.0295C26.0535 16.544 26.1338 16.544 26.1338 15.9108C26.1338 15.4358 25.8119 15.2379 25.0469 15.1983C24.0406 15.1983 24.0004 15.1588 24.725 14.8421C25.8521 14.3672 30.079 14.3672 30.3607 14.8421ZM37.0029 14.8817C37.486 15.1983 37.3652 15.2775 36.5198 15.1192C35.5135 14.9609 35.4329 15.04 35.6343 15.9899C35.7551 16.544 35.916 17.2169 35.9966 17.4939C36.0772 17.7314 35.8759 18.1668 35.5537 18.4042C34.628 19.1958 33.7826 18.1668 33.7826 16.3461C33.7826 14.9609 33.702 14.763 32.9774 14.9609C32.5345 15.0796 32.1722 15.0004 32.1722 14.8026C32.1722 14.288 36.2783 14.3672 37.0029 14.8817ZM33.3799 16.6232C33.3799 17.1773 33.2996 17.6127 33.219 17.6127C33.1383 17.6127 32.9774 17.1773 32.8968 16.6232C32.776 16.0691 32.8567 15.6337 33.0176 15.6337C33.219 15.6337 33.3799 16.0691 33.3799 16.6232ZM24.1212 16.6232C24.1212 16.9398 24.8458 17.7314 25.6912 18.3251C26.8989 19.1958 27.1806 19.5916 26.8182 19.9478C25.9729 20.779 26.939 20.3832 28.6298 19.1958C30.8036 17.6523 32.3334 17.6523 34.3059 19.2354C35.1111 19.9083 35.7952 20.5811 35.7952 20.779C35.7952 21.2144 30.8036 20.779 30.6427 20.3436C30.4413 19.8687 29.3544 19.9083 29.3544 20.3436C29.3544 20.5415 29.5959 20.8186 29.8776 20.9373C30.6828 21.2935 27.2612 20.8977 25.9327 20.5019C24.8458 20.1457 24.6846 20.1853 24.6444 20.8186C24.6043 21.2144 25.0873 22.0455 25.7313 22.5996C26.6975 23.5495 26.8182 23.8266 26.4559 24.6973C25.7715 26.3992 25.369 28.3386 25.6106 28.9323C25.7313 29.2488 26.1743 29.4863 26.5767 29.4863C27.1404 29.4863 27.3415 29.7635 27.3415 30.6736C27.3415 31.3071 27.5429 31.861 27.7442 31.861C27.9858 31.861 28.1467 32.336 28.1467 32.8902C28.1467 34.1568 29.4751 34.0775 29.6765 32.7714C29.7568 32.2965 30.079 31.7028 30.4011 31.4653C30.723 31.1884 30.9645 30.5947 30.9645 30.1197C30.9645 29.6448 31.3268 28.9718 31.7697 28.5761C32.6553 27.8636 32.776 26.5575 32.2127 24.9744C31.9307 24.2619 31.9711 23.8662 32.4137 23.5495C32.6957 23.2725 32.9774 22.7184 32.9774 22.3226C32.9774 21.6893 33.2996 21.5706 34.9903 21.5706H37.0029V24.0641C37.0029 26.3201 36.5198 30.001 35.916 32.059C35.7551 32.6132 35.8357 32.732 36.1174 32.4547C36.3589 32.2172 36.8018 30.9904 37.0835 29.7237L37.6068 27.3887L38.7743 28.3782L39.982 29.3675L38.8549 31.9403L37.7275 34.513L35.5537 34.315C33.9837 34.1963 33.0982 34.315 32.3736 34.79C31.4074 35.4231 31.005 36.9272 31.6891 37.5604C31.8504 37.7189 32.0113 38.7083 32.0514 39.6977C32.2528 44.5659 32.3736 45.2388 33.702 47.2574L34.9903 49.3551L33.6214 51.1757C31.9711 53.3922 29.8375 55.4502 29.5558 55.1335C29.2336 54.8565 30.079 52.7985 30.8438 51.9674C31.2061 51.5714 31.8099 51.2549 32.2127 51.2549C33.1788 51.2549 33.5411 50.5425 32.9774 49.8696C32.0113 48.7615 30.8437 49.2364 28.4688 51.6901L26.1338 54.1046L26.2144 52.7587C26.3352 51.6901 26.1743 51.4526 25.53 51.4526C25.0873 51.4526 24.3627 52.0068 23.8797 52.7193L22.9938 54.0254L22.7523 53.036C22.5914 52.4025 22.1083 51.9674 21.3435 51.7694L20.176 51.4526L21.9875 47.1386C23.5174 43.616 23.7589 42.7059 23.3966 42.1122C23.1146 41.7162 22.8731 40.2519 22.8731 38.9063L22.8329 36.4128L22.4706 38.6688C22.0681 41.3205 19.5722 47.4948 17.6399 50.7007C14.822 55.292 8.70306 59.606 4.91901 59.6853C2.8257 59.7248 2.30235 59.2893 2.30235 57.5082C2.30235 53.2735 8.46153 47.5343 13.4935 47.0199C15.627 46.7824 16.1505 47.0594 15.2245 47.9698C14.7012 48.4842 15.0635 50.4633 15.6674 50.4633C16.1505 50.4633 18.8877 46.9406 18.8877 46.268C18.8877 45.9907 18.4046 45.397 17.8008 44.9221C16.3114 43.7745 12.9702 43.9722 10.0718 45.397C8.09922 46.3469 8.01873 46.3469 8.01873 45.595C8.01873 45.1596 8.9446 42.4684 10.112 39.6187C12.1248 34.5525 12.2859 34.3545 15.5062 31.1486C17.3177 29.3675 18.9683 27.9032 19.1697 27.9032C19.3708 27.9032 19.8539 28.4177 20.2162 29.0906C20.6189 29.7237 21.1421 30.278 21.3435 30.278C21.5446 30.278 21.2629 29.605 20.6992 28.8135C19.532 27.1116 19.4514 25.8055 20.1358 20.8977C20.5785 17.8897 20.7397 17.5335 21.8668 16.8211C23.3561 15.8712 24.1212 15.8316 24.1212 16.6232ZM31.5684 16.8211C31.6891 17.019 31.5282 17.2169 31.2061 17.2169C30.8438 17.2169 30.5621 17.019 30.5621 16.8211C30.5621 16.5836 30.723 16.4253 30.9244 16.4253C31.1659 16.4253 31.4476 16.5836 31.5684 16.8211ZM37.0029 19.8291C37.0029 21.0165 36.3991 21.056 35.7551 19.9478C35.4329 19.275 35.4329 19.0375 35.8357 18.7605C36.6005 18.3251 37.0029 18.6813 37.0029 19.8291ZM29.9984 21.7289C32.0113 21.4914 32.1722 21.531 32.1722 22.283C32.1722 23.2329 31.4476 23.5495 29.3142 23.5495C28.0661 23.5495 27.4221 23.2725 26.2144 22.1643L24.725 20.779L26.295 21.4122C27.3819 21.8476 28.4284 21.9268 29.9984 21.7289ZM47.0671 32.6922C47.0671 32.9297 46.9059 32.9694 46.6644 32.8507C46.4633 32.732 46.2619 32.4152 46.2619 32.2172C46.2619 31.9798 46.4633 31.9403 46.6644 32.059C46.9059 32.1777 47.0671 32.4945 47.0671 32.6922ZM50.0459 34.8294C50.1666 35.1462 50.0863 35.4231 49.885 35.4231C49.6434 35.4231 49.4825 35.1462 49.4825 34.8294C49.4825 34.513 49.5628 34.2358 49.6434 34.2358C49.724 34.2358 49.885 34.513 50.0459 34.8294ZM35.7149 40.7268C37.0835 41.558 38.2106 42.3891 38.2106 42.5474C38.2106 43.1808 36.9628 45.7138 36.6811 45.7138C36.2783 45.7138 34.1449 43.4973 33.2591 42.1517C32.575 41.1623 32.293 38.7875 32.8968 39.0645C33.058 39.104 34.346 39.8957 35.7149 40.7268ZM34.9097 45.3576C36.1174 46.6242 36.198 46.9406 35.7952 47.6928C35.3122 48.5635 35.272 48.524 34.1449 46.8617C33.5006 45.9118 32.9774 44.6846 32.9774 44.1307C32.9774 43.616 33.0982 43.339 33.2996 43.537C33.4605 43.7745 34.1851 44.5659 34.9097 45.3576ZM43.4441 53.4317C43.1621 53.7879 42.8402 53.9461 42.7596 53.8672C42.4779 53.5899 43.0413 52.838 43.5244 52.838C43.7659 52.838 43.7659 53.0755 43.4441 53.4317Z" fill="#950606"></path>
</svg>