<svg width="1180" height="277" viewBox="0 0 1180 277" fill="none" xmlns="http://www.w3.org/2000/svg">
<path d="M98.596 6L216.596 185V252L95.096 68.5L50.596 114L73.096 174V276L0.596008 85.5L98.596 6Z" fill="black" stroke="black"></path>
<path d="M72.596 277V110L273.596 0V277H213.096V84L124.096 133V277H72.596Z" fill="#F1C231"></path>
<path d="M1171.4 225.884V163.324H1179.78V239.676H1171.51L1123.73 177.116V239.676H1115.35V163.324H1123.62L1171.4 225.884Z" fill="black"></path>
<path d="M1062.17 162H1062.28C1085.78 162 1101.01 177.999 1101.01 201.39V201.5C1101.01 225.001 1085.78 241 1062.28 241H1062.17C1038.67 241 1023.33 225.001 1023.33 201.5V201.39C1023.33 177.999 1038.67 162 1062.17 162ZM1062.17 233.056H1062.28C1080.49 233.056 1092.51 220.367 1092.51 201.5V201.39C1092.51 182.633 1080.49 169.944 1062.28 169.944H1062.17C1043.85 169.944 1031.83 182.633 1031.83 201.39V201.5C1031.83 220.367 1043.85 233.056 1062.17 233.056Z" fill="black"></path>
<path d="M1008.98 239.676H1000.49V163.324H1008.98V239.676Z" fill="black"></path>
<path d="M928.146 163.324H988.058V171.489H962.35V239.676H953.854V171.489H928.146V163.324Z" fill="black"></path>
<path d="M921.714 170.275L916.969 176.675C911.453 172.151 904.281 169.944 896.557 169.944H896.447C878.462 169.944 866.325 183.074 866.325 201.39V201.5C866.436 220.036 878.462 233.056 896.447 233.056H896.557C904.612 233.056 911.563 230.739 916.969 226.325L921.714 232.725C914.652 238.573 906.267 241 896.557 241H896.447C872.946 241 857.83 225.112 857.83 201.5V201.39C857.83 177.888 872.946 162 896.447 162H896.557C905.825 162 914.542 164.317 921.714 170.275Z" fill="black"></path>
<path d="M836.804 206.134V163.324H845.3V206.134C845.3 230.959 830.736 241 812.861 241H812.751C794.877 241 780.312 230.959 780.312 206.134V163.324H788.808V206.134C788.808 225.663 800.393 232.725 812.751 232.725H812.861C825.219 232.725 836.804 225.663 836.804 206.134Z" fill="black"></path>
<path d="M748.319 211.54L768.4 239.676H758.911L740.043 212.754H737.837H716.873V239.676H708.377V163.324H737.837C756.483 163.324 766.634 173.254 766.634 188.37V188.48C766.634 200.176 760.235 208.561 748.319 211.54ZM737.837 171.047H716.873V205.362H737.837C750.967 205.362 758.138 198.962 758.138 188.48V188.37C758.138 177.557 750.967 171.047 737.837 171.047Z" fill="black"></path>
<path d="M636.038 163.324H695.95V171.489H670.242V239.676H661.746V171.489H636.038V163.324Z" fill="black"></path>
<path d="M628.055 176.785L622.869 182.743C619.339 174.799 612.056 169.613 600.471 169.613H600.361C587.783 169.613 580.721 174.578 580.721 181.971C580.721 187.156 583.811 192.011 593.741 194.549L611.615 198.962C625.407 202.272 629.158 211.209 629.158 220.257C629.158 232.725 618.456 241 600.692 241H600.582C584.914 241 573.991 234.601 569.467 223.126L576.528 218.271C580.611 228.532 588.886 233.387 600.802 233.387H600.913C613.711 233.387 620.552 227.98 620.552 220.147C620.552 214.078 617.242 208.892 608.084 206.575L589.217 201.721C576.639 198.411 572.115 190.797 572.115 182.191C572.115 169.613 582.707 162 600.692 162H600.802C614.484 162 623.973 167.737 628.055 176.785Z" fill="black"></path>
<path d="M547.852 225.884V163.324H556.237V239.676H547.962L500.187 177.116V239.676H491.801V163.324H500.076L547.852 225.884Z" fill="black"></path>
<path d="M438.626 162H438.736C462.238 162 477.464 177.999 477.464 201.39V201.5C477.464 225.001 462.238 241 438.736 241H438.626C415.125 241 399.788 225.001 399.788 201.5V201.39C399.788 177.999 415.125 162 438.626 162ZM438.626 233.056H438.736C456.942 233.056 468.968 220.367 468.968 201.5V201.39C468.968 182.633 456.942 169.944 438.736 169.944H438.626C420.31 169.944 408.284 182.633 408.284 201.39V201.5C408.284 220.367 420.31 233.056 438.626 233.056Z" fill="black"></path>
<path d="M391.48 170.275L386.736 176.675C381.219 172.151 374.047 169.944 366.324 169.944H366.213C348.229 169.944 336.092 183.074 336.092 201.39V201.5C336.202 220.036 348.229 233.056 366.213 233.056H366.324C374.378 233.056 381.329 230.739 386.736 226.325L391.48 232.725C384.419 238.573 376.033 241 366.324 241H366.213C342.712 241 327.596 225.112 327.596 201.5V201.39C327.596 177.888 342.712 162 366.213 162H366.324C375.592 162 384.308 164.317 391.48 170.275Z" fill="black"></path>
<path d="M997.066 44.324H1060.18V63.412H1038.55V120.676H1018.69V63.412H997.066V44.324Z" fill="black"></path>
<path d="M968.499 86.3617V44.324H987.808V120.676H970.485L938.488 78.7485V120.676H919.18V44.324H936.502L968.499 86.3617Z" fill="black"></path>
<path d="M880.804 44.324L911.036 120.676H890.072L884.997 106.332H855.206L850.131 120.676H829.167L859.399 44.324H880.804ZM878.707 88.8994L870.101 64.736L861.495 88.8994H878.707Z" fill="black"></path>
<path d="M801.704 86.3617V44.324H821.012V120.676H803.69L771.693 78.7485V120.676H752.384V44.324H769.707L801.704 86.3617Z" fill="black"></path>
<path d="M686.765 44.324H739.836V62.8603H706.625V73.2318H735.422V91.7681H706.625V102.14H739.836V120.676H686.765V44.324Z" fill="black"></path>
<path d="M622.028 44.324L639.792 96.2918L657.556 44.324H678.52L650.495 120.676H629.09L601.064 44.324H622.028Z" fill="black"></path>
<path d="M557.641 43H557.752C582.577 43 597.252 59.5503 597.252 82.3897V82.5C597.252 105.45 582.577 122 557.752 122H557.641C532.816 122 518.141 105.45 518.141 82.5V82.3897C518.141 59.5503 532.816 43 557.641 43ZM557.641 103.464H557.752C570.109 103.464 577.391 94.6369 577.391 82.5V82.3897C577.391 70.3631 570.109 61.5363 557.752 61.5363H557.641C545.284 61.5363 538.002 70.3631 538.002 82.3897V82.5C538.002 94.6369 545.284 103.464 557.641 103.464Z" fill="black"></path>
<path d="M513.79 52.7095L502.867 67.6047C498.012 63.412 492.495 61.5363 486.206 61.5363H486.096C473.738 61.5363 466.456 70.8045 466.456 82.3897V82.5C466.677 94.3059 473.849 103.464 486.096 103.464H486.206C493.488 103.464 498.454 101.147 502.867 97.3952L513.79 112.29C507.06 118.58 497.792 122 486.206 122H486.096C461.271 122 446.596 105.45 446.596 82.5V82.3897C446.596 59.5503 461.271 43 486.096 43H486.206C496.688 43 506.618 45.979 513.79 52.7095Z" fill="black"></path>
</svg>