<svg width="682" height="365" viewBox="0 0 682 365" fill="none" xmlns="http://www.w3.org/2000/svg">
<path d="M266 6L384 185V252L262.5 68.5L218 114L240.5 174V276L168 85.5L266 6Z" fill="black" stroke="black"></path>
<path d="M240 277V110L441 0V277H380.5V84L291.5 133V277H240Z" fill="#F1C231"></path>
<path d="M677.666 357.95V329.6H681.466V364.2H677.716L656.066 335.85V364.2H652.266V329.6H656.016L677.666 357.95Z" fill="black"></path>
<path d="M628.169 329H628.219C638.869 329 645.769 336.25 645.769 346.85V346.9C645.769 357.55 638.869 364.8 628.219 364.8H628.169C617.519 364.8 610.569 357.55 610.569 346.9V346.85C610.569 336.25 617.519 329 628.169 329ZM628.169 361.2H628.219C636.469 361.2 641.919 355.45 641.919 346.9V346.85C641.919 338.35 636.469 332.6 628.219 332.6H628.169C619.869 332.6 614.419 338.35 614.419 346.85V346.9C614.419 355.45 619.869 361.2 628.169 361.2Z" fill="black"></path>
<path d="M604.066 364.2H600.216V329.6H604.066V364.2Z" fill="black"></path>
<path d="M567.434 329.6H594.584V333.3H582.934V364.2H579.084V333.3H567.434V329.6Z" fill="black"></path>
<path d="M564.519 332.75L562.369 335.65C559.869 333.6 556.619 332.6 553.119 332.6H553.069C544.919 332.6 539.419 338.55 539.419 346.85V346.9C539.469 355.3 544.919 361.2 553.069 361.2H553.119C556.769 361.2 559.919 360.15 562.369 358.15L564.519 361.05C561.319 363.7 557.519 364.8 553.119 364.8H553.069C542.419 364.8 535.569 357.6 535.569 346.9V346.85C535.569 336.2 542.419 329 553.069 329H553.119C557.319 329 561.269 330.05 564.519 332.75Z" fill="black"></path>
<path d="M526.041 349V329.6H529.891V349C529.891 360.25 523.291 364.8 515.191 364.8H515.141C507.041 364.8 500.441 360.25 500.441 349V329.6H504.291V349C504.291 357.85 509.541 361.05 515.141 361.05H515.191C520.791 361.05 526.041 357.85 526.041 349Z" fill="black"></path>
<path d="M485.943 351.45L495.043 364.2H490.743L482.193 352H481.193H471.693V364.2H467.843V329.6H481.193C489.643 329.6 494.243 334.1 494.243 340.95V341C494.243 346.3 491.343 350.1 485.943 351.45ZM481.193 333.1H471.693V348.65H481.193C487.143 348.65 490.393 345.75 490.393 341V340.95C490.393 336.05 487.143 333.1 481.193 333.1Z" fill="black"></path>
<path d="M435.061 329.6H462.211V333.3H450.561V364.2H446.711V333.3H435.061V329.6Z" fill="black"></path>
<path d="M431.443 335.7L429.093 338.4C427.493 334.8 424.193 332.45 418.943 332.45H418.893C413.193 332.45 409.993 334.7 409.993 338.05C409.993 340.4 411.393 342.6 415.893 343.75L423.993 345.75C430.243 347.25 431.943 351.3 431.943 355.4C431.943 361.05 427.093 364.8 419.043 364.8H418.993C411.893 364.8 406.943 361.9 404.893 356.7L408.093 354.5C409.943 359.15 413.693 361.35 419.093 361.35H419.143C424.943 361.35 428.043 358.9 428.043 355.35C428.043 352.6 426.543 350.25 422.393 349.2L413.843 347C408.143 345.5 406.093 342.05 406.093 338.15C406.093 332.45 410.893 329 419.043 329H419.093C425.293 329 429.593 331.6 431.443 335.7Z" fill="black"></path>
<path d="M395.098 357.95V329.6H398.898V364.2H395.148L373.498 335.85V364.2H369.698V329.6H373.448L395.098 357.95Z" fill="black"></path>
<path d="M345.601 329H345.651C356.301 329 363.201 336.25 363.201 346.85V346.9C363.201 357.55 356.301 364.8 345.651 364.8H345.601C334.951 364.8 328.001 357.55 328.001 346.9V346.85C328.001 336.25 334.951 329 345.601 329ZM345.601 361.2H345.651C353.901 361.2 359.351 355.45 359.351 346.9V346.85C359.351 338.35 353.901 332.6 345.651 332.6H345.601C337.301 332.6 331.851 338.35 331.851 346.85V346.9C331.851 355.45 337.301 361.2 345.601 361.2Z" fill="black"></path>
<path d="M324.236 332.75L322.086 335.65C319.586 333.6 316.336 332.6 312.836 332.6H312.786C304.636 332.6 299.136 338.55 299.136 346.85V346.9C299.186 355.3 304.636 361.2 312.786 361.2H312.836C316.486 361.2 319.636 360.15 322.086 358.15L324.236 361.05C321.036 363.7 317.236 364.8 312.836 364.8H312.786C302.136 364.8 295.286 357.6 295.286 346.9V346.85C295.286 336.2 302.136 329 312.786 329H312.836C317.036 329 320.986 330.05 324.236 332.75Z" fill="black"></path>
<path d="M249.454 329.6H278.054V338.25H268.254V364.2H259.254V338.25H249.454V329.6Z" fill="black"></path>
<path d="M236.508 348.65V329.6H245.258V364.2H237.408L222.908 345.2V364.2H214.158V329.6H222.008L236.508 348.65Z" fill="black"></path>
<path d="M196.768 329.6L210.468 364.2H200.968L198.668 357.7H185.168L182.868 364.2H173.368L187.068 329.6H196.768ZM195.818 349.8L191.918 338.85L188.018 349.8H195.818Z" fill="black"></path>
<path d="M160.922 348.65V329.6H169.672V364.2H161.822L147.322 345.2V364.2H138.572V329.6H146.422L160.922 348.65Z" fill="black"></path>
<path d="M108.836 329.6H132.886V338H117.836V342.7H130.886V351.1H117.836V355.8H132.886V364.2H108.836V329.6Z" fill="black"></path>
<path d="M79.4996 329.6L87.5496 353.15L95.5996 329.6H105.1L92.3996 364.2H82.6996L69.9996 329.6H79.4996Z" fill="black"></path>
<path d="M50.3219 329H50.3719C61.6219 329 68.2719 336.5 68.2719 346.85V346.9C68.2719 357.3 61.6219 364.8 50.3719 364.8H50.3219C39.0719 364.8 32.4219 357.3 32.4219 346.9V346.85C32.4219 336.5 39.0719 329 50.3219 329ZM50.3219 356.4H50.3719C55.9719 356.4 59.2719 352.4 59.2719 346.9V346.85C59.2719 341.4 55.9719 337.4 50.3719 337.4H50.3219C44.7219 337.4 41.4219 341.4 41.4219 346.85V346.9C41.4219 352.4 44.7219 356.4 50.3219 356.4Z" fill="black"></path>
<path d="M30.45 333.4L25.5 340.15C23.3 338.25 20.8 337.4 17.95 337.4H17.9C12.3 337.4 9 341.6 9 346.85V346.9C9.1 352.25 12.35 356.4 17.9 356.4H17.95C21.25 356.4 23.5 355.35 25.5 353.65L30.45 360.4C27.4 363.25 23.2 364.8 17.95 364.8H17.9C6.65 364.8 0 357.3 0 346.9V346.85C0 336.5 6.65 329 17.9 329H17.95C22.7 329 27.2 330.35 30.45 333.4Z" fill="black"></path>
</svg>